M48
; DRILL file {KiCad (5.1.5)-3} date 27.04.2020 20:32:15
; FORMAT={3:3/ absolute / metric / suppress leading zeros}
; #@! TF.CreationDate,2020-04-27T20:32:15+02:00
; #@! TF.GenerationSoftware,Kicad,Pcbnew,(5.1.5)-3
FMAT,2
METRIC,TZ
T1C0.300
T2C0.400
T3C1.000
T4C1.200
T5C3.200
T6C3.500
%
G90
G05
T1
X32000Y-126000
X32000Y-130000
X33000Y-126000
X33000Y-130000
X34000Y-126000
X34000Y-130000
X35000Y-126000
X35000Y-130000
X36000Y-126000
X36000Y-130000
X37000Y-126000
X37000Y-130000
X38000Y-126000
X38000Y-130000
X39650Y-158650
X40400Y-157800
X40750Y-153250
X41815Y-157800
X44000Y-157800
X44750Y-153250
X45900Y-157800
X48750Y-153250
X49400Y-150900
X51000Y-155750
X51000Y-165500
X52700Y-153400
X53300Y-163200
X54800Y-153400
X59000Y-126000
X59000Y-130000
X59400Y-159200
X60000Y-126000
X60000Y-130000
X60200Y-158500
X60800Y-157800
X61000Y-126000
X61000Y-130000
X61000Y-134000
X61400Y-153900
X62000Y-126000
X62000Y-130000
X63000Y-126000
X63000Y-130000
X64000Y-126000
X64000Y-130000
X65000Y-126000
X65000Y-130000
X65000Y-134000
X65500Y-150250
X66000Y-126000
X66000Y-130000
X66000Y-154000
X66500Y-150250
X66500Y-156250
X67100Y-154000
X68250Y-150250
X68750Y-134000
X69200Y-153500
X69200Y-154300
X69250Y-135000
X69250Y-150250
X69500Y-148750
X69750Y-136500
X70500Y-148750
X71500Y-149750
X72250Y-148250
X72500Y-141900
X73979Y-152049
X74000Y-134000
X74000Y-163000
X74250Y-143000
X75500Y-136500
X77500Y-154400
X77500Y-159250
X78000Y-134000
X79500Y-157000
X79900Y-154400
X80500Y-156500
X82246Y-155746
X83250Y-153000
X83700Y-148400
X84000Y-159500
X84500Y-154500
X84750Y-153250
X85000Y-148500
X86800Y-152500
X86800Y-153200
X86800Y-153900
X87000Y-126000
X87000Y-130000
X88000Y-126000
X88000Y-130000
X89000Y-126000
X89000Y-130000
X90000Y-126000
X90000Y-130000
X91000Y-126000
X91000Y-130000
X92000Y-126000
X92000Y-130000
X93000Y-126000
X93000Y-130000
T2
X71750Y-153500
X72500Y-161000
X73000Y-147750
X75300Y-154400
T3
X75420Y-161000
X76805Y-163840
X78190Y-161000
X79575Y-163840
X80960Y-161000
X82345Y-163840
X83730Y-161000
X85115Y-163840
X86500Y-161000
X38420Y-161000
X39805Y-163840
X41190Y-161000
X42575Y-163840
X43960Y-161000
X45345Y-163840
X46730Y-161000
X48115Y-163840
X49500Y-161000
T4
X32000Y-152750
X32000Y-156250
X93000Y-152750
X93000Y-156250
X75750Y-167000
X79250Y-167000
X54250Y-167000
X57750Y-167000
X84250Y-167000
X87750Y-167000
X45750Y-167000
X49250Y-167000
X67250Y-167000
X70750Y-167000
X32000Y-144250
X32000Y-147750
X37250Y-167000
X40750Y-167000
T5
X68460Y-162420
X93460Y-162420
X31460Y-162420
X56460Y-162420
T6
X100500Y-163000
X100500Y-138000
X24500Y-138000
X24500Y-163000
T0
M30
