M48
; DRILL file {KiCad (5.1.5)-3} date 24.04.2020 21:16:38
; FORMAT={3:3/ absolute / metric / suppress leading zeros}
; #@! TF.CreationDate,2020-04-24T21:16:38+02:00
; #@! TF.GenerationSoftware,Kicad,Pcbnew,(5.1.5)-3
FMAT,2
METRIC,TZ
T1C0.300
T2C0.400
T3C1.000
T4C1.200
T5C3.200
T6C3.500
%
G90
G05
T1
X12000Y49000
X12000Y45000
X13000Y49000
X13000Y45000
X14000Y49000
X14000Y45000
X15000Y49000
X15000Y45000
X16000Y49000
X16000Y45000
X17000Y49000
X17000Y45000
X18000Y49000
X18000Y45000
X19650Y65350
X19650Y16350
X20400Y66200
X20400Y17200
X20750Y70750
X20750Y21750
X21815Y66200
X21815Y17200
X24000Y66200
X24000Y17200
X24750Y70750
X24750Y21750
X25900Y66200
X25900Y17200
X28750Y70750
X28750Y21750
X29400Y73100
X29400Y24100
X31000Y68250
X31000Y19250
X39000Y49000
X39000Y45000
X39400Y64800
X39400Y15800
X40000Y49000
X40000Y45000
X40200Y65500
X40200Y16500
X40800Y66200
X40800Y17200
X41000Y90000
X41000Y49000
X41000Y45000
X41000Y41000
X41400Y70100
X41400Y21100
X42000Y49000
X42000Y45000
X43000Y49000
X43000Y45000
X44000Y49000
X44000Y45000
X45000Y90000
X45000Y49000
X45000Y45000
X45000Y41000
X45500Y73750
X45500Y24750
X46000Y70000
X46000Y49000
X46000Y45000
X46000Y21000
X46500Y73750
X46500Y67750
X46500Y24750
X46500Y18750
X47100Y70000
X47100Y21000
X48250Y73750
X48250Y24750
X48750Y90000
X48750Y41000
X49250Y89000
X49250Y73750
X49250Y40000
X49250Y24750
X49500Y75250
X49500Y26250
X50500Y75250
X50500Y26250
X51300Y73400
X51300Y24400
X52000Y72000
X52000Y71000
X52000Y23000
X52000Y22000
X52500Y82100
X52500Y33100
X53000Y72000
X53000Y71000
X53000Y23000
X53000Y22000
X54000Y90000
X54000Y71000
X54000Y41000
X54000Y22000
X54500Y59750
X54500Y10750
X56100Y74300
X56100Y25300
X57500Y69600
X57500Y64500
X57500Y20600
X57500Y15500
X58000Y90000
X58000Y41000
X59500Y67000
X59500Y18000
X59900Y69600
X59900Y20600
X60500Y67500
X60500Y18500
X61700Y74300
X61700Y25300
X62300Y68800
X62300Y19800
X63700Y75600
X63700Y69800
X63700Y26600
X63700Y20800
X64000Y64500
X64000Y15500
X64500Y69500
X64500Y20500
X64750Y70750
X64750Y21750
X67000Y49000
X67000Y45000
X68000Y49000
X68000Y45000
X69000Y49000
X69000Y45000
X70000Y49000
X70000Y45000
X71000Y49000
X71000Y45000
X72000Y49000
X72000Y45000
X73000Y49000
X73000Y45000
T2
X31750Y54000
X31750Y5000
X32500Y57750
X32500Y8750
X52500Y63000
X52500Y14000
X55300Y69600
X55300Y20600
X57750Y79500
X57750Y30500
T3
X55420Y14000
X56805Y11160
X58190Y14000
X59575Y11160
X60960Y14000
X62345Y11160
X63730Y14000
X65115Y11160
X66500Y14000
X18420Y14000
X19805Y11160
X21190Y14000
X22575Y11160
X23960Y14000
X25345Y11160
X26730Y14000
X28115Y11160
X29500Y14000
X18420Y63000
X19805Y60160
X21190Y63000
X22575Y60160
X23960Y63000
X25345Y60160
X26730Y63000
X28115Y60160
X29500Y63000
X55420Y63000
X56805Y60160
X58190Y63000
X59575Y60160
X60960Y63000
X62345Y60160
X63730Y63000
X65115Y60160
X66500Y63000
T4
X47250Y7000
X50750Y7000
X77000Y72750
X77000Y69250
X8000Y30750
X8000Y27250
X8000Y79750
X8000Y76250
X77000Y23750
X77000Y20250
X34250Y56000
X37750Y56000
X8000Y22250
X8000Y18750
X34250Y7000
X37750Y7000
X64250Y56000
X67750Y56000
X17250Y7000
X20750Y7000
X47250Y56000
X50750Y56000
X25750Y7000
X29250Y7000
X55750Y7000
X59250Y7000
X25750Y56000
X29250Y56000
X64250Y7000
X67750Y7000
X17250Y56000
X20750Y56000
X55750Y56000
X59250Y56000
X8000Y71250
X8000Y67750
T5
X48460Y61580
X73460Y61580
X48460Y12580
X73460Y12580
X11460Y12580
X36460Y12580
X11460Y61580
X36460Y61580
T6
X80000Y86000
X80000Y61000
X5000Y86000
X80000Y37000
X5000Y12000
X80000Y12000
X5000Y37000
X5000Y61000
T0
M30
