M48
; DRILL file {KiCad (5.1.5)-3} date 09.05.2020 11:27:19
; FORMAT={3:3/ absolute / metric / suppress leading zeros}
; #@! TF.CreationDate,2020-05-09T11:27:19+02:00
; #@! TF.GenerationSoftware,Kicad,Pcbnew,(5.1.5)-3
FMAT,2
METRIC,TZ
T1C0.300
T2C0.400
T3C1.000
T4C1.200
T5C3.200
T6C3.500
%
G90
G05
T1
X-73050Y48650
X-73000Y45000
X-72050Y48650
X-72000Y45000
X-71050Y48650
X-71000Y45000
X-70050Y48650
X-70000Y45000
X-69050Y48650
X-69000Y45000
X-68050Y48650
X-68000Y45000
X-67050Y48650
X-67000Y45000
X-65350Y65350
X-65350Y16350
X-64600Y66200
X-64600Y17200
X-64250Y70750
X-64250Y21750
X-63185Y66200
X-63185Y17200
X-61000Y66200
X-61000Y17200
X-60250Y70750
X-60250Y21750
X-59100Y66200
X-59100Y17200
X-56250Y70750
X-56250Y21750
X-55600Y73100
X-55600Y24100
X-54500Y69000
X-54500Y20000
X-54250Y59500
X-54250Y10500
X-54000Y68250
X-54000Y19250
X-53250Y66200
X-53250Y17200
X-52300Y70600
X-52300Y21600
X-51750Y63250
X-51750Y14250
X-51700Y60800
X-51700Y11800
X-50200Y70600
X-50200Y21600
X-48450Y67600
X-48450Y18600
X-47000Y68750
X-47000Y19750
X-46000Y45000
X-45600Y64800
X-45600Y61900
X-45600Y15800
X-45600Y12900
X-45500Y48550
X-45000Y45000
X-44800Y65500
X-44800Y16500
X-44700Y61900
X-44700Y12900
X-44500Y48550
X-44200Y66200
X-44200Y17200
X-44000Y90000
X-44000Y45000
X-44000Y41000
X-43600Y70100
X-43600Y21100
X-43500Y48550
X-43000Y45000
X-42500Y48550
X-42000Y45000
X-41500Y48550
X-41000Y45000
X-40500Y48550
X-40000Y90000
X-40000Y45000
X-40000Y41000
X-39500Y73750
X-39500Y48550
X-39500Y24750
X-39000Y70000
X-39000Y45000
X-39000Y21000
X-38500Y73750
X-38500Y67750
X-38500Y24750
X-38500Y18750
X-37900Y70000
X-37900Y21000
X-36750Y73750
X-36750Y24750
X-36250Y90000
X-36250Y41000
X-35800Y70500
X-35800Y69700
X-35800Y21500
X-35800Y20700
X-35750Y89000
X-35750Y73750
X-35750Y40000
X-35750Y24750
X-35500Y75250
X-35500Y26250
X-35250Y87500
X-35250Y38500
X-34500Y75250
X-34500Y26250
X-33500Y74250
X-33500Y25250
X-32750Y75750
X-32750Y26750
X-32500Y82100
X-32500Y33100
X-31021Y71951
X-31021Y22951
X-31000Y90000
X-31000Y61000
X-31000Y41000
X-31000Y12000
X-30750Y81000
X-30750Y32000
X-29500Y87500
X-29500Y38500
X-27500Y69600
X-27500Y64750
X-27500Y20600
X-27500Y15750
X-27000Y90000
X-27000Y41000
X-25500Y67000
X-25500Y18000
X-25100Y69600
X-25100Y20600
X-24500Y67500
X-24500Y18500
X-22754Y68254
X-22754Y19254
X-21750Y71000
X-21750Y22000
X-21300Y75600
X-21300Y26600
X-21000Y64500
X-21000Y15500
X-20500Y69500
X-20500Y20500
X-20250Y70750
X-20250Y21750
X-20000Y75500
X-20000Y26500
X-18200Y71500
X-18200Y70800
X-18200Y70100
X-18200Y22500
X-18200Y21800
X-18200Y21100
X-18050Y48650
X-18000Y45000
X-17050Y48650
X-17000Y45000
X-16050Y48650
X-16000Y45000
X-15050Y48650
X-15000Y45000
X-14050Y48650
X-14000Y45000
X-13050Y48650
X-13000Y45000
X-12050Y48650
X-12000Y45000
T2
X-33250Y70500
X-33250Y21500
X-32500Y63000
X-32500Y14000
X-32000Y76250
X-32000Y27250
X-29700Y69600
X-29700Y20600
T3
X-29580Y14000
X-28195Y11160
X-26810Y14000
X-25425Y11160
X-24040Y14000
X-22655Y11160
X-21270Y14000
X-19885Y11160
X-18500Y14000
X-66580Y14000
X-65195Y11160
X-63810Y14000
X-62425Y11160
X-61040Y14000
X-59655Y11160
X-58270Y14000
X-56885Y11160
X-55500Y14000
X-29580Y63000
X-28195Y60160
X-26810Y63000
X-25425Y60160
X-24040Y63000
X-22655Y60160
X-21270Y63000
X-19885Y60160
X-18500Y63000
X-66580Y63000
X-65195Y60160
X-63810Y63000
X-62425Y60160
X-61040Y63000
X-59655Y60160
X-58270Y63000
X-56885Y60160
X-55500Y63000
T4
X-12000Y71250
X-12000Y67750
X-37750Y57000
X-34250Y57000
X-37750Y8000
X-34250Y8000
X-20750Y57000
X-17250Y57000
X-67750Y57000
X-64250Y57000
X-67750Y8000
X-64250Y8000
X-73000Y71250
X-73000Y67750
X-73000Y79750
X-73000Y76250
X-12000Y22250
X-12000Y18750
X-50750Y8000
X-47250Y8000
X-59250Y57000
X-55750Y57000
X-29250Y8000
X-25750Y8000
X-50750Y57000
X-47250Y57000
X-20750Y8000
X-17250Y8000
X-29250Y57000
X-25750Y57000
X-73000Y22250
X-73000Y18750
X-59250Y8000
X-55750Y8000
X-73000Y30750
X-73000Y27250
T5
X-36540Y12580
X-11540Y12580
X-73540Y12580
X-48540Y12580
X-36540Y61580
X-11540Y61580
X-73540Y61580
X-48540Y61580
T6
X-4500Y61000
X-80500Y86000
X-80500Y61000
X-4500Y12000
X-4500Y86000
X-4500Y37000
X-80500Y12000
X-80500Y37000
T0
M30
