G04 #@! TF.GenerationSoftware,KiCad,Pcbnew,(5.1.5)-3*
G04 #@! TF.CreationDate,2020-04-27T20:32:12+02:00*
G04 #@! TF.ProjectId,ICHaus,49434861-7573-42e6-9b69-6361645f7063,rev?*
G04 #@! TF.SameCoordinates,Original*
G04 #@! TF.FileFunction,Profile,NP*
%FSLAX46Y46*%
G04 Gerber Fmt 4.6, Leading zero omitted, Abs format (unit mm)*
G04 Created by KiCad (PCBNEW (5.1.5)-3) date 2020-04-27 20:32:12*
%MOMM*%
%LPD*%
G04 APERTURE LIST*
%ADD10C,0.050000*%
G04 APERTURE END LIST*
D10*
X30000000Y-130000000D02*
X20000000Y-130000000D01*
X57500000Y-130000000D02*
X40000000Y-130000000D01*
X85000000Y-130000000D02*
X67500000Y-130000000D01*
X105000000Y-130000000D02*
X95000000Y-130000000D01*
X30000000Y-126000000D02*
X20000000Y-126000000D01*
X57500000Y-126000000D02*
X40000000Y-126000000D01*
X85000000Y-126000000D02*
X67500000Y-126000000D01*
X95000000Y-126000000D02*
X105000000Y-126000000D01*
X105000000Y-81000000D02*
X105000000Y-126000000D01*
X67500000Y-130000000D02*
G75*
G02X67500000Y-126000000I0J2000000D01*
G01*
X57500000Y-126000000D02*
G75*
G02X57500000Y-130000000I0J-2000000D01*
G01*
X95000000Y-130000000D02*
G75*
G02X95000000Y-126000000I0J2000000D01*
G01*
X85000000Y-126000000D02*
G75*
G02X85000000Y-130000000I0J-2000000D01*
G01*
X30000000Y-126000000D02*
G75*
G02X30000000Y-130000000I0J-2000000D01*
G01*
X40000000Y-130000000D02*
G75*
G02X40000000Y-126000000I0J2000000D01*
G01*
X20000000Y-126000000D02*
X20000000Y-81000000D01*
X20000000Y-81000000D02*
X105000000Y-81000000D01*
X105000000Y-175000000D02*
X20000000Y-175000000D01*
X105000000Y-130000000D02*
X105000000Y-175000000D01*
X20000000Y-175000000D02*
X20000000Y-130000000D01*
M02*
