G04 #@! TF.GenerationSoftware,KiCad,Pcbnew,(5.1.5)-3*
G04 #@! TF.CreationDate,2020-04-24T21:16:10+02:00*
G04 #@! TF.ProjectId,ICHaus,49434861-7573-42e6-9b69-6361645f7063,rev?*
G04 #@! TF.SameCoordinates,PX1312d00PYa6e49c0*
G04 #@! TF.FileFunction,Legend,Bot*
G04 #@! TF.FilePolarity,Positive*
%FSLAX46Y46*%
G04 Gerber Fmt 4.6, Leading zero omitted, Abs format (unit mm)*
G04 Created by KiCad (PCBNEW (5.1.5)-3) date 2020-04-24 21:16:10*
%MOMM*%
%LPD*%
G04 APERTURE LIST*
%ADD10C,0.120000*%
%ADD11C,0.150000*%
G04 APERTURE END LIST*
D10*
X23750000Y67800000D02*
G75*
G03X24450000Y67100000I700000J0D01*
G01*
X25050000Y67100000D02*
G75*
G03X25750000Y67800000I0J700000D01*
G01*
X25750000Y69200000D02*
G75*
G03X25050000Y69900000I-700000J0D01*
G01*
X24450000Y69900000D02*
G75*
G03X23750000Y69200000I0J-700000D01*
G01*
X25050000Y69900000D02*
X24450000Y69900000D01*
X25750000Y67800000D02*
X25750000Y69200000D01*
X24450000Y67100000D02*
X25050000Y67100000D01*
X23750000Y69200000D02*
X23750000Y67800000D01*
X19750000Y69300000D02*
X19750000Y67900000D01*
X20450000Y67200000D02*
X21050000Y67200000D01*
X21750000Y67900000D02*
X21750000Y69300000D01*
X21050000Y70000000D02*
X20450000Y70000000D01*
X20450000Y70000000D02*
G75*
G03X19750000Y69300000I0J-700000D01*
G01*
X21750000Y69300000D02*
G75*
G03X21050000Y70000000I-700000J0D01*
G01*
X21050000Y67200000D02*
G75*
G03X21750000Y67900000I0J700000D01*
G01*
X19750000Y67900000D02*
G75*
G03X20450000Y67200000I700000J0D01*
G01*
X27750000Y69300000D02*
X27750000Y67900000D01*
X28450000Y67200000D02*
X29050000Y67200000D01*
X29750000Y67900000D02*
X29750000Y69300000D01*
X29050000Y70000000D02*
X28450000Y70000000D01*
X28450000Y70000000D02*
G75*
G03X27750000Y69300000I0J-700000D01*
G01*
X29750000Y69300000D02*
G75*
G03X29050000Y70000000I-700000J0D01*
G01*
X29050000Y67200000D02*
G75*
G03X29750000Y67900000I0J700000D01*
G01*
X27750000Y67900000D02*
G75*
G03X28450000Y67200000I700000J0D01*
G01*
X19750000Y18900000D02*
G75*
G03X20450000Y18200000I700000J0D01*
G01*
X21050000Y18200000D02*
G75*
G03X21750000Y18900000I0J700000D01*
G01*
X21750000Y20300000D02*
G75*
G03X21050000Y21000000I-700000J0D01*
G01*
X20450000Y21000000D02*
G75*
G03X19750000Y20300000I0J-700000D01*
G01*
X21050000Y21000000D02*
X20450000Y21000000D01*
X21750000Y18900000D02*
X21750000Y20300000D01*
X20450000Y18200000D02*
X21050000Y18200000D01*
X19750000Y20300000D02*
X19750000Y18900000D01*
X23750000Y20200000D02*
X23750000Y18800000D01*
X24450000Y18100000D02*
X25050000Y18100000D01*
X25750000Y18800000D02*
X25750000Y20200000D01*
X25050000Y20900000D02*
X24450000Y20900000D01*
X24450000Y20900000D02*
G75*
G03X23750000Y20200000I0J-700000D01*
G01*
X25750000Y20200000D02*
G75*
G03X25050000Y20900000I-700000J0D01*
G01*
X25050000Y18100000D02*
G75*
G03X25750000Y18800000I0J700000D01*
G01*
X23750000Y18800000D02*
G75*
G03X24450000Y18100000I700000J0D01*
G01*
X27750000Y18900000D02*
G75*
G03X28450000Y18200000I700000J0D01*
G01*
X29050000Y18200000D02*
G75*
G03X29750000Y18900000I0J700000D01*
G01*
X29750000Y20300000D02*
G75*
G03X29050000Y21000000I-700000J0D01*
G01*
X28450000Y21000000D02*
G75*
G03X27750000Y20300000I0J-700000D01*
G01*
X29050000Y21000000D02*
X28450000Y21000000D01*
X29750000Y18900000D02*
X29750000Y20300000D01*
X28450000Y18200000D02*
X29050000Y18200000D01*
X27750000Y20300000D02*
X27750000Y18900000D01*
D11*
X22402380Y69333334D02*
X23116666Y69333334D01*
X23259523Y69380953D01*
X23354761Y69476191D01*
X23402380Y69619048D01*
X23402380Y69714286D01*
X23402380Y68857143D02*
X22402380Y68857143D01*
X22402380Y68476191D01*
X22450000Y68380953D01*
X22497619Y68333334D01*
X22592857Y68285715D01*
X22735714Y68285715D01*
X22830952Y68333334D01*
X22878571Y68380953D01*
X22926190Y68476191D01*
X22926190Y68857143D01*
X22497619Y67904762D02*
X22450000Y67857143D01*
X22402380Y67761905D01*
X22402380Y67523810D01*
X22450000Y67428572D01*
X22497619Y67380953D01*
X22592857Y67333334D01*
X22688095Y67333334D01*
X22830952Y67380953D01*
X23402380Y67952381D01*
X23402380Y67333334D01*
X18402380Y69433334D02*
X19116666Y69433334D01*
X19259523Y69480953D01*
X19354761Y69576191D01*
X19402380Y69719048D01*
X19402380Y69814286D01*
X19402380Y68957143D02*
X18402380Y68957143D01*
X18402380Y68576191D01*
X18450000Y68480953D01*
X18497619Y68433334D01*
X18592857Y68385715D01*
X18735714Y68385715D01*
X18830952Y68433334D01*
X18878571Y68480953D01*
X18926190Y68576191D01*
X18926190Y68957143D01*
X19402380Y67433334D02*
X19402380Y68004762D01*
X19402380Y67719048D02*
X18402380Y67719048D01*
X18545238Y67814286D01*
X18640476Y67909524D01*
X18688095Y68004762D01*
X26402380Y69433334D02*
X27116666Y69433334D01*
X27259523Y69480953D01*
X27354761Y69576191D01*
X27402380Y69719048D01*
X27402380Y69814286D01*
X27402380Y68957143D02*
X26402380Y68957143D01*
X26402380Y68576191D01*
X26450000Y68480953D01*
X26497619Y68433334D01*
X26592857Y68385715D01*
X26735714Y68385715D01*
X26830952Y68433334D01*
X26878571Y68480953D01*
X26926190Y68576191D01*
X26926190Y68957143D01*
X26402380Y68052381D02*
X26402380Y67433334D01*
X26783333Y67766667D01*
X26783333Y67623810D01*
X26830952Y67528572D01*
X26878571Y67480953D01*
X26973809Y67433334D01*
X27211904Y67433334D01*
X27307142Y67480953D01*
X27354761Y67528572D01*
X27402380Y67623810D01*
X27402380Y67909524D01*
X27354761Y68004762D01*
X27307142Y68052381D01*
X18402380Y20433334D02*
X19116666Y20433334D01*
X19259523Y20480953D01*
X19354761Y20576191D01*
X19402380Y20719048D01*
X19402380Y20814286D01*
X19402380Y19957143D02*
X18402380Y19957143D01*
X18402380Y19576191D01*
X18450000Y19480953D01*
X18497619Y19433334D01*
X18592857Y19385715D01*
X18735714Y19385715D01*
X18830952Y19433334D01*
X18878571Y19480953D01*
X18926190Y19576191D01*
X18926190Y19957143D01*
X19402380Y18433334D02*
X19402380Y19004762D01*
X19402380Y18719048D02*
X18402380Y18719048D01*
X18545238Y18814286D01*
X18640476Y18909524D01*
X18688095Y19004762D01*
X22402380Y20333334D02*
X23116666Y20333334D01*
X23259523Y20380953D01*
X23354761Y20476191D01*
X23402380Y20619048D01*
X23402380Y20714286D01*
X23402380Y19857143D02*
X22402380Y19857143D01*
X22402380Y19476191D01*
X22450000Y19380953D01*
X22497619Y19333334D01*
X22592857Y19285715D01*
X22735714Y19285715D01*
X22830952Y19333334D01*
X22878571Y19380953D01*
X22926190Y19476191D01*
X22926190Y19857143D01*
X22497619Y18904762D02*
X22450000Y18857143D01*
X22402380Y18761905D01*
X22402380Y18523810D01*
X22450000Y18428572D01*
X22497619Y18380953D01*
X22592857Y18333334D01*
X22688095Y18333334D01*
X22830952Y18380953D01*
X23402380Y18952381D01*
X23402380Y18333334D01*
X26402380Y20433334D02*
X27116666Y20433334D01*
X27259523Y20480953D01*
X27354761Y20576191D01*
X27402380Y20719048D01*
X27402380Y20814286D01*
X27402380Y19957143D02*
X26402380Y19957143D01*
X26402380Y19576191D01*
X26450000Y19480953D01*
X26497619Y19433334D01*
X26592857Y19385715D01*
X26735714Y19385715D01*
X26830952Y19433334D01*
X26878571Y19480953D01*
X26926190Y19576191D01*
X26926190Y19957143D01*
X26402380Y19052381D02*
X26402380Y18433334D01*
X26783333Y18766667D01*
X26783333Y18623810D01*
X26830952Y18528572D01*
X26878571Y18480953D01*
X26973809Y18433334D01*
X27211904Y18433334D01*
X27307142Y18480953D01*
X27354761Y18528572D01*
X27402380Y18623810D01*
X27402380Y18909524D01*
X27354761Y19004762D01*
X27307142Y19052381D01*
M02*
