G04 #@! TF.GenerationSoftware,KiCad,Pcbnew,(5.1.5)-3*
G04 #@! TF.CreationDate,2020-04-24T21:16:10+02:00*
G04 #@! TF.ProjectId,ICHaus,49434861-7573-42e6-9b69-6361645f7063,rev?*
G04 #@! TF.SameCoordinates,PX1312d00PYa6e49c0*
G04 #@! TF.FileFunction,Profile,NP*
%FSLAX46Y46*%
G04 Gerber Fmt 4.6, Leading zero omitted, Abs format (unit mm)*
G04 Created by KiCad (PCBNEW (5.1.5)-3) date 2020-04-24 21:16:10*
%MOMM*%
%LPD*%
G04 APERTURE LIST*
%ADD10C,0.050000*%
G04 APERTURE END LIST*
D10*
X10000000Y45000000D02*
X0Y45000000D01*
X37500000Y45000000D02*
X20000000Y45000000D01*
X65000000Y45000000D02*
X47500000Y45000000D01*
X85000000Y45000000D02*
X75000000Y45000000D01*
X10000000Y49000000D02*
X0Y49000000D01*
X37500000Y49000000D02*
X20000000Y49000000D01*
X65000000Y49000000D02*
X47500000Y49000000D01*
X75000000Y49000000D02*
X85000000Y49000000D01*
X85000000Y94000000D02*
X85000000Y49000000D01*
X47500000Y45000000D02*
G75*
G02X47500000Y49000000I0J2000000D01*
G01*
X37500000Y49000000D02*
G75*
G02X37500000Y45000000I0J-2000000D01*
G01*
X75000000Y45000000D02*
G75*
G02X75000000Y49000000I0J2000000D01*
G01*
X65000000Y49000000D02*
G75*
G02X65000000Y45000000I0J-2000000D01*
G01*
X10000000Y49000000D02*
G75*
G02X10000000Y45000000I0J-2000000D01*
G01*
X20000000Y45000000D02*
G75*
G02X20000000Y49000000I0J2000000D01*
G01*
X0Y49000000D02*
X0Y94000000D01*
X0Y94000000D02*
X85000000Y94000000D01*
X85000000Y0D02*
X0Y0D01*
X85000000Y45000000D02*
X85000000Y0D01*
X0Y0D02*
X0Y45000000D01*
M02*
