G04 #@! TF.GenerationSoftware,KiCad,Pcbnew,(5.1.5)-3*
G04 #@! TF.CreationDate,2020-05-13T10:59:29+02:00*
G04 #@! TF.ProjectId,ICHaus,49434861-7573-42e6-9b69-6361645f7063,rev?*
G04 #@! TF.SameCoordinates,PX6422c40PYa6e49c0*
G04 #@! TF.FileFunction,Soldermask,Bot*
G04 #@! TF.FilePolarity,Negative*
%FSLAX46Y46*%
G04 Gerber Fmt 4.6, Leading zero omitted, Abs format (unit mm)*
G04 Created by KiCad (PCBNEW (5.1.5)-3) date 2020-05-13 10:59:29*
%MOMM*%
%LPD*%
G04 APERTURE LIST*
%ADD10C,0.100000*%
G04 APERTURE END LIST*
D10*
G36*
X-19140001Y3800263D02*
G01*
X-19130392Y3797348D01*
X-19121528Y3792610D01*
X-19113763Y3786237D01*
X-19103552Y3773794D01*
X-19096622Y3763425D01*
X-19079295Y3746098D01*
X-19058920Y3732485D01*
X-19036280Y3723109D01*
X-19012247Y3718329D01*
X-18987743Y3718330D01*
X-18963710Y3723112D01*
X-18941071Y3732490D01*
X-18920698Y3746105D01*
X-18903371Y3763432D01*
X-18896442Y3773802D01*
X-18886237Y3786237D01*
X-18878472Y3792610D01*
X-18869608Y3797348D01*
X-18859999Y3800263D01*
X-18843860Y3801852D01*
X-18356139Y3801852D01*
X-18337801Y3800046D01*
X-18325550Y3799444D01*
X-18307131Y3799444D01*
X-18284851Y3797250D01*
X-18200767Y3780524D01*
X-18179340Y3774024D01*
X-18100142Y3741220D01*
X-18094697Y3738309D01*
X-18094691Y3738307D01*
X-18085831Y3733571D01*
X-18085827Y3733568D01*
X-18080386Y3730660D01*
X-18009101Y3683029D01*
X-17991796Y3668828D01*
X-17931172Y3608204D01*
X-17916971Y3590899D01*
X-17869340Y3519614D01*
X-17866432Y3514173D01*
X-17866429Y3514169D01*
X-17861693Y3505309D01*
X-17861691Y3505303D01*
X-17858780Y3499858D01*
X-17825976Y3420660D01*
X-17819476Y3399233D01*
X-17802750Y3315149D01*
X-17800556Y3292869D01*
X-17800556Y3274450D01*
X-17799954Y3262199D01*
X-17798148Y3243861D01*
X-17798148Y2756138D01*
X-17799954Y2737801D01*
X-17800556Y2725550D01*
X-17800556Y2707131D01*
X-17802750Y2684851D01*
X-17819476Y2600767D01*
X-17825976Y2579340D01*
X-17858780Y2500142D01*
X-17861691Y2494697D01*
X-17861693Y2494691D01*
X-17866429Y2485831D01*
X-17866432Y2485827D01*
X-17869340Y2480386D01*
X-17916971Y2409101D01*
X-17931172Y2391796D01*
X-17991796Y2331172D01*
X-18009101Y2316971D01*
X-18080386Y2269340D01*
X-18085827Y2266432D01*
X-18085831Y2266429D01*
X-18094691Y2261693D01*
X-18094697Y2261691D01*
X-18100142Y2258780D01*
X-18179340Y2225976D01*
X-18200767Y2219476D01*
X-18284851Y2202750D01*
X-18307131Y2200556D01*
X-18325550Y2200556D01*
X-18337801Y2199954D01*
X-18356138Y2198148D01*
X-18843860Y2198148D01*
X-18859999Y2199737D01*
X-18869608Y2202652D01*
X-18878472Y2207390D01*
X-18886237Y2213763D01*
X-18896448Y2226206D01*
X-18903378Y2236575D01*
X-18920705Y2253902D01*
X-18941080Y2267515D01*
X-18963720Y2276891D01*
X-18987753Y2281671D01*
X-19012257Y2281670D01*
X-19036290Y2276888D01*
X-19058929Y2267510D01*
X-19079302Y2253895D01*
X-19096629Y2236568D01*
X-19103558Y2226198D01*
X-19113763Y2213763D01*
X-19121528Y2207390D01*
X-19130392Y2202652D01*
X-19140001Y2199737D01*
X-19156140Y2198148D01*
X-19643862Y2198148D01*
X-19662199Y2199954D01*
X-19674450Y2200556D01*
X-19692869Y2200556D01*
X-19715149Y2202750D01*
X-19799233Y2219476D01*
X-19820660Y2225976D01*
X-19899858Y2258780D01*
X-19905303Y2261691D01*
X-19905309Y2261693D01*
X-19914169Y2266429D01*
X-19914173Y2266432D01*
X-19919614Y2269340D01*
X-19990899Y2316971D01*
X-20008204Y2331172D01*
X-20068828Y2391796D01*
X-20083029Y2409101D01*
X-20130660Y2480386D01*
X-20133568Y2485827D01*
X-20133571Y2485831D01*
X-20138307Y2494691D01*
X-20138309Y2494697D01*
X-20141220Y2500142D01*
X-20174024Y2579340D01*
X-20180524Y2600767D01*
X-20197250Y2684851D01*
X-20199444Y2707131D01*
X-20199444Y2725550D01*
X-20200046Y2737801D01*
X-20201852Y2756138D01*
X-20201852Y3243861D01*
X-20200046Y3262199D01*
X-20199444Y3274450D01*
X-20199444Y3292869D01*
X-20197250Y3315149D01*
X-20180524Y3399233D01*
X-20174024Y3420660D01*
X-20141220Y3499858D01*
X-20138309Y3505303D01*
X-20138307Y3505309D01*
X-20133571Y3514169D01*
X-20133568Y3514173D01*
X-20130660Y3519614D01*
X-20083029Y3590899D01*
X-20068828Y3608204D01*
X-20008204Y3668828D01*
X-19990899Y3683029D01*
X-19919614Y3730660D01*
X-19914173Y3733568D01*
X-19914169Y3733571D01*
X-19905309Y3738307D01*
X-19905303Y3738309D01*
X-19899858Y3741220D01*
X-19820660Y3774024D01*
X-19799233Y3780524D01*
X-19715149Y3797250D01*
X-19692869Y3799444D01*
X-19674450Y3799444D01*
X-19662199Y3800046D01*
X-19643861Y3801852D01*
X-19156140Y3801852D01*
X-19140001Y3800263D01*
G37*
G36*
X-36140001Y3800263D02*
G01*
X-36130392Y3797348D01*
X-36121528Y3792610D01*
X-36113763Y3786237D01*
X-36103552Y3773794D01*
X-36096622Y3763425D01*
X-36079295Y3746098D01*
X-36058920Y3732485D01*
X-36036280Y3723109D01*
X-36012247Y3718329D01*
X-35987743Y3718330D01*
X-35963710Y3723112D01*
X-35941071Y3732490D01*
X-35920698Y3746105D01*
X-35903371Y3763432D01*
X-35896442Y3773802D01*
X-35886237Y3786237D01*
X-35878472Y3792610D01*
X-35869608Y3797348D01*
X-35859999Y3800263D01*
X-35843860Y3801852D01*
X-35356139Y3801852D01*
X-35337801Y3800046D01*
X-35325550Y3799444D01*
X-35307131Y3799444D01*
X-35284851Y3797250D01*
X-35200767Y3780524D01*
X-35179340Y3774024D01*
X-35100142Y3741220D01*
X-35094697Y3738309D01*
X-35094691Y3738307D01*
X-35085831Y3733571D01*
X-35085827Y3733568D01*
X-35080386Y3730660D01*
X-35009101Y3683029D01*
X-34991796Y3668828D01*
X-34931172Y3608204D01*
X-34916971Y3590899D01*
X-34869340Y3519614D01*
X-34866432Y3514173D01*
X-34866429Y3514169D01*
X-34861693Y3505309D01*
X-34861691Y3505303D01*
X-34858780Y3499858D01*
X-34825976Y3420660D01*
X-34819476Y3399233D01*
X-34802750Y3315149D01*
X-34800556Y3292869D01*
X-34800556Y3274450D01*
X-34799954Y3262199D01*
X-34798148Y3243861D01*
X-34798148Y2756138D01*
X-34799954Y2737801D01*
X-34800556Y2725550D01*
X-34800556Y2707131D01*
X-34802750Y2684851D01*
X-34819476Y2600767D01*
X-34825976Y2579340D01*
X-34858780Y2500142D01*
X-34861691Y2494697D01*
X-34861693Y2494691D01*
X-34866429Y2485831D01*
X-34866432Y2485827D01*
X-34869340Y2480386D01*
X-34916971Y2409101D01*
X-34931172Y2391796D01*
X-34991796Y2331172D01*
X-35009101Y2316971D01*
X-35080386Y2269340D01*
X-35085827Y2266432D01*
X-35085831Y2266429D01*
X-35094691Y2261693D01*
X-35094697Y2261691D01*
X-35100142Y2258780D01*
X-35179340Y2225976D01*
X-35200767Y2219476D01*
X-35284851Y2202750D01*
X-35307131Y2200556D01*
X-35325550Y2200556D01*
X-35337801Y2199954D01*
X-35356138Y2198148D01*
X-35843860Y2198148D01*
X-35859999Y2199737D01*
X-35869608Y2202652D01*
X-35878472Y2207390D01*
X-35886237Y2213763D01*
X-35896448Y2226206D01*
X-35903378Y2236575D01*
X-35920705Y2253902D01*
X-35941080Y2267515D01*
X-35963720Y2276891D01*
X-35987753Y2281671D01*
X-36012257Y2281670D01*
X-36036290Y2276888D01*
X-36058929Y2267510D01*
X-36079302Y2253895D01*
X-36096629Y2236568D01*
X-36103558Y2226198D01*
X-36113763Y2213763D01*
X-36121528Y2207390D01*
X-36130392Y2202652D01*
X-36140001Y2199737D01*
X-36156140Y2198148D01*
X-36643862Y2198148D01*
X-36662199Y2199954D01*
X-36674450Y2200556D01*
X-36692869Y2200556D01*
X-36715149Y2202750D01*
X-36799233Y2219476D01*
X-36820660Y2225976D01*
X-36899858Y2258780D01*
X-36905303Y2261691D01*
X-36905309Y2261693D01*
X-36914169Y2266429D01*
X-36914173Y2266432D01*
X-36919614Y2269340D01*
X-36990899Y2316971D01*
X-37008204Y2331172D01*
X-37068828Y2391796D01*
X-37083029Y2409101D01*
X-37130660Y2480386D01*
X-37133568Y2485827D01*
X-37133571Y2485831D01*
X-37138307Y2494691D01*
X-37138309Y2494697D01*
X-37141220Y2500142D01*
X-37174024Y2579340D01*
X-37180524Y2600767D01*
X-37197250Y2684851D01*
X-37199444Y2707131D01*
X-37199444Y2725550D01*
X-37200046Y2737801D01*
X-37201852Y2756138D01*
X-37201852Y3243861D01*
X-37200046Y3262199D01*
X-37199444Y3274450D01*
X-37199444Y3292869D01*
X-37197250Y3315149D01*
X-37180524Y3399233D01*
X-37174024Y3420660D01*
X-37141220Y3499858D01*
X-37138309Y3505303D01*
X-37138307Y3505309D01*
X-37133571Y3514169D01*
X-37133568Y3514173D01*
X-37130660Y3519614D01*
X-37083029Y3590899D01*
X-37068828Y3608204D01*
X-37008204Y3668828D01*
X-36990899Y3683029D01*
X-36919614Y3730660D01*
X-36914173Y3733568D01*
X-36914169Y3733571D01*
X-36905309Y3738307D01*
X-36905303Y3738309D01*
X-36899858Y3741220D01*
X-36820660Y3774024D01*
X-36799233Y3780524D01*
X-36715149Y3797250D01*
X-36692869Y3799444D01*
X-36674450Y3799444D01*
X-36662199Y3800046D01*
X-36643861Y3801852D01*
X-36156140Y3801852D01*
X-36140001Y3800263D01*
G37*
G36*
X-27790001Y3800263D02*
G01*
X-27780392Y3797348D01*
X-27771528Y3792610D01*
X-27763763Y3786237D01*
X-27753552Y3773794D01*
X-27746622Y3763425D01*
X-27729295Y3746098D01*
X-27708920Y3732485D01*
X-27686280Y3723109D01*
X-27662247Y3718329D01*
X-27637743Y3718330D01*
X-27613710Y3723112D01*
X-27591071Y3732490D01*
X-27570698Y3746105D01*
X-27553371Y3763432D01*
X-27546442Y3773802D01*
X-27536237Y3786237D01*
X-27528472Y3792610D01*
X-27519608Y3797348D01*
X-27509999Y3800263D01*
X-27493860Y3801852D01*
X-27006139Y3801852D01*
X-26987801Y3800046D01*
X-26975550Y3799444D01*
X-26957131Y3799444D01*
X-26934851Y3797250D01*
X-26850767Y3780524D01*
X-26829340Y3774024D01*
X-26750142Y3741220D01*
X-26744697Y3738309D01*
X-26744691Y3738307D01*
X-26735831Y3733571D01*
X-26735827Y3733568D01*
X-26730386Y3730660D01*
X-26659101Y3683029D01*
X-26641796Y3668828D01*
X-26581172Y3608204D01*
X-26566971Y3590899D01*
X-26519340Y3519614D01*
X-26516432Y3514173D01*
X-26516429Y3514169D01*
X-26511693Y3505309D01*
X-26511691Y3505303D01*
X-26508780Y3499858D01*
X-26475976Y3420660D01*
X-26469476Y3399233D01*
X-26452750Y3315149D01*
X-26450556Y3292869D01*
X-26450556Y3274450D01*
X-26449954Y3262199D01*
X-26448148Y3243861D01*
X-26448148Y2756138D01*
X-26449954Y2737801D01*
X-26450556Y2725550D01*
X-26450556Y2707131D01*
X-26452750Y2684851D01*
X-26469476Y2600767D01*
X-26475976Y2579340D01*
X-26508780Y2500142D01*
X-26511691Y2494697D01*
X-26511693Y2494691D01*
X-26516429Y2485831D01*
X-26516432Y2485827D01*
X-26519340Y2480386D01*
X-26566971Y2409101D01*
X-26581172Y2391796D01*
X-26641796Y2331172D01*
X-26659101Y2316971D01*
X-26730386Y2269340D01*
X-26735827Y2266432D01*
X-26735831Y2266429D01*
X-26744691Y2261693D01*
X-26744697Y2261691D01*
X-26750142Y2258780D01*
X-26829340Y2225976D01*
X-26850767Y2219476D01*
X-26934851Y2202750D01*
X-26957131Y2200556D01*
X-26975550Y2200556D01*
X-26987801Y2199954D01*
X-27006138Y2198148D01*
X-27493860Y2198148D01*
X-27509999Y2199737D01*
X-27519608Y2202652D01*
X-27528472Y2207390D01*
X-27536237Y2213763D01*
X-27546448Y2226206D01*
X-27553378Y2236575D01*
X-27570705Y2253902D01*
X-27591080Y2267515D01*
X-27613720Y2276891D01*
X-27637753Y2281671D01*
X-27662257Y2281670D01*
X-27686290Y2276888D01*
X-27708929Y2267510D01*
X-27729302Y2253895D01*
X-27746629Y2236568D01*
X-27753558Y2226198D01*
X-27763763Y2213763D01*
X-27771528Y2207390D01*
X-27780392Y2202652D01*
X-27790001Y2199737D01*
X-27806140Y2198148D01*
X-28293862Y2198148D01*
X-28312199Y2199954D01*
X-28324450Y2200556D01*
X-28342869Y2200556D01*
X-28365149Y2202750D01*
X-28449233Y2219476D01*
X-28470660Y2225976D01*
X-28549858Y2258780D01*
X-28555303Y2261691D01*
X-28555309Y2261693D01*
X-28564169Y2266429D01*
X-28564173Y2266432D01*
X-28569614Y2269340D01*
X-28640899Y2316971D01*
X-28658204Y2331172D01*
X-28718828Y2391796D01*
X-28733029Y2409101D01*
X-28780660Y2480386D01*
X-28783568Y2485827D01*
X-28783571Y2485831D01*
X-28788307Y2494691D01*
X-28788309Y2494697D01*
X-28791220Y2500142D01*
X-28824024Y2579340D01*
X-28830524Y2600767D01*
X-28847250Y2684851D01*
X-28849444Y2707131D01*
X-28849444Y2725550D01*
X-28850046Y2737801D01*
X-28851852Y2756138D01*
X-28851852Y3243861D01*
X-28850046Y3262199D01*
X-28849444Y3274450D01*
X-28849444Y3292869D01*
X-28847250Y3315149D01*
X-28830524Y3399233D01*
X-28824024Y3420660D01*
X-28791220Y3499858D01*
X-28788309Y3505303D01*
X-28788307Y3505309D01*
X-28783571Y3514169D01*
X-28783568Y3514173D01*
X-28780660Y3519614D01*
X-28733029Y3590899D01*
X-28718828Y3608204D01*
X-28658204Y3668828D01*
X-28640899Y3683029D01*
X-28569614Y3730660D01*
X-28564173Y3733568D01*
X-28564169Y3733571D01*
X-28555309Y3738307D01*
X-28555303Y3738309D01*
X-28549858Y3741220D01*
X-28470660Y3774024D01*
X-28449233Y3780524D01*
X-28365149Y3797250D01*
X-28342869Y3799444D01*
X-28324450Y3799444D01*
X-28312199Y3800046D01*
X-28293861Y3801852D01*
X-27806140Y3801852D01*
X-27790001Y3800263D01*
G37*
G36*
X-75422407Y9289109D02*
G01*
X-75312211Y9255681D01*
X-75210662Y9201402D01*
X-75121649Y9128351D01*
X-75048598Y9039338D01*
X-74994319Y8937789D01*
X-74960891Y8827593D01*
X-74949000Y8706860D01*
X-74949000Y7293140D01*
X-74960891Y7172407D01*
X-74994319Y7062211D01*
X-75048598Y6960662D01*
X-75121649Y6871649D01*
X-75210662Y6798598D01*
X-75312211Y6744319D01*
X-75422407Y6710891D01*
X-75543140Y6699000D01*
X-76956860Y6699000D01*
X-77077593Y6710891D01*
X-77187789Y6744319D01*
X-77289338Y6798598D01*
X-77378351Y6871649D01*
X-77451402Y6960662D01*
X-77505681Y7062211D01*
X-77539109Y7172407D01*
X-77551000Y7293140D01*
X-77551000Y8706860D01*
X-77539109Y8827593D01*
X-77505681Y8937789D01*
X-77451402Y9039338D01*
X-77378351Y9128351D01*
X-77289338Y9201402D01*
X-77187789Y9255681D01*
X-77077593Y9289109D01*
X-76956860Y9301000D01*
X-75543140Y9301000D01*
X-75422407Y9289109D01*
G37*
G36*
X-49922407Y9289109D02*
G01*
X-49812211Y9255681D01*
X-49710662Y9201402D01*
X-49621649Y9128351D01*
X-49548598Y9039338D01*
X-49494319Y8937789D01*
X-49460891Y8827593D01*
X-49449000Y8706860D01*
X-49449000Y7293140D01*
X-49460891Y7172407D01*
X-49494319Y7062211D01*
X-49548598Y6960662D01*
X-49621649Y6871649D01*
X-49710662Y6798598D01*
X-49812211Y6744319D01*
X-49922407Y6710891D01*
X-50043140Y6699000D01*
X-51456860Y6699000D01*
X-51577593Y6710891D01*
X-51687789Y6744319D01*
X-51789338Y6798598D01*
X-51878351Y6871649D01*
X-51951402Y6960662D01*
X-52005681Y7062211D01*
X-52039109Y7172407D01*
X-52051000Y7293140D01*
X-52051000Y8706860D01*
X-52039109Y8827593D01*
X-52005681Y8937789D01*
X-51951402Y9039338D01*
X-51878351Y9128351D01*
X-51789338Y9201402D01*
X-51687789Y9255681D01*
X-51577593Y9289109D01*
X-51456860Y9301000D01*
X-50043140Y9301000D01*
X-49922407Y9289109D01*
G37*
G36*
X-46422407Y9289109D02*
G01*
X-46312211Y9255681D01*
X-46210662Y9201402D01*
X-46121649Y9128351D01*
X-46048598Y9039338D01*
X-45994319Y8937789D01*
X-45960891Y8827593D01*
X-45949000Y8706860D01*
X-45949000Y7293140D01*
X-45960891Y7172407D01*
X-45994319Y7062211D01*
X-46048598Y6960662D01*
X-46121649Y6871649D01*
X-46210662Y6798598D01*
X-46312211Y6744319D01*
X-46422407Y6710891D01*
X-46543140Y6699000D01*
X-47956860Y6699000D01*
X-48077593Y6710891D01*
X-48187789Y6744319D01*
X-48289338Y6798598D01*
X-48378351Y6871649D01*
X-48451402Y6960662D01*
X-48505681Y7062211D01*
X-48539109Y7172407D01*
X-48551000Y7293140D01*
X-48551000Y8706860D01*
X-48539109Y8827593D01*
X-48505681Y8937789D01*
X-48451402Y9039338D01*
X-48378351Y9128351D01*
X-48289338Y9201402D01*
X-48187789Y9255681D01*
X-48077593Y9289109D01*
X-47956860Y9301000D01*
X-46543140Y9301000D01*
X-46422407Y9289109D01*
G37*
G36*
X-36922407Y9289109D02*
G01*
X-36812211Y9255681D01*
X-36710662Y9201402D01*
X-36621649Y9128351D01*
X-36548598Y9039338D01*
X-36494319Y8937789D01*
X-36460891Y8827593D01*
X-36449000Y8706860D01*
X-36449000Y7293140D01*
X-36460891Y7172407D01*
X-36494319Y7062211D01*
X-36548598Y6960662D01*
X-36621649Y6871649D01*
X-36710662Y6798598D01*
X-36812211Y6744319D01*
X-36922407Y6710891D01*
X-37043140Y6699000D01*
X-38456860Y6699000D01*
X-38577593Y6710891D01*
X-38687789Y6744319D01*
X-38789338Y6798598D01*
X-38878351Y6871649D01*
X-38951402Y6960662D01*
X-39005681Y7062211D01*
X-39039109Y7172407D01*
X-39051000Y7293140D01*
X-39051000Y8706860D01*
X-39039109Y8827593D01*
X-39005681Y8937789D01*
X-38951402Y9039338D01*
X-38878351Y9128351D01*
X-38789338Y9201402D01*
X-38687789Y9255681D01*
X-38577593Y9289109D01*
X-38456860Y9301000D01*
X-37043140Y9301000D01*
X-36922407Y9289109D01*
G37*
G36*
X-33422407Y9289109D02*
G01*
X-33312211Y9255681D01*
X-33210662Y9201402D01*
X-33121649Y9128351D01*
X-33048598Y9039338D01*
X-32994319Y8937789D01*
X-32960891Y8827593D01*
X-32949000Y8706860D01*
X-32949000Y7293140D01*
X-32960891Y7172407D01*
X-32994319Y7062211D01*
X-33048598Y6960662D01*
X-33121649Y6871649D01*
X-33210662Y6798598D01*
X-33312211Y6744319D01*
X-33422407Y6710891D01*
X-33543140Y6699000D01*
X-34956860Y6699000D01*
X-35077593Y6710891D01*
X-35187789Y6744319D01*
X-35289338Y6798598D01*
X-35378351Y6871649D01*
X-35451402Y6960662D01*
X-35505681Y7062211D01*
X-35539109Y7172407D01*
X-35551000Y7293140D01*
X-35551000Y8706860D01*
X-35539109Y8827593D01*
X-35505681Y8937789D01*
X-35451402Y9039338D01*
X-35378351Y9128351D01*
X-35289338Y9201402D01*
X-35187789Y9255681D01*
X-35077593Y9289109D01*
X-34956860Y9301000D01*
X-33543140Y9301000D01*
X-33422407Y9289109D01*
G37*
G36*
X-11422407Y9289109D02*
G01*
X-11312211Y9255681D01*
X-11210662Y9201402D01*
X-11121649Y9128351D01*
X-11048598Y9039338D01*
X-10994319Y8937789D01*
X-10960891Y8827593D01*
X-10949000Y8706860D01*
X-10949000Y7293140D01*
X-10960891Y7172407D01*
X-10994319Y7062211D01*
X-11048598Y6960662D01*
X-11121649Y6871649D01*
X-11210662Y6798598D01*
X-11312211Y6744319D01*
X-11422407Y6710891D01*
X-11543140Y6699000D01*
X-12956860Y6699000D01*
X-13077593Y6710891D01*
X-13187789Y6744319D01*
X-13289338Y6798598D01*
X-13378351Y6871649D01*
X-13451402Y6960662D01*
X-13505681Y7062211D01*
X-13539109Y7172407D01*
X-13551000Y7293140D01*
X-13551000Y8706860D01*
X-13539109Y8827593D01*
X-13505681Y8937789D01*
X-13451402Y9039338D01*
X-13378351Y9128351D01*
X-13289338Y9201402D01*
X-13187789Y9255681D01*
X-13077593Y9289109D01*
X-12956860Y9301000D01*
X-11543140Y9301000D01*
X-11422407Y9289109D01*
G37*
G36*
X-7922407Y9289109D02*
G01*
X-7812211Y9255681D01*
X-7710662Y9201402D01*
X-7621649Y9128351D01*
X-7548598Y9039338D01*
X-7494319Y8937789D01*
X-7460891Y8827593D01*
X-7449000Y8706860D01*
X-7449000Y7293140D01*
X-7460891Y7172407D01*
X-7494319Y7062211D01*
X-7548598Y6960662D01*
X-7621649Y6871649D01*
X-7710662Y6798598D01*
X-7812211Y6744319D01*
X-7922407Y6710891D01*
X-8043140Y6699000D01*
X-9456860Y6699000D01*
X-9577593Y6710891D01*
X-9687789Y6744319D01*
X-9789338Y6798598D01*
X-9878351Y6871649D01*
X-9951402Y6960662D01*
X-10005681Y7062211D01*
X-10039109Y7172407D01*
X-10051000Y7293140D01*
X-10051000Y8706860D01*
X-10039109Y8827593D01*
X-10005681Y8937789D01*
X-9951402Y9039338D01*
X-9878351Y9128351D01*
X-9789338Y9201402D01*
X-9687789Y9255681D01*
X-9577593Y9289109D01*
X-9456860Y9301000D01*
X-8043140Y9301000D01*
X-7922407Y9289109D01*
G37*
G36*
X-28422407Y9289109D02*
G01*
X-28312211Y9255681D01*
X-28210662Y9201402D01*
X-28121649Y9128351D01*
X-28048598Y9039338D01*
X-27994319Y8937789D01*
X-27960891Y8827593D01*
X-27949000Y8706860D01*
X-27949000Y7293140D01*
X-27960891Y7172407D01*
X-27994319Y7062211D01*
X-28048598Y6960662D01*
X-28121649Y6871649D01*
X-28210662Y6798598D01*
X-28312211Y6744319D01*
X-28422407Y6710891D01*
X-28543140Y6699000D01*
X-29956860Y6699000D01*
X-30077593Y6710891D01*
X-30187789Y6744319D01*
X-30289338Y6798598D01*
X-30378351Y6871649D01*
X-30451402Y6960662D01*
X-30505681Y7062211D01*
X-30539109Y7172407D01*
X-30551000Y7293140D01*
X-30551000Y8706860D01*
X-30539109Y8827593D01*
X-30505681Y8937789D01*
X-30451402Y9039338D01*
X-30378351Y9128351D01*
X-30289338Y9201402D01*
X-30187789Y9255681D01*
X-30077593Y9289109D01*
X-29956860Y9301000D01*
X-28543140Y9301000D01*
X-28422407Y9289109D01*
G37*
G36*
X-24922407Y9289109D02*
G01*
X-24812211Y9255681D01*
X-24710662Y9201402D01*
X-24621649Y9128351D01*
X-24548598Y9039338D01*
X-24494319Y8937789D01*
X-24460891Y8827593D01*
X-24449000Y8706860D01*
X-24449000Y7293140D01*
X-24460891Y7172407D01*
X-24494319Y7062211D01*
X-24548598Y6960662D01*
X-24621649Y6871649D01*
X-24710662Y6798598D01*
X-24812211Y6744319D01*
X-24922407Y6710891D01*
X-25043140Y6699000D01*
X-26456860Y6699000D01*
X-26577593Y6710891D01*
X-26687789Y6744319D01*
X-26789338Y6798598D01*
X-26878351Y6871649D01*
X-26951402Y6960662D01*
X-27005681Y7062211D01*
X-27039109Y7172407D01*
X-27051000Y7293140D01*
X-27051000Y8706860D01*
X-27039109Y8827593D01*
X-27005681Y8937789D01*
X-26951402Y9039338D01*
X-26878351Y9128351D01*
X-26789338Y9201402D01*
X-26687789Y9255681D01*
X-26577593Y9289109D01*
X-26456860Y9301000D01*
X-25043140Y9301000D01*
X-24922407Y9289109D01*
G37*
G36*
X-16422407Y9289109D02*
G01*
X-16312211Y9255681D01*
X-16210662Y9201402D01*
X-16121649Y9128351D01*
X-16048598Y9039338D01*
X-15994319Y8937789D01*
X-15960891Y8827593D01*
X-15949000Y8706860D01*
X-15949000Y7293140D01*
X-15960891Y7172407D01*
X-15994319Y7062211D01*
X-16048598Y6960662D01*
X-16121649Y6871649D01*
X-16210662Y6798598D01*
X-16312211Y6744319D01*
X-16422407Y6710891D01*
X-16543140Y6699000D01*
X-17956860Y6699000D01*
X-18077593Y6710891D01*
X-18187789Y6744319D01*
X-18289338Y6798598D01*
X-18378351Y6871649D01*
X-18451402Y6960662D01*
X-18505681Y7062211D01*
X-18539109Y7172407D01*
X-18551000Y7293140D01*
X-18551000Y8706860D01*
X-18539109Y8827593D01*
X-18505681Y8937789D01*
X-18451402Y9039338D01*
X-18378351Y9128351D01*
X-18289338Y9201402D01*
X-18187789Y9255681D01*
X-18077593Y9289109D01*
X-17956860Y9301000D01*
X-16543140Y9301000D01*
X-16422407Y9289109D01*
G37*
G36*
X-71922407Y9289109D02*
G01*
X-71812211Y9255681D01*
X-71710662Y9201402D01*
X-71621649Y9128351D01*
X-71548598Y9039338D01*
X-71494319Y8937789D01*
X-71460891Y8827593D01*
X-71449000Y8706860D01*
X-71449000Y7293140D01*
X-71460891Y7172407D01*
X-71494319Y7062211D01*
X-71548598Y6960662D01*
X-71621649Y6871649D01*
X-71710662Y6798598D01*
X-71812211Y6744319D01*
X-71922407Y6710891D01*
X-72043140Y6699000D01*
X-73456860Y6699000D01*
X-73577593Y6710891D01*
X-73687789Y6744319D01*
X-73789338Y6798598D01*
X-73878351Y6871649D01*
X-73951402Y6960662D01*
X-74005681Y7062211D01*
X-74039109Y7172407D01*
X-74051000Y7293140D01*
X-74051000Y8706860D01*
X-74039109Y8827593D01*
X-74005681Y8937789D01*
X-73951402Y9039338D01*
X-73878351Y9128351D01*
X-73789338Y9201402D01*
X-73687789Y9255681D01*
X-73577593Y9289109D01*
X-73456860Y9301000D01*
X-72043140Y9301000D01*
X-71922407Y9289109D01*
G37*
G36*
X-54922407Y9289109D02*
G01*
X-54812211Y9255681D01*
X-54710662Y9201402D01*
X-54621649Y9128351D01*
X-54548598Y9039338D01*
X-54494319Y8937789D01*
X-54460891Y8827593D01*
X-54449000Y8706860D01*
X-54449000Y7293140D01*
X-54460891Y7172407D01*
X-54494319Y7062211D01*
X-54548598Y6960662D01*
X-54621649Y6871649D01*
X-54710662Y6798598D01*
X-54812211Y6744319D01*
X-54922407Y6710891D01*
X-55043140Y6699000D01*
X-56456860Y6699000D01*
X-56577593Y6710891D01*
X-56687789Y6744319D01*
X-56789338Y6798598D01*
X-56878351Y6871649D01*
X-56951402Y6960662D01*
X-57005681Y7062211D01*
X-57039109Y7172407D01*
X-57051000Y7293140D01*
X-57051000Y8706860D01*
X-57039109Y8827593D01*
X-57005681Y8937789D01*
X-56951402Y9039338D01*
X-56878351Y9128351D01*
X-56789338Y9201402D01*
X-56687789Y9255681D01*
X-56577593Y9289109D01*
X-56456860Y9301000D01*
X-55043140Y9301000D01*
X-54922407Y9289109D01*
G37*
G36*
X-58422407Y9289109D02*
G01*
X-58312211Y9255681D01*
X-58210662Y9201402D01*
X-58121649Y9128351D01*
X-58048598Y9039338D01*
X-57994319Y8937789D01*
X-57960891Y8827593D01*
X-57949000Y8706860D01*
X-57949000Y7293140D01*
X-57960891Y7172407D01*
X-57994319Y7062211D01*
X-58048598Y6960662D01*
X-58121649Y6871649D01*
X-58210662Y6798598D01*
X-58312211Y6744319D01*
X-58422407Y6710891D01*
X-58543140Y6699000D01*
X-59956860Y6699000D01*
X-60077593Y6710891D01*
X-60187789Y6744319D01*
X-60289338Y6798598D01*
X-60378351Y6871649D01*
X-60451402Y6960662D01*
X-60505681Y7062211D01*
X-60539109Y7172407D01*
X-60551000Y7293140D01*
X-60551000Y8706860D01*
X-60539109Y8827593D01*
X-60505681Y8937789D01*
X-60451402Y9039338D01*
X-60378351Y9128351D01*
X-60289338Y9201402D01*
X-60187789Y9255681D01*
X-60077593Y9289109D01*
X-59956860Y9301000D01*
X-58543140Y9301000D01*
X-58422407Y9289109D01*
G37*
G36*
X-63422407Y9289109D02*
G01*
X-63312211Y9255681D01*
X-63210662Y9201402D01*
X-63121649Y9128351D01*
X-63048598Y9039338D01*
X-62994319Y8937789D01*
X-62960891Y8827593D01*
X-62949000Y8706860D01*
X-62949000Y7293140D01*
X-62960891Y7172407D01*
X-62994319Y7062211D01*
X-63048598Y6960662D01*
X-63121649Y6871649D01*
X-63210662Y6798598D01*
X-63312211Y6744319D01*
X-63422407Y6710891D01*
X-63543140Y6699000D01*
X-64956860Y6699000D01*
X-65077593Y6710891D01*
X-65187789Y6744319D01*
X-65289338Y6798598D01*
X-65378351Y6871649D01*
X-65451402Y6960662D01*
X-65505681Y7062211D01*
X-65539109Y7172407D01*
X-65551000Y7293140D01*
X-65551000Y8706860D01*
X-65539109Y8827593D01*
X-65505681Y8937789D01*
X-65451402Y9039338D01*
X-65378351Y9128351D01*
X-65289338Y9201402D01*
X-65187789Y9255681D01*
X-65077593Y9289109D01*
X-64956860Y9301000D01*
X-63543140Y9301000D01*
X-63422407Y9289109D01*
G37*
G36*
X-66922407Y9289109D02*
G01*
X-66812211Y9255681D01*
X-66710662Y9201402D01*
X-66621649Y9128351D01*
X-66548598Y9039338D01*
X-66494319Y8937789D01*
X-66460891Y8827593D01*
X-66449000Y8706860D01*
X-66449000Y7293140D01*
X-66460891Y7172407D01*
X-66494319Y7062211D01*
X-66548598Y6960662D01*
X-66621649Y6871649D01*
X-66710662Y6798598D01*
X-66812211Y6744319D01*
X-66922407Y6710891D01*
X-67043140Y6699000D01*
X-68456860Y6699000D01*
X-68577593Y6710891D01*
X-68687789Y6744319D01*
X-68789338Y6798598D01*
X-68878351Y6871649D01*
X-68951402Y6960662D01*
X-69005681Y7062211D01*
X-69039109Y7172407D01*
X-69051000Y7293140D01*
X-69051000Y8706860D01*
X-69039109Y8827593D01*
X-69005681Y8937789D01*
X-68951402Y9039338D01*
X-68878351Y9128351D01*
X-68789338Y9201402D01*
X-68687789Y9255681D01*
X-68577593Y9289109D01*
X-68456860Y9301000D01*
X-67043140Y9301000D01*
X-66922407Y9289109D01*
G37*
G36*
X-19922407Y9289109D02*
G01*
X-19812211Y9255681D01*
X-19710662Y9201402D01*
X-19621649Y9128351D01*
X-19548598Y9039338D01*
X-19494319Y8937789D01*
X-19460891Y8827593D01*
X-19449000Y8706860D01*
X-19449000Y7293140D01*
X-19460891Y7172407D01*
X-19494319Y7062211D01*
X-19548598Y6960662D01*
X-19621649Y6871649D01*
X-19710662Y6798598D01*
X-19812211Y6744319D01*
X-19922407Y6710891D01*
X-20043140Y6699000D01*
X-21456860Y6699000D01*
X-21577593Y6710891D01*
X-21687789Y6744319D01*
X-21789338Y6798598D01*
X-21878351Y6871649D01*
X-21951402Y6960662D01*
X-22005681Y7062211D01*
X-22039109Y7172407D01*
X-22051000Y7293140D01*
X-22051000Y8706860D01*
X-22039109Y8827593D01*
X-22005681Y8937789D01*
X-21951402Y9039338D01*
X-21878351Y9128351D01*
X-21789338Y9201402D01*
X-21687789Y9255681D01*
X-21577593Y9289109D01*
X-21456860Y9301000D01*
X-20043140Y9301000D01*
X-19922407Y9289109D01*
G37*
G36*
X438953Y14206767D02*
G01*
X656301Y14163534D01*
X1065775Y13993924D01*
X1434292Y13747689D01*
X1747689Y13434292D01*
X1993924Y13065775D01*
X1993925Y13065773D01*
X2163534Y12656300D01*
X2250000Y12221607D01*
X2250000Y11778393D01*
X2207175Y11563100D01*
X2163534Y11343699D01*
X1993924Y10934225D01*
X1747689Y10565708D01*
X1434292Y10252311D01*
X1065775Y10006076D01*
X656301Y9836466D01*
X221607Y9750000D01*
X-221607Y9750000D01*
X-656301Y9836466D01*
X-1065775Y10006076D01*
X-1434292Y10252311D01*
X-1747689Y10565708D01*
X-1993924Y10934225D01*
X-2163534Y11343699D01*
X-2207175Y11563100D01*
X-2250000Y11778393D01*
X-2250000Y12221607D01*
X-2163534Y12656300D01*
X-1993925Y13065773D01*
X-1993924Y13065775D01*
X-1747689Y13434292D01*
X-1434292Y13747689D01*
X-1065775Y13993924D01*
X-656301Y14163534D01*
X-438953Y14206767D01*
X-221607Y14250000D01*
X221607Y14250000D01*
X438953Y14206767D01*
G37*
G36*
X-84561047Y14206767D02*
G01*
X-84343699Y14163534D01*
X-83934225Y13993924D01*
X-83565708Y13747689D01*
X-83252311Y13434292D01*
X-83006076Y13065775D01*
X-83006075Y13065773D01*
X-82836466Y12656300D01*
X-82750000Y12221607D01*
X-82750000Y11778393D01*
X-82792825Y11563100D01*
X-82836466Y11343699D01*
X-83006076Y10934225D01*
X-83252311Y10565708D01*
X-83565708Y10252311D01*
X-83934225Y10006076D01*
X-84343699Y9836466D01*
X-84778393Y9750000D01*
X-85221607Y9750000D01*
X-85656301Y9836466D01*
X-86065775Y10006076D01*
X-86434292Y10252311D01*
X-86747689Y10565708D01*
X-86993924Y10934225D01*
X-87163534Y11343699D01*
X-87207175Y11563100D01*
X-87250000Y11778393D01*
X-87250000Y12221607D01*
X-87163534Y12656300D01*
X-86993925Y13065773D01*
X-86993924Y13065775D01*
X-86747689Y13434292D01*
X-86434292Y13747689D01*
X-86065775Y13993924D01*
X-85656301Y14163534D01*
X-85438953Y14206767D01*
X-85221607Y14250000D01*
X-84778393Y14250000D01*
X-84561047Y14206767D01*
G37*
G36*
X-64946772Y11978297D02*
G01*
X-64791900Y11914147D01*
X-64652519Y11821015D01*
X-64533985Y11702481D01*
X-64440853Y11563100D01*
X-64376703Y11408228D01*
X-64344000Y11243816D01*
X-64344000Y11076184D01*
X-64376703Y10911772D01*
X-64440853Y10756900D01*
X-64533985Y10617519D01*
X-64652519Y10498985D01*
X-64791900Y10405853D01*
X-64946772Y10341703D01*
X-65111184Y10309000D01*
X-65278816Y10309000D01*
X-65443228Y10341703D01*
X-65598100Y10405853D01*
X-65737481Y10498985D01*
X-65856015Y10617519D01*
X-65949147Y10756900D01*
X-66013297Y10911772D01*
X-66046000Y11076184D01*
X-66046000Y11243816D01*
X-66013297Y11408228D01*
X-65949147Y11563100D01*
X-65856015Y11702481D01*
X-65737481Y11821015D01*
X-65598100Y11914147D01*
X-65443228Y11978297D01*
X-65278816Y12011000D01*
X-65111184Y12011000D01*
X-64946772Y11978297D01*
G37*
G36*
X-56636772Y11978297D02*
G01*
X-56481900Y11914147D01*
X-56342519Y11821015D01*
X-56223985Y11702481D01*
X-56130853Y11563100D01*
X-56066703Y11408228D01*
X-56034000Y11243816D01*
X-56034000Y11076184D01*
X-56066703Y10911772D01*
X-56130853Y10756900D01*
X-56223985Y10617519D01*
X-56342519Y10498985D01*
X-56481900Y10405853D01*
X-56636772Y10341703D01*
X-56801184Y10309000D01*
X-56968816Y10309000D01*
X-57133228Y10341703D01*
X-57288100Y10405853D01*
X-57427481Y10498985D01*
X-57546015Y10617519D01*
X-57639147Y10756900D01*
X-57703297Y10911772D01*
X-57736000Y11076184D01*
X-57736000Y11243816D01*
X-57703297Y11408228D01*
X-57639147Y11563100D01*
X-57546015Y11702481D01*
X-57427481Y11821015D01*
X-57288100Y11914147D01*
X-57133228Y11978297D01*
X-56968816Y12011000D01*
X-56801184Y12011000D01*
X-56636772Y11978297D01*
G37*
G36*
X-59406772Y11978297D02*
G01*
X-59251900Y11914147D01*
X-59112519Y11821015D01*
X-58993985Y11702481D01*
X-58900853Y11563100D01*
X-58836703Y11408228D01*
X-58804000Y11243816D01*
X-58804000Y11076184D01*
X-58836703Y10911772D01*
X-58900853Y10756900D01*
X-58993985Y10617519D01*
X-59112519Y10498985D01*
X-59251900Y10405853D01*
X-59406772Y10341703D01*
X-59571184Y10309000D01*
X-59738816Y10309000D01*
X-59903228Y10341703D01*
X-60058100Y10405853D01*
X-60197481Y10498985D01*
X-60316015Y10617519D01*
X-60409147Y10756900D01*
X-60473297Y10911772D01*
X-60506000Y11076184D01*
X-60506000Y11243816D01*
X-60473297Y11408228D01*
X-60409147Y11563100D01*
X-60316015Y11702481D01*
X-60197481Y11821015D01*
X-60058100Y11914147D01*
X-59903228Y11978297D01*
X-59738816Y12011000D01*
X-59571184Y12011000D01*
X-59406772Y11978297D01*
G37*
G36*
X-62176772Y11978297D02*
G01*
X-62021900Y11914147D01*
X-61882519Y11821015D01*
X-61763985Y11702481D01*
X-61670853Y11563100D01*
X-61606703Y11408228D01*
X-61574000Y11243816D01*
X-61574000Y11076184D01*
X-61606703Y10911772D01*
X-61670853Y10756900D01*
X-61763985Y10617519D01*
X-61882519Y10498985D01*
X-62021900Y10405853D01*
X-62176772Y10341703D01*
X-62341184Y10309000D01*
X-62508816Y10309000D01*
X-62673228Y10341703D01*
X-62828100Y10405853D01*
X-62967481Y10498985D01*
X-63086015Y10617519D01*
X-63179147Y10756900D01*
X-63243297Y10911772D01*
X-63276000Y11076184D01*
X-63276000Y11243816D01*
X-63243297Y11408228D01*
X-63179147Y11563100D01*
X-63086015Y11702481D01*
X-62967481Y11821015D01*
X-62828100Y11914147D01*
X-62673228Y11978297D01*
X-62508816Y12011000D01*
X-62341184Y12011000D01*
X-62176772Y11978297D01*
G37*
G36*
X-27946772Y11978297D02*
G01*
X-27791900Y11914147D01*
X-27652519Y11821015D01*
X-27533985Y11702481D01*
X-27440853Y11563100D01*
X-27376703Y11408228D01*
X-27344000Y11243816D01*
X-27344000Y11076184D01*
X-27376703Y10911772D01*
X-27440853Y10756900D01*
X-27533985Y10617519D01*
X-27652519Y10498985D01*
X-27791900Y10405853D01*
X-27946772Y10341703D01*
X-28111184Y10309000D01*
X-28278816Y10309000D01*
X-28443228Y10341703D01*
X-28598100Y10405853D01*
X-28737481Y10498985D01*
X-28856015Y10617519D01*
X-28949147Y10756900D01*
X-29013297Y10911772D01*
X-29046000Y11076184D01*
X-29046000Y11243816D01*
X-29013297Y11408228D01*
X-28949147Y11563100D01*
X-28856015Y11702481D01*
X-28737481Y11821015D01*
X-28598100Y11914147D01*
X-28443228Y11978297D01*
X-28278816Y12011000D01*
X-28111184Y12011000D01*
X-27946772Y11978297D01*
G37*
G36*
X-25176772Y11978297D02*
G01*
X-25021900Y11914147D01*
X-24882519Y11821015D01*
X-24763985Y11702481D01*
X-24670853Y11563100D01*
X-24606703Y11408228D01*
X-24574000Y11243816D01*
X-24574000Y11076184D01*
X-24606703Y10911772D01*
X-24670853Y10756900D01*
X-24763985Y10617519D01*
X-24882519Y10498985D01*
X-25021900Y10405853D01*
X-25176772Y10341703D01*
X-25341184Y10309000D01*
X-25508816Y10309000D01*
X-25673228Y10341703D01*
X-25828100Y10405853D01*
X-25967481Y10498985D01*
X-26086015Y10617519D01*
X-26179147Y10756900D01*
X-26243297Y10911772D01*
X-26276000Y11076184D01*
X-26276000Y11243816D01*
X-26243297Y11408228D01*
X-26179147Y11563100D01*
X-26086015Y11702481D01*
X-25967481Y11821015D01*
X-25828100Y11914147D01*
X-25673228Y11978297D01*
X-25508816Y12011000D01*
X-25341184Y12011000D01*
X-25176772Y11978297D01*
G37*
G36*
X-19636772Y11978297D02*
G01*
X-19481900Y11914147D01*
X-19342519Y11821015D01*
X-19223985Y11702481D01*
X-19130853Y11563100D01*
X-19066703Y11408228D01*
X-19034000Y11243816D01*
X-19034000Y11076184D01*
X-19066703Y10911772D01*
X-19130853Y10756900D01*
X-19223985Y10617519D01*
X-19342519Y10498985D01*
X-19481900Y10405853D01*
X-19636772Y10341703D01*
X-19801184Y10309000D01*
X-19968816Y10309000D01*
X-20133228Y10341703D01*
X-20288100Y10405853D01*
X-20427481Y10498985D01*
X-20546015Y10617519D01*
X-20639147Y10756900D01*
X-20703297Y10911772D01*
X-20736000Y11076184D01*
X-20736000Y11243816D01*
X-20703297Y11408228D01*
X-20639147Y11563100D01*
X-20546015Y11702481D01*
X-20427481Y11821015D01*
X-20288100Y11914147D01*
X-20133228Y11978297D01*
X-19968816Y12011000D01*
X-19801184Y12011000D01*
X-19636772Y11978297D01*
G37*
G36*
X-22406772Y11978297D02*
G01*
X-22251900Y11914147D01*
X-22112519Y11821015D01*
X-21993985Y11702481D01*
X-21900853Y11563100D01*
X-21836703Y11408228D01*
X-21804000Y11243816D01*
X-21804000Y11076184D01*
X-21836703Y10911772D01*
X-21900853Y10756900D01*
X-21993985Y10617519D01*
X-22112519Y10498985D01*
X-22251900Y10405853D01*
X-22406772Y10341703D01*
X-22571184Y10309000D01*
X-22738816Y10309000D01*
X-22903228Y10341703D01*
X-23058100Y10405853D01*
X-23197481Y10498985D01*
X-23316015Y10617519D01*
X-23409147Y10756900D01*
X-23473297Y10911772D01*
X-23506000Y11076184D01*
X-23506000Y11243816D01*
X-23473297Y11408228D01*
X-23409147Y11563100D01*
X-23316015Y11702481D01*
X-23197481Y11821015D01*
X-23058100Y11914147D01*
X-22903228Y11978297D01*
X-22738816Y12011000D01*
X-22571184Y12011000D01*
X-22406772Y11978297D01*
G37*
G36*
X-47941746Y14552182D02*
G01*
X-47581830Y14403100D01*
X-47568487Y14397573D01*
X-47232564Y14173116D01*
X-46946884Y13887436D01*
X-46856235Y13751771D01*
X-46722426Y13551511D01*
X-46567818Y13178254D01*
X-46489000Y12782007D01*
X-46489000Y12377993D01*
X-46567818Y11981746D01*
X-46683494Y11702480D01*
X-46722427Y11608487D01*
X-46946884Y11272564D01*
X-47232564Y10986884D01*
X-47568487Y10762427D01*
X-47568488Y10762426D01*
X-47568489Y10762426D01*
X-47941746Y10607818D01*
X-48337993Y10529000D01*
X-48742007Y10529000D01*
X-49138254Y10607818D01*
X-49511511Y10762426D01*
X-49511512Y10762426D01*
X-49511513Y10762427D01*
X-49847436Y10986884D01*
X-50133116Y11272564D01*
X-50357573Y11608487D01*
X-50396506Y11702480D01*
X-50512182Y11981746D01*
X-50591000Y12377993D01*
X-50591000Y12782007D01*
X-50512182Y13178254D01*
X-50357574Y13551511D01*
X-50223764Y13751771D01*
X-50133116Y13887436D01*
X-49847436Y14173116D01*
X-49511513Y14397573D01*
X-49498170Y14403100D01*
X-49138254Y14552182D01*
X-48742007Y14631000D01*
X-48337993Y14631000D01*
X-47941746Y14552182D01*
G37*
G36*
X-72941746Y14552182D02*
G01*
X-72581830Y14403100D01*
X-72568487Y14397573D01*
X-72232564Y14173116D01*
X-71946884Y13887436D01*
X-71856235Y13751771D01*
X-71722426Y13551511D01*
X-71567818Y13178254D01*
X-71489000Y12782007D01*
X-71489000Y12377993D01*
X-71567818Y11981746D01*
X-71683494Y11702480D01*
X-71722427Y11608487D01*
X-71946884Y11272564D01*
X-72232564Y10986884D01*
X-72568487Y10762427D01*
X-72568488Y10762426D01*
X-72568489Y10762426D01*
X-72941746Y10607818D01*
X-73337993Y10529000D01*
X-73742007Y10529000D01*
X-74138254Y10607818D01*
X-74511511Y10762426D01*
X-74511512Y10762426D01*
X-74511513Y10762427D01*
X-74847436Y10986884D01*
X-75133116Y11272564D01*
X-75357573Y11608487D01*
X-75396506Y11702480D01*
X-75512182Y11981746D01*
X-75591000Y12377993D01*
X-75591000Y12782007D01*
X-75512182Y13178254D01*
X-75357574Y13551511D01*
X-75223764Y13751771D01*
X-75133116Y13887436D01*
X-74847436Y14173116D01*
X-74511513Y14397573D01*
X-74498170Y14403100D01*
X-74138254Y14552182D01*
X-73742007Y14631000D01*
X-73337993Y14631000D01*
X-72941746Y14552182D01*
G37*
G36*
X-10941746Y14552182D02*
G01*
X-10581830Y14403100D01*
X-10568487Y14397573D01*
X-10232564Y14173116D01*
X-9946884Y13887436D01*
X-9856235Y13751771D01*
X-9722426Y13551511D01*
X-9567818Y13178254D01*
X-9489000Y12782007D01*
X-9489000Y12377993D01*
X-9567818Y11981746D01*
X-9683494Y11702480D01*
X-9722427Y11608487D01*
X-9946884Y11272564D01*
X-10232564Y10986884D01*
X-10568487Y10762427D01*
X-10568488Y10762426D01*
X-10568489Y10762426D01*
X-10941746Y10607818D01*
X-11337993Y10529000D01*
X-11742007Y10529000D01*
X-12138254Y10607818D01*
X-12511511Y10762426D01*
X-12511512Y10762426D01*
X-12511513Y10762427D01*
X-12847436Y10986884D01*
X-13133116Y11272564D01*
X-13357573Y11608487D01*
X-13396506Y11702480D01*
X-13512182Y11981746D01*
X-13591000Y12377993D01*
X-13591000Y12782007D01*
X-13512182Y13178254D01*
X-13357574Y13551511D01*
X-13223764Y13751771D01*
X-13133116Y13887436D01*
X-12847436Y14173116D01*
X-12511513Y14397573D01*
X-12498170Y14403100D01*
X-12138254Y14552182D01*
X-11742007Y14631000D01*
X-11337993Y14631000D01*
X-10941746Y14552182D01*
G37*
G36*
X-35941746Y14552182D02*
G01*
X-35581830Y14403100D01*
X-35568487Y14397573D01*
X-35232564Y14173116D01*
X-34946884Y13887436D01*
X-34856235Y13751771D01*
X-34722426Y13551511D01*
X-34567818Y13178254D01*
X-34489000Y12782007D01*
X-34489000Y12377993D01*
X-34567818Y11981746D01*
X-34683494Y11702480D01*
X-34722427Y11608487D01*
X-34946884Y11272564D01*
X-35232564Y10986884D01*
X-35568487Y10762427D01*
X-35568488Y10762426D01*
X-35568489Y10762426D01*
X-35941746Y10607818D01*
X-36337993Y10529000D01*
X-36742007Y10529000D01*
X-37138254Y10607818D01*
X-37511511Y10762426D01*
X-37511512Y10762426D01*
X-37511513Y10762427D01*
X-37847436Y10986884D01*
X-38133116Y11272564D01*
X-38357573Y11608487D01*
X-38396506Y11702480D01*
X-38512182Y11981746D01*
X-38591000Y12377993D01*
X-38591000Y12782007D01*
X-38512182Y13178254D01*
X-38357574Y13551511D01*
X-38223764Y13751771D01*
X-38133116Y13887436D01*
X-37847436Y14173116D01*
X-37511513Y14397573D01*
X-37498170Y14403100D01*
X-37138254Y14552182D01*
X-36742007Y14631000D01*
X-36337993Y14631000D01*
X-35941746Y14552182D01*
G37*
G36*
X-21021772Y14818297D02*
G01*
X-20866900Y14754147D01*
X-20727519Y14661015D01*
X-20608985Y14542481D01*
X-20515853Y14403100D01*
X-20451703Y14248228D01*
X-20419000Y14083816D01*
X-20419000Y13916184D01*
X-20451703Y13751772D01*
X-20515853Y13596900D01*
X-20608985Y13457519D01*
X-20727519Y13338985D01*
X-20866900Y13245853D01*
X-21021772Y13181703D01*
X-21186184Y13149000D01*
X-21353816Y13149000D01*
X-21518228Y13181703D01*
X-21673100Y13245853D01*
X-21812481Y13338985D01*
X-21931015Y13457519D01*
X-22024147Y13596900D01*
X-22088297Y13751772D01*
X-22121000Y13916184D01*
X-22121000Y14083816D01*
X-22088297Y14248228D01*
X-22024147Y14403100D01*
X-21931015Y14542481D01*
X-21812481Y14661015D01*
X-21673100Y14754147D01*
X-21518228Y14818297D01*
X-21353816Y14851000D01*
X-21186184Y14851000D01*
X-21021772Y14818297D01*
G37*
G36*
X-26561772Y14818297D02*
G01*
X-26406900Y14754147D01*
X-26267519Y14661015D01*
X-26148985Y14542481D01*
X-26055853Y14403100D01*
X-25991703Y14248228D01*
X-25959000Y14083816D01*
X-25959000Y13916184D01*
X-25991703Y13751772D01*
X-26055853Y13596900D01*
X-26148985Y13457519D01*
X-26267519Y13338985D01*
X-26406900Y13245853D01*
X-26561772Y13181703D01*
X-26726184Y13149000D01*
X-26893816Y13149000D01*
X-27058228Y13181703D01*
X-27213100Y13245853D01*
X-27352481Y13338985D01*
X-27471015Y13457519D01*
X-27564147Y13596900D01*
X-27628297Y13751772D01*
X-27661000Y13916184D01*
X-27661000Y14083816D01*
X-27628297Y14248228D01*
X-27564147Y14403100D01*
X-27471015Y14542481D01*
X-27352481Y14661015D01*
X-27213100Y14754147D01*
X-27058228Y14818297D01*
X-26893816Y14851000D01*
X-26726184Y14851000D01*
X-26561772Y14818297D01*
G37*
G36*
X-17649000Y13149000D02*
G01*
X-19351000Y13149000D01*
X-19351000Y14851000D01*
X-17649000Y14851000D01*
X-17649000Y13149000D01*
G37*
G36*
X-23791772Y14818297D02*
G01*
X-23636900Y14754147D01*
X-23497519Y14661015D01*
X-23378985Y14542481D01*
X-23285853Y14403100D01*
X-23221703Y14248228D01*
X-23189000Y14083816D01*
X-23189000Y13916184D01*
X-23221703Y13751772D01*
X-23285853Y13596900D01*
X-23378985Y13457519D01*
X-23497519Y13338985D01*
X-23636900Y13245853D01*
X-23791772Y13181703D01*
X-23956184Y13149000D01*
X-24123816Y13149000D01*
X-24288228Y13181703D01*
X-24443100Y13245853D01*
X-24582481Y13338985D01*
X-24701015Y13457519D01*
X-24794147Y13596900D01*
X-24858297Y13751772D01*
X-24891000Y13916184D01*
X-24891000Y14083816D01*
X-24858297Y14248228D01*
X-24794147Y14403100D01*
X-24701015Y14542481D01*
X-24582481Y14661015D01*
X-24443100Y14754147D01*
X-24288228Y14818297D01*
X-24123816Y14851000D01*
X-23956184Y14851000D01*
X-23791772Y14818297D01*
G37*
G36*
X-54649000Y13149000D02*
G01*
X-56351000Y13149000D01*
X-56351000Y14851000D01*
X-54649000Y14851000D01*
X-54649000Y13149000D01*
G37*
G36*
X-63561772Y14818297D02*
G01*
X-63406900Y14754147D01*
X-63267519Y14661015D01*
X-63148985Y14542481D01*
X-63055853Y14403100D01*
X-62991703Y14248228D01*
X-62959000Y14083816D01*
X-62959000Y13916184D01*
X-62991703Y13751772D01*
X-63055853Y13596900D01*
X-63148985Y13457519D01*
X-63267519Y13338985D01*
X-63406900Y13245853D01*
X-63561772Y13181703D01*
X-63726184Y13149000D01*
X-63893816Y13149000D01*
X-64058228Y13181703D01*
X-64213100Y13245853D01*
X-64352481Y13338985D01*
X-64471015Y13457519D01*
X-64564147Y13596900D01*
X-64628297Y13751772D01*
X-64661000Y13916184D01*
X-64661000Y14083816D01*
X-64628297Y14248228D01*
X-64564147Y14403100D01*
X-64471015Y14542481D01*
X-64352481Y14661015D01*
X-64213100Y14754147D01*
X-64058228Y14818297D01*
X-63893816Y14851000D01*
X-63726184Y14851000D01*
X-63561772Y14818297D01*
G37*
G36*
X-29331772Y14818297D02*
G01*
X-29176900Y14754147D01*
X-29037519Y14661015D01*
X-28918985Y14542481D01*
X-28825853Y14403100D01*
X-28761703Y14248228D01*
X-28729000Y14083816D01*
X-28729000Y13916184D01*
X-28761703Y13751772D01*
X-28825853Y13596900D01*
X-28918985Y13457519D01*
X-29037519Y13338985D01*
X-29176900Y13245853D01*
X-29331772Y13181703D01*
X-29496184Y13149000D01*
X-29663816Y13149000D01*
X-29828228Y13181703D01*
X-29983100Y13245853D01*
X-30122481Y13338985D01*
X-30241015Y13457519D01*
X-30334147Y13596900D01*
X-30398297Y13751772D01*
X-30431000Y13916184D01*
X-30431000Y14083816D01*
X-30398297Y14248228D01*
X-30334147Y14403100D01*
X-30241015Y14542481D01*
X-30122481Y14661015D01*
X-29983100Y14754147D01*
X-29828228Y14818297D01*
X-29663816Y14851000D01*
X-29496184Y14851000D01*
X-29331772Y14818297D01*
G37*
G36*
X-60791772Y14818297D02*
G01*
X-60636900Y14754147D01*
X-60497519Y14661015D01*
X-60378985Y14542481D01*
X-60285853Y14403100D01*
X-60221703Y14248228D01*
X-60189000Y14083816D01*
X-60189000Y13916184D01*
X-60221703Y13751772D01*
X-60285853Y13596900D01*
X-60378985Y13457519D01*
X-60497519Y13338985D01*
X-60636900Y13245853D01*
X-60791772Y13181703D01*
X-60956184Y13149000D01*
X-61123816Y13149000D01*
X-61288228Y13181703D01*
X-61443100Y13245853D01*
X-61582481Y13338985D01*
X-61701015Y13457519D01*
X-61794147Y13596900D01*
X-61858297Y13751772D01*
X-61891000Y13916184D01*
X-61891000Y14083816D01*
X-61858297Y14248228D01*
X-61794147Y14403100D01*
X-61701015Y14542481D01*
X-61582481Y14661015D01*
X-61443100Y14754147D01*
X-61288228Y14818297D01*
X-61123816Y14851000D01*
X-60956184Y14851000D01*
X-60791772Y14818297D01*
G37*
G36*
X-58021772Y14818297D02*
G01*
X-57866900Y14754147D01*
X-57727519Y14661015D01*
X-57608985Y14542481D01*
X-57515853Y14403100D01*
X-57451703Y14248228D01*
X-57419000Y14083816D01*
X-57419000Y13916184D01*
X-57451703Y13751772D01*
X-57515853Y13596900D01*
X-57608985Y13457519D01*
X-57727519Y13338985D01*
X-57866900Y13245853D01*
X-58021772Y13181703D01*
X-58186184Y13149000D01*
X-58353816Y13149000D01*
X-58518228Y13181703D01*
X-58673100Y13245853D01*
X-58812481Y13338985D01*
X-58931015Y13457519D01*
X-59024147Y13596900D01*
X-59088297Y13751772D01*
X-59121000Y13916184D01*
X-59121000Y14083816D01*
X-59088297Y14248228D01*
X-59024147Y14403100D01*
X-58931015Y14542481D01*
X-58812481Y14661015D01*
X-58673100Y14754147D01*
X-58518228Y14818297D01*
X-58353816Y14851000D01*
X-58186184Y14851000D01*
X-58021772Y14818297D01*
G37*
G36*
X-66331772Y14818297D02*
G01*
X-66176900Y14754147D01*
X-66037519Y14661015D01*
X-65918985Y14542481D01*
X-65825853Y14403100D01*
X-65761703Y14248228D01*
X-65729000Y14083816D01*
X-65729000Y13916184D01*
X-65761703Y13751772D01*
X-65825853Y13596900D01*
X-65918985Y13457519D01*
X-66037519Y13338985D01*
X-66176900Y13245853D01*
X-66331772Y13181703D01*
X-66496184Y13149000D01*
X-66663816Y13149000D01*
X-66828228Y13181703D01*
X-66983100Y13245853D01*
X-67122481Y13338985D01*
X-67241015Y13457519D01*
X-67334147Y13596900D01*
X-67398297Y13751772D01*
X-67431000Y13916184D01*
X-67431000Y14083816D01*
X-67398297Y14248228D01*
X-67334147Y14403100D01*
X-67241015Y14542481D01*
X-67122481Y14661015D01*
X-66983100Y14754147D01*
X-66828228Y14818297D01*
X-66663816Y14851000D01*
X-66496184Y14851000D01*
X-66331772Y14818297D01*
G37*
G36*
X-77422407Y20039109D02*
G01*
X-77312211Y20005681D01*
X-77210662Y19951402D01*
X-77121649Y19878351D01*
X-77048598Y19789338D01*
X-76994319Y19687789D01*
X-76960891Y19577593D01*
X-76949000Y19456860D01*
X-76949000Y18043140D01*
X-76960891Y17922407D01*
X-76994319Y17812211D01*
X-77048598Y17710662D01*
X-77121649Y17621649D01*
X-77210662Y17548598D01*
X-77312211Y17494319D01*
X-77422407Y17460891D01*
X-77543140Y17449000D01*
X-78956860Y17449000D01*
X-79077593Y17460891D01*
X-79187789Y17494319D01*
X-79289338Y17548598D01*
X-79378351Y17621649D01*
X-79451402Y17710662D01*
X-79505681Y17812211D01*
X-79539109Y17922407D01*
X-79551000Y18043140D01*
X-79551000Y19456860D01*
X-79539109Y19577593D01*
X-79505681Y19687789D01*
X-79451402Y19789338D01*
X-79378351Y19878351D01*
X-79289338Y19951402D01*
X-79187789Y20005681D01*
X-79077593Y20039109D01*
X-78956860Y20051000D01*
X-77543140Y20051000D01*
X-77422407Y20039109D01*
G37*
G36*
X-56587801Y20700046D02*
G01*
X-56575550Y20699444D01*
X-56557131Y20699444D01*
X-56534851Y20697250D01*
X-56450767Y20680524D01*
X-56429340Y20674024D01*
X-56350142Y20641220D01*
X-56344697Y20638309D01*
X-56344691Y20638307D01*
X-56335831Y20633571D01*
X-56335827Y20633568D01*
X-56330386Y20630660D01*
X-56259101Y20583029D01*
X-56241796Y20568828D01*
X-56181172Y20508204D01*
X-56166971Y20490899D01*
X-56119340Y20419614D01*
X-56116432Y20414173D01*
X-56116429Y20414169D01*
X-56111693Y20405309D01*
X-56111691Y20405303D01*
X-56108780Y20399858D01*
X-56075976Y20320660D01*
X-56069476Y20299233D01*
X-56052750Y20215149D01*
X-56050556Y20192869D01*
X-56050556Y20174450D01*
X-56049954Y20162199D01*
X-56048148Y20143861D01*
X-56048148Y19656140D01*
X-56049737Y19640001D01*
X-56052652Y19630392D01*
X-56057390Y19621528D01*
X-56063763Y19613763D01*
X-56076206Y19603552D01*
X-56086575Y19596622D01*
X-56103902Y19579295D01*
X-56117515Y19558920D01*
X-56126891Y19536280D01*
X-56131671Y19512247D01*
X-56131670Y19487743D01*
X-56126888Y19463710D01*
X-56117510Y19441071D01*
X-56103895Y19420698D01*
X-56086568Y19403371D01*
X-56076198Y19396442D01*
X-56063763Y19386237D01*
X-56057390Y19378472D01*
X-56052652Y19369608D01*
X-56049737Y19359999D01*
X-56048148Y19343860D01*
X-56048148Y18856138D01*
X-56049954Y18837801D01*
X-56050556Y18825550D01*
X-56050556Y18807131D01*
X-56052750Y18784851D01*
X-56069476Y18700767D01*
X-56075976Y18679340D01*
X-56108780Y18600142D01*
X-56111691Y18594697D01*
X-56111693Y18594691D01*
X-56116429Y18585831D01*
X-56116432Y18585827D01*
X-56119340Y18580386D01*
X-56166971Y18509101D01*
X-56181172Y18491796D01*
X-56241796Y18431172D01*
X-56259101Y18416971D01*
X-56330386Y18369340D01*
X-56335827Y18366432D01*
X-56335831Y18366429D01*
X-56344691Y18361693D01*
X-56344697Y18361691D01*
X-56350142Y18358780D01*
X-56429340Y18325976D01*
X-56450767Y18319476D01*
X-56534851Y18302750D01*
X-56557131Y18300556D01*
X-56575550Y18300556D01*
X-56587801Y18299954D01*
X-56606138Y18298148D01*
X-57093862Y18298148D01*
X-57112199Y18299954D01*
X-57124450Y18300556D01*
X-57142869Y18300556D01*
X-57165149Y18302750D01*
X-57249233Y18319476D01*
X-57270660Y18325976D01*
X-57349858Y18358780D01*
X-57355303Y18361691D01*
X-57355309Y18361693D01*
X-57364169Y18366429D01*
X-57364173Y18366432D01*
X-57369614Y18369340D01*
X-57440899Y18416971D01*
X-57458204Y18431172D01*
X-57518828Y18491796D01*
X-57533029Y18509101D01*
X-57580660Y18580386D01*
X-57583568Y18585827D01*
X-57583571Y18585831D01*
X-57588307Y18594691D01*
X-57588309Y18594697D01*
X-57591220Y18600142D01*
X-57624024Y18679340D01*
X-57630524Y18700767D01*
X-57647250Y18784851D01*
X-57649444Y18807131D01*
X-57649444Y18825550D01*
X-57650046Y18837801D01*
X-57651852Y18856138D01*
X-57651852Y19343860D01*
X-57650263Y19359999D01*
X-57647348Y19369608D01*
X-57642610Y19378472D01*
X-57636237Y19386237D01*
X-57623794Y19396448D01*
X-57613425Y19403378D01*
X-57596098Y19420705D01*
X-57582485Y19441080D01*
X-57573109Y19463720D01*
X-57568329Y19487753D01*
X-57568330Y19512257D01*
X-57573112Y19536290D01*
X-57582490Y19558929D01*
X-57596105Y19579302D01*
X-57613432Y19596629D01*
X-57623802Y19603558D01*
X-57636237Y19613763D01*
X-57642610Y19621528D01*
X-57647348Y19630392D01*
X-57650263Y19640001D01*
X-57651852Y19656140D01*
X-57651852Y20143861D01*
X-57650046Y20162199D01*
X-57649444Y20174450D01*
X-57649444Y20192869D01*
X-57647250Y20215149D01*
X-57630524Y20299233D01*
X-57624024Y20320660D01*
X-57591220Y20399858D01*
X-57588309Y20405303D01*
X-57588307Y20405309D01*
X-57583571Y20414169D01*
X-57583568Y20414173D01*
X-57580660Y20419614D01*
X-57533029Y20490899D01*
X-57518828Y20508204D01*
X-57458204Y20568828D01*
X-57440899Y20583029D01*
X-57369614Y20630660D01*
X-57364173Y20633568D01*
X-57364169Y20633571D01*
X-57355309Y20638307D01*
X-57355303Y20638309D01*
X-57349858Y20641220D01*
X-57270660Y20674024D01*
X-57249233Y20680524D01*
X-57165149Y20697250D01*
X-57142869Y20699444D01*
X-57124450Y20699444D01*
X-57112199Y20700046D01*
X-57093861Y20701852D01*
X-56606139Y20701852D01*
X-56587801Y20700046D01*
G37*
G36*
X-60587801Y20800046D02*
G01*
X-60575550Y20799444D01*
X-60557131Y20799444D01*
X-60534851Y20797250D01*
X-60450767Y20780524D01*
X-60429340Y20774024D01*
X-60350142Y20741220D01*
X-60344697Y20738309D01*
X-60344691Y20738307D01*
X-60335831Y20733571D01*
X-60335827Y20733568D01*
X-60330386Y20730660D01*
X-60259101Y20683029D01*
X-60241796Y20668828D01*
X-60181172Y20608204D01*
X-60166971Y20590899D01*
X-60119340Y20519614D01*
X-60116432Y20514173D01*
X-60116429Y20514169D01*
X-60111693Y20505309D01*
X-60111691Y20505303D01*
X-60108780Y20499858D01*
X-60075976Y20420660D01*
X-60069476Y20399233D01*
X-60052750Y20315149D01*
X-60050556Y20292869D01*
X-60050556Y20274450D01*
X-60049954Y20262199D01*
X-60048148Y20243861D01*
X-60048148Y19756140D01*
X-60049737Y19740001D01*
X-60052652Y19730392D01*
X-60057390Y19721528D01*
X-60063763Y19713763D01*
X-60076206Y19703552D01*
X-60086575Y19696622D01*
X-60103902Y19679295D01*
X-60117515Y19658920D01*
X-60126891Y19636280D01*
X-60131671Y19612247D01*
X-60131670Y19587743D01*
X-60126888Y19563710D01*
X-60117510Y19541071D01*
X-60103895Y19520698D01*
X-60086568Y19503371D01*
X-60076198Y19496442D01*
X-60063763Y19486237D01*
X-60057390Y19478472D01*
X-60052652Y19469608D01*
X-60049737Y19459999D01*
X-60048148Y19443860D01*
X-60048148Y18956139D01*
X-60049954Y18937801D01*
X-60050556Y18925550D01*
X-60050556Y18907131D01*
X-60052750Y18884851D01*
X-60069476Y18800767D01*
X-60075976Y18779340D01*
X-60108780Y18700142D01*
X-60111691Y18694697D01*
X-60111693Y18694691D01*
X-60116429Y18685831D01*
X-60116432Y18685827D01*
X-60119340Y18680386D01*
X-60166971Y18609101D01*
X-60181172Y18591796D01*
X-60241796Y18531172D01*
X-60259101Y18516971D01*
X-60330386Y18469340D01*
X-60335827Y18466432D01*
X-60335831Y18466429D01*
X-60344691Y18461693D01*
X-60344697Y18461691D01*
X-60350142Y18458780D01*
X-60429340Y18425976D01*
X-60450767Y18419476D01*
X-60534851Y18402750D01*
X-60557131Y18400556D01*
X-60575550Y18400556D01*
X-60587801Y18399954D01*
X-60606138Y18398148D01*
X-61093862Y18398148D01*
X-61112199Y18399954D01*
X-61124450Y18400556D01*
X-61142869Y18400556D01*
X-61165149Y18402750D01*
X-61249233Y18419476D01*
X-61270660Y18425976D01*
X-61349858Y18458780D01*
X-61355303Y18461691D01*
X-61355309Y18461693D01*
X-61364169Y18466429D01*
X-61364173Y18466432D01*
X-61369614Y18469340D01*
X-61440899Y18516971D01*
X-61458204Y18531172D01*
X-61518828Y18591796D01*
X-61533029Y18609101D01*
X-61580660Y18680386D01*
X-61583568Y18685827D01*
X-61583571Y18685831D01*
X-61588307Y18694691D01*
X-61588309Y18694697D01*
X-61591220Y18700142D01*
X-61624024Y18779340D01*
X-61630524Y18800767D01*
X-61647250Y18884851D01*
X-61649444Y18907131D01*
X-61649444Y18925550D01*
X-61650046Y18937801D01*
X-61651852Y18956138D01*
X-61651852Y19443860D01*
X-61650263Y19459999D01*
X-61647348Y19469608D01*
X-61642610Y19478472D01*
X-61636237Y19486237D01*
X-61623794Y19496448D01*
X-61613425Y19503378D01*
X-61596098Y19520705D01*
X-61582485Y19541080D01*
X-61573109Y19563720D01*
X-61568329Y19587753D01*
X-61568330Y19612257D01*
X-61573112Y19636290D01*
X-61582490Y19658929D01*
X-61596105Y19679302D01*
X-61613432Y19696629D01*
X-61623802Y19703558D01*
X-61636237Y19713763D01*
X-61642610Y19721528D01*
X-61647348Y19730392D01*
X-61650263Y19740001D01*
X-61651852Y19756140D01*
X-61651852Y20243861D01*
X-61650046Y20262199D01*
X-61649444Y20274450D01*
X-61649444Y20292869D01*
X-61647250Y20315149D01*
X-61630524Y20399233D01*
X-61624024Y20420660D01*
X-61591220Y20499858D01*
X-61588309Y20505303D01*
X-61588307Y20505309D01*
X-61583571Y20514169D01*
X-61583568Y20514173D01*
X-61580660Y20519614D01*
X-61533029Y20590899D01*
X-61518828Y20608204D01*
X-61458204Y20668828D01*
X-61440899Y20683029D01*
X-61369614Y20730660D01*
X-61364173Y20733568D01*
X-61364169Y20733571D01*
X-61355309Y20738307D01*
X-61355303Y20738309D01*
X-61349858Y20741220D01*
X-61270660Y20774024D01*
X-61249233Y20780524D01*
X-61165149Y20797250D01*
X-61142869Y20799444D01*
X-61124450Y20799444D01*
X-61112199Y20800046D01*
X-61093861Y20801852D01*
X-60606139Y20801852D01*
X-60587801Y20800046D01*
G37*
G36*
X-77422407Y23539109D02*
G01*
X-77312211Y23505681D01*
X-77210662Y23451402D01*
X-77121649Y23378351D01*
X-77048598Y23289338D01*
X-76994319Y23187789D01*
X-76960891Y23077593D01*
X-76949000Y22956860D01*
X-76949000Y21543140D01*
X-76960891Y21422407D01*
X-76994319Y21312211D01*
X-77048598Y21210662D01*
X-77121649Y21121649D01*
X-77210662Y21048598D01*
X-77312211Y20994319D01*
X-77422407Y20960891D01*
X-77543140Y20949000D01*
X-78956860Y20949000D01*
X-79077593Y20960891D01*
X-79187789Y20994319D01*
X-79289338Y21048598D01*
X-79378351Y21121649D01*
X-79451402Y21210662D01*
X-79505681Y21312211D01*
X-79539109Y21422407D01*
X-79551000Y21543140D01*
X-79551000Y22956860D01*
X-79539109Y23077593D01*
X-79505681Y23187789D01*
X-79451402Y23289338D01*
X-79378351Y23378351D01*
X-79289338Y23451402D01*
X-79187789Y23505681D01*
X-79077593Y23539109D01*
X-78956860Y23551000D01*
X-77543140Y23551000D01*
X-77422407Y23539109D01*
G37*
G36*
X656301Y39163534D02*
G01*
X1065775Y38993924D01*
X1434292Y38747689D01*
X1747689Y38434292D01*
X1993924Y38065775D01*
X2163534Y37656301D01*
X2250000Y37221606D01*
X2250000Y36778394D01*
X2163534Y36343699D01*
X1993924Y35934225D01*
X1747689Y35565708D01*
X1434292Y35252311D01*
X1065775Y35006076D01*
X656301Y34836466D01*
X438953Y34793233D01*
X221607Y34750000D01*
X-221607Y34750000D01*
X-438953Y34793233D01*
X-656301Y34836466D01*
X-1065775Y35006076D01*
X-1434292Y35252311D01*
X-1747689Y35565708D01*
X-1993924Y35934225D01*
X-2163534Y36343699D01*
X-2250000Y36778394D01*
X-2250000Y37221606D01*
X-2163534Y37656301D01*
X-1993924Y38065775D01*
X-1747689Y38434292D01*
X-1434292Y38747689D01*
X-1065775Y38993924D01*
X-656301Y39163534D01*
X-221607Y39250000D01*
X221607Y39250000D01*
X656301Y39163534D01*
G37*
G36*
X-84343699Y39163534D02*
G01*
X-83934225Y38993924D01*
X-83565708Y38747689D01*
X-83252311Y38434292D01*
X-83006076Y38065775D01*
X-82836466Y37656301D01*
X-82750000Y37221606D01*
X-82750000Y36778394D01*
X-82836466Y36343699D01*
X-83006076Y35934225D01*
X-83252311Y35565708D01*
X-83565708Y35252311D01*
X-83934225Y35006076D01*
X-84343699Y34836466D01*
X-84561047Y34793233D01*
X-84778393Y34750000D01*
X-85221607Y34750000D01*
X-85438953Y34793233D01*
X-85656301Y34836466D01*
X-86065775Y35006076D01*
X-86434292Y35252311D01*
X-86747689Y35565708D01*
X-86993924Y35934225D01*
X-87163534Y36343699D01*
X-87250000Y36778394D01*
X-87250000Y37221606D01*
X-87163534Y37656301D01*
X-86993924Y38065775D01*
X-86747689Y38434292D01*
X-86434292Y38747689D01*
X-86065775Y38993924D01*
X-85656301Y39163534D01*
X-85221607Y39250000D01*
X-84778393Y39250000D01*
X-84343699Y39163534D01*
G37*
G36*
X-19140001Y52800263D02*
G01*
X-19130392Y52797348D01*
X-19121528Y52792610D01*
X-19113763Y52786237D01*
X-19103552Y52773794D01*
X-19096622Y52763425D01*
X-19079295Y52746098D01*
X-19058920Y52732485D01*
X-19036280Y52723109D01*
X-19012247Y52718329D01*
X-18987743Y52718330D01*
X-18963710Y52723112D01*
X-18941071Y52732490D01*
X-18920698Y52746105D01*
X-18903371Y52763432D01*
X-18896442Y52773802D01*
X-18886237Y52786237D01*
X-18878472Y52792610D01*
X-18869608Y52797348D01*
X-18859999Y52800263D01*
X-18843860Y52801852D01*
X-18356139Y52801852D01*
X-18337801Y52800046D01*
X-18325550Y52799444D01*
X-18307131Y52799444D01*
X-18284851Y52797250D01*
X-18200767Y52780524D01*
X-18179340Y52774024D01*
X-18100142Y52741220D01*
X-18094697Y52738309D01*
X-18094691Y52738307D01*
X-18085831Y52733571D01*
X-18085827Y52733568D01*
X-18080386Y52730660D01*
X-18009101Y52683029D01*
X-17991796Y52668828D01*
X-17931172Y52608204D01*
X-17916971Y52590899D01*
X-17869340Y52519614D01*
X-17866432Y52514173D01*
X-17866429Y52514169D01*
X-17861693Y52505309D01*
X-17861691Y52505303D01*
X-17858780Y52499858D01*
X-17825976Y52420660D01*
X-17819476Y52399233D01*
X-17802750Y52315149D01*
X-17800556Y52292869D01*
X-17800556Y52274450D01*
X-17799954Y52262199D01*
X-17798148Y52243861D01*
X-17798148Y51756138D01*
X-17799954Y51737801D01*
X-17800556Y51725550D01*
X-17800556Y51707131D01*
X-17802750Y51684851D01*
X-17819476Y51600767D01*
X-17825976Y51579340D01*
X-17858780Y51500142D01*
X-17861691Y51494697D01*
X-17861693Y51494691D01*
X-17866429Y51485831D01*
X-17866432Y51485827D01*
X-17869340Y51480386D01*
X-17916971Y51409101D01*
X-17931172Y51391796D01*
X-17991796Y51331172D01*
X-18009101Y51316971D01*
X-18080386Y51269340D01*
X-18085827Y51266432D01*
X-18085831Y51266429D01*
X-18094691Y51261693D01*
X-18094697Y51261691D01*
X-18100142Y51258780D01*
X-18179340Y51225976D01*
X-18200767Y51219476D01*
X-18284851Y51202750D01*
X-18307131Y51200556D01*
X-18325550Y51200556D01*
X-18337801Y51199954D01*
X-18356138Y51198148D01*
X-18843860Y51198148D01*
X-18859999Y51199737D01*
X-18869608Y51202652D01*
X-18878472Y51207390D01*
X-18886237Y51213763D01*
X-18896448Y51226206D01*
X-18903378Y51236575D01*
X-18920705Y51253902D01*
X-18941080Y51267515D01*
X-18963720Y51276891D01*
X-18987753Y51281671D01*
X-19012257Y51281670D01*
X-19036290Y51276888D01*
X-19058929Y51267510D01*
X-19079302Y51253895D01*
X-19096629Y51236568D01*
X-19103558Y51226198D01*
X-19113763Y51213763D01*
X-19121528Y51207390D01*
X-19130392Y51202652D01*
X-19140001Y51199737D01*
X-19156140Y51198148D01*
X-19643862Y51198148D01*
X-19662199Y51199954D01*
X-19674450Y51200556D01*
X-19692869Y51200556D01*
X-19715149Y51202750D01*
X-19799233Y51219476D01*
X-19820660Y51225976D01*
X-19899858Y51258780D01*
X-19905303Y51261691D01*
X-19905309Y51261693D01*
X-19914169Y51266429D01*
X-19914173Y51266432D01*
X-19919614Y51269340D01*
X-19990899Y51316971D01*
X-20008204Y51331172D01*
X-20068828Y51391796D01*
X-20083029Y51409101D01*
X-20130660Y51480386D01*
X-20133568Y51485827D01*
X-20133571Y51485831D01*
X-20138307Y51494691D01*
X-20138309Y51494697D01*
X-20141220Y51500142D01*
X-20174024Y51579340D01*
X-20180524Y51600767D01*
X-20197250Y51684851D01*
X-20199444Y51707131D01*
X-20199444Y51725550D01*
X-20200046Y51737801D01*
X-20201852Y51756138D01*
X-20201852Y52243861D01*
X-20200046Y52262199D01*
X-20199444Y52274450D01*
X-20199444Y52292869D01*
X-20197250Y52315149D01*
X-20180524Y52399233D01*
X-20174024Y52420660D01*
X-20141220Y52499858D01*
X-20138309Y52505303D01*
X-20138307Y52505309D01*
X-20133571Y52514169D01*
X-20133568Y52514173D01*
X-20130660Y52519614D01*
X-20083029Y52590899D01*
X-20068828Y52608204D01*
X-20008204Y52668828D01*
X-19990899Y52683029D01*
X-19919614Y52730660D01*
X-19914173Y52733568D01*
X-19914169Y52733571D01*
X-19905309Y52738307D01*
X-19905303Y52738309D01*
X-19899858Y52741220D01*
X-19820660Y52774024D01*
X-19799233Y52780524D01*
X-19715149Y52797250D01*
X-19692869Y52799444D01*
X-19674450Y52799444D01*
X-19662199Y52800046D01*
X-19643861Y52801852D01*
X-19156140Y52801852D01*
X-19140001Y52800263D01*
G37*
G36*
X-36140001Y52800263D02*
G01*
X-36130392Y52797348D01*
X-36121528Y52792610D01*
X-36113763Y52786237D01*
X-36103552Y52773794D01*
X-36096622Y52763425D01*
X-36079295Y52746098D01*
X-36058920Y52732485D01*
X-36036280Y52723109D01*
X-36012247Y52718329D01*
X-35987743Y52718330D01*
X-35963710Y52723112D01*
X-35941071Y52732490D01*
X-35920698Y52746105D01*
X-35903371Y52763432D01*
X-35896442Y52773802D01*
X-35886237Y52786237D01*
X-35878472Y52792610D01*
X-35869608Y52797348D01*
X-35859999Y52800263D01*
X-35843860Y52801852D01*
X-35356139Y52801852D01*
X-35337801Y52800046D01*
X-35325550Y52799444D01*
X-35307131Y52799444D01*
X-35284851Y52797250D01*
X-35200767Y52780524D01*
X-35179340Y52774024D01*
X-35100142Y52741220D01*
X-35094697Y52738309D01*
X-35094691Y52738307D01*
X-35085831Y52733571D01*
X-35085827Y52733568D01*
X-35080386Y52730660D01*
X-35009101Y52683029D01*
X-34991796Y52668828D01*
X-34931172Y52608204D01*
X-34916971Y52590899D01*
X-34869340Y52519614D01*
X-34866432Y52514173D01*
X-34866429Y52514169D01*
X-34861693Y52505309D01*
X-34861691Y52505303D01*
X-34858780Y52499858D01*
X-34825976Y52420660D01*
X-34819476Y52399233D01*
X-34802750Y52315149D01*
X-34800556Y52292869D01*
X-34800556Y52274450D01*
X-34799954Y52262199D01*
X-34798148Y52243861D01*
X-34798148Y51756138D01*
X-34799954Y51737801D01*
X-34800556Y51725550D01*
X-34800556Y51707131D01*
X-34802750Y51684851D01*
X-34819476Y51600767D01*
X-34825976Y51579340D01*
X-34858780Y51500142D01*
X-34861691Y51494697D01*
X-34861693Y51494691D01*
X-34866429Y51485831D01*
X-34866432Y51485827D01*
X-34869340Y51480386D01*
X-34916971Y51409101D01*
X-34931172Y51391796D01*
X-34991796Y51331172D01*
X-35009101Y51316971D01*
X-35080386Y51269340D01*
X-35085827Y51266432D01*
X-35085831Y51266429D01*
X-35094691Y51261693D01*
X-35094697Y51261691D01*
X-35100142Y51258780D01*
X-35179340Y51225976D01*
X-35200767Y51219476D01*
X-35284851Y51202750D01*
X-35307131Y51200556D01*
X-35325550Y51200556D01*
X-35337801Y51199954D01*
X-35356138Y51198148D01*
X-35843860Y51198148D01*
X-35859999Y51199737D01*
X-35869608Y51202652D01*
X-35878472Y51207390D01*
X-35886237Y51213763D01*
X-35896448Y51226206D01*
X-35903378Y51236575D01*
X-35920705Y51253902D01*
X-35941080Y51267515D01*
X-35963720Y51276891D01*
X-35987753Y51281671D01*
X-36012257Y51281670D01*
X-36036290Y51276888D01*
X-36058929Y51267510D01*
X-36079302Y51253895D01*
X-36096629Y51236568D01*
X-36103558Y51226198D01*
X-36113763Y51213763D01*
X-36121528Y51207390D01*
X-36130392Y51202652D01*
X-36140001Y51199737D01*
X-36156140Y51198148D01*
X-36643862Y51198148D01*
X-36662199Y51199954D01*
X-36674450Y51200556D01*
X-36692869Y51200556D01*
X-36715149Y51202750D01*
X-36799233Y51219476D01*
X-36820660Y51225976D01*
X-36899858Y51258780D01*
X-36905303Y51261691D01*
X-36905309Y51261693D01*
X-36914169Y51266429D01*
X-36914173Y51266432D01*
X-36919614Y51269340D01*
X-36990899Y51316971D01*
X-37008204Y51331172D01*
X-37068828Y51391796D01*
X-37083029Y51409101D01*
X-37130660Y51480386D01*
X-37133568Y51485827D01*
X-37133571Y51485831D01*
X-37138307Y51494691D01*
X-37138309Y51494697D01*
X-37141220Y51500142D01*
X-37174024Y51579340D01*
X-37180524Y51600767D01*
X-37197250Y51684851D01*
X-37199444Y51707131D01*
X-37199444Y51725550D01*
X-37200046Y51737801D01*
X-37201852Y51756138D01*
X-37201852Y52243861D01*
X-37200046Y52262199D01*
X-37199444Y52274450D01*
X-37199444Y52292869D01*
X-37197250Y52315149D01*
X-37180524Y52399233D01*
X-37174024Y52420660D01*
X-37141220Y52499858D01*
X-37138309Y52505303D01*
X-37138307Y52505309D01*
X-37133571Y52514169D01*
X-37133568Y52514173D01*
X-37130660Y52519614D01*
X-37083029Y52590899D01*
X-37068828Y52608204D01*
X-37008204Y52668828D01*
X-36990899Y52683029D01*
X-36919614Y52730660D01*
X-36914173Y52733568D01*
X-36914169Y52733571D01*
X-36905309Y52738307D01*
X-36905303Y52738309D01*
X-36899858Y52741220D01*
X-36820660Y52774024D01*
X-36799233Y52780524D01*
X-36715149Y52797250D01*
X-36692869Y52799444D01*
X-36674450Y52799444D01*
X-36662199Y52800046D01*
X-36643861Y52801852D01*
X-36156140Y52801852D01*
X-36140001Y52800263D01*
G37*
G36*
X-27790001Y52800263D02*
G01*
X-27780392Y52797348D01*
X-27771528Y52792610D01*
X-27763763Y52786237D01*
X-27753552Y52773794D01*
X-27746622Y52763425D01*
X-27729295Y52746098D01*
X-27708920Y52732485D01*
X-27686280Y52723109D01*
X-27662247Y52718329D01*
X-27637743Y52718330D01*
X-27613710Y52723112D01*
X-27591071Y52732490D01*
X-27570698Y52746105D01*
X-27553371Y52763432D01*
X-27546442Y52773802D01*
X-27536237Y52786237D01*
X-27528472Y52792610D01*
X-27519608Y52797348D01*
X-27509999Y52800263D01*
X-27493860Y52801852D01*
X-27006139Y52801852D01*
X-26987801Y52800046D01*
X-26975550Y52799444D01*
X-26957131Y52799444D01*
X-26934851Y52797250D01*
X-26850767Y52780524D01*
X-26829340Y52774024D01*
X-26750142Y52741220D01*
X-26744697Y52738309D01*
X-26744691Y52738307D01*
X-26735831Y52733571D01*
X-26735827Y52733568D01*
X-26730386Y52730660D01*
X-26659101Y52683029D01*
X-26641796Y52668828D01*
X-26581172Y52608204D01*
X-26566971Y52590899D01*
X-26519340Y52519614D01*
X-26516432Y52514173D01*
X-26516429Y52514169D01*
X-26511693Y52505309D01*
X-26511691Y52505303D01*
X-26508780Y52499858D01*
X-26475976Y52420660D01*
X-26469476Y52399233D01*
X-26452750Y52315149D01*
X-26450556Y52292869D01*
X-26450556Y52274450D01*
X-26449954Y52262199D01*
X-26448148Y52243861D01*
X-26448148Y51756138D01*
X-26449954Y51737801D01*
X-26450556Y51725550D01*
X-26450556Y51707131D01*
X-26452750Y51684851D01*
X-26469476Y51600767D01*
X-26475976Y51579340D01*
X-26508780Y51500142D01*
X-26511691Y51494697D01*
X-26511693Y51494691D01*
X-26516429Y51485831D01*
X-26516432Y51485827D01*
X-26519340Y51480386D01*
X-26566971Y51409101D01*
X-26581172Y51391796D01*
X-26641796Y51331172D01*
X-26659101Y51316971D01*
X-26730386Y51269340D01*
X-26735827Y51266432D01*
X-26735831Y51266429D01*
X-26744691Y51261693D01*
X-26744697Y51261691D01*
X-26750142Y51258780D01*
X-26829340Y51225976D01*
X-26850767Y51219476D01*
X-26934851Y51202750D01*
X-26957131Y51200556D01*
X-26975550Y51200556D01*
X-26987801Y51199954D01*
X-27006138Y51198148D01*
X-27493860Y51198148D01*
X-27509999Y51199737D01*
X-27519608Y51202652D01*
X-27528472Y51207390D01*
X-27536237Y51213763D01*
X-27546448Y51226206D01*
X-27553378Y51236575D01*
X-27570705Y51253902D01*
X-27591080Y51267515D01*
X-27613720Y51276891D01*
X-27637753Y51281671D01*
X-27662257Y51281670D01*
X-27686290Y51276888D01*
X-27708929Y51267510D01*
X-27729302Y51253895D01*
X-27746629Y51236568D01*
X-27753558Y51226198D01*
X-27763763Y51213763D01*
X-27771528Y51207390D01*
X-27780392Y51202652D01*
X-27790001Y51199737D01*
X-27806140Y51198148D01*
X-28293862Y51198148D01*
X-28312199Y51199954D01*
X-28324450Y51200556D01*
X-28342869Y51200556D01*
X-28365149Y51202750D01*
X-28449233Y51219476D01*
X-28470660Y51225976D01*
X-28549858Y51258780D01*
X-28555303Y51261691D01*
X-28555309Y51261693D01*
X-28564169Y51266429D01*
X-28564173Y51266432D01*
X-28569614Y51269340D01*
X-28640899Y51316971D01*
X-28658204Y51331172D01*
X-28718828Y51391796D01*
X-28733029Y51409101D01*
X-28780660Y51480386D01*
X-28783568Y51485827D01*
X-28783571Y51485831D01*
X-28788307Y51494691D01*
X-28788309Y51494697D01*
X-28791220Y51500142D01*
X-28824024Y51579340D01*
X-28830524Y51600767D01*
X-28847250Y51684851D01*
X-28849444Y51707131D01*
X-28849444Y51725550D01*
X-28850046Y51737801D01*
X-28851852Y51756138D01*
X-28851852Y52243861D01*
X-28850046Y52262199D01*
X-28849444Y52274450D01*
X-28849444Y52292869D01*
X-28847250Y52315149D01*
X-28830524Y52399233D01*
X-28824024Y52420660D01*
X-28791220Y52499858D01*
X-28788309Y52505303D01*
X-28788307Y52505309D01*
X-28783571Y52514169D01*
X-28783568Y52514173D01*
X-28780660Y52519614D01*
X-28733029Y52590899D01*
X-28718828Y52608204D01*
X-28658204Y52668828D01*
X-28640899Y52683029D01*
X-28569614Y52730660D01*
X-28564173Y52733568D01*
X-28564169Y52733571D01*
X-28555309Y52738307D01*
X-28555303Y52738309D01*
X-28549858Y52741220D01*
X-28470660Y52774024D01*
X-28449233Y52780524D01*
X-28365149Y52797250D01*
X-28342869Y52799444D01*
X-28324450Y52799444D01*
X-28312199Y52800046D01*
X-28293861Y52801852D01*
X-27806140Y52801852D01*
X-27790001Y52800263D01*
G37*
G36*
X-46422407Y58289109D02*
G01*
X-46312211Y58255681D01*
X-46210662Y58201402D01*
X-46121649Y58128351D01*
X-46048598Y58039338D01*
X-45994319Y57937789D01*
X-45960891Y57827593D01*
X-45949000Y57706860D01*
X-45949000Y56293140D01*
X-45960891Y56172407D01*
X-45994319Y56062211D01*
X-46048598Y55960662D01*
X-46121649Y55871649D01*
X-46210662Y55798598D01*
X-46312211Y55744319D01*
X-46422407Y55710891D01*
X-46543140Y55699000D01*
X-47956860Y55699000D01*
X-48077593Y55710891D01*
X-48187789Y55744319D01*
X-48289338Y55798598D01*
X-48378351Y55871649D01*
X-48451402Y55960662D01*
X-48505681Y56062211D01*
X-48539109Y56172407D01*
X-48551000Y56293140D01*
X-48551000Y57706860D01*
X-48539109Y57827593D01*
X-48505681Y57937789D01*
X-48451402Y58039338D01*
X-48378351Y58128351D01*
X-48289338Y58201402D01*
X-48187789Y58255681D01*
X-48077593Y58289109D01*
X-47956860Y58301000D01*
X-46543140Y58301000D01*
X-46422407Y58289109D01*
G37*
G36*
X-24922407Y58289109D02*
G01*
X-24812211Y58255681D01*
X-24710662Y58201402D01*
X-24621649Y58128351D01*
X-24548598Y58039338D01*
X-24494319Y57937789D01*
X-24460891Y57827593D01*
X-24449000Y57706860D01*
X-24449000Y56293140D01*
X-24460891Y56172407D01*
X-24494319Y56062211D01*
X-24548598Y55960662D01*
X-24621649Y55871649D01*
X-24710662Y55798598D01*
X-24812211Y55744319D01*
X-24922407Y55710891D01*
X-25043140Y55699000D01*
X-26456860Y55699000D01*
X-26577593Y55710891D01*
X-26687789Y55744319D01*
X-26789338Y55798598D01*
X-26878351Y55871649D01*
X-26951402Y55960662D01*
X-27005681Y56062211D01*
X-27039109Y56172407D01*
X-27051000Y56293140D01*
X-27051000Y57706860D01*
X-27039109Y57827593D01*
X-27005681Y57937789D01*
X-26951402Y58039338D01*
X-26878351Y58128351D01*
X-26789338Y58201402D01*
X-26687789Y58255681D01*
X-26577593Y58289109D01*
X-26456860Y58301000D01*
X-25043140Y58301000D01*
X-24922407Y58289109D01*
G37*
G36*
X-28422407Y58289109D02*
G01*
X-28312211Y58255681D01*
X-28210662Y58201402D01*
X-28121649Y58128351D01*
X-28048598Y58039338D01*
X-27994319Y57937789D01*
X-27960891Y57827593D01*
X-27949000Y57706860D01*
X-27949000Y56293140D01*
X-27960891Y56172407D01*
X-27994319Y56062211D01*
X-28048598Y55960662D01*
X-28121649Y55871649D01*
X-28210662Y55798598D01*
X-28312211Y55744319D01*
X-28422407Y55710891D01*
X-28543140Y55699000D01*
X-29956860Y55699000D01*
X-30077593Y55710891D01*
X-30187789Y55744319D01*
X-30289338Y55798598D01*
X-30378351Y55871649D01*
X-30451402Y55960662D01*
X-30505681Y56062211D01*
X-30539109Y56172407D01*
X-30551000Y56293140D01*
X-30551000Y57706860D01*
X-30539109Y57827593D01*
X-30505681Y57937789D01*
X-30451402Y58039338D01*
X-30378351Y58128351D01*
X-30289338Y58201402D01*
X-30187789Y58255681D01*
X-30077593Y58289109D01*
X-29956860Y58301000D01*
X-28543140Y58301000D01*
X-28422407Y58289109D01*
G37*
G36*
X-49922407Y58289109D02*
G01*
X-49812211Y58255681D01*
X-49710662Y58201402D01*
X-49621649Y58128351D01*
X-49548598Y58039338D01*
X-49494319Y57937789D01*
X-49460891Y57827593D01*
X-49449000Y57706860D01*
X-49449000Y56293140D01*
X-49460891Y56172407D01*
X-49494319Y56062211D01*
X-49548598Y55960662D01*
X-49621649Y55871649D01*
X-49710662Y55798598D01*
X-49812211Y55744319D01*
X-49922407Y55710891D01*
X-50043140Y55699000D01*
X-51456860Y55699000D01*
X-51577593Y55710891D01*
X-51687789Y55744319D01*
X-51789338Y55798598D01*
X-51878351Y55871649D01*
X-51951402Y55960662D01*
X-52005681Y56062211D01*
X-52039109Y56172407D01*
X-52051000Y56293140D01*
X-52051000Y57706860D01*
X-52039109Y57827593D01*
X-52005681Y57937789D01*
X-51951402Y58039338D01*
X-51878351Y58128351D01*
X-51789338Y58201402D01*
X-51687789Y58255681D01*
X-51577593Y58289109D01*
X-51456860Y58301000D01*
X-50043140Y58301000D01*
X-49922407Y58289109D01*
G37*
G36*
X-7922407Y58289109D02*
G01*
X-7812211Y58255681D01*
X-7710662Y58201402D01*
X-7621649Y58128351D01*
X-7548598Y58039338D01*
X-7494319Y57937789D01*
X-7460891Y57827593D01*
X-7449000Y57706860D01*
X-7449000Y56293140D01*
X-7460891Y56172407D01*
X-7494319Y56062211D01*
X-7548598Y55960662D01*
X-7621649Y55871649D01*
X-7710662Y55798598D01*
X-7812211Y55744319D01*
X-7922407Y55710891D01*
X-8043140Y55699000D01*
X-9456860Y55699000D01*
X-9577593Y55710891D01*
X-9687789Y55744319D01*
X-9789338Y55798598D01*
X-9878351Y55871649D01*
X-9951402Y55960662D01*
X-10005681Y56062211D01*
X-10039109Y56172407D01*
X-10051000Y56293140D01*
X-10051000Y57706860D01*
X-10039109Y57827593D01*
X-10005681Y57937789D01*
X-9951402Y58039338D01*
X-9878351Y58128351D01*
X-9789338Y58201402D01*
X-9687789Y58255681D01*
X-9577593Y58289109D01*
X-9456860Y58301000D01*
X-8043140Y58301000D01*
X-7922407Y58289109D01*
G37*
G36*
X-11422407Y58289109D02*
G01*
X-11312211Y58255681D01*
X-11210662Y58201402D01*
X-11121649Y58128351D01*
X-11048598Y58039338D01*
X-10994319Y57937789D01*
X-10960891Y57827593D01*
X-10949000Y57706860D01*
X-10949000Y56293140D01*
X-10960891Y56172407D01*
X-10994319Y56062211D01*
X-11048598Y55960662D01*
X-11121649Y55871649D01*
X-11210662Y55798598D01*
X-11312211Y55744319D01*
X-11422407Y55710891D01*
X-11543140Y55699000D01*
X-12956860Y55699000D01*
X-13077593Y55710891D01*
X-13187789Y55744319D01*
X-13289338Y55798598D01*
X-13378351Y55871649D01*
X-13451402Y55960662D01*
X-13505681Y56062211D01*
X-13539109Y56172407D01*
X-13551000Y56293140D01*
X-13551000Y57706860D01*
X-13539109Y57827593D01*
X-13505681Y57937789D01*
X-13451402Y58039338D01*
X-13378351Y58128351D01*
X-13289338Y58201402D01*
X-13187789Y58255681D01*
X-13077593Y58289109D01*
X-12956860Y58301000D01*
X-11543140Y58301000D01*
X-11422407Y58289109D01*
G37*
G36*
X-16422407Y58289109D02*
G01*
X-16312211Y58255681D01*
X-16210662Y58201402D01*
X-16121649Y58128351D01*
X-16048598Y58039338D01*
X-15994319Y57937789D01*
X-15960891Y57827593D01*
X-15949000Y57706860D01*
X-15949000Y56293140D01*
X-15960891Y56172407D01*
X-15994319Y56062211D01*
X-16048598Y55960662D01*
X-16121649Y55871649D01*
X-16210662Y55798598D01*
X-16312211Y55744319D01*
X-16422407Y55710891D01*
X-16543140Y55699000D01*
X-17956860Y55699000D01*
X-18077593Y55710891D01*
X-18187789Y55744319D01*
X-18289338Y55798598D01*
X-18378351Y55871649D01*
X-18451402Y55960662D01*
X-18505681Y56062211D01*
X-18539109Y56172407D01*
X-18551000Y56293140D01*
X-18551000Y57706860D01*
X-18539109Y57827593D01*
X-18505681Y57937789D01*
X-18451402Y58039338D01*
X-18378351Y58128351D01*
X-18289338Y58201402D01*
X-18187789Y58255681D01*
X-18077593Y58289109D01*
X-17956860Y58301000D01*
X-16543140Y58301000D01*
X-16422407Y58289109D01*
G37*
G36*
X-19922407Y58289109D02*
G01*
X-19812211Y58255681D01*
X-19710662Y58201402D01*
X-19621649Y58128351D01*
X-19548598Y58039338D01*
X-19494319Y57937789D01*
X-19460891Y57827593D01*
X-19449000Y57706860D01*
X-19449000Y56293140D01*
X-19460891Y56172407D01*
X-19494319Y56062211D01*
X-19548598Y55960662D01*
X-19621649Y55871649D01*
X-19710662Y55798598D01*
X-19812211Y55744319D01*
X-19922407Y55710891D01*
X-20043140Y55699000D01*
X-21456860Y55699000D01*
X-21577593Y55710891D01*
X-21687789Y55744319D01*
X-21789338Y55798598D01*
X-21878351Y55871649D01*
X-21951402Y55960662D01*
X-22005681Y56062211D01*
X-22039109Y56172407D01*
X-22051000Y56293140D01*
X-22051000Y57706860D01*
X-22039109Y57827593D01*
X-22005681Y57937789D01*
X-21951402Y58039338D01*
X-21878351Y58128351D01*
X-21789338Y58201402D01*
X-21687789Y58255681D01*
X-21577593Y58289109D01*
X-21456860Y58301000D01*
X-20043140Y58301000D01*
X-19922407Y58289109D01*
G37*
G36*
X-66922407Y58289109D02*
G01*
X-66812211Y58255681D01*
X-66710662Y58201402D01*
X-66621649Y58128351D01*
X-66548598Y58039338D01*
X-66494319Y57937789D01*
X-66460891Y57827593D01*
X-66449000Y57706860D01*
X-66449000Y56293140D01*
X-66460891Y56172407D01*
X-66494319Y56062211D01*
X-66548598Y55960662D01*
X-66621649Y55871649D01*
X-66710662Y55798598D01*
X-66812211Y55744319D01*
X-66922407Y55710891D01*
X-67043140Y55699000D01*
X-68456860Y55699000D01*
X-68577593Y55710891D01*
X-68687789Y55744319D01*
X-68789338Y55798598D01*
X-68878351Y55871649D01*
X-68951402Y55960662D01*
X-69005681Y56062211D01*
X-69039109Y56172407D01*
X-69051000Y56293140D01*
X-69051000Y57706860D01*
X-69039109Y57827593D01*
X-69005681Y57937789D01*
X-68951402Y58039338D01*
X-68878351Y58128351D01*
X-68789338Y58201402D01*
X-68687789Y58255681D01*
X-68577593Y58289109D01*
X-68456860Y58301000D01*
X-67043140Y58301000D01*
X-66922407Y58289109D01*
G37*
G36*
X-63422407Y58289109D02*
G01*
X-63312211Y58255681D01*
X-63210662Y58201402D01*
X-63121649Y58128351D01*
X-63048598Y58039338D01*
X-62994319Y57937789D01*
X-62960891Y57827593D01*
X-62949000Y57706860D01*
X-62949000Y56293140D01*
X-62960891Y56172407D01*
X-62994319Y56062211D01*
X-63048598Y55960662D01*
X-63121649Y55871649D01*
X-63210662Y55798598D01*
X-63312211Y55744319D01*
X-63422407Y55710891D01*
X-63543140Y55699000D01*
X-64956860Y55699000D01*
X-65077593Y55710891D01*
X-65187789Y55744319D01*
X-65289338Y55798598D01*
X-65378351Y55871649D01*
X-65451402Y55960662D01*
X-65505681Y56062211D01*
X-65539109Y56172407D01*
X-65551000Y56293140D01*
X-65551000Y57706860D01*
X-65539109Y57827593D01*
X-65505681Y57937789D01*
X-65451402Y58039338D01*
X-65378351Y58128351D01*
X-65289338Y58201402D01*
X-65187789Y58255681D01*
X-65077593Y58289109D01*
X-64956860Y58301000D01*
X-63543140Y58301000D01*
X-63422407Y58289109D01*
G37*
G36*
X-33422407Y58289109D02*
G01*
X-33312211Y58255681D01*
X-33210662Y58201402D01*
X-33121649Y58128351D01*
X-33048598Y58039338D01*
X-32994319Y57937789D01*
X-32960891Y57827593D01*
X-32949000Y57706860D01*
X-32949000Y56293140D01*
X-32960891Y56172407D01*
X-32994319Y56062211D01*
X-33048598Y55960662D01*
X-33121649Y55871649D01*
X-33210662Y55798598D01*
X-33312211Y55744319D01*
X-33422407Y55710891D01*
X-33543140Y55699000D01*
X-34956860Y55699000D01*
X-35077593Y55710891D01*
X-35187789Y55744319D01*
X-35289338Y55798598D01*
X-35378351Y55871649D01*
X-35451402Y55960662D01*
X-35505681Y56062211D01*
X-35539109Y56172407D01*
X-35551000Y56293140D01*
X-35551000Y57706860D01*
X-35539109Y57827593D01*
X-35505681Y57937789D01*
X-35451402Y58039338D01*
X-35378351Y58128351D01*
X-35289338Y58201402D01*
X-35187789Y58255681D01*
X-35077593Y58289109D01*
X-34956860Y58301000D01*
X-33543140Y58301000D01*
X-33422407Y58289109D01*
G37*
G36*
X-36922407Y58289109D02*
G01*
X-36812211Y58255681D01*
X-36710662Y58201402D01*
X-36621649Y58128351D01*
X-36548598Y58039338D01*
X-36494319Y57937789D01*
X-36460891Y57827593D01*
X-36449000Y57706860D01*
X-36449000Y56293140D01*
X-36460891Y56172407D01*
X-36494319Y56062211D01*
X-36548598Y55960662D01*
X-36621649Y55871649D01*
X-36710662Y55798598D01*
X-36812211Y55744319D01*
X-36922407Y55710891D01*
X-37043140Y55699000D01*
X-38456860Y55699000D01*
X-38577593Y55710891D01*
X-38687789Y55744319D01*
X-38789338Y55798598D01*
X-38878351Y55871649D01*
X-38951402Y55960662D01*
X-39005681Y56062211D01*
X-39039109Y56172407D01*
X-39051000Y56293140D01*
X-39051000Y57706860D01*
X-39039109Y57827593D01*
X-39005681Y57937789D01*
X-38951402Y58039338D01*
X-38878351Y58128351D01*
X-38789338Y58201402D01*
X-38687789Y58255681D01*
X-38577593Y58289109D01*
X-38456860Y58301000D01*
X-37043140Y58301000D01*
X-36922407Y58289109D01*
G37*
G36*
X-58422407Y58289109D02*
G01*
X-58312211Y58255681D01*
X-58210662Y58201402D01*
X-58121649Y58128351D01*
X-58048598Y58039338D01*
X-57994319Y57937789D01*
X-57960891Y57827593D01*
X-57949000Y57706860D01*
X-57949000Y56293140D01*
X-57960891Y56172407D01*
X-57994319Y56062211D01*
X-58048598Y55960662D01*
X-58121649Y55871649D01*
X-58210662Y55798598D01*
X-58312211Y55744319D01*
X-58422407Y55710891D01*
X-58543140Y55699000D01*
X-59956860Y55699000D01*
X-60077593Y55710891D01*
X-60187789Y55744319D01*
X-60289338Y55798598D01*
X-60378351Y55871649D01*
X-60451402Y55960662D01*
X-60505681Y56062211D01*
X-60539109Y56172407D01*
X-60551000Y56293140D01*
X-60551000Y57706860D01*
X-60539109Y57827593D01*
X-60505681Y57937789D01*
X-60451402Y58039338D01*
X-60378351Y58128351D01*
X-60289338Y58201402D01*
X-60187789Y58255681D01*
X-60077593Y58289109D01*
X-59956860Y58301000D01*
X-58543140Y58301000D01*
X-58422407Y58289109D01*
G37*
G36*
X-54922407Y58289109D02*
G01*
X-54812211Y58255681D01*
X-54710662Y58201402D01*
X-54621649Y58128351D01*
X-54548598Y58039338D01*
X-54494319Y57937789D01*
X-54460891Y57827593D01*
X-54449000Y57706860D01*
X-54449000Y56293140D01*
X-54460891Y56172407D01*
X-54494319Y56062211D01*
X-54548598Y55960662D01*
X-54621649Y55871649D01*
X-54710662Y55798598D01*
X-54812211Y55744319D01*
X-54922407Y55710891D01*
X-55043140Y55699000D01*
X-56456860Y55699000D01*
X-56577593Y55710891D01*
X-56687789Y55744319D01*
X-56789338Y55798598D01*
X-56878351Y55871649D01*
X-56951402Y55960662D01*
X-57005681Y56062211D01*
X-57039109Y56172407D01*
X-57051000Y56293140D01*
X-57051000Y57706860D01*
X-57039109Y57827593D01*
X-57005681Y57937789D01*
X-56951402Y58039338D01*
X-56878351Y58128351D01*
X-56789338Y58201402D01*
X-56687789Y58255681D01*
X-56577593Y58289109D01*
X-56456860Y58301000D01*
X-55043140Y58301000D01*
X-54922407Y58289109D01*
G37*
G36*
X-71922407Y58289109D02*
G01*
X-71812211Y58255681D01*
X-71710662Y58201402D01*
X-71621649Y58128351D01*
X-71548598Y58039338D01*
X-71494319Y57937789D01*
X-71460891Y57827593D01*
X-71449000Y57706860D01*
X-71449000Y56293140D01*
X-71460891Y56172407D01*
X-71494319Y56062211D01*
X-71548598Y55960662D01*
X-71621649Y55871649D01*
X-71710662Y55798598D01*
X-71812211Y55744319D01*
X-71922407Y55710891D01*
X-72043140Y55699000D01*
X-73456860Y55699000D01*
X-73577593Y55710891D01*
X-73687789Y55744319D01*
X-73789338Y55798598D01*
X-73878351Y55871649D01*
X-73951402Y55960662D01*
X-74005681Y56062211D01*
X-74039109Y56172407D01*
X-74051000Y56293140D01*
X-74051000Y57706860D01*
X-74039109Y57827593D01*
X-74005681Y57937789D01*
X-73951402Y58039338D01*
X-73878351Y58128351D01*
X-73789338Y58201402D01*
X-73687789Y58255681D01*
X-73577593Y58289109D01*
X-73456860Y58301000D01*
X-72043140Y58301000D01*
X-71922407Y58289109D01*
G37*
G36*
X-75422407Y58289109D02*
G01*
X-75312211Y58255681D01*
X-75210662Y58201402D01*
X-75121649Y58128351D01*
X-75048598Y58039338D01*
X-74994319Y57937789D01*
X-74960891Y57827593D01*
X-74949000Y57706860D01*
X-74949000Y56293140D01*
X-74960891Y56172407D01*
X-74994319Y56062211D01*
X-75048598Y55960662D01*
X-75121649Y55871649D01*
X-75210662Y55798598D01*
X-75312211Y55744319D01*
X-75422407Y55710891D01*
X-75543140Y55699000D01*
X-76956860Y55699000D01*
X-77077593Y55710891D01*
X-77187789Y55744319D01*
X-77289338Y55798598D01*
X-77378351Y55871649D01*
X-77451402Y55960662D01*
X-77505681Y56062211D01*
X-77539109Y56172407D01*
X-77551000Y56293140D01*
X-77551000Y57706860D01*
X-77539109Y57827593D01*
X-77505681Y57937789D01*
X-77451402Y58039338D01*
X-77378351Y58128351D01*
X-77289338Y58201402D01*
X-77187789Y58255681D01*
X-77077593Y58289109D01*
X-76956860Y58301000D01*
X-75543140Y58301000D01*
X-75422407Y58289109D01*
G37*
G36*
X438953Y63206767D02*
G01*
X656301Y63163534D01*
X1065775Y62993924D01*
X1434292Y62747689D01*
X1747689Y62434292D01*
X1993924Y62065775D01*
X1993925Y62065773D01*
X2163534Y61656300D01*
X2250000Y61221607D01*
X2250000Y60778393D01*
X2207175Y60563100D01*
X2163534Y60343699D01*
X1993924Y59934225D01*
X1747689Y59565708D01*
X1434292Y59252311D01*
X1065775Y59006076D01*
X656301Y58836466D01*
X221607Y58750000D01*
X-221607Y58750000D01*
X-656301Y58836466D01*
X-1065775Y59006076D01*
X-1434292Y59252311D01*
X-1747689Y59565708D01*
X-1993924Y59934225D01*
X-2163534Y60343699D01*
X-2207175Y60563100D01*
X-2250000Y60778393D01*
X-2250000Y61221607D01*
X-2163534Y61656300D01*
X-1993925Y62065773D01*
X-1993924Y62065775D01*
X-1747689Y62434292D01*
X-1434292Y62747689D01*
X-1065775Y62993924D01*
X-656301Y63163534D01*
X-438953Y63206767D01*
X-221607Y63250000D01*
X221607Y63250000D01*
X438953Y63206767D01*
G37*
G36*
X-84561047Y63206767D02*
G01*
X-84343699Y63163534D01*
X-83934225Y62993924D01*
X-83565708Y62747689D01*
X-83252311Y62434292D01*
X-83006076Y62065775D01*
X-83006075Y62065773D01*
X-82836466Y61656300D01*
X-82750000Y61221607D01*
X-82750000Y60778393D01*
X-82792825Y60563100D01*
X-82836466Y60343699D01*
X-83006076Y59934225D01*
X-83252311Y59565708D01*
X-83565708Y59252311D01*
X-83934225Y59006076D01*
X-84343699Y58836466D01*
X-84778393Y58750000D01*
X-85221607Y58750000D01*
X-85656301Y58836466D01*
X-86065775Y59006076D01*
X-86434292Y59252311D01*
X-86747689Y59565708D01*
X-86993924Y59934225D01*
X-87163534Y60343699D01*
X-87207175Y60563100D01*
X-87250000Y60778393D01*
X-87250000Y61221607D01*
X-87163534Y61656300D01*
X-86993925Y62065773D01*
X-86993924Y62065775D01*
X-86747689Y62434292D01*
X-86434292Y62747689D01*
X-86065775Y62993924D01*
X-85656301Y63163534D01*
X-85438953Y63206767D01*
X-85221607Y63250000D01*
X-84778393Y63250000D01*
X-84561047Y63206767D01*
G37*
G36*
X-19636772Y60978297D02*
G01*
X-19481900Y60914147D01*
X-19342519Y60821015D01*
X-19223985Y60702481D01*
X-19130853Y60563100D01*
X-19066703Y60408228D01*
X-19034000Y60243816D01*
X-19034000Y60076184D01*
X-19066703Y59911772D01*
X-19130853Y59756900D01*
X-19223985Y59617519D01*
X-19342519Y59498985D01*
X-19481900Y59405853D01*
X-19636772Y59341703D01*
X-19801184Y59309000D01*
X-19968816Y59309000D01*
X-20133228Y59341703D01*
X-20288100Y59405853D01*
X-20427481Y59498985D01*
X-20546015Y59617519D01*
X-20639147Y59756900D01*
X-20703297Y59911772D01*
X-20736000Y60076184D01*
X-20736000Y60243816D01*
X-20703297Y60408228D01*
X-20639147Y60563100D01*
X-20546015Y60702481D01*
X-20427481Y60821015D01*
X-20288100Y60914147D01*
X-20133228Y60978297D01*
X-19968816Y61011000D01*
X-19801184Y61011000D01*
X-19636772Y60978297D01*
G37*
G36*
X-22406772Y60978297D02*
G01*
X-22251900Y60914147D01*
X-22112519Y60821015D01*
X-21993985Y60702481D01*
X-21900853Y60563100D01*
X-21836703Y60408228D01*
X-21804000Y60243816D01*
X-21804000Y60076184D01*
X-21836703Y59911772D01*
X-21900853Y59756900D01*
X-21993985Y59617519D01*
X-22112519Y59498985D01*
X-22251900Y59405853D01*
X-22406772Y59341703D01*
X-22571184Y59309000D01*
X-22738816Y59309000D01*
X-22903228Y59341703D01*
X-23058100Y59405853D01*
X-23197481Y59498985D01*
X-23316015Y59617519D01*
X-23409147Y59756900D01*
X-23473297Y59911772D01*
X-23506000Y60076184D01*
X-23506000Y60243816D01*
X-23473297Y60408228D01*
X-23409147Y60563100D01*
X-23316015Y60702481D01*
X-23197481Y60821015D01*
X-23058100Y60914147D01*
X-22903228Y60978297D01*
X-22738816Y61011000D01*
X-22571184Y61011000D01*
X-22406772Y60978297D01*
G37*
G36*
X-25176772Y60978297D02*
G01*
X-25021900Y60914147D01*
X-24882519Y60821015D01*
X-24763985Y60702481D01*
X-24670853Y60563100D01*
X-24606703Y60408228D01*
X-24574000Y60243816D01*
X-24574000Y60076184D01*
X-24606703Y59911772D01*
X-24670853Y59756900D01*
X-24763985Y59617519D01*
X-24882519Y59498985D01*
X-25021900Y59405853D01*
X-25176772Y59341703D01*
X-25341184Y59309000D01*
X-25508816Y59309000D01*
X-25673228Y59341703D01*
X-25828100Y59405853D01*
X-25967481Y59498985D01*
X-26086015Y59617519D01*
X-26179147Y59756900D01*
X-26243297Y59911772D01*
X-26276000Y60076184D01*
X-26276000Y60243816D01*
X-26243297Y60408228D01*
X-26179147Y60563100D01*
X-26086015Y60702481D01*
X-25967481Y60821015D01*
X-25828100Y60914147D01*
X-25673228Y60978297D01*
X-25508816Y61011000D01*
X-25341184Y61011000D01*
X-25176772Y60978297D01*
G37*
G36*
X-27946772Y60978297D02*
G01*
X-27791900Y60914147D01*
X-27652519Y60821015D01*
X-27533985Y60702481D01*
X-27440853Y60563100D01*
X-27376703Y60408228D01*
X-27344000Y60243816D01*
X-27344000Y60076184D01*
X-27376703Y59911772D01*
X-27440853Y59756900D01*
X-27533985Y59617519D01*
X-27652519Y59498985D01*
X-27791900Y59405853D01*
X-27946772Y59341703D01*
X-28111184Y59309000D01*
X-28278816Y59309000D01*
X-28443228Y59341703D01*
X-28598100Y59405853D01*
X-28737481Y59498985D01*
X-28856015Y59617519D01*
X-28949147Y59756900D01*
X-29013297Y59911772D01*
X-29046000Y60076184D01*
X-29046000Y60243816D01*
X-29013297Y60408228D01*
X-28949147Y60563100D01*
X-28856015Y60702481D01*
X-28737481Y60821015D01*
X-28598100Y60914147D01*
X-28443228Y60978297D01*
X-28278816Y61011000D01*
X-28111184Y61011000D01*
X-27946772Y60978297D01*
G37*
G36*
X-59406772Y60978297D02*
G01*
X-59251900Y60914147D01*
X-59112519Y60821015D01*
X-58993985Y60702481D01*
X-58900853Y60563100D01*
X-58836703Y60408228D01*
X-58804000Y60243816D01*
X-58804000Y60076184D01*
X-58836703Y59911772D01*
X-58900853Y59756900D01*
X-58993985Y59617519D01*
X-59112519Y59498985D01*
X-59251900Y59405853D01*
X-59406772Y59341703D01*
X-59571184Y59309000D01*
X-59738816Y59309000D01*
X-59903228Y59341703D01*
X-60058100Y59405853D01*
X-60197481Y59498985D01*
X-60316015Y59617519D01*
X-60409147Y59756900D01*
X-60473297Y59911772D01*
X-60506000Y60076184D01*
X-60506000Y60243816D01*
X-60473297Y60408228D01*
X-60409147Y60563100D01*
X-60316015Y60702481D01*
X-60197481Y60821015D01*
X-60058100Y60914147D01*
X-59903228Y60978297D01*
X-59738816Y61011000D01*
X-59571184Y61011000D01*
X-59406772Y60978297D01*
G37*
G36*
X-64946772Y60978297D02*
G01*
X-64791900Y60914147D01*
X-64652519Y60821015D01*
X-64533985Y60702481D01*
X-64440853Y60563100D01*
X-64376703Y60408228D01*
X-64344000Y60243816D01*
X-64344000Y60076184D01*
X-64376703Y59911772D01*
X-64440853Y59756900D01*
X-64533985Y59617519D01*
X-64652519Y59498985D01*
X-64791900Y59405853D01*
X-64946772Y59341703D01*
X-65111184Y59309000D01*
X-65278816Y59309000D01*
X-65443228Y59341703D01*
X-65598100Y59405853D01*
X-65737481Y59498985D01*
X-65856015Y59617519D01*
X-65949147Y59756900D01*
X-66013297Y59911772D01*
X-66046000Y60076184D01*
X-66046000Y60243816D01*
X-66013297Y60408228D01*
X-65949147Y60563100D01*
X-65856015Y60702481D01*
X-65737481Y60821015D01*
X-65598100Y60914147D01*
X-65443228Y60978297D01*
X-65278816Y61011000D01*
X-65111184Y61011000D01*
X-64946772Y60978297D01*
G37*
G36*
X-62176772Y60978297D02*
G01*
X-62021900Y60914147D01*
X-61882519Y60821015D01*
X-61763985Y60702481D01*
X-61670853Y60563100D01*
X-61606703Y60408228D01*
X-61574000Y60243816D01*
X-61574000Y60076184D01*
X-61606703Y59911772D01*
X-61670853Y59756900D01*
X-61763985Y59617519D01*
X-61882519Y59498985D01*
X-62021900Y59405853D01*
X-62176772Y59341703D01*
X-62341184Y59309000D01*
X-62508816Y59309000D01*
X-62673228Y59341703D01*
X-62828100Y59405853D01*
X-62967481Y59498985D01*
X-63086015Y59617519D01*
X-63179147Y59756900D01*
X-63243297Y59911772D01*
X-63276000Y60076184D01*
X-63276000Y60243816D01*
X-63243297Y60408228D01*
X-63179147Y60563100D01*
X-63086015Y60702481D01*
X-62967481Y60821015D01*
X-62828100Y60914147D01*
X-62673228Y60978297D01*
X-62508816Y61011000D01*
X-62341184Y61011000D01*
X-62176772Y60978297D01*
G37*
G36*
X-56636772Y60978297D02*
G01*
X-56481900Y60914147D01*
X-56342519Y60821015D01*
X-56223985Y60702481D01*
X-56130853Y60563100D01*
X-56066703Y60408228D01*
X-56034000Y60243816D01*
X-56034000Y60076184D01*
X-56066703Y59911772D01*
X-56130853Y59756900D01*
X-56223985Y59617519D01*
X-56342519Y59498985D01*
X-56481900Y59405853D01*
X-56636772Y59341703D01*
X-56801184Y59309000D01*
X-56968816Y59309000D01*
X-57133228Y59341703D01*
X-57288100Y59405853D01*
X-57427481Y59498985D01*
X-57546015Y59617519D01*
X-57639147Y59756900D01*
X-57703297Y59911772D01*
X-57736000Y60076184D01*
X-57736000Y60243816D01*
X-57703297Y60408228D01*
X-57639147Y60563100D01*
X-57546015Y60702481D01*
X-57427481Y60821015D01*
X-57288100Y60914147D01*
X-57133228Y60978297D01*
X-56968816Y61011000D01*
X-56801184Y61011000D01*
X-56636772Y60978297D01*
G37*
G36*
X-10941746Y63552182D02*
G01*
X-10581830Y63403100D01*
X-10568487Y63397573D01*
X-10232564Y63173116D01*
X-9946884Y62887436D01*
X-9856235Y62751771D01*
X-9722426Y62551511D01*
X-9567818Y62178254D01*
X-9489000Y61782007D01*
X-9489000Y61377993D01*
X-9567818Y60981746D01*
X-9683494Y60702480D01*
X-9722427Y60608487D01*
X-9946884Y60272564D01*
X-10232564Y59986884D01*
X-10568487Y59762427D01*
X-10568488Y59762426D01*
X-10568489Y59762426D01*
X-10941746Y59607818D01*
X-11337993Y59529000D01*
X-11742007Y59529000D01*
X-12138254Y59607818D01*
X-12511511Y59762426D01*
X-12511512Y59762426D01*
X-12511513Y59762427D01*
X-12847436Y59986884D01*
X-13133116Y60272564D01*
X-13357573Y60608487D01*
X-13396506Y60702480D01*
X-13512182Y60981746D01*
X-13591000Y61377993D01*
X-13591000Y61782007D01*
X-13512182Y62178254D01*
X-13357574Y62551511D01*
X-13223764Y62751771D01*
X-13133116Y62887436D01*
X-12847436Y63173116D01*
X-12511513Y63397573D01*
X-12498170Y63403100D01*
X-12138254Y63552182D01*
X-11742007Y63631000D01*
X-11337993Y63631000D01*
X-10941746Y63552182D01*
G37*
G36*
X-35941746Y63552182D02*
G01*
X-35581830Y63403100D01*
X-35568487Y63397573D01*
X-35232564Y63173116D01*
X-34946884Y62887436D01*
X-34856235Y62751771D01*
X-34722426Y62551511D01*
X-34567818Y62178254D01*
X-34489000Y61782007D01*
X-34489000Y61377993D01*
X-34567818Y60981746D01*
X-34683494Y60702480D01*
X-34722427Y60608487D01*
X-34946884Y60272564D01*
X-35232564Y59986884D01*
X-35568487Y59762427D01*
X-35568488Y59762426D01*
X-35568489Y59762426D01*
X-35941746Y59607818D01*
X-36337993Y59529000D01*
X-36742007Y59529000D01*
X-37138254Y59607818D01*
X-37511511Y59762426D01*
X-37511512Y59762426D01*
X-37511513Y59762427D01*
X-37847436Y59986884D01*
X-38133116Y60272564D01*
X-38357573Y60608487D01*
X-38396506Y60702480D01*
X-38512182Y60981746D01*
X-38591000Y61377993D01*
X-38591000Y61782007D01*
X-38512182Y62178254D01*
X-38357574Y62551511D01*
X-38223764Y62751771D01*
X-38133116Y62887436D01*
X-37847436Y63173116D01*
X-37511513Y63397573D01*
X-37498170Y63403100D01*
X-37138254Y63552182D01*
X-36742007Y63631000D01*
X-36337993Y63631000D01*
X-35941746Y63552182D01*
G37*
G36*
X-72941746Y63552182D02*
G01*
X-72581830Y63403100D01*
X-72568487Y63397573D01*
X-72232564Y63173116D01*
X-71946884Y62887436D01*
X-71856235Y62751771D01*
X-71722426Y62551511D01*
X-71567818Y62178254D01*
X-71489000Y61782007D01*
X-71489000Y61377993D01*
X-71567818Y60981746D01*
X-71683494Y60702480D01*
X-71722427Y60608487D01*
X-71946884Y60272564D01*
X-72232564Y59986884D01*
X-72568487Y59762427D01*
X-72568488Y59762426D01*
X-72568489Y59762426D01*
X-72941746Y59607818D01*
X-73337993Y59529000D01*
X-73742007Y59529000D01*
X-74138254Y59607818D01*
X-74511511Y59762426D01*
X-74511512Y59762426D01*
X-74511513Y59762427D01*
X-74847436Y59986884D01*
X-75133116Y60272564D01*
X-75357573Y60608487D01*
X-75396506Y60702480D01*
X-75512182Y60981746D01*
X-75591000Y61377993D01*
X-75591000Y61782007D01*
X-75512182Y62178254D01*
X-75357574Y62551511D01*
X-75223764Y62751771D01*
X-75133116Y62887436D01*
X-74847436Y63173116D01*
X-74511513Y63397573D01*
X-74498170Y63403100D01*
X-74138254Y63552182D01*
X-73742007Y63631000D01*
X-73337993Y63631000D01*
X-72941746Y63552182D01*
G37*
G36*
X-47941746Y63552182D02*
G01*
X-47581830Y63403100D01*
X-47568487Y63397573D01*
X-47232564Y63173116D01*
X-46946884Y62887436D01*
X-46856235Y62751771D01*
X-46722426Y62551511D01*
X-46567818Y62178254D01*
X-46489000Y61782007D01*
X-46489000Y61377993D01*
X-46567818Y60981746D01*
X-46683494Y60702480D01*
X-46722427Y60608487D01*
X-46946884Y60272564D01*
X-47232564Y59986884D01*
X-47568487Y59762427D01*
X-47568488Y59762426D01*
X-47568489Y59762426D01*
X-47941746Y59607818D01*
X-48337993Y59529000D01*
X-48742007Y59529000D01*
X-49138254Y59607818D01*
X-49511511Y59762426D01*
X-49511512Y59762426D01*
X-49511513Y59762427D01*
X-49847436Y59986884D01*
X-50133116Y60272564D01*
X-50357573Y60608487D01*
X-50396506Y60702480D01*
X-50512182Y60981746D01*
X-50591000Y61377993D01*
X-50591000Y61782007D01*
X-50512182Y62178254D01*
X-50357574Y62551511D01*
X-50223764Y62751771D01*
X-50133116Y62887436D01*
X-49847436Y63173116D01*
X-49511513Y63397573D01*
X-49498170Y63403100D01*
X-49138254Y63552182D01*
X-48742007Y63631000D01*
X-48337993Y63631000D01*
X-47941746Y63552182D01*
G37*
G36*
X-63561772Y63818297D02*
G01*
X-63406900Y63754147D01*
X-63267519Y63661015D01*
X-63148985Y63542481D01*
X-63055853Y63403100D01*
X-62991703Y63248228D01*
X-62959000Y63083816D01*
X-62959000Y62916184D01*
X-62991703Y62751772D01*
X-63055853Y62596900D01*
X-63148985Y62457519D01*
X-63267519Y62338985D01*
X-63406900Y62245853D01*
X-63561772Y62181703D01*
X-63726184Y62149000D01*
X-63893816Y62149000D01*
X-64058228Y62181703D01*
X-64213100Y62245853D01*
X-64352481Y62338985D01*
X-64471015Y62457519D01*
X-64564147Y62596900D01*
X-64628297Y62751772D01*
X-64661000Y62916184D01*
X-64661000Y63083816D01*
X-64628297Y63248228D01*
X-64564147Y63403100D01*
X-64471015Y63542481D01*
X-64352481Y63661015D01*
X-64213100Y63754147D01*
X-64058228Y63818297D01*
X-63893816Y63851000D01*
X-63726184Y63851000D01*
X-63561772Y63818297D01*
G37*
G36*
X-54649000Y62149000D02*
G01*
X-56351000Y62149000D01*
X-56351000Y63851000D01*
X-54649000Y63851000D01*
X-54649000Y62149000D01*
G37*
G36*
X-17649000Y62149000D02*
G01*
X-19351000Y62149000D01*
X-19351000Y63851000D01*
X-17649000Y63851000D01*
X-17649000Y62149000D01*
G37*
G36*
X-21021772Y63818297D02*
G01*
X-20866900Y63754147D01*
X-20727519Y63661015D01*
X-20608985Y63542481D01*
X-20515853Y63403100D01*
X-20451703Y63248228D01*
X-20419000Y63083816D01*
X-20419000Y62916184D01*
X-20451703Y62751772D01*
X-20515853Y62596900D01*
X-20608985Y62457519D01*
X-20727519Y62338985D01*
X-20866900Y62245853D01*
X-21021772Y62181703D01*
X-21186184Y62149000D01*
X-21353816Y62149000D01*
X-21518228Y62181703D01*
X-21673100Y62245853D01*
X-21812481Y62338985D01*
X-21931015Y62457519D01*
X-22024147Y62596900D01*
X-22088297Y62751772D01*
X-22121000Y62916184D01*
X-22121000Y63083816D01*
X-22088297Y63248228D01*
X-22024147Y63403100D01*
X-21931015Y63542481D01*
X-21812481Y63661015D01*
X-21673100Y63754147D01*
X-21518228Y63818297D01*
X-21353816Y63851000D01*
X-21186184Y63851000D01*
X-21021772Y63818297D01*
G37*
G36*
X-23791772Y63818297D02*
G01*
X-23636900Y63754147D01*
X-23497519Y63661015D01*
X-23378985Y63542481D01*
X-23285853Y63403100D01*
X-23221703Y63248228D01*
X-23189000Y63083816D01*
X-23189000Y62916184D01*
X-23221703Y62751772D01*
X-23285853Y62596900D01*
X-23378985Y62457519D01*
X-23497519Y62338985D01*
X-23636900Y62245853D01*
X-23791772Y62181703D01*
X-23956184Y62149000D01*
X-24123816Y62149000D01*
X-24288228Y62181703D01*
X-24443100Y62245853D01*
X-24582481Y62338985D01*
X-24701015Y62457519D01*
X-24794147Y62596900D01*
X-24858297Y62751772D01*
X-24891000Y62916184D01*
X-24891000Y63083816D01*
X-24858297Y63248228D01*
X-24794147Y63403100D01*
X-24701015Y63542481D01*
X-24582481Y63661015D01*
X-24443100Y63754147D01*
X-24288228Y63818297D01*
X-24123816Y63851000D01*
X-23956184Y63851000D01*
X-23791772Y63818297D01*
G37*
G36*
X-66331772Y63818297D02*
G01*
X-66176900Y63754147D01*
X-66037519Y63661015D01*
X-65918985Y63542481D01*
X-65825853Y63403100D01*
X-65761703Y63248228D01*
X-65729000Y63083816D01*
X-65729000Y62916184D01*
X-65761703Y62751772D01*
X-65825853Y62596900D01*
X-65918985Y62457519D01*
X-66037519Y62338985D01*
X-66176900Y62245853D01*
X-66331772Y62181703D01*
X-66496184Y62149000D01*
X-66663816Y62149000D01*
X-66828228Y62181703D01*
X-66983100Y62245853D01*
X-67122481Y62338985D01*
X-67241015Y62457519D01*
X-67334147Y62596900D01*
X-67398297Y62751772D01*
X-67431000Y62916184D01*
X-67431000Y63083816D01*
X-67398297Y63248228D01*
X-67334147Y63403100D01*
X-67241015Y63542481D01*
X-67122481Y63661015D01*
X-66983100Y63754147D01*
X-66828228Y63818297D01*
X-66663816Y63851000D01*
X-66496184Y63851000D01*
X-66331772Y63818297D01*
G37*
G36*
X-60791772Y63818297D02*
G01*
X-60636900Y63754147D01*
X-60497519Y63661015D01*
X-60378985Y63542481D01*
X-60285853Y63403100D01*
X-60221703Y63248228D01*
X-60189000Y63083816D01*
X-60189000Y62916184D01*
X-60221703Y62751772D01*
X-60285853Y62596900D01*
X-60378985Y62457519D01*
X-60497519Y62338985D01*
X-60636900Y62245853D01*
X-60791772Y62181703D01*
X-60956184Y62149000D01*
X-61123816Y62149000D01*
X-61288228Y62181703D01*
X-61443100Y62245853D01*
X-61582481Y62338985D01*
X-61701015Y62457519D01*
X-61794147Y62596900D01*
X-61858297Y62751772D01*
X-61891000Y62916184D01*
X-61891000Y63083816D01*
X-61858297Y63248228D01*
X-61794147Y63403100D01*
X-61701015Y63542481D01*
X-61582481Y63661015D01*
X-61443100Y63754147D01*
X-61288228Y63818297D01*
X-61123816Y63851000D01*
X-60956184Y63851000D01*
X-60791772Y63818297D01*
G37*
G36*
X-58021772Y63818297D02*
G01*
X-57866900Y63754147D01*
X-57727519Y63661015D01*
X-57608985Y63542481D01*
X-57515853Y63403100D01*
X-57451703Y63248228D01*
X-57419000Y63083816D01*
X-57419000Y62916184D01*
X-57451703Y62751772D01*
X-57515853Y62596900D01*
X-57608985Y62457519D01*
X-57727519Y62338985D01*
X-57866900Y62245853D01*
X-58021772Y62181703D01*
X-58186184Y62149000D01*
X-58353816Y62149000D01*
X-58518228Y62181703D01*
X-58673100Y62245853D01*
X-58812481Y62338985D01*
X-58931015Y62457519D01*
X-59024147Y62596900D01*
X-59088297Y62751772D01*
X-59121000Y62916184D01*
X-59121000Y63083816D01*
X-59088297Y63248228D01*
X-59024147Y63403100D01*
X-58931015Y63542481D01*
X-58812481Y63661015D01*
X-58673100Y63754147D01*
X-58518228Y63818297D01*
X-58353816Y63851000D01*
X-58186184Y63851000D01*
X-58021772Y63818297D01*
G37*
G36*
X-29331772Y63818297D02*
G01*
X-29176900Y63754147D01*
X-29037519Y63661015D01*
X-28918985Y63542481D01*
X-28825853Y63403100D01*
X-28761703Y63248228D01*
X-28729000Y63083816D01*
X-28729000Y62916184D01*
X-28761703Y62751772D01*
X-28825853Y62596900D01*
X-28918985Y62457519D01*
X-29037519Y62338985D01*
X-29176900Y62245853D01*
X-29331772Y62181703D01*
X-29496184Y62149000D01*
X-29663816Y62149000D01*
X-29828228Y62181703D01*
X-29983100Y62245853D01*
X-30122481Y62338985D01*
X-30241015Y62457519D01*
X-30334147Y62596900D01*
X-30398297Y62751772D01*
X-30431000Y62916184D01*
X-30431000Y63083816D01*
X-30398297Y63248228D01*
X-30334147Y63403100D01*
X-30241015Y63542481D01*
X-30122481Y63661015D01*
X-29983100Y63754147D01*
X-29828228Y63818297D01*
X-29663816Y63851000D01*
X-29496184Y63851000D01*
X-29331772Y63818297D01*
G37*
G36*
X-26561772Y63818297D02*
G01*
X-26406900Y63754147D01*
X-26267519Y63661015D01*
X-26148985Y63542481D01*
X-26055853Y63403100D01*
X-25991703Y63248228D01*
X-25959000Y63083816D01*
X-25959000Y62916184D01*
X-25991703Y62751772D01*
X-26055853Y62596900D01*
X-26148985Y62457519D01*
X-26267519Y62338985D01*
X-26406900Y62245853D01*
X-26561772Y62181703D01*
X-26726184Y62149000D01*
X-26893816Y62149000D01*
X-27058228Y62181703D01*
X-27213100Y62245853D01*
X-27352481Y62338985D01*
X-27471015Y62457519D01*
X-27564147Y62596900D01*
X-27628297Y62751772D01*
X-27661000Y62916184D01*
X-27661000Y63083816D01*
X-27628297Y63248228D01*
X-27564147Y63403100D01*
X-27471015Y63542481D01*
X-27352481Y63661015D01*
X-27213100Y63754147D01*
X-27058228Y63818297D01*
X-26893816Y63851000D01*
X-26726184Y63851000D01*
X-26561772Y63818297D01*
G37*
G36*
X-77422407Y69039109D02*
G01*
X-77312211Y69005681D01*
X-77210662Y68951402D01*
X-77121649Y68878351D01*
X-77048598Y68789338D01*
X-76994319Y68687789D01*
X-76960891Y68577593D01*
X-76949000Y68456860D01*
X-76949000Y67043140D01*
X-76960891Y66922407D01*
X-76994319Y66812211D01*
X-77048598Y66710662D01*
X-77121649Y66621649D01*
X-77210662Y66548598D01*
X-77312211Y66494319D01*
X-77422407Y66460891D01*
X-77543140Y66449000D01*
X-78956860Y66449000D01*
X-79077593Y66460891D01*
X-79187789Y66494319D01*
X-79289338Y66548598D01*
X-79378351Y66621649D01*
X-79451402Y66710662D01*
X-79505681Y66812211D01*
X-79539109Y66922407D01*
X-79551000Y67043140D01*
X-79551000Y68456860D01*
X-79539109Y68577593D01*
X-79505681Y68687789D01*
X-79451402Y68789338D01*
X-79378351Y68878351D01*
X-79289338Y68951402D01*
X-79187789Y69005681D01*
X-79077593Y69039109D01*
X-78956860Y69051000D01*
X-77543140Y69051000D01*
X-77422407Y69039109D01*
G37*
G36*
X-56587801Y69700046D02*
G01*
X-56575550Y69699444D01*
X-56557131Y69699444D01*
X-56534851Y69697250D01*
X-56450767Y69680524D01*
X-56429340Y69674024D01*
X-56350142Y69641220D01*
X-56344697Y69638309D01*
X-56344691Y69638307D01*
X-56335831Y69633571D01*
X-56335827Y69633568D01*
X-56330386Y69630660D01*
X-56259101Y69583029D01*
X-56241796Y69568828D01*
X-56181172Y69508204D01*
X-56166971Y69490899D01*
X-56119340Y69419614D01*
X-56116432Y69414173D01*
X-56116429Y69414169D01*
X-56111693Y69405309D01*
X-56111691Y69405303D01*
X-56108780Y69399858D01*
X-56075976Y69320660D01*
X-56069476Y69299233D01*
X-56052750Y69215149D01*
X-56050556Y69192869D01*
X-56050556Y69174450D01*
X-56049954Y69162199D01*
X-56048148Y69143861D01*
X-56048148Y68656140D01*
X-56049737Y68640001D01*
X-56052652Y68630392D01*
X-56057390Y68621528D01*
X-56063763Y68613763D01*
X-56076206Y68603552D01*
X-56086575Y68596622D01*
X-56103902Y68579295D01*
X-56117515Y68558920D01*
X-56126891Y68536280D01*
X-56131671Y68512247D01*
X-56131670Y68487743D01*
X-56126888Y68463710D01*
X-56117510Y68441071D01*
X-56103895Y68420698D01*
X-56086568Y68403371D01*
X-56076198Y68396442D01*
X-56063763Y68386237D01*
X-56057390Y68378472D01*
X-56052652Y68369608D01*
X-56049737Y68359999D01*
X-56048148Y68343860D01*
X-56048148Y67856138D01*
X-56049954Y67837801D01*
X-56050556Y67825550D01*
X-56050556Y67807131D01*
X-56052750Y67784851D01*
X-56069476Y67700767D01*
X-56075976Y67679340D01*
X-56108780Y67600142D01*
X-56111691Y67594697D01*
X-56111693Y67594691D01*
X-56116429Y67585831D01*
X-56116432Y67585827D01*
X-56119340Y67580386D01*
X-56166971Y67509101D01*
X-56181172Y67491796D01*
X-56241796Y67431172D01*
X-56259101Y67416971D01*
X-56330386Y67369340D01*
X-56335827Y67366432D01*
X-56335831Y67366429D01*
X-56344691Y67361693D01*
X-56344697Y67361691D01*
X-56350142Y67358780D01*
X-56429340Y67325976D01*
X-56450767Y67319476D01*
X-56534851Y67302750D01*
X-56557131Y67300556D01*
X-56575550Y67300556D01*
X-56587801Y67299954D01*
X-56606138Y67298148D01*
X-57093862Y67298148D01*
X-57112199Y67299954D01*
X-57124450Y67300556D01*
X-57142869Y67300556D01*
X-57165149Y67302750D01*
X-57249233Y67319476D01*
X-57270660Y67325976D01*
X-57349858Y67358780D01*
X-57355303Y67361691D01*
X-57355309Y67361693D01*
X-57364169Y67366429D01*
X-57364173Y67366432D01*
X-57369614Y67369340D01*
X-57440899Y67416971D01*
X-57458204Y67431172D01*
X-57518828Y67491796D01*
X-57533029Y67509101D01*
X-57580660Y67580386D01*
X-57583568Y67585827D01*
X-57583571Y67585831D01*
X-57588307Y67594691D01*
X-57588309Y67594697D01*
X-57591220Y67600142D01*
X-57624024Y67679340D01*
X-57630524Y67700767D01*
X-57647250Y67784851D01*
X-57649444Y67807131D01*
X-57649444Y67825550D01*
X-57650046Y67837801D01*
X-57651852Y67856138D01*
X-57651852Y68343860D01*
X-57650263Y68359999D01*
X-57647348Y68369608D01*
X-57642610Y68378472D01*
X-57636237Y68386237D01*
X-57623794Y68396448D01*
X-57613425Y68403378D01*
X-57596098Y68420705D01*
X-57582485Y68441080D01*
X-57573109Y68463720D01*
X-57568329Y68487753D01*
X-57568330Y68512257D01*
X-57573112Y68536290D01*
X-57582490Y68558929D01*
X-57596105Y68579302D01*
X-57613432Y68596629D01*
X-57623802Y68603558D01*
X-57636237Y68613763D01*
X-57642610Y68621528D01*
X-57647348Y68630392D01*
X-57650263Y68640001D01*
X-57651852Y68656140D01*
X-57651852Y69143861D01*
X-57650046Y69162199D01*
X-57649444Y69174450D01*
X-57649444Y69192869D01*
X-57647250Y69215149D01*
X-57630524Y69299233D01*
X-57624024Y69320660D01*
X-57591220Y69399858D01*
X-57588309Y69405303D01*
X-57588307Y69405309D01*
X-57583571Y69414169D01*
X-57583568Y69414173D01*
X-57580660Y69419614D01*
X-57533029Y69490899D01*
X-57518828Y69508204D01*
X-57458204Y69568828D01*
X-57440899Y69583029D01*
X-57369614Y69630660D01*
X-57364173Y69633568D01*
X-57364169Y69633571D01*
X-57355309Y69638307D01*
X-57355303Y69638309D01*
X-57349858Y69641220D01*
X-57270660Y69674024D01*
X-57249233Y69680524D01*
X-57165149Y69697250D01*
X-57142869Y69699444D01*
X-57124450Y69699444D01*
X-57112199Y69700046D01*
X-57093861Y69701852D01*
X-56606139Y69701852D01*
X-56587801Y69700046D01*
G37*
G36*
X-60587801Y69800046D02*
G01*
X-60575550Y69799444D01*
X-60557131Y69799444D01*
X-60534851Y69797250D01*
X-60450767Y69780524D01*
X-60429340Y69774024D01*
X-60350142Y69741220D01*
X-60344697Y69738309D01*
X-60344691Y69738307D01*
X-60335831Y69733571D01*
X-60335827Y69733568D01*
X-60330386Y69730660D01*
X-60259101Y69683029D01*
X-60241796Y69668828D01*
X-60181172Y69608204D01*
X-60166971Y69590899D01*
X-60119340Y69519614D01*
X-60116432Y69514173D01*
X-60116429Y69514169D01*
X-60111693Y69505309D01*
X-60111691Y69505303D01*
X-60108780Y69499858D01*
X-60075976Y69420660D01*
X-60069476Y69399233D01*
X-60052750Y69315149D01*
X-60050556Y69292869D01*
X-60050556Y69274450D01*
X-60049954Y69262199D01*
X-60048148Y69243861D01*
X-60048148Y68756140D01*
X-60049737Y68740001D01*
X-60052652Y68730392D01*
X-60057390Y68721528D01*
X-60063763Y68713763D01*
X-60076206Y68703552D01*
X-60086575Y68696622D01*
X-60103902Y68679295D01*
X-60117515Y68658920D01*
X-60126891Y68636280D01*
X-60131671Y68612247D01*
X-60131670Y68587743D01*
X-60126888Y68563710D01*
X-60117510Y68541071D01*
X-60103895Y68520698D01*
X-60086568Y68503371D01*
X-60076198Y68496442D01*
X-60063763Y68486237D01*
X-60057390Y68478472D01*
X-60052652Y68469608D01*
X-60049737Y68459999D01*
X-60048148Y68443860D01*
X-60048148Y67956139D01*
X-60049954Y67937801D01*
X-60050556Y67925550D01*
X-60050556Y67907131D01*
X-60052750Y67884851D01*
X-60069476Y67800767D01*
X-60075976Y67779340D01*
X-60108780Y67700142D01*
X-60111691Y67694697D01*
X-60111693Y67694691D01*
X-60116429Y67685831D01*
X-60116432Y67685827D01*
X-60119340Y67680386D01*
X-60166971Y67609101D01*
X-60181172Y67591796D01*
X-60241796Y67531172D01*
X-60259101Y67516971D01*
X-60330386Y67469340D01*
X-60335827Y67466432D01*
X-60335831Y67466429D01*
X-60344691Y67461693D01*
X-60344697Y67461691D01*
X-60350142Y67458780D01*
X-60429340Y67425976D01*
X-60450767Y67419476D01*
X-60534851Y67402750D01*
X-60557131Y67400556D01*
X-60575550Y67400556D01*
X-60587801Y67399954D01*
X-60606138Y67398148D01*
X-61093862Y67398148D01*
X-61112199Y67399954D01*
X-61124450Y67400556D01*
X-61142869Y67400556D01*
X-61165149Y67402750D01*
X-61249233Y67419476D01*
X-61270660Y67425976D01*
X-61349858Y67458780D01*
X-61355303Y67461691D01*
X-61355309Y67461693D01*
X-61364169Y67466429D01*
X-61364173Y67466432D01*
X-61369614Y67469340D01*
X-61440899Y67516971D01*
X-61458204Y67531172D01*
X-61518828Y67591796D01*
X-61533029Y67609101D01*
X-61580660Y67680386D01*
X-61583568Y67685827D01*
X-61583571Y67685831D01*
X-61588307Y67694691D01*
X-61588309Y67694697D01*
X-61591220Y67700142D01*
X-61624024Y67779340D01*
X-61630524Y67800767D01*
X-61647250Y67884851D01*
X-61649444Y67907131D01*
X-61649444Y67925550D01*
X-61650046Y67937801D01*
X-61651852Y67956138D01*
X-61651852Y68443860D01*
X-61650263Y68459999D01*
X-61647348Y68469608D01*
X-61642610Y68478472D01*
X-61636237Y68486237D01*
X-61623794Y68496448D01*
X-61613425Y68503378D01*
X-61596098Y68520705D01*
X-61582485Y68541080D01*
X-61573109Y68563720D01*
X-61568329Y68587753D01*
X-61568330Y68612257D01*
X-61573112Y68636290D01*
X-61582490Y68658929D01*
X-61596105Y68679302D01*
X-61613432Y68696629D01*
X-61623802Y68703558D01*
X-61636237Y68713763D01*
X-61642610Y68721528D01*
X-61647348Y68730392D01*
X-61650263Y68740001D01*
X-61651852Y68756140D01*
X-61651852Y69243861D01*
X-61650046Y69262199D01*
X-61649444Y69274450D01*
X-61649444Y69292869D01*
X-61647250Y69315149D01*
X-61630524Y69399233D01*
X-61624024Y69420660D01*
X-61591220Y69499858D01*
X-61588309Y69505303D01*
X-61588307Y69505309D01*
X-61583571Y69514169D01*
X-61583568Y69514173D01*
X-61580660Y69519614D01*
X-61533029Y69590899D01*
X-61518828Y69608204D01*
X-61458204Y69668828D01*
X-61440899Y69683029D01*
X-61369614Y69730660D01*
X-61364173Y69733568D01*
X-61364169Y69733571D01*
X-61355309Y69738307D01*
X-61355303Y69738309D01*
X-61349858Y69741220D01*
X-61270660Y69774024D01*
X-61249233Y69780524D01*
X-61165149Y69797250D01*
X-61142869Y69799444D01*
X-61124450Y69799444D01*
X-61112199Y69800046D01*
X-61093861Y69801852D01*
X-60606139Y69801852D01*
X-60587801Y69800046D01*
G37*
G36*
X-77422407Y72539109D02*
G01*
X-77312211Y72505681D01*
X-77210662Y72451402D01*
X-77121649Y72378351D01*
X-77048598Y72289338D01*
X-76994319Y72187789D01*
X-76960891Y72077593D01*
X-76949000Y71956860D01*
X-76949000Y70543140D01*
X-76960891Y70422407D01*
X-76994319Y70312211D01*
X-77048598Y70210662D01*
X-77121649Y70121649D01*
X-77210662Y70048598D01*
X-77312211Y69994319D01*
X-77422407Y69960891D01*
X-77543140Y69949000D01*
X-78956860Y69949000D01*
X-79077593Y69960891D01*
X-79187789Y69994319D01*
X-79289338Y70048598D01*
X-79378351Y70121649D01*
X-79451402Y70210662D01*
X-79505681Y70312211D01*
X-79539109Y70422407D01*
X-79551000Y70543140D01*
X-79551000Y71956860D01*
X-79539109Y72077593D01*
X-79505681Y72187789D01*
X-79451402Y72289338D01*
X-79378351Y72378351D01*
X-79289338Y72451402D01*
X-79187789Y72505681D01*
X-79077593Y72539109D01*
X-78956860Y72551000D01*
X-77543140Y72551000D01*
X-77422407Y72539109D01*
G37*
G36*
X438953Y88206767D02*
G01*
X656301Y88163534D01*
X1065775Y87993924D01*
X1434292Y87747689D01*
X1747689Y87434292D01*
X1993924Y87065775D01*
X2163534Y86656301D01*
X2250000Y86221606D01*
X2250000Y85778394D01*
X2163534Y85343699D01*
X1993924Y84934225D01*
X1747689Y84565708D01*
X1434292Y84252311D01*
X1065775Y84006076D01*
X656301Y83836466D01*
X221607Y83750000D01*
X-221607Y83750000D01*
X-656301Y83836466D01*
X-1065775Y84006076D01*
X-1434292Y84252311D01*
X-1747689Y84565708D01*
X-1993924Y84934225D01*
X-2163534Y85343699D01*
X-2250000Y85778394D01*
X-2250000Y86221606D01*
X-2163534Y86656301D01*
X-1993924Y87065775D01*
X-1747689Y87434292D01*
X-1434292Y87747689D01*
X-1065775Y87993924D01*
X-656301Y88163534D01*
X-438953Y88206767D01*
X-221607Y88250000D01*
X221607Y88250000D01*
X438953Y88206767D01*
G37*
G36*
X-84561047Y88206767D02*
G01*
X-84343699Y88163534D01*
X-83934225Y87993924D01*
X-83565708Y87747689D01*
X-83252311Y87434292D01*
X-83006076Y87065775D01*
X-82836466Y86656301D01*
X-82750000Y86221606D01*
X-82750000Y85778394D01*
X-82836466Y85343699D01*
X-83006076Y84934225D01*
X-83252311Y84565708D01*
X-83565708Y84252311D01*
X-83934225Y84006076D01*
X-84343699Y83836466D01*
X-84778393Y83750000D01*
X-85221607Y83750000D01*
X-85656301Y83836466D01*
X-86065775Y84006076D01*
X-86434292Y84252311D01*
X-86747689Y84565708D01*
X-86993924Y84934225D01*
X-87163534Y85343699D01*
X-87250000Y85778394D01*
X-87250000Y86221606D01*
X-87163534Y86656301D01*
X-86993924Y87065775D01*
X-86747689Y87434292D01*
X-86434292Y87747689D01*
X-86065775Y87993924D01*
X-85656301Y88163534D01*
X-85438953Y88206767D01*
X-85221607Y88250000D01*
X-84778393Y88250000D01*
X-84561047Y88206767D01*
G37*
M02*
