G04 #@! TF.GenerationSoftware,KiCad,Pcbnew,(5.1.5)-3*
G04 #@! TF.CreationDate,2020-05-09T11:27:17+02:00*
G04 #@! TF.ProjectId,ICHaus,49434861-7573-42e6-9b69-6361645f7063,rev?*
G04 #@! TF.SameCoordinates,PX6422c40PYa6e49c0*
G04 #@! TF.FileFunction,Paste,Top*
G04 #@! TF.FilePolarity,Positive*
%FSLAX46Y46*%
G04 Gerber Fmt 4.6, Leading zero omitted, Abs format (unit mm)*
G04 Created by KiCad (PCBNEW (5.1.5)-3) date 2020-05-09 11:27:17*
%MOMM*%
%LPD*%
G04 APERTURE LIST*
%ADD10C,0.100000*%
%ADD11R,0.650000X1.060000*%
%ADD12R,0.450000X1.450000*%
%ADD13R,2.000000X1.300000*%
%ADD14R,2.000000X2.000000*%
G04 APERTURE END LIST*
D10*
G36*
X-55850496Y67998796D02*
G01*
X-55826227Y67995196D01*
X-55802429Y67989235D01*
X-55779329Y67980970D01*
X-55757151Y67970480D01*
X-55736107Y67957867D01*
X-55716402Y67943253D01*
X-55698223Y67926777D01*
X-55681747Y67908598D01*
X-55667133Y67888893D01*
X-55654520Y67867849D01*
X-55644030Y67845671D01*
X-55635765Y67822571D01*
X-55629804Y67798773D01*
X-55626204Y67774504D01*
X-55625000Y67750000D01*
X-55625000Y67250000D01*
X-55626204Y67225496D01*
X-55629804Y67201227D01*
X-55635765Y67177429D01*
X-55644030Y67154329D01*
X-55654520Y67132151D01*
X-55667133Y67111107D01*
X-55681747Y67091402D01*
X-55698223Y67073223D01*
X-55716402Y67056747D01*
X-55736107Y67042133D01*
X-55757151Y67029520D01*
X-55779329Y67019030D01*
X-55802429Y67010765D01*
X-55826227Y67004804D01*
X-55850496Y67001204D01*
X-55875000Y67000000D01*
X-56625000Y67000000D01*
X-56649504Y67001204D01*
X-56673773Y67004804D01*
X-56697571Y67010765D01*
X-56720671Y67019030D01*
X-56742849Y67029520D01*
X-56763893Y67042133D01*
X-56783598Y67056747D01*
X-56801777Y67073223D01*
X-56818253Y67091402D01*
X-56832867Y67111107D01*
X-56845480Y67132151D01*
X-56855970Y67154329D01*
X-56864235Y67177429D01*
X-56870196Y67201227D01*
X-56873796Y67225496D01*
X-56875000Y67250000D01*
X-56875000Y67750000D01*
X-56873796Y67774504D01*
X-56870196Y67798773D01*
X-56864235Y67822571D01*
X-56855970Y67845671D01*
X-56845480Y67867849D01*
X-56832867Y67888893D01*
X-56818253Y67908598D01*
X-56801777Y67926777D01*
X-56783598Y67943253D01*
X-56763893Y67957867D01*
X-56742849Y67970480D01*
X-56720671Y67980970D01*
X-56697571Y67989235D01*
X-56673773Y67995196D01*
X-56649504Y67998796D01*
X-56625000Y68000000D01*
X-55875000Y68000000D01*
X-55850496Y67998796D01*
G37*
G36*
X-55850496Y69998796D02*
G01*
X-55826227Y69995196D01*
X-55802429Y69989235D01*
X-55779329Y69980970D01*
X-55757151Y69970480D01*
X-55736107Y69957867D01*
X-55716402Y69943253D01*
X-55698223Y69926777D01*
X-55681747Y69908598D01*
X-55667133Y69888893D01*
X-55654520Y69867849D01*
X-55644030Y69845671D01*
X-55635765Y69822571D01*
X-55629804Y69798773D01*
X-55626204Y69774504D01*
X-55625000Y69750000D01*
X-55625000Y69250000D01*
X-55626204Y69225496D01*
X-55629804Y69201227D01*
X-55635765Y69177429D01*
X-55644030Y69154329D01*
X-55654520Y69132151D01*
X-55667133Y69111107D01*
X-55681747Y69091402D01*
X-55698223Y69073223D01*
X-55716402Y69056747D01*
X-55736107Y69042133D01*
X-55757151Y69029520D01*
X-55779329Y69019030D01*
X-55802429Y69010765D01*
X-55826227Y69004804D01*
X-55850496Y69001204D01*
X-55875000Y69000000D01*
X-56625000Y69000000D01*
X-56649504Y69001204D01*
X-56673773Y69004804D01*
X-56697571Y69010765D01*
X-56720671Y69019030D01*
X-56742849Y69029520D01*
X-56763893Y69042133D01*
X-56783598Y69056747D01*
X-56801777Y69073223D01*
X-56818253Y69091402D01*
X-56832867Y69111107D01*
X-56845480Y69132151D01*
X-56855970Y69154329D01*
X-56864235Y69177429D01*
X-56870196Y69201227D01*
X-56873796Y69225496D01*
X-56875000Y69250000D01*
X-56875000Y69750000D01*
X-56873796Y69774504D01*
X-56870196Y69798773D01*
X-56864235Y69822571D01*
X-56855970Y69845671D01*
X-56845480Y69867849D01*
X-56832867Y69888893D01*
X-56818253Y69908598D01*
X-56801777Y69926777D01*
X-56783598Y69943253D01*
X-56763893Y69957867D01*
X-56742849Y69970480D01*
X-56720671Y69980970D01*
X-56697571Y69989235D01*
X-56673773Y69995196D01*
X-56649504Y69998796D01*
X-56625000Y70000000D01*
X-55875000Y70000000D01*
X-55850496Y69998796D01*
G37*
D11*
X-28450000Y65900000D03*
X-27500000Y65900000D03*
X-26550000Y65900000D03*
X-26550000Y68100000D03*
X-28450000Y68100000D03*
X-27500000Y68100000D03*
D10*
G36*
X-28780297Y78449278D02*
G01*
X-28765736Y78447118D01*
X-28751457Y78443541D01*
X-28737597Y78438582D01*
X-28724290Y78432288D01*
X-28711664Y78424720D01*
X-28699841Y78415952D01*
X-28688934Y78406066D01*
X-28679048Y78395159D01*
X-28670280Y78383336D01*
X-28662712Y78370710D01*
X-28656418Y78357403D01*
X-28651459Y78343543D01*
X-28647882Y78329264D01*
X-28645722Y78314703D01*
X-28645000Y78300000D01*
X-28645000Y76650000D01*
X-28645722Y76635297D01*
X-28647882Y76620736D01*
X-28651459Y76606457D01*
X-28656418Y76592597D01*
X-28662712Y76579290D01*
X-28670280Y76566664D01*
X-28679048Y76554841D01*
X-28688934Y76543934D01*
X-28699841Y76534048D01*
X-28711664Y76525280D01*
X-28724290Y76517712D01*
X-28737597Y76511418D01*
X-28751457Y76506459D01*
X-28765736Y76502882D01*
X-28780297Y76500722D01*
X-28795000Y76500000D01*
X-29095000Y76500000D01*
X-29109703Y76500722D01*
X-29124264Y76502882D01*
X-29138543Y76506459D01*
X-29152403Y76511418D01*
X-29165710Y76517712D01*
X-29178336Y76525280D01*
X-29190159Y76534048D01*
X-29201066Y76543934D01*
X-29210952Y76554841D01*
X-29219720Y76566664D01*
X-29227288Y76579290D01*
X-29233582Y76592597D01*
X-29238541Y76606457D01*
X-29242118Y76620736D01*
X-29244278Y76635297D01*
X-29245000Y76650000D01*
X-29245000Y78300000D01*
X-29244278Y78314703D01*
X-29242118Y78329264D01*
X-29238541Y78343543D01*
X-29233582Y78357403D01*
X-29227288Y78370710D01*
X-29219720Y78383336D01*
X-29210952Y78395159D01*
X-29201066Y78406066D01*
X-29190159Y78415952D01*
X-29178336Y78424720D01*
X-29165710Y78432288D01*
X-29152403Y78438582D01*
X-29138543Y78443541D01*
X-29124264Y78447118D01*
X-29109703Y78449278D01*
X-29095000Y78450000D01*
X-28795000Y78450000D01*
X-28780297Y78449278D01*
G37*
G36*
X-27510297Y78449278D02*
G01*
X-27495736Y78447118D01*
X-27481457Y78443541D01*
X-27467597Y78438582D01*
X-27454290Y78432288D01*
X-27441664Y78424720D01*
X-27429841Y78415952D01*
X-27418934Y78406066D01*
X-27409048Y78395159D01*
X-27400280Y78383336D01*
X-27392712Y78370710D01*
X-27386418Y78357403D01*
X-27381459Y78343543D01*
X-27377882Y78329264D01*
X-27375722Y78314703D01*
X-27375000Y78300000D01*
X-27375000Y76650000D01*
X-27375722Y76635297D01*
X-27377882Y76620736D01*
X-27381459Y76606457D01*
X-27386418Y76592597D01*
X-27392712Y76579290D01*
X-27400280Y76566664D01*
X-27409048Y76554841D01*
X-27418934Y76543934D01*
X-27429841Y76534048D01*
X-27441664Y76525280D01*
X-27454290Y76517712D01*
X-27467597Y76511418D01*
X-27481457Y76506459D01*
X-27495736Y76502882D01*
X-27510297Y76500722D01*
X-27525000Y76500000D01*
X-27825000Y76500000D01*
X-27839703Y76500722D01*
X-27854264Y76502882D01*
X-27868543Y76506459D01*
X-27882403Y76511418D01*
X-27895710Y76517712D01*
X-27908336Y76525280D01*
X-27920159Y76534048D01*
X-27931066Y76543934D01*
X-27940952Y76554841D01*
X-27949720Y76566664D01*
X-27957288Y76579290D01*
X-27963582Y76592597D01*
X-27968541Y76606457D01*
X-27972118Y76620736D01*
X-27974278Y76635297D01*
X-27975000Y76650000D01*
X-27975000Y78300000D01*
X-27974278Y78314703D01*
X-27972118Y78329264D01*
X-27968541Y78343543D01*
X-27963582Y78357403D01*
X-27957288Y78370710D01*
X-27949720Y78383336D01*
X-27940952Y78395159D01*
X-27931066Y78406066D01*
X-27920159Y78415952D01*
X-27908336Y78424720D01*
X-27895710Y78432288D01*
X-27882403Y78438582D01*
X-27868543Y78443541D01*
X-27854264Y78447118D01*
X-27839703Y78449278D01*
X-27825000Y78450000D01*
X-27525000Y78450000D01*
X-27510297Y78449278D01*
G37*
G36*
X-26240297Y78449278D02*
G01*
X-26225736Y78447118D01*
X-26211457Y78443541D01*
X-26197597Y78438582D01*
X-26184290Y78432288D01*
X-26171664Y78424720D01*
X-26159841Y78415952D01*
X-26148934Y78406066D01*
X-26139048Y78395159D01*
X-26130280Y78383336D01*
X-26122712Y78370710D01*
X-26116418Y78357403D01*
X-26111459Y78343543D01*
X-26107882Y78329264D01*
X-26105722Y78314703D01*
X-26105000Y78300000D01*
X-26105000Y76650000D01*
X-26105722Y76635297D01*
X-26107882Y76620736D01*
X-26111459Y76606457D01*
X-26116418Y76592597D01*
X-26122712Y76579290D01*
X-26130280Y76566664D01*
X-26139048Y76554841D01*
X-26148934Y76543934D01*
X-26159841Y76534048D01*
X-26171664Y76525280D01*
X-26184290Y76517712D01*
X-26197597Y76511418D01*
X-26211457Y76506459D01*
X-26225736Y76502882D01*
X-26240297Y76500722D01*
X-26255000Y76500000D01*
X-26555000Y76500000D01*
X-26569703Y76500722D01*
X-26584264Y76502882D01*
X-26598543Y76506459D01*
X-26612403Y76511418D01*
X-26625710Y76517712D01*
X-26638336Y76525280D01*
X-26650159Y76534048D01*
X-26661066Y76543934D01*
X-26670952Y76554841D01*
X-26679720Y76566664D01*
X-26687288Y76579290D01*
X-26693582Y76592597D01*
X-26698541Y76606457D01*
X-26702118Y76620736D01*
X-26704278Y76635297D01*
X-26705000Y76650000D01*
X-26705000Y78300000D01*
X-26704278Y78314703D01*
X-26702118Y78329264D01*
X-26698541Y78343543D01*
X-26693582Y78357403D01*
X-26687288Y78370710D01*
X-26679720Y78383336D01*
X-26670952Y78395159D01*
X-26661066Y78406066D01*
X-26650159Y78415952D01*
X-26638336Y78424720D01*
X-26625710Y78432288D01*
X-26612403Y78438582D01*
X-26598543Y78443541D01*
X-26584264Y78447118D01*
X-26569703Y78449278D01*
X-26555000Y78450000D01*
X-26255000Y78450000D01*
X-26240297Y78449278D01*
G37*
G36*
X-24970297Y78449278D02*
G01*
X-24955736Y78447118D01*
X-24941457Y78443541D01*
X-24927597Y78438582D01*
X-24914290Y78432288D01*
X-24901664Y78424720D01*
X-24889841Y78415952D01*
X-24878934Y78406066D01*
X-24869048Y78395159D01*
X-24860280Y78383336D01*
X-24852712Y78370710D01*
X-24846418Y78357403D01*
X-24841459Y78343543D01*
X-24837882Y78329264D01*
X-24835722Y78314703D01*
X-24835000Y78300000D01*
X-24835000Y76650000D01*
X-24835722Y76635297D01*
X-24837882Y76620736D01*
X-24841459Y76606457D01*
X-24846418Y76592597D01*
X-24852712Y76579290D01*
X-24860280Y76566664D01*
X-24869048Y76554841D01*
X-24878934Y76543934D01*
X-24889841Y76534048D01*
X-24901664Y76525280D01*
X-24914290Y76517712D01*
X-24927597Y76511418D01*
X-24941457Y76506459D01*
X-24955736Y76502882D01*
X-24970297Y76500722D01*
X-24985000Y76500000D01*
X-25285000Y76500000D01*
X-25299703Y76500722D01*
X-25314264Y76502882D01*
X-25328543Y76506459D01*
X-25342403Y76511418D01*
X-25355710Y76517712D01*
X-25368336Y76525280D01*
X-25380159Y76534048D01*
X-25391066Y76543934D01*
X-25400952Y76554841D01*
X-25409720Y76566664D01*
X-25417288Y76579290D01*
X-25423582Y76592597D01*
X-25428541Y76606457D01*
X-25432118Y76620736D01*
X-25434278Y76635297D01*
X-25435000Y76650000D01*
X-25435000Y78300000D01*
X-25434278Y78314703D01*
X-25432118Y78329264D01*
X-25428541Y78343543D01*
X-25423582Y78357403D01*
X-25417288Y78370710D01*
X-25409720Y78383336D01*
X-25400952Y78395159D01*
X-25391066Y78406066D01*
X-25380159Y78415952D01*
X-25368336Y78424720D01*
X-25355710Y78432288D01*
X-25342403Y78438582D01*
X-25328543Y78443541D01*
X-25314264Y78447118D01*
X-25299703Y78449278D01*
X-25285000Y78450000D01*
X-24985000Y78450000D01*
X-24970297Y78449278D01*
G37*
G36*
X-23700297Y78449278D02*
G01*
X-23685736Y78447118D01*
X-23671457Y78443541D01*
X-23657597Y78438582D01*
X-23644290Y78432288D01*
X-23631664Y78424720D01*
X-23619841Y78415952D01*
X-23608934Y78406066D01*
X-23599048Y78395159D01*
X-23590280Y78383336D01*
X-23582712Y78370710D01*
X-23576418Y78357403D01*
X-23571459Y78343543D01*
X-23567882Y78329264D01*
X-23565722Y78314703D01*
X-23565000Y78300000D01*
X-23565000Y76650000D01*
X-23565722Y76635297D01*
X-23567882Y76620736D01*
X-23571459Y76606457D01*
X-23576418Y76592597D01*
X-23582712Y76579290D01*
X-23590280Y76566664D01*
X-23599048Y76554841D01*
X-23608934Y76543934D01*
X-23619841Y76534048D01*
X-23631664Y76525280D01*
X-23644290Y76517712D01*
X-23657597Y76511418D01*
X-23671457Y76506459D01*
X-23685736Y76502882D01*
X-23700297Y76500722D01*
X-23715000Y76500000D01*
X-24015000Y76500000D01*
X-24029703Y76500722D01*
X-24044264Y76502882D01*
X-24058543Y76506459D01*
X-24072403Y76511418D01*
X-24085710Y76517712D01*
X-24098336Y76525280D01*
X-24110159Y76534048D01*
X-24121066Y76543934D01*
X-24130952Y76554841D01*
X-24139720Y76566664D01*
X-24147288Y76579290D01*
X-24153582Y76592597D01*
X-24158541Y76606457D01*
X-24162118Y76620736D01*
X-24164278Y76635297D01*
X-24165000Y76650000D01*
X-24165000Y78300000D01*
X-24164278Y78314703D01*
X-24162118Y78329264D01*
X-24158541Y78343543D01*
X-24153582Y78357403D01*
X-24147288Y78370710D01*
X-24139720Y78383336D01*
X-24130952Y78395159D01*
X-24121066Y78406066D01*
X-24110159Y78415952D01*
X-24098336Y78424720D01*
X-24085710Y78432288D01*
X-24072403Y78438582D01*
X-24058543Y78443541D01*
X-24044264Y78447118D01*
X-24029703Y78449278D01*
X-24015000Y78450000D01*
X-23715000Y78450000D01*
X-23700297Y78449278D01*
G37*
G36*
X-22430297Y78449278D02*
G01*
X-22415736Y78447118D01*
X-22401457Y78443541D01*
X-22387597Y78438582D01*
X-22374290Y78432288D01*
X-22361664Y78424720D01*
X-22349841Y78415952D01*
X-22338934Y78406066D01*
X-22329048Y78395159D01*
X-22320280Y78383336D01*
X-22312712Y78370710D01*
X-22306418Y78357403D01*
X-22301459Y78343543D01*
X-22297882Y78329264D01*
X-22295722Y78314703D01*
X-22295000Y78300000D01*
X-22295000Y76650000D01*
X-22295722Y76635297D01*
X-22297882Y76620736D01*
X-22301459Y76606457D01*
X-22306418Y76592597D01*
X-22312712Y76579290D01*
X-22320280Y76566664D01*
X-22329048Y76554841D01*
X-22338934Y76543934D01*
X-22349841Y76534048D01*
X-22361664Y76525280D01*
X-22374290Y76517712D01*
X-22387597Y76511418D01*
X-22401457Y76506459D01*
X-22415736Y76502882D01*
X-22430297Y76500722D01*
X-22445000Y76500000D01*
X-22745000Y76500000D01*
X-22759703Y76500722D01*
X-22774264Y76502882D01*
X-22788543Y76506459D01*
X-22802403Y76511418D01*
X-22815710Y76517712D01*
X-22828336Y76525280D01*
X-22840159Y76534048D01*
X-22851066Y76543934D01*
X-22860952Y76554841D01*
X-22869720Y76566664D01*
X-22877288Y76579290D01*
X-22883582Y76592597D01*
X-22888541Y76606457D01*
X-22892118Y76620736D01*
X-22894278Y76635297D01*
X-22895000Y76650000D01*
X-22895000Y78300000D01*
X-22894278Y78314703D01*
X-22892118Y78329264D01*
X-22888541Y78343543D01*
X-22883582Y78357403D01*
X-22877288Y78370710D01*
X-22869720Y78383336D01*
X-22860952Y78395159D01*
X-22851066Y78406066D01*
X-22840159Y78415952D01*
X-22828336Y78424720D01*
X-22815710Y78432288D01*
X-22802403Y78438582D01*
X-22788543Y78443541D01*
X-22774264Y78447118D01*
X-22759703Y78449278D01*
X-22745000Y78450000D01*
X-22445000Y78450000D01*
X-22430297Y78449278D01*
G37*
G36*
X-21160297Y78449278D02*
G01*
X-21145736Y78447118D01*
X-21131457Y78443541D01*
X-21117597Y78438582D01*
X-21104290Y78432288D01*
X-21091664Y78424720D01*
X-21079841Y78415952D01*
X-21068934Y78406066D01*
X-21059048Y78395159D01*
X-21050280Y78383336D01*
X-21042712Y78370710D01*
X-21036418Y78357403D01*
X-21031459Y78343543D01*
X-21027882Y78329264D01*
X-21025722Y78314703D01*
X-21025000Y78300000D01*
X-21025000Y76650000D01*
X-21025722Y76635297D01*
X-21027882Y76620736D01*
X-21031459Y76606457D01*
X-21036418Y76592597D01*
X-21042712Y76579290D01*
X-21050280Y76566664D01*
X-21059048Y76554841D01*
X-21068934Y76543934D01*
X-21079841Y76534048D01*
X-21091664Y76525280D01*
X-21104290Y76517712D01*
X-21117597Y76511418D01*
X-21131457Y76506459D01*
X-21145736Y76502882D01*
X-21160297Y76500722D01*
X-21175000Y76500000D01*
X-21475000Y76500000D01*
X-21489703Y76500722D01*
X-21504264Y76502882D01*
X-21518543Y76506459D01*
X-21532403Y76511418D01*
X-21545710Y76517712D01*
X-21558336Y76525280D01*
X-21570159Y76534048D01*
X-21581066Y76543934D01*
X-21590952Y76554841D01*
X-21599720Y76566664D01*
X-21607288Y76579290D01*
X-21613582Y76592597D01*
X-21618541Y76606457D01*
X-21622118Y76620736D01*
X-21624278Y76635297D01*
X-21625000Y76650000D01*
X-21625000Y78300000D01*
X-21624278Y78314703D01*
X-21622118Y78329264D01*
X-21618541Y78343543D01*
X-21613582Y78357403D01*
X-21607288Y78370710D01*
X-21599720Y78383336D01*
X-21590952Y78395159D01*
X-21581066Y78406066D01*
X-21570159Y78415952D01*
X-21558336Y78424720D01*
X-21545710Y78432288D01*
X-21532403Y78438582D01*
X-21518543Y78443541D01*
X-21504264Y78447118D01*
X-21489703Y78449278D01*
X-21475000Y78450000D01*
X-21175000Y78450000D01*
X-21160297Y78449278D01*
G37*
G36*
X-19890297Y78449278D02*
G01*
X-19875736Y78447118D01*
X-19861457Y78443541D01*
X-19847597Y78438582D01*
X-19834290Y78432288D01*
X-19821664Y78424720D01*
X-19809841Y78415952D01*
X-19798934Y78406066D01*
X-19789048Y78395159D01*
X-19780280Y78383336D01*
X-19772712Y78370710D01*
X-19766418Y78357403D01*
X-19761459Y78343543D01*
X-19757882Y78329264D01*
X-19755722Y78314703D01*
X-19755000Y78300000D01*
X-19755000Y76650000D01*
X-19755722Y76635297D01*
X-19757882Y76620736D01*
X-19761459Y76606457D01*
X-19766418Y76592597D01*
X-19772712Y76579290D01*
X-19780280Y76566664D01*
X-19789048Y76554841D01*
X-19798934Y76543934D01*
X-19809841Y76534048D01*
X-19821664Y76525280D01*
X-19834290Y76517712D01*
X-19847597Y76511418D01*
X-19861457Y76506459D01*
X-19875736Y76502882D01*
X-19890297Y76500722D01*
X-19905000Y76500000D01*
X-20205000Y76500000D01*
X-20219703Y76500722D01*
X-20234264Y76502882D01*
X-20248543Y76506459D01*
X-20262403Y76511418D01*
X-20275710Y76517712D01*
X-20288336Y76525280D01*
X-20300159Y76534048D01*
X-20311066Y76543934D01*
X-20320952Y76554841D01*
X-20329720Y76566664D01*
X-20337288Y76579290D01*
X-20343582Y76592597D01*
X-20348541Y76606457D01*
X-20352118Y76620736D01*
X-20354278Y76635297D01*
X-20355000Y76650000D01*
X-20355000Y78300000D01*
X-20354278Y78314703D01*
X-20352118Y78329264D01*
X-20348541Y78343543D01*
X-20343582Y78357403D01*
X-20337288Y78370710D01*
X-20329720Y78383336D01*
X-20320952Y78395159D01*
X-20311066Y78406066D01*
X-20300159Y78415952D01*
X-20288336Y78424720D01*
X-20275710Y78432288D01*
X-20262403Y78438582D01*
X-20248543Y78443541D01*
X-20234264Y78447118D01*
X-20219703Y78449278D01*
X-20205000Y78450000D01*
X-19905000Y78450000D01*
X-19890297Y78449278D01*
G37*
G36*
X-19890297Y73499278D02*
G01*
X-19875736Y73497118D01*
X-19861457Y73493541D01*
X-19847597Y73488582D01*
X-19834290Y73482288D01*
X-19821664Y73474720D01*
X-19809841Y73465952D01*
X-19798934Y73456066D01*
X-19789048Y73445159D01*
X-19780280Y73433336D01*
X-19772712Y73420710D01*
X-19766418Y73407403D01*
X-19761459Y73393543D01*
X-19757882Y73379264D01*
X-19755722Y73364703D01*
X-19755000Y73350000D01*
X-19755000Y71700000D01*
X-19755722Y71685297D01*
X-19757882Y71670736D01*
X-19761459Y71656457D01*
X-19766418Y71642597D01*
X-19772712Y71629290D01*
X-19780280Y71616664D01*
X-19789048Y71604841D01*
X-19798934Y71593934D01*
X-19809841Y71584048D01*
X-19821664Y71575280D01*
X-19834290Y71567712D01*
X-19847597Y71561418D01*
X-19861457Y71556459D01*
X-19875736Y71552882D01*
X-19890297Y71550722D01*
X-19905000Y71550000D01*
X-20205000Y71550000D01*
X-20219703Y71550722D01*
X-20234264Y71552882D01*
X-20248543Y71556459D01*
X-20262403Y71561418D01*
X-20275710Y71567712D01*
X-20288336Y71575280D01*
X-20300159Y71584048D01*
X-20311066Y71593934D01*
X-20320952Y71604841D01*
X-20329720Y71616664D01*
X-20337288Y71629290D01*
X-20343582Y71642597D01*
X-20348541Y71656457D01*
X-20352118Y71670736D01*
X-20354278Y71685297D01*
X-20355000Y71700000D01*
X-20355000Y73350000D01*
X-20354278Y73364703D01*
X-20352118Y73379264D01*
X-20348541Y73393543D01*
X-20343582Y73407403D01*
X-20337288Y73420710D01*
X-20329720Y73433336D01*
X-20320952Y73445159D01*
X-20311066Y73456066D01*
X-20300159Y73465952D01*
X-20288336Y73474720D01*
X-20275710Y73482288D01*
X-20262403Y73488582D01*
X-20248543Y73493541D01*
X-20234264Y73497118D01*
X-20219703Y73499278D01*
X-20205000Y73500000D01*
X-19905000Y73500000D01*
X-19890297Y73499278D01*
G37*
G36*
X-21160297Y73499278D02*
G01*
X-21145736Y73497118D01*
X-21131457Y73493541D01*
X-21117597Y73488582D01*
X-21104290Y73482288D01*
X-21091664Y73474720D01*
X-21079841Y73465952D01*
X-21068934Y73456066D01*
X-21059048Y73445159D01*
X-21050280Y73433336D01*
X-21042712Y73420710D01*
X-21036418Y73407403D01*
X-21031459Y73393543D01*
X-21027882Y73379264D01*
X-21025722Y73364703D01*
X-21025000Y73350000D01*
X-21025000Y71700000D01*
X-21025722Y71685297D01*
X-21027882Y71670736D01*
X-21031459Y71656457D01*
X-21036418Y71642597D01*
X-21042712Y71629290D01*
X-21050280Y71616664D01*
X-21059048Y71604841D01*
X-21068934Y71593934D01*
X-21079841Y71584048D01*
X-21091664Y71575280D01*
X-21104290Y71567712D01*
X-21117597Y71561418D01*
X-21131457Y71556459D01*
X-21145736Y71552882D01*
X-21160297Y71550722D01*
X-21175000Y71550000D01*
X-21475000Y71550000D01*
X-21489703Y71550722D01*
X-21504264Y71552882D01*
X-21518543Y71556459D01*
X-21532403Y71561418D01*
X-21545710Y71567712D01*
X-21558336Y71575280D01*
X-21570159Y71584048D01*
X-21581066Y71593934D01*
X-21590952Y71604841D01*
X-21599720Y71616664D01*
X-21607288Y71629290D01*
X-21613582Y71642597D01*
X-21618541Y71656457D01*
X-21622118Y71670736D01*
X-21624278Y71685297D01*
X-21625000Y71700000D01*
X-21625000Y73350000D01*
X-21624278Y73364703D01*
X-21622118Y73379264D01*
X-21618541Y73393543D01*
X-21613582Y73407403D01*
X-21607288Y73420710D01*
X-21599720Y73433336D01*
X-21590952Y73445159D01*
X-21581066Y73456066D01*
X-21570159Y73465952D01*
X-21558336Y73474720D01*
X-21545710Y73482288D01*
X-21532403Y73488582D01*
X-21518543Y73493541D01*
X-21504264Y73497118D01*
X-21489703Y73499278D01*
X-21475000Y73500000D01*
X-21175000Y73500000D01*
X-21160297Y73499278D01*
G37*
G36*
X-22430297Y73499278D02*
G01*
X-22415736Y73497118D01*
X-22401457Y73493541D01*
X-22387597Y73488582D01*
X-22374290Y73482288D01*
X-22361664Y73474720D01*
X-22349841Y73465952D01*
X-22338934Y73456066D01*
X-22329048Y73445159D01*
X-22320280Y73433336D01*
X-22312712Y73420710D01*
X-22306418Y73407403D01*
X-22301459Y73393543D01*
X-22297882Y73379264D01*
X-22295722Y73364703D01*
X-22295000Y73350000D01*
X-22295000Y71700000D01*
X-22295722Y71685297D01*
X-22297882Y71670736D01*
X-22301459Y71656457D01*
X-22306418Y71642597D01*
X-22312712Y71629290D01*
X-22320280Y71616664D01*
X-22329048Y71604841D01*
X-22338934Y71593934D01*
X-22349841Y71584048D01*
X-22361664Y71575280D01*
X-22374290Y71567712D01*
X-22387597Y71561418D01*
X-22401457Y71556459D01*
X-22415736Y71552882D01*
X-22430297Y71550722D01*
X-22445000Y71550000D01*
X-22745000Y71550000D01*
X-22759703Y71550722D01*
X-22774264Y71552882D01*
X-22788543Y71556459D01*
X-22802403Y71561418D01*
X-22815710Y71567712D01*
X-22828336Y71575280D01*
X-22840159Y71584048D01*
X-22851066Y71593934D01*
X-22860952Y71604841D01*
X-22869720Y71616664D01*
X-22877288Y71629290D01*
X-22883582Y71642597D01*
X-22888541Y71656457D01*
X-22892118Y71670736D01*
X-22894278Y71685297D01*
X-22895000Y71700000D01*
X-22895000Y73350000D01*
X-22894278Y73364703D01*
X-22892118Y73379264D01*
X-22888541Y73393543D01*
X-22883582Y73407403D01*
X-22877288Y73420710D01*
X-22869720Y73433336D01*
X-22860952Y73445159D01*
X-22851066Y73456066D01*
X-22840159Y73465952D01*
X-22828336Y73474720D01*
X-22815710Y73482288D01*
X-22802403Y73488582D01*
X-22788543Y73493541D01*
X-22774264Y73497118D01*
X-22759703Y73499278D01*
X-22745000Y73500000D01*
X-22445000Y73500000D01*
X-22430297Y73499278D01*
G37*
G36*
X-23700297Y73499278D02*
G01*
X-23685736Y73497118D01*
X-23671457Y73493541D01*
X-23657597Y73488582D01*
X-23644290Y73482288D01*
X-23631664Y73474720D01*
X-23619841Y73465952D01*
X-23608934Y73456066D01*
X-23599048Y73445159D01*
X-23590280Y73433336D01*
X-23582712Y73420710D01*
X-23576418Y73407403D01*
X-23571459Y73393543D01*
X-23567882Y73379264D01*
X-23565722Y73364703D01*
X-23565000Y73350000D01*
X-23565000Y71700000D01*
X-23565722Y71685297D01*
X-23567882Y71670736D01*
X-23571459Y71656457D01*
X-23576418Y71642597D01*
X-23582712Y71629290D01*
X-23590280Y71616664D01*
X-23599048Y71604841D01*
X-23608934Y71593934D01*
X-23619841Y71584048D01*
X-23631664Y71575280D01*
X-23644290Y71567712D01*
X-23657597Y71561418D01*
X-23671457Y71556459D01*
X-23685736Y71552882D01*
X-23700297Y71550722D01*
X-23715000Y71550000D01*
X-24015000Y71550000D01*
X-24029703Y71550722D01*
X-24044264Y71552882D01*
X-24058543Y71556459D01*
X-24072403Y71561418D01*
X-24085710Y71567712D01*
X-24098336Y71575280D01*
X-24110159Y71584048D01*
X-24121066Y71593934D01*
X-24130952Y71604841D01*
X-24139720Y71616664D01*
X-24147288Y71629290D01*
X-24153582Y71642597D01*
X-24158541Y71656457D01*
X-24162118Y71670736D01*
X-24164278Y71685297D01*
X-24165000Y71700000D01*
X-24165000Y73350000D01*
X-24164278Y73364703D01*
X-24162118Y73379264D01*
X-24158541Y73393543D01*
X-24153582Y73407403D01*
X-24147288Y73420710D01*
X-24139720Y73433336D01*
X-24130952Y73445159D01*
X-24121066Y73456066D01*
X-24110159Y73465952D01*
X-24098336Y73474720D01*
X-24085710Y73482288D01*
X-24072403Y73488582D01*
X-24058543Y73493541D01*
X-24044264Y73497118D01*
X-24029703Y73499278D01*
X-24015000Y73500000D01*
X-23715000Y73500000D01*
X-23700297Y73499278D01*
G37*
G36*
X-24970297Y73499278D02*
G01*
X-24955736Y73497118D01*
X-24941457Y73493541D01*
X-24927597Y73488582D01*
X-24914290Y73482288D01*
X-24901664Y73474720D01*
X-24889841Y73465952D01*
X-24878934Y73456066D01*
X-24869048Y73445159D01*
X-24860280Y73433336D01*
X-24852712Y73420710D01*
X-24846418Y73407403D01*
X-24841459Y73393543D01*
X-24837882Y73379264D01*
X-24835722Y73364703D01*
X-24835000Y73350000D01*
X-24835000Y71700000D01*
X-24835722Y71685297D01*
X-24837882Y71670736D01*
X-24841459Y71656457D01*
X-24846418Y71642597D01*
X-24852712Y71629290D01*
X-24860280Y71616664D01*
X-24869048Y71604841D01*
X-24878934Y71593934D01*
X-24889841Y71584048D01*
X-24901664Y71575280D01*
X-24914290Y71567712D01*
X-24927597Y71561418D01*
X-24941457Y71556459D01*
X-24955736Y71552882D01*
X-24970297Y71550722D01*
X-24985000Y71550000D01*
X-25285000Y71550000D01*
X-25299703Y71550722D01*
X-25314264Y71552882D01*
X-25328543Y71556459D01*
X-25342403Y71561418D01*
X-25355710Y71567712D01*
X-25368336Y71575280D01*
X-25380159Y71584048D01*
X-25391066Y71593934D01*
X-25400952Y71604841D01*
X-25409720Y71616664D01*
X-25417288Y71629290D01*
X-25423582Y71642597D01*
X-25428541Y71656457D01*
X-25432118Y71670736D01*
X-25434278Y71685297D01*
X-25435000Y71700000D01*
X-25435000Y73350000D01*
X-25434278Y73364703D01*
X-25432118Y73379264D01*
X-25428541Y73393543D01*
X-25423582Y73407403D01*
X-25417288Y73420710D01*
X-25409720Y73433336D01*
X-25400952Y73445159D01*
X-25391066Y73456066D01*
X-25380159Y73465952D01*
X-25368336Y73474720D01*
X-25355710Y73482288D01*
X-25342403Y73488582D01*
X-25328543Y73493541D01*
X-25314264Y73497118D01*
X-25299703Y73499278D01*
X-25285000Y73500000D01*
X-24985000Y73500000D01*
X-24970297Y73499278D01*
G37*
G36*
X-26240297Y73499278D02*
G01*
X-26225736Y73497118D01*
X-26211457Y73493541D01*
X-26197597Y73488582D01*
X-26184290Y73482288D01*
X-26171664Y73474720D01*
X-26159841Y73465952D01*
X-26148934Y73456066D01*
X-26139048Y73445159D01*
X-26130280Y73433336D01*
X-26122712Y73420710D01*
X-26116418Y73407403D01*
X-26111459Y73393543D01*
X-26107882Y73379264D01*
X-26105722Y73364703D01*
X-26105000Y73350000D01*
X-26105000Y71700000D01*
X-26105722Y71685297D01*
X-26107882Y71670736D01*
X-26111459Y71656457D01*
X-26116418Y71642597D01*
X-26122712Y71629290D01*
X-26130280Y71616664D01*
X-26139048Y71604841D01*
X-26148934Y71593934D01*
X-26159841Y71584048D01*
X-26171664Y71575280D01*
X-26184290Y71567712D01*
X-26197597Y71561418D01*
X-26211457Y71556459D01*
X-26225736Y71552882D01*
X-26240297Y71550722D01*
X-26255000Y71550000D01*
X-26555000Y71550000D01*
X-26569703Y71550722D01*
X-26584264Y71552882D01*
X-26598543Y71556459D01*
X-26612403Y71561418D01*
X-26625710Y71567712D01*
X-26638336Y71575280D01*
X-26650159Y71584048D01*
X-26661066Y71593934D01*
X-26670952Y71604841D01*
X-26679720Y71616664D01*
X-26687288Y71629290D01*
X-26693582Y71642597D01*
X-26698541Y71656457D01*
X-26702118Y71670736D01*
X-26704278Y71685297D01*
X-26705000Y71700000D01*
X-26705000Y73350000D01*
X-26704278Y73364703D01*
X-26702118Y73379264D01*
X-26698541Y73393543D01*
X-26693582Y73407403D01*
X-26687288Y73420710D01*
X-26679720Y73433336D01*
X-26670952Y73445159D01*
X-26661066Y73456066D01*
X-26650159Y73465952D01*
X-26638336Y73474720D01*
X-26625710Y73482288D01*
X-26612403Y73488582D01*
X-26598543Y73493541D01*
X-26584264Y73497118D01*
X-26569703Y73499278D01*
X-26555000Y73500000D01*
X-26255000Y73500000D01*
X-26240297Y73499278D01*
G37*
G36*
X-27510297Y73499278D02*
G01*
X-27495736Y73497118D01*
X-27481457Y73493541D01*
X-27467597Y73488582D01*
X-27454290Y73482288D01*
X-27441664Y73474720D01*
X-27429841Y73465952D01*
X-27418934Y73456066D01*
X-27409048Y73445159D01*
X-27400280Y73433336D01*
X-27392712Y73420710D01*
X-27386418Y73407403D01*
X-27381459Y73393543D01*
X-27377882Y73379264D01*
X-27375722Y73364703D01*
X-27375000Y73350000D01*
X-27375000Y71700000D01*
X-27375722Y71685297D01*
X-27377882Y71670736D01*
X-27381459Y71656457D01*
X-27386418Y71642597D01*
X-27392712Y71629290D01*
X-27400280Y71616664D01*
X-27409048Y71604841D01*
X-27418934Y71593934D01*
X-27429841Y71584048D01*
X-27441664Y71575280D01*
X-27454290Y71567712D01*
X-27467597Y71561418D01*
X-27481457Y71556459D01*
X-27495736Y71552882D01*
X-27510297Y71550722D01*
X-27525000Y71550000D01*
X-27825000Y71550000D01*
X-27839703Y71550722D01*
X-27854264Y71552882D01*
X-27868543Y71556459D01*
X-27882403Y71561418D01*
X-27895710Y71567712D01*
X-27908336Y71575280D01*
X-27920159Y71584048D01*
X-27931066Y71593934D01*
X-27940952Y71604841D01*
X-27949720Y71616664D01*
X-27957288Y71629290D01*
X-27963582Y71642597D01*
X-27968541Y71656457D01*
X-27972118Y71670736D01*
X-27974278Y71685297D01*
X-27975000Y71700000D01*
X-27975000Y73350000D01*
X-27974278Y73364703D01*
X-27972118Y73379264D01*
X-27968541Y73393543D01*
X-27963582Y73407403D01*
X-27957288Y73420710D01*
X-27949720Y73433336D01*
X-27940952Y73445159D01*
X-27931066Y73456066D01*
X-27920159Y73465952D01*
X-27908336Y73474720D01*
X-27895710Y73482288D01*
X-27882403Y73488582D01*
X-27868543Y73493541D01*
X-27854264Y73497118D01*
X-27839703Y73499278D01*
X-27825000Y73500000D01*
X-27525000Y73500000D01*
X-27510297Y73499278D01*
G37*
G36*
X-28780297Y73499278D02*
G01*
X-28765736Y73497118D01*
X-28751457Y73493541D01*
X-28737597Y73488582D01*
X-28724290Y73482288D01*
X-28711664Y73474720D01*
X-28699841Y73465952D01*
X-28688934Y73456066D01*
X-28679048Y73445159D01*
X-28670280Y73433336D01*
X-28662712Y73420710D01*
X-28656418Y73407403D01*
X-28651459Y73393543D01*
X-28647882Y73379264D01*
X-28645722Y73364703D01*
X-28645000Y73350000D01*
X-28645000Y71700000D01*
X-28645722Y71685297D01*
X-28647882Y71670736D01*
X-28651459Y71656457D01*
X-28656418Y71642597D01*
X-28662712Y71629290D01*
X-28670280Y71616664D01*
X-28679048Y71604841D01*
X-28688934Y71593934D01*
X-28699841Y71584048D01*
X-28711664Y71575280D01*
X-28724290Y71567712D01*
X-28737597Y71561418D01*
X-28751457Y71556459D01*
X-28765736Y71552882D01*
X-28780297Y71550722D01*
X-28795000Y71550000D01*
X-29095000Y71550000D01*
X-29109703Y71550722D01*
X-29124264Y71552882D01*
X-29138543Y71556459D01*
X-29152403Y71561418D01*
X-29165710Y71567712D01*
X-29178336Y71575280D01*
X-29190159Y71584048D01*
X-29201066Y71593934D01*
X-29210952Y71604841D01*
X-29219720Y71616664D01*
X-29227288Y71629290D01*
X-29233582Y71642597D01*
X-29238541Y71656457D01*
X-29242118Y71670736D01*
X-29244278Y71685297D01*
X-29245000Y71700000D01*
X-29245000Y73350000D01*
X-29244278Y73364703D01*
X-29242118Y73379264D01*
X-29238541Y73393543D01*
X-29233582Y73407403D01*
X-29227288Y73420710D01*
X-29219720Y73433336D01*
X-29210952Y73445159D01*
X-29201066Y73456066D01*
X-29190159Y73465952D01*
X-29178336Y73474720D01*
X-29165710Y73482288D01*
X-29152403Y73488582D01*
X-29138543Y73493541D01*
X-29124264Y73497118D01*
X-29109703Y73499278D01*
X-29095000Y73500000D01*
X-28795000Y73500000D01*
X-28780297Y73499278D01*
G37*
D11*
X-20500000Y68100000D03*
X-21450000Y68100000D03*
X-19550000Y68100000D03*
X-19550000Y65900000D03*
X-20500000Y65900000D03*
X-21450000Y65900000D03*
D12*
X-40425000Y77950000D03*
X-39775000Y77950000D03*
X-39125000Y77950000D03*
X-38475000Y77950000D03*
X-37825000Y77950000D03*
X-37175000Y77950000D03*
X-36525000Y77950000D03*
X-35875000Y77950000D03*
X-35225000Y77950000D03*
X-34575000Y77950000D03*
X-34575000Y72050000D03*
X-35225000Y72050000D03*
X-35875000Y72050000D03*
X-36525000Y72050000D03*
X-37175000Y72050000D03*
X-37825000Y72050000D03*
X-38475000Y72050000D03*
X-39125000Y72050000D03*
X-39775000Y72050000D03*
X-40425000Y72050000D03*
D10*
G36*
X-57850496Y69998796D02*
G01*
X-57826227Y69995196D01*
X-57802429Y69989235D01*
X-57779329Y69980970D01*
X-57757151Y69970480D01*
X-57736107Y69957867D01*
X-57716402Y69943253D01*
X-57698223Y69926777D01*
X-57681747Y69908598D01*
X-57667133Y69888893D01*
X-57654520Y69867849D01*
X-57644030Y69845671D01*
X-57635765Y69822571D01*
X-57629804Y69798773D01*
X-57626204Y69774504D01*
X-57625000Y69750000D01*
X-57625000Y69250000D01*
X-57626204Y69225496D01*
X-57629804Y69201227D01*
X-57635765Y69177429D01*
X-57644030Y69154329D01*
X-57654520Y69132151D01*
X-57667133Y69111107D01*
X-57681747Y69091402D01*
X-57698223Y69073223D01*
X-57716402Y69056747D01*
X-57736107Y69042133D01*
X-57757151Y69029520D01*
X-57779329Y69019030D01*
X-57802429Y69010765D01*
X-57826227Y69004804D01*
X-57850496Y69001204D01*
X-57875000Y69000000D01*
X-58625000Y69000000D01*
X-58649504Y69001204D01*
X-58673773Y69004804D01*
X-58697571Y69010765D01*
X-58720671Y69019030D01*
X-58742849Y69029520D01*
X-58763893Y69042133D01*
X-58783598Y69056747D01*
X-58801777Y69073223D01*
X-58818253Y69091402D01*
X-58832867Y69111107D01*
X-58845480Y69132151D01*
X-58855970Y69154329D01*
X-58864235Y69177429D01*
X-58870196Y69201227D01*
X-58873796Y69225496D01*
X-58875000Y69250000D01*
X-58875000Y69750000D01*
X-58873796Y69774504D01*
X-58870196Y69798773D01*
X-58864235Y69822571D01*
X-58855970Y69845671D01*
X-58845480Y69867849D01*
X-58832867Y69888893D01*
X-58818253Y69908598D01*
X-58801777Y69926777D01*
X-58783598Y69943253D01*
X-58763893Y69957867D01*
X-58742849Y69970480D01*
X-58720671Y69980970D01*
X-58697571Y69989235D01*
X-58673773Y69995196D01*
X-58649504Y69998796D01*
X-58625000Y70000000D01*
X-57875000Y70000000D01*
X-57850496Y69998796D01*
G37*
G36*
X-57850496Y67998796D02*
G01*
X-57826227Y67995196D01*
X-57802429Y67989235D01*
X-57779329Y67980970D01*
X-57757151Y67970480D01*
X-57736107Y67957867D01*
X-57716402Y67943253D01*
X-57698223Y67926777D01*
X-57681747Y67908598D01*
X-57667133Y67888893D01*
X-57654520Y67867849D01*
X-57644030Y67845671D01*
X-57635765Y67822571D01*
X-57629804Y67798773D01*
X-57626204Y67774504D01*
X-57625000Y67750000D01*
X-57625000Y67250000D01*
X-57626204Y67225496D01*
X-57629804Y67201227D01*
X-57635765Y67177429D01*
X-57644030Y67154329D01*
X-57654520Y67132151D01*
X-57667133Y67111107D01*
X-57681747Y67091402D01*
X-57698223Y67073223D01*
X-57716402Y67056747D01*
X-57736107Y67042133D01*
X-57757151Y67029520D01*
X-57779329Y67019030D01*
X-57802429Y67010765D01*
X-57826227Y67004804D01*
X-57850496Y67001204D01*
X-57875000Y67000000D01*
X-58625000Y67000000D01*
X-58649504Y67001204D01*
X-58673773Y67004804D01*
X-58697571Y67010765D01*
X-58720671Y67019030D01*
X-58742849Y67029520D01*
X-58763893Y67042133D01*
X-58783598Y67056747D01*
X-58801777Y67073223D01*
X-58818253Y67091402D01*
X-58832867Y67111107D01*
X-58845480Y67132151D01*
X-58855970Y67154329D01*
X-58864235Y67177429D01*
X-58870196Y67201227D01*
X-58873796Y67225496D01*
X-58875000Y67250000D01*
X-58875000Y67750000D01*
X-58873796Y67774504D01*
X-58870196Y67798773D01*
X-58864235Y67822571D01*
X-58855970Y67845671D01*
X-58845480Y67867849D01*
X-58832867Y67888893D01*
X-58818253Y67908598D01*
X-58801777Y67926777D01*
X-58783598Y67943253D01*
X-58763893Y67957867D01*
X-58742849Y67970480D01*
X-58720671Y67980970D01*
X-58697571Y67989235D01*
X-58673773Y67995196D01*
X-58649504Y67998796D01*
X-58625000Y68000000D01*
X-57875000Y68000000D01*
X-57850496Y67998796D01*
G37*
G36*
X-30350496Y80248796D02*
G01*
X-30326227Y80245196D01*
X-30302429Y80239235D01*
X-30279329Y80230970D01*
X-30257151Y80220480D01*
X-30236107Y80207867D01*
X-30216402Y80193253D01*
X-30198223Y80176777D01*
X-30181747Y80158598D01*
X-30167133Y80138893D01*
X-30154520Y80117849D01*
X-30144030Y80095671D01*
X-30135765Y80072571D01*
X-30129804Y80048773D01*
X-30126204Y80024504D01*
X-30125000Y80000000D01*
X-30125000Y79500000D01*
X-30126204Y79475496D01*
X-30129804Y79451227D01*
X-30135765Y79427429D01*
X-30144030Y79404329D01*
X-30154520Y79382151D01*
X-30167133Y79361107D01*
X-30181747Y79341402D01*
X-30198223Y79323223D01*
X-30216402Y79306747D01*
X-30236107Y79292133D01*
X-30257151Y79279520D01*
X-30279329Y79269030D01*
X-30302429Y79260765D01*
X-30326227Y79254804D01*
X-30350496Y79251204D01*
X-30375000Y79250000D01*
X-31125000Y79250000D01*
X-31149504Y79251204D01*
X-31173773Y79254804D01*
X-31197571Y79260765D01*
X-31220671Y79269030D01*
X-31242849Y79279520D01*
X-31263893Y79292133D01*
X-31283598Y79306747D01*
X-31301777Y79323223D01*
X-31318253Y79341402D01*
X-31332867Y79361107D01*
X-31345480Y79382151D01*
X-31355970Y79404329D01*
X-31364235Y79427429D01*
X-31370196Y79451227D01*
X-31373796Y79475496D01*
X-31375000Y79500000D01*
X-31375000Y80000000D01*
X-31373796Y80024504D01*
X-31370196Y80048773D01*
X-31364235Y80072571D01*
X-31355970Y80095671D01*
X-31345480Y80117849D01*
X-31332867Y80138893D01*
X-31318253Y80158598D01*
X-31301777Y80176777D01*
X-31283598Y80193253D01*
X-31263893Y80207867D01*
X-31242849Y80220480D01*
X-31220671Y80230970D01*
X-31197571Y80239235D01*
X-31173773Y80245196D01*
X-31149504Y80248796D01*
X-31125000Y80250000D01*
X-30375000Y80250000D01*
X-30350496Y80248796D01*
G37*
G36*
X-30350496Y78248796D02*
G01*
X-30326227Y78245196D01*
X-30302429Y78239235D01*
X-30279329Y78230970D01*
X-30257151Y78220480D01*
X-30236107Y78207867D01*
X-30216402Y78193253D01*
X-30198223Y78176777D01*
X-30181747Y78158598D01*
X-30167133Y78138893D01*
X-30154520Y78117849D01*
X-30144030Y78095671D01*
X-30135765Y78072571D01*
X-30129804Y78048773D01*
X-30126204Y78024504D01*
X-30125000Y78000000D01*
X-30125000Y77500000D01*
X-30126204Y77475496D01*
X-30129804Y77451227D01*
X-30135765Y77427429D01*
X-30144030Y77404329D01*
X-30154520Y77382151D01*
X-30167133Y77361107D01*
X-30181747Y77341402D01*
X-30198223Y77323223D01*
X-30216402Y77306747D01*
X-30236107Y77292133D01*
X-30257151Y77279520D01*
X-30279329Y77269030D01*
X-30302429Y77260765D01*
X-30326227Y77254804D01*
X-30350496Y77251204D01*
X-30375000Y77250000D01*
X-31125000Y77250000D01*
X-31149504Y77251204D01*
X-31173773Y77254804D01*
X-31197571Y77260765D01*
X-31220671Y77269030D01*
X-31242849Y77279520D01*
X-31263893Y77292133D01*
X-31283598Y77306747D01*
X-31301777Y77323223D01*
X-31318253Y77341402D01*
X-31332867Y77361107D01*
X-31345480Y77382151D01*
X-31355970Y77404329D01*
X-31364235Y77427429D01*
X-31370196Y77451227D01*
X-31373796Y77475496D01*
X-31375000Y77500000D01*
X-31375000Y78000000D01*
X-31373796Y78024504D01*
X-31370196Y78048773D01*
X-31364235Y78072571D01*
X-31355970Y78095671D01*
X-31345480Y78117849D01*
X-31332867Y78138893D01*
X-31318253Y78158598D01*
X-31301777Y78176777D01*
X-31283598Y78193253D01*
X-31263893Y78207867D01*
X-31242849Y78220480D01*
X-31220671Y78230970D01*
X-31197571Y78239235D01*
X-31173773Y78245196D01*
X-31149504Y78248796D01*
X-31125000Y78250000D01*
X-30375000Y78250000D01*
X-30350496Y78248796D01*
G37*
G36*
X-65850496Y67998796D02*
G01*
X-65826227Y67995196D01*
X-65802429Y67989235D01*
X-65779329Y67980970D01*
X-65757151Y67970480D01*
X-65736107Y67957867D01*
X-65716402Y67943253D01*
X-65698223Y67926777D01*
X-65681747Y67908598D01*
X-65667133Y67888893D01*
X-65654520Y67867849D01*
X-65644030Y67845671D01*
X-65635765Y67822571D01*
X-65629804Y67798773D01*
X-65626204Y67774504D01*
X-65625000Y67750000D01*
X-65625000Y67250000D01*
X-65626204Y67225496D01*
X-65629804Y67201227D01*
X-65635765Y67177429D01*
X-65644030Y67154329D01*
X-65654520Y67132151D01*
X-65667133Y67111107D01*
X-65681747Y67091402D01*
X-65698223Y67073223D01*
X-65716402Y67056747D01*
X-65736107Y67042133D01*
X-65757151Y67029520D01*
X-65779329Y67019030D01*
X-65802429Y67010765D01*
X-65826227Y67004804D01*
X-65850496Y67001204D01*
X-65875000Y67000000D01*
X-66625000Y67000000D01*
X-66649504Y67001204D01*
X-66673773Y67004804D01*
X-66697571Y67010765D01*
X-66720671Y67019030D01*
X-66742849Y67029520D01*
X-66763893Y67042133D01*
X-66783598Y67056747D01*
X-66801777Y67073223D01*
X-66818253Y67091402D01*
X-66832867Y67111107D01*
X-66845480Y67132151D01*
X-66855970Y67154329D01*
X-66864235Y67177429D01*
X-66870196Y67201227D01*
X-66873796Y67225496D01*
X-66875000Y67250000D01*
X-66875000Y67750000D01*
X-66873796Y67774504D01*
X-66870196Y67798773D01*
X-66864235Y67822571D01*
X-66855970Y67845671D01*
X-66845480Y67867849D01*
X-66832867Y67888893D01*
X-66818253Y67908598D01*
X-66801777Y67926777D01*
X-66783598Y67943253D01*
X-66763893Y67957867D01*
X-66742849Y67970480D01*
X-66720671Y67980970D01*
X-66697571Y67989235D01*
X-66673773Y67995196D01*
X-66649504Y67998796D01*
X-66625000Y68000000D01*
X-65875000Y68000000D01*
X-65850496Y67998796D01*
G37*
G36*
X-65850496Y69998796D02*
G01*
X-65826227Y69995196D01*
X-65802429Y69989235D01*
X-65779329Y69980970D01*
X-65757151Y69970480D01*
X-65736107Y69957867D01*
X-65716402Y69943253D01*
X-65698223Y69926777D01*
X-65681747Y69908598D01*
X-65667133Y69888893D01*
X-65654520Y69867849D01*
X-65644030Y69845671D01*
X-65635765Y69822571D01*
X-65629804Y69798773D01*
X-65626204Y69774504D01*
X-65625000Y69750000D01*
X-65625000Y69250000D01*
X-65626204Y69225496D01*
X-65629804Y69201227D01*
X-65635765Y69177429D01*
X-65644030Y69154329D01*
X-65654520Y69132151D01*
X-65667133Y69111107D01*
X-65681747Y69091402D01*
X-65698223Y69073223D01*
X-65716402Y69056747D01*
X-65736107Y69042133D01*
X-65757151Y69029520D01*
X-65779329Y69019030D01*
X-65802429Y69010765D01*
X-65826227Y69004804D01*
X-65850496Y69001204D01*
X-65875000Y69000000D01*
X-66625000Y69000000D01*
X-66649504Y69001204D01*
X-66673773Y69004804D01*
X-66697571Y69010765D01*
X-66720671Y69019030D01*
X-66742849Y69029520D01*
X-66763893Y69042133D01*
X-66783598Y69056747D01*
X-66801777Y69073223D01*
X-66818253Y69091402D01*
X-66832867Y69111107D01*
X-66845480Y69132151D01*
X-66855970Y69154329D01*
X-66864235Y69177429D01*
X-66870196Y69201227D01*
X-66873796Y69225496D01*
X-66875000Y69250000D01*
X-66875000Y69750000D01*
X-66873796Y69774504D01*
X-66870196Y69798773D01*
X-66864235Y69822571D01*
X-66855970Y69845671D01*
X-66845480Y69867849D01*
X-66832867Y69888893D01*
X-66818253Y69908598D01*
X-66801777Y69926777D01*
X-66783598Y69943253D01*
X-66763893Y69957867D01*
X-66742849Y69970480D01*
X-66720671Y69980970D01*
X-66697571Y69989235D01*
X-66673773Y69995196D01*
X-66649504Y69998796D01*
X-66625000Y70000000D01*
X-65875000Y70000000D01*
X-65850496Y69998796D01*
G37*
G36*
X-35100496Y81598796D02*
G01*
X-35076227Y81595196D01*
X-35052429Y81589235D01*
X-35029329Y81580970D01*
X-35007151Y81570480D01*
X-34986107Y81557867D01*
X-34966402Y81543253D01*
X-34948223Y81526777D01*
X-34931747Y81508598D01*
X-34917133Y81488893D01*
X-34904520Y81467849D01*
X-34894030Y81445671D01*
X-34885765Y81422571D01*
X-34879804Y81398773D01*
X-34876204Y81374504D01*
X-34875000Y81350000D01*
X-34875000Y80850000D01*
X-34876204Y80825496D01*
X-34879804Y80801227D01*
X-34885765Y80777429D01*
X-34894030Y80754329D01*
X-34904520Y80732151D01*
X-34917133Y80711107D01*
X-34931747Y80691402D01*
X-34948223Y80673223D01*
X-34966402Y80656747D01*
X-34986107Y80642133D01*
X-35007151Y80629520D01*
X-35029329Y80619030D01*
X-35052429Y80610765D01*
X-35076227Y80604804D01*
X-35100496Y80601204D01*
X-35125000Y80600000D01*
X-35875000Y80600000D01*
X-35899504Y80601204D01*
X-35923773Y80604804D01*
X-35947571Y80610765D01*
X-35970671Y80619030D01*
X-35992849Y80629520D01*
X-36013893Y80642133D01*
X-36033598Y80656747D01*
X-36051777Y80673223D01*
X-36068253Y80691402D01*
X-36082867Y80711107D01*
X-36095480Y80732151D01*
X-36105970Y80754329D01*
X-36114235Y80777429D01*
X-36120196Y80801227D01*
X-36123796Y80825496D01*
X-36125000Y80850000D01*
X-36125000Y81350000D01*
X-36123796Y81374504D01*
X-36120196Y81398773D01*
X-36114235Y81422571D01*
X-36105970Y81445671D01*
X-36095480Y81467849D01*
X-36082867Y81488893D01*
X-36068253Y81508598D01*
X-36051777Y81526777D01*
X-36033598Y81543253D01*
X-36013893Y81557867D01*
X-35992849Y81570480D01*
X-35970671Y81580970D01*
X-35947571Y81589235D01*
X-35923773Y81595196D01*
X-35899504Y81598796D01*
X-35875000Y81600000D01*
X-35125000Y81600000D01*
X-35100496Y81598796D01*
G37*
G36*
X-35100496Y83598796D02*
G01*
X-35076227Y83595196D01*
X-35052429Y83589235D01*
X-35029329Y83580970D01*
X-35007151Y83570480D01*
X-34986107Y83557867D01*
X-34966402Y83543253D01*
X-34948223Y83526777D01*
X-34931747Y83508598D01*
X-34917133Y83488893D01*
X-34904520Y83467849D01*
X-34894030Y83445671D01*
X-34885765Y83422571D01*
X-34879804Y83398773D01*
X-34876204Y83374504D01*
X-34875000Y83350000D01*
X-34875000Y82850000D01*
X-34876204Y82825496D01*
X-34879804Y82801227D01*
X-34885765Y82777429D01*
X-34894030Y82754329D01*
X-34904520Y82732151D01*
X-34917133Y82711107D01*
X-34931747Y82691402D01*
X-34948223Y82673223D01*
X-34966402Y82656747D01*
X-34986107Y82642133D01*
X-35007151Y82629520D01*
X-35029329Y82619030D01*
X-35052429Y82610765D01*
X-35076227Y82604804D01*
X-35100496Y82601204D01*
X-35125000Y82600000D01*
X-35875000Y82600000D01*
X-35899504Y82601204D01*
X-35923773Y82604804D01*
X-35947571Y82610765D01*
X-35970671Y82619030D01*
X-35992849Y82629520D01*
X-36013893Y82642133D01*
X-36033598Y82656747D01*
X-36051777Y82673223D01*
X-36068253Y82691402D01*
X-36082867Y82711107D01*
X-36095480Y82732151D01*
X-36105970Y82754329D01*
X-36114235Y82777429D01*
X-36120196Y82801227D01*
X-36123796Y82825496D01*
X-36125000Y82850000D01*
X-36125000Y83350000D01*
X-36123796Y83374504D01*
X-36120196Y83398773D01*
X-36114235Y83422571D01*
X-36105970Y83445671D01*
X-36095480Y83467849D01*
X-36082867Y83488893D01*
X-36068253Y83508598D01*
X-36051777Y83526777D01*
X-36033598Y83543253D01*
X-36013893Y83557867D01*
X-35992849Y83570480D01*
X-35970671Y83580970D01*
X-35947571Y83589235D01*
X-35923773Y83595196D01*
X-35899504Y83598796D01*
X-35875000Y83600000D01*
X-35125000Y83600000D01*
X-35100496Y83598796D01*
G37*
G36*
X-49850496Y67998796D02*
G01*
X-49826227Y67995196D01*
X-49802429Y67989235D01*
X-49779329Y67980970D01*
X-49757151Y67970480D01*
X-49736107Y67957867D01*
X-49716402Y67943253D01*
X-49698223Y67926777D01*
X-49681747Y67908598D01*
X-49667133Y67888893D01*
X-49654520Y67867849D01*
X-49644030Y67845671D01*
X-49635765Y67822571D01*
X-49629804Y67798773D01*
X-49626204Y67774504D01*
X-49625000Y67750000D01*
X-49625000Y67250000D01*
X-49626204Y67225496D01*
X-49629804Y67201227D01*
X-49635765Y67177429D01*
X-49644030Y67154329D01*
X-49654520Y67132151D01*
X-49667133Y67111107D01*
X-49681747Y67091402D01*
X-49698223Y67073223D01*
X-49716402Y67056747D01*
X-49736107Y67042133D01*
X-49757151Y67029520D01*
X-49779329Y67019030D01*
X-49802429Y67010765D01*
X-49826227Y67004804D01*
X-49850496Y67001204D01*
X-49875000Y67000000D01*
X-50625000Y67000000D01*
X-50649504Y67001204D01*
X-50673773Y67004804D01*
X-50697571Y67010765D01*
X-50720671Y67019030D01*
X-50742849Y67029520D01*
X-50763893Y67042133D01*
X-50783598Y67056747D01*
X-50801777Y67073223D01*
X-50818253Y67091402D01*
X-50832867Y67111107D01*
X-50845480Y67132151D01*
X-50855970Y67154329D01*
X-50864235Y67177429D01*
X-50870196Y67201227D01*
X-50873796Y67225496D01*
X-50875000Y67250000D01*
X-50875000Y67750000D01*
X-50873796Y67774504D01*
X-50870196Y67798773D01*
X-50864235Y67822571D01*
X-50855970Y67845671D01*
X-50845480Y67867849D01*
X-50832867Y67888893D01*
X-50818253Y67908598D01*
X-50801777Y67926777D01*
X-50783598Y67943253D01*
X-50763893Y67957867D01*
X-50742849Y67970480D01*
X-50720671Y67980970D01*
X-50697571Y67989235D01*
X-50673773Y67995196D01*
X-50649504Y67998796D01*
X-50625000Y68000000D01*
X-49875000Y68000000D01*
X-49850496Y67998796D01*
G37*
G36*
X-49850496Y69998796D02*
G01*
X-49826227Y69995196D01*
X-49802429Y69989235D01*
X-49779329Y69980970D01*
X-49757151Y69970480D01*
X-49736107Y69957867D01*
X-49716402Y69943253D01*
X-49698223Y69926777D01*
X-49681747Y69908598D01*
X-49667133Y69888893D01*
X-49654520Y69867849D01*
X-49644030Y69845671D01*
X-49635765Y69822571D01*
X-49629804Y69798773D01*
X-49626204Y69774504D01*
X-49625000Y69750000D01*
X-49625000Y69250000D01*
X-49626204Y69225496D01*
X-49629804Y69201227D01*
X-49635765Y69177429D01*
X-49644030Y69154329D01*
X-49654520Y69132151D01*
X-49667133Y69111107D01*
X-49681747Y69091402D01*
X-49698223Y69073223D01*
X-49716402Y69056747D01*
X-49736107Y69042133D01*
X-49757151Y69029520D01*
X-49779329Y69019030D01*
X-49802429Y69010765D01*
X-49826227Y69004804D01*
X-49850496Y69001204D01*
X-49875000Y69000000D01*
X-50625000Y69000000D01*
X-50649504Y69001204D01*
X-50673773Y69004804D01*
X-50697571Y69010765D01*
X-50720671Y69019030D01*
X-50742849Y69029520D01*
X-50763893Y69042133D01*
X-50783598Y69056747D01*
X-50801777Y69073223D01*
X-50818253Y69091402D01*
X-50832867Y69111107D01*
X-50845480Y69132151D01*
X-50855970Y69154329D01*
X-50864235Y69177429D01*
X-50870196Y69201227D01*
X-50873796Y69225496D01*
X-50875000Y69250000D01*
X-50875000Y69750000D01*
X-50873796Y69774504D01*
X-50870196Y69798773D01*
X-50864235Y69822571D01*
X-50855970Y69845671D01*
X-50845480Y69867849D01*
X-50832867Y69888893D01*
X-50818253Y69908598D01*
X-50801777Y69926777D01*
X-50783598Y69943253D01*
X-50763893Y69957867D01*
X-50742849Y69970480D01*
X-50720671Y69980970D01*
X-50697571Y69989235D01*
X-50673773Y69995196D01*
X-50649504Y69998796D01*
X-50625000Y70000000D01*
X-49875000Y70000000D01*
X-49850496Y69998796D01*
G37*
G36*
X-37000496Y83598796D02*
G01*
X-36976227Y83595196D01*
X-36952429Y83589235D01*
X-36929329Y83580970D01*
X-36907151Y83570480D01*
X-36886107Y83557867D01*
X-36866402Y83543253D01*
X-36848223Y83526777D01*
X-36831747Y83508598D01*
X-36817133Y83488893D01*
X-36804520Y83467849D01*
X-36794030Y83445671D01*
X-36785765Y83422571D01*
X-36779804Y83398773D01*
X-36776204Y83374504D01*
X-36775000Y83350000D01*
X-36775000Y82850000D01*
X-36776204Y82825496D01*
X-36779804Y82801227D01*
X-36785765Y82777429D01*
X-36794030Y82754329D01*
X-36804520Y82732151D01*
X-36817133Y82711107D01*
X-36831747Y82691402D01*
X-36848223Y82673223D01*
X-36866402Y82656747D01*
X-36886107Y82642133D01*
X-36907151Y82629520D01*
X-36929329Y82619030D01*
X-36952429Y82610765D01*
X-36976227Y82604804D01*
X-37000496Y82601204D01*
X-37025000Y82600000D01*
X-37775000Y82600000D01*
X-37799504Y82601204D01*
X-37823773Y82604804D01*
X-37847571Y82610765D01*
X-37870671Y82619030D01*
X-37892849Y82629520D01*
X-37913893Y82642133D01*
X-37933598Y82656747D01*
X-37951777Y82673223D01*
X-37968253Y82691402D01*
X-37982867Y82711107D01*
X-37995480Y82732151D01*
X-38005970Y82754329D01*
X-38014235Y82777429D01*
X-38020196Y82801227D01*
X-38023796Y82825496D01*
X-38025000Y82850000D01*
X-38025000Y83350000D01*
X-38023796Y83374504D01*
X-38020196Y83398773D01*
X-38014235Y83422571D01*
X-38005970Y83445671D01*
X-37995480Y83467849D01*
X-37982867Y83488893D01*
X-37968253Y83508598D01*
X-37951777Y83526777D01*
X-37933598Y83543253D01*
X-37913893Y83557867D01*
X-37892849Y83570480D01*
X-37870671Y83580970D01*
X-37847571Y83589235D01*
X-37823773Y83595196D01*
X-37799504Y83598796D01*
X-37775000Y83600000D01*
X-37025000Y83600000D01*
X-37000496Y83598796D01*
G37*
G36*
X-37000496Y81598796D02*
G01*
X-36976227Y81595196D01*
X-36952429Y81589235D01*
X-36929329Y81580970D01*
X-36907151Y81570480D01*
X-36886107Y81557867D01*
X-36866402Y81543253D01*
X-36848223Y81526777D01*
X-36831747Y81508598D01*
X-36817133Y81488893D01*
X-36804520Y81467849D01*
X-36794030Y81445671D01*
X-36785765Y81422571D01*
X-36779804Y81398773D01*
X-36776204Y81374504D01*
X-36775000Y81350000D01*
X-36775000Y80850000D01*
X-36776204Y80825496D01*
X-36779804Y80801227D01*
X-36785765Y80777429D01*
X-36794030Y80754329D01*
X-36804520Y80732151D01*
X-36817133Y80711107D01*
X-36831747Y80691402D01*
X-36848223Y80673223D01*
X-36866402Y80656747D01*
X-36886107Y80642133D01*
X-36907151Y80629520D01*
X-36929329Y80619030D01*
X-36952429Y80610765D01*
X-36976227Y80604804D01*
X-37000496Y80601204D01*
X-37025000Y80600000D01*
X-37775000Y80600000D01*
X-37799504Y80601204D01*
X-37823773Y80604804D01*
X-37847571Y80610765D01*
X-37870671Y80619030D01*
X-37892849Y80629520D01*
X-37913893Y80642133D01*
X-37933598Y80656747D01*
X-37951777Y80673223D01*
X-37968253Y80691402D01*
X-37982867Y80711107D01*
X-37995480Y80732151D01*
X-38005970Y80754329D01*
X-38014235Y80777429D01*
X-38020196Y80801227D01*
X-38023796Y80825496D01*
X-38025000Y80850000D01*
X-38025000Y81350000D01*
X-38023796Y81374504D01*
X-38020196Y81398773D01*
X-38014235Y81422571D01*
X-38005970Y81445671D01*
X-37995480Y81467849D01*
X-37982867Y81488893D01*
X-37968253Y81508598D01*
X-37951777Y81526777D01*
X-37933598Y81543253D01*
X-37913893Y81557867D01*
X-37892849Y81570480D01*
X-37870671Y81580970D01*
X-37847571Y81589235D01*
X-37823773Y81595196D01*
X-37799504Y81598796D01*
X-37775000Y81600000D01*
X-37025000Y81600000D01*
X-37000496Y81598796D01*
G37*
G36*
X-45200496Y69298796D02*
G01*
X-45176227Y69295196D01*
X-45152429Y69289235D01*
X-45129329Y69280970D01*
X-45107151Y69270480D01*
X-45086107Y69257867D01*
X-45066402Y69243253D01*
X-45048223Y69226777D01*
X-45031747Y69208598D01*
X-45017133Y69188893D01*
X-45004520Y69167849D01*
X-44994030Y69145671D01*
X-44985765Y69122571D01*
X-44979804Y69098773D01*
X-44976204Y69074504D01*
X-44975000Y69050000D01*
X-44975000Y68550000D01*
X-44976204Y68525496D01*
X-44979804Y68501227D01*
X-44985765Y68477429D01*
X-44994030Y68454329D01*
X-45004520Y68432151D01*
X-45017133Y68411107D01*
X-45031747Y68391402D01*
X-45048223Y68373223D01*
X-45066402Y68356747D01*
X-45086107Y68342133D01*
X-45107151Y68329520D01*
X-45129329Y68319030D01*
X-45152429Y68310765D01*
X-45176227Y68304804D01*
X-45200496Y68301204D01*
X-45225000Y68300000D01*
X-45975000Y68300000D01*
X-45999504Y68301204D01*
X-46023773Y68304804D01*
X-46047571Y68310765D01*
X-46070671Y68319030D01*
X-46092849Y68329520D01*
X-46113893Y68342133D01*
X-46133598Y68356747D01*
X-46151777Y68373223D01*
X-46168253Y68391402D01*
X-46182867Y68411107D01*
X-46195480Y68432151D01*
X-46205970Y68454329D01*
X-46214235Y68477429D01*
X-46220196Y68501227D01*
X-46223796Y68525496D01*
X-46225000Y68550000D01*
X-46225000Y69050000D01*
X-46223796Y69074504D01*
X-46220196Y69098773D01*
X-46214235Y69122571D01*
X-46205970Y69145671D01*
X-46195480Y69167849D01*
X-46182867Y69188893D01*
X-46168253Y69208598D01*
X-46151777Y69226777D01*
X-46133598Y69243253D01*
X-46113893Y69257867D01*
X-46092849Y69270480D01*
X-46070671Y69280970D01*
X-46047571Y69289235D01*
X-46023773Y69295196D01*
X-45999504Y69298796D01*
X-45975000Y69300000D01*
X-45225000Y69300000D01*
X-45200496Y69298796D01*
G37*
G36*
X-45200496Y67298796D02*
G01*
X-45176227Y67295196D01*
X-45152429Y67289235D01*
X-45129329Y67280970D01*
X-45107151Y67270480D01*
X-45086107Y67257867D01*
X-45066402Y67243253D01*
X-45048223Y67226777D01*
X-45031747Y67208598D01*
X-45017133Y67188893D01*
X-45004520Y67167849D01*
X-44994030Y67145671D01*
X-44985765Y67122571D01*
X-44979804Y67098773D01*
X-44976204Y67074504D01*
X-44975000Y67050000D01*
X-44975000Y66550000D01*
X-44976204Y66525496D01*
X-44979804Y66501227D01*
X-44985765Y66477429D01*
X-44994030Y66454329D01*
X-45004520Y66432151D01*
X-45017133Y66411107D01*
X-45031747Y66391402D01*
X-45048223Y66373223D01*
X-45066402Y66356747D01*
X-45086107Y66342133D01*
X-45107151Y66329520D01*
X-45129329Y66319030D01*
X-45152429Y66310765D01*
X-45176227Y66304804D01*
X-45200496Y66301204D01*
X-45225000Y66300000D01*
X-45975000Y66300000D01*
X-45999504Y66301204D01*
X-46023773Y66304804D01*
X-46047571Y66310765D01*
X-46070671Y66319030D01*
X-46092849Y66329520D01*
X-46113893Y66342133D01*
X-46133598Y66356747D01*
X-46151777Y66373223D01*
X-46168253Y66391402D01*
X-46182867Y66411107D01*
X-46195480Y66432151D01*
X-46205970Y66454329D01*
X-46214235Y66477429D01*
X-46220196Y66501227D01*
X-46223796Y66525496D01*
X-46225000Y66550000D01*
X-46225000Y67050000D01*
X-46223796Y67074504D01*
X-46220196Y67098773D01*
X-46214235Y67122571D01*
X-46205970Y67145671D01*
X-46195480Y67167849D01*
X-46182867Y67188893D01*
X-46168253Y67208598D01*
X-46151777Y67226777D01*
X-46133598Y67243253D01*
X-46113893Y67257867D01*
X-46092849Y67270480D01*
X-46070671Y67280970D01*
X-46047571Y67289235D01*
X-46023773Y67295196D01*
X-45999504Y67298796D01*
X-45975000Y67300000D01*
X-45225000Y67300000D01*
X-45200496Y67298796D01*
G37*
G36*
X-42400496Y67298796D02*
G01*
X-42376227Y67295196D01*
X-42352429Y67289235D01*
X-42329329Y67280970D01*
X-42307151Y67270480D01*
X-42286107Y67257867D01*
X-42266402Y67243253D01*
X-42248223Y67226777D01*
X-42231747Y67208598D01*
X-42217133Y67188893D01*
X-42204520Y67167849D01*
X-42194030Y67145671D01*
X-42185765Y67122571D01*
X-42179804Y67098773D01*
X-42176204Y67074504D01*
X-42175000Y67050000D01*
X-42175000Y66550000D01*
X-42176204Y66525496D01*
X-42179804Y66501227D01*
X-42185765Y66477429D01*
X-42194030Y66454329D01*
X-42204520Y66432151D01*
X-42217133Y66411107D01*
X-42231747Y66391402D01*
X-42248223Y66373223D01*
X-42266402Y66356747D01*
X-42286107Y66342133D01*
X-42307151Y66329520D01*
X-42329329Y66319030D01*
X-42352429Y66310765D01*
X-42376227Y66304804D01*
X-42400496Y66301204D01*
X-42425000Y66300000D01*
X-43175000Y66300000D01*
X-43199504Y66301204D01*
X-43223773Y66304804D01*
X-43247571Y66310765D01*
X-43270671Y66319030D01*
X-43292849Y66329520D01*
X-43313893Y66342133D01*
X-43333598Y66356747D01*
X-43351777Y66373223D01*
X-43368253Y66391402D01*
X-43382867Y66411107D01*
X-43395480Y66432151D01*
X-43405970Y66454329D01*
X-43414235Y66477429D01*
X-43420196Y66501227D01*
X-43423796Y66525496D01*
X-43425000Y66550000D01*
X-43425000Y67050000D01*
X-43423796Y67074504D01*
X-43420196Y67098773D01*
X-43414235Y67122571D01*
X-43405970Y67145671D01*
X-43395480Y67167849D01*
X-43382867Y67188893D01*
X-43368253Y67208598D01*
X-43351777Y67226777D01*
X-43333598Y67243253D01*
X-43313893Y67257867D01*
X-43292849Y67270480D01*
X-43270671Y67280970D01*
X-43247571Y67289235D01*
X-43223773Y67295196D01*
X-43199504Y67298796D01*
X-43175000Y67300000D01*
X-42425000Y67300000D01*
X-42400496Y67298796D01*
G37*
G36*
X-42400496Y69298796D02*
G01*
X-42376227Y69295196D01*
X-42352429Y69289235D01*
X-42329329Y69280970D01*
X-42307151Y69270480D01*
X-42286107Y69257867D01*
X-42266402Y69243253D01*
X-42248223Y69226777D01*
X-42231747Y69208598D01*
X-42217133Y69188893D01*
X-42204520Y69167849D01*
X-42194030Y69145671D01*
X-42185765Y69122571D01*
X-42179804Y69098773D01*
X-42176204Y69074504D01*
X-42175000Y69050000D01*
X-42175000Y68550000D01*
X-42176204Y68525496D01*
X-42179804Y68501227D01*
X-42185765Y68477429D01*
X-42194030Y68454329D01*
X-42204520Y68432151D01*
X-42217133Y68411107D01*
X-42231747Y68391402D01*
X-42248223Y68373223D01*
X-42266402Y68356747D01*
X-42286107Y68342133D01*
X-42307151Y68329520D01*
X-42329329Y68319030D01*
X-42352429Y68310765D01*
X-42376227Y68304804D01*
X-42400496Y68301204D01*
X-42425000Y68300000D01*
X-43175000Y68300000D01*
X-43199504Y68301204D01*
X-43223773Y68304804D01*
X-43247571Y68310765D01*
X-43270671Y68319030D01*
X-43292849Y68329520D01*
X-43313893Y68342133D01*
X-43333598Y68356747D01*
X-43351777Y68373223D01*
X-43368253Y68391402D01*
X-43382867Y68411107D01*
X-43395480Y68432151D01*
X-43405970Y68454329D01*
X-43414235Y68477429D01*
X-43420196Y68501227D01*
X-43423796Y68525496D01*
X-43425000Y68550000D01*
X-43425000Y69050000D01*
X-43423796Y69074504D01*
X-43420196Y69098773D01*
X-43414235Y69122571D01*
X-43405970Y69145671D01*
X-43395480Y69167849D01*
X-43382867Y69188893D01*
X-43368253Y69208598D01*
X-43351777Y69226777D01*
X-43333598Y69243253D01*
X-43313893Y69257867D01*
X-43292849Y69270480D01*
X-43270671Y69280970D01*
X-43247571Y69289235D01*
X-43223773Y69295196D01*
X-43199504Y69298796D01*
X-43175000Y69300000D01*
X-42425000Y69300000D01*
X-42400496Y69298796D01*
G37*
G36*
X-39600496Y67248796D02*
G01*
X-39576227Y67245196D01*
X-39552429Y67239235D01*
X-39529329Y67230970D01*
X-39507151Y67220480D01*
X-39486107Y67207867D01*
X-39466402Y67193253D01*
X-39448223Y67176777D01*
X-39431747Y67158598D01*
X-39417133Y67138893D01*
X-39404520Y67117849D01*
X-39394030Y67095671D01*
X-39385765Y67072571D01*
X-39379804Y67048773D01*
X-39376204Y67024504D01*
X-39375000Y67000000D01*
X-39375000Y66500000D01*
X-39376204Y66475496D01*
X-39379804Y66451227D01*
X-39385765Y66427429D01*
X-39394030Y66404329D01*
X-39404520Y66382151D01*
X-39417133Y66361107D01*
X-39431747Y66341402D01*
X-39448223Y66323223D01*
X-39466402Y66306747D01*
X-39486107Y66292133D01*
X-39507151Y66279520D01*
X-39529329Y66269030D01*
X-39552429Y66260765D01*
X-39576227Y66254804D01*
X-39600496Y66251204D01*
X-39625000Y66250000D01*
X-40375000Y66250000D01*
X-40399504Y66251204D01*
X-40423773Y66254804D01*
X-40447571Y66260765D01*
X-40470671Y66269030D01*
X-40492849Y66279520D01*
X-40513893Y66292133D01*
X-40533598Y66306747D01*
X-40551777Y66323223D01*
X-40568253Y66341402D01*
X-40582867Y66361107D01*
X-40595480Y66382151D01*
X-40605970Y66404329D01*
X-40614235Y66427429D01*
X-40620196Y66451227D01*
X-40623796Y66475496D01*
X-40625000Y66500000D01*
X-40625000Y67000000D01*
X-40623796Y67024504D01*
X-40620196Y67048773D01*
X-40614235Y67072571D01*
X-40605970Y67095671D01*
X-40595480Y67117849D01*
X-40582867Y67138893D01*
X-40568253Y67158598D01*
X-40551777Y67176777D01*
X-40533598Y67193253D01*
X-40513893Y67207867D01*
X-40492849Y67220480D01*
X-40470671Y67230970D01*
X-40447571Y67239235D01*
X-40423773Y67245196D01*
X-40399504Y67248796D01*
X-40375000Y67250000D01*
X-39625000Y67250000D01*
X-39600496Y67248796D01*
G37*
G36*
X-39600496Y69248796D02*
G01*
X-39576227Y69245196D01*
X-39552429Y69239235D01*
X-39529329Y69230970D01*
X-39507151Y69220480D01*
X-39486107Y69207867D01*
X-39466402Y69193253D01*
X-39448223Y69176777D01*
X-39431747Y69158598D01*
X-39417133Y69138893D01*
X-39404520Y69117849D01*
X-39394030Y69095671D01*
X-39385765Y69072571D01*
X-39379804Y69048773D01*
X-39376204Y69024504D01*
X-39375000Y69000000D01*
X-39375000Y68500000D01*
X-39376204Y68475496D01*
X-39379804Y68451227D01*
X-39385765Y68427429D01*
X-39394030Y68404329D01*
X-39404520Y68382151D01*
X-39417133Y68361107D01*
X-39431747Y68341402D01*
X-39448223Y68323223D01*
X-39466402Y68306747D01*
X-39486107Y68292133D01*
X-39507151Y68279520D01*
X-39529329Y68269030D01*
X-39552429Y68260765D01*
X-39576227Y68254804D01*
X-39600496Y68251204D01*
X-39625000Y68250000D01*
X-40375000Y68250000D01*
X-40399504Y68251204D01*
X-40423773Y68254804D01*
X-40447571Y68260765D01*
X-40470671Y68269030D01*
X-40492849Y68279520D01*
X-40513893Y68292133D01*
X-40533598Y68306747D01*
X-40551777Y68323223D01*
X-40568253Y68341402D01*
X-40582867Y68361107D01*
X-40595480Y68382151D01*
X-40605970Y68404329D01*
X-40614235Y68427429D01*
X-40620196Y68451227D01*
X-40623796Y68475496D01*
X-40625000Y68500000D01*
X-40625000Y69000000D01*
X-40623796Y69024504D01*
X-40620196Y69048773D01*
X-40614235Y69072571D01*
X-40605970Y69095671D01*
X-40595480Y69117849D01*
X-40582867Y69138893D01*
X-40568253Y69158598D01*
X-40551777Y69176777D01*
X-40533598Y69193253D01*
X-40513893Y69207867D01*
X-40492849Y69220480D01*
X-40470671Y69230970D01*
X-40447571Y69239235D01*
X-40423773Y69245196D01*
X-40399504Y69248796D01*
X-40375000Y69250000D01*
X-39625000Y69250000D01*
X-39600496Y69248796D01*
G37*
G36*
X-34100496Y67248796D02*
G01*
X-34076227Y67245196D01*
X-34052429Y67239235D01*
X-34029329Y67230970D01*
X-34007151Y67220480D01*
X-33986107Y67207867D01*
X-33966402Y67193253D01*
X-33948223Y67176777D01*
X-33931747Y67158598D01*
X-33917133Y67138893D01*
X-33904520Y67117849D01*
X-33894030Y67095671D01*
X-33885765Y67072571D01*
X-33879804Y67048773D01*
X-33876204Y67024504D01*
X-33875000Y67000000D01*
X-33875000Y66500000D01*
X-33876204Y66475496D01*
X-33879804Y66451227D01*
X-33885765Y66427429D01*
X-33894030Y66404329D01*
X-33904520Y66382151D01*
X-33917133Y66361107D01*
X-33931747Y66341402D01*
X-33948223Y66323223D01*
X-33966402Y66306747D01*
X-33986107Y66292133D01*
X-34007151Y66279520D01*
X-34029329Y66269030D01*
X-34052429Y66260765D01*
X-34076227Y66254804D01*
X-34100496Y66251204D01*
X-34125000Y66250000D01*
X-34875000Y66250000D01*
X-34899504Y66251204D01*
X-34923773Y66254804D01*
X-34947571Y66260765D01*
X-34970671Y66269030D01*
X-34992849Y66279520D01*
X-35013893Y66292133D01*
X-35033598Y66306747D01*
X-35051777Y66323223D01*
X-35068253Y66341402D01*
X-35082867Y66361107D01*
X-35095480Y66382151D01*
X-35105970Y66404329D01*
X-35114235Y66427429D01*
X-35120196Y66451227D01*
X-35123796Y66475496D01*
X-35125000Y66500000D01*
X-35125000Y67000000D01*
X-35123796Y67024504D01*
X-35120196Y67048773D01*
X-35114235Y67072571D01*
X-35105970Y67095671D01*
X-35095480Y67117849D01*
X-35082867Y67138893D01*
X-35068253Y67158598D01*
X-35051777Y67176777D01*
X-35033598Y67193253D01*
X-35013893Y67207867D01*
X-34992849Y67220480D01*
X-34970671Y67230970D01*
X-34947571Y67239235D01*
X-34923773Y67245196D01*
X-34899504Y67248796D01*
X-34875000Y67250000D01*
X-34125000Y67250000D01*
X-34100496Y67248796D01*
G37*
G36*
X-34100496Y69248796D02*
G01*
X-34076227Y69245196D01*
X-34052429Y69239235D01*
X-34029329Y69230970D01*
X-34007151Y69220480D01*
X-33986107Y69207867D01*
X-33966402Y69193253D01*
X-33948223Y69176777D01*
X-33931747Y69158598D01*
X-33917133Y69138893D01*
X-33904520Y69117849D01*
X-33894030Y69095671D01*
X-33885765Y69072571D01*
X-33879804Y69048773D01*
X-33876204Y69024504D01*
X-33875000Y69000000D01*
X-33875000Y68500000D01*
X-33876204Y68475496D01*
X-33879804Y68451227D01*
X-33885765Y68427429D01*
X-33894030Y68404329D01*
X-33904520Y68382151D01*
X-33917133Y68361107D01*
X-33931747Y68341402D01*
X-33948223Y68323223D01*
X-33966402Y68306747D01*
X-33986107Y68292133D01*
X-34007151Y68279520D01*
X-34029329Y68269030D01*
X-34052429Y68260765D01*
X-34076227Y68254804D01*
X-34100496Y68251204D01*
X-34125000Y68250000D01*
X-34875000Y68250000D01*
X-34899504Y68251204D01*
X-34923773Y68254804D01*
X-34947571Y68260765D01*
X-34970671Y68269030D01*
X-34992849Y68279520D01*
X-35013893Y68292133D01*
X-35033598Y68306747D01*
X-35051777Y68323223D01*
X-35068253Y68341402D01*
X-35082867Y68361107D01*
X-35095480Y68382151D01*
X-35105970Y68404329D01*
X-35114235Y68427429D01*
X-35120196Y68451227D01*
X-35123796Y68475496D01*
X-35125000Y68500000D01*
X-35125000Y69000000D01*
X-35123796Y69024504D01*
X-35120196Y69048773D01*
X-35114235Y69072571D01*
X-35105970Y69095671D01*
X-35095480Y69117849D01*
X-35082867Y69138893D01*
X-35068253Y69158598D01*
X-35051777Y69176777D01*
X-35033598Y69193253D01*
X-35013893Y69207867D01*
X-34992849Y69220480D01*
X-34970671Y69230970D01*
X-34947571Y69239235D01*
X-34923773Y69245196D01*
X-34899504Y69248796D01*
X-34875000Y69250000D01*
X-34125000Y69250000D01*
X-34100496Y69248796D01*
G37*
G36*
X-59850496Y67998796D02*
G01*
X-59826227Y67995196D01*
X-59802429Y67989235D01*
X-59779329Y67980970D01*
X-59757151Y67970480D01*
X-59736107Y67957867D01*
X-59716402Y67943253D01*
X-59698223Y67926777D01*
X-59681747Y67908598D01*
X-59667133Y67888893D01*
X-59654520Y67867849D01*
X-59644030Y67845671D01*
X-59635765Y67822571D01*
X-59629804Y67798773D01*
X-59626204Y67774504D01*
X-59625000Y67750000D01*
X-59625000Y67250000D01*
X-59626204Y67225496D01*
X-59629804Y67201227D01*
X-59635765Y67177429D01*
X-59644030Y67154329D01*
X-59654520Y67132151D01*
X-59667133Y67111107D01*
X-59681747Y67091402D01*
X-59698223Y67073223D01*
X-59716402Y67056747D01*
X-59736107Y67042133D01*
X-59757151Y67029520D01*
X-59779329Y67019030D01*
X-59802429Y67010765D01*
X-59826227Y67004804D01*
X-59850496Y67001204D01*
X-59875000Y67000000D01*
X-60625000Y67000000D01*
X-60649504Y67001204D01*
X-60673773Y67004804D01*
X-60697571Y67010765D01*
X-60720671Y67019030D01*
X-60742849Y67029520D01*
X-60763893Y67042133D01*
X-60783598Y67056747D01*
X-60801777Y67073223D01*
X-60818253Y67091402D01*
X-60832867Y67111107D01*
X-60845480Y67132151D01*
X-60855970Y67154329D01*
X-60864235Y67177429D01*
X-60870196Y67201227D01*
X-60873796Y67225496D01*
X-60875000Y67250000D01*
X-60875000Y67750000D01*
X-60873796Y67774504D01*
X-60870196Y67798773D01*
X-60864235Y67822571D01*
X-60855970Y67845671D01*
X-60845480Y67867849D01*
X-60832867Y67888893D01*
X-60818253Y67908598D01*
X-60801777Y67926777D01*
X-60783598Y67943253D01*
X-60763893Y67957867D01*
X-60742849Y67970480D01*
X-60720671Y67980970D01*
X-60697571Y67989235D01*
X-60673773Y67995196D01*
X-60649504Y67998796D01*
X-60625000Y68000000D01*
X-59875000Y68000000D01*
X-59850496Y67998796D01*
G37*
G36*
X-59850496Y69998796D02*
G01*
X-59826227Y69995196D01*
X-59802429Y69989235D01*
X-59779329Y69980970D01*
X-59757151Y69970480D01*
X-59736107Y69957867D01*
X-59716402Y69943253D01*
X-59698223Y69926777D01*
X-59681747Y69908598D01*
X-59667133Y69888893D01*
X-59654520Y69867849D01*
X-59644030Y69845671D01*
X-59635765Y69822571D01*
X-59629804Y69798773D01*
X-59626204Y69774504D01*
X-59625000Y69750000D01*
X-59625000Y69250000D01*
X-59626204Y69225496D01*
X-59629804Y69201227D01*
X-59635765Y69177429D01*
X-59644030Y69154329D01*
X-59654520Y69132151D01*
X-59667133Y69111107D01*
X-59681747Y69091402D01*
X-59698223Y69073223D01*
X-59716402Y69056747D01*
X-59736107Y69042133D01*
X-59757151Y69029520D01*
X-59779329Y69019030D01*
X-59802429Y69010765D01*
X-59826227Y69004804D01*
X-59850496Y69001204D01*
X-59875000Y69000000D01*
X-60625000Y69000000D01*
X-60649504Y69001204D01*
X-60673773Y69004804D01*
X-60697571Y69010765D01*
X-60720671Y69019030D01*
X-60742849Y69029520D01*
X-60763893Y69042133D01*
X-60783598Y69056747D01*
X-60801777Y69073223D01*
X-60818253Y69091402D01*
X-60832867Y69111107D01*
X-60845480Y69132151D01*
X-60855970Y69154329D01*
X-60864235Y69177429D01*
X-60870196Y69201227D01*
X-60873796Y69225496D01*
X-60875000Y69250000D01*
X-60875000Y69750000D01*
X-60873796Y69774504D01*
X-60870196Y69798773D01*
X-60864235Y69822571D01*
X-60855970Y69845671D01*
X-60845480Y69867849D01*
X-60832867Y69888893D01*
X-60818253Y69908598D01*
X-60801777Y69926777D01*
X-60783598Y69943253D01*
X-60763893Y69957867D01*
X-60742849Y69970480D01*
X-60720671Y69980970D01*
X-60697571Y69989235D01*
X-60673773Y69995196D01*
X-60649504Y69998796D01*
X-60625000Y70000000D01*
X-59875000Y70000000D01*
X-59850496Y69998796D01*
G37*
G36*
X-61850496Y69998796D02*
G01*
X-61826227Y69995196D01*
X-61802429Y69989235D01*
X-61779329Y69980970D01*
X-61757151Y69970480D01*
X-61736107Y69957867D01*
X-61716402Y69943253D01*
X-61698223Y69926777D01*
X-61681747Y69908598D01*
X-61667133Y69888893D01*
X-61654520Y69867849D01*
X-61644030Y69845671D01*
X-61635765Y69822571D01*
X-61629804Y69798773D01*
X-61626204Y69774504D01*
X-61625000Y69750000D01*
X-61625000Y69250000D01*
X-61626204Y69225496D01*
X-61629804Y69201227D01*
X-61635765Y69177429D01*
X-61644030Y69154329D01*
X-61654520Y69132151D01*
X-61667133Y69111107D01*
X-61681747Y69091402D01*
X-61698223Y69073223D01*
X-61716402Y69056747D01*
X-61736107Y69042133D01*
X-61757151Y69029520D01*
X-61779329Y69019030D01*
X-61802429Y69010765D01*
X-61826227Y69004804D01*
X-61850496Y69001204D01*
X-61875000Y69000000D01*
X-62625000Y69000000D01*
X-62649504Y69001204D01*
X-62673773Y69004804D01*
X-62697571Y69010765D01*
X-62720671Y69019030D01*
X-62742849Y69029520D01*
X-62763893Y69042133D01*
X-62783598Y69056747D01*
X-62801777Y69073223D01*
X-62818253Y69091402D01*
X-62832867Y69111107D01*
X-62845480Y69132151D01*
X-62855970Y69154329D01*
X-62864235Y69177429D01*
X-62870196Y69201227D01*
X-62873796Y69225496D01*
X-62875000Y69250000D01*
X-62875000Y69750000D01*
X-62873796Y69774504D01*
X-62870196Y69798773D01*
X-62864235Y69822571D01*
X-62855970Y69845671D01*
X-62845480Y69867849D01*
X-62832867Y69888893D01*
X-62818253Y69908598D01*
X-62801777Y69926777D01*
X-62783598Y69943253D01*
X-62763893Y69957867D01*
X-62742849Y69970480D01*
X-62720671Y69980970D01*
X-62697571Y69989235D01*
X-62673773Y69995196D01*
X-62649504Y69998796D01*
X-62625000Y70000000D01*
X-61875000Y70000000D01*
X-61850496Y69998796D01*
G37*
G36*
X-61850496Y67998796D02*
G01*
X-61826227Y67995196D01*
X-61802429Y67989235D01*
X-61779329Y67980970D01*
X-61757151Y67970480D01*
X-61736107Y67957867D01*
X-61716402Y67943253D01*
X-61698223Y67926777D01*
X-61681747Y67908598D01*
X-61667133Y67888893D01*
X-61654520Y67867849D01*
X-61644030Y67845671D01*
X-61635765Y67822571D01*
X-61629804Y67798773D01*
X-61626204Y67774504D01*
X-61625000Y67750000D01*
X-61625000Y67250000D01*
X-61626204Y67225496D01*
X-61629804Y67201227D01*
X-61635765Y67177429D01*
X-61644030Y67154329D01*
X-61654520Y67132151D01*
X-61667133Y67111107D01*
X-61681747Y67091402D01*
X-61698223Y67073223D01*
X-61716402Y67056747D01*
X-61736107Y67042133D01*
X-61757151Y67029520D01*
X-61779329Y67019030D01*
X-61802429Y67010765D01*
X-61826227Y67004804D01*
X-61850496Y67001204D01*
X-61875000Y67000000D01*
X-62625000Y67000000D01*
X-62649504Y67001204D01*
X-62673773Y67004804D01*
X-62697571Y67010765D01*
X-62720671Y67019030D01*
X-62742849Y67029520D01*
X-62763893Y67042133D01*
X-62783598Y67056747D01*
X-62801777Y67073223D01*
X-62818253Y67091402D01*
X-62832867Y67111107D01*
X-62845480Y67132151D01*
X-62855970Y67154329D01*
X-62864235Y67177429D01*
X-62870196Y67201227D01*
X-62873796Y67225496D01*
X-62875000Y67250000D01*
X-62875000Y67750000D01*
X-62873796Y67774504D01*
X-62870196Y67798773D01*
X-62864235Y67822571D01*
X-62855970Y67845671D01*
X-62845480Y67867849D01*
X-62832867Y67888893D01*
X-62818253Y67908598D01*
X-62801777Y67926777D01*
X-62783598Y67943253D01*
X-62763893Y67957867D01*
X-62742849Y67970480D01*
X-62720671Y67980970D01*
X-62697571Y67989235D01*
X-62673773Y67995196D01*
X-62649504Y67998796D01*
X-62625000Y68000000D01*
X-61875000Y68000000D01*
X-61850496Y67998796D01*
G37*
G36*
X-63850496Y69998796D02*
G01*
X-63826227Y69995196D01*
X-63802429Y69989235D01*
X-63779329Y69980970D01*
X-63757151Y69970480D01*
X-63736107Y69957867D01*
X-63716402Y69943253D01*
X-63698223Y69926777D01*
X-63681747Y69908598D01*
X-63667133Y69888893D01*
X-63654520Y69867849D01*
X-63644030Y69845671D01*
X-63635765Y69822571D01*
X-63629804Y69798773D01*
X-63626204Y69774504D01*
X-63625000Y69750000D01*
X-63625000Y69250000D01*
X-63626204Y69225496D01*
X-63629804Y69201227D01*
X-63635765Y69177429D01*
X-63644030Y69154329D01*
X-63654520Y69132151D01*
X-63667133Y69111107D01*
X-63681747Y69091402D01*
X-63698223Y69073223D01*
X-63716402Y69056747D01*
X-63736107Y69042133D01*
X-63757151Y69029520D01*
X-63779329Y69019030D01*
X-63802429Y69010765D01*
X-63826227Y69004804D01*
X-63850496Y69001204D01*
X-63875000Y69000000D01*
X-64625000Y69000000D01*
X-64649504Y69001204D01*
X-64673773Y69004804D01*
X-64697571Y69010765D01*
X-64720671Y69019030D01*
X-64742849Y69029520D01*
X-64763893Y69042133D01*
X-64783598Y69056747D01*
X-64801777Y69073223D01*
X-64818253Y69091402D01*
X-64832867Y69111107D01*
X-64845480Y69132151D01*
X-64855970Y69154329D01*
X-64864235Y69177429D01*
X-64870196Y69201227D01*
X-64873796Y69225496D01*
X-64875000Y69250000D01*
X-64875000Y69750000D01*
X-64873796Y69774504D01*
X-64870196Y69798773D01*
X-64864235Y69822571D01*
X-64855970Y69845671D01*
X-64845480Y69867849D01*
X-64832867Y69888893D01*
X-64818253Y69908598D01*
X-64801777Y69926777D01*
X-64783598Y69943253D01*
X-64763893Y69957867D01*
X-64742849Y69970480D01*
X-64720671Y69980970D01*
X-64697571Y69989235D01*
X-64673773Y69995196D01*
X-64649504Y69998796D01*
X-64625000Y70000000D01*
X-63875000Y70000000D01*
X-63850496Y69998796D01*
G37*
G36*
X-63850496Y67998796D02*
G01*
X-63826227Y67995196D01*
X-63802429Y67989235D01*
X-63779329Y67980970D01*
X-63757151Y67970480D01*
X-63736107Y67957867D01*
X-63716402Y67943253D01*
X-63698223Y67926777D01*
X-63681747Y67908598D01*
X-63667133Y67888893D01*
X-63654520Y67867849D01*
X-63644030Y67845671D01*
X-63635765Y67822571D01*
X-63629804Y67798773D01*
X-63626204Y67774504D01*
X-63625000Y67750000D01*
X-63625000Y67250000D01*
X-63626204Y67225496D01*
X-63629804Y67201227D01*
X-63635765Y67177429D01*
X-63644030Y67154329D01*
X-63654520Y67132151D01*
X-63667133Y67111107D01*
X-63681747Y67091402D01*
X-63698223Y67073223D01*
X-63716402Y67056747D01*
X-63736107Y67042133D01*
X-63757151Y67029520D01*
X-63779329Y67019030D01*
X-63802429Y67010765D01*
X-63826227Y67004804D01*
X-63850496Y67001204D01*
X-63875000Y67000000D01*
X-64625000Y67000000D01*
X-64649504Y67001204D01*
X-64673773Y67004804D01*
X-64697571Y67010765D01*
X-64720671Y67019030D01*
X-64742849Y67029520D01*
X-64763893Y67042133D01*
X-64783598Y67056747D01*
X-64801777Y67073223D01*
X-64818253Y67091402D01*
X-64832867Y67111107D01*
X-64845480Y67132151D01*
X-64855970Y67154329D01*
X-64864235Y67177429D01*
X-64870196Y67201227D01*
X-64873796Y67225496D01*
X-64875000Y67250000D01*
X-64875000Y67750000D01*
X-64873796Y67774504D01*
X-64870196Y67798773D01*
X-64864235Y67822571D01*
X-64855970Y67845671D01*
X-64845480Y67867849D01*
X-64832867Y67888893D01*
X-64818253Y67908598D01*
X-64801777Y67926777D01*
X-64783598Y67943253D01*
X-64763893Y67957867D01*
X-64742849Y67970480D01*
X-64720671Y67980970D01*
X-64697571Y67989235D01*
X-64673773Y67995196D01*
X-64649504Y67998796D01*
X-64625000Y68000000D01*
X-63875000Y68000000D01*
X-63850496Y67998796D01*
G37*
G36*
X-36800496Y69248796D02*
G01*
X-36776227Y69245196D01*
X-36752429Y69239235D01*
X-36729329Y69230970D01*
X-36707151Y69220480D01*
X-36686107Y69207867D01*
X-36666402Y69193253D01*
X-36648223Y69176777D01*
X-36631747Y69158598D01*
X-36617133Y69138893D01*
X-36604520Y69117849D01*
X-36594030Y69095671D01*
X-36585765Y69072571D01*
X-36579804Y69048773D01*
X-36576204Y69024504D01*
X-36575000Y69000000D01*
X-36575000Y68500000D01*
X-36576204Y68475496D01*
X-36579804Y68451227D01*
X-36585765Y68427429D01*
X-36594030Y68404329D01*
X-36604520Y68382151D01*
X-36617133Y68361107D01*
X-36631747Y68341402D01*
X-36648223Y68323223D01*
X-36666402Y68306747D01*
X-36686107Y68292133D01*
X-36707151Y68279520D01*
X-36729329Y68269030D01*
X-36752429Y68260765D01*
X-36776227Y68254804D01*
X-36800496Y68251204D01*
X-36825000Y68250000D01*
X-37575000Y68250000D01*
X-37599504Y68251204D01*
X-37623773Y68254804D01*
X-37647571Y68260765D01*
X-37670671Y68269030D01*
X-37692849Y68279520D01*
X-37713893Y68292133D01*
X-37733598Y68306747D01*
X-37751777Y68323223D01*
X-37768253Y68341402D01*
X-37782867Y68361107D01*
X-37795480Y68382151D01*
X-37805970Y68404329D01*
X-37814235Y68427429D01*
X-37820196Y68451227D01*
X-37823796Y68475496D01*
X-37825000Y68500000D01*
X-37825000Y69000000D01*
X-37823796Y69024504D01*
X-37820196Y69048773D01*
X-37814235Y69072571D01*
X-37805970Y69095671D01*
X-37795480Y69117849D01*
X-37782867Y69138893D01*
X-37768253Y69158598D01*
X-37751777Y69176777D01*
X-37733598Y69193253D01*
X-37713893Y69207867D01*
X-37692849Y69220480D01*
X-37670671Y69230970D01*
X-37647571Y69239235D01*
X-37623773Y69245196D01*
X-37599504Y69248796D01*
X-37575000Y69250000D01*
X-36825000Y69250000D01*
X-36800496Y69248796D01*
G37*
G36*
X-36800496Y67248796D02*
G01*
X-36776227Y67245196D01*
X-36752429Y67239235D01*
X-36729329Y67230970D01*
X-36707151Y67220480D01*
X-36686107Y67207867D01*
X-36666402Y67193253D01*
X-36648223Y67176777D01*
X-36631747Y67158598D01*
X-36617133Y67138893D01*
X-36604520Y67117849D01*
X-36594030Y67095671D01*
X-36585765Y67072571D01*
X-36579804Y67048773D01*
X-36576204Y67024504D01*
X-36575000Y67000000D01*
X-36575000Y66500000D01*
X-36576204Y66475496D01*
X-36579804Y66451227D01*
X-36585765Y66427429D01*
X-36594030Y66404329D01*
X-36604520Y66382151D01*
X-36617133Y66361107D01*
X-36631747Y66341402D01*
X-36648223Y66323223D01*
X-36666402Y66306747D01*
X-36686107Y66292133D01*
X-36707151Y66279520D01*
X-36729329Y66269030D01*
X-36752429Y66260765D01*
X-36776227Y66254804D01*
X-36800496Y66251204D01*
X-36825000Y66250000D01*
X-37575000Y66250000D01*
X-37599504Y66251204D01*
X-37623773Y66254804D01*
X-37647571Y66260765D01*
X-37670671Y66269030D01*
X-37692849Y66279520D01*
X-37713893Y66292133D01*
X-37733598Y66306747D01*
X-37751777Y66323223D01*
X-37768253Y66341402D01*
X-37782867Y66361107D01*
X-37795480Y66382151D01*
X-37805970Y66404329D01*
X-37814235Y66427429D01*
X-37820196Y66451227D01*
X-37823796Y66475496D01*
X-37825000Y66500000D01*
X-37825000Y67000000D01*
X-37823796Y67024504D01*
X-37820196Y67048773D01*
X-37814235Y67072571D01*
X-37805970Y67095671D01*
X-37795480Y67117849D01*
X-37782867Y67138893D01*
X-37768253Y67158598D01*
X-37751777Y67176777D01*
X-37733598Y67193253D01*
X-37713893Y67207867D01*
X-37692849Y67220480D01*
X-37670671Y67230970D01*
X-37647571Y67239235D01*
X-37623773Y67245196D01*
X-37599504Y67248796D01*
X-37575000Y67250000D01*
X-36825000Y67250000D01*
X-36800496Y67248796D01*
G37*
G36*
X-51850496Y69998796D02*
G01*
X-51826227Y69995196D01*
X-51802429Y69989235D01*
X-51779329Y69980970D01*
X-51757151Y69970480D01*
X-51736107Y69957867D01*
X-51716402Y69943253D01*
X-51698223Y69926777D01*
X-51681747Y69908598D01*
X-51667133Y69888893D01*
X-51654520Y69867849D01*
X-51644030Y69845671D01*
X-51635765Y69822571D01*
X-51629804Y69798773D01*
X-51626204Y69774504D01*
X-51625000Y69750000D01*
X-51625000Y69250000D01*
X-51626204Y69225496D01*
X-51629804Y69201227D01*
X-51635765Y69177429D01*
X-51644030Y69154329D01*
X-51654520Y69132151D01*
X-51667133Y69111107D01*
X-51681747Y69091402D01*
X-51698223Y69073223D01*
X-51716402Y69056747D01*
X-51736107Y69042133D01*
X-51757151Y69029520D01*
X-51779329Y69019030D01*
X-51802429Y69010765D01*
X-51826227Y69004804D01*
X-51850496Y69001204D01*
X-51875000Y69000000D01*
X-52625000Y69000000D01*
X-52649504Y69001204D01*
X-52673773Y69004804D01*
X-52697571Y69010765D01*
X-52720671Y69019030D01*
X-52742849Y69029520D01*
X-52763893Y69042133D01*
X-52783598Y69056747D01*
X-52801777Y69073223D01*
X-52818253Y69091402D01*
X-52832867Y69111107D01*
X-52845480Y69132151D01*
X-52855970Y69154329D01*
X-52864235Y69177429D01*
X-52870196Y69201227D01*
X-52873796Y69225496D01*
X-52875000Y69250000D01*
X-52875000Y69750000D01*
X-52873796Y69774504D01*
X-52870196Y69798773D01*
X-52864235Y69822571D01*
X-52855970Y69845671D01*
X-52845480Y69867849D01*
X-52832867Y69888893D01*
X-52818253Y69908598D01*
X-52801777Y69926777D01*
X-52783598Y69943253D01*
X-52763893Y69957867D01*
X-52742849Y69970480D01*
X-52720671Y69980970D01*
X-52697571Y69989235D01*
X-52673773Y69995196D01*
X-52649504Y69998796D01*
X-52625000Y70000000D01*
X-51875000Y70000000D01*
X-51850496Y69998796D01*
G37*
G36*
X-51850496Y67998796D02*
G01*
X-51826227Y67995196D01*
X-51802429Y67989235D01*
X-51779329Y67980970D01*
X-51757151Y67970480D01*
X-51736107Y67957867D01*
X-51716402Y67943253D01*
X-51698223Y67926777D01*
X-51681747Y67908598D01*
X-51667133Y67888893D01*
X-51654520Y67867849D01*
X-51644030Y67845671D01*
X-51635765Y67822571D01*
X-51629804Y67798773D01*
X-51626204Y67774504D01*
X-51625000Y67750000D01*
X-51625000Y67250000D01*
X-51626204Y67225496D01*
X-51629804Y67201227D01*
X-51635765Y67177429D01*
X-51644030Y67154329D01*
X-51654520Y67132151D01*
X-51667133Y67111107D01*
X-51681747Y67091402D01*
X-51698223Y67073223D01*
X-51716402Y67056747D01*
X-51736107Y67042133D01*
X-51757151Y67029520D01*
X-51779329Y67019030D01*
X-51802429Y67010765D01*
X-51826227Y67004804D01*
X-51850496Y67001204D01*
X-51875000Y67000000D01*
X-52625000Y67000000D01*
X-52649504Y67001204D01*
X-52673773Y67004804D01*
X-52697571Y67010765D01*
X-52720671Y67019030D01*
X-52742849Y67029520D01*
X-52763893Y67042133D01*
X-52783598Y67056747D01*
X-52801777Y67073223D01*
X-52818253Y67091402D01*
X-52832867Y67111107D01*
X-52845480Y67132151D01*
X-52855970Y67154329D01*
X-52864235Y67177429D01*
X-52870196Y67201227D01*
X-52873796Y67225496D01*
X-52875000Y67250000D01*
X-52875000Y67750000D01*
X-52873796Y67774504D01*
X-52870196Y67798773D01*
X-52864235Y67822571D01*
X-52855970Y67845671D01*
X-52845480Y67867849D01*
X-52832867Y67888893D01*
X-52818253Y67908598D01*
X-52801777Y67926777D01*
X-52783598Y67943253D01*
X-52763893Y67957867D01*
X-52742849Y67970480D01*
X-52720671Y67980970D01*
X-52697571Y67989235D01*
X-52673773Y67995196D01*
X-52649504Y67998796D01*
X-52625000Y68000000D01*
X-51875000Y68000000D01*
X-51850496Y67998796D01*
G37*
G36*
X-42350496Y61998796D02*
G01*
X-42326227Y61995196D01*
X-42302429Y61989235D01*
X-42279329Y61980970D01*
X-42257151Y61970480D01*
X-42236107Y61957867D01*
X-42216402Y61943253D01*
X-42198223Y61926777D01*
X-42181747Y61908598D01*
X-42167133Y61888893D01*
X-42154520Y61867849D01*
X-42144030Y61845671D01*
X-42135765Y61822571D01*
X-42129804Y61798773D01*
X-42126204Y61774504D01*
X-42125000Y61750000D01*
X-42125000Y61250000D01*
X-42126204Y61225496D01*
X-42129804Y61201227D01*
X-42135765Y61177429D01*
X-42144030Y61154329D01*
X-42154520Y61132151D01*
X-42167133Y61111107D01*
X-42181747Y61091402D01*
X-42198223Y61073223D01*
X-42216402Y61056747D01*
X-42236107Y61042133D01*
X-42257151Y61029520D01*
X-42279329Y61019030D01*
X-42302429Y61010765D01*
X-42326227Y61004804D01*
X-42350496Y61001204D01*
X-42375000Y61000000D01*
X-43125000Y61000000D01*
X-43149504Y61001204D01*
X-43173773Y61004804D01*
X-43197571Y61010765D01*
X-43220671Y61019030D01*
X-43242849Y61029520D01*
X-43263893Y61042133D01*
X-43283598Y61056747D01*
X-43301777Y61073223D01*
X-43318253Y61091402D01*
X-43332867Y61111107D01*
X-43345480Y61132151D01*
X-43355970Y61154329D01*
X-43364235Y61177429D01*
X-43370196Y61201227D01*
X-43373796Y61225496D01*
X-43375000Y61250000D01*
X-43375000Y61750000D01*
X-43373796Y61774504D01*
X-43370196Y61798773D01*
X-43364235Y61822571D01*
X-43355970Y61845671D01*
X-43345480Y61867849D01*
X-43332867Y61888893D01*
X-43318253Y61908598D01*
X-43301777Y61926777D01*
X-43283598Y61943253D01*
X-43263893Y61957867D01*
X-43242849Y61970480D01*
X-43220671Y61980970D01*
X-43197571Y61989235D01*
X-43173773Y61995196D01*
X-43149504Y61998796D01*
X-43125000Y62000000D01*
X-42375000Y62000000D01*
X-42350496Y61998796D01*
G37*
G36*
X-42350496Y63998796D02*
G01*
X-42326227Y63995196D01*
X-42302429Y63989235D01*
X-42279329Y63980970D01*
X-42257151Y63970480D01*
X-42236107Y63957867D01*
X-42216402Y63943253D01*
X-42198223Y63926777D01*
X-42181747Y63908598D01*
X-42167133Y63888893D01*
X-42154520Y63867849D01*
X-42144030Y63845671D01*
X-42135765Y63822571D01*
X-42129804Y63798773D01*
X-42126204Y63774504D01*
X-42125000Y63750000D01*
X-42125000Y63250000D01*
X-42126204Y63225496D01*
X-42129804Y63201227D01*
X-42135765Y63177429D01*
X-42144030Y63154329D01*
X-42154520Y63132151D01*
X-42167133Y63111107D01*
X-42181747Y63091402D01*
X-42198223Y63073223D01*
X-42216402Y63056747D01*
X-42236107Y63042133D01*
X-42257151Y63029520D01*
X-42279329Y63019030D01*
X-42302429Y63010765D01*
X-42326227Y63004804D01*
X-42350496Y63001204D01*
X-42375000Y63000000D01*
X-43125000Y63000000D01*
X-43149504Y63001204D01*
X-43173773Y63004804D01*
X-43197571Y63010765D01*
X-43220671Y63019030D01*
X-43242849Y63029520D01*
X-43263893Y63042133D01*
X-43283598Y63056747D01*
X-43301777Y63073223D01*
X-43318253Y63091402D01*
X-43332867Y63111107D01*
X-43345480Y63132151D01*
X-43355970Y63154329D01*
X-43364235Y63177429D01*
X-43370196Y63201227D01*
X-43373796Y63225496D01*
X-43375000Y63250000D01*
X-43375000Y63750000D01*
X-43373796Y63774504D01*
X-43370196Y63798773D01*
X-43364235Y63822571D01*
X-43355970Y63845671D01*
X-43345480Y63867849D01*
X-43332867Y63888893D01*
X-43318253Y63908598D01*
X-43301777Y63926777D01*
X-43283598Y63943253D01*
X-43263893Y63957867D01*
X-43242849Y63970480D01*
X-43220671Y63980970D01*
X-43197571Y63989235D01*
X-43173773Y63995196D01*
X-43149504Y63998796D01*
X-43125000Y64000000D01*
X-42375000Y64000000D01*
X-42350496Y63998796D01*
G37*
G36*
X-42472309Y58648947D02*
G01*
X-42451074Y58645797D01*
X-42430250Y58640581D01*
X-42410038Y58633349D01*
X-42390632Y58624170D01*
X-42372219Y58613134D01*
X-42354976Y58600346D01*
X-42339070Y58585930D01*
X-42324654Y58570024D01*
X-42311866Y58552781D01*
X-42300830Y58534368D01*
X-42291651Y58514962D01*
X-42284419Y58494750D01*
X-42279203Y58473926D01*
X-42276053Y58452691D01*
X-42275000Y58431250D01*
X-42275000Y57993750D01*
X-42276053Y57972309D01*
X-42279203Y57951074D01*
X-42284419Y57930250D01*
X-42291651Y57910038D01*
X-42300830Y57890632D01*
X-42311866Y57872219D01*
X-42324654Y57854976D01*
X-42339070Y57839070D01*
X-42354976Y57824654D01*
X-42372219Y57811866D01*
X-42390632Y57800830D01*
X-42410038Y57791651D01*
X-42430250Y57784419D01*
X-42451074Y57779203D01*
X-42472309Y57776053D01*
X-42493750Y57775000D01*
X-43006250Y57775000D01*
X-43027691Y57776053D01*
X-43048926Y57779203D01*
X-43069750Y57784419D01*
X-43089962Y57791651D01*
X-43109368Y57800830D01*
X-43127781Y57811866D01*
X-43145024Y57824654D01*
X-43160930Y57839070D01*
X-43175346Y57854976D01*
X-43188134Y57872219D01*
X-43199170Y57890632D01*
X-43208349Y57910038D01*
X-43215581Y57930250D01*
X-43220797Y57951074D01*
X-43223947Y57972309D01*
X-43225000Y57993750D01*
X-43225000Y58431250D01*
X-43223947Y58452691D01*
X-43220797Y58473926D01*
X-43215581Y58494750D01*
X-43208349Y58514962D01*
X-43199170Y58534368D01*
X-43188134Y58552781D01*
X-43175346Y58570024D01*
X-43160930Y58585930D01*
X-43145024Y58600346D01*
X-43127781Y58613134D01*
X-43109368Y58624170D01*
X-43089962Y58633349D01*
X-43069750Y58640581D01*
X-43048926Y58645797D01*
X-43027691Y58648947D01*
X-43006250Y58650000D01*
X-42493750Y58650000D01*
X-42472309Y58648947D01*
G37*
G36*
X-42472309Y60223947D02*
G01*
X-42451074Y60220797D01*
X-42430250Y60215581D01*
X-42410038Y60208349D01*
X-42390632Y60199170D01*
X-42372219Y60188134D01*
X-42354976Y60175346D01*
X-42339070Y60160930D01*
X-42324654Y60145024D01*
X-42311866Y60127781D01*
X-42300830Y60109368D01*
X-42291651Y60089962D01*
X-42284419Y60069750D01*
X-42279203Y60048926D01*
X-42276053Y60027691D01*
X-42275000Y60006250D01*
X-42275000Y59568750D01*
X-42276053Y59547309D01*
X-42279203Y59526074D01*
X-42284419Y59505250D01*
X-42291651Y59485038D01*
X-42300830Y59465632D01*
X-42311866Y59447219D01*
X-42324654Y59429976D01*
X-42339070Y59414070D01*
X-42354976Y59399654D01*
X-42372219Y59386866D01*
X-42390632Y59375830D01*
X-42410038Y59366651D01*
X-42430250Y59359419D01*
X-42451074Y59354203D01*
X-42472309Y59351053D01*
X-42493750Y59350000D01*
X-43006250Y59350000D01*
X-43027691Y59351053D01*
X-43048926Y59354203D01*
X-43069750Y59359419D01*
X-43089962Y59366651D01*
X-43109368Y59375830D01*
X-43127781Y59386866D01*
X-43145024Y59399654D01*
X-43160930Y59414070D01*
X-43175346Y59429976D01*
X-43188134Y59447219D01*
X-43199170Y59465632D01*
X-43208349Y59485038D01*
X-43215581Y59505250D01*
X-43220797Y59526074D01*
X-43223947Y59547309D01*
X-43225000Y59568750D01*
X-43225000Y60006250D01*
X-43223947Y60027691D01*
X-43220797Y60048926D01*
X-43215581Y60069750D01*
X-43208349Y60089962D01*
X-43199170Y60109368D01*
X-43188134Y60127781D01*
X-43175346Y60145024D01*
X-43160930Y60160930D01*
X-43145024Y60175346D01*
X-43127781Y60188134D01*
X-43109368Y60199170D01*
X-43089962Y60208349D01*
X-43069750Y60215581D01*
X-43048926Y60220797D01*
X-43027691Y60223947D01*
X-43006250Y60225000D01*
X-42493750Y60225000D01*
X-42472309Y60223947D01*
G37*
G36*
X-33200496Y83598796D02*
G01*
X-33176227Y83595196D01*
X-33152429Y83589235D01*
X-33129329Y83580970D01*
X-33107151Y83570480D01*
X-33086107Y83557867D01*
X-33066402Y83543253D01*
X-33048223Y83526777D01*
X-33031747Y83508598D01*
X-33017133Y83488893D01*
X-33004520Y83467849D01*
X-32994030Y83445671D01*
X-32985765Y83422571D01*
X-32979804Y83398773D01*
X-32976204Y83374504D01*
X-32975000Y83350000D01*
X-32975000Y82850000D01*
X-32976204Y82825496D01*
X-32979804Y82801227D01*
X-32985765Y82777429D01*
X-32994030Y82754329D01*
X-33004520Y82732151D01*
X-33017133Y82711107D01*
X-33031747Y82691402D01*
X-33048223Y82673223D01*
X-33066402Y82656747D01*
X-33086107Y82642133D01*
X-33107151Y82629520D01*
X-33129329Y82619030D01*
X-33152429Y82610765D01*
X-33176227Y82604804D01*
X-33200496Y82601204D01*
X-33225000Y82600000D01*
X-33975000Y82600000D01*
X-33999504Y82601204D01*
X-34023773Y82604804D01*
X-34047571Y82610765D01*
X-34070671Y82619030D01*
X-34092849Y82629520D01*
X-34113893Y82642133D01*
X-34133598Y82656747D01*
X-34151777Y82673223D01*
X-34168253Y82691402D01*
X-34182867Y82711107D01*
X-34195480Y82732151D01*
X-34205970Y82754329D01*
X-34214235Y82777429D01*
X-34220196Y82801227D01*
X-34223796Y82825496D01*
X-34225000Y82850000D01*
X-34225000Y83350000D01*
X-34223796Y83374504D01*
X-34220196Y83398773D01*
X-34214235Y83422571D01*
X-34205970Y83445671D01*
X-34195480Y83467849D01*
X-34182867Y83488893D01*
X-34168253Y83508598D01*
X-34151777Y83526777D01*
X-34133598Y83543253D01*
X-34113893Y83557867D01*
X-34092849Y83570480D01*
X-34070671Y83580970D01*
X-34047571Y83589235D01*
X-34023773Y83595196D01*
X-33999504Y83598796D01*
X-33975000Y83600000D01*
X-33225000Y83600000D01*
X-33200496Y83598796D01*
G37*
G36*
X-33200496Y81598796D02*
G01*
X-33176227Y81595196D01*
X-33152429Y81589235D01*
X-33129329Y81580970D01*
X-33107151Y81570480D01*
X-33086107Y81557867D01*
X-33066402Y81543253D01*
X-33048223Y81526777D01*
X-33031747Y81508598D01*
X-33017133Y81488893D01*
X-33004520Y81467849D01*
X-32994030Y81445671D01*
X-32985765Y81422571D01*
X-32979804Y81398773D01*
X-32976204Y81374504D01*
X-32975000Y81350000D01*
X-32975000Y80850000D01*
X-32976204Y80825496D01*
X-32979804Y80801227D01*
X-32985765Y80777429D01*
X-32994030Y80754329D01*
X-33004520Y80732151D01*
X-33017133Y80711107D01*
X-33031747Y80691402D01*
X-33048223Y80673223D01*
X-33066402Y80656747D01*
X-33086107Y80642133D01*
X-33107151Y80629520D01*
X-33129329Y80619030D01*
X-33152429Y80610765D01*
X-33176227Y80604804D01*
X-33200496Y80601204D01*
X-33225000Y80600000D01*
X-33975000Y80600000D01*
X-33999504Y80601204D01*
X-34023773Y80604804D01*
X-34047571Y80610765D01*
X-34070671Y80619030D01*
X-34092849Y80629520D01*
X-34113893Y80642133D01*
X-34133598Y80656747D01*
X-34151777Y80673223D01*
X-34168253Y80691402D01*
X-34182867Y80711107D01*
X-34195480Y80732151D01*
X-34205970Y80754329D01*
X-34214235Y80777429D01*
X-34220196Y80801227D01*
X-34223796Y80825496D01*
X-34225000Y80850000D01*
X-34225000Y81350000D01*
X-34223796Y81374504D01*
X-34220196Y81398773D01*
X-34214235Y81422571D01*
X-34205970Y81445671D01*
X-34195480Y81467849D01*
X-34182867Y81488893D01*
X-34168253Y81508598D01*
X-34151777Y81526777D01*
X-34133598Y81543253D01*
X-34113893Y81557867D01*
X-34092849Y81570480D01*
X-34070671Y81580970D01*
X-34047571Y81589235D01*
X-34023773Y81595196D01*
X-33999504Y81598796D01*
X-33975000Y81600000D01*
X-33225000Y81600000D01*
X-33200496Y81598796D01*
G37*
D13*
X-15250000Y89900000D03*
D14*
X-19250000Y88750000D03*
D13*
X-15250000Y87600000D03*
X-15250000Y38600000D03*
D14*
X-19250000Y39750000D03*
D13*
X-15250000Y40900000D03*
D10*
G36*
X-33200496Y32598796D02*
G01*
X-33176227Y32595196D01*
X-33152429Y32589235D01*
X-33129329Y32580970D01*
X-33107151Y32570480D01*
X-33086107Y32557867D01*
X-33066402Y32543253D01*
X-33048223Y32526777D01*
X-33031747Y32508598D01*
X-33017133Y32488893D01*
X-33004520Y32467849D01*
X-32994030Y32445671D01*
X-32985765Y32422571D01*
X-32979804Y32398773D01*
X-32976204Y32374504D01*
X-32975000Y32350000D01*
X-32975000Y31850000D01*
X-32976204Y31825496D01*
X-32979804Y31801227D01*
X-32985765Y31777429D01*
X-32994030Y31754329D01*
X-33004520Y31732151D01*
X-33017133Y31711107D01*
X-33031747Y31691402D01*
X-33048223Y31673223D01*
X-33066402Y31656747D01*
X-33086107Y31642133D01*
X-33107151Y31629520D01*
X-33129329Y31619030D01*
X-33152429Y31610765D01*
X-33176227Y31604804D01*
X-33200496Y31601204D01*
X-33225000Y31600000D01*
X-33975000Y31600000D01*
X-33999504Y31601204D01*
X-34023773Y31604804D01*
X-34047571Y31610765D01*
X-34070671Y31619030D01*
X-34092849Y31629520D01*
X-34113893Y31642133D01*
X-34133598Y31656747D01*
X-34151777Y31673223D01*
X-34168253Y31691402D01*
X-34182867Y31711107D01*
X-34195480Y31732151D01*
X-34205970Y31754329D01*
X-34214235Y31777429D01*
X-34220196Y31801227D01*
X-34223796Y31825496D01*
X-34225000Y31850000D01*
X-34225000Y32350000D01*
X-34223796Y32374504D01*
X-34220196Y32398773D01*
X-34214235Y32422571D01*
X-34205970Y32445671D01*
X-34195480Y32467849D01*
X-34182867Y32488893D01*
X-34168253Y32508598D01*
X-34151777Y32526777D01*
X-34133598Y32543253D01*
X-34113893Y32557867D01*
X-34092849Y32570480D01*
X-34070671Y32580970D01*
X-34047571Y32589235D01*
X-34023773Y32595196D01*
X-33999504Y32598796D01*
X-33975000Y32600000D01*
X-33225000Y32600000D01*
X-33200496Y32598796D01*
G37*
G36*
X-33200496Y34598796D02*
G01*
X-33176227Y34595196D01*
X-33152429Y34589235D01*
X-33129329Y34580970D01*
X-33107151Y34570480D01*
X-33086107Y34557867D01*
X-33066402Y34543253D01*
X-33048223Y34526777D01*
X-33031747Y34508598D01*
X-33017133Y34488893D01*
X-33004520Y34467849D01*
X-32994030Y34445671D01*
X-32985765Y34422571D01*
X-32979804Y34398773D01*
X-32976204Y34374504D01*
X-32975000Y34350000D01*
X-32975000Y33850000D01*
X-32976204Y33825496D01*
X-32979804Y33801227D01*
X-32985765Y33777429D01*
X-32994030Y33754329D01*
X-33004520Y33732151D01*
X-33017133Y33711107D01*
X-33031747Y33691402D01*
X-33048223Y33673223D01*
X-33066402Y33656747D01*
X-33086107Y33642133D01*
X-33107151Y33629520D01*
X-33129329Y33619030D01*
X-33152429Y33610765D01*
X-33176227Y33604804D01*
X-33200496Y33601204D01*
X-33225000Y33600000D01*
X-33975000Y33600000D01*
X-33999504Y33601204D01*
X-34023773Y33604804D01*
X-34047571Y33610765D01*
X-34070671Y33619030D01*
X-34092849Y33629520D01*
X-34113893Y33642133D01*
X-34133598Y33656747D01*
X-34151777Y33673223D01*
X-34168253Y33691402D01*
X-34182867Y33711107D01*
X-34195480Y33732151D01*
X-34205970Y33754329D01*
X-34214235Y33777429D01*
X-34220196Y33801227D01*
X-34223796Y33825496D01*
X-34225000Y33850000D01*
X-34225000Y34350000D01*
X-34223796Y34374504D01*
X-34220196Y34398773D01*
X-34214235Y34422571D01*
X-34205970Y34445671D01*
X-34195480Y34467849D01*
X-34182867Y34488893D01*
X-34168253Y34508598D01*
X-34151777Y34526777D01*
X-34133598Y34543253D01*
X-34113893Y34557867D01*
X-34092849Y34570480D01*
X-34070671Y34580970D01*
X-34047571Y34589235D01*
X-34023773Y34595196D01*
X-33999504Y34598796D01*
X-33975000Y34600000D01*
X-33225000Y34600000D01*
X-33200496Y34598796D01*
G37*
G36*
X-36800496Y18248796D02*
G01*
X-36776227Y18245196D01*
X-36752429Y18239235D01*
X-36729329Y18230970D01*
X-36707151Y18220480D01*
X-36686107Y18207867D01*
X-36666402Y18193253D01*
X-36648223Y18176777D01*
X-36631747Y18158598D01*
X-36617133Y18138893D01*
X-36604520Y18117849D01*
X-36594030Y18095671D01*
X-36585765Y18072571D01*
X-36579804Y18048773D01*
X-36576204Y18024504D01*
X-36575000Y18000000D01*
X-36575000Y17500000D01*
X-36576204Y17475496D01*
X-36579804Y17451227D01*
X-36585765Y17427429D01*
X-36594030Y17404329D01*
X-36604520Y17382151D01*
X-36617133Y17361107D01*
X-36631747Y17341402D01*
X-36648223Y17323223D01*
X-36666402Y17306747D01*
X-36686107Y17292133D01*
X-36707151Y17279520D01*
X-36729329Y17269030D01*
X-36752429Y17260765D01*
X-36776227Y17254804D01*
X-36800496Y17251204D01*
X-36825000Y17250000D01*
X-37575000Y17250000D01*
X-37599504Y17251204D01*
X-37623773Y17254804D01*
X-37647571Y17260765D01*
X-37670671Y17269030D01*
X-37692849Y17279520D01*
X-37713893Y17292133D01*
X-37733598Y17306747D01*
X-37751777Y17323223D01*
X-37768253Y17341402D01*
X-37782867Y17361107D01*
X-37795480Y17382151D01*
X-37805970Y17404329D01*
X-37814235Y17427429D01*
X-37820196Y17451227D01*
X-37823796Y17475496D01*
X-37825000Y17500000D01*
X-37825000Y18000000D01*
X-37823796Y18024504D01*
X-37820196Y18048773D01*
X-37814235Y18072571D01*
X-37805970Y18095671D01*
X-37795480Y18117849D01*
X-37782867Y18138893D01*
X-37768253Y18158598D01*
X-37751777Y18176777D01*
X-37733598Y18193253D01*
X-37713893Y18207867D01*
X-37692849Y18220480D01*
X-37670671Y18230970D01*
X-37647571Y18239235D01*
X-37623773Y18245196D01*
X-37599504Y18248796D01*
X-37575000Y18250000D01*
X-36825000Y18250000D01*
X-36800496Y18248796D01*
G37*
G36*
X-36800496Y20248796D02*
G01*
X-36776227Y20245196D01*
X-36752429Y20239235D01*
X-36729329Y20230970D01*
X-36707151Y20220480D01*
X-36686107Y20207867D01*
X-36666402Y20193253D01*
X-36648223Y20176777D01*
X-36631747Y20158598D01*
X-36617133Y20138893D01*
X-36604520Y20117849D01*
X-36594030Y20095671D01*
X-36585765Y20072571D01*
X-36579804Y20048773D01*
X-36576204Y20024504D01*
X-36575000Y20000000D01*
X-36575000Y19500000D01*
X-36576204Y19475496D01*
X-36579804Y19451227D01*
X-36585765Y19427429D01*
X-36594030Y19404329D01*
X-36604520Y19382151D01*
X-36617133Y19361107D01*
X-36631747Y19341402D01*
X-36648223Y19323223D01*
X-36666402Y19306747D01*
X-36686107Y19292133D01*
X-36707151Y19279520D01*
X-36729329Y19269030D01*
X-36752429Y19260765D01*
X-36776227Y19254804D01*
X-36800496Y19251204D01*
X-36825000Y19250000D01*
X-37575000Y19250000D01*
X-37599504Y19251204D01*
X-37623773Y19254804D01*
X-37647571Y19260765D01*
X-37670671Y19269030D01*
X-37692849Y19279520D01*
X-37713893Y19292133D01*
X-37733598Y19306747D01*
X-37751777Y19323223D01*
X-37768253Y19341402D01*
X-37782867Y19361107D01*
X-37795480Y19382151D01*
X-37805970Y19404329D01*
X-37814235Y19427429D01*
X-37820196Y19451227D01*
X-37823796Y19475496D01*
X-37825000Y19500000D01*
X-37825000Y20000000D01*
X-37823796Y20024504D01*
X-37820196Y20048773D01*
X-37814235Y20072571D01*
X-37805970Y20095671D01*
X-37795480Y20117849D01*
X-37782867Y20138893D01*
X-37768253Y20158598D01*
X-37751777Y20176777D01*
X-37733598Y20193253D01*
X-37713893Y20207867D01*
X-37692849Y20220480D01*
X-37670671Y20230970D01*
X-37647571Y20239235D01*
X-37623773Y20245196D01*
X-37599504Y20248796D01*
X-37575000Y20250000D01*
X-36825000Y20250000D01*
X-36800496Y20248796D01*
G37*
G36*
X-42350496Y14998796D02*
G01*
X-42326227Y14995196D01*
X-42302429Y14989235D01*
X-42279329Y14980970D01*
X-42257151Y14970480D01*
X-42236107Y14957867D01*
X-42216402Y14943253D01*
X-42198223Y14926777D01*
X-42181747Y14908598D01*
X-42167133Y14888893D01*
X-42154520Y14867849D01*
X-42144030Y14845671D01*
X-42135765Y14822571D01*
X-42129804Y14798773D01*
X-42126204Y14774504D01*
X-42125000Y14750000D01*
X-42125000Y14250000D01*
X-42126204Y14225496D01*
X-42129804Y14201227D01*
X-42135765Y14177429D01*
X-42144030Y14154329D01*
X-42154520Y14132151D01*
X-42167133Y14111107D01*
X-42181747Y14091402D01*
X-42198223Y14073223D01*
X-42216402Y14056747D01*
X-42236107Y14042133D01*
X-42257151Y14029520D01*
X-42279329Y14019030D01*
X-42302429Y14010765D01*
X-42326227Y14004804D01*
X-42350496Y14001204D01*
X-42375000Y14000000D01*
X-43125000Y14000000D01*
X-43149504Y14001204D01*
X-43173773Y14004804D01*
X-43197571Y14010765D01*
X-43220671Y14019030D01*
X-43242849Y14029520D01*
X-43263893Y14042133D01*
X-43283598Y14056747D01*
X-43301777Y14073223D01*
X-43318253Y14091402D01*
X-43332867Y14111107D01*
X-43345480Y14132151D01*
X-43355970Y14154329D01*
X-43364235Y14177429D01*
X-43370196Y14201227D01*
X-43373796Y14225496D01*
X-43375000Y14250000D01*
X-43375000Y14750000D01*
X-43373796Y14774504D01*
X-43370196Y14798773D01*
X-43364235Y14822571D01*
X-43355970Y14845671D01*
X-43345480Y14867849D01*
X-43332867Y14888893D01*
X-43318253Y14908598D01*
X-43301777Y14926777D01*
X-43283598Y14943253D01*
X-43263893Y14957867D01*
X-43242849Y14970480D01*
X-43220671Y14980970D01*
X-43197571Y14989235D01*
X-43173773Y14995196D01*
X-43149504Y14998796D01*
X-43125000Y15000000D01*
X-42375000Y15000000D01*
X-42350496Y14998796D01*
G37*
G36*
X-42350496Y12998796D02*
G01*
X-42326227Y12995196D01*
X-42302429Y12989235D01*
X-42279329Y12980970D01*
X-42257151Y12970480D01*
X-42236107Y12957867D01*
X-42216402Y12943253D01*
X-42198223Y12926777D01*
X-42181747Y12908598D01*
X-42167133Y12888893D01*
X-42154520Y12867849D01*
X-42144030Y12845671D01*
X-42135765Y12822571D01*
X-42129804Y12798773D01*
X-42126204Y12774504D01*
X-42125000Y12750000D01*
X-42125000Y12250000D01*
X-42126204Y12225496D01*
X-42129804Y12201227D01*
X-42135765Y12177429D01*
X-42144030Y12154329D01*
X-42154520Y12132151D01*
X-42167133Y12111107D01*
X-42181747Y12091402D01*
X-42198223Y12073223D01*
X-42216402Y12056747D01*
X-42236107Y12042133D01*
X-42257151Y12029520D01*
X-42279329Y12019030D01*
X-42302429Y12010765D01*
X-42326227Y12004804D01*
X-42350496Y12001204D01*
X-42375000Y12000000D01*
X-43125000Y12000000D01*
X-43149504Y12001204D01*
X-43173773Y12004804D01*
X-43197571Y12010765D01*
X-43220671Y12019030D01*
X-43242849Y12029520D01*
X-43263893Y12042133D01*
X-43283598Y12056747D01*
X-43301777Y12073223D01*
X-43318253Y12091402D01*
X-43332867Y12111107D01*
X-43345480Y12132151D01*
X-43355970Y12154329D01*
X-43364235Y12177429D01*
X-43370196Y12201227D01*
X-43373796Y12225496D01*
X-43375000Y12250000D01*
X-43375000Y12750000D01*
X-43373796Y12774504D01*
X-43370196Y12798773D01*
X-43364235Y12822571D01*
X-43355970Y12845671D01*
X-43345480Y12867849D01*
X-43332867Y12888893D01*
X-43318253Y12908598D01*
X-43301777Y12926777D01*
X-43283598Y12943253D01*
X-43263893Y12957867D01*
X-43242849Y12970480D01*
X-43220671Y12980970D01*
X-43197571Y12989235D01*
X-43173773Y12995196D01*
X-43149504Y12998796D01*
X-43125000Y13000000D01*
X-42375000Y13000000D01*
X-42350496Y12998796D01*
G37*
G36*
X-42472309Y11223947D02*
G01*
X-42451074Y11220797D01*
X-42430250Y11215581D01*
X-42410038Y11208349D01*
X-42390632Y11199170D01*
X-42372219Y11188134D01*
X-42354976Y11175346D01*
X-42339070Y11160930D01*
X-42324654Y11145024D01*
X-42311866Y11127781D01*
X-42300830Y11109368D01*
X-42291651Y11089962D01*
X-42284419Y11069750D01*
X-42279203Y11048926D01*
X-42276053Y11027691D01*
X-42275000Y11006250D01*
X-42275000Y10568750D01*
X-42276053Y10547309D01*
X-42279203Y10526074D01*
X-42284419Y10505250D01*
X-42291651Y10485038D01*
X-42300830Y10465632D01*
X-42311866Y10447219D01*
X-42324654Y10429976D01*
X-42339070Y10414070D01*
X-42354976Y10399654D01*
X-42372219Y10386866D01*
X-42390632Y10375830D01*
X-42410038Y10366651D01*
X-42430250Y10359419D01*
X-42451074Y10354203D01*
X-42472309Y10351053D01*
X-42493750Y10350000D01*
X-43006250Y10350000D01*
X-43027691Y10351053D01*
X-43048926Y10354203D01*
X-43069750Y10359419D01*
X-43089962Y10366651D01*
X-43109368Y10375830D01*
X-43127781Y10386866D01*
X-43145024Y10399654D01*
X-43160930Y10414070D01*
X-43175346Y10429976D01*
X-43188134Y10447219D01*
X-43199170Y10465632D01*
X-43208349Y10485038D01*
X-43215581Y10505250D01*
X-43220797Y10526074D01*
X-43223947Y10547309D01*
X-43225000Y10568750D01*
X-43225000Y11006250D01*
X-43223947Y11027691D01*
X-43220797Y11048926D01*
X-43215581Y11069750D01*
X-43208349Y11089962D01*
X-43199170Y11109368D01*
X-43188134Y11127781D01*
X-43175346Y11145024D01*
X-43160930Y11160930D01*
X-43145024Y11175346D01*
X-43127781Y11188134D01*
X-43109368Y11199170D01*
X-43089962Y11208349D01*
X-43069750Y11215581D01*
X-43048926Y11220797D01*
X-43027691Y11223947D01*
X-43006250Y11225000D01*
X-42493750Y11225000D01*
X-42472309Y11223947D01*
G37*
G36*
X-42472309Y9648947D02*
G01*
X-42451074Y9645797D01*
X-42430250Y9640581D01*
X-42410038Y9633349D01*
X-42390632Y9624170D01*
X-42372219Y9613134D01*
X-42354976Y9600346D01*
X-42339070Y9585930D01*
X-42324654Y9570024D01*
X-42311866Y9552781D01*
X-42300830Y9534368D01*
X-42291651Y9514962D01*
X-42284419Y9494750D01*
X-42279203Y9473926D01*
X-42276053Y9452691D01*
X-42275000Y9431250D01*
X-42275000Y8993750D01*
X-42276053Y8972309D01*
X-42279203Y8951074D01*
X-42284419Y8930250D01*
X-42291651Y8910038D01*
X-42300830Y8890632D01*
X-42311866Y8872219D01*
X-42324654Y8854976D01*
X-42339070Y8839070D01*
X-42354976Y8824654D01*
X-42372219Y8811866D01*
X-42390632Y8800830D01*
X-42410038Y8791651D01*
X-42430250Y8784419D01*
X-42451074Y8779203D01*
X-42472309Y8776053D01*
X-42493750Y8775000D01*
X-43006250Y8775000D01*
X-43027691Y8776053D01*
X-43048926Y8779203D01*
X-43069750Y8784419D01*
X-43089962Y8791651D01*
X-43109368Y8800830D01*
X-43127781Y8811866D01*
X-43145024Y8824654D01*
X-43160930Y8839070D01*
X-43175346Y8854976D01*
X-43188134Y8872219D01*
X-43199170Y8890632D01*
X-43208349Y8910038D01*
X-43215581Y8930250D01*
X-43220797Y8951074D01*
X-43223947Y8972309D01*
X-43225000Y8993750D01*
X-43225000Y9431250D01*
X-43223947Y9452691D01*
X-43220797Y9473926D01*
X-43215581Y9494750D01*
X-43208349Y9514962D01*
X-43199170Y9534368D01*
X-43188134Y9552781D01*
X-43175346Y9570024D01*
X-43160930Y9585930D01*
X-43145024Y9600346D01*
X-43127781Y9613134D01*
X-43109368Y9624170D01*
X-43089962Y9633349D01*
X-43069750Y9640581D01*
X-43048926Y9645797D01*
X-43027691Y9648947D01*
X-43006250Y9650000D01*
X-42493750Y9650000D01*
X-42472309Y9648947D01*
G37*
G36*
X-51850496Y18998796D02*
G01*
X-51826227Y18995196D01*
X-51802429Y18989235D01*
X-51779329Y18980970D01*
X-51757151Y18970480D01*
X-51736107Y18957867D01*
X-51716402Y18943253D01*
X-51698223Y18926777D01*
X-51681747Y18908598D01*
X-51667133Y18888893D01*
X-51654520Y18867849D01*
X-51644030Y18845671D01*
X-51635765Y18822571D01*
X-51629804Y18798773D01*
X-51626204Y18774504D01*
X-51625000Y18750000D01*
X-51625000Y18250000D01*
X-51626204Y18225496D01*
X-51629804Y18201227D01*
X-51635765Y18177429D01*
X-51644030Y18154329D01*
X-51654520Y18132151D01*
X-51667133Y18111107D01*
X-51681747Y18091402D01*
X-51698223Y18073223D01*
X-51716402Y18056747D01*
X-51736107Y18042133D01*
X-51757151Y18029520D01*
X-51779329Y18019030D01*
X-51802429Y18010765D01*
X-51826227Y18004804D01*
X-51850496Y18001204D01*
X-51875000Y18000000D01*
X-52625000Y18000000D01*
X-52649504Y18001204D01*
X-52673773Y18004804D01*
X-52697571Y18010765D01*
X-52720671Y18019030D01*
X-52742849Y18029520D01*
X-52763893Y18042133D01*
X-52783598Y18056747D01*
X-52801777Y18073223D01*
X-52818253Y18091402D01*
X-52832867Y18111107D01*
X-52845480Y18132151D01*
X-52855970Y18154329D01*
X-52864235Y18177429D01*
X-52870196Y18201227D01*
X-52873796Y18225496D01*
X-52875000Y18250000D01*
X-52875000Y18750000D01*
X-52873796Y18774504D01*
X-52870196Y18798773D01*
X-52864235Y18822571D01*
X-52855970Y18845671D01*
X-52845480Y18867849D01*
X-52832867Y18888893D01*
X-52818253Y18908598D01*
X-52801777Y18926777D01*
X-52783598Y18943253D01*
X-52763893Y18957867D01*
X-52742849Y18970480D01*
X-52720671Y18980970D01*
X-52697571Y18989235D01*
X-52673773Y18995196D01*
X-52649504Y18998796D01*
X-52625000Y19000000D01*
X-51875000Y19000000D01*
X-51850496Y18998796D01*
G37*
G36*
X-51850496Y20998796D02*
G01*
X-51826227Y20995196D01*
X-51802429Y20989235D01*
X-51779329Y20980970D01*
X-51757151Y20970480D01*
X-51736107Y20957867D01*
X-51716402Y20943253D01*
X-51698223Y20926777D01*
X-51681747Y20908598D01*
X-51667133Y20888893D01*
X-51654520Y20867849D01*
X-51644030Y20845671D01*
X-51635765Y20822571D01*
X-51629804Y20798773D01*
X-51626204Y20774504D01*
X-51625000Y20750000D01*
X-51625000Y20250000D01*
X-51626204Y20225496D01*
X-51629804Y20201227D01*
X-51635765Y20177429D01*
X-51644030Y20154329D01*
X-51654520Y20132151D01*
X-51667133Y20111107D01*
X-51681747Y20091402D01*
X-51698223Y20073223D01*
X-51716402Y20056747D01*
X-51736107Y20042133D01*
X-51757151Y20029520D01*
X-51779329Y20019030D01*
X-51802429Y20010765D01*
X-51826227Y20004804D01*
X-51850496Y20001204D01*
X-51875000Y20000000D01*
X-52625000Y20000000D01*
X-52649504Y20001204D01*
X-52673773Y20004804D01*
X-52697571Y20010765D01*
X-52720671Y20019030D01*
X-52742849Y20029520D01*
X-52763893Y20042133D01*
X-52783598Y20056747D01*
X-52801777Y20073223D01*
X-52818253Y20091402D01*
X-52832867Y20111107D01*
X-52845480Y20132151D01*
X-52855970Y20154329D01*
X-52864235Y20177429D01*
X-52870196Y20201227D01*
X-52873796Y20225496D01*
X-52875000Y20250000D01*
X-52875000Y20750000D01*
X-52873796Y20774504D01*
X-52870196Y20798773D01*
X-52864235Y20822571D01*
X-52855970Y20845671D01*
X-52845480Y20867849D01*
X-52832867Y20888893D01*
X-52818253Y20908598D01*
X-52801777Y20926777D01*
X-52783598Y20943253D01*
X-52763893Y20957867D01*
X-52742849Y20970480D01*
X-52720671Y20980970D01*
X-52697571Y20989235D01*
X-52673773Y20995196D01*
X-52649504Y20998796D01*
X-52625000Y21000000D01*
X-51875000Y21000000D01*
X-51850496Y20998796D01*
G37*
G36*
X-45200496Y18298796D02*
G01*
X-45176227Y18295196D01*
X-45152429Y18289235D01*
X-45129329Y18280970D01*
X-45107151Y18270480D01*
X-45086107Y18257867D01*
X-45066402Y18243253D01*
X-45048223Y18226777D01*
X-45031747Y18208598D01*
X-45017133Y18188893D01*
X-45004520Y18167849D01*
X-44994030Y18145671D01*
X-44985765Y18122571D01*
X-44979804Y18098773D01*
X-44976204Y18074504D01*
X-44975000Y18050000D01*
X-44975000Y17550000D01*
X-44976204Y17525496D01*
X-44979804Y17501227D01*
X-44985765Y17477429D01*
X-44994030Y17454329D01*
X-45004520Y17432151D01*
X-45017133Y17411107D01*
X-45031747Y17391402D01*
X-45048223Y17373223D01*
X-45066402Y17356747D01*
X-45086107Y17342133D01*
X-45107151Y17329520D01*
X-45129329Y17319030D01*
X-45152429Y17310765D01*
X-45176227Y17304804D01*
X-45200496Y17301204D01*
X-45225000Y17300000D01*
X-45975000Y17300000D01*
X-45999504Y17301204D01*
X-46023773Y17304804D01*
X-46047571Y17310765D01*
X-46070671Y17319030D01*
X-46092849Y17329520D01*
X-46113893Y17342133D01*
X-46133598Y17356747D01*
X-46151777Y17373223D01*
X-46168253Y17391402D01*
X-46182867Y17411107D01*
X-46195480Y17432151D01*
X-46205970Y17454329D01*
X-46214235Y17477429D01*
X-46220196Y17501227D01*
X-46223796Y17525496D01*
X-46225000Y17550000D01*
X-46225000Y18050000D01*
X-46223796Y18074504D01*
X-46220196Y18098773D01*
X-46214235Y18122571D01*
X-46205970Y18145671D01*
X-46195480Y18167849D01*
X-46182867Y18188893D01*
X-46168253Y18208598D01*
X-46151777Y18226777D01*
X-46133598Y18243253D01*
X-46113893Y18257867D01*
X-46092849Y18270480D01*
X-46070671Y18280970D01*
X-46047571Y18289235D01*
X-46023773Y18295196D01*
X-45999504Y18298796D01*
X-45975000Y18300000D01*
X-45225000Y18300000D01*
X-45200496Y18298796D01*
G37*
G36*
X-45200496Y20298796D02*
G01*
X-45176227Y20295196D01*
X-45152429Y20289235D01*
X-45129329Y20280970D01*
X-45107151Y20270480D01*
X-45086107Y20257867D01*
X-45066402Y20243253D01*
X-45048223Y20226777D01*
X-45031747Y20208598D01*
X-45017133Y20188893D01*
X-45004520Y20167849D01*
X-44994030Y20145671D01*
X-44985765Y20122571D01*
X-44979804Y20098773D01*
X-44976204Y20074504D01*
X-44975000Y20050000D01*
X-44975000Y19550000D01*
X-44976204Y19525496D01*
X-44979804Y19501227D01*
X-44985765Y19477429D01*
X-44994030Y19454329D01*
X-45004520Y19432151D01*
X-45017133Y19411107D01*
X-45031747Y19391402D01*
X-45048223Y19373223D01*
X-45066402Y19356747D01*
X-45086107Y19342133D01*
X-45107151Y19329520D01*
X-45129329Y19319030D01*
X-45152429Y19310765D01*
X-45176227Y19304804D01*
X-45200496Y19301204D01*
X-45225000Y19300000D01*
X-45975000Y19300000D01*
X-45999504Y19301204D01*
X-46023773Y19304804D01*
X-46047571Y19310765D01*
X-46070671Y19319030D01*
X-46092849Y19329520D01*
X-46113893Y19342133D01*
X-46133598Y19356747D01*
X-46151777Y19373223D01*
X-46168253Y19391402D01*
X-46182867Y19411107D01*
X-46195480Y19432151D01*
X-46205970Y19454329D01*
X-46214235Y19477429D01*
X-46220196Y19501227D01*
X-46223796Y19525496D01*
X-46225000Y19550000D01*
X-46225000Y20050000D01*
X-46223796Y20074504D01*
X-46220196Y20098773D01*
X-46214235Y20122571D01*
X-46205970Y20145671D01*
X-46195480Y20167849D01*
X-46182867Y20188893D01*
X-46168253Y20208598D01*
X-46151777Y20226777D01*
X-46133598Y20243253D01*
X-46113893Y20257867D01*
X-46092849Y20270480D01*
X-46070671Y20280970D01*
X-46047571Y20289235D01*
X-46023773Y20295196D01*
X-45999504Y20298796D01*
X-45975000Y20300000D01*
X-45225000Y20300000D01*
X-45200496Y20298796D01*
G37*
G36*
X-39600496Y20248796D02*
G01*
X-39576227Y20245196D01*
X-39552429Y20239235D01*
X-39529329Y20230970D01*
X-39507151Y20220480D01*
X-39486107Y20207867D01*
X-39466402Y20193253D01*
X-39448223Y20176777D01*
X-39431747Y20158598D01*
X-39417133Y20138893D01*
X-39404520Y20117849D01*
X-39394030Y20095671D01*
X-39385765Y20072571D01*
X-39379804Y20048773D01*
X-39376204Y20024504D01*
X-39375000Y20000000D01*
X-39375000Y19500000D01*
X-39376204Y19475496D01*
X-39379804Y19451227D01*
X-39385765Y19427429D01*
X-39394030Y19404329D01*
X-39404520Y19382151D01*
X-39417133Y19361107D01*
X-39431747Y19341402D01*
X-39448223Y19323223D01*
X-39466402Y19306747D01*
X-39486107Y19292133D01*
X-39507151Y19279520D01*
X-39529329Y19269030D01*
X-39552429Y19260765D01*
X-39576227Y19254804D01*
X-39600496Y19251204D01*
X-39625000Y19250000D01*
X-40375000Y19250000D01*
X-40399504Y19251204D01*
X-40423773Y19254804D01*
X-40447571Y19260765D01*
X-40470671Y19269030D01*
X-40492849Y19279520D01*
X-40513893Y19292133D01*
X-40533598Y19306747D01*
X-40551777Y19323223D01*
X-40568253Y19341402D01*
X-40582867Y19361107D01*
X-40595480Y19382151D01*
X-40605970Y19404329D01*
X-40614235Y19427429D01*
X-40620196Y19451227D01*
X-40623796Y19475496D01*
X-40625000Y19500000D01*
X-40625000Y20000000D01*
X-40623796Y20024504D01*
X-40620196Y20048773D01*
X-40614235Y20072571D01*
X-40605970Y20095671D01*
X-40595480Y20117849D01*
X-40582867Y20138893D01*
X-40568253Y20158598D01*
X-40551777Y20176777D01*
X-40533598Y20193253D01*
X-40513893Y20207867D01*
X-40492849Y20220480D01*
X-40470671Y20230970D01*
X-40447571Y20239235D01*
X-40423773Y20245196D01*
X-40399504Y20248796D01*
X-40375000Y20250000D01*
X-39625000Y20250000D01*
X-39600496Y20248796D01*
G37*
G36*
X-39600496Y18248796D02*
G01*
X-39576227Y18245196D01*
X-39552429Y18239235D01*
X-39529329Y18230970D01*
X-39507151Y18220480D01*
X-39486107Y18207867D01*
X-39466402Y18193253D01*
X-39448223Y18176777D01*
X-39431747Y18158598D01*
X-39417133Y18138893D01*
X-39404520Y18117849D01*
X-39394030Y18095671D01*
X-39385765Y18072571D01*
X-39379804Y18048773D01*
X-39376204Y18024504D01*
X-39375000Y18000000D01*
X-39375000Y17500000D01*
X-39376204Y17475496D01*
X-39379804Y17451227D01*
X-39385765Y17427429D01*
X-39394030Y17404329D01*
X-39404520Y17382151D01*
X-39417133Y17361107D01*
X-39431747Y17341402D01*
X-39448223Y17323223D01*
X-39466402Y17306747D01*
X-39486107Y17292133D01*
X-39507151Y17279520D01*
X-39529329Y17269030D01*
X-39552429Y17260765D01*
X-39576227Y17254804D01*
X-39600496Y17251204D01*
X-39625000Y17250000D01*
X-40375000Y17250000D01*
X-40399504Y17251204D01*
X-40423773Y17254804D01*
X-40447571Y17260765D01*
X-40470671Y17269030D01*
X-40492849Y17279520D01*
X-40513893Y17292133D01*
X-40533598Y17306747D01*
X-40551777Y17323223D01*
X-40568253Y17341402D01*
X-40582867Y17361107D01*
X-40595480Y17382151D01*
X-40605970Y17404329D01*
X-40614235Y17427429D01*
X-40620196Y17451227D01*
X-40623796Y17475496D01*
X-40625000Y17500000D01*
X-40625000Y18000000D01*
X-40623796Y18024504D01*
X-40620196Y18048773D01*
X-40614235Y18072571D01*
X-40605970Y18095671D01*
X-40595480Y18117849D01*
X-40582867Y18138893D01*
X-40568253Y18158598D01*
X-40551777Y18176777D01*
X-40533598Y18193253D01*
X-40513893Y18207867D01*
X-40492849Y18220480D01*
X-40470671Y18230970D01*
X-40447571Y18239235D01*
X-40423773Y18245196D01*
X-40399504Y18248796D01*
X-40375000Y18250000D01*
X-39625000Y18250000D01*
X-39600496Y18248796D01*
G37*
G36*
X-42400496Y20298796D02*
G01*
X-42376227Y20295196D01*
X-42352429Y20289235D01*
X-42329329Y20280970D01*
X-42307151Y20270480D01*
X-42286107Y20257867D01*
X-42266402Y20243253D01*
X-42248223Y20226777D01*
X-42231747Y20208598D01*
X-42217133Y20188893D01*
X-42204520Y20167849D01*
X-42194030Y20145671D01*
X-42185765Y20122571D01*
X-42179804Y20098773D01*
X-42176204Y20074504D01*
X-42175000Y20050000D01*
X-42175000Y19550000D01*
X-42176204Y19525496D01*
X-42179804Y19501227D01*
X-42185765Y19477429D01*
X-42194030Y19454329D01*
X-42204520Y19432151D01*
X-42217133Y19411107D01*
X-42231747Y19391402D01*
X-42248223Y19373223D01*
X-42266402Y19356747D01*
X-42286107Y19342133D01*
X-42307151Y19329520D01*
X-42329329Y19319030D01*
X-42352429Y19310765D01*
X-42376227Y19304804D01*
X-42400496Y19301204D01*
X-42425000Y19300000D01*
X-43175000Y19300000D01*
X-43199504Y19301204D01*
X-43223773Y19304804D01*
X-43247571Y19310765D01*
X-43270671Y19319030D01*
X-43292849Y19329520D01*
X-43313893Y19342133D01*
X-43333598Y19356747D01*
X-43351777Y19373223D01*
X-43368253Y19391402D01*
X-43382867Y19411107D01*
X-43395480Y19432151D01*
X-43405970Y19454329D01*
X-43414235Y19477429D01*
X-43420196Y19501227D01*
X-43423796Y19525496D01*
X-43425000Y19550000D01*
X-43425000Y20050000D01*
X-43423796Y20074504D01*
X-43420196Y20098773D01*
X-43414235Y20122571D01*
X-43405970Y20145671D01*
X-43395480Y20167849D01*
X-43382867Y20188893D01*
X-43368253Y20208598D01*
X-43351777Y20226777D01*
X-43333598Y20243253D01*
X-43313893Y20257867D01*
X-43292849Y20270480D01*
X-43270671Y20280970D01*
X-43247571Y20289235D01*
X-43223773Y20295196D01*
X-43199504Y20298796D01*
X-43175000Y20300000D01*
X-42425000Y20300000D01*
X-42400496Y20298796D01*
G37*
G36*
X-42400496Y18298796D02*
G01*
X-42376227Y18295196D01*
X-42352429Y18289235D01*
X-42329329Y18280970D01*
X-42307151Y18270480D01*
X-42286107Y18257867D01*
X-42266402Y18243253D01*
X-42248223Y18226777D01*
X-42231747Y18208598D01*
X-42217133Y18188893D01*
X-42204520Y18167849D01*
X-42194030Y18145671D01*
X-42185765Y18122571D01*
X-42179804Y18098773D01*
X-42176204Y18074504D01*
X-42175000Y18050000D01*
X-42175000Y17550000D01*
X-42176204Y17525496D01*
X-42179804Y17501227D01*
X-42185765Y17477429D01*
X-42194030Y17454329D01*
X-42204520Y17432151D01*
X-42217133Y17411107D01*
X-42231747Y17391402D01*
X-42248223Y17373223D01*
X-42266402Y17356747D01*
X-42286107Y17342133D01*
X-42307151Y17329520D01*
X-42329329Y17319030D01*
X-42352429Y17310765D01*
X-42376227Y17304804D01*
X-42400496Y17301204D01*
X-42425000Y17300000D01*
X-43175000Y17300000D01*
X-43199504Y17301204D01*
X-43223773Y17304804D01*
X-43247571Y17310765D01*
X-43270671Y17319030D01*
X-43292849Y17329520D01*
X-43313893Y17342133D01*
X-43333598Y17356747D01*
X-43351777Y17373223D01*
X-43368253Y17391402D01*
X-43382867Y17411107D01*
X-43395480Y17432151D01*
X-43405970Y17454329D01*
X-43414235Y17477429D01*
X-43420196Y17501227D01*
X-43423796Y17525496D01*
X-43425000Y17550000D01*
X-43425000Y18050000D01*
X-43423796Y18074504D01*
X-43420196Y18098773D01*
X-43414235Y18122571D01*
X-43405970Y18145671D01*
X-43395480Y18167849D01*
X-43382867Y18188893D01*
X-43368253Y18208598D01*
X-43351777Y18226777D01*
X-43333598Y18243253D01*
X-43313893Y18257867D01*
X-43292849Y18270480D01*
X-43270671Y18280970D01*
X-43247571Y18289235D01*
X-43223773Y18295196D01*
X-43199504Y18298796D01*
X-43175000Y18300000D01*
X-42425000Y18300000D01*
X-42400496Y18298796D01*
G37*
G36*
X-37000496Y32598796D02*
G01*
X-36976227Y32595196D01*
X-36952429Y32589235D01*
X-36929329Y32580970D01*
X-36907151Y32570480D01*
X-36886107Y32557867D01*
X-36866402Y32543253D01*
X-36848223Y32526777D01*
X-36831747Y32508598D01*
X-36817133Y32488893D01*
X-36804520Y32467849D01*
X-36794030Y32445671D01*
X-36785765Y32422571D01*
X-36779804Y32398773D01*
X-36776204Y32374504D01*
X-36775000Y32350000D01*
X-36775000Y31850000D01*
X-36776204Y31825496D01*
X-36779804Y31801227D01*
X-36785765Y31777429D01*
X-36794030Y31754329D01*
X-36804520Y31732151D01*
X-36817133Y31711107D01*
X-36831747Y31691402D01*
X-36848223Y31673223D01*
X-36866402Y31656747D01*
X-36886107Y31642133D01*
X-36907151Y31629520D01*
X-36929329Y31619030D01*
X-36952429Y31610765D01*
X-36976227Y31604804D01*
X-37000496Y31601204D01*
X-37025000Y31600000D01*
X-37775000Y31600000D01*
X-37799504Y31601204D01*
X-37823773Y31604804D01*
X-37847571Y31610765D01*
X-37870671Y31619030D01*
X-37892849Y31629520D01*
X-37913893Y31642133D01*
X-37933598Y31656747D01*
X-37951777Y31673223D01*
X-37968253Y31691402D01*
X-37982867Y31711107D01*
X-37995480Y31732151D01*
X-38005970Y31754329D01*
X-38014235Y31777429D01*
X-38020196Y31801227D01*
X-38023796Y31825496D01*
X-38025000Y31850000D01*
X-38025000Y32350000D01*
X-38023796Y32374504D01*
X-38020196Y32398773D01*
X-38014235Y32422571D01*
X-38005970Y32445671D01*
X-37995480Y32467849D01*
X-37982867Y32488893D01*
X-37968253Y32508598D01*
X-37951777Y32526777D01*
X-37933598Y32543253D01*
X-37913893Y32557867D01*
X-37892849Y32570480D01*
X-37870671Y32580970D01*
X-37847571Y32589235D01*
X-37823773Y32595196D01*
X-37799504Y32598796D01*
X-37775000Y32600000D01*
X-37025000Y32600000D01*
X-37000496Y32598796D01*
G37*
G36*
X-37000496Y34598796D02*
G01*
X-36976227Y34595196D01*
X-36952429Y34589235D01*
X-36929329Y34580970D01*
X-36907151Y34570480D01*
X-36886107Y34557867D01*
X-36866402Y34543253D01*
X-36848223Y34526777D01*
X-36831747Y34508598D01*
X-36817133Y34488893D01*
X-36804520Y34467849D01*
X-36794030Y34445671D01*
X-36785765Y34422571D01*
X-36779804Y34398773D01*
X-36776204Y34374504D01*
X-36775000Y34350000D01*
X-36775000Y33850000D01*
X-36776204Y33825496D01*
X-36779804Y33801227D01*
X-36785765Y33777429D01*
X-36794030Y33754329D01*
X-36804520Y33732151D01*
X-36817133Y33711107D01*
X-36831747Y33691402D01*
X-36848223Y33673223D01*
X-36866402Y33656747D01*
X-36886107Y33642133D01*
X-36907151Y33629520D01*
X-36929329Y33619030D01*
X-36952429Y33610765D01*
X-36976227Y33604804D01*
X-37000496Y33601204D01*
X-37025000Y33600000D01*
X-37775000Y33600000D01*
X-37799504Y33601204D01*
X-37823773Y33604804D01*
X-37847571Y33610765D01*
X-37870671Y33619030D01*
X-37892849Y33629520D01*
X-37913893Y33642133D01*
X-37933598Y33656747D01*
X-37951777Y33673223D01*
X-37968253Y33691402D01*
X-37982867Y33711107D01*
X-37995480Y33732151D01*
X-38005970Y33754329D01*
X-38014235Y33777429D01*
X-38020196Y33801227D01*
X-38023796Y33825496D01*
X-38025000Y33850000D01*
X-38025000Y34350000D01*
X-38023796Y34374504D01*
X-38020196Y34398773D01*
X-38014235Y34422571D01*
X-38005970Y34445671D01*
X-37995480Y34467849D01*
X-37982867Y34488893D01*
X-37968253Y34508598D01*
X-37951777Y34526777D01*
X-37933598Y34543253D01*
X-37913893Y34557867D01*
X-37892849Y34570480D01*
X-37870671Y34580970D01*
X-37847571Y34589235D01*
X-37823773Y34595196D01*
X-37799504Y34598796D01*
X-37775000Y34600000D01*
X-37025000Y34600000D01*
X-37000496Y34598796D01*
G37*
G36*
X-35100496Y34598796D02*
G01*
X-35076227Y34595196D01*
X-35052429Y34589235D01*
X-35029329Y34580970D01*
X-35007151Y34570480D01*
X-34986107Y34557867D01*
X-34966402Y34543253D01*
X-34948223Y34526777D01*
X-34931747Y34508598D01*
X-34917133Y34488893D01*
X-34904520Y34467849D01*
X-34894030Y34445671D01*
X-34885765Y34422571D01*
X-34879804Y34398773D01*
X-34876204Y34374504D01*
X-34875000Y34350000D01*
X-34875000Y33850000D01*
X-34876204Y33825496D01*
X-34879804Y33801227D01*
X-34885765Y33777429D01*
X-34894030Y33754329D01*
X-34904520Y33732151D01*
X-34917133Y33711107D01*
X-34931747Y33691402D01*
X-34948223Y33673223D01*
X-34966402Y33656747D01*
X-34986107Y33642133D01*
X-35007151Y33629520D01*
X-35029329Y33619030D01*
X-35052429Y33610765D01*
X-35076227Y33604804D01*
X-35100496Y33601204D01*
X-35125000Y33600000D01*
X-35875000Y33600000D01*
X-35899504Y33601204D01*
X-35923773Y33604804D01*
X-35947571Y33610765D01*
X-35970671Y33619030D01*
X-35992849Y33629520D01*
X-36013893Y33642133D01*
X-36033598Y33656747D01*
X-36051777Y33673223D01*
X-36068253Y33691402D01*
X-36082867Y33711107D01*
X-36095480Y33732151D01*
X-36105970Y33754329D01*
X-36114235Y33777429D01*
X-36120196Y33801227D01*
X-36123796Y33825496D01*
X-36125000Y33850000D01*
X-36125000Y34350000D01*
X-36123796Y34374504D01*
X-36120196Y34398773D01*
X-36114235Y34422571D01*
X-36105970Y34445671D01*
X-36095480Y34467849D01*
X-36082867Y34488893D01*
X-36068253Y34508598D01*
X-36051777Y34526777D01*
X-36033598Y34543253D01*
X-36013893Y34557867D01*
X-35992849Y34570480D01*
X-35970671Y34580970D01*
X-35947571Y34589235D01*
X-35923773Y34595196D01*
X-35899504Y34598796D01*
X-35875000Y34600000D01*
X-35125000Y34600000D01*
X-35100496Y34598796D01*
G37*
G36*
X-35100496Y32598796D02*
G01*
X-35076227Y32595196D01*
X-35052429Y32589235D01*
X-35029329Y32580970D01*
X-35007151Y32570480D01*
X-34986107Y32557867D01*
X-34966402Y32543253D01*
X-34948223Y32526777D01*
X-34931747Y32508598D01*
X-34917133Y32488893D01*
X-34904520Y32467849D01*
X-34894030Y32445671D01*
X-34885765Y32422571D01*
X-34879804Y32398773D01*
X-34876204Y32374504D01*
X-34875000Y32350000D01*
X-34875000Y31850000D01*
X-34876204Y31825496D01*
X-34879804Y31801227D01*
X-34885765Y31777429D01*
X-34894030Y31754329D01*
X-34904520Y31732151D01*
X-34917133Y31711107D01*
X-34931747Y31691402D01*
X-34948223Y31673223D01*
X-34966402Y31656747D01*
X-34986107Y31642133D01*
X-35007151Y31629520D01*
X-35029329Y31619030D01*
X-35052429Y31610765D01*
X-35076227Y31604804D01*
X-35100496Y31601204D01*
X-35125000Y31600000D01*
X-35875000Y31600000D01*
X-35899504Y31601204D01*
X-35923773Y31604804D01*
X-35947571Y31610765D01*
X-35970671Y31619030D01*
X-35992849Y31629520D01*
X-36013893Y31642133D01*
X-36033598Y31656747D01*
X-36051777Y31673223D01*
X-36068253Y31691402D01*
X-36082867Y31711107D01*
X-36095480Y31732151D01*
X-36105970Y31754329D01*
X-36114235Y31777429D01*
X-36120196Y31801227D01*
X-36123796Y31825496D01*
X-36125000Y31850000D01*
X-36125000Y32350000D01*
X-36123796Y32374504D01*
X-36120196Y32398773D01*
X-36114235Y32422571D01*
X-36105970Y32445671D01*
X-36095480Y32467849D01*
X-36082867Y32488893D01*
X-36068253Y32508598D01*
X-36051777Y32526777D01*
X-36033598Y32543253D01*
X-36013893Y32557867D01*
X-35992849Y32570480D01*
X-35970671Y32580970D01*
X-35947571Y32589235D01*
X-35923773Y32595196D01*
X-35899504Y32598796D01*
X-35875000Y32600000D01*
X-35125000Y32600000D01*
X-35100496Y32598796D01*
G37*
G36*
X-30350496Y29248796D02*
G01*
X-30326227Y29245196D01*
X-30302429Y29239235D01*
X-30279329Y29230970D01*
X-30257151Y29220480D01*
X-30236107Y29207867D01*
X-30216402Y29193253D01*
X-30198223Y29176777D01*
X-30181747Y29158598D01*
X-30167133Y29138893D01*
X-30154520Y29117849D01*
X-30144030Y29095671D01*
X-30135765Y29072571D01*
X-30129804Y29048773D01*
X-30126204Y29024504D01*
X-30125000Y29000000D01*
X-30125000Y28500000D01*
X-30126204Y28475496D01*
X-30129804Y28451227D01*
X-30135765Y28427429D01*
X-30144030Y28404329D01*
X-30154520Y28382151D01*
X-30167133Y28361107D01*
X-30181747Y28341402D01*
X-30198223Y28323223D01*
X-30216402Y28306747D01*
X-30236107Y28292133D01*
X-30257151Y28279520D01*
X-30279329Y28269030D01*
X-30302429Y28260765D01*
X-30326227Y28254804D01*
X-30350496Y28251204D01*
X-30375000Y28250000D01*
X-31125000Y28250000D01*
X-31149504Y28251204D01*
X-31173773Y28254804D01*
X-31197571Y28260765D01*
X-31220671Y28269030D01*
X-31242849Y28279520D01*
X-31263893Y28292133D01*
X-31283598Y28306747D01*
X-31301777Y28323223D01*
X-31318253Y28341402D01*
X-31332867Y28361107D01*
X-31345480Y28382151D01*
X-31355970Y28404329D01*
X-31364235Y28427429D01*
X-31370196Y28451227D01*
X-31373796Y28475496D01*
X-31375000Y28500000D01*
X-31375000Y29000000D01*
X-31373796Y29024504D01*
X-31370196Y29048773D01*
X-31364235Y29072571D01*
X-31355970Y29095671D01*
X-31345480Y29117849D01*
X-31332867Y29138893D01*
X-31318253Y29158598D01*
X-31301777Y29176777D01*
X-31283598Y29193253D01*
X-31263893Y29207867D01*
X-31242849Y29220480D01*
X-31220671Y29230970D01*
X-31197571Y29239235D01*
X-31173773Y29245196D01*
X-31149504Y29248796D01*
X-31125000Y29250000D01*
X-30375000Y29250000D01*
X-30350496Y29248796D01*
G37*
G36*
X-30350496Y31248796D02*
G01*
X-30326227Y31245196D01*
X-30302429Y31239235D01*
X-30279329Y31230970D01*
X-30257151Y31220480D01*
X-30236107Y31207867D01*
X-30216402Y31193253D01*
X-30198223Y31176777D01*
X-30181747Y31158598D01*
X-30167133Y31138893D01*
X-30154520Y31117849D01*
X-30144030Y31095671D01*
X-30135765Y31072571D01*
X-30129804Y31048773D01*
X-30126204Y31024504D01*
X-30125000Y31000000D01*
X-30125000Y30500000D01*
X-30126204Y30475496D01*
X-30129804Y30451227D01*
X-30135765Y30427429D01*
X-30144030Y30404329D01*
X-30154520Y30382151D01*
X-30167133Y30361107D01*
X-30181747Y30341402D01*
X-30198223Y30323223D01*
X-30216402Y30306747D01*
X-30236107Y30292133D01*
X-30257151Y30279520D01*
X-30279329Y30269030D01*
X-30302429Y30260765D01*
X-30326227Y30254804D01*
X-30350496Y30251204D01*
X-30375000Y30250000D01*
X-31125000Y30250000D01*
X-31149504Y30251204D01*
X-31173773Y30254804D01*
X-31197571Y30260765D01*
X-31220671Y30269030D01*
X-31242849Y30279520D01*
X-31263893Y30292133D01*
X-31283598Y30306747D01*
X-31301777Y30323223D01*
X-31318253Y30341402D01*
X-31332867Y30361107D01*
X-31345480Y30382151D01*
X-31355970Y30404329D01*
X-31364235Y30427429D01*
X-31370196Y30451227D01*
X-31373796Y30475496D01*
X-31375000Y30500000D01*
X-31375000Y31000000D01*
X-31373796Y31024504D01*
X-31370196Y31048773D01*
X-31364235Y31072571D01*
X-31355970Y31095671D01*
X-31345480Y31117849D01*
X-31332867Y31138893D01*
X-31318253Y31158598D01*
X-31301777Y31176777D01*
X-31283598Y31193253D01*
X-31263893Y31207867D01*
X-31242849Y31220480D01*
X-31220671Y31230970D01*
X-31197571Y31239235D01*
X-31173773Y31245196D01*
X-31149504Y31248796D01*
X-31125000Y31250000D01*
X-30375000Y31250000D01*
X-30350496Y31248796D01*
G37*
G36*
X-34100496Y20248796D02*
G01*
X-34076227Y20245196D01*
X-34052429Y20239235D01*
X-34029329Y20230970D01*
X-34007151Y20220480D01*
X-33986107Y20207867D01*
X-33966402Y20193253D01*
X-33948223Y20176777D01*
X-33931747Y20158598D01*
X-33917133Y20138893D01*
X-33904520Y20117849D01*
X-33894030Y20095671D01*
X-33885765Y20072571D01*
X-33879804Y20048773D01*
X-33876204Y20024504D01*
X-33875000Y20000000D01*
X-33875000Y19500000D01*
X-33876204Y19475496D01*
X-33879804Y19451227D01*
X-33885765Y19427429D01*
X-33894030Y19404329D01*
X-33904520Y19382151D01*
X-33917133Y19361107D01*
X-33931747Y19341402D01*
X-33948223Y19323223D01*
X-33966402Y19306747D01*
X-33986107Y19292133D01*
X-34007151Y19279520D01*
X-34029329Y19269030D01*
X-34052429Y19260765D01*
X-34076227Y19254804D01*
X-34100496Y19251204D01*
X-34125000Y19250000D01*
X-34875000Y19250000D01*
X-34899504Y19251204D01*
X-34923773Y19254804D01*
X-34947571Y19260765D01*
X-34970671Y19269030D01*
X-34992849Y19279520D01*
X-35013893Y19292133D01*
X-35033598Y19306747D01*
X-35051777Y19323223D01*
X-35068253Y19341402D01*
X-35082867Y19361107D01*
X-35095480Y19382151D01*
X-35105970Y19404329D01*
X-35114235Y19427429D01*
X-35120196Y19451227D01*
X-35123796Y19475496D01*
X-35125000Y19500000D01*
X-35125000Y20000000D01*
X-35123796Y20024504D01*
X-35120196Y20048773D01*
X-35114235Y20072571D01*
X-35105970Y20095671D01*
X-35095480Y20117849D01*
X-35082867Y20138893D01*
X-35068253Y20158598D01*
X-35051777Y20176777D01*
X-35033598Y20193253D01*
X-35013893Y20207867D01*
X-34992849Y20220480D01*
X-34970671Y20230970D01*
X-34947571Y20239235D01*
X-34923773Y20245196D01*
X-34899504Y20248796D01*
X-34875000Y20250000D01*
X-34125000Y20250000D01*
X-34100496Y20248796D01*
G37*
G36*
X-34100496Y18248796D02*
G01*
X-34076227Y18245196D01*
X-34052429Y18239235D01*
X-34029329Y18230970D01*
X-34007151Y18220480D01*
X-33986107Y18207867D01*
X-33966402Y18193253D01*
X-33948223Y18176777D01*
X-33931747Y18158598D01*
X-33917133Y18138893D01*
X-33904520Y18117849D01*
X-33894030Y18095671D01*
X-33885765Y18072571D01*
X-33879804Y18048773D01*
X-33876204Y18024504D01*
X-33875000Y18000000D01*
X-33875000Y17500000D01*
X-33876204Y17475496D01*
X-33879804Y17451227D01*
X-33885765Y17427429D01*
X-33894030Y17404329D01*
X-33904520Y17382151D01*
X-33917133Y17361107D01*
X-33931747Y17341402D01*
X-33948223Y17323223D01*
X-33966402Y17306747D01*
X-33986107Y17292133D01*
X-34007151Y17279520D01*
X-34029329Y17269030D01*
X-34052429Y17260765D01*
X-34076227Y17254804D01*
X-34100496Y17251204D01*
X-34125000Y17250000D01*
X-34875000Y17250000D01*
X-34899504Y17251204D01*
X-34923773Y17254804D01*
X-34947571Y17260765D01*
X-34970671Y17269030D01*
X-34992849Y17279520D01*
X-35013893Y17292133D01*
X-35033598Y17306747D01*
X-35051777Y17323223D01*
X-35068253Y17341402D01*
X-35082867Y17361107D01*
X-35095480Y17382151D01*
X-35105970Y17404329D01*
X-35114235Y17427429D01*
X-35120196Y17451227D01*
X-35123796Y17475496D01*
X-35125000Y17500000D01*
X-35125000Y18000000D01*
X-35123796Y18024504D01*
X-35120196Y18048773D01*
X-35114235Y18072571D01*
X-35105970Y18095671D01*
X-35095480Y18117849D01*
X-35082867Y18138893D01*
X-35068253Y18158598D01*
X-35051777Y18176777D01*
X-35033598Y18193253D01*
X-35013893Y18207867D01*
X-34992849Y18220480D01*
X-34970671Y18230970D01*
X-34947571Y18239235D01*
X-34923773Y18245196D01*
X-34899504Y18248796D01*
X-34875000Y18250000D01*
X-34125000Y18250000D01*
X-34100496Y18248796D01*
G37*
G36*
X-49850496Y20998796D02*
G01*
X-49826227Y20995196D01*
X-49802429Y20989235D01*
X-49779329Y20980970D01*
X-49757151Y20970480D01*
X-49736107Y20957867D01*
X-49716402Y20943253D01*
X-49698223Y20926777D01*
X-49681747Y20908598D01*
X-49667133Y20888893D01*
X-49654520Y20867849D01*
X-49644030Y20845671D01*
X-49635765Y20822571D01*
X-49629804Y20798773D01*
X-49626204Y20774504D01*
X-49625000Y20750000D01*
X-49625000Y20250000D01*
X-49626204Y20225496D01*
X-49629804Y20201227D01*
X-49635765Y20177429D01*
X-49644030Y20154329D01*
X-49654520Y20132151D01*
X-49667133Y20111107D01*
X-49681747Y20091402D01*
X-49698223Y20073223D01*
X-49716402Y20056747D01*
X-49736107Y20042133D01*
X-49757151Y20029520D01*
X-49779329Y20019030D01*
X-49802429Y20010765D01*
X-49826227Y20004804D01*
X-49850496Y20001204D01*
X-49875000Y20000000D01*
X-50625000Y20000000D01*
X-50649504Y20001204D01*
X-50673773Y20004804D01*
X-50697571Y20010765D01*
X-50720671Y20019030D01*
X-50742849Y20029520D01*
X-50763893Y20042133D01*
X-50783598Y20056747D01*
X-50801777Y20073223D01*
X-50818253Y20091402D01*
X-50832867Y20111107D01*
X-50845480Y20132151D01*
X-50855970Y20154329D01*
X-50864235Y20177429D01*
X-50870196Y20201227D01*
X-50873796Y20225496D01*
X-50875000Y20250000D01*
X-50875000Y20750000D01*
X-50873796Y20774504D01*
X-50870196Y20798773D01*
X-50864235Y20822571D01*
X-50855970Y20845671D01*
X-50845480Y20867849D01*
X-50832867Y20888893D01*
X-50818253Y20908598D01*
X-50801777Y20926777D01*
X-50783598Y20943253D01*
X-50763893Y20957867D01*
X-50742849Y20970480D01*
X-50720671Y20980970D01*
X-50697571Y20989235D01*
X-50673773Y20995196D01*
X-50649504Y20998796D01*
X-50625000Y21000000D01*
X-49875000Y21000000D01*
X-49850496Y20998796D01*
G37*
G36*
X-49850496Y18998796D02*
G01*
X-49826227Y18995196D01*
X-49802429Y18989235D01*
X-49779329Y18980970D01*
X-49757151Y18970480D01*
X-49736107Y18957867D01*
X-49716402Y18943253D01*
X-49698223Y18926777D01*
X-49681747Y18908598D01*
X-49667133Y18888893D01*
X-49654520Y18867849D01*
X-49644030Y18845671D01*
X-49635765Y18822571D01*
X-49629804Y18798773D01*
X-49626204Y18774504D01*
X-49625000Y18750000D01*
X-49625000Y18250000D01*
X-49626204Y18225496D01*
X-49629804Y18201227D01*
X-49635765Y18177429D01*
X-49644030Y18154329D01*
X-49654520Y18132151D01*
X-49667133Y18111107D01*
X-49681747Y18091402D01*
X-49698223Y18073223D01*
X-49716402Y18056747D01*
X-49736107Y18042133D01*
X-49757151Y18029520D01*
X-49779329Y18019030D01*
X-49802429Y18010765D01*
X-49826227Y18004804D01*
X-49850496Y18001204D01*
X-49875000Y18000000D01*
X-50625000Y18000000D01*
X-50649504Y18001204D01*
X-50673773Y18004804D01*
X-50697571Y18010765D01*
X-50720671Y18019030D01*
X-50742849Y18029520D01*
X-50763893Y18042133D01*
X-50783598Y18056747D01*
X-50801777Y18073223D01*
X-50818253Y18091402D01*
X-50832867Y18111107D01*
X-50845480Y18132151D01*
X-50855970Y18154329D01*
X-50864235Y18177429D01*
X-50870196Y18201227D01*
X-50873796Y18225496D01*
X-50875000Y18250000D01*
X-50875000Y18750000D01*
X-50873796Y18774504D01*
X-50870196Y18798773D01*
X-50864235Y18822571D01*
X-50855970Y18845671D01*
X-50845480Y18867849D01*
X-50832867Y18888893D01*
X-50818253Y18908598D01*
X-50801777Y18926777D01*
X-50783598Y18943253D01*
X-50763893Y18957867D01*
X-50742849Y18970480D01*
X-50720671Y18980970D01*
X-50697571Y18989235D01*
X-50673773Y18995196D01*
X-50649504Y18998796D01*
X-50625000Y19000000D01*
X-49875000Y19000000D01*
X-49850496Y18998796D01*
G37*
G36*
X-65850496Y20998796D02*
G01*
X-65826227Y20995196D01*
X-65802429Y20989235D01*
X-65779329Y20980970D01*
X-65757151Y20970480D01*
X-65736107Y20957867D01*
X-65716402Y20943253D01*
X-65698223Y20926777D01*
X-65681747Y20908598D01*
X-65667133Y20888893D01*
X-65654520Y20867849D01*
X-65644030Y20845671D01*
X-65635765Y20822571D01*
X-65629804Y20798773D01*
X-65626204Y20774504D01*
X-65625000Y20750000D01*
X-65625000Y20250000D01*
X-65626204Y20225496D01*
X-65629804Y20201227D01*
X-65635765Y20177429D01*
X-65644030Y20154329D01*
X-65654520Y20132151D01*
X-65667133Y20111107D01*
X-65681747Y20091402D01*
X-65698223Y20073223D01*
X-65716402Y20056747D01*
X-65736107Y20042133D01*
X-65757151Y20029520D01*
X-65779329Y20019030D01*
X-65802429Y20010765D01*
X-65826227Y20004804D01*
X-65850496Y20001204D01*
X-65875000Y20000000D01*
X-66625000Y20000000D01*
X-66649504Y20001204D01*
X-66673773Y20004804D01*
X-66697571Y20010765D01*
X-66720671Y20019030D01*
X-66742849Y20029520D01*
X-66763893Y20042133D01*
X-66783598Y20056747D01*
X-66801777Y20073223D01*
X-66818253Y20091402D01*
X-66832867Y20111107D01*
X-66845480Y20132151D01*
X-66855970Y20154329D01*
X-66864235Y20177429D01*
X-66870196Y20201227D01*
X-66873796Y20225496D01*
X-66875000Y20250000D01*
X-66875000Y20750000D01*
X-66873796Y20774504D01*
X-66870196Y20798773D01*
X-66864235Y20822571D01*
X-66855970Y20845671D01*
X-66845480Y20867849D01*
X-66832867Y20888893D01*
X-66818253Y20908598D01*
X-66801777Y20926777D01*
X-66783598Y20943253D01*
X-66763893Y20957867D01*
X-66742849Y20970480D01*
X-66720671Y20980970D01*
X-66697571Y20989235D01*
X-66673773Y20995196D01*
X-66649504Y20998796D01*
X-66625000Y21000000D01*
X-65875000Y21000000D01*
X-65850496Y20998796D01*
G37*
G36*
X-65850496Y18998796D02*
G01*
X-65826227Y18995196D01*
X-65802429Y18989235D01*
X-65779329Y18980970D01*
X-65757151Y18970480D01*
X-65736107Y18957867D01*
X-65716402Y18943253D01*
X-65698223Y18926777D01*
X-65681747Y18908598D01*
X-65667133Y18888893D01*
X-65654520Y18867849D01*
X-65644030Y18845671D01*
X-65635765Y18822571D01*
X-65629804Y18798773D01*
X-65626204Y18774504D01*
X-65625000Y18750000D01*
X-65625000Y18250000D01*
X-65626204Y18225496D01*
X-65629804Y18201227D01*
X-65635765Y18177429D01*
X-65644030Y18154329D01*
X-65654520Y18132151D01*
X-65667133Y18111107D01*
X-65681747Y18091402D01*
X-65698223Y18073223D01*
X-65716402Y18056747D01*
X-65736107Y18042133D01*
X-65757151Y18029520D01*
X-65779329Y18019030D01*
X-65802429Y18010765D01*
X-65826227Y18004804D01*
X-65850496Y18001204D01*
X-65875000Y18000000D01*
X-66625000Y18000000D01*
X-66649504Y18001204D01*
X-66673773Y18004804D01*
X-66697571Y18010765D01*
X-66720671Y18019030D01*
X-66742849Y18029520D01*
X-66763893Y18042133D01*
X-66783598Y18056747D01*
X-66801777Y18073223D01*
X-66818253Y18091402D01*
X-66832867Y18111107D01*
X-66845480Y18132151D01*
X-66855970Y18154329D01*
X-66864235Y18177429D01*
X-66870196Y18201227D01*
X-66873796Y18225496D01*
X-66875000Y18250000D01*
X-66875000Y18750000D01*
X-66873796Y18774504D01*
X-66870196Y18798773D01*
X-66864235Y18822571D01*
X-66855970Y18845671D01*
X-66845480Y18867849D01*
X-66832867Y18888893D01*
X-66818253Y18908598D01*
X-66801777Y18926777D01*
X-66783598Y18943253D01*
X-66763893Y18957867D01*
X-66742849Y18970480D01*
X-66720671Y18980970D01*
X-66697571Y18989235D01*
X-66673773Y18995196D01*
X-66649504Y18998796D01*
X-66625000Y19000000D01*
X-65875000Y19000000D01*
X-65850496Y18998796D01*
G37*
G36*
X-63850496Y18998796D02*
G01*
X-63826227Y18995196D01*
X-63802429Y18989235D01*
X-63779329Y18980970D01*
X-63757151Y18970480D01*
X-63736107Y18957867D01*
X-63716402Y18943253D01*
X-63698223Y18926777D01*
X-63681747Y18908598D01*
X-63667133Y18888893D01*
X-63654520Y18867849D01*
X-63644030Y18845671D01*
X-63635765Y18822571D01*
X-63629804Y18798773D01*
X-63626204Y18774504D01*
X-63625000Y18750000D01*
X-63625000Y18250000D01*
X-63626204Y18225496D01*
X-63629804Y18201227D01*
X-63635765Y18177429D01*
X-63644030Y18154329D01*
X-63654520Y18132151D01*
X-63667133Y18111107D01*
X-63681747Y18091402D01*
X-63698223Y18073223D01*
X-63716402Y18056747D01*
X-63736107Y18042133D01*
X-63757151Y18029520D01*
X-63779329Y18019030D01*
X-63802429Y18010765D01*
X-63826227Y18004804D01*
X-63850496Y18001204D01*
X-63875000Y18000000D01*
X-64625000Y18000000D01*
X-64649504Y18001204D01*
X-64673773Y18004804D01*
X-64697571Y18010765D01*
X-64720671Y18019030D01*
X-64742849Y18029520D01*
X-64763893Y18042133D01*
X-64783598Y18056747D01*
X-64801777Y18073223D01*
X-64818253Y18091402D01*
X-64832867Y18111107D01*
X-64845480Y18132151D01*
X-64855970Y18154329D01*
X-64864235Y18177429D01*
X-64870196Y18201227D01*
X-64873796Y18225496D01*
X-64875000Y18250000D01*
X-64875000Y18750000D01*
X-64873796Y18774504D01*
X-64870196Y18798773D01*
X-64864235Y18822571D01*
X-64855970Y18845671D01*
X-64845480Y18867849D01*
X-64832867Y18888893D01*
X-64818253Y18908598D01*
X-64801777Y18926777D01*
X-64783598Y18943253D01*
X-64763893Y18957867D01*
X-64742849Y18970480D01*
X-64720671Y18980970D01*
X-64697571Y18989235D01*
X-64673773Y18995196D01*
X-64649504Y18998796D01*
X-64625000Y19000000D01*
X-63875000Y19000000D01*
X-63850496Y18998796D01*
G37*
G36*
X-63850496Y20998796D02*
G01*
X-63826227Y20995196D01*
X-63802429Y20989235D01*
X-63779329Y20980970D01*
X-63757151Y20970480D01*
X-63736107Y20957867D01*
X-63716402Y20943253D01*
X-63698223Y20926777D01*
X-63681747Y20908598D01*
X-63667133Y20888893D01*
X-63654520Y20867849D01*
X-63644030Y20845671D01*
X-63635765Y20822571D01*
X-63629804Y20798773D01*
X-63626204Y20774504D01*
X-63625000Y20750000D01*
X-63625000Y20250000D01*
X-63626204Y20225496D01*
X-63629804Y20201227D01*
X-63635765Y20177429D01*
X-63644030Y20154329D01*
X-63654520Y20132151D01*
X-63667133Y20111107D01*
X-63681747Y20091402D01*
X-63698223Y20073223D01*
X-63716402Y20056747D01*
X-63736107Y20042133D01*
X-63757151Y20029520D01*
X-63779329Y20019030D01*
X-63802429Y20010765D01*
X-63826227Y20004804D01*
X-63850496Y20001204D01*
X-63875000Y20000000D01*
X-64625000Y20000000D01*
X-64649504Y20001204D01*
X-64673773Y20004804D01*
X-64697571Y20010765D01*
X-64720671Y20019030D01*
X-64742849Y20029520D01*
X-64763893Y20042133D01*
X-64783598Y20056747D01*
X-64801777Y20073223D01*
X-64818253Y20091402D01*
X-64832867Y20111107D01*
X-64845480Y20132151D01*
X-64855970Y20154329D01*
X-64864235Y20177429D01*
X-64870196Y20201227D01*
X-64873796Y20225496D01*
X-64875000Y20250000D01*
X-64875000Y20750000D01*
X-64873796Y20774504D01*
X-64870196Y20798773D01*
X-64864235Y20822571D01*
X-64855970Y20845671D01*
X-64845480Y20867849D01*
X-64832867Y20888893D01*
X-64818253Y20908598D01*
X-64801777Y20926777D01*
X-64783598Y20943253D01*
X-64763893Y20957867D01*
X-64742849Y20970480D01*
X-64720671Y20980970D01*
X-64697571Y20989235D01*
X-64673773Y20995196D01*
X-64649504Y20998796D01*
X-64625000Y21000000D01*
X-63875000Y21000000D01*
X-63850496Y20998796D01*
G37*
G36*
X-61850496Y18998796D02*
G01*
X-61826227Y18995196D01*
X-61802429Y18989235D01*
X-61779329Y18980970D01*
X-61757151Y18970480D01*
X-61736107Y18957867D01*
X-61716402Y18943253D01*
X-61698223Y18926777D01*
X-61681747Y18908598D01*
X-61667133Y18888893D01*
X-61654520Y18867849D01*
X-61644030Y18845671D01*
X-61635765Y18822571D01*
X-61629804Y18798773D01*
X-61626204Y18774504D01*
X-61625000Y18750000D01*
X-61625000Y18250000D01*
X-61626204Y18225496D01*
X-61629804Y18201227D01*
X-61635765Y18177429D01*
X-61644030Y18154329D01*
X-61654520Y18132151D01*
X-61667133Y18111107D01*
X-61681747Y18091402D01*
X-61698223Y18073223D01*
X-61716402Y18056747D01*
X-61736107Y18042133D01*
X-61757151Y18029520D01*
X-61779329Y18019030D01*
X-61802429Y18010765D01*
X-61826227Y18004804D01*
X-61850496Y18001204D01*
X-61875000Y18000000D01*
X-62625000Y18000000D01*
X-62649504Y18001204D01*
X-62673773Y18004804D01*
X-62697571Y18010765D01*
X-62720671Y18019030D01*
X-62742849Y18029520D01*
X-62763893Y18042133D01*
X-62783598Y18056747D01*
X-62801777Y18073223D01*
X-62818253Y18091402D01*
X-62832867Y18111107D01*
X-62845480Y18132151D01*
X-62855970Y18154329D01*
X-62864235Y18177429D01*
X-62870196Y18201227D01*
X-62873796Y18225496D01*
X-62875000Y18250000D01*
X-62875000Y18750000D01*
X-62873796Y18774504D01*
X-62870196Y18798773D01*
X-62864235Y18822571D01*
X-62855970Y18845671D01*
X-62845480Y18867849D01*
X-62832867Y18888893D01*
X-62818253Y18908598D01*
X-62801777Y18926777D01*
X-62783598Y18943253D01*
X-62763893Y18957867D01*
X-62742849Y18970480D01*
X-62720671Y18980970D01*
X-62697571Y18989235D01*
X-62673773Y18995196D01*
X-62649504Y18998796D01*
X-62625000Y19000000D01*
X-61875000Y19000000D01*
X-61850496Y18998796D01*
G37*
G36*
X-61850496Y20998796D02*
G01*
X-61826227Y20995196D01*
X-61802429Y20989235D01*
X-61779329Y20980970D01*
X-61757151Y20970480D01*
X-61736107Y20957867D01*
X-61716402Y20943253D01*
X-61698223Y20926777D01*
X-61681747Y20908598D01*
X-61667133Y20888893D01*
X-61654520Y20867849D01*
X-61644030Y20845671D01*
X-61635765Y20822571D01*
X-61629804Y20798773D01*
X-61626204Y20774504D01*
X-61625000Y20750000D01*
X-61625000Y20250000D01*
X-61626204Y20225496D01*
X-61629804Y20201227D01*
X-61635765Y20177429D01*
X-61644030Y20154329D01*
X-61654520Y20132151D01*
X-61667133Y20111107D01*
X-61681747Y20091402D01*
X-61698223Y20073223D01*
X-61716402Y20056747D01*
X-61736107Y20042133D01*
X-61757151Y20029520D01*
X-61779329Y20019030D01*
X-61802429Y20010765D01*
X-61826227Y20004804D01*
X-61850496Y20001204D01*
X-61875000Y20000000D01*
X-62625000Y20000000D01*
X-62649504Y20001204D01*
X-62673773Y20004804D01*
X-62697571Y20010765D01*
X-62720671Y20019030D01*
X-62742849Y20029520D01*
X-62763893Y20042133D01*
X-62783598Y20056747D01*
X-62801777Y20073223D01*
X-62818253Y20091402D01*
X-62832867Y20111107D01*
X-62845480Y20132151D01*
X-62855970Y20154329D01*
X-62864235Y20177429D01*
X-62870196Y20201227D01*
X-62873796Y20225496D01*
X-62875000Y20250000D01*
X-62875000Y20750000D01*
X-62873796Y20774504D01*
X-62870196Y20798773D01*
X-62864235Y20822571D01*
X-62855970Y20845671D01*
X-62845480Y20867849D01*
X-62832867Y20888893D01*
X-62818253Y20908598D01*
X-62801777Y20926777D01*
X-62783598Y20943253D01*
X-62763893Y20957867D01*
X-62742849Y20970480D01*
X-62720671Y20980970D01*
X-62697571Y20989235D01*
X-62673773Y20995196D01*
X-62649504Y20998796D01*
X-62625000Y21000000D01*
X-61875000Y21000000D01*
X-61850496Y20998796D01*
G37*
G36*
X-59850496Y20998796D02*
G01*
X-59826227Y20995196D01*
X-59802429Y20989235D01*
X-59779329Y20980970D01*
X-59757151Y20970480D01*
X-59736107Y20957867D01*
X-59716402Y20943253D01*
X-59698223Y20926777D01*
X-59681747Y20908598D01*
X-59667133Y20888893D01*
X-59654520Y20867849D01*
X-59644030Y20845671D01*
X-59635765Y20822571D01*
X-59629804Y20798773D01*
X-59626204Y20774504D01*
X-59625000Y20750000D01*
X-59625000Y20250000D01*
X-59626204Y20225496D01*
X-59629804Y20201227D01*
X-59635765Y20177429D01*
X-59644030Y20154329D01*
X-59654520Y20132151D01*
X-59667133Y20111107D01*
X-59681747Y20091402D01*
X-59698223Y20073223D01*
X-59716402Y20056747D01*
X-59736107Y20042133D01*
X-59757151Y20029520D01*
X-59779329Y20019030D01*
X-59802429Y20010765D01*
X-59826227Y20004804D01*
X-59850496Y20001204D01*
X-59875000Y20000000D01*
X-60625000Y20000000D01*
X-60649504Y20001204D01*
X-60673773Y20004804D01*
X-60697571Y20010765D01*
X-60720671Y20019030D01*
X-60742849Y20029520D01*
X-60763893Y20042133D01*
X-60783598Y20056747D01*
X-60801777Y20073223D01*
X-60818253Y20091402D01*
X-60832867Y20111107D01*
X-60845480Y20132151D01*
X-60855970Y20154329D01*
X-60864235Y20177429D01*
X-60870196Y20201227D01*
X-60873796Y20225496D01*
X-60875000Y20250000D01*
X-60875000Y20750000D01*
X-60873796Y20774504D01*
X-60870196Y20798773D01*
X-60864235Y20822571D01*
X-60855970Y20845671D01*
X-60845480Y20867849D01*
X-60832867Y20888893D01*
X-60818253Y20908598D01*
X-60801777Y20926777D01*
X-60783598Y20943253D01*
X-60763893Y20957867D01*
X-60742849Y20970480D01*
X-60720671Y20980970D01*
X-60697571Y20989235D01*
X-60673773Y20995196D01*
X-60649504Y20998796D01*
X-60625000Y21000000D01*
X-59875000Y21000000D01*
X-59850496Y20998796D01*
G37*
G36*
X-59850496Y18998796D02*
G01*
X-59826227Y18995196D01*
X-59802429Y18989235D01*
X-59779329Y18980970D01*
X-59757151Y18970480D01*
X-59736107Y18957867D01*
X-59716402Y18943253D01*
X-59698223Y18926777D01*
X-59681747Y18908598D01*
X-59667133Y18888893D01*
X-59654520Y18867849D01*
X-59644030Y18845671D01*
X-59635765Y18822571D01*
X-59629804Y18798773D01*
X-59626204Y18774504D01*
X-59625000Y18750000D01*
X-59625000Y18250000D01*
X-59626204Y18225496D01*
X-59629804Y18201227D01*
X-59635765Y18177429D01*
X-59644030Y18154329D01*
X-59654520Y18132151D01*
X-59667133Y18111107D01*
X-59681747Y18091402D01*
X-59698223Y18073223D01*
X-59716402Y18056747D01*
X-59736107Y18042133D01*
X-59757151Y18029520D01*
X-59779329Y18019030D01*
X-59802429Y18010765D01*
X-59826227Y18004804D01*
X-59850496Y18001204D01*
X-59875000Y18000000D01*
X-60625000Y18000000D01*
X-60649504Y18001204D01*
X-60673773Y18004804D01*
X-60697571Y18010765D01*
X-60720671Y18019030D01*
X-60742849Y18029520D01*
X-60763893Y18042133D01*
X-60783598Y18056747D01*
X-60801777Y18073223D01*
X-60818253Y18091402D01*
X-60832867Y18111107D01*
X-60845480Y18132151D01*
X-60855970Y18154329D01*
X-60864235Y18177429D01*
X-60870196Y18201227D01*
X-60873796Y18225496D01*
X-60875000Y18250000D01*
X-60875000Y18750000D01*
X-60873796Y18774504D01*
X-60870196Y18798773D01*
X-60864235Y18822571D01*
X-60855970Y18845671D01*
X-60845480Y18867849D01*
X-60832867Y18888893D01*
X-60818253Y18908598D01*
X-60801777Y18926777D01*
X-60783598Y18943253D01*
X-60763893Y18957867D01*
X-60742849Y18970480D01*
X-60720671Y18980970D01*
X-60697571Y18989235D01*
X-60673773Y18995196D01*
X-60649504Y18998796D01*
X-60625000Y19000000D01*
X-59875000Y19000000D01*
X-59850496Y18998796D01*
G37*
G36*
X-57850496Y18998796D02*
G01*
X-57826227Y18995196D01*
X-57802429Y18989235D01*
X-57779329Y18980970D01*
X-57757151Y18970480D01*
X-57736107Y18957867D01*
X-57716402Y18943253D01*
X-57698223Y18926777D01*
X-57681747Y18908598D01*
X-57667133Y18888893D01*
X-57654520Y18867849D01*
X-57644030Y18845671D01*
X-57635765Y18822571D01*
X-57629804Y18798773D01*
X-57626204Y18774504D01*
X-57625000Y18750000D01*
X-57625000Y18250000D01*
X-57626204Y18225496D01*
X-57629804Y18201227D01*
X-57635765Y18177429D01*
X-57644030Y18154329D01*
X-57654520Y18132151D01*
X-57667133Y18111107D01*
X-57681747Y18091402D01*
X-57698223Y18073223D01*
X-57716402Y18056747D01*
X-57736107Y18042133D01*
X-57757151Y18029520D01*
X-57779329Y18019030D01*
X-57802429Y18010765D01*
X-57826227Y18004804D01*
X-57850496Y18001204D01*
X-57875000Y18000000D01*
X-58625000Y18000000D01*
X-58649504Y18001204D01*
X-58673773Y18004804D01*
X-58697571Y18010765D01*
X-58720671Y18019030D01*
X-58742849Y18029520D01*
X-58763893Y18042133D01*
X-58783598Y18056747D01*
X-58801777Y18073223D01*
X-58818253Y18091402D01*
X-58832867Y18111107D01*
X-58845480Y18132151D01*
X-58855970Y18154329D01*
X-58864235Y18177429D01*
X-58870196Y18201227D01*
X-58873796Y18225496D01*
X-58875000Y18250000D01*
X-58875000Y18750000D01*
X-58873796Y18774504D01*
X-58870196Y18798773D01*
X-58864235Y18822571D01*
X-58855970Y18845671D01*
X-58845480Y18867849D01*
X-58832867Y18888893D01*
X-58818253Y18908598D01*
X-58801777Y18926777D01*
X-58783598Y18943253D01*
X-58763893Y18957867D01*
X-58742849Y18970480D01*
X-58720671Y18980970D01*
X-58697571Y18989235D01*
X-58673773Y18995196D01*
X-58649504Y18998796D01*
X-58625000Y19000000D01*
X-57875000Y19000000D01*
X-57850496Y18998796D01*
G37*
G36*
X-57850496Y20998796D02*
G01*
X-57826227Y20995196D01*
X-57802429Y20989235D01*
X-57779329Y20980970D01*
X-57757151Y20970480D01*
X-57736107Y20957867D01*
X-57716402Y20943253D01*
X-57698223Y20926777D01*
X-57681747Y20908598D01*
X-57667133Y20888893D01*
X-57654520Y20867849D01*
X-57644030Y20845671D01*
X-57635765Y20822571D01*
X-57629804Y20798773D01*
X-57626204Y20774504D01*
X-57625000Y20750000D01*
X-57625000Y20250000D01*
X-57626204Y20225496D01*
X-57629804Y20201227D01*
X-57635765Y20177429D01*
X-57644030Y20154329D01*
X-57654520Y20132151D01*
X-57667133Y20111107D01*
X-57681747Y20091402D01*
X-57698223Y20073223D01*
X-57716402Y20056747D01*
X-57736107Y20042133D01*
X-57757151Y20029520D01*
X-57779329Y20019030D01*
X-57802429Y20010765D01*
X-57826227Y20004804D01*
X-57850496Y20001204D01*
X-57875000Y20000000D01*
X-58625000Y20000000D01*
X-58649504Y20001204D01*
X-58673773Y20004804D01*
X-58697571Y20010765D01*
X-58720671Y20019030D01*
X-58742849Y20029520D01*
X-58763893Y20042133D01*
X-58783598Y20056747D01*
X-58801777Y20073223D01*
X-58818253Y20091402D01*
X-58832867Y20111107D01*
X-58845480Y20132151D01*
X-58855970Y20154329D01*
X-58864235Y20177429D01*
X-58870196Y20201227D01*
X-58873796Y20225496D01*
X-58875000Y20250000D01*
X-58875000Y20750000D01*
X-58873796Y20774504D01*
X-58870196Y20798773D01*
X-58864235Y20822571D01*
X-58855970Y20845671D01*
X-58845480Y20867849D01*
X-58832867Y20888893D01*
X-58818253Y20908598D01*
X-58801777Y20926777D01*
X-58783598Y20943253D01*
X-58763893Y20957867D01*
X-58742849Y20970480D01*
X-58720671Y20980970D01*
X-58697571Y20989235D01*
X-58673773Y20995196D01*
X-58649504Y20998796D01*
X-58625000Y21000000D01*
X-57875000Y21000000D01*
X-57850496Y20998796D01*
G37*
G36*
X-55850496Y20998796D02*
G01*
X-55826227Y20995196D01*
X-55802429Y20989235D01*
X-55779329Y20980970D01*
X-55757151Y20970480D01*
X-55736107Y20957867D01*
X-55716402Y20943253D01*
X-55698223Y20926777D01*
X-55681747Y20908598D01*
X-55667133Y20888893D01*
X-55654520Y20867849D01*
X-55644030Y20845671D01*
X-55635765Y20822571D01*
X-55629804Y20798773D01*
X-55626204Y20774504D01*
X-55625000Y20750000D01*
X-55625000Y20250000D01*
X-55626204Y20225496D01*
X-55629804Y20201227D01*
X-55635765Y20177429D01*
X-55644030Y20154329D01*
X-55654520Y20132151D01*
X-55667133Y20111107D01*
X-55681747Y20091402D01*
X-55698223Y20073223D01*
X-55716402Y20056747D01*
X-55736107Y20042133D01*
X-55757151Y20029520D01*
X-55779329Y20019030D01*
X-55802429Y20010765D01*
X-55826227Y20004804D01*
X-55850496Y20001204D01*
X-55875000Y20000000D01*
X-56625000Y20000000D01*
X-56649504Y20001204D01*
X-56673773Y20004804D01*
X-56697571Y20010765D01*
X-56720671Y20019030D01*
X-56742849Y20029520D01*
X-56763893Y20042133D01*
X-56783598Y20056747D01*
X-56801777Y20073223D01*
X-56818253Y20091402D01*
X-56832867Y20111107D01*
X-56845480Y20132151D01*
X-56855970Y20154329D01*
X-56864235Y20177429D01*
X-56870196Y20201227D01*
X-56873796Y20225496D01*
X-56875000Y20250000D01*
X-56875000Y20750000D01*
X-56873796Y20774504D01*
X-56870196Y20798773D01*
X-56864235Y20822571D01*
X-56855970Y20845671D01*
X-56845480Y20867849D01*
X-56832867Y20888893D01*
X-56818253Y20908598D01*
X-56801777Y20926777D01*
X-56783598Y20943253D01*
X-56763893Y20957867D01*
X-56742849Y20970480D01*
X-56720671Y20980970D01*
X-56697571Y20989235D01*
X-56673773Y20995196D01*
X-56649504Y20998796D01*
X-56625000Y21000000D01*
X-55875000Y21000000D01*
X-55850496Y20998796D01*
G37*
G36*
X-55850496Y18998796D02*
G01*
X-55826227Y18995196D01*
X-55802429Y18989235D01*
X-55779329Y18980970D01*
X-55757151Y18970480D01*
X-55736107Y18957867D01*
X-55716402Y18943253D01*
X-55698223Y18926777D01*
X-55681747Y18908598D01*
X-55667133Y18888893D01*
X-55654520Y18867849D01*
X-55644030Y18845671D01*
X-55635765Y18822571D01*
X-55629804Y18798773D01*
X-55626204Y18774504D01*
X-55625000Y18750000D01*
X-55625000Y18250000D01*
X-55626204Y18225496D01*
X-55629804Y18201227D01*
X-55635765Y18177429D01*
X-55644030Y18154329D01*
X-55654520Y18132151D01*
X-55667133Y18111107D01*
X-55681747Y18091402D01*
X-55698223Y18073223D01*
X-55716402Y18056747D01*
X-55736107Y18042133D01*
X-55757151Y18029520D01*
X-55779329Y18019030D01*
X-55802429Y18010765D01*
X-55826227Y18004804D01*
X-55850496Y18001204D01*
X-55875000Y18000000D01*
X-56625000Y18000000D01*
X-56649504Y18001204D01*
X-56673773Y18004804D01*
X-56697571Y18010765D01*
X-56720671Y18019030D01*
X-56742849Y18029520D01*
X-56763893Y18042133D01*
X-56783598Y18056747D01*
X-56801777Y18073223D01*
X-56818253Y18091402D01*
X-56832867Y18111107D01*
X-56845480Y18132151D01*
X-56855970Y18154329D01*
X-56864235Y18177429D01*
X-56870196Y18201227D01*
X-56873796Y18225496D01*
X-56875000Y18250000D01*
X-56875000Y18750000D01*
X-56873796Y18774504D01*
X-56870196Y18798773D01*
X-56864235Y18822571D01*
X-56855970Y18845671D01*
X-56845480Y18867849D01*
X-56832867Y18888893D01*
X-56818253Y18908598D01*
X-56801777Y18926777D01*
X-56783598Y18943253D01*
X-56763893Y18957867D01*
X-56742849Y18970480D01*
X-56720671Y18980970D01*
X-56697571Y18989235D01*
X-56673773Y18995196D01*
X-56649504Y18998796D01*
X-56625000Y19000000D01*
X-55875000Y19000000D01*
X-55850496Y18998796D01*
G37*
D12*
X-40425000Y23050000D03*
X-39775000Y23050000D03*
X-39125000Y23050000D03*
X-38475000Y23050000D03*
X-37825000Y23050000D03*
X-37175000Y23050000D03*
X-36525000Y23050000D03*
X-35875000Y23050000D03*
X-35225000Y23050000D03*
X-34575000Y23050000D03*
X-34575000Y28950000D03*
X-35225000Y28950000D03*
X-35875000Y28950000D03*
X-36525000Y28950000D03*
X-37175000Y28950000D03*
X-37825000Y28950000D03*
X-38475000Y28950000D03*
X-39125000Y28950000D03*
X-39775000Y28950000D03*
X-40425000Y28950000D03*
D10*
G36*
X-28780297Y24499278D02*
G01*
X-28765736Y24497118D01*
X-28751457Y24493541D01*
X-28737597Y24488582D01*
X-28724290Y24482288D01*
X-28711664Y24474720D01*
X-28699841Y24465952D01*
X-28688934Y24456066D01*
X-28679048Y24445159D01*
X-28670280Y24433336D01*
X-28662712Y24420710D01*
X-28656418Y24407403D01*
X-28651459Y24393543D01*
X-28647882Y24379264D01*
X-28645722Y24364703D01*
X-28645000Y24350000D01*
X-28645000Y22700000D01*
X-28645722Y22685297D01*
X-28647882Y22670736D01*
X-28651459Y22656457D01*
X-28656418Y22642597D01*
X-28662712Y22629290D01*
X-28670280Y22616664D01*
X-28679048Y22604841D01*
X-28688934Y22593934D01*
X-28699841Y22584048D01*
X-28711664Y22575280D01*
X-28724290Y22567712D01*
X-28737597Y22561418D01*
X-28751457Y22556459D01*
X-28765736Y22552882D01*
X-28780297Y22550722D01*
X-28795000Y22550000D01*
X-29095000Y22550000D01*
X-29109703Y22550722D01*
X-29124264Y22552882D01*
X-29138543Y22556459D01*
X-29152403Y22561418D01*
X-29165710Y22567712D01*
X-29178336Y22575280D01*
X-29190159Y22584048D01*
X-29201066Y22593934D01*
X-29210952Y22604841D01*
X-29219720Y22616664D01*
X-29227288Y22629290D01*
X-29233582Y22642597D01*
X-29238541Y22656457D01*
X-29242118Y22670736D01*
X-29244278Y22685297D01*
X-29245000Y22700000D01*
X-29245000Y24350000D01*
X-29244278Y24364703D01*
X-29242118Y24379264D01*
X-29238541Y24393543D01*
X-29233582Y24407403D01*
X-29227288Y24420710D01*
X-29219720Y24433336D01*
X-29210952Y24445159D01*
X-29201066Y24456066D01*
X-29190159Y24465952D01*
X-29178336Y24474720D01*
X-29165710Y24482288D01*
X-29152403Y24488582D01*
X-29138543Y24493541D01*
X-29124264Y24497118D01*
X-29109703Y24499278D01*
X-29095000Y24500000D01*
X-28795000Y24500000D01*
X-28780297Y24499278D01*
G37*
G36*
X-27510297Y24499278D02*
G01*
X-27495736Y24497118D01*
X-27481457Y24493541D01*
X-27467597Y24488582D01*
X-27454290Y24482288D01*
X-27441664Y24474720D01*
X-27429841Y24465952D01*
X-27418934Y24456066D01*
X-27409048Y24445159D01*
X-27400280Y24433336D01*
X-27392712Y24420710D01*
X-27386418Y24407403D01*
X-27381459Y24393543D01*
X-27377882Y24379264D01*
X-27375722Y24364703D01*
X-27375000Y24350000D01*
X-27375000Y22700000D01*
X-27375722Y22685297D01*
X-27377882Y22670736D01*
X-27381459Y22656457D01*
X-27386418Y22642597D01*
X-27392712Y22629290D01*
X-27400280Y22616664D01*
X-27409048Y22604841D01*
X-27418934Y22593934D01*
X-27429841Y22584048D01*
X-27441664Y22575280D01*
X-27454290Y22567712D01*
X-27467597Y22561418D01*
X-27481457Y22556459D01*
X-27495736Y22552882D01*
X-27510297Y22550722D01*
X-27525000Y22550000D01*
X-27825000Y22550000D01*
X-27839703Y22550722D01*
X-27854264Y22552882D01*
X-27868543Y22556459D01*
X-27882403Y22561418D01*
X-27895710Y22567712D01*
X-27908336Y22575280D01*
X-27920159Y22584048D01*
X-27931066Y22593934D01*
X-27940952Y22604841D01*
X-27949720Y22616664D01*
X-27957288Y22629290D01*
X-27963582Y22642597D01*
X-27968541Y22656457D01*
X-27972118Y22670736D01*
X-27974278Y22685297D01*
X-27975000Y22700000D01*
X-27975000Y24350000D01*
X-27974278Y24364703D01*
X-27972118Y24379264D01*
X-27968541Y24393543D01*
X-27963582Y24407403D01*
X-27957288Y24420710D01*
X-27949720Y24433336D01*
X-27940952Y24445159D01*
X-27931066Y24456066D01*
X-27920159Y24465952D01*
X-27908336Y24474720D01*
X-27895710Y24482288D01*
X-27882403Y24488582D01*
X-27868543Y24493541D01*
X-27854264Y24497118D01*
X-27839703Y24499278D01*
X-27825000Y24500000D01*
X-27525000Y24500000D01*
X-27510297Y24499278D01*
G37*
G36*
X-26240297Y24499278D02*
G01*
X-26225736Y24497118D01*
X-26211457Y24493541D01*
X-26197597Y24488582D01*
X-26184290Y24482288D01*
X-26171664Y24474720D01*
X-26159841Y24465952D01*
X-26148934Y24456066D01*
X-26139048Y24445159D01*
X-26130280Y24433336D01*
X-26122712Y24420710D01*
X-26116418Y24407403D01*
X-26111459Y24393543D01*
X-26107882Y24379264D01*
X-26105722Y24364703D01*
X-26105000Y24350000D01*
X-26105000Y22700000D01*
X-26105722Y22685297D01*
X-26107882Y22670736D01*
X-26111459Y22656457D01*
X-26116418Y22642597D01*
X-26122712Y22629290D01*
X-26130280Y22616664D01*
X-26139048Y22604841D01*
X-26148934Y22593934D01*
X-26159841Y22584048D01*
X-26171664Y22575280D01*
X-26184290Y22567712D01*
X-26197597Y22561418D01*
X-26211457Y22556459D01*
X-26225736Y22552882D01*
X-26240297Y22550722D01*
X-26255000Y22550000D01*
X-26555000Y22550000D01*
X-26569703Y22550722D01*
X-26584264Y22552882D01*
X-26598543Y22556459D01*
X-26612403Y22561418D01*
X-26625710Y22567712D01*
X-26638336Y22575280D01*
X-26650159Y22584048D01*
X-26661066Y22593934D01*
X-26670952Y22604841D01*
X-26679720Y22616664D01*
X-26687288Y22629290D01*
X-26693582Y22642597D01*
X-26698541Y22656457D01*
X-26702118Y22670736D01*
X-26704278Y22685297D01*
X-26705000Y22700000D01*
X-26705000Y24350000D01*
X-26704278Y24364703D01*
X-26702118Y24379264D01*
X-26698541Y24393543D01*
X-26693582Y24407403D01*
X-26687288Y24420710D01*
X-26679720Y24433336D01*
X-26670952Y24445159D01*
X-26661066Y24456066D01*
X-26650159Y24465952D01*
X-26638336Y24474720D01*
X-26625710Y24482288D01*
X-26612403Y24488582D01*
X-26598543Y24493541D01*
X-26584264Y24497118D01*
X-26569703Y24499278D01*
X-26555000Y24500000D01*
X-26255000Y24500000D01*
X-26240297Y24499278D01*
G37*
G36*
X-24970297Y24499278D02*
G01*
X-24955736Y24497118D01*
X-24941457Y24493541D01*
X-24927597Y24488582D01*
X-24914290Y24482288D01*
X-24901664Y24474720D01*
X-24889841Y24465952D01*
X-24878934Y24456066D01*
X-24869048Y24445159D01*
X-24860280Y24433336D01*
X-24852712Y24420710D01*
X-24846418Y24407403D01*
X-24841459Y24393543D01*
X-24837882Y24379264D01*
X-24835722Y24364703D01*
X-24835000Y24350000D01*
X-24835000Y22700000D01*
X-24835722Y22685297D01*
X-24837882Y22670736D01*
X-24841459Y22656457D01*
X-24846418Y22642597D01*
X-24852712Y22629290D01*
X-24860280Y22616664D01*
X-24869048Y22604841D01*
X-24878934Y22593934D01*
X-24889841Y22584048D01*
X-24901664Y22575280D01*
X-24914290Y22567712D01*
X-24927597Y22561418D01*
X-24941457Y22556459D01*
X-24955736Y22552882D01*
X-24970297Y22550722D01*
X-24985000Y22550000D01*
X-25285000Y22550000D01*
X-25299703Y22550722D01*
X-25314264Y22552882D01*
X-25328543Y22556459D01*
X-25342403Y22561418D01*
X-25355710Y22567712D01*
X-25368336Y22575280D01*
X-25380159Y22584048D01*
X-25391066Y22593934D01*
X-25400952Y22604841D01*
X-25409720Y22616664D01*
X-25417288Y22629290D01*
X-25423582Y22642597D01*
X-25428541Y22656457D01*
X-25432118Y22670736D01*
X-25434278Y22685297D01*
X-25435000Y22700000D01*
X-25435000Y24350000D01*
X-25434278Y24364703D01*
X-25432118Y24379264D01*
X-25428541Y24393543D01*
X-25423582Y24407403D01*
X-25417288Y24420710D01*
X-25409720Y24433336D01*
X-25400952Y24445159D01*
X-25391066Y24456066D01*
X-25380159Y24465952D01*
X-25368336Y24474720D01*
X-25355710Y24482288D01*
X-25342403Y24488582D01*
X-25328543Y24493541D01*
X-25314264Y24497118D01*
X-25299703Y24499278D01*
X-25285000Y24500000D01*
X-24985000Y24500000D01*
X-24970297Y24499278D01*
G37*
G36*
X-23700297Y24499278D02*
G01*
X-23685736Y24497118D01*
X-23671457Y24493541D01*
X-23657597Y24488582D01*
X-23644290Y24482288D01*
X-23631664Y24474720D01*
X-23619841Y24465952D01*
X-23608934Y24456066D01*
X-23599048Y24445159D01*
X-23590280Y24433336D01*
X-23582712Y24420710D01*
X-23576418Y24407403D01*
X-23571459Y24393543D01*
X-23567882Y24379264D01*
X-23565722Y24364703D01*
X-23565000Y24350000D01*
X-23565000Y22700000D01*
X-23565722Y22685297D01*
X-23567882Y22670736D01*
X-23571459Y22656457D01*
X-23576418Y22642597D01*
X-23582712Y22629290D01*
X-23590280Y22616664D01*
X-23599048Y22604841D01*
X-23608934Y22593934D01*
X-23619841Y22584048D01*
X-23631664Y22575280D01*
X-23644290Y22567712D01*
X-23657597Y22561418D01*
X-23671457Y22556459D01*
X-23685736Y22552882D01*
X-23700297Y22550722D01*
X-23715000Y22550000D01*
X-24015000Y22550000D01*
X-24029703Y22550722D01*
X-24044264Y22552882D01*
X-24058543Y22556459D01*
X-24072403Y22561418D01*
X-24085710Y22567712D01*
X-24098336Y22575280D01*
X-24110159Y22584048D01*
X-24121066Y22593934D01*
X-24130952Y22604841D01*
X-24139720Y22616664D01*
X-24147288Y22629290D01*
X-24153582Y22642597D01*
X-24158541Y22656457D01*
X-24162118Y22670736D01*
X-24164278Y22685297D01*
X-24165000Y22700000D01*
X-24165000Y24350000D01*
X-24164278Y24364703D01*
X-24162118Y24379264D01*
X-24158541Y24393543D01*
X-24153582Y24407403D01*
X-24147288Y24420710D01*
X-24139720Y24433336D01*
X-24130952Y24445159D01*
X-24121066Y24456066D01*
X-24110159Y24465952D01*
X-24098336Y24474720D01*
X-24085710Y24482288D01*
X-24072403Y24488582D01*
X-24058543Y24493541D01*
X-24044264Y24497118D01*
X-24029703Y24499278D01*
X-24015000Y24500000D01*
X-23715000Y24500000D01*
X-23700297Y24499278D01*
G37*
G36*
X-22430297Y24499278D02*
G01*
X-22415736Y24497118D01*
X-22401457Y24493541D01*
X-22387597Y24488582D01*
X-22374290Y24482288D01*
X-22361664Y24474720D01*
X-22349841Y24465952D01*
X-22338934Y24456066D01*
X-22329048Y24445159D01*
X-22320280Y24433336D01*
X-22312712Y24420710D01*
X-22306418Y24407403D01*
X-22301459Y24393543D01*
X-22297882Y24379264D01*
X-22295722Y24364703D01*
X-22295000Y24350000D01*
X-22295000Y22700000D01*
X-22295722Y22685297D01*
X-22297882Y22670736D01*
X-22301459Y22656457D01*
X-22306418Y22642597D01*
X-22312712Y22629290D01*
X-22320280Y22616664D01*
X-22329048Y22604841D01*
X-22338934Y22593934D01*
X-22349841Y22584048D01*
X-22361664Y22575280D01*
X-22374290Y22567712D01*
X-22387597Y22561418D01*
X-22401457Y22556459D01*
X-22415736Y22552882D01*
X-22430297Y22550722D01*
X-22445000Y22550000D01*
X-22745000Y22550000D01*
X-22759703Y22550722D01*
X-22774264Y22552882D01*
X-22788543Y22556459D01*
X-22802403Y22561418D01*
X-22815710Y22567712D01*
X-22828336Y22575280D01*
X-22840159Y22584048D01*
X-22851066Y22593934D01*
X-22860952Y22604841D01*
X-22869720Y22616664D01*
X-22877288Y22629290D01*
X-22883582Y22642597D01*
X-22888541Y22656457D01*
X-22892118Y22670736D01*
X-22894278Y22685297D01*
X-22895000Y22700000D01*
X-22895000Y24350000D01*
X-22894278Y24364703D01*
X-22892118Y24379264D01*
X-22888541Y24393543D01*
X-22883582Y24407403D01*
X-22877288Y24420710D01*
X-22869720Y24433336D01*
X-22860952Y24445159D01*
X-22851066Y24456066D01*
X-22840159Y24465952D01*
X-22828336Y24474720D01*
X-22815710Y24482288D01*
X-22802403Y24488582D01*
X-22788543Y24493541D01*
X-22774264Y24497118D01*
X-22759703Y24499278D01*
X-22745000Y24500000D01*
X-22445000Y24500000D01*
X-22430297Y24499278D01*
G37*
G36*
X-21160297Y24499278D02*
G01*
X-21145736Y24497118D01*
X-21131457Y24493541D01*
X-21117597Y24488582D01*
X-21104290Y24482288D01*
X-21091664Y24474720D01*
X-21079841Y24465952D01*
X-21068934Y24456066D01*
X-21059048Y24445159D01*
X-21050280Y24433336D01*
X-21042712Y24420710D01*
X-21036418Y24407403D01*
X-21031459Y24393543D01*
X-21027882Y24379264D01*
X-21025722Y24364703D01*
X-21025000Y24350000D01*
X-21025000Y22700000D01*
X-21025722Y22685297D01*
X-21027882Y22670736D01*
X-21031459Y22656457D01*
X-21036418Y22642597D01*
X-21042712Y22629290D01*
X-21050280Y22616664D01*
X-21059048Y22604841D01*
X-21068934Y22593934D01*
X-21079841Y22584048D01*
X-21091664Y22575280D01*
X-21104290Y22567712D01*
X-21117597Y22561418D01*
X-21131457Y22556459D01*
X-21145736Y22552882D01*
X-21160297Y22550722D01*
X-21175000Y22550000D01*
X-21475000Y22550000D01*
X-21489703Y22550722D01*
X-21504264Y22552882D01*
X-21518543Y22556459D01*
X-21532403Y22561418D01*
X-21545710Y22567712D01*
X-21558336Y22575280D01*
X-21570159Y22584048D01*
X-21581066Y22593934D01*
X-21590952Y22604841D01*
X-21599720Y22616664D01*
X-21607288Y22629290D01*
X-21613582Y22642597D01*
X-21618541Y22656457D01*
X-21622118Y22670736D01*
X-21624278Y22685297D01*
X-21625000Y22700000D01*
X-21625000Y24350000D01*
X-21624278Y24364703D01*
X-21622118Y24379264D01*
X-21618541Y24393543D01*
X-21613582Y24407403D01*
X-21607288Y24420710D01*
X-21599720Y24433336D01*
X-21590952Y24445159D01*
X-21581066Y24456066D01*
X-21570159Y24465952D01*
X-21558336Y24474720D01*
X-21545710Y24482288D01*
X-21532403Y24488582D01*
X-21518543Y24493541D01*
X-21504264Y24497118D01*
X-21489703Y24499278D01*
X-21475000Y24500000D01*
X-21175000Y24500000D01*
X-21160297Y24499278D01*
G37*
G36*
X-19890297Y24499278D02*
G01*
X-19875736Y24497118D01*
X-19861457Y24493541D01*
X-19847597Y24488582D01*
X-19834290Y24482288D01*
X-19821664Y24474720D01*
X-19809841Y24465952D01*
X-19798934Y24456066D01*
X-19789048Y24445159D01*
X-19780280Y24433336D01*
X-19772712Y24420710D01*
X-19766418Y24407403D01*
X-19761459Y24393543D01*
X-19757882Y24379264D01*
X-19755722Y24364703D01*
X-19755000Y24350000D01*
X-19755000Y22700000D01*
X-19755722Y22685297D01*
X-19757882Y22670736D01*
X-19761459Y22656457D01*
X-19766418Y22642597D01*
X-19772712Y22629290D01*
X-19780280Y22616664D01*
X-19789048Y22604841D01*
X-19798934Y22593934D01*
X-19809841Y22584048D01*
X-19821664Y22575280D01*
X-19834290Y22567712D01*
X-19847597Y22561418D01*
X-19861457Y22556459D01*
X-19875736Y22552882D01*
X-19890297Y22550722D01*
X-19905000Y22550000D01*
X-20205000Y22550000D01*
X-20219703Y22550722D01*
X-20234264Y22552882D01*
X-20248543Y22556459D01*
X-20262403Y22561418D01*
X-20275710Y22567712D01*
X-20288336Y22575280D01*
X-20300159Y22584048D01*
X-20311066Y22593934D01*
X-20320952Y22604841D01*
X-20329720Y22616664D01*
X-20337288Y22629290D01*
X-20343582Y22642597D01*
X-20348541Y22656457D01*
X-20352118Y22670736D01*
X-20354278Y22685297D01*
X-20355000Y22700000D01*
X-20355000Y24350000D01*
X-20354278Y24364703D01*
X-20352118Y24379264D01*
X-20348541Y24393543D01*
X-20343582Y24407403D01*
X-20337288Y24420710D01*
X-20329720Y24433336D01*
X-20320952Y24445159D01*
X-20311066Y24456066D01*
X-20300159Y24465952D01*
X-20288336Y24474720D01*
X-20275710Y24482288D01*
X-20262403Y24488582D01*
X-20248543Y24493541D01*
X-20234264Y24497118D01*
X-20219703Y24499278D01*
X-20205000Y24500000D01*
X-19905000Y24500000D01*
X-19890297Y24499278D01*
G37*
G36*
X-19890297Y29449278D02*
G01*
X-19875736Y29447118D01*
X-19861457Y29443541D01*
X-19847597Y29438582D01*
X-19834290Y29432288D01*
X-19821664Y29424720D01*
X-19809841Y29415952D01*
X-19798934Y29406066D01*
X-19789048Y29395159D01*
X-19780280Y29383336D01*
X-19772712Y29370710D01*
X-19766418Y29357403D01*
X-19761459Y29343543D01*
X-19757882Y29329264D01*
X-19755722Y29314703D01*
X-19755000Y29300000D01*
X-19755000Y27650000D01*
X-19755722Y27635297D01*
X-19757882Y27620736D01*
X-19761459Y27606457D01*
X-19766418Y27592597D01*
X-19772712Y27579290D01*
X-19780280Y27566664D01*
X-19789048Y27554841D01*
X-19798934Y27543934D01*
X-19809841Y27534048D01*
X-19821664Y27525280D01*
X-19834290Y27517712D01*
X-19847597Y27511418D01*
X-19861457Y27506459D01*
X-19875736Y27502882D01*
X-19890297Y27500722D01*
X-19905000Y27500000D01*
X-20205000Y27500000D01*
X-20219703Y27500722D01*
X-20234264Y27502882D01*
X-20248543Y27506459D01*
X-20262403Y27511418D01*
X-20275710Y27517712D01*
X-20288336Y27525280D01*
X-20300159Y27534048D01*
X-20311066Y27543934D01*
X-20320952Y27554841D01*
X-20329720Y27566664D01*
X-20337288Y27579290D01*
X-20343582Y27592597D01*
X-20348541Y27606457D01*
X-20352118Y27620736D01*
X-20354278Y27635297D01*
X-20355000Y27650000D01*
X-20355000Y29300000D01*
X-20354278Y29314703D01*
X-20352118Y29329264D01*
X-20348541Y29343543D01*
X-20343582Y29357403D01*
X-20337288Y29370710D01*
X-20329720Y29383336D01*
X-20320952Y29395159D01*
X-20311066Y29406066D01*
X-20300159Y29415952D01*
X-20288336Y29424720D01*
X-20275710Y29432288D01*
X-20262403Y29438582D01*
X-20248543Y29443541D01*
X-20234264Y29447118D01*
X-20219703Y29449278D01*
X-20205000Y29450000D01*
X-19905000Y29450000D01*
X-19890297Y29449278D01*
G37*
G36*
X-21160297Y29449278D02*
G01*
X-21145736Y29447118D01*
X-21131457Y29443541D01*
X-21117597Y29438582D01*
X-21104290Y29432288D01*
X-21091664Y29424720D01*
X-21079841Y29415952D01*
X-21068934Y29406066D01*
X-21059048Y29395159D01*
X-21050280Y29383336D01*
X-21042712Y29370710D01*
X-21036418Y29357403D01*
X-21031459Y29343543D01*
X-21027882Y29329264D01*
X-21025722Y29314703D01*
X-21025000Y29300000D01*
X-21025000Y27650000D01*
X-21025722Y27635297D01*
X-21027882Y27620736D01*
X-21031459Y27606457D01*
X-21036418Y27592597D01*
X-21042712Y27579290D01*
X-21050280Y27566664D01*
X-21059048Y27554841D01*
X-21068934Y27543934D01*
X-21079841Y27534048D01*
X-21091664Y27525280D01*
X-21104290Y27517712D01*
X-21117597Y27511418D01*
X-21131457Y27506459D01*
X-21145736Y27502882D01*
X-21160297Y27500722D01*
X-21175000Y27500000D01*
X-21475000Y27500000D01*
X-21489703Y27500722D01*
X-21504264Y27502882D01*
X-21518543Y27506459D01*
X-21532403Y27511418D01*
X-21545710Y27517712D01*
X-21558336Y27525280D01*
X-21570159Y27534048D01*
X-21581066Y27543934D01*
X-21590952Y27554841D01*
X-21599720Y27566664D01*
X-21607288Y27579290D01*
X-21613582Y27592597D01*
X-21618541Y27606457D01*
X-21622118Y27620736D01*
X-21624278Y27635297D01*
X-21625000Y27650000D01*
X-21625000Y29300000D01*
X-21624278Y29314703D01*
X-21622118Y29329264D01*
X-21618541Y29343543D01*
X-21613582Y29357403D01*
X-21607288Y29370710D01*
X-21599720Y29383336D01*
X-21590952Y29395159D01*
X-21581066Y29406066D01*
X-21570159Y29415952D01*
X-21558336Y29424720D01*
X-21545710Y29432288D01*
X-21532403Y29438582D01*
X-21518543Y29443541D01*
X-21504264Y29447118D01*
X-21489703Y29449278D01*
X-21475000Y29450000D01*
X-21175000Y29450000D01*
X-21160297Y29449278D01*
G37*
G36*
X-22430297Y29449278D02*
G01*
X-22415736Y29447118D01*
X-22401457Y29443541D01*
X-22387597Y29438582D01*
X-22374290Y29432288D01*
X-22361664Y29424720D01*
X-22349841Y29415952D01*
X-22338934Y29406066D01*
X-22329048Y29395159D01*
X-22320280Y29383336D01*
X-22312712Y29370710D01*
X-22306418Y29357403D01*
X-22301459Y29343543D01*
X-22297882Y29329264D01*
X-22295722Y29314703D01*
X-22295000Y29300000D01*
X-22295000Y27650000D01*
X-22295722Y27635297D01*
X-22297882Y27620736D01*
X-22301459Y27606457D01*
X-22306418Y27592597D01*
X-22312712Y27579290D01*
X-22320280Y27566664D01*
X-22329048Y27554841D01*
X-22338934Y27543934D01*
X-22349841Y27534048D01*
X-22361664Y27525280D01*
X-22374290Y27517712D01*
X-22387597Y27511418D01*
X-22401457Y27506459D01*
X-22415736Y27502882D01*
X-22430297Y27500722D01*
X-22445000Y27500000D01*
X-22745000Y27500000D01*
X-22759703Y27500722D01*
X-22774264Y27502882D01*
X-22788543Y27506459D01*
X-22802403Y27511418D01*
X-22815710Y27517712D01*
X-22828336Y27525280D01*
X-22840159Y27534048D01*
X-22851066Y27543934D01*
X-22860952Y27554841D01*
X-22869720Y27566664D01*
X-22877288Y27579290D01*
X-22883582Y27592597D01*
X-22888541Y27606457D01*
X-22892118Y27620736D01*
X-22894278Y27635297D01*
X-22895000Y27650000D01*
X-22895000Y29300000D01*
X-22894278Y29314703D01*
X-22892118Y29329264D01*
X-22888541Y29343543D01*
X-22883582Y29357403D01*
X-22877288Y29370710D01*
X-22869720Y29383336D01*
X-22860952Y29395159D01*
X-22851066Y29406066D01*
X-22840159Y29415952D01*
X-22828336Y29424720D01*
X-22815710Y29432288D01*
X-22802403Y29438582D01*
X-22788543Y29443541D01*
X-22774264Y29447118D01*
X-22759703Y29449278D01*
X-22745000Y29450000D01*
X-22445000Y29450000D01*
X-22430297Y29449278D01*
G37*
G36*
X-23700297Y29449278D02*
G01*
X-23685736Y29447118D01*
X-23671457Y29443541D01*
X-23657597Y29438582D01*
X-23644290Y29432288D01*
X-23631664Y29424720D01*
X-23619841Y29415952D01*
X-23608934Y29406066D01*
X-23599048Y29395159D01*
X-23590280Y29383336D01*
X-23582712Y29370710D01*
X-23576418Y29357403D01*
X-23571459Y29343543D01*
X-23567882Y29329264D01*
X-23565722Y29314703D01*
X-23565000Y29300000D01*
X-23565000Y27650000D01*
X-23565722Y27635297D01*
X-23567882Y27620736D01*
X-23571459Y27606457D01*
X-23576418Y27592597D01*
X-23582712Y27579290D01*
X-23590280Y27566664D01*
X-23599048Y27554841D01*
X-23608934Y27543934D01*
X-23619841Y27534048D01*
X-23631664Y27525280D01*
X-23644290Y27517712D01*
X-23657597Y27511418D01*
X-23671457Y27506459D01*
X-23685736Y27502882D01*
X-23700297Y27500722D01*
X-23715000Y27500000D01*
X-24015000Y27500000D01*
X-24029703Y27500722D01*
X-24044264Y27502882D01*
X-24058543Y27506459D01*
X-24072403Y27511418D01*
X-24085710Y27517712D01*
X-24098336Y27525280D01*
X-24110159Y27534048D01*
X-24121066Y27543934D01*
X-24130952Y27554841D01*
X-24139720Y27566664D01*
X-24147288Y27579290D01*
X-24153582Y27592597D01*
X-24158541Y27606457D01*
X-24162118Y27620736D01*
X-24164278Y27635297D01*
X-24165000Y27650000D01*
X-24165000Y29300000D01*
X-24164278Y29314703D01*
X-24162118Y29329264D01*
X-24158541Y29343543D01*
X-24153582Y29357403D01*
X-24147288Y29370710D01*
X-24139720Y29383336D01*
X-24130952Y29395159D01*
X-24121066Y29406066D01*
X-24110159Y29415952D01*
X-24098336Y29424720D01*
X-24085710Y29432288D01*
X-24072403Y29438582D01*
X-24058543Y29443541D01*
X-24044264Y29447118D01*
X-24029703Y29449278D01*
X-24015000Y29450000D01*
X-23715000Y29450000D01*
X-23700297Y29449278D01*
G37*
G36*
X-24970297Y29449278D02*
G01*
X-24955736Y29447118D01*
X-24941457Y29443541D01*
X-24927597Y29438582D01*
X-24914290Y29432288D01*
X-24901664Y29424720D01*
X-24889841Y29415952D01*
X-24878934Y29406066D01*
X-24869048Y29395159D01*
X-24860280Y29383336D01*
X-24852712Y29370710D01*
X-24846418Y29357403D01*
X-24841459Y29343543D01*
X-24837882Y29329264D01*
X-24835722Y29314703D01*
X-24835000Y29300000D01*
X-24835000Y27650000D01*
X-24835722Y27635297D01*
X-24837882Y27620736D01*
X-24841459Y27606457D01*
X-24846418Y27592597D01*
X-24852712Y27579290D01*
X-24860280Y27566664D01*
X-24869048Y27554841D01*
X-24878934Y27543934D01*
X-24889841Y27534048D01*
X-24901664Y27525280D01*
X-24914290Y27517712D01*
X-24927597Y27511418D01*
X-24941457Y27506459D01*
X-24955736Y27502882D01*
X-24970297Y27500722D01*
X-24985000Y27500000D01*
X-25285000Y27500000D01*
X-25299703Y27500722D01*
X-25314264Y27502882D01*
X-25328543Y27506459D01*
X-25342403Y27511418D01*
X-25355710Y27517712D01*
X-25368336Y27525280D01*
X-25380159Y27534048D01*
X-25391066Y27543934D01*
X-25400952Y27554841D01*
X-25409720Y27566664D01*
X-25417288Y27579290D01*
X-25423582Y27592597D01*
X-25428541Y27606457D01*
X-25432118Y27620736D01*
X-25434278Y27635297D01*
X-25435000Y27650000D01*
X-25435000Y29300000D01*
X-25434278Y29314703D01*
X-25432118Y29329264D01*
X-25428541Y29343543D01*
X-25423582Y29357403D01*
X-25417288Y29370710D01*
X-25409720Y29383336D01*
X-25400952Y29395159D01*
X-25391066Y29406066D01*
X-25380159Y29415952D01*
X-25368336Y29424720D01*
X-25355710Y29432288D01*
X-25342403Y29438582D01*
X-25328543Y29443541D01*
X-25314264Y29447118D01*
X-25299703Y29449278D01*
X-25285000Y29450000D01*
X-24985000Y29450000D01*
X-24970297Y29449278D01*
G37*
G36*
X-26240297Y29449278D02*
G01*
X-26225736Y29447118D01*
X-26211457Y29443541D01*
X-26197597Y29438582D01*
X-26184290Y29432288D01*
X-26171664Y29424720D01*
X-26159841Y29415952D01*
X-26148934Y29406066D01*
X-26139048Y29395159D01*
X-26130280Y29383336D01*
X-26122712Y29370710D01*
X-26116418Y29357403D01*
X-26111459Y29343543D01*
X-26107882Y29329264D01*
X-26105722Y29314703D01*
X-26105000Y29300000D01*
X-26105000Y27650000D01*
X-26105722Y27635297D01*
X-26107882Y27620736D01*
X-26111459Y27606457D01*
X-26116418Y27592597D01*
X-26122712Y27579290D01*
X-26130280Y27566664D01*
X-26139048Y27554841D01*
X-26148934Y27543934D01*
X-26159841Y27534048D01*
X-26171664Y27525280D01*
X-26184290Y27517712D01*
X-26197597Y27511418D01*
X-26211457Y27506459D01*
X-26225736Y27502882D01*
X-26240297Y27500722D01*
X-26255000Y27500000D01*
X-26555000Y27500000D01*
X-26569703Y27500722D01*
X-26584264Y27502882D01*
X-26598543Y27506459D01*
X-26612403Y27511418D01*
X-26625710Y27517712D01*
X-26638336Y27525280D01*
X-26650159Y27534048D01*
X-26661066Y27543934D01*
X-26670952Y27554841D01*
X-26679720Y27566664D01*
X-26687288Y27579290D01*
X-26693582Y27592597D01*
X-26698541Y27606457D01*
X-26702118Y27620736D01*
X-26704278Y27635297D01*
X-26705000Y27650000D01*
X-26705000Y29300000D01*
X-26704278Y29314703D01*
X-26702118Y29329264D01*
X-26698541Y29343543D01*
X-26693582Y29357403D01*
X-26687288Y29370710D01*
X-26679720Y29383336D01*
X-26670952Y29395159D01*
X-26661066Y29406066D01*
X-26650159Y29415952D01*
X-26638336Y29424720D01*
X-26625710Y29432288D01*
X-26612403Y29438582D01*
X-26598543Y29443541D01*
X-26584264Y29447118D01*
X-26569703Y29449278D01*
X-26555000Y29450000D01*
X-26255000Y29450000D01*
X-26240297Y29449278D01*
G37*
G36*
X-27510297Y29449278D02*
G01*
X-27495736Y29447118D01*
X-27481457Y29443541D01*
X-27467597Y29438582D01*
X-27454290Y29432288D01*
X-27441664Y29424720D01*
X-27429841Y29415952D01*
X-27418934Y29406066D01*
X-27409048Y29395159D01*
X-27400280Y29383336D01*
X-27392712Y29370710D01*
X-27386418Y29357403D01*
X-27381459Y29343543D01*
X-27377882Y29329264D01*
X-27375722Y29314703D01*
X-27375000Y29300000D01*
X-27375000Y27650000D01*
X-27375722Y27635297D01*
X-27377882Y27620736D01*
X-27381459Y27606457D01*
X-27386418Y27592597D01*
X-27392712Y27579290D01*
X-27400280Y27566664D01*
X-27409048Y27554841D01*
X-27418934Y27543934D01*
X-27429841Y27534048D01*
X-27441664Y27525280D01*
X-27454290Y27517712D01*
X-27467597Y27511418D01*
X-27481457Y27506459D01*
X-27495736Y27502882D01*
X-27510297Y27500722D01*
X-27525000Y27500000D01*
X-27825000Y27500000D01*
X-27839703Y27500722D01*
X-27854264Y27502882D01*
X-27868543Y27506459D01*
X-27882403Y27511418D01*
X-27895710Y27517712D01*
X-27908336Y27525280D01*
X-27920159Y27534048D01*
X-27931066Y27543934D01*
X-27940952Y27554841D01*
X-27949720Y27566664D01*
X-27957288Y27579290D01*
X-27963582Y27592597D01*
X-27968541Y27606457D01*
X-27972118Y27620736D01*
X-27974278Y27635297D01*
X-27975000Y27650000D01*
X-27975000Y29300000D01*
X-27974278Y29314703D01*
X-27972118Y29329264D01*
X-27968541Y29343543D01*
X-27963582Y29357403D01*
X-27957288Y29370710D01*
X-27949720Y29383336D01*
X-27940952Y29395159D01*
X-27931066Y29406066D01*
X-27920159Y29415952D01*
X-27908336Y29424720D01*
X-27895710Y29432288D01*
X-27882403Y29438582D01*
X-27868543Y29443541D01*
X-27854264Y29447118D01*
X-27839703Y29449278D01*
X-27825000Y29450000D01*
X-27525000Y29450000D01*
X-27510297Y29449278D01*
G37*
G36*
X-28780297Y29449278D02*
G01*
X-28765736Y29447118D01*
X-28751457Y29443541D01*
X-28737597Y29438582D01*
X-28724290Y29432288D01*
X-28711664Y29424720D01*
X-28699841Y29415952D01*
X-28688934Y29406066D01*
X-28679048Y29395159D01*
X-28670280Y29383336D01*
X-28662712Y29370710D01*
X-28656418Y29357403D01*
X-28651459Y29343543D01*
X-28647882Y29329264D01*
X-28645722Y29314703D01*
X-28645000Y29300000D01*
X-28645000Y27650000D01*
X-28645722Y27635297D01*
X-28647882Y27620736D01*
X-28651459Y27606457D01*
X-28656418Y27592597D01*
X-28662712Y27579290D01*
X-28670280Y27566664D01*
X-28679048Y27554841D01*
X-28688934Y27543934D01*
X-28699841Y27534048D01*
X-28711664Y27525280D01*
X-28724290Y27517712D01*
X-28737597Y27511418D01*
X-28751457Y27506459D01*
X-28765736Y27502882D01*
X-28780297Y27500722D01*
X-28795000Y27500000D01*
X-29095000Y27500000D01*
X-29109703Y27500722D01*
X-29124264Y27502882D01*
X-29138543Y27506459D01*
X-29152403Y27511418D01*
X-29165710Y27517712D01*
X-29178336Y27525280D01*
X-29190159Y27534048D01*
X-29201066Y27543934D01*
X-29210952Y27554841D01*
X-29219720Y27566664D01*
X-29227288Y27579290D01*
X-29233582Y27592597D01*
X-29238541Y27606457D01*
X-29242118Y27620736D01*
X-29244278Y27635297D01*
X-29245000Y27650000D01*
X-29245000Y29300000D01*
X-29244278Y29314703D01*
X-29242118Y29329264D01*
X-29238541Y29343543D01*
X-29233582Y29357403D01*
X-29227288Y29370710D01*
X-29219720Y29383336D01*
X-29210952Y29395159D01*
X-29201066Y29406066D01*
X-29190159Y29415952D01*
X-29178336Y29424720D01*
X-29165710Y29432288D01*
X-29152403Y29438582D01*
X-29138543Y29443541D01*
X-29124264Y29447118D01*
X-29109703Y29449278D01*
X-29095000Y29450000D01*
X-28795000Y29450000D01*
X-28780297Y29449278D01*
G37*
D11*
X-21450000Y16900000D03*
X-20500000Y16900000D03*
X-19550000Y16900000D03*
X-19550000Y19100000D03*
X-21450000Y19100000D03*
X-20500000Y19100000D03*
X-27500000Y19100000D03*
X-28450000Y19100000D03*
X-26550000Y19100000D03*
X-26550000Y16900000D03*
X-27500000Y16900000D03*
X-28450000Y16900000D03*
M02*
