G04 #@! TF.GenerationSoftware,KiCad,Pcbnew,(5.1.5)-3*
G04 #@! TF.CreationDate,2020-04-27T20:32:12+02:00*
G04 #@! TF.ProjectId,ICHaus,49434861-7573-42e6-9b69-6361645f7063,rev?*
G04 #@! TF.SameCoordinates,Original*
G04 #@! TF.FileFunction,Legend,Bot*
G04 #@! TF.FilePolarity,Positive*
%FSLAX46Y46*%
G04 Gerber Fmt 4.6, Leading zero omitted, Abs format (unit mm)*
G04 Created by KiCad (PCBNEW (5.1.5)-3) date 2020-04-27 20:32:12*
%MOMM*%
%LPD*%
G04 APERTURE LIST*
%ADD10C,0.150000*%
%ADD11C,0.100000*%
%ADD12C,0.120000*%
G04 APERTURE END LIST*
D10*
X49428571Y-173202380D02*
X49428571Y-172202380D01*
X48952380Y-173202380D02*
X48952380Y-172202380D01*
X48380952Y-173202380D01*
X48380952Y-172202380D01*
X47904761Y-173202380D02*
X47904761Y-172202380D01*
X47523809Y-172202380D01*
X47428571Y-172250000D01*
X47380952Y-172297619D01*
X47333333Y-172392857D01*
X47333333Y-172535714D01*
X47380952Y-172630952D01*
X47428571Y-172678571D01*
X47523809Y-172726190D01*
X47904761Y-172726190D01*
X46904761Y-172202380D02*
X46904761Y-173011904D01*
X46857142Y-173107142D01*
X46809523Y-173154761D01*
X46714285Y-173202380D01*
X46523809Y-173202380D01*
X46428571Y-173154761D01*
X46380952Y-173107142D01*
X46333333Y-173011904D01*
X46333333Y-172202380D01*
X46000000Y-172202380D02*
X45428571Y-172202380D01*
X45714285Y-173202380D02*
X45714285Y-172202380D01*
X90511904Y-152250000D02*
X90607142Y-152202380D01*
X90750000Y-152202380D01*
X90892857Y-152250000D01*
X90988095Y-152345238D01*
X91035714Y-152440476D01*
X91083333Y-152630952D01*
X91083333Y-152773809D01*
X91035714Y-152964285D01*
X90988095Y-153059523D01*
X90892857Y-153154761D01*
X90750000Y-153202380D01*
X90654761Y-153202380D01*
X90511904Y-153154761D01*
X90464285Y-153107142D01*
X90464285Y-152773809D01*
X90654761Y-152773809D01*
X90035714Y-153202380D02*
X90035714Y-152202380D01*
X89464285Y-153202380D01*
X89464285Y-152202380D01*
X88988095Y-153202380D02*
X88988095Y-152202380D01*
X88750000Y-152202380D01*
X88607142Y-152250000D01*
X88511904Y-152345238D01*
X88464285Y-152440476D01*
X88416666Y-152630952D01*
X88416666Y-152773809D01*
X88464285Y-152964285D01*
X88511904Y-153059523D01*
X88607142Y-153154761D01*
X88750000Y-153202380D01*
X88988095Y-153202380D01*
X90511904Y-155702380D02*
X90988095Y-155702380D01*
X91035714Y-156178571D01*
X90988095Y-156130952D01*
X90892857Y-156083333D01*
X90654761Y-156083333D01*
X90559523Y-156130952D01*
X90511904Y-156178571D01*
X90464285Y-156273809D01*
X90464285Y-156511904D01*
X90511904Y-156607142D01*
X90559523Y-156654761D01*
X90654761Y-156702380D01*
X90892857Y-156702380D01*
X90988095Y-156654761D01*
X91035714Y-156607142D01*
X90178571Y-155702380D02*
X89845238Y-156702380D01*
X89511904Y-155702380D01*
X88416666Y-156702380D02*
X88416666Y-155702380D01*
X87940476Y-156035714D02*
X87940476Y-156702380D01*
X87940476Y-156130952D02*
X87892857Y-156083333D01*
X87797619Y-156035714D01*
X87654761Y-156035714D01*
X87559523Y-156083333D01*
X87511904Y-156178571D01*
X87511904Y-156702380D01*
X35404761Y-143952380D02*
X35452380Y-144047619D01*
X35452380Y-144238095D01*
X35404761Y-144333333D01*
X35309523Y-144380952D01*
X35261904Y-144380952D01*
X35166666Y-144333333D01*
X35119047Y-144238095D01*
X35119047Y-144095238D01*
X35071428Y-144000000D01*
X34976190Y-143952380D01*
X34928571Y-143952380D01*
X34833333Y-144000000D01*
X34785714Y-144095238D01*
X34785714Y-144238095D01*
X34833333Y-144333333D01*
X35452380Y-144809523D02*
X34452380Y-144809523D01*
X35452380Y-145238095D02*
X34928571Y-145238095D01*
X34833333Y-145190476D01*
X34785714Y-145095238D01*
X34785714Y-144952380D01*
X34833333Y-144857142D01*
X34880952Y-144809523D01*
X35452380Y-145714285D02*
X34785714Y-145714285D01*
X34452380Y-145714285D02*
X34500000Y-145666666D01*
X34547619Y-145714285D01*
X34500000Y-145761904D01*
X34452380Y-145714285D01*
X34547619Y-145714285D01*
X35404761Y-146571428D02*
X35452380Y-146476190D01*
X35452380Y-146285714D01*
X35404761Y-146190476D01*
X35309523Y-146142857D01*
X34928571Y-146142857D01*
X34833333Y-146190476D01*
X34785714Y-146285714D01*
X34785714Y-146476190D01*
X34833333Y-146571428D01*
X34928571Y-146619047D01*
X35023809Y-146619047D01*
X35119047Y-146142857D01*
X35452380Y-147190476D02*
X35404761Y-147095238D01*
X35309523Y-147047619D01*
X34452380Y-147047619D01*
X35452380Y-148000000D02*
X34452380Y-148000000D01*
X35404761Y-148000000D02*
X35452380Y-147904761D01*
X35452380Y-147714285D01*
X35404761Y-147619047D01*
X35357142Y-147571428D01*
X35261904Y-147523809D01*
X34976190Y-147523809D01*
X34880952Y-147571428D01*
X34833333Y-147619047D01*
X34785714Y-147714285D01*
X34785714Y-147904761D01*
X34833333Y-148000000D01*
X34250000Y-151988095D02*
X34202380Y-151892857D01*
X34202380Y-151750000D01*
X34250000Y-151607142D01*
X34345238Y-151511904D01*
X34440476Y-151464285D01*
X34630952Y-151416666D01*
X34773809Y-151416666D01*
X34964285Y-151464285D01*
X35059523Y-151511904D01*
X35154761Y-151607142D01*
X35202380Y-151750000D01*
X35202380Y-151845238D01*
X35154761Y-151988095D01*
X35107142Y-152035714D01*
X34773809Y-152035714D01*
X34773809Y-151845238D01*
X35202380Y-152464285D02*
X34202380Y-152464285D01*
X35202380Y-153035714D01*
X34202380Y-153035714D01*
X35202380Y-153511904D02*
X34202380Y-153511904D01*
X34202380Y-153750000D01*
X34250000Y-153892857D01*
X34345238Y-153988095D01*
X34440476Y-154035714D01*
X34630952Y-154083333D01*
X34773809Y-154083333D01*
X34964285Y-154035714D01*
X35059523Y-153988095D01*
X35154761Y-153892857D01*
X35202380Y-153750000D01*
X35202380Y-153511904D01*
X34202380Y-156059523D02*
X34202380Y-155583333D01*
X34678571Y-155535714D01*
X34630952Y-155583333D01*
X34583333Y-155678571D01*
X34583333Y-155916666D01*
X34630952Y-156011904D01*
X34678571Y-156059523D01*
X34773809Y-156107142D01*
X35011904Y-156107142D01*
X35107142Y-156059523D01*
X35154761Y-156011904D01*
X35202380Y-155916666D01*
X35202380Y-155678571D01*
X35154761Y-155583333D01*
X35107142Y-155535714D01*
X34202380Y-156392857D02*
X35202380Y-156726190D01*
X34202380Y-157059523D01*
X41107142Y-169916666D02*
X40630952Y-169916666D01*
X41202380Y-170202380D02*
X40869047Y-169202380D01*
X40535714Y-170202380D01*
X40202380Y-169821428D02*
X39440476Y-169821428D01*
X45797619Y-169678571D02*
X45654761Y-169726190D01*
X45607142Y-169773809D01*
X45559523Y-169869047D01*
X45559523Y-170011904D01*
X45607142Y-170107142D01*
X45654761Y-170154761D01*
X45750000Y-170202380D01*
X46130952Y-170202380D01*
X46130952Y-169202380D01*
X45797619Y-169202380D01*
X45702380Y-169250000D01*
X45654761Y-169297619D01*
X45607142Y-169392857D01*
X45607142Y-169488095D01*
X45654761Y-169583333D01*
X45702380Y-169630952D01*
X45797619Y-169678571D01*
X46130952Y-169678571D01*
X45130952Y-169821428D02*
X44369047Y-169821428D01*
X44750000Y-170202380D02*
X44750000Y-169440476D01*
X37607142Y-169916666D02*
X37130952Y-169916666D01*
X37702380Y-170202380D02*
X37369047Y-169202380D01*
X37035714Y-170202380D01*
X36702380Y-169821428D02*
X35940476Y-169821428D01*
X36321428Y-170202380D02*
X36321428Y-169440476D01*
X49297619Y-169678571D02*
X49154761Y-169726190D01*
X49107142Y-169773809D01*
X49059523Y-169869047D01*
X49059523Y-170011904D01*
X49107142Y-170107142D01*
X49154761Y-170154761D01*
X49250000Y-170202380D01*
X49630952Y-170202380D01*
X49630952Y-169202380D01*
X49297619Y-169202380D01*
X49202380Y-169250000D01*
X49154761Y-169297619D01*
X49107142Y-169392857D01*
X49107142Y-169488095D01*
X49154761Y-169583333D01*
X49202380Y-169630952D01*
X49297619Y-169678571D01*
X49630952Y-169678571D01*
X48630952Y-169821428D02*
X47869047Y-169821428D01*
X54702380Y-169202380D02*
X54035714Y-169202380D01*
X54702380Y-170202380D01*
X54035714Y-170202380D01*
X53654761Y-169821428D02*
X52892857Y-169821428D01*
X53273809Y-170202380D02*
X53273809Y-169440476D01*
X58202380Y-169202380D02*
X57535714Y-169202380D01*
X58202380Y-170202380D01*
X57535714Y-170202380D01*
X57154761Y-169821428D02*
X56392857Y-169821428D01*
X68107142Y-169916666D02*
X67630952Y-169916666D01*
X68202380Y-170202380D02*
X67869047Y-169202380D01*
X67535714Y-170202380D01*
X67202380Y-169821428D02*
X66440476Y-169821428D01*
X66821428Y-170202380D02*
X66821428Y-169440476D01*
X71607142Y-169916666D02*
X71130952Y-169916666D01*
X71702380Y-170202380D02*
X71369047Y-169202380D01*
X71035714Y-170202380D01*
X70702380Y-169821428D02*
X69940476Y-169821428D01*
X76297619Y-169678571D02*
X76154761Y-169726190D01*
X76107142Y-169773809D01*
X76059523Y-169869047D01*
X76059523Y-170011904D01*
X76107142Y-170107142D01*
X76154761Y-170154761D01*
X76250000Y-170202380D01*
X76630952Y-170202380D01*
X76630952Y-169202380D01*
X76297619Y-169202380D01*
X76202380Y-169250000D01*
X76154761Y-169297619D01*
X76107142Y-169392857D01*
X76107142Y-169488095D01*
X76154761Y-169583333D01*
X76202380Y-169630952D01*
X76297619Y-169678571D01*
X76630952Y-169678571D01*
X75630952Y-169821428D02*
X74869047Y-169821428D01*
X75250000Y-170202380D02*
X75250000Y-169440476D01*
X79797619Y-169678571D02*
X79654761Y-169726190D01*
X79607142Y-169773809D01*
X79559523Y-169869047D01*
X79559523Y-170011904D01*
X79607142Y-170107142D01*
X79654761Y-170154761D01*
X79750000Y-170202380D01*
X80130952Y-170202380D01*
X80130952Y-169202380D01*
X79797619Y-169202380D01*
X79702380Y-169250000D01*
X79654761Y-169297619D01*
X79607142Y-169392857D01*
X79607142Y-169488095D01*
X79654761Y-169583333D01*
X79702380Y-169630952D01*
X79797619Y-169678571D01*
X80130952Y-169678571D01*
X79130952Y-169821428D02*
X78369047Y-169821428D01*
X85202380Y-169202380D02*
X84535714Y-169202380D01*
X85202380Y-170202380D01*
X84535714Y-170202380D01*
X84154761Y-169821428D02*
X83392857Y-169821428D01*
X83773809Y-170202380D02*
X83773809Y-169440476D01*
X88702380Y-169202380D02*
X88035714Y-169202380D01*
X88702380Y-170202380D01*
X88035714Y-170202380D01*
X87654761Y-169821428D02*
X86892857Y-169821428D01*
X54890595Y-132177380D02*
X55462023Y-132177380D01*
X55176309Y-132177380D02*
X55176309Y-131177380D01*
X55271547Y-131320238D01*
X55366785Y-131415476D01*
X55462023Y-131463095D01*
X53938214Y-132177380D02*
X54509642Y-132177380D01*
X54223928Y-132177380D02*
X54223928Y-131177380D01*
X54319166Y-131320238D01*
X54414404Y-131415476D01*
X54509642Y-131463095D01*
X53509642Y-131510714D02*
X53509642Y-132510714D01*
X53033452Y-132034523D02*
X52985833Y-132129761D01*
X52890595Y-132177380D01*
X53509642Y-132034523D02*
X53462023Y-132129761D01*
X53366785Y-132177380D01*
X53176309Y-132177380D01*
X53081071Y-132129761D01*
X53033452Y-132034523D01*
X53033452Y-131510714D01*
X52509642Y-131891666D02*
X52033452Y-131891666D01*
X52604880Y-132177380D02*
X52271547Y-131177380D01*
X51938214Y-132177380D01*
X51652500Y-132129761D02*
X51557261Y-132177380D01*
X51366785Y-132177380D01*
X51271547Y-132129761D01*
X51223928Y-132034523D01*
X51223928Y-131986904D01*
X51271547Y-131891666D01*
X51366785Y-131844047D01*
X51509642Y-131844047D01*
X51604880Y-131796428D01*
X51652500Y-131701190D01*
X51652500Y-131653571D01*
X51604880Y-131558333D01*
X51509642Y-131510714D01*
X51366785Y-131510714D01*
X51271547Y-131558333D01*
X50842976Y-132129761D02*
X50747738Y-132177380D01*
X50557261Y-132177380D01*
X50462023Y-132129761D01*
X50414404Y-132034523D01*
X50414404Y-131986904D01*
X50462023Y-131891666D01*
X50557261Y-131844047D01*
X50700119Y-131844047D01*
X50795357Y-131796428D01*
X50842976Y-131701190D01*
X50842976Y-131653571D01*
X50795357Y-131558333D01*
X50700119Y-131510714D01*
X50557261Y-131510714D01*
X50462023Y-131558333D01*
X49985833Y-132082142D02*
X49938214Y-132129761D01*
X49985833Y-132177380D01*
X50033452Y-132129761D01*
X49985833Y-132082142D01*
X49985833Y-132177380D01*
X49985833Y-131558333D02*
X49938214Y-131605952D01*
X49985833Y-131653571D01*
X50033452Y-131605952D01*
X49985833Y-131558333D01*
X49985833Y-131653571D01*
X54842976Y-133827380D02*
X55176309Y-133351190D01*
X55414404Y-133827380D02*
X55414404Y-132827380D01*
X55033452Y-132827380D01*
X54938214Y-132875000D01*
X54890595Y-132922619D01*
X54842976Y-133017857D01*
X54842976Y-133160714D01*
X54890595Y-133255952D01*
X54938214Y-133303571D01*
X55033452Y-133351190D01*
X55414404Y-133351190D01*
X54462023Y-132922619D02*
X54414404Y-132875000D01*
X54319166Y-132827380D01*
X54081071Y-132827380D01*
X53985833Y-132875000D01*
X53938214Y-132922619D01*
X53890595Y-133017857D01*
X53890595Y-133113095D01*
X53938214Y-133255952D01*
X54509642Y-133827380D01*
X53890595Y-133827380D01*
X53462023Y-133446428D02*
X52700119Y-133446428D01*
X52319166Y-132827380D02*
X51652500Y-132827380D01*
X52081071Y-133827380D01*
X51271547Y-133732142D02*
X51223928Y-133779761D01*
X51271547Y-133827380D01*
X51319166Y-133779761D01*
X51271547Y-133732142D01*
X51271547Y-133827380D01*
X51271547Y-133208333D02*
X51223928Y-133255952D01*
X51271547Y-133303571D01*
X51319166Y-133255952D01*
X51271547Y-133208333D01*
X51271547Y-133303571D01*
X50081071Y-132922619D02*
X50033452Y-132875000D01*
X49938214Y-132827380D01*
X49700119Y-132827380D01*
X49604880Y-132875000D01*
X49557261Y-132922619D01*
X49509642Y-133017857D01*
X49509642Y-133113095D01*
X49557261Y-133255952D01*
X50128690Y-133827380D01*
X49509642Y-133827380D01*
X48604880Y-132827380D02*
X49081071Y-132827380D01*
X49128690Y-133303571D01*
X49081071Y-133255952D01*
X48985833Y-133208333D01*
X48747738Y-133208333D01*
X48652500Y-133255952D01*
X48604880Y-133303571D01*
X48557261Y-133398809D01*
X48557261Y-133636904D01*
X48604880Y-133732142D01*
X48652500Y-133779761D01*
X48747738Y-133827380D01*
X48985833Y-133827380D01*
X49081071Y-133779761D01*
X49128690Y-133732142D01*
X48128690Y-133827380D02*
X48128690Y-132827380D01*
X48033452Y-133446428D02*
X47747738Y-133827380D01*
X47747738Y-133160714D02*
X48128690Y-133541666D01*
X47366785Y-133827380D02*
X47128690Y-133827380D01*
X47128690Y-133636904D01*
X47223928Y-133589285D01*
X47319166Y-133494047D01*
X47366785Y-133351190D01*
X47366785Y-133113095D01*
X47319166Y-132970238D01*
X47223928Y-132875000D01*
X47081071Y-132827380D01*
X46890595Y-132827380D01*
X46747738Y-132875000D01*
X46652500Y-132970238D01*
X46604880Y-133113095D01*
X46604880Y-133351190D01*
X46652500Y-133494047D01*
X46747738Y-133589285D01*
X46842976Y-133636904D01*
X46842976Y-133827380D01*
X46604880Y-133827380D01*
X54890595Y-134525000D02*
X54985833Y-134477380D01*
X55128690Y-134477380D01*
X55271547Y-134525000D01*
X55366785Y-134620238D01*
X55414404Y-134715476D01*
X55462023Y-134905952D01*
X55462023Y-135048809D01*
X55414404Y-135239285D01*
X55366785Y-135334523D01*
X55271547Y-135429761D01*
X55128690Y-135477380D01*
X55033452Y-135477380D01*
X54890595Y-135429761D01*
X54842976Y-135382142D01*
X54842976Y-135048809D01*
X55033452Y-135048809D01*
X53985833Y-135477380D02*
X53985833Y-134953571D01*
X54033452Y-134858333D01*
X54128690Y-134810714D01*
X54319166Y-134810714D01*
X54414404Y-134858333D01*
X53985833Y-135429761D02*
X54081071Y-135477380D01*
X54319166Y-135477380D01*
X54414404Y-135429761D01*
X54462023Y-135334523D01*
X54462023Y-135239285D01*
X54414404Y-135144047D01*
X54319166Y-135096428D01*
X54081071Y-135096428D01*
X53985833Y-135048809D01*
X53509642Y-135477380D02*
X53509642Y-134810714D01*
X53509642Y-134477380D02*
X53557261Y-134525000D01*
X53509642Y-134572619D01*
X53462023Y-134525000D01*
X53509642Y-134477380D01*
X53509642Y-134572619D01*
X53033452Y-134810714D02*
X53033452Y-135477380D01*
X53033452Y-134905952D02*
X52985833Y-134858333D01*
X52890595Y-134810714D01*
X52747738Y-134810714D01*
X52652500Y-134858333D01*
X52604880Y-134953571D01*
X52604880Y-135477380D01*
X52128690Y-135382142D02*
X52081071Y-135429761D01*
X52128690Y-135477380D01*
X52176309Y-135429761D01*
X52128690Y-135382142D01*
X52128690Y-135477380D01*
X52128690Y-134858333D02*
X52081071Y-134905952D01*
X52128690Y-134953571D01*
X52176309Y-134905952D01*
X52128690Y-134858333D01*
X52128690Y-134953571D01*
X50462023Y-134810714D02*
X50462023Y-135477380D01*
X50700119Y-134429761D02*
X50938214Y-135144047D01*
X50319166Y-135144047D01*
X49938214Y-135096428D02*
X49176309Y-135096428D01*
X48795357Y-134477380D02*
X48128690Y-134477380D01*
X48557261Y-135477380D01*
X47747738Y-135382142D02*
X47700119Y-135429761D01*
X47747738Y-135477380D01*
X47795357Y-135429761D01*
X47747738Y-135382142D01*
X47747738Y-135477380D01*
X46747738Y-135477380D02*
X47319166Y-135477380D01*
X47033452Y-135477380D02*
X47033452Y-134477380D01*
X47128690Y-134620238D01*
X47223928Y-134715476D01*
X47319166Y-134763095D01*
X54890595Y-138777380D02*
X55462023Y-138777380D01*
X55176309Y-138777380D02*
X55176309Y-137777380D01*
X55271547Y-137920238D01*
X55366785Y-138015476D01*
X55462023Y-138063095D01*
X54604880Y-137777380D02*
X54271547Y-138777380D01*
X53938214Y-137777380D01*
X53604880Y-138777380D02*
X53604880Y-137777380D01*
X53223928Y-137777380D01*
X53128690Y-137825000D01*
X53081071Y-137872619D01*
X53033452Y-137967857D01*
X53033452Y-138110714D01*
X53081071Y-138205952D01*
X53128690Y-138253571D01*
X53223928Y-138301190D01*
X53604880Y-138301190D01*
X52604880Y-138777380D02*
X52604880Y-137777380D01*
X52223928Y-137777380D01*
X52128690Y-137825000D01*
X52081071Y-137872619D01*
X52033452Y-137967857D01*
X52033452Y-138110714D01*
X52081071Y-138205952D01*
X52128690Y-138253571D01*
X52223928Y-138301190D01*
X52604880Y-138301190D01*
X51604880Y-138682142D02*
X51557261Y-138729761D01*
X51604880Y-138777380D01*
X51652500Y-138729761D01*
X51604880Y-138682142D01*
X51604880Y-138777380D01*
X51604880Y-138158333D02*
X51557261Y-138205952D01*
X51604880Y-138253571D01*
X51652500Y-138205952D01*
X51604880Y-138158333D01*
X51604880Y-138253571D01*
X55414404Y-140427380D02*
X55414404Y-139427380D01*
X55414404Y-139808333D02*
X55319166Y-139760714D01*
X55128690Y-139760714D01*
X55033452Y-139808333D01*
X54985833Y-139855952D01*
X54938214Y-139951190D01*
X54938214Y-140236904D01*
X54985833Y-140332142D01*
X55033452Y-140379761D01*
X55128690Y-140427380D01*
X55319166Y-140427380D01*
X55414404Y-140379761D01*
X54509642Y-140427380D02*
X54509642Y-139760714D01*
X54509642Y-139951190D02*
X54462023Y-139855952D01*
X54414404Y-139808333D01*
X54319166Y-139760714D01*
X54223928Y-139760714D01*
X53890595Y-140427380D02*
X53890595Y-139760714D01*
X53890595Y-139427380D02*
X53938214Y-139475000D01*
X53890595Y-139522619D01*
X53842976Y-139475000D01*
X53890595Y-139427380D01*
X53890595Y-139522619D01*
X52985833Y-140427380D02*
X52985833Y-139427380D01*
X52985833Y-140379761D02*
X53081071Y-140427380D01*
X53271547Y-140427380D01*
X53366785Y-140379761D01*
X53414404Y-140332142D01*
X53462023Y-140236904D01*
X53462023Y-139951190D01*
X53414404Y-139855952D01*
X53366785Y-139808333D01*
X53271547Y-139760714D01*
X53081071Y-139760714D01*
X52985833Y-139808333D01*
X52081071Y-139760714D02*
X52081071Y-140570238D01*
X52128690Y-140665476D01*
X52176309Y-140713095D01*
X52271547Y-140760714D01*
X52414404Y-140760714D01*
X52509642Y-140713095D01*
X52081071Y-140379761D02*
X52176309Y-140427380D01*
X52366785Y-140427380D01*
X52462023Y-140379761D01*
X52509642Y-140332142D01*
X52557261Y-140236904D01*
X52557261Y-139951190D01*
X52509642Y-139855952D01*
X52462023Y-139808333D01*
X52366785Y-139760714D01*
X52176309Y-139760714D01*
X52081071Y-139808333D01*
X51223928Y-140379761D02*
X51319166Y-140427380D01*
X51509642Y-140427380D01*
X51604880Y-140379761D01*
X51652500Y-140284523D01*
X51652500Y-139903571D01*
X51604880Y-139808333D01*
X51509642Y-139760714D01*
X51319166Y-139760714D01*
X51223928Y-139808333D01*
X51176309Y-139903571D01*
X51176309Y-139998809D01*
X51652500Y-140094047D01*
X49700119Y-139427380D02*
X49700119Y-140141666D01*
X49747738Y-140284523D01*
X49842976Y-140379761D01*
X49985833Y-140427380D01*
X50081071Y-140427380D01*
X49223928Y-140427380D02*
X49223928Y-139427380D01*
X48842976Y-139427380D01*
X48747738Y-139475000D01*
X48700119Y-139522619D01*
X48652500Y-139617857D01*
X48652500Y-139760714D01*
X48700119Y-139855952D01*
X48747738Y-139903571D01*
X48842976Y-139951190D01*
X49223928Y-139951190D01*
X47700119Y-140427380D02*
X48271547Y-140427380D01*
X47985833Y-140427380D02*
X47985833Y-139427380D01*
X48081071Y-139570238D01*
X48176309Y-139665476D01*
X48271547Y-139713095D01*
X47271547Y-140046428D02*
X46509642Y-140046428D01*
X46128690Y-139427380D02*
X45509642Y-139427380D01*
X45842976Y-139808333D01*
X45700119Y-139808333D01*
X45604880Y-139855952D01*
X45557261Y-139903571D01*
X45509642Y-139998809D01*
X45509642Y-140236904D01*
X45557261Y-140332142D01*
X45604880Y-140379761D01*
X45700119Y-140427380D01*
X45985833Y-140427380D01*
X46081071Y-140379761D01*
X46128690Y-140332142D01*
X54842976Y-142077380D02*
X55176309Y-141601190D01*
X55414404Y-142077380D02*
X55414404Y-141077380D01*
X55033452Y-141077380D01*
X54938214Y-141125000D01*
X54890595Y-141172619D01*
X54842976Y-141267857D01*
X54842976Y-141410714D01*
X54890595Y-141505952D01*
X54938214Y-141553571D01*
X55033452Y-141601190D01*
X55414404Y-141601190D01*
X54462023Y-141172619D02*
X54414404Y-141125000D01*
X54319166Y-141077380D01*
X54081071Y-141077380D01*
X53985833Y-141125000D01*
X53938214Y-141172619D01*
X53890595Y-141267857D01*
X53890595Y-141363095D01*
X53938214Y-141505952D01*
X54509642Y-142077380D01*
X53890595Y-142077380D01*
X53414404Y-142029761D02*
X53414404Y-142077380D01*
X53462023Y-142172619D01*
X53509642Y-142220238D01*
X52557261Y-141410714D02*
X52557261Y-142077380D01*
X52795357Y-141029761D02*
X53033452Y-141744047D01*
X52414404Y-141744047D01*
X51985833Y-142029761D02*
X51985833Y-142077380D01*
X52033452Y-142172619D01*
X52081071Y-142220238D01*
X51128690Y-141077380D02*
X51319166Y-141077380D01*
X51414404Y-141125000D01*
X51462023Y-141172619D01*
X51557261Y-141315476D01*
X51604880Y-141505952D01*
X51604880Y-141886904D01*
X51557261Y-141982142D01*
X51509642Y-142029761D01*
X51414404Y-142077380D01*
X51223928Y-142077380D01*
X51128690Y-142029761D01*
X51081071Y-141982142D01*
X51033452Y-141886904D01*
X51033452Y-141648809D01*
X51081071Y-141553571D01*
X51128690Y-141505952D01*
X51223928Y-141458333D01*
X51414404Y-141458333D01*
X51509642Y-141505952D01*
X51557261Y-141553571D01*
X51604880Y-141648809D01*
X50604880Y-141982142D02*
X50557261Y-142029761D01*
X50604880Y-142077380D01*
X50652500Y-142029761D01*
X50604880Y-141982142D01*
X50604880Y-142077380D01*
X50604880Y-141458333D02*
X50557261Y-141505952D01*
X50604880Y-141553571D01*
X50652500Y-141505952D01*
X50604880Y-141458333D01*
X50604880Y-141553571D01*
X48842976Y-142077380D02*
X49414404Y-142077380D01*
X49128690Y-142077380D02*
X49128690Y-141077380D01*
X49223928Y-141220238D01*
X49319166Y-141315476D01*
X49414404Y-141363095D01*
X48462023Y-141172619D02*
X48414404Y-141125000D01*
X48319166Y-141077380D01*
X48081071Y-141077380D01*
X47985833Y-141125000D01*
X47938214Y-141172619D01*
X47890595Y-141267857D01*
X47890595Y-141363095D01*
X47938214Y-141505952D01*
X48509642Y-142077380D01*
X47890595Y-142077380D01*
X47271547Y-141077380D02*
X47176309Y-141077380D01*
X47081071Y-141125000D01*
X47033452Y-141172619D01*
X46985833Y-141267857D01*
X46938214Y-141458333D01*
X46938214Y-141696428D01*
X46985833Y-141886904D01*
X47033452Y-141982142D01*
X47081071Y-142029761D01*
X47176309Y-142077380D01*
X47271547Y-142077380D01*
X47366785Y-142029761D01*
X47414404Y-141982142D01*
X47462023Y-141886904D01*
X47509642Y-141696428D01*
X47509642Y-141458333D01*
X47462023Y-141267857D01*
X47414404Y-141172619D01*
X47366785Y-141125000D01*
X47271547Y-141077380D01*
X46557261Y-142077380D02*
X46319166Y-142077380D01*
X46319166Y-141886904D01*
X46414404Y-141839285D01*
X46509642Y-141744047D01*
X46557261Y-141601190D01*
X46557261Y-141363095D01*
X46509642Y-141220238D01*
X46414404Y-141125000D01*
X46271547Y-141077380D01*
X46081071Y-141077380D01*
X45938214Y-141125000D01*
X45842976Y-141220238D01*
X45795357Y-141363095D01*
X45795357Y-141601190D01*
X45842976Y-141744047D01*
X45938214Y-141839285D01*
X46033452Y-141886904D01*
X46033452Y-142077380D01*
X45795357Y-142077380D01*
X54890595Y-142775000D02*
X54985833Y-142727380D01*
X55128690Y-142727380D01*
X55271547Y-142775000D01*
X55366785Y-142870238D01*
X55414404Y-142965476D01*
X55462023Y-143155952D01*
X55462023Y-143298809D01*
X55414404Y-143489285D01*
X55366785Y-143584523D01*
X55271547Y-143679761D01*
X55128690Y-143727380D01*
X55033452Y-143727380D01*
X54890595Y-143679761D01*
X54842976Y-143632142D01*
X54842976Y-143298809D01*
X55033452Y-143298809D01*
X53985833Y-143727380D02*
X53985833Y-143203571D01*
X54033452Y-143108333D01*
X54128690Y-143060714D01*
X54319166Y-143060714D01*
X54414404Y-143108333D01*
X53985833Y-143679761D02*
X54081071Y-143727380D01*
X54319166Y-143727380D01*
X54414404Y-143679761D01*
X54462023Y-143584523D01*
X54462023Y-143489285D01*
X54414404Y-143394047D01*
X54319166Y-143346428D01*
X54081071Y-143346428D01*
X53985833Y-143298809D01*
X53509642Y-143727380D02*
X53509642Y-143060714D01*
X53509642Y-142727380D02*
X53557261Y-142775000D01*
X53509642Y-142822619D01*
X53462023Y-142775000D01*
X53509642Y-142727380D01*
X53509642Y-142822619D01*
X53033452Y-143060714D02*
X53033452Y-143727380D01*
X53033452Y-143155952D02*
X52985833Y-143108333D01*
X52890595Y-143060714D01*
X52747738Y-143060714D01*
X52652500Y-143108333D01*
X52604880Y-143203571D01*
X52604880Y-143727380D01*
X52128690Y-143632142D02*
X52081071Y-143679761D01*
X52128690Y-143727380D01*
X52176309Y-143679761D01*
X52128690Y-143632142D01*
X52128690Y-143727380D01*
X52128690Y-143108333D02*
X52081071Y-143155952D01*
X52128690Y-143203571D01*
X52176309Y-143155952D01*
X52128690Y-143108333D01*
X52128690Y-143203571D01*
X50985833Y-142727380D02*
X50366785Y-142727380D01*
X50700119Y-143108333D01*
X50557261Y-143108333D01*
X50462023Y-143155952D01*
X50414404Y-143203571D01*
X50366785Y-143298809D01*
X50366785Y-143536904D01*
X50414404Y-143632142D01*
X50462023Y-143679761D01*
X50557261Y-143727380D01*
X50842976Y-143727380D01*
X50938214Y-143679761D01*
X50985833Y-143632142D01*
X49938214Y-143346428D02*
X49176309Y-143346428D01*
X48271547Y-143060714D02*
X48271547Y-143727380D01*
X48509642Y-142679761D02*
X48747738Y-143394047D01*
X48128690Y-143394047D01*
X55081071Y-146203571D02*
X55414404Y-146203571D01*
X55414404Y-146727380D02*
X55414404Y-145727380D01*
X54938214Y-145727380D01*
X54414404Y-146727380D02*
X54509642Y-146679761D01*
X54557261Y-146632142D01*
X54604880Y-146536904D01*
X54604880Y-146251190D01*
X54557261Y-146155952D01*
X54509642Y-146108333D01*
X54414404Y-146060714D01*
X54271547Y-146060714D01*
X54176309Y-146108333D01*
X54128690Y-146155952D01*
X54081071Y-146251190D01*
X54081071Y-146536904D01*
X54128690Y-146632142D01*
X54176309Y-146679761D01*
X54271547Y-146727380D01*
X54414404Y-146727380D01*
X53652500Y-146727380D02*
X53652500Y-146060714D01*
X53652500Y-146251190D02*
X53604880Y-146155952D01*
X53557261Y-146108333D01*
X53462023Y-146060714D01*
X53366785Y-146060714D01*
X52319166Y-146679761D02*
X52223928Y-146727380D01*
X52033452Y-146727380D01*
X51938214Y-146679761D01*
X51890595Y-146584523D01*
X51890595Y-146536904D01*
X51938214Y-146441666D01*
X52033452Y-146394047D01*
X52176309Y-146394047D01*
X52271547Y-146346428D01*
X52319166Y-146251190D01*
X52319166Y-146203571D01*
X52271547Y-146108333D01*
X52176309Y-146060714D01*
X52033452Y-146060714D01*
X51938214Y-146108333D01*
X51462023Y-146727380D02*
X51462023Y-146060714D01*
X51462023Y-145727380D02*
X51509642Y-145775000D01*
X51462023Y-145822619D01*
X51414404Y-145775000D01*
X51462023Y-145727380D01*
X51462023Y-145822619D01*
X50985833Y-146060714D02*
X50985833Y-146727380D01*
X50985833Y-146155952D02*
X50938214Y-146108333D01*
X50842976Y-146060714D01*
X50700119Y-146060714D01*
X50604880Y-146108333D01*
X50557261Y-146203571D01*
X50557261Y-146727380D01*
X49652500Y-146060714D02*
X49652500Y-146870238D01*
X49700119Y-146965476D01*
X49747738Y-147013095D01*
X49842976Y-147060714D01*
X49985833Y-147060714D01*
X50081071Y-147013095D01*
X49652500Y-146679761D02*
X49747738Y-146727380D01*
X49938214Y-146727380D01*
X50033452Y-146679761D01*
X50081071Y-146632142D01*
X50128690Y-146536904D01*
X50128690Y-146251190D01*
X50081071Y-146155952D01*
X50033452Y-146108333D01*
X49938214Y-146060714D01*
X49747738Y-146060714D01*
X49652500Y-146108333D01*
X49033452Y-146727380D02*
X49128690Y-146679761D01*
X49176309Y-146584523D01*
X49176309Y-145727380D01*
X48271547Y-146679761D02*
X48366785Y-146727380D01*
X48557261Y-146727380D01*
X48652500Y-146679761D01*
X48700119Y-146584523D01*
X48700119Y-146203571D01*
X48652500Y-146108333D01*
X48557261Y-146060714D01*
X48366785Y-146060714D01*
X48271547Y-146108333D01*
X48223928Y-146203571D01*
X48223928Y-146298809D01*
X48700119Y-146394047D01*
X46652500Y-146679761D02*
X46747738Y-146727380D01*
X46938214Y-146727380D01*
X47033452Y-146679761D01*
X47081071Y-146584523D01*
X47081071Y-146203571D01*
X47033452Y-146108333D01*
X46938214Y-146060714D01*
X46747738Y-146060714D01*
X46652500Y-146108333D01*
X46604880Y-146203571D01*
X46604880Y-146298809D01*
X47081071Y-146394047D01*
X46176309Y-146060714D02*
X46176309Y-146727380D01*
X46176309Y-146155952D02*
X46128690Y-146108333D01*
X46033452Y-146060714D01*
X45890595Y-146060714D01*
X45795357Y-146108333D01*
X45747738Y-146203571D01*
X45747738Y-146727380D01*
X44842976Y-146727380D02*
X44842976Y-145727380D01*
X44842976Y-146679761D02*
X44938214Y-146727380D01*
X45128690Y-146727380D01*
X45223928Y-146679761D01*
X45271547Y-146632142D01*
X45319166Y-146536904D01*
X45319166Y-146251190D01*
X45271547Y-146155952D01*
X45223928Y-146108333D01*
X45128690Y-146060714D01*
X44938214Y-146060714D01*
X44842976Y-146108333D01*
X43985833Y-146679761D02*
X44081071Y-146727380D01*
X44271547Y-146727380D01*
X44366785Y-146679761D01*
X44414404Y-146584523D01*
X44414404Y-146203571D01*
X44366785Y-146108333D01*
X44271547Y-146060714D01*
X44081071Y-146060714D01*
X43985833Y-146108333D01*
X43938214Y-146203571D01*
X43938214Y-146298809D01*
X44414404Y-146394047D01*
X43081071Y-146727380D02*
X43081071Y-145727380D01*
X43081071Y-146679761D02*
X43176309Y-146727380D01*
X43366785Y-146727380D01*
X43462023Y-146679761D01*
X43509642Y-146632142D01*
X43557261Y-146536904D01*
X43557261Y-146251190D01*
X43509642Y-146155952D01*
X43462023Y-146108333D01*
X43366785Y-146060714D01*
X43176309Y-146060714D01*
X43081071Y-146108333D01*
X41700119Y-146727380D02*
X41795357Y-146679761D01*
X41842976Y-146632142D01*
X41890595Y-146536904D01*
X41890595Y-146251190D01*
X41842976Y-146155952D01*
X41795357Y-146108333D01*
X41700119Y-146060714D01*
X41557261Y-146060714D01*
X41462023Y-146108333D01*
X41414404Y-146155952D01*
X41366785Y-146251190D01*
X41366785Y-146536904D01*
X41414404Y-146632142D01*
X41462023Y-146679761D01*
X41557261Y-146727380D01*
X41700119Y-146727380D01*
X40509642Y-146060714D02*
X40509642Y-146727380D01*
X40938214Y-146060714D02*
X40938214Y-146584523D01*
X40890595Y-146679761D01*
X40795357Y-146727380D01*
X40652500Y-146727380D01*
X40557261Y-146679761D01*
X40509642Y-146632142D01*
X40176309Y-146060714D02*
X39795357Y-146060714D01*
X40033452Y-145727380D02*
X40033452Y-146584523D01*
X39985833Y-146679761D01*
X39890595Y-146727380D01*
X39795357Y-146727380D01*
X39462023Y-146060714D02*
X39462023Y-147060714D01*
X39462023Y-146108333D02*
X39366785Y-146060714D01*
X39176309Y-146060714D01*
X39081071Y-146108333D01*
X39033452Y-146155952D01*
X38985833Y-146251190D01*
X38985833Y-146536904D01*
X39033452Y-146632142D01*
X39081071Y-146679761D01*
X39176309Y-146727380D01*
X39366785Y-146727380D01*
X39462023Y-146679761D01*
X38128690Y-146060714D02*
X38128690Y-146727380D01*
X38557261Y-146060714D02*
X38557261Y-146584523D01*
X38509642Y-146679761D01*
X38414404Y-146727380D01*
X38271547Y-146727380D01*
X38176309Y-146679761D01*
X38128690Y-146632142D01*
X37795357Y-146060714D02*
X37414404Y-146060714D01*
X37652500Y-145727380D02*
X37652500Y-146584523D01*
X37604880Y-146679761D01*
X37509642Y-146727380D01*
X37414404Y-146727380D01*
X37081071Y-146632142D02*
X37033452Y-146679761D01*
X37081071Y-146727380D01*
X37128690Y-146679761D01*
X37081071Y-146632142D01*
X37081071Y-146727380D01*
X37081071Y-146108333D02*
X37033452Y-146155952D01*
X37081071Y-146203571D01*
X37128690Y-146155952D01*
X37081071Y-146108333D01*
X37081071Y-146203571D01*
X55414404Y-148377380D02*
X55414404Y-147377380D01*
X55414404Y-147758333D02*
X55319166Y-147710714D01*
X55128690Y-147710714D01*
X55033452Y-147758333D01*
X54985833Y-147805952D01*
X54938214Y-147901190D01*
X54938214Y-148186904D01*
X54985833Y-148282142D01*
X55033452Y-148329761D01*
X55128690Y-148377380D01*
X55319166Y-148377380D01*
X55414404Y-148329761D01*
X54509642Y-148377380D02*
X54509642Y-147710714D01*
X54509642Y-147901190D02*
X54462023Y-147805952D01*
X54414404Y-147758333D01*
X54319166Y-147710714D01*
X54223928Y-147710714D01*
X53890595Y-148377380D02*
X53890595Y-147710714D01*
X53890595Y-147377380D02*
X53938214Y-147425000D01*
X53890595Y-147472619D01*
X53842976Y-147425000D01*
X53890595Y-147377380D01*
X53890595Y-147472619D01*
X52985833Y-148377380D02*
X52985833Y-147377380D01*
X52985833Y-148329761D02*
X53081071Y-148377380D01*
X53271547Y-148377380D01*
X53366785Y-148329761D01*
X53414404Y-148282142D01*
X53462023Y-148186904D01*
X53462023Y-147901190D01*
X53414404Y-147805952D01*
X53366785Y-147758333D01*
X53271547Y-147710714D01*
X53081071Y-147710714D01*
X52985833Y-147758333D01*
X52081071Y-147710714D02*
X52081071Y-148520238D01*
X52128690Y-148615476D01*
X52176309Y-148663095D01*
X52271547Y-148710714D01*
X52414404Y-148710714D01*
X52509642Y-148663095D01*
X52081071Y-148329761D02*
X52176309Y-148377380D01*
X52366785Y-148377380D01*
X52462023Y-148329761D01*
X52509642Y-148282142D01*
X52557261Y-148186904D01*
X52557261Y-147901190D01*
X52509642Y-147805952D01*
X52462023Y-147758333D01*
X52366785Y-147710714D01*
X52176309Y-147710714D01*
X52081071Y-147758333D01*
X51223928Y-148329761D02*
X51319166Y-148377380D01*
X51509642Y-148377380D01*
X51604880Y-148329761D01*
X51652500Y-148234523D01*
X51652500Y-147853571D01*
X51604880Y-147758333D01*
X51509642Y-147710714D01*
X51319166Y-147710714D01*
X51223928Y-147758333D01*
X51176309Y-147853571D01*
X51176309Y-147948809D01*
X51652500Y-148044047D01*
X49700119Y-147377380D02*
X49700119Y-148091666D01*
X49747738Y-148234523D01*
X49842976Y-148329761D01*
X49985833Y-148377380D01*
X50081071Y-148377380D01*
X49081071Y-147805952D02*
X49176309Y-147758333D01*
X49223928Y-147710714D01*
X49271547Y-147615476D01*
X49271547Y-147567857D01*
X49223928Y-147472619D01*
X49176309Y-147425000D01*
X49081071Y-147377380D01*
X48890595Y-147377380D01*
X48795357Y-147425000D01*
X48747738Y-147472619D01*
X48700119Y-147567857D01*
X48700119Y-147615476D01*
X48747738Y-147710714D01*
X48795357Y-147758333D01*
X48890595Y-147805952D01*
X49081071Y-147805952D01*
X49176309Y-147853571D01*
X49223928Y-147901190D01*
X49271547Y-147996428D01*
X49271547Y-148186904D01*
X49223928Y-148282142D01*
X49176309Y-148329761D01*
X49081071Y-148377380D01*
X48890595Y-148377380D01*
X48795357Y-148329761D01*
X48747738Y-148282142D01*
X48700119Y-148186904D01*
X48700119Y-147996428D01*
X48747738Y-147901190D01*
X48795357Y-147853571D01*
X48890595Y-147805952D01*
X48271547Y-147996428D02*
X47509642Y-147996428D01*
X46509642Y-148377380D02*
X47081071Y-148377380D01*
X46795357Y-148377380D02*
X46795357Y-147377380D01*
X46890595Y-147520238D01*
X46985833Y-147615476D01*
X47081071Y-147663095D01*
X45890595Y-147377380D02*
X45795357Y-147377380D01*
X45700119Y-147425000D01*
X45652500Y-147472619D01*
X45604880Y-147567857D01*
X45557261Y-147758333D01*
X45557261Y-147996428D01*
X45604880Y-148186904D01*
X45652500Y-148282142D01*
X45700119Y-148329761D01*
X45795357Y-148377380D01*
X45890595Y-148377380D01*
X45985833Y-148329761D01*
X46033452Y-148282142D01*
X46081071Y-148186904D01*
X46128690Y-147996428D01*
X46128690Y-147758333D01*
X46081071Y-147567857D01*
X46033452Y-147472619D01*
X45985833Y-147425000D01*
X45890595Y-147377380D01*
X55271547Y-150027380D02*
X55366785Y-149979761D01*
X55414404Y-149932142D01*
X55462023Y-149836904D01*
X55462023Y-149551190D01*
X55414404Y-149455952D01*
X55366785Y-149408333D01*
X55271547Y-149360714D01*
X55128690Y-149360714D01*
X55033452Y-149408333D01*
X54985833Y-149455952D01*
X54938214Y-149551190D01*
X54938214Y-149836904D01*
X54985833Y-149932142D01*
X55033452Y-149979761D01*
X55128690Y-150027380D01*
X55271547Y-150027380D01*
X54509642Y-149360714D02*
X54509642Y-150360714D01*
X54509642Y-149408333D02*
X54414404Y-149360714D01*
X54223928Y-149360714D01*
X54128690Y-149408333D01*
X54081071Y-149455952D01*
X54033452Y-149551190D01*
X54033452Y-149836904D01*
X54081071Y-149932142D01*
X54128690Y-149979761D01*
X54223928Y-150027380D01*
X54414404Y-150027380D01*
X54509642Y-149979761D01*
X53223928Y-149979761D02*
X53319166Y-150027380D01*
X53509642Y-150027380D01*
X53604880Y-149979761D01*
X53652500Y-149884523D01*
X53652500Y-149503571D01*
X53604880Y-149408333D01*
X53509642Y-149360714D01*
X53319166Y-149360714D01*
X53223928Y-149408333D01*
X53176309Y-149503571D01*
X53176309Y-149598809D01*
X53652500Y-149694047D01*
X52747738Y-149360714D02*
X52747738Y-150027380D01*
X52747738Y-149455952D02*
X52700119Y-149408333D01*
X52604880Y-149360714D01*
X52462023Y-149360714D01*
X52366785Y-149408333D01*
X52319166Y-149503571D01*
X52319166Y-150027380D01*
X50795357Y-149027380D02*
X50795357Y-149741666D01*
X50842976Y-149884523D01*
X50938214Y-149979761D01*
X51081071Y-150027380D01*
X51176309Y-150027380D01*
X50414404Y-149027380D02*
X49747738Y-149027380D01*
X50176309Y-150027380D01*
X55414404Y-150677380D02*
X55414404Y-151486904D01*
X55366785Y-151582142D01*
X55319166Y-151629761D01*
X55223928Y-151677380D01*
X55033452Y-151677380D01*
X54938214Y-151629761D01*
X54890595Y-151582142D01*
X54842976Y-151486904D01*
X54842976Y-150677380D01*
X54414404Y-151629761D02*
X54319166Y-151677380D01*
X54128690Y-151677380D01*
X54033452Y-151629761D01*
X53985833Y-151534523D01*
X53985833Y-151486904D01*
X54033452Y-151391666D01*
X54128690Y-151344047D01*
X54271547Y-151344047D01*
X54366785Y-151296428D01*
X54414404Y-151201190D01*
X54414404Y-151153571D01*
X54366785Y-151058333D01*
X54271547Y-151010714D01*
X54128690Y-151010714D01*
X54033452Y-151058333D01*
X53176309Y-151629761D02*
X53271547Y-151677380D01*
X53462023Y-151677380D01*
X53557261Y-151629761D01*
X53604880Y-151534523D01*
X53604880Y-151153571D01*
X53557261Y-151058333D01*
X53462023Y-151010714D01*
X53271547Y-151010714D01*
X53176309Y-151058333D01*
X53128690Y-151153571D01*
X53128690Y-151248809D01*
X53604880Y-151344047D01*
X51985833Y-151391666D02*
X51509642Y-151391666D01*
X52081071Y-151677380D02*
X51747738Y-150677380D01*
X51414404Y-151677380D01*
X50366785Y-150629761D02*
X51223928Y-151915476D01*
X49700119Y-151153571D02*
X49557261Y-151201190D01*
X49509642Y-151248809D01*
X49462023Y-151344047D01*
X49462023Y-151486904D01*
X49509642Y-151582142D01*
X49557261Y-151629761D01*
X49652500Y-151677380D01*
X50033452Y-151677380D01*
X50033452Y-150677380D01*
X49700119Y-150677380D01*
X49604880Y-150725000D01*
X49557261Y-150772619D01*
X49509642Y-150867857D01*
X49509642Y-150963095D01*
X49557261Y-151058333D01*
X49604880Y-151105952D01*
X49700119Y-151153571D01*
X50033452Y-151153571D01*
X48319166Y-150629761D02*
X49176309Y-151915476D01*
X48081071Y-150677380D02*
X47414404Y-150677380D01*
X48081071Y-151677380D01*
X47414404Y-151677380D01*
X47033452Y-151296428D02*
X46271547Y-151296428D01*
X46652500Y-151677380D02*
X46652500Y-150915476D01*
X69914404Y-132277380D02*
X69914404Y-131277380D01*
X69533452Y-131277380D01*
X69438214Y-131325000D01*
X69390595Y-131372619D01*
X69342976Y-131467857D01*
X69342976Y-131610714D01*
X69390595Y-131705952D01*
X69438214Y-131753571D01*
X69533452Y-131801190D01*
X69914404Y-131801190D01*
X68914404Y-132277380D02*
X68914404Y-131610714D01*
X68914404Y-131277380D02*
X68962023Y-131325000D01*
X68914404Y-131372619D01*
X68866785Y-131325000D01*
X68914404Y-131277380D01*
X68914404Y-131372619D01*
X68438214Y-131610714D02*
X68438214Y-132277380D01*
X68438214Y-131705952D02*
X68390595Y-131658333D01*
X68295357Y-131610714D01*
X68152500Y-131610714D01*
X68057261Y-131658333D01*
X68009642Y-131753571D01*
X68009642Y-132277380D01*
X67581071Y-132229761D02*
X67485833Y-132277380D01*
X67295357Y-132277380D01*
X67200119Y-132229761D01*
X67152500Y-132134523D01*
X67152500Y-132086904D01*
X67200119Y-131991666D01*
X67295357Y-131944047D01*
X67438214Y-131944047D01*
X67533452Y-131896428D01*
X67581071Y-131801190D01*
X67581071Y-131753571D01*
X67533452Y-131658333D01*
X67438214Y-131610714D01*
X67295357Y-131610714D01*
X67200119Y-131658333D01*
X69390595Y-132975000D02*
X69485833Y-132927380D01*
X69628690Y-132927380D01*
X69771547Y-132975000D01*
X69866785Y-133070238D01*
X69914404Y-133165476D01*
X69962023Y-133355952D01*
X69962023Y-133498809D01*
X69914404Y-133689285D01*
X69866785Y-133784523D01*
X69771547Y-133879761D01*
X69628690Y-133927380D01*
X69533452Y-133927380D01*
X69390595Y-133879761D01*
X69342976Y-133832142D01*
X69342976Y-133498809D01*
X69533452Y-133498809D01*
X68914404Y-133927380D02*
X68914404Y-132927380D01*
X68342976Y-133927380D01*
X68342976Y-132927380D01*
X67866785Y-133927380D02*
X67866785Y-132927380D01*
X67628690Y-132927380D01*
X67485833Y-132975000D01*
X67390595Y-133070238D01*
X67342976Y-133165476D01*
X67295357Y-133355952D01*
X67295357Y-133498809D01*
X67342976Y-133689285D01*
X67390595Y-133784523D01*
X67485833Y-133879761D01*
X67628690Y-133927380D01*
X67866785Y-133927380D01*
X66152500Y-132879761D02*
X67009642Y-134165476D01*
X65866785Y-133879761D02*
X65723928Y-133927380D01*
X65485833Y-133927380D01*
X65390595Y-133879761D01*
X65342976Y-133832142D01*
X65295357Y-133736904D01*
X65295357Y-133641666D01*
X65342976Y-133546428D01*
X65390595Y-133498809D01*
X65485833Y-133451190D01*
X65676309Y-133403571D01*
X65771547Y-133355952D01*
X65819166Y-133308333D01*
X65866785Y-133213095D01*
X65866785Y-133117857D01*
X65819166Y-133022619D01*
X65771547Y-132975000D01*
X65676309Y-132927380D01*
X65438214Y-132927380D01*
X65295357Y-132975000D01*
X64438214Y-133879761D02*
X64533452Y-133927380D01*
X64723928Y-133927380D01*
X64819166Y-133879761D01*
X64866785Y-133832142D01*
X64914404Y-133736904D01*
X64914404Y-133451190D01*
X64866785Y-133355952D01*
X64819166Y-133308333D01*
X64723928Y-133260714D01*
X64533452Y-133260714D01*
X64438214Y-133308333D01*
X64009642Y-133927380D02*
X64009642Y-132927380D01*
X63581071Y-133927380D02*
X63581071Y-133403571D01*
X63628690Y-133308333D01*
X63723928Y-133260714D01*
X63866785Y-133260714D01*
X63962023Y-133308333D01*
X64009642Y-133355952D01*
X63104880Y-133927380D02*
X63104880Y-133260714D01*
X63104880Y-132927380D02*
X63152500Y-132975000D01*
X63104880Y-133022619D01*
X63057261Y-132975000D01*
X63104880Y-132927380D01*
X63104880Y-133022619D01*
X62628690Y-133927380D02*
X62628690Y-133260714D01*
X62628690Y-133451190D02*
X62581071Y-133355952D01*
X62533452Y-133308333D01*
X62438214Y-133260714D01*
X62342976Y-133260714D01*
X62009642Y-133927380D02*
X62009642Y-133260714D01*
X62009642Y-133355952D02*
X61962023Y-133308333D01*
X61866785Y-133260714D01*
X61723928Y-133260714D01*
X61628690Y-133308333D01*
X61581071Y-133403571D01*
X61581071Y-133927380D01*
X61581071Y-133403571D02*
X61533452Y-133308333D01*
X61438214Y-133260714D01*
X61295357Y-133260714D01*
X61200119Y-133308333D01*
X61152500Y-133403571D01*
X61152500Y-133927380D01*
X70009642Y-134577380D02*
X69342976Y-134577380D01*
X70009642Y-135577380D01*
X69342976Y-135577380D01*
X68962023Y-135196428D02*
X68200119Y-135196428D01*
X69581071Y-136703571D02*
X69438214Y-136751190D01*
X69390595Y-136798809D01*
X69342976Y-136894047D01*
X69342976Y-137036904D01*
X69390595Y-137132142D01*
X69438214Y-137179761D01*
X69533452Y-137227380D01*
X69914404Y-137227380D01*
X69914404Y-136227380D01*
X69581071Y-136227380D01*
X69485833Y-136275000D01*
X69438214Y-136322619D01*
X69390595Y-136417857D01*
X69390595Y-136513095D01*
X69438214Y-136608333D01*
X69485833Y-136655952D01*
X69581071Y-136703571D01*
X69914404Y-136703571D01*
X68914404Y-136846428D02*
X68152500Y-136846428D01*
X69962023Y-138591666D02*
X69485833Y-138591666D01*
X70057261Y-138877380D02*
X69723928Y-137877380D01*
X69390595Y-138877380D01*
X69057261Y-138496428D02*
X68295357Y-138496428D01*
X69438214Y-139527380D02*
X69914404Y-139527380D01*
X69962023Y-140003571D01*
X69914404Y-139955952D01*
X69819166Y-139908333D01*
X69581071Y-139908333D01*
X69485833Y-139955952D01*
X69438214Y-140003571D01*
X69390595Y-140098809D01*
X69390595Y-140336904D01*
X69438214Y-140432142D01*
X69485833Y-140479761D01*
X69581071Y-140527380D01*
X69819166Y-140527380D01*
X69914404Y-140479761D01*
X69962023Y-140432142D01*
X69104880Y-139527380D02*
X68771547Y-140527380D01*
X68438214Y-139527380D01*
X69390595Y-141225000D02*
X69485833Y-141177380D01*
X69628690Y-141177380D01*
X69771547Y-141225000D01*
X69866785Y-141320238D01*
X69914404Y-141415476D01*
X69962023Y-141605952D01*
X69962023Y-141748809D01*
X69914404Y-141939285D01*
X69866785Y-142034523D01*
X69771547Y-142129761D01*
X69628690Y-142177380D01*
X69533452Y-142177380D01*
X69390595Y-142129761D01*
X69342976Y-142082142D01*
X69342976Y-141748809D01*
X69533452Y-141748809D01*
X68914404Y-142177380D02*
X68914404Y-141177380D01*
X68342976Y-142177380D01*
X68342976Y-141177380D01*
X67866785Y-142177380D02*
X67866785Y-141177380D01*
X67628690Y-141177380D01*
X67485833Y-141225000D01*
X67390595Y-141320238D01*
X67342976Y-141415476D01*
X67295357Y-141605952D01*
X67295357Y-141748809D01*
X67342976Y-141939285D01*
X67390595Y-142034523D01*
X67485833Y-142129761D01*
X67628690Y-142177380D01*
X67866785Y-142177380D01*
X70009642Y-142827380D02*
X69342976Y-142827380D01*
X70009642Y-143827380D01*
X69342976Y-143827380D01*
X68962023Y-143446428D02*
X68200119Y-143446428D01*
X68581071Y-143827380D02*
X68581071Y-143065476D01*
X69581071Y-144953571D02*
X69438214Y-145001190D01*
X69390595Y-145048809D01*
X69342976Y-145144047D01*
X69342976Y-145286904D01*
X69390595Y-145382142D01*
X69438214Y-145429761D01*
X69533452Y-145477380D01*
X69914404Y-145477380D01*
X69914404Y-144477380D01*
X69581071Y-144477380D01*
X69485833Y-144525000D01*
X69438214Y-144572619D01*
X69390595Y-144667857D01*
X69390595Y-144763095D01*
X69438214Y-144858333D01*
X69485833Y-144905952D01*
X69581071Y-144953571D01*
X69914404Y-144953571D01*
X68914404Y-145096428D02*
X68152500Y-145096428D01*
X68533452Y-145477380D02*
X68533452Y-144715476D01*
X69962023Y-146841666D02*
X69485833Y-146841666D01*
X70057261Y-147127380D02*
X69723928Y-146127380D01*
X69390595Y-147127380D01*
X69057261Y-146746428D02*
X68295357Y-146746428D01*
X68676309Y-147127380D02*
X68676309Y-146365476D01*
X75630952Y-132277380D02*
X75630952Y-131277380D01*
X75392857Y-131277380D01*
X75250000Y-131325000D01*
X75154761Y-131420238D01*
X75107142Y-131515476D01*
X75059523Y-131705952D01*
X75059523Y-131848809D01*
X75107142Y-132039285D01*
X75154761Y-132134523D01*
X75250000Y-132229761D01*
X75392857Y-132277380D01*
X75630952Y-132277380D01*
X74630952Y-131896428D02*
X73869047Y-131896428D01*
X73440476Y-132229761D02*
X73297619Y-132277380D01*
X73059523Y-132277380D01*
X72964285Y-132229761D01*
X72916666Y-132182142D01*
X72869047Y-132086904D01*
X72869047Y-131991666D01*
X72916666Y-131896428D01*
X72964285Y-131848809D01*
X73059523Y-131801190D01*
X73250000Y-131753571D01*
X73345238Y-131705952D01*
X73392857Y-131658333D01*
X73440476Y-131563095D01*
X73440476Y-131467857D01*
X73392857Y-131372619D01*
X73345238Y-131325000D01*
X73250000Y-131277380D01*
X73011904Y-131277380D01*
X72869047Y-131325000D01*
X72440476Y-131277380D02*
X72440476Y-132086904D01*
X72392857Y-132182142D01*
X72345238Y-132229761D01*
X72250000Y-132277380D01*
X72059523Y-132277380D01*
X71964285Y-132229761D01*
X71916666Y-132182142D01*
X71869047Y-132086904D01*
X71869047Y-131277380D01*
X71059523Y-131753571D02*
X70916666Y-131801190D01*
X70869047Y-131848809D01*
X70821428Y-131944047D01*
X70821428Y-132086904D01*
X70869047Y-132182142D01*
X70916666Y-132229761D01*
X71011904Y-132277380D01*
X71392857Y-132277380D01*
X71392857Y-131277380D01*
X71059523Y-131277380D01*
X70964285Y-131325000D01*
X70916666Y-131372619D01*
X70869047Y-131467857D01*
X70869047Y-131563095D01*
X70916666Y-131658333D01*
X70964285Y-131705952D01*
X71059523Y-131753571D01*
X71392857Y-131753571D01*
X72964285Y-133927380D02*
X73535714Y-133927380D01*
X73250000Y-133927380D02*
X73250000Y-132927380D01*
X73345238Y-133070238D01*
X73440476Y-133165476D01*
X73535714Y-133213095D01*
X73535714Y-134672619D02*
X73488095Y-134625000D01*
X73392857Y-134577380D01*
X73154761Y-134577380D01*
X73059523Y-134625000D01*
X73011904Y-134672619D01*
X72964285Y-134767857D01*
X72964285Y-134863095D01*
X73011904Y-135005952D01*
X73583333Y-135577380D01*
X72964285Y-135577380D01*
X73583333Y-136227380D02*
X72964285Y-136227380D01*
X73297619Y-136608333D01*
X73154761Y-136608333D01*
X73059523Y-136655952D01*
X73011904Y-136703571D01*
X72964285Y-136798809D01*
X72964285Y-137036904D01*
X73011904Y-137132142D01*
X73059523Y-137179761D01*
X73154761Y-137227380D01*
X73440476Y-137227380D01*
X73535714Y-137179761D01*
X73583333Y-137132142D01*
X73059523Y-138210714D02*
X73059523Y-138877380D01*
X73297619Y-137829761D02*
X73535714Y-138544047D01*
X72916666Y-138544047D01*
X73011904Y-139527380D02*
X73488095Y-139527380D01*
X73535714Y-140003571D01*
X73488095Y-139955952D01*
X73392857Y-139908333D01*
X73154761Y-139908333D01*
X73059523Y-139955952D01*
X73011904Y-140003571D01*
X72964285Y-140098809D01*
X72964285Y-140336904D01*
X73011904Y-140432142D01*
X73059523Y-140479761D01*
X73154761Y-140527380D01*
X73392857Y-140527380D01*
X73488095Y-140479761D01*
X73535714Y-140432142D01*
X73059523Y-141177380D02*
X73250000Y-141177380D01*
X73345238Y-141225000D01*
X73392857Y-141272619D01*
X73488095Y-141415476D01*
X73535714Y-141605952D01*
X73535714Y-141986904D01*
X73488095Y-142082142D01*
X73440476Y-142129761D01*
X73345238Y-142177380D01*
X73154761Y-142177380D01*
X73059523Y-142129761D01*
X73011904Y-142082142D01*
X72964285Y-141986904D01*
X72964285Y-141748809D01*
X73011904Y-141653571D01*
X73059523Y-141605952D01*
X73154761Y-141558333D01*
X73345238Y-141558333D01*
X73440476Y-141605952D01*
X73488095Y-141653571D01*
X73535714Y-141748809D01*
X73583333Y-142827380D02*
X72916666Y-142827380D01*
X73345238Y-143827380D01*
X73345238Y-144905952D02*
X73440476Y-144858333D01*
X73488095Y-144810714D01*
X73535714Y-144715476D01*
X73535714Y-144667857D01*
X73488095Y-144572619D01*
X73440476Y-144525000D01*
X73345238Y-144477380D01*
X73154761Y-144477380D01*
X73059523Y-144525000D01*
X73011904Y-144572619D01*
X72964285Y-144667857D01*
X72964285Y-144715476D01*
X73011904Y-144810714D01*
X73059523Y-144858333D01*
X73154761Y-144905952D01*
X73345238Y-144905952D01*
X73440476Y-144953571D01*
X73488095Y-145001190D01*
X73535714Y-145096428D01*
X73535714Y-145286904D01*
X73488095Y-145382142D01*
X73440476Y-145429761D01*
X73345238Y-145477380D01*
X73154761Y-145477380D01*
X73059523Y-145429761D01*
X73011904Y-145382142D01*
X72964285Y-145286904D01*
X72964285Y-145096428D01*
X73011904Y-145001190D01*
X73059523Y-144953571D01*
X73154761Y-144905952D01*
X73440476Y-147127380D02*
X73250000Y-147127380D01*
X73154761Y-147079761D01*
X73107142Y-147032142D01*
X73011904Y-146889285D01*
X72964285Y-146698809D01*
X72964285Y-146317857D01*
X73011904Y-146222619D01*
X73059523Y-146175000D01*
X73154761Y-146127380D01*
X73345238Y-146127380D01*
X73440476Y-146175000D01*
X73488095Y-146222619D01*
X73535714Y-146317857D01*
X73535714Y-146555952D01*
X73488095Y-146651190D01*
X73440476Y-146698809D01*
X73345238Y-146746428D01*
X73154761Y-146746428D01*
X73059523Y-146698809D01*
X73011904Y-146651190D01*
X72964285Y-146555952D01*
D11*
G36*
X79000000Y-146750000D02*
G01*
X79000000Y-147250000D01*
X78500000Y-147250000D01*
X78500000Y-146750000D01*
X79000000Y-146750000D01*
G37*
G36*
X79500000Y-146750000D02*
G01*
X79500000Y-147250000D01*
X79000000Y-147250000D01*
X79000000Y-146750000D01*
X79500000Y-146750000D01*
G37*
G36*
X80000000Y-146750000D02*
G01*
X80000000Y-147250000D01*
X79500000Y-147250000D01*
X79500000Y-146750000D01*
X80000000Y-146750000D01*
G37*
G36*
X80500000Y-146750000D02*
G01*
X80500000Y-147250000D01*
X80000000Y-147250000D01*
X80000000Y-146750000D01*
X80500000Y-146750000D01*
G37*
G36*
X81000000Y-146750000D02*
G01*
X81000000Y-147250000D01*
X80500000Y-147250000D01*
X80500000Y-146750000D01*
X81000000Y-146750000D01*
G37*
G36*
X81500000Y-146750000D02*
G01*
X81500000Y-147250000D01*
X81000000Y-147250000D01*
X81000000Y-146750000D01*
X81500000Y-146750000D01*
G37*
G36*
X82000000Y-146750000D02*
G01*
X82000000Y-147250000D01*
X81500000Y-147250000D01*
X81500000Y-146750000D01*
X82000000Y-146750000D01*
G37*
G36*
X83000000Y-146750000D02*
G01*
X83000000Y-147250000D01*
X82500000Y-147250000D01*
X82500000Y-146750000D01*
X83000000Y-146750000D01*
G37*
G36*
X83500000Y-146750000D02*
G01*
X83500000Y-147250000D01*
X83000000Y-147250000D01*
X83000000Y-146750000D01*
X83500000Y-146750000D01*
G37*
G36*
X85500000Y-146750000D02*
G01*
X85500000Y-147250000D01*
X85000000Y-147250000D01*
X85000000Y-146750000D01*
X85500000Y-146750000D01*
G37*
G36*
X86000000Y-146750000D02*
G01*
X86000000Y-147250000D01*
X85500000Y-147250000D01*
X85500000Y-146750000D01*
X86000000Y-146750000D01*
G37*
G36*
X87000000Y-146750000D02*
G01*
X87000000Y-147250000D01*
X86500000Y-147250000D01*
X86500000Y-146750000D01*
X87000000Y-146750000D01*
G37*
G36*
X88000000Y-146750000D02*
G01*
X88000000Y-147250000D01*
X87500000Y-147250000D01*
X87500000Y-146750000D01*
X88000000Y-146750000D01*
G37*
G36*
X88500000Y-146750000D02*
G01*
X88500000Y-147250000D01*
X88000000Y-147250000D01*
X88000000Y-146750000D01*
X88500000Y-146750000D01*
G37*
G36*
X89500000Y-146750000D02*
G01*
X89500000Y-147250000D01*
X89000000Y-147250000D01*
X89000000Y-146750000D01*
X89500000Y-146750000D01*
G37*
G36*
X90500000Y-146750000D02*
G01*
X90500000Y-147250000D01*
X90000000Y-147250000D01*
X90000000Y-146750000D01*
X90500000Y-146750000D01*
G37*
G36*
X92000000Y-146750000D02*
G01*
X92000000Y-147250000D01*
X91500000Y-147250000D01*
X91500000Y-146750000D01*
X92000000Y-146750000D01*
G37*
G36*
X92500000Y-146750000D02*
G01*
X92500000Y-147250000D01*
X92000000Y-147250000D01*
X92000000Y-146750000D01*
X92500000Y-146750000D01*
G37*
G36*
X93000000Y-146750000D02*
G01*
X93000000Y-147250000D01*
X92500000Y-147250000D01*
X92500000Y-146750000D01*
X93000000Y-146750000D01*
G37*
G36*
X93500000Y-146750000D02*
G01*
X93500000Y-147250000D01*
X93000000Y-147250000D01*
X93000000Y-146750000D01*
X93500000Y-146750000D01*
G37*
G36*
X94000000Y-146750000D02*
G01*
X94000000Y-147250000D01*
X93500000Y-147250000D01*
X93500000Y-146750000D01*
X94000000Y-146750000D01*
G37*
G36*
X94500000Y-146750000D02*
G01*
X94500000Y-147250000D01*
X94000000Y-147250000D01*
X94000000Y-146750000D01*
X94500000Y-146750000D01*
G37*
G36*
X95000000Y-146750000D02*
G01*
X95000000Y-147250000D01*
X94500000Y-147250000D01*
X94500000Y-146750000D01*
X95000000Y-146750000D01*
G37*
G36*
X79000000Y-146250000D02*
G01*
X79000000Y-146750000D01*
X78500000Y-146750000D01*
X78500000Y-146250000D01*
X79000000Y-146250000D01*
G37*
G36*
X82000000Y-146250000D02*
G01*
X82000000Y-146750000D01*
X81500000Y-146750000D01*
X81500000Y-146250000D01*
X82000000Y-146250000D01*
G37*
G36*
X83000000Y-146250000D02*
G01*
X83000000Y-146750000D01*
X82500000Y-146750000D01*
X82500000Y-146250000D01*
X83000000Y-146250000D01*
G37*
G36*
X83500000Y-146250000D02*
G01*
X83500000Y-146750000D01*
X83000000Y-146750000D01*
X83000000Y-146250000D01*
X83500000Y-146250000D01*
G37*
G36*
X84000000Y-146250000D02*
G01*
X84000000Y-146750000D01*
X83500000Y-146750000D01*
X83500000Y-146250000D01*
X84000000Y-146250000D01*
G37*
G36*
X85000000Y-146250000D02*
G01*
X85000000Y-146750000D01*
X84500000Y-146750000D01*
X84500000Y-146250000D01*
X85000000Y-146250000D01*
G37*
G36*
X85500000Y-146250000D02*
G01*
X85500000Y-146750000D01*
X85000000Y-146750000D01*
X85000000Y-146250000D01*
X85500000Y-146250000D01*
G37*
G36*
X87000000Y-146250000D02*
G01*
X87000000Y-146750000D01*
X86500000Y-146750000D01*
X86500000Y-146250000D01*
X87000000Y-146250000D01*
G37*
G36*
X87500000Y-146250000D02*
G01*
X87500000Y-146750000D01*
X87000000Y-146750000D01*
X87000000Y-146250000D01*
X87500000Y-146250000D01*
G37*
G36*
X88000000Y-146250000D02*
G01*
X88000000Y-146750000D01*
X87500000Y-146750000D01*
X87500000Y-146250000D01*
X88000000Y-146250000D01*
G37*
G36*
X89500000Y-146250000D02*
G01*
X89500000Y-146750000D01*
X89000000Y-146750000D01*
X89000000Y-146250000D01*
X89500000Y-146250000D01*
G37*
G36*
X90500000Y-146250000D02*
G01*
X90500000Y-146750000D01*
X90000000Y-146750000D01*
X90000000Y-146250000D01*
X90500000Y-146250000D01*
G37*
G36*
X91000000Y-146250000D02*
G01*
X91000000Y-146750000D01*
X90500000Y-146750000D01*
X90500000Y-146250000D01*
X91000000Y-146250000D01*
G37*
G36*
X92000000Y-146250000D02*
G01*
X92000000Y-146750000D01*
X91500000Y-146750000D01*
X91500000Y-146250000D01*
X92000000Y-146250000D01*
G37*
G36*
X95000000Y-146250000D02*
G01*
X95000000Y-146750000D01*
X94500000Y-146750000D01*
X94500000Y-146250000D01*
X95000000Y-146250000D01*
G37*
G36*
X79000000Y-145750000D02*
G01*
X79000000Y-146250000D01*
X78500000Y-146250000D01*
X78500000Y-145750000D01*
X79000000Y-145750000D01*
G37*
G36*
X80000000Y-145750000D02*
G01*
X80000000Y-146250000D01*
X79500000Y-146250000D01*
X79500000Y-145750000D01*
X80000000Y-145750000D01*
G37*
G36*
X80500000Y-145750000D02*
G01*
X80500000Y-146250000D01*
X80000000Y-146250000D01*
X80000000Y-145750000D01*
X80500000Y-145750000D01*
G37*
G36*
X81000000Y-145750000D02*
G01*
X81000000Y-146250000D01*
X80500000Y-146250000D01*
X80500000Y-145750000D01*
X81000000Y-145750000D01*
G37*
G36*
X82000000Y-145750000D02*
G01*
X82000000Y-146250000D01*
X81500000Y-146250000D01*
X81500000Y-145750000D01*
X82000000Y-145750000D01*
G37*
G36*
X84000000Y-145750000D02*
G01*
X84000000Y-146250000D01*
X83500000Y-146250000D01*
X83500000Y-145750000D01*
X84000000Y-145750000D01*
G37*
G36*
X84500000Y-145750000D02*
G01*
X84500000Y-146250000D01*
X84000000Y-146250000D01*
X84000000Y-145750000D01*
X84500000Y-145750000D01*
G37*
G36*
X85000000Y-145750000D02*
G01*
X85000000Y-146250000D01*
X84500000Y-146250000D01*
X84500000Y-145750000D01*
X85000000Y-145750000D01*
G37*
G36*
X86500000Y-145750000D02*
G01*
X86500000Y-146250000D01*
X86000000Y-146250000D01*
X86000000Y-145750000D01*
X86500000Y-145750000D01*
G37*
G36*
X88000000Y-145750000D02*
G01*
X88000000Y-146250000D01*
X87500000Y-146250000D01*
X87500000Y-145750000D01*
X88000000Y-145750000D01*
G37*
G36*
X88500000Y-145750000D02*
G01*
X88500000Y-146250000D01*
X88000000Y-146250000D01*
X88000000Y-145750000D01*
X88500000Y-145750000D01*
G37*
G36*
X89000000Y-145750000D02*
G01*
X89000000Y-146250000D01*
X88500000Y-146250000D01*
X88500000Y-145750000D01*
X89000000Y-145750000D01*
G37*
G36*
X92000000Y-145750000D02*
G01*
X92000000Y-146250000D01*
X91500000Y-146250000D01*
X91500000Y-145750000D01*
X92000000Y-145750000D01*
G37*
G36*
X93000000Y-145750000D02*
G01*
X93000000Y-146250000D01*
X92500000Y-146250000D01*
X92500000Y-145750000D01*
X93000000Y-145750000D01*
G37*
G36*
X93500000Y-145750000D02*
G01*
X93500000Y-146250000D01*
X93000000Y-146250000D01*
X93000000Y-145750000D01*
X93500000Y-145750000D01*
G37*
G36*
X94000000Y-145750000D02*
G01*
X94000000Y-146250000D01*
X93500000Y-146250000D01*
X93500000Y-145750000D01*
X94000000Y-145750000D01*
G37*
G36*
X95000000Y-145750000D02*
G01*
X95000000Y-146250000D01*
X94500000Y-146250000D01*
X94500000Y-145750000D01*
X95000000Y-145750000D01*
G37*
G36*
X79000000Y-145250000D02*
G01*
X79000000Y-145750000D01*
X78500000Y-145750000D01*
X78500000Y-145250000D01*
X79000000Y-145250000D01*
G37*
G36*
X80000000Y-145250000D02*
G01*
X80000000Y-145750000D01*
X79500000Y-145750000D01*
X79500000Y-145250000D01*
X80000000Y-145250000D01*
G37*
G36*
X80500000Y-145250000D02*
G01*
X80500000Y-145750000D01*
X80000000Y-145750000D01*
X80000000Y-145250000D01*
X80500000Y-145250000D01*
G37*
G36*
X81000000Y-145250000D02*
G01*
X81000000Y-145750000D01*
X80500000Y-145750000D01*
X80500000Y-145250000D01*
X81000000Y-145250000D01*
G37*
G36*
X82000000Y-145250000D02*
G01*
X82000000Y-145750000D01*
X81500000Y-145750000D01*
X81500000Y-145250000D01*
X82000000Y-145250000D01*
G37*
G36*
X83000000Y-145250000D02*
G01*
X83000000Y-145750000D01*
X82500000Y-145750000D01*
X82500000Y-145250000D01*
X83000000Y-145250000D01*
G37*
G36*
X83500000Y-145250000D02*
G01*
X83500000Y-145750000D01*
X83000000Y-145750000D01*
X83000000Y-145250000D01*
X83500000Y-145250000D01*
G37*
G36*
X85000000Y-145250000D02*
G01*
X85000000Y-145750000D01*
X84500000Y-145750000D01*
X84500000Y-145250000D01*
X85000000Y-145250000D01*
G37*
G36*
X86000000Y-145250000D02*
G01*
X86000000Y-145750000D01*
X85500000Y-145750000D01*
X85500000Y-145250000D01*
X86000000Y-145250000D01*
G37*
G36*
X87000000Y-145250000D02*
G01*
X87000000Y-145750000D01*
X86500000Y-145750000D01*
X86500000Y-145250000D01*
X87000000Y-145250000D01*
G37*
G36*
X87500000Y-145250000D02*
G01*
X87500000Y-145750000D01*
X87000000Y-145750000D01*
X87000000Y-145250000D01*
X87500000Y-145250000D01*
G37*
G36*
X90000000Y-145250000D02*
G01*
X90000000Y-145750000D01*
X89500000Y-145750000D01*
X89500000Y-145250000D01*
X90000000Y-145250000D01*
G37*
G36*
X90500000Y-145250000D02*
G01*
X90500000Y-145750000D01*
X90000000Y-145750000D01*
X90000000Y-145250000D01*
X90500000Y-145250000D01*
G37*
G36*
X92000000Y-145250000D02*
G01*
X92000000Y-145750000D01*
X91500000Y-145750000D01*
X91500000Y-145250000D01*
X92000000Y-145250000D01*
G37*
G36*
X93000000Y-145250000D02*
G01*
X93000000Y-145750000D01*
X92500000Y-145750000D01*
X92500000Y-145250000D01*
X93000000Y-145250000D01*
G37*
G36*
X93500000Y-145250000D02*
G01*
X93500000Y-145750000D01*
X93000000Y-145750000D01*
X93000000Y-145250000D01*
X93500000Y-145250000D01*
G37*
G36*
X94000000Y-145250000D02*
G01*
X94000000Y-145750000D01*
X93500000Y-145750000D01*
X93500000Y-145250000D01*
X94000000Y-145250000D01*
G37*
G36*
X95000000Y-145250000D02*
G01*
X95000000Y-145750000D01*
X94500000Y-145750000D01*
X94500000Y-145250000D01*
X95000000Y-145250000D01*
G37*
G36*
X79000000Y-144750000D02*
G01*
X79000000Y-145250000D01*
X78500000Y-145250000D01*
X78500000Y-144750000D01*
X79000000Y-144750000D01*
G37*
G36*
X80000000Y-144750000D02*
G01*
X80000000Y-145250000D01*
X79500000Y-145250000D01*
X79500000Y-144750000D01*
X80000000Y-144750000D01*
G37*
G36*
X80500000Y-144750000D02*
G01*
X80500000Y-145250000D01*
X80000000Y-145250000D01*
X80000000Y-144750000D01*
X80500000Y-144750000D01*
G37*
G36*
X81000000Y-144750000D02*
G01*
X81000000Y-145250000D01*
X80500000Y-145250000D01*
X80500000Y-144750000D01*
X81000000Y-144750000D01*
G37*
G36*
X82000000Y-144750000D02*
G01*
X82000000Y-145250000D01*
X81500000Y-145250000D01*
X81500000Y-144750000D01*
X82000000Y-144750000D01*
G37*
G36*
X84000000Y-144750000D02*
G01*
X84000000Y-145250000D01*
X83500000Y-145250000D01*
X83500000Y-144750000D01*
X84000000Y-144750000D01*
G37*
G36*
X84500000Y-144750000D02*
G01*
X84500000Y-145250000D01*
X84000000Y-145250000D01*
X84000000Y-144750000D01*
X84500000Y-144750000D01*
G37*
G36*
X85000000Y-144750000D02*
G01*
X85000000Y-145250000D01*
X84500000Y-145250000D01*
X84500000Y-144750000D01*
X85000000Y-144750000D01*
G37*
G36*
X86000000Y-144750000D02*
G01*
X86000000Y-145250000D01*
X85500000Y-145250000D01*
X85500000Y-144750000D01*
X86000000Y-144750000D01*
G37*
G36*
X88500000Y-144750000D02*
G01*
X88500000Y-145250000D01*
X88000000Y-145250000D01*
X88000000Y-144750000D01*
X88500000Y-144750000D01*
G37*
G36*
X91000000Y-144750000D02*
G01*
X91000000Y-145250000D01*
X90500000Y-145250000D01*
X90500000Y-144750000D01*
X91000000Y-144750000D01*
G37*
G36*
X92000000Y-144750000D02*
G01*
X92000000Y-145250000D01*
X91500000Y-145250000D01*
X91500000Y-144750000D01*
X92000000Y-144750000D01*
G37*
G36*
X93000000Y-144750000D02*
G01*
X93000000Y-145250000D01*
X92500000Y-145250000D01*
X92500000Y-144750000D01*
X93000000Y-144750000D01*
G37*
G36*
X93500000Y-144750000D02*
G01*
X93500000Y-145250000D01*
X93000000Y-145250000D01*
X93000000Y-144750000D01*
X93500000Y-144750000D01*
G37*
G36*
X94000000Y-144750000D02*
G01*
X94000000Y-145250000D01*
X93500000Y-145250000D01*
X93500000Y-144750000D01*
X94000000Y-144750000D01*
G37*
G36*
X95000000Y-144750000D02*
G01*
X95000000Y-145250000D01*
X94500000Y-145250000D01*
X94500000Y-144750000D01*
X95000000Y-144750000D01*
G37*
G36*
X79000000Y-144250000D02*
G01*
X79000000Y-144750000D01*
X78500000Y-144750000D01*
X78500000Y-144250000D01*
X79000000Y-144250000D01*
G37*
G36*
X82000000Y-144250000D02*
G01*
X82000000Y-144750000D01*
X81500000Y-144750000D01*
X81500000Y-144250000D01*
X82000000Y-144250000D01*
G37*
G36*
X83500000Y-144250000D02*
G01*
X83500000Y-144750000D01*
X83000000Y-144750000D01*
X83000000Y-144250000D01*
X83500000Y-144250000D01*
G37*
G36*
X84000000Y-144250000D02*
G01*
X84000000Y-144750000D01*
X83500000Y-144750000D01*
X83500000Y-144250000D01*
X84000000Y-144250000D01*
G37*
G36*
X84500000Y-144250000D02*
G01*
X84500000Y-144750000D01*
X84000000Y-144750000D01*
X84000000Y-144250000D01*
X84500000Y-144250000D01*
G37*
G36*
X85500000Y-144250000D02*
G01*
X85500000Y-144750000D01*
X85000000Y-144750000D01*
X85000000Y-144250000D01*
X85500000Y-144250000D01*
G37*
G36*
X87500000Y-144250000D02*
G01*
X87500000Y-144750000D01*
X87000000Y-144750000D01*
X87000000Y-144250000D01*
X87500000Y-144250000D01*
G37*
G36*
X88000000Y-144250000D02*
G01*
X88000000Y-144750000D01*
X87500000Y-144750000D01*
X87500000Y-144250000D01*
X88000000Y-144250000D01*
G37*
G36*
X88500000Y-144250000D02*
G01*
X88500000Y-144750000D01*
X88000000Y-144750000D01*
X88000000Y-144250000D01*
X88500000Y-144250000D01*
G37*
G36*
X89000000Y-144250000D02*
G01*
X89000000Y-144750000D01*
X88500000Y-144750000D01*
X88500000Y-144250000D01*
X89000000Y-144250000D01*
G37*
G36*
X89500000Y-144250000D02*
G01*
X89500000Y-144750000D01*
X89000000Y-144750000D01*
X89000000Y-144250000D01*
X89500000Y-144250000D01*
G37*
G36*
X90000000Y-144250000D02*
G01*
X90000000Y-144750000D01*
X89500000Y-144750000D01*
X89500000Y-144250000D01*
X90000000Y-144250000D01*
G37*
G36*
X91000000Y-144250000D02*
G01*
X91000000Y-144750000D01*
X90500000Y-144750000D01*
X90500000Y-144250000D01*
X91000000Y-144250000D01*
G37*
G36*
X92000000Y-144250000D02*
G01*
X92000000Y-144750000D01*
X91500000Y-144750000D01*
X91500000Y-144250000D01*
X92000000Y-144250000D01*
G37*
G36*
X95000000Y-144250000D02*
G01*
X95000000Y-144750000D01*
X94500000Y-144750000D01*
X94500000Y-144250000D01*
X95000000Y-144250000D01*
G37*
G36*
X79000000Y-143750000D02*
G01*
X79000000Y-144250000D01*
X78500000Y-144250000D01*
X78500000Y-143750000D01*
X79000000Y-143750000D01*
G37*
G36*
X79500000Y-143750000D02*
G01*
X79500000Y-144250000D01*
X79000000Y-144250000D01*
X79000000Y-143750000D01*
X79500000Y-143750000D01*
G37*
G36*
X80000000Y-143750000D02*
G01*
X80000000Y-144250000D01*
X79500000Y-144250000D01*
X79500000Y-143750000D01*
X80000000Y-143750000D01*
G37*
G36*
X80500000Y-143750000D02*
G01*
X80500000Y-144250000D01*
X80000000Y-144250000D01*
X80000000Y-143750000D01*
X80500000Y-143750000D01*
G37*
G36*
X81000000Y-143750000D02*
G01*
X81000000Y-144250000D01*
X80500000Y-144250000D01*
X80500000Y-143750000D01*
X81000000Y-143750000D01*
G37*
G36*
X81500000Y-143750000D02*
G01*
X81500000Y-144250000D01*
X81000000Y-144250000D01*
X81000000Y-143750000D01*
X81500000Y-143750000D01*
G37*
G36*
X82000000Y-143750000D02*
G01*
X82000000Y-144250000D01*
X81500000Y-144250000D01*
X81500000Y-143750000D01*
X82000000Y-143750000D01*
G37*
G36*
X83000000Y-143750000D02*
G01*
X83000000Y-144250000D01*
X82500000Y-144250000D01*
X82500000Y-143750000D01*
X83000000Y-143750000D01*
G37*
G36*
X84000000Y-143750000D02*
G01*
X84000000Y-144250000D01*
X83500000Y-144250000D01*
X83500000Y-143750000D01*
X84000000Y-143750000D01*
G37*
G36*
X85000000Y-143750000D02*
G01*
X85000000Y-144250000D01*
X84500000Y-144250000D01*
X84500000Y-143750000D01*
X85000000Y-143750000D01*
G37*
G36*
X86000000Y-143750000D02*
G01*
X86000000Y-144250000D01*
X85500000Y-144250000D01*
X85500000Y-143750000D01*
X86000000Y-143750000D01*
G37*
G36*
X87000000Y-143750000D02*
G01*
X87000000Y-144250000D01*
X86500000Y-144250000D01*
X86500000Y-143750000D01*
X87000000Y-143750000D01*
G37*
G36*
X88000000Y-143750000D02*
G01*
X88000000Y-144250000D01*
X87500000Y-144250000D01*
X87500000Y-143750000D01*
X88000000Y-143750000D01*
G37*
G36*
X89000000Y-143750000D02*
G01*
X89000000Y-144250000D01*
X88500000Y-144250000D01*
X88500000Y-143750000D01*
X89000000Y-143750000D01*
G37*
G36*
X90000000Y-143750000D02*
G01*
X90000000Y-144250000D01*
X89500000Y-144250000D01*
X89500000Y-143750000D01*
X90000000Y-143750000D01*
G37*
G36*
X91000000Y-143750000D02*
G01*
X91000000Y-144250000D01*
X90500000Y-144250000D01*
X90500000Y-143750000D01*
X91000000Y-143750000D01*
G37*
G36*
X92000000Y-143750000D02*
G01*
X92000000Y-144250000D01*
X91500000Y-144250000D01*
X91500000Y-143750000D01*
X92000000Y-143750000D01*
G37*
G36*
X92500000Y-143750000D02*
G01*
X92500000Y-144250000D01*
X92000000Y-144250000D01*
X92000000Y-143750000D01*
X92500000Y-143750000D01*
G37*
G36*
X93000000Y-143750000D02*
G01*
X93000000Y-144250000D01*
X92500000Y-144250000D01*
X92500000Y-143750000D01*
X93000000Y-143750000D01*
G37*
G36*
X93500000Y-143750000D02*
G01*
X93500000Y-144250000D01*
X93000000Y-144250000D01*
X93000000Y-143750000D01*
X93500000Y-143750000D01*
G37*
G36*
X94000000Y-143750000D02*
G01*
X94000000Y-144250000D01*
X93500000Y-144250000D01*
X93500000Y-143750000D01*
X94000000Y-143750000D01*
G37*
G36*
X94500000Y-143750000D02*
G01*
X94500000Y-144250000D01*
X94000000Y-144250000D01*
X94000000Y-143750000D01*
X94500000Y-143750000D01*
G37*
G36*
X95000000Y-143750000D02*
G01*
X95000000Y-144250000D01*
X94500000Y-144250000D01*
X94500000Y-143750000D01*
X95000000Y-143750000D01*
G37*
G36*
X83000000Y-143250000D02*
G01*
X83000000Y-143750000D01*
X82500000Y-143750000D01*
X82500000Y-143250000D01*
X83000000Y-143250000D01*
G37*
G36*
X83500000Y-143250000D02*
G01*
X83500000Y-143750000D01*
X83000000Y-143750000D01*
X83000000Y-143250000D01*
X83500000Y-143250000D01*
G37*
G36*
X84500000Y-143250000D02*
G01*
X84500000Y-143750000D01*
X84000000Y-143750000D01*
X84000000Y-143250000D01*
X84500000Y-143250000D01*
G37*
G36*
X86000000Y-143250000D02*
G01*
X86000000Y-143750000D01*
X85500000Y-143750000D01*
X85500000Y-143250000D01*
X86000000Y-143250000D01*
G37*
G36*
X87500000Y-143250000D02*
G01*
X87500000Y-143750000D01*
X87000000Y-143750000D01*
X87000000Y-143250000D01*
X87500000Y-143250000D01*
G37*
G36*
X88000000Y-143250000D02*
G01*
X88000000Y-143750000D01*
X87500000Y-143750000D01*
X87500000Y-143250000D01*
X88000000Y-143250000D01*
G37*
G36*
X89000000Y-143250000D02*
G01*
X89000000Y-143750000D01*
X88500000Y-143750000D01*
X88500000Y-143250000D01*
X89000000Y-143250000D01*
G37*
G36*
X90000000Y-143250000D02*
G01*
X90000000Y-143750000D01*
X89500000Y-143750000D01*
X89500000Y-143250000D01*
X90000000Y-143250000D01*
G37*
G36*
X90500000Y-143250000D02*
G01*
X90500000Y-143750000D01*
X90000000Y-143750000D01*
X90000000Y-143250000D01*
X90500000Y-143250000D01*
G37*
G36*
X79000000Y-142750000D02*
G01*
X79000000Y-143250000D01*
X78500000Y-143250000D01*
X78500000Y-142750000D01*
X79000000Y-142750000D01*
G37*
G36*
X80000000Y-142750000D02*
G01*
X80000000Y-143250000D01*
X79500000Y-143250000D01*
X79500000Y-142750000D01*
X80000000Y-142750000D01*
G37*
G36*
X80500000Y-142750000D02*
G01*
X80500000Y-143250000D01*
X80000000Y-143250000D01*
X80000000Y-142750000D01*
X80500000Y-142750000D01*
G37*
G36*
X81500000Y-142750000D02*
G01*
X81500000Y-143250000D01*
X81000000Y-143250000D01*
X81000000Y-142750000D01*
X81500000Y-142750000D01*
G37*
G36*
X82000000Y-142750000D02*
G01*
X82000000Y-143250000D01*
X81500000Y-143250000D01*
X81500000Y-142750000D01*
X82000000Y-142750000D01*
G37*
G36*
X82500000Y-142750000D02*
G01*
X82500000Y-143250000D01*
X82000000Y-143250000D01*
X82000000Y-142750000D01*
X82500000Y-142750000D01*
G37*
G36*
X83500000Y-142750000D02*
G01*
X83500000Y-143250000D01*
X83000000Y-143250000D01*
X83000000Y-142750000D01*
X83500000Y-142750000D01*
G37*
G36*
X84000000Y-142750000D02*
G01*
X84000000Y-143250000D01*
X83500000Y-143250000D01*
X83500000Y-142750000D01*
X84000000Y-142750000D01*
G37*
G36*
X85000000Y-142750000D02*
G01*
X85000000Y-143250000D01*
X84500000Y-143250000D01*
X84500000Y-142750000D01*
X85000000Y-142750000D01*
G37*
G36*
X86000000Y-142750000D02*
G01*
X86000000Y-143250000D01*
X85500000Y-143250000D01*
X85500000Y-142750000D01*
X86000000Y-142750000D01*
G37*
G36*
X87000000Y-142750000D02*
G01*
X87000000Y-143250000D01*
X86500000Y-143250000D01*
X86500000Y-142750000D01*
X87000000Y-142750000D01*
G37*
G36*
X87500000Y-142750000D02*
G01*
X87500000Y-143250000D01*
X87000000Y-143250000D01*
X87000000Y-142750000D01*
X87500000Y-142750000D01*
G37*
G36*
X88000000Y-142750000D02*
G01*
X88000000Y-143250000D01*
X87500000Y-143250000D01*
X87500000Y-142750000D01*
X88000000Y-142750000D01*
G37*
G36*
X88500000Y-142750000D02*
G01*
X88500000Y-143250000D01*
X88000000Y-143250000D01*
X88000000Y-142750000D01*
X88500000Y-142750000D01*
G37*
G36*
X89500000Y-142750000D02*
G01*
X89500000Y-143250000D01*
X89000000Y-143250000D01*
X89000000Y-142750000D01*
X89500000Y-142750000D01*
G37*
G36*
X92000000Y-142750000D02*
G01*
X92000000Y-143250000D01*
X91500000Y-143250000D01*
X91500000Y-142750000D01*
X92000000Y-142750000D01*
G37*
G36*
X93500000Y-142750000D02*
G01*
X93500000Y-143250000D01*
X93000000Y-143250000D01*
X93000000Y-142750000D01*
X93500000Y-142750000D01*
G37*
G36*
X94500000Y-142750000D02*
G01*
X94500000Y-143250000D01*
X94000000Y-143250000D01*
X94000000Y-142750000D01*
X94500000Y-142750000D01*
G37*
G36*
X95000000Y-142750000D02*
G01*
X95000000Y-143250000D01*
X94500000Y-143250000D01*
X94500000Y-142750000D01*
X95000000Y-142750000D01*
G37*
G36*
X79000000Y-142250000D02*
G01*
X79000000Y-142750000D01*
X78500000Y-142750000D01*
X78500000Y-142250000D01*
X79000000Y-142250000D01*
G37*
G36*
X80500000Y-142250000D02*
G01*
X80500000Y-142750000D01*
X80000000Y-142750000D01*
X80000000Y-142250000D01*
X80500000Y-142250000D01*
G37*
G36*
X82500000Y-142250000D02*
G01*
X82500000Y-142750000D01*
X82000000Y-142750000D01*
X82000000Y-142250000D01*
X82500000Y-142250000D01*
G37*
G36*
X84000000Y-142250000D02*
G01*
X84000000Y-142750000D01*
X83500000Y-142750000D01*
X83500000Y-142250000D01*
X84000000Y-142250000D01*
G37*
G36*
X85000000Y-142250000D02*
G01*
X85000000Y-142750000D01*
X84500000Y-142750000D01*
X84500000Y-142250000D01*
X85000000Y-142250000D01*
G37*
G36*
X87500000Y-142250000D02*
G01*
X87500000Y-142750000D01*
X87000000Y-142750000D01*
X87000000Y-142250000D01*
X87500000Y-142250000D01*
G37*
G36*
X88500000Y-142250000D02*
G01*
X88500000Y-142750000D01*
X88000000Y-142750000D01*
X88000000Y-142250000D01*
X88500000Y-142250000D01*
G37*
G36*
X89000000Y-142250000D02*
G01*
X89000000Y-142750000D01*
X88500000Y-142750000D01*
X88500000Y-142250000D01*
X89000000Y-142250000D01*
G37*
G36*
X90500000Y-142250000D02*
G01*
X90500000Y-142750000D01*
X90000000Y-142750000D01*
X90000000Y-142250000D01*
X90500000Y-142250000D01*
G37*
G36*
X92000000Y-142250000D02*
G01*
X92000000Y-142750000D01*
X91500000Y-142750000D01*
X91500000Y-142250000D01*
X92000000Y-142250000D01*
G37*
G36*
X92500000Y-142250000D02*
G01*
X92500000Y-142750000D01*
X92000000Y-142750000D01*
X92000000Y-142250000D01*
X92500000Y-142250000D01*
G37*
G36*
X93500000Y-142250000D02*
G01*
X93500000Y-142750000D01*
X93000000Y-142750000D01*
X93000000Y-142250000D01*
X93500000Y-142250000D01*
G37*
G36*
X94000000Y-142250000D02*
G01*
X94000000Y-142750000D01*
X93500000Y-142750000D01*
X93500000Y-142250000D01*
X94000000Y-142250000D01*
G37*
G36*
X79000000Y-141750000D02*
G01*
X79000000Y-142250000D01*
X78500000Y-142250000D01*
X78500000Y-141750000D01*
X79000000Y-141750000D01*
G37*
G36*
X80000000Y-141750000D02*
G01*
X80000000Y-142250000D01*
X79500000Y-142250000D01*
X79500000Y-141750000D01*
X80000000Y-141750000D01*
G37*
G36*
X80500000Y-141750000D02*
G01*
X80500000Y-142250000D01*
X80000000Y-142250000D01*
X80000000Y-141750000D01*
X80500000Y-141750000D01*
G37*
G36*
X81500000Y-141750000D02*
G01*
X81500000Y-142250000D01*
X81000000Y-142250000D01*
X81000000Y-141750000D01*
X81500000Y-141750000D01*
G37*
G36*
X82000000Y-141750000D02*
G01*
X82000000Y-142250000D01*
X81500000Y-142250000D01*
X81500000Y-141750000D01*
X82000000Y-141750000D01*
G37*
G36*
X82500000Y-141750000D02*
G01*
X82500000Y-142250000D01*
X82000000Y-142250000D01*
X82000000Y-141750000D01*
X82500000Y-141750000D01*
G37*
G36*
X83000000Y-141750000D02*
G01*
X83000000Y-142250000D01*
X82500000Y-142250000D01*
X82500000Y-141750000D01*
X83000000Y-141750000D01*
G37*
G36*
X83500000Y-141750000D02*
G01*
X83500000Y-142250000D01*
X83000000Y-142250000D01*
X83000000Y-141750000D01*
X83500000Y-141750000D01*
G37*
G36*
X84500000Y-141750000D02*
G01*
X84500000Y-142250000D01*
X84000000Y-142250000D01*
X84000000Y-141750000D01*
X84500000Y-141750000D01*
G37*
G36*
X86000000Y-141750000D02*
G01*
X86000000Y-142250000D01*
X85500000Y-142250000D01*
X85500000Y-141750000D01*
X86000000Y-141750000D01*
G37*
G36*
X88000000Y-141750000D02*
G01*
X88000000Y-142250000D01*
X87500000Y-142250000D01*
X87500000Y-141750000D01*
X88000000Y-141750000D01*
G37*
G36*
X89000000Y-141750000D02*
G01*
X89000000Y-142250000D01*
X88500000Y-142250000D01*
X88500000Y-141750000D01*
X89000000Y-141750000D01*
G37*
G36*
X90500000Y-141750000D02*
G01*
X90500000Y-142250000D01*
X90000000Y-142250000D01*
X90000000Y-141750000D01*
X90500000Y-141750000D01*
G37*
G36*
X92500000Y-141750000D02*
G01*
X92500000Y-142250000D01*
X92000000Y-142250000D01*
X92000000Y-141750000D01*
X92500000Y-141750000D01*
G37*
G36*
X93000000Y-141750000D02*
G01*
X93000000Y-142250000D01*
X92500000Y-142250000D01*
X92500000Y-141750000D01*
X93000000Y-141750000D01*
G37*
G36*
X93500000Y-141750000D02*
G01*
X93500000Y-142250000D01*
X93000000Y-142250000D01*
X93000000Y-141750000D01*
X93500000Y-141750000D01*
G37*
G36*
X94500000Y-141750000D02*
G01*
X94500000Y-142250000D01*
X94000000Y-142250000D01*
X94000000Y-141750000D01*
X94500000Y-141750000D01*
G37*
G36*
X95000000Y-141750000D02*
G01*
X95000000Y-142250000D01*
X94500000Y-142250000D01*
X94500000Y-141750000D01*
X95000000Y-141750000D01*
G37*
G36*
X79000000Y-141250000D02*
G01*
X79000000Y-141750000D01*
X78500000Y-141750000D01*
X78500000Y-141250000D01*
X79000000Y-141250000D01*
G37*
G36*
X79500000Y-141250000D02*
G01*
X79500000Y-141750000D01*
X79000000Y-141750000D01*
X79000000Y-141250000D01*
X79500000Y-141250000D01*
G37*
G36*
X80000000Y-141250000D02*
G01*
X80000000Y-141750000D01*
X79500000Y-141750000D01*
X79500000Y-141250000D01*
X80000000Y-141250000D01*
G37*
G36*
X80500000Y-141250000D02*
G01*
X80500000Y-141750000D01*
X80000000Y-141750000D01*
X80000000Y-141250000D01*
X80500000Y-141250000D01*
G37*
G36*
X81500000Y-141250000D02*
G01*
X81500000Y-141750000D01*
X81000000Y-141750000D01*
X81000000Y-141250000D01*
X81500000Y-141250000D01*
G37*
G36*
X83000000Y-141250000D02*
G01*
X83000000Y-141750000D01*
X82500000Y-141750000D01*
X82500000Y-141250000D01*
X83000000Y-141250000D01*
G37*
G36*
X83500000Y-141250000D02*
G01*
X83500000Y-141750000D01*
X83000000Y-141750000D01*
X83000000Y-141250000D01*
X83500000Y-141250000D01*
G37*
G36*
X84500000Y-141250000D02*
G01*
X84500000Y-141750000D01*
X84000000Y-141750000D01*
X84000000Y-141250000D01*
X84500000Y-141250000D01*
G37*
G36*
X85500000Y-141250000D02*
G01*
X85500000Y-141750000D01*
X85000000Y-141750000D01*
X85000000Y-141250000D01*
X85500000Y-141250000D01*
G37*
G36*
X86000000Y-141250000D02*
G01*
X86000000Y-141750000D01*
X85500000Y-141750000D01*
X85500000Y-141250000D01*
X86000000Y-141250000D01*
G37*
G36*
X88500000Y-141250000D02*
G01*
X88500000Y-141750000D01*
X88000000Y-141750000D01*
X88000000Y-141250000D01*
X88500000Y-141250000D01*
G37*
G36*
X89000000Y-141250000D02*
G01*
X89000000Y-141750000D01*
X88500000Y-141750000D01*
X88500000Y-141250000D01*
X89000000Y-141250000D01*
G37*
G36*
X90000000Y-141250000D02*
G01*
X90000000Y-141750000D01*
X89500000Y-141750000D01*
X89500000Y-141250000D01*
X90000000Y-141250000D01*
G37*
G36*
X90500000Y-141250000D02*
G01*
X90500000Y-141750000D01*
X90000000Y-141750000D01*
X90000000Y-141250000D01*
X90500000Y-141250000D01*
G37*
G36*
X91000000Y-141250000D02*
G01*
X91000000Y-141750000D01*
X90500000Y-141750000D01*
X90500000Y-141250000D01*
X91000000Y-141250000D01*
G37*
G36*
X91500000Y-141250000D02*
G01*
X91500000Y-141750000D01*
X91000000Y-141750000D01*
X91000000Y-141250000D01*
X91500000Y-141250000D01*
G37*
G36*
X92500000Y-141250000D02*
G01*
X92500000Y-141750000D01*
X92000000Y-141750000D01*
X92000000Y-141250000D01*
X92500000Y-141250000D01*
G37*
G36*
X93500000Y-141250000D02*
G01*
X93500000Y-141750000D01*
X93000000Y-141750000D01*
X93000000Y-141250000D01*
X93500000Y-141250000D01*
G37*
G36*
X95000000Y-141250000D02*
G01*
X95000000Y-141750000D01*
X94500000Y-141750000D01*
X94500000Y-141250000D01*
X95000000Y-141250000D01*
G37*
G36*
X79000000Y-140750000D02*
G01*
X79000000Y-141250000D01*
X78500000Y-141250000D01*
X78500000Y-140750000D01*
X79000000Y-140750000D01*
G37*
G36*
X79500000Y-140750000D02*
G01*
X79500000Y-141250000D01*
X79000000Y-141250000D01*
X79000000Y-140750000D01*
X79500000Y-140750000D01*
G37*
G36*
X80000000Y-140750000D02*
G01*
X80000000Y-141250000D01*
X79500000Y-141250000D01*
X79500000Y-140750000D01*
X80000000Y-140750000D01*
G37*
G36*
X80500000Y-140750000D02*
G01*
X80500000Y-141250000D01*
X80000000Y-141250000D01*
X80000000Y-140750000D01*
X80500000Y-140750000D01*
G37*
G36*
X82000000Y-140750000D02*
G01*
X82000000Y-141250000D01*
X81500000Y-141250000D01*
X81500000Y-140750000D01*
X82000000Y-140750000D01*
G37*
G36*
X82500000Y-140750000D02*
G01*
X82500000Y-141250000D01*
X82000000Y-141250000D01*
X82000000Y-140750000D01*
X82500000Y-140750000D01*
G37*
G36*
X84000000Y-140750000D02*
G01*
X84000000Y-141250000D01*
X83500000Y-141250000D01*
X83500000Y-140750000D01*
X84000000Y-140750000D01*
G37*
G36*
X85000000Y-140750000D02*
G01*
X85000000Y-141250000D01*
X84500000Y-141250000D01*
X84500000Y-140750000D01*
X85000000Y-140750000D01*
G37*
G36*
X86500000Y-140750000D02*
G01*
X86500000Y-141250000D01*
X86000000Y-141250000D01*
X86000000Y-140750000D01*
X86500000Y-140750000D01*
G37*
G36*
X87500000Y-140750000D02*
G01*
X87500000Y-141250000D01*
X87000000Y-141250000D01*
X87000000Y-140750000D01*
X87500000Y-140750000D01*
G37*
G36*
X88000000Y-140750000D02*
G01*
X88000000Y-141250000D01*
X87500000Y-141250000D01*
X87500000Y-140750000D01*
X88000000Y-140750000D01*
G37*
G36*
X89000000Y-140750000D02*
G01*
X89000000Y-141250000D01*
X88500000Y-141250000D01*
X88500000Y-140750000D01*
X89000000Y-140750000D01*
G37*
G36*
X90000000Y-140750000D02*
G01*
X90000000Y-141250000D01*
X89500000Y-141250000D01*
X89500000Y-140750000D01*
X90000000Y-140750000D01*
G37*
G36*
X90500000Y-140750000D02*
G01*
X90500000Y-141250000D01*
X90000000Y-141250000D01*
X90000000Y-140750000D01*
X90500000Y-140750000D01*
G37*
G36*
X91000000Y-140750000D02*
G01*
X91000000Y-141250000D01*
X90500000Y-141250000D01*
X90500000Y-140750000D01*
X91000000Y-140750000D01*
G37*
G36*
X91500000Y-140750000D02*
G01*
X91500000Y-141250000D01*
X91000000Y-141250000D01*
X91000000Y-140750000D01*
X91500000Y-140750000D01*
G37*
G36*
X92500000Y-140750000D02*
G01*
X92500000Y-141250000D01*
X92000000Y-141250000D01*
X92000000Y-140750000D01*
X92500000Y-140750000D01*
G37*
G36*
X93500000Y-140750000D02*
G01*
X93500000Y-141250000D01*
X93000000Y-141250000D01*
X93000000Y-140750000D01*
X93500000Y-140750000D01*
G37*
G36*
X94500000Y-140750000D02*
G01*
X94500000Y-141250000D01*
X94000000Y-141250000D01*
X94000000Y-140750000D01*
X94500000Y-140750000D01*
G37*
G36*
X95000000Y-140750000D02*
G01*
X95000000Y-141250000D01*
X94500000Y-141250000D01*
X94500000Y-140750000D01*
X95000000Y-140750000D01*
G37*
G36*
X80500000Y-140250000D02*
G01*
X80500000Y-140750000D01*
X80000000Y-140750000D01*
X80000000Y-140250000D01*
X80500000Y-140250000D01*
G37*
G36*
X82500000Y-140250000D02*
G01*
X82500000Y-140750000D01*
X82000000Y-140750000D01*
X82000000Y-140250000D01*
X82500000Y-140250000D01*
G37*
G36*
X85500000Y-140250000D02*
G01*
X85500000Y-140750000D01*
X85000000Y-140750000D01*
X85000000Y-140250000D01*
X85500000Y-140250000D01*
G37*
G36*
X87000000Y-140250000D02*
G01*
X87000000Y-140750000D01*
X86500000Y-140750000D01*
X86500000Y-140250000D01*
X87000000Y-140250000D01*
G37*
G36*
X87500000Y-140250000D02*
G01*
X87500000Y-140750000D01*
X87000000Y-140750000D01*
X87000000Y-140250000D01*
X87500000Y-140250000D01*
G37*
G36*
X88500000Y-140250000D02*
G01*
X88500000Y-140750000D01*
X88000000Y-140750000D01*
X88000000Y-140250000D01*
X88500000Y-140250000D01*
G37*
G36*
X89000000Y-140250000D02*
G01*
X89000000Y-140750000D01*
X88500000Y-140750000D01*
X88500000Y-140250000D01*
X89000000Y-140250000D01*
G37*
G36*
X89500000Y-140250000D02*
G01*
X89500000Y-140750000D01*
X89000000Y-140750000D01*
X89000000Y-140250000D01*
X89500000Y-140250000D01*
G37*
G36*
X91000000Y-140250000D02*
G01*
X91000000Y-140750000D01*
X90500000Y-140750000D01*
X90500000Y-140250000D01*
X91000000Y-140250000D01*
G37*
G36*
X91500000Y-140250000D02*
G01*
X91500000Y-140750000D01*
X91000000Y-140750000D01*
X91000000Y-140250000D01*
X91500000Y-140250000D01*
G37*
G36*
X92000000Y-140250000D02*
G01*
X92000000Y-140750000D01*
X91500000Y-140750000D01*
X91500000Y-140250000D01*
X92000000Y-140250000D01*
G37*
G36*
X92500000Y-140250000D02*
G01*
X92500000Y-140750000D01*
X92000000Y-140750000D01*
X92000000Y-140250000D01*
X92500000Y-140250000D01*
G37*
G36*
X94000000Y-140250000D02*
G01*
X94000000Y-140750000D01*
X93500000Y-140750000D01*
X93500000Y-140250000D01*
X94000000Y-140250000D01*
G37*
G36*
X94500000Y-140250000D02*
G01*
X94500000Y-140750000D01*
X94000000Y-140750000D01*
X94000000Y-140250000D01*
X94500000Y-140250000D01*
G37*
G36*
X79500000Y-139750000D02*
G01*
X79500000Y-140250000D01*
X79000000Y-140250000D01*
X79000000Y-139750000D01*
X79500000Y-139750000D01*
G37*
G36*
X80000000Y-139750000D02*
G01*
X80000000Y-140250000D01*
X79500000Y-140250000D01*
X79500000Y-139750000D01*
X80000000Y-139750000D01*
G37*
G36*
X81000000Y-139750000D02*
G01*
X81000000Y-140250000D01*
X80500000Y-140250000D01*
X80500000Y-139750000D01*
X81000000Y-139750000D01*
G37*
G36*
X82000000Y-139750000D02*
G01*
X82000000Y-140250000D01*
X81500000Y-140250000D01*
X81500000Y-139750000D01*
X82000000Y-139750000D01*
G37*
G36*
X84500000Y-139750000D02*
G01*
X84500000Y-140250000D01*
X84000000Y-140250000D01*
X84000000Y-139750000D01*
X84500000Y-139750000D01*
G37*
G36*
X86500000Y-139750000D02*
G01*
X86500000Y-140250000D01*
X86000000Y-140250000D01*
X86000000Y-139750000D01*
X86500000Y-139750000D01*
G37*
G36*
X87000000Y-139750000D02*
G01*
X87000000Y-140250000D01*
X86500000Y-140250000D01*
X86500000Y-139750000D01*
X87000000Y-139750000D01*
G37*
G36*
X88000000Y-139750000D02*
G01*
X88000000Y-140250000D01*
X87500000Y-140250000D01*
X87500000Y-139750000D01*
X88000000Y-139750000D01*
G37*
G36*
X88500000Y-139750000D02*
G01*
X88500000Y-140250000D01*
X88000000Y-140250000D01*
X88000000Y-139750000D01*
X88500000Y-139750000D01*
G37*
G36*
X89000000Y-139750000D02*
G01*
X89000000Y-140250000D01*
X88500000Y-140250000D01*
X88500000Y-139750000D01*
X89000000Y-139750000D01*
G37*
G36*
X90000000Y-139750000D02*
G01*
X90000000Y-140250000D01*
X89500000Y-140250000D01*
X89500000Y-139750000D01*
X90000000Y-139750000D01*
G37*
G36*
X92000000Y-139750000D02*
G01*
X92000000Y-140250000D01*
X91500000Y-140250000D01*
X91500000Y-139750000D01*
X92000000Y-139750000D01*
G37*
G36*
X94000000Y-139750000D02*
G01*
X94000000Y-140250000D01*
X93500000Y-140250000D01*
X93500000Y-139750000D01*
X94000000Y-139750000D01*
G37*
G36*
X79500000Y-139250000D02*
G01*
X79500000Y-139750000D01*
X79000000Y-139750000D01*
X79000000Y-139250000D01*
X79500000Y-139250000D01*
G37*
G36*
X80500000Y-139250000D02*
G01*
X80500000Y-139750000D01*
X80000000Y-139750000D01*
X80000000Y-139250000D01*
X80500000Y-139250000D01*
G37*
G36*
X82500000Y-139250000D02*
G01*
X82500000Y-139750000D01*
X82000000Y-139750000D01*
X82000000Y-139250000D01*
X82500000Y-139250000D01*
G37*
G36*
X83500000Y-139250000D02*
G01*
X83500000Y-139750000D01*
X83000000Y-139750000D01*
X83000000Y-139250000D01*
X83500000Y-139250000D01*
G37*
G36*
X84000000Y-139250000D02*
G01*
X84000000Y-139750000D01*
X83500000Y-139750000D01*
X83500000Y-139250000D01*
X84000000Y-139250000D01*
G37*
G36*
X85500000Y-139250000D02*
G01*
X85500000Y-139750000D01*
X85000000Y-139750000D01*
X85000000Y-139250000D01*
X85500000Y-139250000D01*
G37*
G36*
X87000000Y-139250000D02*
G01*
X87000000Y-139750000D01*
X86500000Y-139750000D01*
X86500000Y-139250000D01*
X87000000Y-139250000D01*
G37*
G36*
X89000000Y-139250000D02*
G01*
X89000000Y-139750000D01*
X88500000Y-139750000D01*
X88500000Y-139250000D01*
X89000000Y-139250000D01*
G37*
G36*
X89500000Y-139250000D02*
G01*
X89500000Y-139750000D01*
X89000000Y-139750000D01*
X89000000Y-139250000D01*
X89500000Y-139250000D01*
G37*
G36*
X91500000Y-139250000D02*
G01*
X91500000Y-139750000D01*
X91000000Y-139750000D01*
X91000000Y-139250000D01*
X91500000Y-139250000D01*
G37*
G36*
X92000000Y-139250000D02*
G01*
X92000000Y-139750000D01*
X91500000Y-139750000D01*
X91500000Y-139250000D01*
X92000000Y-139250000D01*
G37*
G36*
X93500000Y-139250000D02*
G01*
X93500000Y-139750000D01*
X93000000Y-139750000D01*
X93000000Y-139250000D01*
X93500000Y-139250000D01*
G37*
G36*
X94000000Y-139250000D02*
G01*
X94000000Y-139750000D01*
X93500000Y-139750000D01*
X93500000Y-139250000D01*
X94000000Y-139250000D01*
G37*
G36*
X79500000Y-138750000D02*
G01*
X79500000Y-139250000D01*
X79000000Y-139250000D01*
X79000000Y-138750000D01*
X79500000Y-138750000D01*
G37*
G36*
X81000000Y-138750000D02*
G01*
X81000000Y-139250000D01*
X80500000Y-139250000D01*
X80500000Y-138750000D01*
X81000000Y-138750000D01*
G37*
G36*
X82000000Y-138750000D02*
G01*
X82000000Y-139250000D01*
X81500000Y-139250000D01*
X81500000Y-138750000D01*
X82000000Y-138750000D01*
G37*
G36*
X83000000Y-138750000D02*
G01*
X83000000Y-139250000D01*
X82500000Y-139250000D01*
X82500000Y-138750000D01*
X83000000Y-138750000D01*
G37*
G36*
X83500000Y-138750000D02*
G01*
X83500000Y-139250000D01*
X83000000Y-139250000D01*
X83000000Y-138750000D01*
X83500000Y-138750000D01*
G37*
G36*
X84500000Y-138750000D02*
G01*
X84500000Y-139250000D01*
X84000000Y-139250000D01*
X84000000Y-138750000D01*
X84500000Y-138750000D01*
G37*
G36*
X85000000Y-138750000D02*
G01*
X85000000Y-139250000D01*
X84500000Y-139250000D01*
X84500000Y-138750000D01*
X85000000Y-138750000D01*
G37*
G36*
X86500000Y-138750000D02*
G01*
X86500000Y-139250000D01*
X86000000Y-139250000D01*
X86000000Y-138750000D01*
X86500000Y-138750000D01*
G37*
G36*
X88000000Y-138750000D02*
G01*
X88000000Y-139250000D01*
X87500000Y-139250000D01*
X87500000Y-138750000D01*
X88000000Y-138750000D01*
G37*
G36*
X89000000Y-138750000D02*
G01*
X89000000Y-139250000D01*
X88500000Y-139250000D01*
X88500000Y-138750000D01*
X89000000Y-138750000D01*
G37*
G36*
X89500000Y-138750000D02*
G01*
X89500000Y-139250000D01*
X89000000Y-139250000D01*
X89000000Y-138750000D01*
X89500000Y-138750000D01*
G37*
G36*
X90000000Y-138750000D02*
G01*
X90000000Y-139250000D01*
X89500000Y-139250000D01*
X89500000Y-138750000D01*
X90000000Y-138750000D01*
G37*
G36*
X90500000Y-138750000D02*
G01*
X90500000Y-139250000D01*
X90000000Y-139250000D01*
X90000000Y-138750000D01*
X90500000Y-138750000D01*
G37*
G36*
X91500000Y-138750000D02*
G01*
X91500000Y-139250000D01*
X91000000Y-139250000D01*
X91000000Y-138750000D01*
X91500000Y-138750000D01*
G37*
G36*
X92000000Y-138750000D02*
G01*
X92000000Y-139250000D01*
X91500000Y-139250000D01*
X91500000Y-138750000D01*
X92000000Y-138750000D01*
G37*
G36*
X93000000Y-138750000D02*
G01*
X93000000Y-139250000D01*
X92500000Y-139250000D01*
X92500000Y-138750000D01*
X93000000Y-138750000D01*
G37*
G36*
X81000000Y-138250000D02*
G01*
X81000000Y-138750000D01*
X80500000Y-138750000D01*
X80500000Y-138250000D01*
X81000000Y-138250000D01*
G37*
G36*
X81500000Y-138250000D02*
G01*
X81500000Y-138750000D01*
X81000000Y-138750000D01*
X81000000Y-138250000D01*
X81500000Y-138250000D01*
G37*
G36*
X82500000Y-138250000D02*
G01*
X82500000Y-138750000D01*
X82000000Y-138750000D01*
X82000000Y-138250000D01*
X82500000Y-138250000D01*
G37*
G36*
X83500000Y-138250000D02*
G01*
X83500000Y-138750000D01*
X83000000Y-138750000D01*
X83000000Y-138250000D01*
X83500000Y-138250000D01*
G37*
G36*
X84500000Y-138250000D02*
G01*
X84500000Y-138750000D01*
X84000000Y-138750000D01*
X84000000Y-138250000D01*
X84500000Y-138250000D01*
G37*
G36*
X85000000Y-138250000D02*
G01*
X85000000Y-138750000D01*
X84500000Y-138750000D01*
X84500000Y-138250000D01*
X85000000Y-138250000D01*
G37*
G36*
X85500000Y-138250000D02*
G01*
X85500000Y-138750000D01*
X85000000Y-138750000D01*
X85000000Y-138250000D01*
X85500000Y-138250000D01*
G37*
G36*
X86000000Y-138250000D02*
G01*
X86000000Y-138750000D01*
X85500000Y-138750000D01*
X85500000Y-138250000D01*
X86000000Y-138250000D01*
G37*
G36*
X86500000Y-138250000D02*
G01*
X86500000Y-138750000D01*
X86000000Y-138750000D01*
X86000000Y-138250000D01*
X86500000Y-138250000D01*
G37*
G36*
X87500000Y-138250000D02*
G01*
X87500000Y-138750000D01*
X87000000Y-138750000D01*
X87000000Y-138250000D01*
X87500000Y-138250000D01*
G37*
G36*
X88000000Y-138250000D02*
G01*
X88000000Y-138750000D01*
X87500000Y-138750000D01*
X87500000Y-138250000D01*
X88000000Y-138250000D01*
G37*
G36*
X89000000Y-138250000D02*
G01*
X89000000Y-138750000D01*
X88500000Y-138750000D01*
X88500000Y-138250000D01*
X89000000Y-138250000D01*
G37*
G36*
X90000000Y-138250000D02*
G01*
X90000000Y-138750000D01*
X89500000Y-138750000D01*
X89500000Y-138250000D01*
X90000000Y-138250000D01*
G37*
G36*
X90500000Y-138250000D02*
G01*
X90500000Y-138750000D01*
X90000000Y-138750000D01*
X90000000Y-138250000D01*
X90500000Y-138250000D01*
G37*
G36*
X92000000Y-138250000D02*
G01*
X92000000Y-138750000D01*
X91500000Y-138750000D01*
X91500000Y-138250000D01*
X92000000Y-138250000D01*
G37*
G36*
X93000000Y-138250000D02*
G01*
X93000000Y-138750000D01*
X92500000Y-138750000D01*
X92500000Y-138250000D01*
X93000000Y-138250000D01*
G37*
G36*
X93500000Y-138250000D02*
G01*
X93500000Y-138750000D01*
X93000000Y-138750000D01*
X93000000Y-138250000D01*
X93500000Y-138250000D01*
G37*
G36*
X94500000Y-138250000D02*
G01*
X94500000Y-138750000D01*
X94000000Y-138750000D01*
X94000000Y-138250000D01*
X94500000Y-138250000D01*
G37*
G36*
X95000000Y-138250000D02*
G01*
X95000000Y-138750000D01*
X94500000Y-138750000D01*
X94500000Y-138250000D01*
X95000000Y-138250000D01*
G37*
G36*
X79000000Y-137750000D02*
G01*
X79000000Y-138250000D01*
X78500000Y-138250000D01*
X78500000Y-137750000D01*
X79000000Y-137750000D01*
G37*
G36*
X79500000Y-137750000D02*
G01*
X79500000Y-138250000D01*
X79000000Y-138250000D01*
X79000000Y-137750000D01*
X79500000Y-137750000D01*
G37*
G36*
X80000000Y-137750000D02*
G01*
X80000000Y-138250000D01*
X79500000Y-138250000D01*
X79500000Y-137750000D01*
X80000000Y-137750000D01*
G37*
G36*
X80500000Y-137750000D02*
G01*
X80500000Y-138250000D01*
X80000000Y-138250000D01*
X80000000Y-137750000D01*
X80500000Y-137750000D01*
G37*
G36*
X81000000Y-137750000D02*
G01*
X81000000Y-138250000D01*
X80500000Y-138250000D01*
X80500000Y-137750000D01*
X81000000Y-137750000D01*
G37*
G36*
X82000000Y-137750000D02*
G01*
X82000000Y-138250000D01*
X81500000Y-138250000D01*
X81500000Y-137750000D01*
X82000000Y-137750000D01*
G37*
G36*
X82500000Y-137750000D02*
G01*
X82500000Y-138250000D01*
X82000000Y-138250000D01*
X82000000Y-137750000D01*
X82500000Y-137750000D01*
G37*
G36*
X83000000Y-137750000D02*
G01*
X83000000Y-138250000D01*
X82500000Y-138250000D01*
X82500000Y-137750000D01*
X83000000Y-137750000D01*
G37*
G36*
X84000000Y-137750000D02*
G01*
X84000000Y-138250000D01*
X83500000Y-138250000D01*
X83500000Y-137750000D01*
X84000000Y-137750000D01*
G37*
G36*
X84500000Y-137750000D02*
G01*
X84500000Y-138250000D01*
X84000000Y-138250000D01*
X84000000Y-137750000D01*
X84500000Y-137750000D01*
G37*
G36*
X85500000Y-137750000D02*
G01*
X85500000Y-138250000D01*
X85000000Y-138250000D01*
X85000000Y-137750000D01*
X85500000Y-137750000D01*
G37*
G36*
X86500000Y-137750000D02*
G01*
X86500000Y-138250000D01*
X86000000Y-138250000D01*
X86000000Y-137750000D01*
X86500000Y-137750000D01*
G37*
G36*
X87000000Y-137750000D02*
G01*
X87000000Y-138250000D01*
X86500000Y-138250000D01*
X86500000Y-137750000D01*
X87000000Y-137750000D01*
G37*
G36*
X87500000Y-137750000D02*
G01*
X87500000Y-138250000D01*
X87000000Y-138250000D01*
X87000000Y-137750000D01*
X87500000Y-137750000D01*
G37*
G36*
X89500000Y-137750000D02*
G01*
X89500000Y-138250000D01*
X89000000Y-138250000D01*
X89000000Y-137750000D01*
X89500000Y-137750000D01*
G37*
G36*
X90000000Y-137750000D02*
G01*
X90000000Y-138250000D01*
X89500000Y-138250000D01*
X89500000Y-137750000D01*
X90000000Y-137750000D01*
G37*
G36*
X91500000Y-137750000D02*
G01*
X91500000Y-138250000D01*
X91000000Y-138250000D01*
X91000000Y-137750000D01*
X91500000Y-137750000D01*
G37*
G36*
X92000000Y-137750000D02*
G01*
X92000000Y-138250000D01*
X91500000Y-138250000D01*
X91500000Y-137750000D01*
X92000000Y-137750000D01*
G37*
G36*
X92500000Y-137750000D02*
G01*
X92500000Y-138250000D01*
X92000000Y-138250000D01*
X92000000Y-137750000D01*
X92500000Y-137750000D01*
G37*
G36*
X93000000Y-137750000D02*
G01*
X93000000Y-138250000D01*
X92500000Y-138250000D01*
X92500000Y-137750000D01*
X93000000Y-137750000D01*
G37*
G36*
X94000000Y-137750000D02*
G01*
X94000000Y-138250000D01*
X93500000Y-138250000D01*
X93500000Y-137750000D01*
X94000000Y-137750000D01*
G37*
G36*
X81500000Y-137250000D02*
G01*
X81500000Y-137750000D01*
X81000000Y-137750000D01*
X81000000Y-137250000D01*
X81500000Y-137250000D01*
G37*
G36*
X82500000Y-137250000D02*
G01*
X82500000Y-137750000D01*
X82000000Y-137750000D01*
X82000000Y-137250000D01*
X82500000Y-137250000D01*
G37*
G36*
X83000000Y-137250000D02*
G01*
X83000000Y-137750000D01*
X82500000Y-137750000D01*
X82500000Y-137250000D01*
X83000000Y-137250000D01*
G37*
G36*
X85000000Y-137250000D02*
G01*
X85000000Y-137750000D01*
X84500000Y-137750000D01*
X84500000Y-137250000D01*
X85000000Y-137250000D01*
G37*
G36*
X87500000Y-137250000D02*
G01*
X87500000Y-137750000D01*
X87000000Y-137750000D01*
X87000000Y-137250000D01*
X87500000Y-137250000D01*
G37*
G36*
X88500000Y-137250000D02*
G01*
X88500000Y-137750000D01*
X88000000Y-137750000D01*
X88000000Y-137250000D01*
X88500000Y-137250000D01*
G37*
G36*
X90000000Y-137250000D02*
G01*
X90000000Y-137750000D01*
X89500000Y-137750000D01*
X89500000Y-137250000D01*
X90000000Y-137250000D01*
G37*
G36*
X91000000Y-137250000D02*
G01*
X91000000Y-137750000D01*
X90500000Y-137750000D01*
X90500000Y-137250000D01*
X91000000Y-137250000D01*
G37*
G36*
X91500000Y-137250000D02*
G01*
X91500000Y-137750000D01*
X91000000Y-137750000D01*
X91000000Y-137250000D01*
X91500000Y-137250000D01*
G37*
G36*
X93000000Y-137250000D02*
G01*
X93000000Y-137750000D01*
X92500000Y-137750000D01*
X92500000Y-137250000D01*
X93000000Y-137250000D01*
G37*
G36*
X80000000Y-136750000D02*
G01*
X80000000Y-137250000D01*
X79500000Y-137250000D01*
X79500000Y-136750000D01*
X80000000Y-136750000D01*
G37*
G36*
X81500000Y-136750000D02*
G01*
X81500000Y-137250000D01*
X81000000Y-137250000D01*
X81000000Y-136750000D01*
X81500000Y-136750000D01*
G37*
G36*
X82000000Y-136750000D02*
G01*
X82000000Y-137250000D01*
X81500000Y-137250000D01*
X81500000Y-136750000D01*
X82000000Y-136750000D01*
G37*
G36*
X82500000Y-136750000D02*
G01*
X82500000Y-137250000D01*
X82000000Y-137250000D01*
X82000000Y-136750000D01*
X82500000Y-136750000D01*
G37*
G36*
X83000000Y-136750000D02*
G01*
X83000000Y-137250000D01*
X82500000Y-137250000D01*
X82500000Y-136750000D01*
X83000000Y-136750000D01*
G37*
G36*
X83500000Y-136750000D02*
G01*
X83500000Y-137250000D01*
X83000000Y-137250000D01*
X83000000Y-136750000D01*
X83500000Y-136750000D01*
G37*
G36*
X84000000Y-136750000D02*
G01*
X84000000Y-137250000D01*
X83500000Y-137250000D01*
X83500000Y-136750000D01*
X84000000Y-136750000D01*
G37*
G36*
X84500000Y-136750000D02*
G01*
X84500000Y-137250000D01*
X84000000Y-137250000D01*
X84000000Y-136750000D01*
X84500000Y-136750000D01*
G37*
G36*
X85000000Y-136750000D02*
G01*
X85000000Y-137250000D01*
X84500000Y-137250000D01*
X84500000Y-136750000D01*
X85000000Y-136750000D01*
G37*
G36*
X85500000Y-136750000D02*
G01*
X85500000Y-137250000D01*
X85000000Y-137250000D01*
X85000000Y-136750000D01*
X85500000Y-136750000D01*
G37*
G36*
X86000000Y-136750000D02*
G01*
X86000000Y-137250000D01*
X85500000Y-137250000D01*
X85500000Y-136750000D01*
X86000000Y-136750000D01*
G37*
G36*
X87000000Y-136750000D02*
G01*
X87000000Y-137250000D01*
X86500000Y-137250000D01*
X86500000Y-136750000D01*
X87000000Y-136750000D01*
G37*
G36*
X87500000Y-136750000D02*
G01*
X87500000Y-137250000D01*
X87000000Y-137250000D01*
X87000000Y-136750000D01*
X87500000Y-136750000D01*
G37*
G36*
X88000000Y-136750000D02*
G01*
X88000000Y-137250000D01*
X87500000Y-137250000D01*
X87500000Y-136750000D01*
X88000000Y-136750000D01*
G37*
G36*
X89500000Y-136750000D02*
G01*
X89500000Y-137250000D01*
X89000000Y-137250000D01*
X89000000Y-136750000D01*
X89500000Y-136750000D01*
G37*
G36*
X91000000Y-136750000D02*
G01*
X91000000Y-137250000D01*
X90500000Y-137250000D01*
X90500000Y-136750000D01*
X91000000Y-136750000D01*
G37*
G36*
X92500000Y-136750000D02*
G01*
X92500000Y-137250000D01*
X92000000Y-137250000D01*
X92000000Y-136750000D01*
X92500000Y-136750000D01*
G37*
G36*
X93000000Y-136750000D02*
G01*
X93000000Y-137250000D01*
X92500000Y-137250000D01*
X92500000Y-136750000D01*
X93000000Y-136750000D01*
G37*
G36*
X93500000Y-136750000D02*
G01*
X93500000Y-137250000D01*
X93000000Y-137250000D01*
X93000000Y-136750000D01*
X93500000Y-136750000D01*
G37*
G36*
X94000000Y-136750000D02*
G01*
X94000000Y-137250000D01*
X93500000Y-137250000D01*
X93500000Y-136750000D01*
X94000000Y-136750000D01*
G37*
G36*
X79000000Y-136250000D02*
G01*
X79000000Y-136750000D01*
X78500000Y-136750000D01*
X78500000Y-136250000D01*
X79000000Y-136250000D01*
G37*
G36*
X79500000Y-136250000D02*
G01*
X79500000Y-136750000D01*
X79000000Y-136750000D01*
X79000000Y-136250000D01*
X79500000Y-136250000D01*
G37*
G36*
X80000000Y-136250000D02*
G01*
X80000000Y-136750000D01*
X79500000Y-136750000D01*
X79500000Y-136250000D01*
X80000000Y-136250000D01*
G37*
G36*
X83000000Y-136250000D02*
G01*
X83000000Y-136750000D01*
X82500000Y-136750000D01*
X82500000Y-136250000D01*
X83000000Y-136250000D01*
G37*
G36*
X84000000Y-136250000D02*
G01*
X84000000Y-136750000D01*
X83500000Y-136750000D01*
X83500000Y-136250000D01*
X84000000Y-136250000D01*
G37*
G36*
X85000000Y-136250000D02*
G01*
X85000000Y-136750000D01*
X84500000Y-136750000D01*
X84500000Y-136250000D01*
X85000000Y-136250000D01*
G37*
G36*
X85500000Y-136250000D02*
G01*
X85500000Y-136750000D01*
X85000000Y-136750000D01*
X85000000Y-136250000D01*
X85500000Y-136250000D01*
G37*
G36*
X86000000Y-136250000D02*
G01*
X86000000Y-136750000D01*
X85500000Y-136750000D01*
X85500000Y-136250000D01*
X86000000Y-136250000D01*
G37*
G36*
X86500000Y-136250000D02*
G01*
X86500000Y-136750000D01*
X86000000Y-136750000D01*
X86000000Y-136250000D01*
X86500000Y-136250000D01*
G37*
G36*
X89000000Y-136250000D02*
G01*
X89000000Y-136750000D01*
X88500000Y-136750000D01*
X88500000Y-136250000D01*
X89000000Y-136250000D01*
G37*
G36*
X89500000Y-136250000D02*
G01*
X89500000Y-136750000D01*
X89000000Y-136750000D01*
X89000000Y-136250000D01*
X89500000Y-136250000D01*
G37*
G36*
X90500000Y-136250000D02*
G01*
X90500000Y-136750000D01*
X90000000Y-136750000D01*
X90000000Y-136250000D01*
X90500000Y-136250000D01*
G37*
G36*
X92000000Y-136250000D02*
G01*
X92000000Y-136750000D01*
X91500000Y-136750000D01*
X91500000Y-136250000D01*
X92000000Y-136250000D01*
G37*
G36*
X93500000Y-136250000D02*
G01*
X93500000Y-136750000D01*
X93000000Y-136750000D01*
X93000000Y-136250000D01*
X93500000Y-136250000D01*
G37*
G36*
X94000000Y-136250000D02*
G01*
X94000000Y-136750000D01*
X93500000Y-136750000D01*
X93500000Y-136250000D01*
X94000000Y-136250000D01*
G37*
G36*
X95000000Y-136250000D02*
G01*
X95000000Y-136750000D01*
X94500000Y-136750000D01*
X94500000Y-136250000D01*
X95000000Y-136250000D01*
G37*
G36*
X80000000Y-135750000D02*
G01*
X80000000Y-136250000D01*
X79500000Y-136250000D01*
X79500000Y-135750000D01*
X80000000Y-135750000D01*
G37*
G36*
X81000000Y-135750000D02*
G01*
X81000000Y-136250000D01*
X80500000Y-136250000D01*
X80500000Y-135750000D01*
X81000000Y-135750000D01*
G37*
G36*
X81500000Y-135750000D02*
G01*
X81500000Y-136250000D01*
X81000000Y-136250000D01*
X81000000Y-135750000D01*
X81500000Y-135750000D01*
G37*
G36*
X82000000Y-135750000D02*
G01*
X82000000Y-136250000D01*
X81500000Y-136250000D01*
X81500000Y-135750000D01*
X82000000Y-135750000D01*
G37*
G36*
X82500000Y-135750000D02*
G01*
X82500000Y-136250000D01*
X82000000Y-136250000D01*
X82000000Y-135750000D01*
X82500000Y-135750000D01*
G37*
G36*
X83000000Y-135750000D02*
G01*
X83000000Y-136250000D01*
X82500000Y-136250000D01*
X82500000Y-135750000D01*
X83000000Y-135750000D01*
G37*
G36*
X83500000Y-135750000D02*
G01*
X83500000Y-136250000D01*
X83000000Y-136250000D01*
X83000000Y-135750000D01*
X83500000Y-135750000D01*
G37*
G36*
X84500000Y-135750000D02*
G01*
X84500000Y-136250000D01*
X84000000Y-136250000D01*
X84000000Y-135750000D01*
X84500000Y-135750000D01*
G37*
G36*
X85000000Y-135750000D02*
G01*
X85000000Y-136250000D01*
X84500000Y-136250000D01*
X84500000Y-135750000D01*
X85000000Y-135750000D01*
G37*
G36*
X85500000Y-135750000D02*
G01*
X85500000Y-136250000D01*
X85000000Y-136250000D01*
X85000000Y-135750000D01*
X85500000Y-135750000D01*
G37*
G36*
X87500000Y-135750000D02*
G01*
X87500000Y-136250000D01*
X87000000Y-136250000D01*
X87000000Y-135750000D01*
X87500000Y-135750000D01*
G37*
G36*
X90500000Y-135750000D02*
G01*
X90500000Y-136250000D01*
X90000000Y-136250000D01*
X90000000Y-135750000D01*
X90500000Y-135750000D01*
G37*
G36*
X91000000Y-135750000D02*
G01*
X91000000Y-136250000D01*
X90500000Y-136250000D01*
X90500000Y-135750000D01*
X91000000Y-135750000D01*
G37*
G36*
X91500000Y-135750000D02*
G01*
X91500000Y-136250000D01*
X91000000Y-136250000D01*
X91000000Y-135750000D01*
X91500000Y-135750000D01*
G37*
G36*
X92000000Y-135750000D02*
G01*
X92000000Y-136250000D01*
X91500000Y-136250000D01*
X91500000Y-135750000D01*
X92000000Y-135750000D01*
G37*
G36*
X93000000Y-135750000D02*
G01*
X93000000Y-136250000D01*
X92500000Y-136250000D01*
X92500000Y-135750000D01*
X93000000Y-135750000D01*
G37*
G36*
X93500000Y-135750000D02*
G01*
X93500000Y-136250000D01*
X93000000Y-136250000D01*
X93000000Y-135750000D01*
X93500000Y-135750000D01*
G37*
G36*
X94000000Y-135750000D02*
G01*
X94000000Y-136250000D01*
X93500000Y-136250000D01*
X93500000Y-135750000D01*
X94000000Y-135750000D01*
G37*
G36*
X94500000Y-135750000D02*
G01*
X94500000Y-136250000D01*
X94000000Y-136250000D01*
X94000000Y-135750000D01*
X94500000Y-135750000D01*
G37*
G36*
X95000000Y-135750000D02*
G01*
X95000000Y-136250000D01*
X94500000Y-136250000D01*
X94500000Y-135750000D01*
X95000000Y-135750000D01*
G37*
G36*
X79500000Y-135250000D02*
G01*
X79500000Y-135750000D01*
X79000000Y-135750000D01*
X79000000Y-135250000D01*
X79500000Y-135250000D01*
G37*
G36*
X80000000Y-135250000D02*
G01*
X80000000Y-135750000D01*
X79500000Y-135750000D01*
X79500000Y-135250000D01*
X80000000Y-135250000D01*
G37*
G36*
X80500000Y-135250000D02*
G01*
X80500000Y-135750000D01*
X80000000Y-135750000D01*
X80000000Y-135250000D01*
X80500000Y-135250000D01*
G37*
G36*
X81000000Y-135250000D02*
G01*
X81000000Y-135750000D01*
X80500000Y-135750000D01*
X80500000Y-135250000D01*
X81000000Y-135250000D01*
G37*
G36*
X83000000Y-135250000D02*
G01*
X83000000Y-135750000D01*
X82500000Y-135750000D01*
X82500000Y-135250000D01*
X83000000Y-135250000D01*
G37*
G36*
X83500000Y-135250000D02*
G01*
X83500000Y-135750000D01*
X83000000Y-135750000D01*
X83000000Y-135250000D01*
X83500000Y-135250000D01*
G37*
G36*
X84000000Y-135250000D02*
G01*
X84000000Y-135750000D01*
X83500000Y-135750000D01*
X83500000Y-135250000D01*
X84000000Y-135250000D01*
G37*
G36*
X85000000Y-135250000D02*
G01*
X85000000Y-135750000D01*
X84500000Y-135750000D01*
X84500000Y-135250000D01*
X85000000Y-135250000D01*
G37*
G36*
X86000000Y-135250000D02*
G01*
X86000000Y-135750000D01*
X85500000Y-135750000D01*
X85500000Y-135250000D01*
X86000000Y-135250000D01*
G37*
G36*
X86500000Y-135250000D02*
G01*
X86500000Y-135750000D01*
X86000000Y-135750000D01*
X86000000Y-135250000D01*
X86500000Y-135250000D01*
G37*
G36*
X89000000Y-135250000D02*
G01*
X89000000Y-135750000D01*
X88500000Y-135750000D01*
X88500000Y-135250000D01*
X89000000Y-135250000D01*
G37*
G36*
X92000000Y-135250000D02*
G01*
X92000000Y-135750000D01*
X91500000Y-135750000D01*
X91500000Y-135250000D01*
X92000000Y-135250000D01*
G37*
G36*
X92500000Y-135250000D02*
G01*
X92500000Y-135750000D01*
X92000000Y-135750000D01*
X92000000Y-135250000D01*
X92500000Y-135250000D01*
G37*
G36*
X93500000Y-135250000D02*
G01*
X93500000Y-135750000D01*
X93000000Y-135750000D01*
X93000000Y-135250000D01*
X93500000Y-135250000D01*
G37*
G36*
X94500000Y-135250000D02*
G01*
X94500000Y-135750000D01*
X94000000Y-135750000D01*
X94000000Y-135250000D01*
X94500000Y-135250000D01*
G37*
G36*
X95000000Y-135250000D02*
G01*
X95000000Y-135750000D01*
X94500000Y-135750000D01*
X94500000Y-135250000D01*
X95000000Y-135250000D01*
G37*
G36*
X79000000Y-134750000D02*
G01*
X79000000Y-135250000D01*
X78500000Y-135250000D01*
X78500000Y-134750000D01*
X79000000Y-134750000D01*
G37*
G36*
X80000000Y-134750000D02*
G01*
X80000000Y-135250000D01*
X79500000Y-135250000D01*
X79500000Y-134750000D01*
X80000000Y-134750000D01*
G37*
G36*
X82000000Y-134750000D02*
G01*
X82000000Y-135250000D01*
X81500000Y-135250000D01*
X81500000Y-134750000D01*
X82000000Y-134750000D01*
G37*
G36*
X82500000Y-134750000D02*
G01*
X82500000Y-135250000D01*
X82000000Y-135250000D01*
X82000000Y-134750000D01*
X82500000Y-134750000D01*
G37*
G36*
X83500000Y-134750000D02*
G01*
X83500000Y-135250000D01*
X83000000Y-135250000D01*
X83000000Y-134750000D01*
X83500000Y-134750000D01*
G37*
G36*
X84000000Y-134750000D02*
G01*
X84000000Y-135250000D01*
X83500000Y-135250000D01*
X83500000Y-134750000D01*
X84000000Y-134750000D01*
G37*
G36*
X84500000Y-134750000D02*
G01*
X84500000Y-135250000D01*
X84000000Y-135250000D01*
X84000000Y-134750000D01*
X84500000Y-134750000D01*
G37*
G36*
X86000000Y-134750000D02*
G01*
X86000000Y-135250000D01*
X85500000Y-135250000D01*
X85500000Y-134750000D01*
X86000000Y-134750000D01*
G37*
G36*
X86500000Y-134750000D02*
G01*
X86500000Y-135250000D01*
X86000000Y-135250000D01*
X86000000Y-134750000D01*
X86500000Y-134750000D01*
G37*
G36*
X87500000Y-134750000D02*
G01*
X87500000Y-135250000D01*
X87000000Y-135250000D01*
X87000000Y-134750000D01*
X87500000Y-134750000D01*
G37*
G36*
X88500000Y-134750000D02*
G01*
X88500000Y-135250000D01*
X88000000Y-135250000D01*
X88000000Y-134750000D01*
X88500000Y-134750000D01*
G37*
G36*
X90000000Y-134750000D02*
G01*
X90000000Y-135250000D01*
X89500000Y-135250000D01*
X89500000Y-134750000D01*
X90000000Y-134750000D01*
G37*
G36*
X91000000Y-134750000D02*
G01*
X91000000Y-135250000D01*
X90500000Y-135250000D01*
X90500000Y-134750000D01*
X91000000Y-134750000D01*
G37*
G36*
X91500000Y-134750000D02*
G01*
X91500000Y-135250000D01*
X91000000Y-135250000D01*
X91000000Y-134750000D01*
X91500000Y-134750000D01*
G37*
G36*
X92000000Y-134750000D02*
G01*
X92000000Y-135250000D01*
X91500000Y-135250000D01*
X91500000Y-134750000D01*
X92000000Y-134750000D01*
G37*
G36*
X92500000Y-134750000D02*
G01*
X92500000Y-135250000D01*
X92000000Y-135250000D01*
X92000000Y-134750000D01*
X92500000Y-134750000D01*
G37*
G36*
X93000000Y-134750000D02*
G01*
X93000000Y-135250000D01*
X92500000Y-135250000D01*
X92500000Y-134750000D01*
X93000000Y-134750000D01*
G37*
G36*
X93500000Y-134750000D02*
G01*
X93500000Y-135250000D01*
X93000000Y-135250000D01*
X93000000Y-134750000D01*
X93500000Y-134750000D01*
G37*
G36*
X94000000Y-134750000D02*
G01*
X94000000Y-135250000D01*
X93500000Y-135250000D01*
X93500000Y-134750000D01*
X94000000Y-134750000D01*
G37*
G36*
X95000000Y-134750000D02*
G01*
X95000000Y-135250000D01*
X94500000Y-135250000D01*
X94500000Y-134750000D01*
X95000000Y-134750000D01*
G37*
G36*
X83000000Y-134250000D02*
G01*
X83000000Y-134750000D01*
X82500000Y-134750000D01*
X82500000Y-134250000D01*
X83000000Y-134250000D01*
G37*
G36*
X83500000Y-134250000D02*
G01*
X83500000Y-134750000D01*
X83000000Y-134750000D01*
X83000000Y-134250000D01*
X83500000Y-134250000D01*
G37*
G36*
X84500000Y-134250000D02*
G01*
X84500000Y-134750000D01*
X84000000Y-134750000D01*
X84000000Y-134250000D01*
X84500000Y-134250000D01*
G37*
G36*
X85000000Y-134250000D02*
G01*
X85000000Y-134750000D01*
X84500000Y-134750000D01*
X84500000Y-134250000D01*
X85000000Y-134250000D01*
G37*
G36*
X86500000Y-134250000D02*
G01*
X86500000Y-134750000D01*
X86000000Y-134750000D01*
X86000000Y-134250000D01*
X86500000Y-134250000D01*
G37*
G36*
X87000000Y-134250000D02*
G01*
X87000000Y-134750000D01*
X86500000Y-134750000D01*
X86500000Y-134250000D01*
X87000000Y-134250000D01*
G37*
G36*
X87500000Y-134250000D02*
G01*
X87500000Y-134750000D01*
X87000000Y-134750000D01*
X87000000Y-134250000D01*
X87500000Y-134250000D01*
G37*
G36*
X88500000Y-134250000D02*
G01*
X88500000Y-134750000D01*
X88000000Y-134750000D01*
X88000000Y-134250000D01*
X88500000Y-134250000D01*
G37*
G36*
X89000000Y-134250000D02*
G01*
X89000000Y-134750000D01*
X88500000Y-134750000D01*
X88500000Y-134250000D01*
X89000000Y-134250000D01*
G37*
G36*
X90000000Y-134250000D02*
G01*
X90000000Y-134750000D01*
X89500000Y-134750000D01*
X89500000Y-134250000D01*
X90000000Y-134250000D01*
G37*
G36*
X91000000Y-134250000D02*
G01*
X91000000Y-134750000D01*
X90500000Y-134750000D01*
X90500000Y-134250000D01*
X91000000Y-134250000D01*
G37*
G36*
X93000000Y-134250000D02*
G01*
X93000000Y-134750000D01*
X92500000Y-134750000D01*
X92500000Y-134250000D01*
X93000000Y-134250000D01*
G37*
G36*
X93500000Y-134250000D02*
G01*
X93500000Y-134750000D01*
X93000000Y-134750000D01*
X93000000Y-134250000D01*
X93500000Y-134250000D01*
G37*
G36*
X79000000Y-133750000D02*
G01*
X79000000Y-134250000D01*
X78500000Y-134250000D01*
X78500000Y-133750000D01*
X79000000Y-133750000D01*
G37*
G36*
X79500000Y-133750000D02*
G01*
X79500000Y-134250000D01*
X79000000Y-134250000D01*
X79000000Y-133750000D01*
X79500000Y-133750000D01*
G37*
G36*
X80000000Y-133750000D02*
G01*
X80000000Y-134250000D01*
X79500000Y-134250000D01*
X79500000Y-133750000D01*
X80000000Y-133750000D01*
G37*
G36*
X80500000Y-133750000D02*
G01*
X80500000Y-134250000D01*
X80000000Y-134250000D01*
X80000000Y-133750000D01*
X80500000Y-133750000D01*
G37*
G36*
X81000000Y-133750000D02*
G01*
X81000000Y-134250000D01*
X80500000Y-134250000D01*
X80500000Y-133750000D01*
X81000000Y-133750000D01*
G37*
G36*
X81500000Y-133750000D02*
G01*
X81500000Y-134250000D01*
X81000000Y-134250000D01*
X81000000Y-133750000D01*
X81500000Y-133750000D01*
G37*
G36*
X82000000Y-133750000D02*
G01*
X82000000Y-134250000D01*
X81500000Y-134250000D01*
X81500000Y-133750000D01*
X82000000Y-133750000D01*
G37*
G36*
X83000000Y-133750000D02*
G01*
X83000000Y-134250000D01*
X82500000Y-134250000D01*
X82500000Y-133750000D01*
X83000000Y-133750000D01*
G37*
G36*
X83500000Y-133750000D02*
G01*
X83500000Y-134250000D01*
X83000000Y-134250000D01*
X83000000Y-133750000D01*
X83500000Y-133750000D01*
G37*
G36*
X84000000Y-133750000D02*
G01*
X84000000Y-134250000D01*
X83500000Y-134250000D01*
X83500000Y-133750000D01*
X84000000Y-133750000D01*
G37*
G36*
X85000000Y-133750000D02*
G01*
X85000000Y-134250000D01*
X84500000Y-134250000D01*
X84500000Y-133750000D01*
X85000000Y-133750000D01*
G37*
G36*
X86000000Y-133750000D02*
G01*
X86000000Y-134250000D01*
X85500000Y-134250000D01*
X85500000Y-133750000D01*
X86000000Y-133750000D01*
G37*
G36*
X88500000Y-133750000D02*
G01*
X88500000Y-134250000D01*
X88000000Y-134250000D01*
X88000000Y-133750000D01*
X88500000Y-133750000D01*
G37*
G36*
X89000000Y-133750000D02*
G01*
X89000000Y-134250000D01*
X88500000Y-134250000D01*
X88500000Y-133750000D01*
X89000000Y-133750000D01*
G37*
G36*
X90500000Y-133750000D02*
G01*
X90500000Y-134250000D01*
X90000000Y-134250000D01*
X90000000Y-133750000D01*
X90500000Y-133750000D01*
G37*
G36*
X91000000Y-133750000D02*
G01*
X91000000Y-134250000D01*
X90500000Y-134250000D01*
X90500000Y-133750000D01*
X91000000Y-133750000D01*
G37*
G36*
X92000000Y-133750000D02*
G01*
X92000000Y-134250000D01*
X91500000Y-134250000D01*
X91500000Y-133750000D01*
X92000000Y-133750000D01*
G37*
G36*
X93000000Y-133750000D02*
G01*
X93000000Y-134250000D01*
X92500000Y-134250000D01*
X92500000Y-133750000D01*
X93000000Y-133750000D01*
G37*
G36*
X79000000Y-133250000D02*
G01*
X79000000Y-133750000D01*
X78500000Y-133750000D01*
X78500000Y-133250000D01*
X79000000Y-133250000D01*
G37*
G36*
X82000000Y-133250000D02*
G01*
X82000000Y-133750000D01*
X81500000Y-133750000D01*
X81500000Y-133250000D01*
X82000000Y-133250000D01*
G37*
G36*
X83000000Y-133250000D02*
G01*
X83000000Y-133750000D01*
X82500000Y-133750000D01*
X82500000Y-133250000D01*
X83000000Y-133250000D01*
G37*
G36*
X84500000Y-133250000D02*
G01*
X84500000Y-133750000D01*
X84000000Y-133750000D01*
X84000000Y-133250000D01*
X84500000Y-133250000D01*
G37*
G36*
X86000000Y-133250000D02*
G01*
X86000000Y-133750000D01*
X85500000Y-133750000D01*
X85500000Y-133250000D01*
X86000000Y-133250000D01*
G37*
G36*
X87000000Y-133250000D02*
G01*
X87000000Y-133750000D01*
X86500000Y-133750000D01*
X86500000Y-133250000D01*
X87000000Y-133250000D01*
G37*
G36*
X88000000Y-133250000D02*
G01*
X88000000Y-133750000D01*
X87500000Y-133750000D01*
X87500000Y-133250000D01*
X88000000Y-133250000D01*
G37*
G36*
X88500000Y-133250000D02*
G01*
X88500000Y-133750000D01*
X88000000Y-133750000D01*
X88000000Y-133250000D01*
X88500000Y-133250000D01*
G37*
G36*
X89500000Y-133250000D02*
G01*
X89500000Y-133750000D01*
X89000000Y-133750000D01*
X89000000Y-133250000D01*
X89500000Y-133250000D01*
G37*
G36*
X90000000Y-133250000D02*
G01*
X90000000Y-133750000D01*
X89500000Y-133750000D01*
X89500000Y-133250000D01*
X90000000Y-133250000D01*
G37*
G36*
X90500000Y-133250000D02*
G01*
X90500000Y-133750000D01*
X90000000Y-133750000D01*
X90000000Y-133250000D01*
X90500000Y-133250000D01*
G37*
G36*
X91000000Y-133250000D02*
G01*
X91000000Y-133750000D01*
X90500000Y-133750000D01*
X90500000Y-133250000D01*
X91000000Y-133250000D01*
G37*
G36*
X93000000Y-133250000D02*
G01*
X93000000Y-133750000D01*
X92500000Y-133750000D01*
X92500000Y-133250000D01*
X93000000Y-133250000D01*
G37*
G36*
X93500000Y-133250000D02*
G01*
X93500000Y-133750000D01*
X93000000Y-133750000D01*
X93000000Y-133250000D01*
X93500000Y-133250000D01*
G37*
G36*
X94000000Y-133250000D02*
G01*
X94000000Y-133750000D01*
X93500000Y-133750000D01*
X93500000Y-133250000D01*
X94000000Y-133250000D01*
G37*
G36*
X79000000Y-132750000D02*
G01*
X79000000Y-133250000D01*
X78500000Y-133250000D01*
X78500000Y-132750000D01*
X79000000Y-132750000D01*
G37*
G36*
X80000000Y-132750000D02*
G01*
X80000000Y-133250000D01*
X79500000Y-133250000D01*
X79500000Y-132750000D01*
X80000000Y-132750000D01*
G37*
G36*
X80500000Y-132750000D02*
G01*
X80500000Y-133250000D01*
X80000000Y-133250000D01*
X80000000Y-132750000D01*
X80500000Y-132750000D01*
G37*
G36*
X81000000Y-132750000D02*
G01*
X81000000Y-133250000D01*
X80500000Y-133250000D01*
X80500000Y-132750000D01*
X81000000Y-132750000D01*
G37*
G36*
X82000000Y-132750000D02*
G01*
X82000000Y-133250000D01*
X81500000Y-133250000D01*
X81500000Y-132750000D01*
X82000000Y-132750000D01*
G37*
G36*
X83500000Y-132750000D02*
G01*
X83500000Y-133250000D01*
X83000000Y-133250000D01*
X83000000Y-132750000D01*
X83500000Y-132750000D01*
G37*
G36*
X85000000Y-132750000D02*
G01*
X85000000Y-133250000D01*
X84500000Y-133250000D01*
X84500000Y-132750000D01*
X85000000Y-132750000D01*
G37*
G36*
X85500000Y-132750000D02*
G01*
X85500000Y-133250000D01*
X85000000Y-133250000D01*
X85000000Y-132750000D01*
X85500000Y-132750000D01*
G37*
G36*
X86500000Y-132750000D02*
G01*
X86500000Y-133250000D01*
X86000000Y-133250000D01*
X86000000Y-132750000D01*
X86500000Y-132750000D01*
G37*
G36*
X88000000Y-132750000D02*
G01*
X88000000Y-133250000D01*
X87500000Y-133250000D01*
X87500000Y-132750000D01*
X88000000Y-132750000D01*
G37*
G36*
X89500000Y-132750000D02*
G01*
X89500000Y-133250000D01*
X89000000Y-133250000D01*
X89000000Y-132750000D01*
X89500000Y-132750000D01*
G37*
G36*
X90000000Y-132750000D02*
G01*
X90000000Y-133250000D01*
X89500000Y-133250000D01*
X89500000Y-132750000D01*
X90000000Y-132750000D01*
G37*
G36*
X90500000Y-132750000D02*
G01*
X90500000Y-133250000D01*
X90000000Y-133250000D01*
X90000000Y-132750000D01*
X90500000Y-132750000D01*
G37*
G36*
X91000000Y-132750000D02*
G01*
X91000000Y-133250000D01*
X90500000Y-133250000D01*
X90500000Y-132750000D01*
X91000000Y-132750000D01*
G37*
G36*
X91500000Y-132750000D02*
G01*
X91500000Y-133250000D01*
X91000000Y-133250000D01*
X91000000Y-132750000D01*
X91500000Y-132750000D01*
G37*
G36*
X92000000Y-132750000D02*
G01*
X92000000Y-133250000D01*
X91500000Y-133250000D01*
X91500000Y-132750000D01*
X92000000Y-132750000D01*
G37*
G36*
X92500000Y-132750000D02*
G01*
X92500000Y-133250000D01*
X92000000Y-133250000D01*
X92000000Y-132750000D01*
X92500000Y-132750000D01*
G37*
G36*
X93000000Y-132750000D02*
G01*
X93000000Y-133250000D01*
X92500000Y-133250000D01*
X92500000Y-132750000D01*
X93000000Y-132750000D01*
G37*
G36*
X94000000Y-132750000D02*
G01*
X94000000Y-133250000D01*
X93500000Y-133250000D01*
X93500000Y-132750000D01*
X94000000Y-132750000D01*
G37*
G36*
X94500000Y-132750000D02*
G01*
X94500000Y-133250000D01*
X94000000Y-133250000D01*
X94000000Y-132750000D01*
X94500000Y-132750000D01*
G37*
G36*
X95000000Y-132750000D02*
G01*
X95000000Y-133250000D01*
X94500000Y-133250000D01*
X94500000Y-132750000D01*
X95000000Y-132750000D01*
G37*
G36*
X79000000Y-132250000D02*
G01*
X79000000Y-132750000D01*
X78500000Y-132750000D01*
X78500000Y-132250000D01*
X79000000Y-132250000D01*
G37*
G36*
X80000000Y-132250000D02*
G01*
X80000000Y-132750000D01*
X79500000Y-132750000D01*
X79500000Y-132250000D01*
X80000000Y-132250000D01*
G37*
G36*
X80500000Y-132250000D02*
G01*
X80500000Y-132750000D01*
X80000000Y-132750000D01*
X80000000Y-132250000D01*
X80500000Y-132250000D01*
G37*
G36*
X81000000Y-132250000D02*
G01*
X81000000Y-132750000D01*
X80500000Y-132750000D01*
X80500000Y-132250000D01*
X81000000Y-132250000D01*
G37*
G36*
X82000000Y-132250000D02*
G01*
X82000000Y-132750000D01*
X81500000Y-132750000D01*
X81500000Y-132250000D01*
X82000000Y-132250000D01*
G37*
G36*
X83000000Y-132250000D02*
G01*
X83000000Y-132750000D01*
X82500000Y-132750000D01*
X82500000Y-132250000D01*
X83000000Y-132250000D01*
G37*
G36*
X84500000Y-132250000D02*
G01*
X84500000Y-132750000D01*
X84000000Y-132750000D01*
X84000000Y-132250000D01*
X84500000Y-132250000D01*
G37*
G36*
X85000000Y-132250000D02*
G01*
X85000000Y-132750000D01*
X84500000Y-132750000D01*
X84500000Y-132250000D01*
X85000000Y-132250000D01*
G37*
G36*
X86000000Y-132250000D02*
G01*
X86000000Y-132750000D01*
X85500000Y-132750000D01*
X85500000Y-132250000D01*
X86000000Y-132250000D01*
G37*
G36*
X86500000Y-132250000D02*
G01*
X86500000Y-132750000D01*
X86000000Y-132750000D01*
X86000000Y-132250000D01*
X86500000Y-132250000D01*
G37*
G36*
X87500000Y-132250000D02*
G01*
X87500000Y-132750000D01*
X87000000Y-132750000D01*
X87000000Y-132250000D01*
X87500000Y-132250000D01*
G37*
G36*
X88500000Y-132250000D02*
G01*
X88500000Y-132750000D01*
X88000000Y-132750000D01*
X88000000Y-132250000D01*
X88500000Y-132250000D01*
G37*
G36*
X89000000Y-132250000D02*
G01*
X89000000Y-132750000D01*
X88500000Y-132750000D01*
X88500000Y-132250000D01*
X89000000Y-132250000D01*
G37*
G36*
X90500000Y-132250000D02*
G01*
X90500000Y-132750000D01*
X90000000Y-132750000D01*
X90000000Y-132250000D01*
X90500000Y-132250000D01*
G37*
G36*
X91000000Y-132250000D02*
G01*
X91000000Y-132750000D01*
X90500000Y-132750000D01*
X90500000Y-132250000D01*
X91000000Y-132250000D01*
G37*
G36*
X92500000Y-132250000D02*
G01*
X92500000Y-132750000D01*
X92000000Y-132750000D01*
X92000000Y-132250000D01*
X92500000Y-132250000D01*
G37*
G36*
X93500000Y-132250000D02*
G01*
X93500000Y-132750000D01*
X93000000Y-132750000D01*
X93000000Y-132250000D01*
X93500000Y-132250000D01*
G37*
G36*
X94000000Y-132250000D02*
G01*
X94000000Y-132750000D01*
X93500000Y-132750000D01*
X93500000Y-132250000D01*
X94000000Y-132250000D01*
G37*
G36*
X95000000Y-132250000D02*
G01*
X95000000Y-132750000D01*
X94500000Y-132750000D01*
X94500000Y-132250000D01*
X95000000Y-132250000D01*
G37*
G36*
X79000000Y-131750000D02*
G01*
X79000000Y-132250000D01*
X78500000Y-132250000D01*
X78500000Y-131750000D01*
X79000000Y-131750000D01*
G37*
G36*
X80000000Y-131750000D02*
G01*
X80000000Y-132250000D01*
X79500000Y-132250000D01*
X79500000Y-131750000D01*
X80000000Y-131750000D01*
G37*
G36*
X80500000Y-131750000D02*
G01*
X80500000Y-132250000D01*
X80000000Y-132250000D01*
X80000000Y-131750000D01*
X80500000Y-131750000D01*
G37*
G36*
X81000000Y-131750000D02*
G01*
X81000000Y-132250000D01*
X80500000Y-132250000D01*
X80500000Y-131750000D01*
X81000000Y-131750000D01*
G37*
G36*
X82000000Y-131750000D02*
G01*
X82000000Y-132250000D01*
X81500000Y-132250000D01*
X81500000Y-131750000D01*
X82000000Y-131750000D01*
G37*
G36*
X83000000Y-131750000D02*
G01*
X83000000Y-132250000D01*
X82500000Y-132250000D01*
X82500000Y-131750000D01*
X83000000Y-131750000D01*
G37*
G36*
X83500000Y-131750000D02*
G01*
X83500000Y-132250000D01*
X83000000Y-132250000D01*
X83000000Y-131750000D01*
X83500000Y-131750000D01*
G37*
G36*
X84000000Y-131750000D02*
G01*
X84000000Y-132250000D01*
X83500000Y-132250000D01*
X83500000Y-131750000D01*
X84000000Y-131750000D01*
G37*
G36*
X84500000Y-131750000D02*
G01*
X84500000Y-132250000D01*
X84000000Y-132250000D01*
X84000000Y-131750000D01*
X84500000Y-131750000D01*
G37*
G36*
X86000000Y-131750000D02*
G01*
X86000000Y-132250000D01*
X85500000Y-132250000D01*
X85500000Y-131750000D01*
X86000000Y-131750000D01*
G37*
G36*
X86500000Y-131750000D02*
G01*
X86500000Y-132250000D01*
X86000000Y-132250000D01*
X86000000Y-131750000D01*
X86500000Y-131750000D01*
G37*
G36*
X89500000Y-131750000D02*
G01*
X89500000Y-132250000D01*
X89000000Y-132250000D01*
X89000000Y-131750000D01*
X89500000Y-131750000D01*
G37*
G36*
X90000000Y-131750000D02*
G01*
X90000000Y-132250000D01*
X89500000Y-132250000D01*
X89500000Y-131750000D01*
X90000000Y-131750000D01*
G37*
G36*
X90500000Y-131750000D02*
G01*
X90500000Y-132250000D01*
X90000000Y-132250000D01*
X90000000Y-131750000D01*
X90500000Y-131750000D01*
G37*
G36*
X91000000Y-131750000D02*
G01*
X91000000Y-132250000D01*
X90500000Y-132250000D01*
X90500000Y-131750000D01*
X91000000Y-131750000D01*
G37*
G36*
X91500000Y-131750000D02*
G01*
X91500000Y-132250000D01*
X91000000Y-132250000D01*
X91000000Y-131750000D01*
X91500000Y-131750000D01*
G37*
G36*
X92000000Y-131750000D02*
G01*
X92000000Y-132250000D01*
X91500000Y-132250000D01*
X91500000Y-131750000D01*
X92000000Y-131750000D01*
G37*
G36*
X92500000Y-131750000D02*
G01*
X92500000Y-132250000D01*
X92000000Y-132250000D01*
X92000000Y-131750000D01*
X92500000Y-131750000D01*
G37*
G36*
X93500000Y-131750000D02*
G01*
X93500000Y-132250000D01*
X93000000Y-132250000D01*
X93000000Y-131750000D01*
X93500000Y-131750000D01*
G37*
G36*
X79000000Y-131250000D02*
G01*
X79000000Y-131750000D01*
X78500000Y-131750000D01*
X78500000Y-131250000D01*
X79000000Y-131250000D01*
G37*
G36*
X82000000Y-131250000D02*
G01*
X82000000Y-131750000D01*
X81500000Y-131750000D01*
X81500000Y-131250000D01*
X82000000Y-131250000D01*
G37*
G36*
X83500000Y-131250000D02*
G01*
X83500000Y-131750000D01*
X83000000Y-131750000D01*
X83000000Y-131250000D01*
X83500000Y-131250000D01*
G37*
G36*
X84500000Y-131250000D02*
G01*
X84500000Y-131750000D01*
X84000000Y-131750000D01*
X84000000Y-131250000D01*
X84500000Y-131250000D01*
G37*
G36*
X85000000Y-131250000D02*
G01*
X85000000Y-131750000D01*
X84500000Y-131750000D01*
X84500000Y-131250000D01*
X85000000Y-131250000D01*
G37*
G36*
X85500000Y-131250000D02*
G01*
X85500000Y-131750000D01*
X85000000Y-131750000D01*
X85000000Y-131250000D01*
X85500000Y-131250000D01*
G37*
G36*
X87000000Y-131250000D02*
G01*
X87000000Y-131750000D01*
X86500000Y-131750000D01*
X86500000Y-131250000D01*
X87000000Y-131250000D01*
G37*
G36*
X87500000Y-131250000D02*
G01*
X87500000Y-131750000D01*
X87000000Y-131750000D01*
X87000000Y-131250000D01*
X87500000Y-131250000D01*
G37*
G36*
X90000000Y-131250000D02*
G01*
X90000000Y-131750000D01*
X89500000Y-131750000D01*
X89500000Y-131250000D01*
X90000000Y-131250000D01*
G37*
G36*
X90500000Y-131250000D02*
G01*
X90500000Y-131750000D01*
X90000000Y-131750000D01*
X90000000Y-131250000D01*
X90500000Y-131250000D01*
G37*
G36*
X91000000Y-131250000D02*
G01*
X91000000Y-131750000D01*
X90500000Y-131750000D01*
X90500000Y-131250000D01*
X91000000Y-131250000D01*
G37*
G36*
X91500000Y-131250000D02*
G01*
X91500000Y-131750000D01*
X91000000Y-131750000D01*
X91000000Y-131250000D01*
X91500000Y-131250000D01*
G37*
G36*
X92000000Y-131250000D02*
G01*
X92000000Y-131750000D01*
X91500000Y-131750000D01*
X91500000Y-131250000D01*
X92000000Y-131250000D01*
G37*
G36*
X92500000Y-131250000D02*
G01*
X92500000Y-131750000D01*
X92000000Y-131750000D01*
X92000000Y-131250000D01*
X92500000Y-131250000D01*
G37*
G36*
X93000000Y-131250000D02*
G01*
X93000000Y-131750000D01*
X92500000Y-131750000D01*
X92500000Y-131250000D01*
X93000000Y-131250000D01*
G37*
G36*
X95000000Y-131250000D02*
G01*
X95000000Y-131750000D01*
X94500000Y-131750000D01*
X94500000Y-131250000D01*
X95000000Y-131250000D01*
G37*
G36*
X79000000Y-130750000D02*
G01*
X79000000Y-131250000D01*
X78500000Y-131250000D01*
X78500000Y-130750000D01*
X79000000Y-130750000D01*
G37*
G36*
X79500000Y-130750000D02*
G01*
X79500000Y-131250000D01*
X79000000Y-131250000D01*
X79000000Y-130750000D01*
X79500000Y-130750000D01*
G37*
G36*
X80000000Y-130750000D02*
G01*
X80000000Y-131250000D01*
X79500000Y-131250000D01*
X79500000Y-130750000D01*
X80000000Y-130750000D01*
G37*
G36*
X80500000Y-130750000D02*
G01*
X80500000Y-131250000D01*
X80000000Y-131250000D01*
X80000000Y-130750000D01*
X80500000Y-130750000D01*
G37*
G36*
X81000000Y-130750000D02*
G01*
X81000000Y-131250000D01*
X80500000Y-131250000D01*
X80500000Y-130750000D01*
X81000000Y-130750000D01*
G37*
G36*
X81500000Y-130750000D02*
G01*
X81500000Y-131250000D01*
X81000000Y-131250000D01*
X81000000Y-130750000D01*
X81500000Y-130750000D01*
G37*
G36*
X82000000Y-130750000D02*
G01*
X82000000Y-131250000D01*
X81500000Y-131250000D01*
X81500000Y-130750000D01*
X82000000Y-130750000D01*
G37*
G36*
X83000000Y-130750000D02*
G01*
X83000000Y-131250000D01*
X82500000Y-131250000D01*
X82500000Y-130750000D01*
X83000000Y-130750000D01*
G37*
G36*
X83500000Y-130750000D02*
G01*
X83500000Y-131250000D01*
X83000000Y-131250000D01*
X83000000Y-130750000D01*
X83500000Y-130750000D01*
G37*
G36*
X84500000Y-130750000D02*
G01*
X84500000Y-131250000D01*
X84000000Y-131250000D01*
X84000000Y-130750000D01*
X84500000Y-130750000D01*
G37*
G36*
X85500000Y-130750000D02*
G01*
X85500000Y-131250000D01*
X85000000Y-131250000D01*
X85000000Y-130750000D01*
X85500000Y-130750000D01*
G37*
G36*
X86000000Y-130750000D02*
G01*
X86000000Y-131250000D01*
X85500000Y-131250000D01*
X85500000Y-130750000D01*
X86000000Y-130750000D01*
G37*
G36*
X87000000Y-130750000D02*
G01*
X87000000Y-131250000D01*
X86500000Y-131250000D01*
X86500000Y-130750000D01*
X87000000Y-130750000D01*
G37*
G36*
X87500000Y-130750000D02*
G01*
X87500000Y-131250000D01*
X87000000Y-131250000D01*
X87000000Y-130750000D01*
X87500000Y-130750000D01*
G37*
G36*
X88000000Y-130750000D02*
G01*
X88000000Y-131250000D01*
X87500000Y-131250000D01*
X87500000Y-130750000D01*
X88000000Y-130750000D01*
G37*
G36*
X88500000Y-130750000D02*
G01*
X88500000Y-131250000D01*
X88000000Y-131250000D01*
X88000000Y-130750000D01*
X88500000Y-130750000D01*
G37*
G36*
X89000000Y-130750000D02*
G01*
X89000000Y-131250000D01*
X88500000Y-131250000D01*
X88500000Y-130750000D01*
X89000000Y-130750000D01*
G37*
G36*
X89500000Y-130750000D02*
G01*
X89500000Y-131250000D01*
X89000000Y-131250000D01*
X89000000Y-130750000D01*
X89500000Y-130750000D01*
G37*
G36*
X90500000Y-130750000D02*
G01*
X90500000Y-131250000D01*
X90000000Y-131250000D01*
X90000000Y-130750000D01*
X90500000Y-130750000D01*
G37*
G36*
X91500000Y-130750000D02*
G01*
X91500000Y-131250000D01*
X91000000Y-131250000D01*
X91000000Y-130750000D01*
X91500000Y-130750000D01*
G37*
G36*
X93000000Y-130750000D02*
G01*
X93000000Y-131250000D01*
X92500000Y-131250000D01*
X92500000Y-130750000D01*
X93000000Y-130750000D01*
G37*
D12*
X85300000Y-173000000D02*
X86700000Y-173000000D01*
X87400000Y-172300000D02*
X87400000Y-171700000D01*
X86700000Y-171000000D02*
X85300000Y-171000000D01*
X84600000Y-171700000D02*
X84600000Y-172300000D01*
X84600000Y-172300000D02*
G75*
G03X85300000Y-173000000I700000J0D01*
G01*
X85300000Y-171000000D02*
G75*
G03X84600000Y-171700000I0J-700000D01*
G01*
X87400000Y-171700000D02*
G75*
G03X86700000Y-171000000I-700000J0D01*
G01*
X86700000Y-173000000D02*
G75*
G03X87400000Y-172300000I0J700000D01*
G01*
X76650000Y-173000000D02*
X78050000Y-173000000D01*
X78750000Y-172300000D02*
X78750000Y-171700000D01*
X78050000Y-171000000D02*
X76650000Y-171000000D01*
X75950000Y-171700000D02*
X75950000Y-172300000D01*
X75950000Y-172300000D02*
G75*
G03X76650000Y-173000000I700000J0D01*
G01*
X76650000Y-171000000D02*
G75*
G03X75950000Y-171700000I0J-700000D01*
G01*
X78750000Y-171700000D02*
G75*
G03X78050000Y-171000000I-700000J0D01*
G01*
X78050000Y-173000000D02*
G75*
G03X78750000Y-172300000I0J700000D01*
G01*
X68300000Y-173000000D02*
X69700000Y-173000000D01*
X70400000Y-172300000D02*
X70400000Y-171700000D01*
X69700000Y-171000000D02*
X68300000Y-171000000D01*
X67600000Y-171700000D02*
X67600000Y-172300000D01*
X67600000Y-172300000D02*
G75*
G03X68300000Y-173000000I700000J0D01*
G01*
X68300000Y-171000000D02*
G75*
G03X67600000Y-171700000I0J-700000D01*
G01*
X70400000Y-171700000D02*
G75*
G03X69700000Y-171000000I-700000J0D01*
G01*
X69700000Y-173000000D02*
G75*
G03X70400000Y-172300000I0J700000D01*
G01*
X39750000Y-156100000D02*
G75*
G03X40450000Y-156800000I700000J0D01*
G01*
X41050000Y-156800000D02*
G75*
G03X41750000Y-156100000I0J700000D01*
G01*
X41750000Y-154700000D02*
G75*
G03X41050000Y-154000000I-700000J0D01*
G01*
X40450000Y-154000000D02*
G75*
G03X39750000Y-154700000I0J-700000D01*
G01*
X41050000Y-154000000D02*
X40450000Y-154000000D01*
X41750000Y-156100000D02*
X41750000Y-154700000D01*
X40450000Y-156800000D02*
X41050000Y-156800000D01*
X39750000Y-154700000D02*
X39750000Y-156100000D01*
X43750000Y-154800000D02*
X43750000Y-156200000D01*
X44450000Y-156900000D02*
X45050000Y-156900000D01*
X45750000Y-156200000D02*
X45750000Y-154800000D01*
X45050000Y-154100000D02*
X44450000Y-154100000D01*
X44450000Y-154100000D02*
G75*
G03X43750000Y-154800000I0J-700000D01*
G01*
X45750000Y-154800000D02*
G75*
G03X45050000Y-154100000I-700000J0D01*
G01*
X45050000Y-156900000D02*
G75*
G03X45750000Y-156200000I0J700000D01*
G01*
X43750000Y-156200000D02*
G75*
G03X44450000Y-156900000I700000J0D01*
G01*
X47750000Y-156100000D02*
G75*
G03X48450000Y-156800000I700000J0D01*
G01*
X49050000Y-156800000D02*
G75*
G03X49750000Y-156100000I0J700000D01*
G01*
X49750000Y-154700000D02*
G75*
G03X49050000Y-154000000I-700000J0D01*
G01*
X48450000Y-154000000D02*
G75*
G03X47750000Y-154700000I0J-700000D01*
G01*
X49050000Y-154000000D02*
X48450000Y-154000000D01*
X49750000Y-156100000D02*
X49750000Y-154700000D01*
X48450000Y-156800000D02*
X49050000Y-156800000D01*
X47750000Y-154700000D02*
X47750000Y-156100000D01*
D10*
X89833333Y-171452380D02*
X89833333Y-172166666D01*
X89880952Y-172309523D01*
X89976190Y-172404761D01*
X90119047Y-172452380D01*
X90214285Y-172452380D01*
X89357142Y-172452380D02*
X89357142Y-171452380D01*
X88976190Y-171452380D01*
X88880952Y-171500000D01*
X88833333Y-171547619D01*
X88785714Y-171642857D01*
X88785714Y-171785714D01*
X88833333Y-171880952D01*
X88880952Y-171928571D01*
X88976190Y-171976190D01*
X89357142Y-171976190D01*
X88214285Y-171880952D02*
X88309523Y-171833333D01*
X88357142Y-171785714D01*
X88404761Y-171690476D01*
X88404761Y-171642857D01*
X88357142Y-171547619D01*
X88309523Y-171500000D01*
X88214285Y-171452380D01*
X88023809Y-171452380D01*
X87928571Y-171500000D01*
X87880952Y-171547619D01*
X87833333Y-171642857D01*
X87833333Y-171690476D01*
X87880952Y-171785714D01*
X87928571Y-171833333D01*
X88023809Y-171880952D01*
X88214285Y-171880952D01*
X88309523Y-171928571D01*
X88357142Y-171976190D01*
X88404761Y-172071428D01*
X88404761Y-172261904D01*
X88357142Y-172357142D01*
X88309523Y-172404761D01*
X88214285Y-172452380D01*
X88023809Y-172452380D01*
X87928571Y-172404761D01*
X87880952Y-172357142D01*
X87833333Y-172261904D01*
X87833333Y-172071428D01*
X87880952Y-171976190D01*
X87928571Y-171928571D01*
X88023809Y-171880952D01*
X81333333Y-171452380D02*
X81333333Y-172166666D01*
X81380952Y-172309523D01*
X81476190Y-172404761D01*
X81619047Y-172452380D01*
X81714285Y-172452380D01*
X80857142Y-172452380D02*
X80857142Y-171452380D01*
X80476190Y-171452380D01*
X80380952Y-171500000D01*
X80333333Y-171547619D01*
X80285714Y-171642857D01*
X80285714Y-171785714D01*
X80333333Y-171880952D01*
X80380952Y-171928571D01*
X80476190Y-171976190D01*
X80857142Y-171976190D01*
X79809523Y-172452380D02*
X79619047Y-172452380D01*
X79523809Y-172404761D01*
X79476190Y-172357142D01*
X79380952Y-172214285D01*
X79333333Y-172023809D01*
X79333333Y-171642857D01*
X79380952Y-171547619D01*
X79428571Y-171500000D01*
X79523809Y-171452380D01*
X79714285Y-171452380D01*
X79809523Y-171500000D01*
X79857142Y-171547619D01*
X79904761Y-171642857D01*
X79904761Y-171880952D01*
X79857142Y-171976190D01*
X79809523Y-172023809D01*
X79714285Y-172071428D01*
X79523809Y-172071428D01*
X79428571Y-172023809D01*
X79380952Y-171976190D01*
X79333333Y-171880952D01*
X73809523Y-171452380D02*
X73809523Y-172166666D01*
X73857142Y-172309523D01*
X73952380Y-172404761D01*
X74095238Y-172452380D01*
X74190476Y-172452380D01*
X73333333Y-172452380D02*
X73333333Y-171452380D01*
X72952380Y-171452380D01*
X72857142Y-171500000D01*
X72809523Y-171547619D01*
X72761904Y-171642857D01*
X72761904Y-171785714D01*
X72809523Y-171880952D01*
X72857142Y-171928571D01*
X72952380Y-171976190D01*
X73333333Y-171976190D01*
X71809523Y-172452380D02*
X72380952Y-172452380D01*
X72095238Y-172452380D02*
X72095238Y-171452380D01*
X72190476Y-171595238D01*
X72285714Y-171690476D01*
X72380952Y-171738095D01*
X71190476Y-171452380D02*
X71095238Y-171452380D01*
X71000000Y-171500000D01*
X70952380Y-171547619D01*
X70904761Y-171642857D01*
X70857142Y-171833333D01*
X70857142Y-172071428D01*
X70904761Y-172261904D01*
X70952380Y-172357142D01*
X71000000Y-172404761D01*
X71095238Y-172452380D01*
X71190476Y-172452380D01*
X71285714Y-172404761D01*
X71333333Y-172357142D01*
X71380952Y-172261904D01*
X71428571Y-172071428D01*
X71428571Y-171833333D01*
X71380952Y-171642857D01*
X71333333Y-171547619D01*
X71285714Y-171500000D01*
X71190476Y-171452380D01*
X38402380Y-154566666D02*
X39116666Y-154566666D01*
X39259523Y-154519047D01*
X39354761Y-154423809D01*
X39402380Y-154280952D01*
X39402380Y-154185714D01*
X39402380Y-155042857D02*
X38402380Y-155042857D01*
X38402380Y-155423809D01*
X38450000Y-155519047D01*
X38497619Y-155566666D01*
X38592857Y-155614285D01*
X38735714Y-155614285D01*
X38830952Y-155566666D01*
X38878571Y-155519047D01*
X38926190Y-155423809D01*
X38926190Y-155042857D01*
X38402380Y-155947619D02*
X38402380Y-156566666D01*
X38783333Y-156233333D01*
X38783333Y-156376190D01*
X38830952Y-156471428D01*
X38878571Y-156519047D01*
X38973809Y-156566666D01*
X39211904Y-156566666D01*
X39307142Y-156519047D01*
X39354761Y-156471428D01*
X39402380Y-156376190D01*
X39402380Y-156090476D01*
X39354761Y-155995238D01*
X39307142Y-155947619D01*
X42402380Y-154666666D02*
X43116666Y-154666666D01*
X43259523Y-154619047D01*
X43354761Y-154523809D01*
X43402380Y-154380952D01*
X43402380Y-154285714D01*
X43402380Y-155142857D02*
X42402380Y-155142857D01*
X42402380Y-155523809D01*
X42450000Y-155619047D01*
X42497619Y-155666666D01*
X42592857Y-155714285D01*
X42735714Y-155714285D01*
X42830952Y-155666666D01*
X42878571Y-155619047D01*
X42926190Y-155523809D01*
X42926190Y-155142857D01*
X42497619Y-156095238D02*
X42450000Y-156142857D01*
X42402380Y-156238095D01*
X42402380Y-156476190D01*
X42450000Y-156571428D01*
X42497619Y-156619047D01*
X42592857Y-156666666D01*
X42688095Y-156666666D01*
X42830952Y-156619047D01*
X43402380Y-156047619D01*
X43402380Y-156666666D01*
X46402380Y-154566666D02*
X47116666Y-154566666D01*
X47259523Y-154519047D01*
X47354761Y-154423809D01*
X47402380Y-154280952D01*
X47402380Y-154185714D01*
X47402380Y-155042857D02*
X46402380Y-155042857D01*
X46402380Y-155423809D01*
X46450000Y-155519047D01*
X46497619Y-155566666D01*
X46592857Y-155614285D01*
X46735714Y-155614285D01*
X46830952Y-155566666D01*
X46878571Y-155519047D01*
X46926190Y-155423809D01*
X46926190Y-155042857D01*
X47402380Y-156566666D02*
X47402380Y-155995238D01*
X47402380Y-156280952D02*
X46402380Y-156280952D01*
X46545238Y-156185714D01*
X46640476Y-156090476D01*
X46688095Y-155995238D01*
M02*
