G04 #@! TF.GenerationSoftware,KiCad,Pcbnew,(5.1.5)-3*
G04 #@! TF.CreationDate,2020-04-27T20:32:12+02:00*
G04 #@! TF.ProjectId,ICHaus,49434861-7573-42e6-9b69-6361645f7063,rev?*
G04 #@! TF.SameCoordinates,Original*
G04 #@! TF.FileFunction,Soldermask,Bot*
G04 #@! TF.FilePolarity,Negative*
%FSLAX46Y46*%
G04 Gerber Fmt 4.6, Leading zero omitted, Abs format (unit mm)*
G04 Created by KiCad (PCBNEW (5.1.5)-3) date 2020-04-27 20:32:12*
%MOMM*%
%LPD*%
G04 APERTURE LIST*
%ADD10C,0.100000*%
G04 APERTURE END LIST*
D10*
G36*
X95050000Y-130700000D02*
G01*
X95050000Y-147300000D01*
X78450000Y-147300000D01*
X78450000Y-130700000D01*
X95050000Y-130700000D01*
G37*
G36*
X85859999Y-171199737D02*
G01*
X85869608Y-171202652D01*
X85878472Y-171207390D01*
X85886237Y-171213763D01*
X85896448Y-171226206D01*
X85903378Y-171236575D01*
X85920705Y-171253902D01*
X85941080Y-171267515D01*
X85963720Y-171276891D01*
X85987753Y-171281671D01*
X86012257Y-171281670D01*
X86036290Y-171276888D01*
X86058929Y-171267510D01*
X86079302Y-171253895D01*
X86096629Y-171236568D01*
X86103558Y-171226198D01*
X86113763Y-171213763D01*
X86121528Y-171207390D01*
X86130392Y-171202652D01*
X86140001Y-171199737D01*
X86156140Y-171198148D01*
X86643861Y-171198148D01*
X86662199Y-171199954D01*
X86674450Y-171200556D01*
X86692869Y-171200556D01*
X86715149Y-171202750D01*
X86799233Y-171219476D01*
X86820660Y-171225976D01*
X86899858Y-171258780D01*
X86905303Y-171261691D01*
X86905309Y-171261693D01*
X86914169Y-171266429D01*
X86914173Y-171266432D01*
X86919614Y-171269340D01*
X86990899Y-171316971D01*
X87008204Y-171331172D01*
X87068828Y-171391796D01*
X87083029Y-171409101D01*
X87130660Y-171480386D01*
X87133568Y-171485827D01*
X87133571Y-171485831D01*
X87138307Y-171494691D01*
X87138309Y-171494697D01*
X87141220Y-171500142D01*
X87174024Y-171579340D01*
X87180524Y-171600767D01*
X87197250Y-171684851D01*
X87199444Y-171707131D01*
X87199444Y-171725550D01*
X87200046Y-171737801D01*
X87201852Y-171756139D01*
X87201852Y-172243862D01*
X87200046Y-172262199D01*
X87199444Y-172274450D01*
X87199444Y-172292869D01*
X87197250Y-172315149D01*
X87180524Y-172399233D01*
X87174024Y-172420660D01*
X87141220Y-172499858D01*
X87138309Y-172505303D01*
X87138307Y-172505309D01*
X87133571Y-172514169D01*
X87133568Y-172514173D01*
X87130660Y-172519614D01*
X87083029Y-172590899D01*
X87068828Y-172608204D01*
X87008204Y-172668828D01*
X86990899Y-172683029D01*
X86919614Y-172730660D01*
X86914173Y-172733568D01*
X86914169Y-172733571D01*
X86905309Y-172738307D01*
X86905303Y-172738309D01*
X86899858Y-172741220D01*
X86820660Y-172774024D01*
X86799233Y-172780524D01*
X86715149Y-172797250D01*
X86692869Y-172799444D01*
X86674450Y-172799444D01*
X86662199Y-172800046D01*
X86643862Y-172801852D01*
X86156140Y-172801852D01*
X86140001Y-172800263D01*
X86130392Y-172797348D01*
X86121528Y-172792610D01*
X86113763Y-172786237D01*
X86103552Y-172773794D01*
X86096622Y-172763425D01*
X86079295Y-172746098D01*
X86058920Y-172732485D01*
X86036280Y-172723109D01*
X86012247Y-172718329D01*
X85987743Y-172718330D01*
X85963710Y-172723112D01*
X85941071Y-172732490D01*
X85920698Y-172746105D01*
X85903371Y-172763432D01*
X85896442Y-172773802D01*
X85886237Y-172786237D01*
X85878472Y-172792610D01*
X85869608Y-172797348D01*
X85859999Y-172800263D01*
X85843860Y-172801852D01*
X85356138Y-172801852D01*
X85337801Y-172800046D01*
X85325550Y-172799444D01*
X85307131Y-172799444D01*
X85284851Y-172797250D01*
X85200767Y-172780524D01*
X85179340Y-172774024D01*
X85100142Y-172741220D01*
X85094697Y-172738309D01*
X85094691Y-172738307D01*
X85085831Y-172733571D01*
X85085827Y-172733568D01*
X85080386Y-172730660D01*
X85009101Y-172683029D01*
X84991796Y-172668828D01*
X84931172Y-172608204D01*
X84916971Y-172590899D01*
X84869340Y-172519614D01*
X84866432Y-172514173D01*
X84866429Y-172514169D01*
X84861693Y-172505309D01*
X84861691Y-172505303D01*
X84858780Y-172499858D01*
X84825976Y-172420660D01*
X84819476Y-172399233D01*
X84802750Y-172315149D01*
X84800556Y-172292869D01*
X84800556Y-172274450D01*
X84799954Y-172262199D01*
X84798148Y-172243862D01*
X84798148Y-171756139D01*
X84799954Y-171737801D01*
X84800556Y-171725550D01*
X84800556Y-171707131D01*
X84802750Y-171684851D01*
X84819476Y-171600767D01*
X84825976Y-171579340D01*
X84858780Y-171500142D01*
X84861691Y-171494697D01*
X84861693Y-171494691D01*
X84866429Y-171485831D01*
X84866432Y-171485827D01*
X84869340Y-171480386D01*
X84916971Y-171409101D01*
X84931172Y-171391796D01*
X84991796Y-171331172D01*
X85009101Y-171316971D01*
X85080386Y-171269340D01*
X85085827Y-171266432D01*
X85085831Y-171266429D01*
X85094691Y-171261693D01*
X85094697Y-171261691D01*
X85100142Y-171258780D01*
X85179340Y-171225976D01*
X85200767Y-171219476D01*
X85284851Y-171202750D01*
X85307131Y-171200556D01*
X85325550Y-171200556D01*
X85337801Y-171199954D01*
X85356139Y-171198148D01*
X85843860Y-171198148D01*
X85859999Y-171199737D01*
G37*
G36*
X77209999Y-171199737D02*
G01*
X77219608Y-171202652D01*
X77228472Y-171207390D01*
X77236237Y-171213763D01*
X77246448Y-171226206D01*
X77253378Y-171236575D01*
X77270705Y-171253902D01*
X77291080Y-171267515D01*
X77313720Y-171276891D01*
X77337753Y-171281671D01*
X77362257Y-171281670D01*
X77386290Y-171276888D01*
X77408929Y-171267510D01*
X77429302Y-171253895D01*
X77446629Y-171236568D01*
X77453558Y-171226198D01*
X77463763Y-171213763D01*
X77471528Y-171207390D01*
X77480392Y-171202652D01*
X77490001Y-171199737D01*
X77506140Y-171198148D01*
X77993861Y-171198148D01*
X78012199Y-171199954D01*
X78024450Y-171200556D01*
X78042869Y-171200556D01*
X78065149Y-171202750D01*
X78149233Y-171219476D01*
X78170660Y-171225976D01*
X78249858Y-171258780D01*
X78255303Y-171261691D01*
X78255309Y-171261693D01*
X78264169Y-171266429D01*
X78264173Y-171266432D01*
X78269614Y-171269340D01*
X78340899Y-171316971D01*
X78358204Y-171331172D01*
X78418828Y-171391796D01*
X78433029Y-171409101D01*
X78480660Y-171480386D01*
X78483568Y-171485827D01*
X78483571Y-171485831D01*
X78488307Y-171494691D01*
X78488309Y-171494697D01*
X78491220Y-171500142D01*
X78524024Y-171579340D01*
X78530524Y-171600767D01*
X78547250Y-171684851D01*
X78549444Y-171707131D01*
X78549444Y-171725550D01*
X78550046Y-171737801D01*
X78551852Y-171756139D01*
X78551852Y-172243862D01*
X78550046Y-172262199D01*
X78549444Y-172274450D01*
X78549444Y-172292869D01*
X78547250Y-172315149D01*
X78530524Y-172399233D01*
X78524024Y-172420660D01*
X78491220Y-172499858D01*
X78488309Y-172505303D01*
X78488307Y-172505309D01*
X78483571Y-172514169D01*
X78483568Y-172514173D01*
X78480660Y-172519614D01*
X78433029Y-172590899D01*
X78418828Y-172608204D01*
X78358204Y-172668828D01*
X78340899Y-172683029D01*
X78269614Y-172730660D01*
X78264173Y-172733568D01*
X78264169Y-172733571D01*
X78255309Y-172738307D01*
X78255303Y-172738309D01*
X78249858Y-172741220D01*
X78170660Y-172774024D01*
X78149233Y-172780524D01*
X78065149Y-172797250D01*
X78042869Y-172799444D01*
X78024450Y-172799444D01*
X78012199Y-172800046D01*
X77993862Y-172801852D01*
X77506140Y-172801852D01*
X77490001Y-172800263D01*
X77480392Y-172797348D01*
X77471528Y-172792610D01*
X77463763Y-172786237D01*
X77453552Y-172773794D01*
X77446622Y-172763425D01*
X77429295Y-172746098D01*
X77408920Y-172732485D01*
X77386280Y-172723109D01*
X77362247Y-172718329D01*
X77337743Y-172718330D01*
X77313710Y-172723112D01*
X77291071Y-172732490D01*
X77270698Y-172746105D01*
X77253371Y-172763432D01*
X77246442Y-172773802D01*
X77236237Y-172786237D01*
X77228472Y-172792610D01*
X77219608Y-172797348D01*
X77209999Y-172800263D01*
X77193860Y-172801852D01*
X76706138Y-172801852D01*
X76687801Y-172800046D01*
X76675550Y-172799444D01*
X76657131Y-172799444D01*
X76634851Y-172797250D01*
X76550767Y-172780524D01*
X76529340Y-172774024D01*
X76450142Y-172741220D01*
X76444697Y-172738309D01*
X76444691Y-172738307D01*
X76435831Y-172733571D01*
X76435827Y-172733568D01*
X76430386Y-172730660D01*
X76359101Y-172683029D01*
X76341796Y-172668828D01*
X76281172Y-172608204D01*
X76266971Y-172590899D01*
X76219340Y-172519614D01*
X76216432Y-172514173D01*
X76216429Y-172514169D01*
X76211693Y-172505309D01*
X76211691Y-172505303D01*
X76208780Y-172499858D01*
X76175976Y-172420660D01*
X76169476Y-172399233D01*
X76152750Y-172315149D01*
X76150556Y-172292869D01*
X76150556Y-172274450D01*
X76149954Y-172262199D01*
X76148148Y-172243862D01*
X76148148Y-171756139D01*
X76149954Y-171737801D01*
X76150556Y-171725550D01*
X76150556Y-171707131D01*
X76152750Y-171684851D01*
X76169476Y-171600767D01*
X76175976Y-171579340D01*
X76208780Y-171500142D01*
X76211691Y-171494697D01*
X76211693Y-171494691D01*
X76216429Y-171485831D01*
X76216432Y-171485827D01*
X76219340Y-171480386D01*
X76266971Y-171409101D01*
X76281172Y-171391796D01*
X76341796Y-171331172D01*
X76359101Y-171316971D01*
X76430386Y-171269340D01*
X76435827Y-171266432D01*
X76435831Y-171266429D01*
X76444691Y-171261693D01*
X76444697Y-171261691D01*
X76450142Y-171258780D01*
X76529340Y-171225976D01*
X76550767Y-171219476D01*
X76634851Y-171202750D01*
X76657131Y-171200556D01*
X76675550Y-171200556D01*
X76687801Y-171199954D01*
X76706139Y-171198148D01*
X77193860Y-171198148D01*
X77209999Y-171199737D01*
G37*
G36*
X68859999Y-171199737D02*
G01*
X68869608Y-171202652D01*
X68878472Y-171207390D01*
X68886237Y-171213763D01*
X68896448Y-171226206D01*
X68903378Y-171236575D01*
X68920705Y-171253902D01*
X68941080Y-171267515D01*
X68963720Y-171276891D01*
X68987753Y-171281671D01*
X69012257Y-171281670D01*
X69036290Y-171276888D01*
X69058929Y-171267510D01*
X69079302Y-171253895D01*
X69096629Y-171236568D01*
X69103558Y-171226198D01*
X69113763Y-171213763D01*
X69121528Y-171207390D01*
X69130392Y-171202652D01*
X69140001Y-171199737D01*
X69156140Y-171198148D01*
X69643861Y-171198148D01*
X69662199Y-171199954D01*
X69674450Y-171200556D01*
X69692869Y-171200556D01*
X69715149Y-171202750D01*
X69799233Y-171219476D01*
X69820660Y-171225976D01*
X69899858Y-171258780D01*
X69905303Y-171261691D01*
X69905309Y-171261693D01*
X69914169Y-171266429D01*
X69914173Y-171266432D01*
X69919614Y-171269340D01*
X69990899Y-171316971D01*
X70008204Y-171331172D01*
X70068828Y-171391796D01*
X70083029Y-171409101D01*
X70130660Y-171480386D01*
X70133568Y-171485827D01*
X70133571Y-171485831D01*
X70138307Y-171494691D01*
X70138309Y-171494697D01*
X70141220Y-171500142D01*
X70174024Y-171579340D01*
X70180524Y-171600767D01*
X70197250Y-171684851D01*
X70199444Y-171707131D01*
X70199444Y-171725550D01*
X70200046Y-171737801D01*
X70201852Y-171756139D01*
X70201852Y-172243862D01*
X70200046Y-172262199D01*
X70199444Y-172274450D01*
X70199444Y-172292869D01*
X70197250Y-172315149D01*
X70180524Y-172399233D01*
X70174024Y-172420660D01*
X70141220Y-172499858D01*
X70138309Y-172505303D01*
X70138307Y-172505309D01*
X70133571Y-172514169D01*
X70133568Y-172514173D01*
X70130660Y-172519614D01*
X70083029Y-172590899D01*
X70068828Y-172608204D01*
X70008204Y-172668828D01*
X69990899Y-172683029D01*
X69919614Y-172730660D01*
X69914173Y-172733568D01*
X69914169Y-172733571D01*
X69905309Y-172738307D01*
X69905303Y-172738309D01*
X69899858Y-172741220D01*
X69820660Y-172774024D01*
X69799233Y-172780524D01*
X69715149Y-172797250D01*
X69692869Y-172799444D01*
X69674450Y-172799444D01*
X69662199Y-172800046D01*
X69643862Y-172801852D01*
X69156140Y-172801852D01*
X69140001Y-172800263D01*
X69130392Y-172797348D01*
X69121528Y-172792610D01*
X69113763Y-172786237D01*
X69103552Y-172773794D01*
X69096622Y-172763425D01*
X69079295Y-172746098D01*
X69058920Y-172732485D01*
X69036280Y-172723109D01*
X69012247Y-172718329D01*
X68987743Y-172718330D01*
X68963710Y-172723112D01*
X68941071Y-172732490D01*
X68920698Y-172746105D01*
X68903371Y-172763432D01*
X68896442Y-172773802D01*
X68886237Y-172786237D01*
X68878472Y-172792610D01*
X68869608Y-172797348D01*
X68859999Y-172800263D01*
X68843860Y-172801852D01*
X68356138Y-172801852D01*
X68337801Y-172800046D01*
X68325550Y-172799444D01*
X68307131Y-172799444D01*
X68284851Y-172797250D01*
X68200767Y-172780524D01*
X68179340Y-172774024D01*
X68100142Y-172741220D01*
X68094697Y-172738309D01*
X68094691Y-172738307D01*
X68085831Y-172733571D01*
X68085827Y-172733568D01*
X68080386Y-172730660D01*
X68009101Y-172683029D01*
X67991796Y-172668828D01*
X67931172Y-172608204D01*
X67916971Y-172590899D01*
X67869340Y-172519614D01*
X67866432Y-172514173D01*
X67866429Y-172514169D01*
X67861693Y-172505309D01*
X67861691Y-172505303D01*
X67858780Y-172499858D01*
X67825976Y-172420660D01*
X67819476Y-172399233D01*
X67802750Y-172315149D01*
X67800556Y-172292869D01*
X67800556Y-172274450D01*
X67799954Y-172262199D01*
X67798148Y-172243862D01*
X67798148Y-171756139D01*
X67799954Y-171737801D01*
X67800556Y-171725550D01*
X67800556Y-171707131D01*
X67802750Y-171684851D01*
X67819476Y-171600767D01*
X67825976Y-171579340D01*
X67858780Y-171500142D01*
X67861691Y-171494697D01*
X67861693Y-171494691D01*
X67866429Y-171485831D01*
X67866432Y-171485827D01*
X67869340Y-171480386D01*
X67916971Y-171409101D01*
X67931172Y-171391796D01*
X67991796Y-171331172D01*
X68009101Y-171316971D01*
X68080386Y-171269340D01*
X68085827Y-171266432D01*
X68085831Y-171266429D01*
X68094691Y-171261693D01*
X68094697Y-171261691D01*
X68100142Y-171258780D01*
X68179340Y-171225976D01*
X68200767Y-171219476D01*
X68284851Y-171202750D01*
X68307131Y-171200556D01*
X68325550Y-171200556D01*
X68337801Y-171199954D01*
X68356139Y-171198148D01*
X68843860Y-171198148D01*
X68859999Y-171199737D01*
G37*
G36*
X88577593Y-165710891D02*
G01*
X88687789Y-165744319D01*
X88789338Y-165798598D01*
X88878351Y-165871649D01*
X88951402Y-165960662D01*
X89005681Y-166062211D01*
X89039109Y-166172407D01*
X89051000Y-166293140D01*
X89051000Y-167706860D01*
X89039109Y-167827593D01*
X89005681Y-167937789D01*
X88951402Y-168039338D01*
X88878351Y-168128351D01*
X88789338Y-168201402D01*
X88687789Y-168255681D01*
X88577593Y-168289109D01*
X88456860Y-168301000D01*
X87043140Y-168301000D01*
X86922407Y-168289109D01*
X86812211Y-168255681D01*
X86710662Y-168201402D01*
X86621649Y-168128351D01*
X86548598Y-168039338D01*
X86494319Y-167937789D01*
X86460891Y-167827593D01*
X86449000Y-167706860D01*
X86449000Y-166293140D01*
X86460891Y-166172407D01*
X86494319Y-166062211D01*
X86548598Y-165960662D01*
X86621649Y-165871649D01*
X86710662Y-165798598D01*
X86812211Y-165744319D01*
X86922407Y-165710891D01*
X87043140Y-165699000D01*
X88456860Y-165699000D01*
X88577593Y-165710891D01*
G37*
G36*
X68077593Y-165710891D02*
G01*
X68187789Y-165744319D01*
X68289338Y-165798598D01*
X68378351Y-165871649D01*
X68451402Y-165960662D01*
X68505681Y-166062211D01*
X68539109Y-166172407D01*
X68551000Y-166293140D01*
X68551000Y-167706860D01*
X68539109Y-167827593D01*
X68505681Y-167937789D01*
X68451402Y-168039338D01*
X68378351Y-168128351D01*
X68289338Y-168201402D01*
X68187789Y-168255681D01*
X68077593Y-168289109D01*
X67956860Y-168301000D01*
X66543140Y-168301000D01*
X66422407Y-168289109D01*
X66312211Y-168255681D01*
X66210662Y-168201402D01*
X66121649Y-168128351D01*
X66048598Y-168039338D01*
X65994319Y-167937789D01*
X65960891Y-167827593D01*
X65949000Y-167706860D01*
X65949000Y-166293140D01*
X65960891Y-166172407D01*
X65994319Y-166062211D01*
X66048598Y-165960662D01*
X66121649Y-165871649D01*
X66210662Y-165798598D01*
X66312211Y-165744319D01*
X66422407Y-165710891D01*
X66543140Y-165699000D01*
X67956860Y-165699000D01*
X68077593Y-165710891D01*
G37*
G36*
X71577593Y-165710891D02*
G01*
X71687789Y-165744319D01*
X71789338Y-165798598D01*
X71878351Y-165871649D01*
X71951402Y-165960662D01*
X72005681Y-166062211D01*
X72039109Y-166172407D01*
X72051000Y-166293140D01*
X72051000Y-167706860D01*
X72039109Y-167827593D01*
X72005681Y-167937789D01*
X71951402Y-168039338D01*
X71878351Y-168128351D01*
X71789338Y-168201402D01*
X71687789Y-168255681D01*
X71577593Y-168289109D01*
X71456860Y-168301000D01*
X70043140Y-168301000D01*
X69922407Y-168289109D01*
X69812211Y-168255681D01*
X69710662Y-168201402D01*
X69621649Y-168128351D01*
X69548598Y-168039338D01*
X69494319Y-167937789D01*
X69460891Y-167827593D01*
X69449000Y-167706860D01*
X69449000Y-166293140D01*
X69460891Y-166172407D01*
X69494319Y-166062211D01*
X69548598Y-165960662D01*
X69621649Y-165871649D01*
X69710662Y-165798598D01*
X69812211Y-165744319D01*
X69922407Y-165710891D01*
X70043140Y-165699000D01*
X71456860Y-165699000D01*
X71577593Y-165710891D01*
G37*
G36*
X58577593Y-165710891D02*
G01*
X58687789Y-165744319D01*
X58789338Y-165798598D01*
X58878351Y-165871649D01*
X58951402Y-165960662D01*
X59005681Y-166062211D01*
X59039109Y-166172407D01*
X59051000Y-166293140D01*
X59051000Y-167706860D01*
X59039109Y-167827593D01*
X59005681Y-167937789D01*
X58951402Y-168039338D01*
X58878351Y-168128351D01*
X58789338Y-168201402D01*
X58687789Y-168255681D01*
X58577593Y-168289109D01*
X58456860Y-168301000D01*
X57043140Y-168301000D01*
X56922407Y-168289109D01*
X56812211Y-168255681D01*
X56710662Y-168201402D01*
X56621649Y-168128351D01*
X56548598Y-168039338D01*
X56494319Y-167937789D01*
X56460891Y-167827593D01*
X56449000Y-167706860D01*
X56449000Y-166293140D01*
X56460891Y-166172407D01*
X56494319Y-166062211D01*
X56548598Y-165960662D01*
X56621649Y-165871649D01*
X56710662Y-165798598D01*
X56812211Y-165744319D01*
X56922407Y-165710891D01*
X57043140Y-165699000D01*
X58456860Y-165699000D01*
X58577593Y-165710891D01*
G37*
G36*
X55077593Y-165710891D02*
G01*
X55187789Y-165744319D01*
X55289338Y-165798598D01*
X55378351Y-165871649D01*
X55451402Y-165960662D01*
X55505681Y-166062211D01*
X55539109Y-166172407D01*
X55551000Y-166293140D01*
X55551000Y-167706860D01*
X55539109Y-167827593D01*
X55505681Y-167937789D01*
X55451402Y-168039338D01*
X55378351Y-168128351D01*
X55289338Y-168201402D01*
X55187789Y-168255681D01*
X55077593Y-168289109D01*
X54956860Y-168301000D01*
X53543140Y-168301000D01*
X53422407Y-168289109D01*
X53312211Y-168255681D01*
X53210662Y-168201402D01*
X53121649Y-168128351D01*
X53048598Y-168039338D01*
X52994319Y-167937789D01*
X52960891Y-167827593D01*
X52949000Y-167706860D01*
X52949000Y-166293140D01*
X52960891Y-166172407D01*
X52994319Y-166062211D01*
X53048598Y-165960662D01*
X53121649Y-165871649D01*
X53210662Y-165798598D01*
X53312211Y-165744319D01*
X53422407Y-165710891D01*
X53543140Y-165699000D01*
X54956860Y-165699000D01*
X55077593Y-165710891D01*
G37*
G36*
X76577593Y-165710891D02*
G01*
X76687789Y-165744319D01*
X76789338Y-165798598D01*
X76878351Y-165871649D01*
X76951402Y-165960662D01*
X77005681Y-166062211D01*
X77039109Y-166172407D01*
X77051000Y-166293140D01*
X77051000Y-167706860D01*
X77039109Y-167827593D01*
X77005681Y-167937789D01*
X76951402Y-168039338D01*
X76878351Y-168128351D01*
X76789338Y-168201402D01*
X76687789Y-168255681D01*
X76577593Y-168289109D01*
X76456860Y-168301000D01*
X75043140Y-168301000D01*
X74922407Y-168289109D01*
X74812211Y-168255681D01*
X74710662Y-168201402D01*
X74621649Y-168128351D01*
X74548598Y-168039338D01*
X74494319Y-167937789D01*
X74460891Y-167827593D01*
X74449000Y-167706860D01*
X74449000Y-166293140D01*
X74460891Y-166172407D01*
X74494319Y-166062211D01*
X74548598Y-165960662D01*
X74621649Y-165871649D01*
X74710662Y-165798598D01*
X74812211Y-165744319D01*
X74922407Y-165710891D01*
X75043140Y-165699000D01*
X76456860Y-165699000D01*
X76577593Y-165710891D01*
G37*
G36*
X80077593Y-165710891D02*
G01*
X80187789Y-165744319D01*
X80289338Y-165798598D01*
X80378351Y-165871649D01*
X80451402Y-165960662D01*
X80505681Y-166062211D01*
X80539109Y-166172407D01*
X80551000Y-166293140D01*
X80551000Y-167706860D01*
X80539109Y-167827593D01*
X80505681Y-167937789D01*
X80451402Y-168039338D01*
X80378351Y-168128351D01*
X80289338Y-168201402D01*
X80187789Y-168255681D01*
X80077593Y-168289109D01*
X79956860Y-168301000D01*
X78543140Y-168301000D01*
X78422407Y-168289109D01*
X78312211Y-168255681D01*
X78210662Y-168201402D01*
X78121649Y-168128351D01*
X78048598Y-168039338D01*
X77994319Y-167937789D01*
X77960891Y-167827593D01*
X77949000Y-167706860D01*
X77949000Y-166293140D01*
X77960891Y-166172407D01*
X77994319Y-166062211D01*
X78048598Y-165960662D01*
X78121649Y-165871649D01*
X78210662Y-165798598D01*
X78312211Y-165744319D01*
X78422407Y-165710891D01*
X78543140Y-165699000D01*
X79956860Y-165699000D01*
X80077593Y-165710891D01*
G37*
G36*
X85077593Y-165710891D02*
G01*
X85187789Y-165744319D01*
X85289338Y-165798598D01*
X85378351Y-165871649D01*
X85451402Y-165960662D01*
X85505681Y-166062211D01*
X85539109Y-166172407D01*
X85551000Y-166293140D01*
X85551000Y-167706860D01*
X85539109Y-167827593D01*
X85505681Y-167937789D01*
X85451402Y-168039338D01*
X85378351Y-168128351D01*
X85289338Y-168201402D01*
X85187789Y-168255681D01*
X85077593Y-168289109D01*
X84956860Y-168301000D01*
X83543140Y-168301000D01*
X83422407Y-168289109D01*
X83312211Y-168255681D01*
X83210662Y-168201402D01*
X83121649Y-168128351D01*
X83048598Y-168039338D01*
X82994319Y-167937789D01*
X82960891Y-167827593D01*
X82949000Y-167706860D01*
X82949000Y-166293140D01*
X82960891Y-166172407D01*
X82994319Y-166062211D01*
X83048598Y-165960662D01*
X83121649Y-165871649D01*
X83210662Y-165798598D01*
X83312211Y-165744319D01*
X83422407Y-165710891D01*
X83543140Y-165699000D01*
X84956860Y-165699000D01*
X85077593Y-165710891D01*
G37*
G36*
X50077593Y-165710891D02*
G01*
X50187789Y-165744319D01*
X50289338Y-165798598D01*
X50378351Y-165871649D01*
X50451402Y-165960662D01*
X50505681Y-166062211D01*
X50539109Y-166172407D01*
X50551000Y-166293140D01*
X50551000Y-167706860D01*
X50539109Y-167827593D01*
X50505681Y-167937789D01*
X50451402Y-168039338D01*
X50378351Y-168128351D01*
X50289338Y-168201402D01*
X50187789Y-168255681D01*
X50077593Y-168289109D01*
X49956860Y-168301000D01*
X48543140Y-168301000D01*
X48422407Y-168289109D01*
X48312211Y-168255681D01*
X48210662Y-168201402D01*
X48121649Y-168128351D01*
X48048598Y-168039338D01*
X47994319Y-167937789D01*
X47960891Y-167827593D01*
X47949000Y-167706860D01*
X47949000Y-166293140D01*
X47960891Y-166172407D01*
X47994319Y-166062211D01*
X48048598Y-165960662D01*
X48121649Y-165871649D01*
X48210662Y-165798598D01*
X48312211Y-165744319D01*
X48422407Y-165710891D01*
X48543140Y-165699000D01*
X49956860Y-165699000D01*
X50077593Y-165710891D01*
G37*
G36*
X38077593Y-165710891D02*
G01*
X38187789Y-165744319D01*
X38289338Y-165798598D01*
X38378351Y-165871649D01*
X38451402Y-165960662D01*
X38505681Y-166062211D01*
X38539109Y-166172407D01*
X38551000Y-166293140D01*
X38551000Y-167706860D01*
X38539109Y-167827593D01*
X38505681Y-167937789D01*
X38451402Y-168039338D01*
X38378351Y-168128351D01*
X38289338Y-168201402D01*
X38187789Y-168255681D01*
X38077593Y-168289109D01*
X37956860Y-168301000D01*
X36543140Y-168301000D01*
X36422407Y-168289109D01*
X36312211Y-168255681D01*
X36210662Y-168201402D01*
X36121649Y-168128351D01*
X36048598Y-168039338D01*
X35994319Y-167937789D01*
X35960891Y-167827593D01*
X35949000Y-167706860D01*
X35949000Y-166293140D01*
X35960891Y-166172407D01*
X35994319Y-166062211D01*
X36048598Y-165960662D01*
X36121649Y-165871649D01*
X36210662Y-165798598D01*
X36312211Y-165744319D01*
X36422407Y-165710891D01*
X36543140Y-165699000D01*
X37956860Y-165699000D01*
X38077593Y-165710891D01*
G37*
G36*
X41577593Y-165710891D02*
G01*
X41687789Y-165744319D01*
X41789338Y-165798598D01*
X41878351Y-165871649D01*
X41951402Y-165960662D01*
X42005681Y-166062211D01*
X42039109Y-166172407D01*
X42051000Y-166293140D01*
X42051000Y-167706860D01*
X42039109Y-167827593D01*
X42005681Y-167937789D01*
X41951402Y-168039338D01*
X41878351Y-168128351D01*
X41789338Y-168201402D01*
X41687789Y-168255681D01*
X41577593Y-168289109D01*
X41456860Y-168301000D01*
X40043140Y-168301000D01*
X39922407Y-168289109D01*
X39812211Y-168255681D01*
X39710662Y-168201402D01*
X39621649Y-168128351D01*
X39548598Y-168039338D01*
X39494319Y-167937789D01*
X39460891Y-167827593D01*
X39449000Y-167706860D01*
X39449000Y-166293140D01*
X39460891Y-166172407D01*
X39494319Y-166062211D01*
X39548598Y-165960662D01*
X39621649Y-165871649D01*
X39710662Y-165798598D01*
X39812211Y-165744319D01*
X39922407Y-165710891D01*
X40043140Y-165699000D01*
X41456860Y-165699000D01*
X41577593Y-165710891D01*
G37*
G36*
X46577593Y-165710891D02*
G01*
X46687789Y-165744319D01*
X46789338Y-165798598D01*
X46878351Y-165871649D01*
X46951402Y-165960662D01*
X47005681Y-166062211D01*
X47039109Y-166172407D01*
X47051000Y-166293140D01*
X47051000Y-167706860D01*
X47039109Y-167827593D01*
X47005681Y-167937789D01*
X46951402Y-168039338D01*
X46878351Y-168128351D01*
X46789338Y-168201402D01*
X46687789Y-168255681D01*
X46577593Y-168289109D01*
X46456860Y-168301000D01*
X45043140Y-168301000D01*
X44922407Y-168289109D01*
X44812211Y-168255681D01*
X44710662Y-168201402D01*
X44621649Y-168128351D01*
X44548598Y-168039338D01*
X44494319Y-167937789D01*
X44460891Y-167827593D01*
X44449000Y-167706860D01*
X44449000Y-166293140D01*
X44460891Y-166172407D01*
X44494319Y-166062211D01*
X44548598Y-165960662D01*
X44621649Y-165871649D01*
X44710662Y-165798598D01*
X44812211Y-165744319D01*
X44922407Y-165710891D01*
X45043140Y-165699000D01*
X46456860Y-165699000D01*
X46577593Y-165710891D01*
G37*
G36*
X100938953Y-160793233D02*
G01*
X101156301Y-160836466D01*
X101565775Y-161006076D01*
X101934292Y-161252311D01*
X102247689Y-161565708D01*
X102493924Y-161934225D01*
X102493925Y-161934227D01*
X102663534Y-162343700D01*
X102750000Y-162778393D01*
X102750000Y-163221607D01*
X102707175Y-163436900D01*
X102663534Y-163656301D01*
X102493924Y-164065775D01*
X102247689Y-164434292D01*
X101934292Y-164747689D01*
X101565775Y-164993924D01*
X101156301Y-165163534D01*
X100721607Y-165250000D01*
X100278393Y-165250000D01*
X99843699Y-165163534D01*
X99434225Y-164993924D01*
X99065708Y-164747689D01*
X98752311Y-164434292D01*
X98506076Y-164065775D01*
X98336466Y-163656301D01*
X98292825Y-163436900D01*
X98250000Y-163221607D01*
X98250000Y-162778393D01*
X98336466Y-162343700D01*
X98506075Y-161934227D01*
X98506076Y-161934225D01*
X98752311Y-161565708D01*
X99065708Y-161252311D01*
X99434225Y-161006076D01*
X99843699Y-160836466D01*
X100061047Y-160793233D01*
X100278393Y-160750000D01*
X100721607Y-160750000D01*
X100938953Y-160793233D01*
G37*
G36*
X24938953Y-160793233D02*
G01*
X25156301Y-160836466D01*
X25565775Y-161006076D01*
X25934292Y-161252311D01*
X26247689Y-161565708D01*
X26493924Y-161934225D01*
X26493925Y-161934227D01*
X26663534Y-162343700D01*
X26750000Y-162778393D01*
X26750000Y-163221607D01*
X26707175Y-163436900D01*
X26663534Y-163656301D01*
X26493924Y-164065775D01*
X26247689Y-164434292D01*
X25934292Y-164747689D01*
X25565775Y-164993924D01*
X25156301Y-165163534D01*
X24721607Y-165250000D01*
X24278393Y-165250000D01*
X23843699Y-165163534D01*
X23434225Y-164993924D01*
X23065708Y-164747689D01*
X22752311Y-164434292D01*
X22506076Y-164065775D01*
X22336466Y-163656301D01*
X22292825Y-163436900D01*
X22250000Y-163221607D01*
X22250000Y-162778393D01*
X22336466Y-162343700D01*
X22506075Y-161934227D01*
X22506076Y-161934225D01*
X22752311Y-161565708D01*
X23065708Y-161252311D01*
X23434225Y-161006076D01*
X23843699Y-160836466D01*
X24061047Y-160793233D01*
X24278393Y-160750000D01*
X24721607Y-160750000D01*
X24938953Y-160793233D01*
G37*
G36*
X85363228Y-163021703D02*
G01*
X85518100Y-163085853D01*
X85657481Y-163178985D01*
X85776015Y-163297519D01*
X85869147Y-163436900D01*
X85933297Y-163591772D01*
X85966000Y-163756184D01*
X85966000Y-163923816D01*
X85933297Y-164088228D01*
X85869147Y-164243100D01*
X85776015Y-164382481D01*
X85657481Y-164501015D01*
X85518100Y-164594147D01*
X85363228Y-164658297D01*
X85198816Y-164691000D01*
X85031184Y-164691000D01*
X84866772Y-164658297D01*
X84711900Y-164594147D01*
X84572519Y-164501015D01*
X84453985Y-164382481D01*
X84360853Y-164243100D01*
X84296703Y-164088228D01*
X84264000Y-163923816D01*
X84264000Y-163756184D01*
X84296703Y-163591772D01*
X84360853Y-163436900D01*
X84453985Y-163297519D01*
X84572519Y-163178985D01*
X84711900Y-163085853D01*
X84866772Y-163021703D01*
X85031184Y-162989000D01*
X85198816Y-162989000D01*
X85363228Y-163021703D01*
G37*
G36*
X79823228Y-163021703D02*
G01*
X79978100Y-163085853D01*
X80117481Y-163178985D01*
X80236015Y-163297519D01*
X80329147Y-163436900D01*
X80393297Y-163591772D01*
X80426000Y-163756184D01*
X80426000Y-163923816D01*
X80393297Y-164088228D01*
X80329147Y-164243100D01*
X80236015Y-164382481D01*
X80117481Y-164501015D01*
X79978100Y-164594147D01*
X79823228Y-164658297D01*
X79658816Y-164691000D01*
X79491184Y-164691000D01*
X79326772Y-164658297D01*
X79171900Y-164594147D01*
X79032519Y-164501015D01*
X78913985Y-164382481D01*
X78820853Y-164243100D01*
X78756703Y-164088228D01*
X78724000Y-163923816D01*
X78724000Y-163756184D01*
X78756703Y-163591772D01*
X78820853Y-163436900D01*
X78913985Y-163297519D01*
X79032519Y-163178985D01*
X79171900Y-163085853D01*
X79326772Y-163021703D01*
X79491184Y-162989000D01*
X79658816Y-162989000D01*
X79823228Y-163021703D01*
G37*
G36*
X82593228Y-163021703D02*
G01*
X82748100Y-163085853D01*
X82887481Y-163178985D01*
X83006015Y-163297519D01*
X83099147Y-163436900D01*
X83163297Y-163591772D01*
X83196000Y-163756184D01*
X83196000Y-163923816D01*
X83163297Y-164088228D01*
X83099147Y-164243100D01*
X83006015Y-164382481D01*
X82887481Y-164501015D01*
X82748100Y-164594147D01*
X82593228Y-164658297D01*
X82428816Y-164691000D01*
X82261184Y-164691000D01*
X82096772Y-164658297D01*
X81941900Y-164594147D01*
X81802519Y-164501015D01*
X81683985Y-164382481D01*
X81590853Y-164243100D01*
X81526703Y-164088228D01*
X81494000Y-163923816D01*
X81494000Y-163756184D01*
X81526703Y-163591772D01*
X81590853Y-163436900D01*
X81683985Y-163297519D01*
X81802519Y-163178985D01*
X81941900Y-163085853D01*
X82096772Y-163021703D01*
X82261184Y-162989000D01*
X82428816Y-162989000D01*
X82593228Y-163021703D01*
G37*
G36*
X77053228Y-163021703D02*
G01*
X77208100Y-163085853D01*
X77347481Y-163178985D01*
X77466015Y-163297519D01*
X77559147Y-163436900D01*
X77623297Y-163591772D01*
X77656000Y-163756184D01*
X77656000Y-163923816D01*
X77623297Y-164088228D01*
X77559147Y-164243100D01*
X77466015Y-164382481D01*
X77347481Y-164501015D01*
X77208100Y-164594147D01*
X77053228Y-164658297D01*
X76888816Y-164691000D01*
X76721184Y-164691000D01*
X76556772Y-164658297D01*
X76401900Y-164594147D01*
X76262519Y-164501015D01*
X76143985Y-164382481D01*
X76050853Y-164243100D01*
X75986703Y-164088228D01*
X75954000Y-163923816D01*
X75954000Y-163756184D01*
X75986703Y-163591772D01*
X76050853Y-163436900D01*
X76143985Y-163297519D01*
X76262519Y-163178985D01*
X76401900Y-163085853D01*
X76556772Y-163021703D01*
X76721184Y-162989000D01*
X76888816Y-162989000D01*
X77053228Y-163021703D01*
G37*
G36*
X40053228Y-163021703D02*
G01*
X40208100Y-163085853D01*
X40347481Y-163178985D01*
X40466015Y-163297519D01*
X40559147Y-163436900D01*
X40623297Y-163591772D01*
X40656000Y-163756184D01*
X40656000Y-163923816D01*
X40623297Y-164088228D01*
X40559147Y-164243100D01*
X40466015Y-164382481D01*
X40347481Y-164501015D01*
X40208100Y-164594147D01*
X40053228Y-164658297D01*
X39888816Y-164691000D01*
X39721184Y-164691000D01*
X39556772Y-164658297D01*
X39401900Y-164594147D01*
X39262519Y-164501015D01*
X39143985Y-164382481D01*
X39050853Y-164243100D01*
X38986703Y-164088228D01*
X38954000Y-163923816D01*
X38954000Y-163756184D01*
X38986703Y-163591772D01*
X39050853Y-163436900D01*
X39143985Y-163297519D01*
X39262519Y-163178985D01*
X39401900Y-163085853D01*
X39556772Y-163021703D01*
X39721184Y-162989000D01*
X39888816Y-162989000D01*
X40053228Y-163021703D01*
G37*
G36*
X42823228Y-163021703D02*
G01*
X42978100Y-163085853D01*
X43117481Y-163178985D01*
X43236015Y-163297519D01*
X43329147Y-163436900D01*
X43393297Y-163591772D01*
X43426000Y-163756184D01*
X43426000Y-163923816D01*
X43393297Y-164088228D01*
X43329147Y-164243100D01*
X43236015Y-164382481D01*
X43117481Y-164501015D01*
X42978100Y-164594147D01*
X42823228Y-164658297D01*
X42658816Y-164691000D01*
X42491184Y-164691000D01*
X42326772Y-164658297D01*
X42171900Y-164594147D01*
X42032519Y-164501015D01*
X41913985Y-164382481D01*
X41820853Y-164243100D01*
X41756703Y-164088228D01*
X41724000Y-163923816D01*
X41724000Y-163756184D01*
X41756703Y-163591772D01*
X41820853Y-163436900D01*
X41913985Y-163297519D01*
X42032519Y-163178985D01*
X42171900Y-163085853D01*
X42326772Y-163021703D01*
X42491184Y-162989000D01*
X42658816Y-162989000D01*
X42823228Y-163021703D01*
G37*
G36*
X45593228Y-163021703D02*
G01*
X45748100Y-163085853D01*
X45887481Y-163178985D01*
X46006015Y-163297519D01*
X46099147Y-163436900D01*
X46163297Y-163591772D01*
X46196000Y-163756184D01*
X46196000Y-163923816D01*
X46163297Y-164088228D01*
X46099147Y-164243100D01*
X46006015Y-164382481D01*
X45887481Y-164501015D01*
X45748100Y-164594147D01*
X45593228Y-164658297D01*
X45428816Y-164691000D01*
X45261184Y-164691000D01*
X45096772Y-164658297D01*
X44941900Y-164594147D01*
X44802519Y-164501015D01*
X44683985Y-164382481D01*
X44590853Y-164243100D01*
X44526703Y-164088228D01*
X44494000Y-163923816D01*
X44494000Y-163756184D01*
X44526703Y-163591772D01*
X44590853Y-163436900D01*
X44683985Y-163297519D01*
X44802519Y-163178985D01*
X44941900Y-163085853D01*
X45096772Y-163021703D01*
X45261184Y-162989000D01*
X45428816Y-162989000D01*
X45593228Y-163021703D01*
G37*
G36*
X48363228Y-163021703D02*
G01*
X48518100Y-163085853D01*
X48657481Y-163178985D01*
X48776015Y-163297519D01*
X48869147Y-163436900D01*
X48933297Y-163591772D01*
X48966000Y-163756184D01*
X48966000Y-163923816D01*
X48933297Y-164088228D01*
X48869147Y-164243100D01*
X48776015Y-164382481D01*
X48657481Y-164501015D01*
X48518100Y-164594147D01*
X48363228Y-164658297D01*
X48198816Y-164691000D01*
X48031184Y-164691000D01*
X47866772Y-164658297D01*
X47711900Y-164594147D01*
X47572519Y-164501015D01*
X47453985Y-164382481D01*
X47360853Y-164243100D01*
X47296703Y-164088228D01*
X47264000Y-163923816D01*
X47264000Y-163756184D01*
X47296703Y-163591772D01*
X47360853Y-163436900D01*
X47453985Y-163297519D01*
X47572519Y-163178985D01*
X47711900Y-163085853D01*
X47866772Y-163021703D01*
X48031184Y-162989000D01*
X48198816Y-162989000D01*
X48363228Y-163021703D01*
G37*
G36*
X94058254Y-160447818D02*
G01*
X94418170Y-160596900D01*
X94431513Y-160602427D01*
X94767436Y-160826884D01*
X95053116Y-161112564D01*
X95143765Y-161248229D01*
X95277574Y-161448489D01*
X95432182Y-161821746D01*
X95511000Y-162217993D01*
X95511000Y-162622007D01*
X95432182Y-163018254D01*
X95316506Y-163297520D01*
X95277573Y-163391513D01*
X95053116Y-163727436D01*
X94767436Y-164013116D01*
X94431513Y-164237573D01*
X94431512Y-164237574D01*
X94431511Y-164237574D01*
X94058254Y-164392182D01*
X93662007Y-164471000D01*
X93257993Y-164471000D01*
X92861746Y-164392182D01*
X92488489Y-164237574D01*
X92488488Y-164237574D01*
X92488487Y-164237573D01*
X92152564Y-164013116D01*
X91866884Y-163727436D01*
X91642427Y-163391513D01*
X91603494Y-163297520D01*
X91487818Y-163018254D01*
X91409000Y-162622007D01*
X91409000Y-162217993D01*
X91487818Y-161821746D01*
X91642426Y-161448489D01*
X91776236Y-161248229D01*
X91866884Y-161112564D01*
X92152564Y-160826884D01*
X92488487Y-160602427D01*
X92501830Y-160596900D01*
X92861746Y-160447818D01*
X93257993Y-160369000D01*
X93662007Y-160369000D01*
X94058254Y-160447818D01*
G37*
G36*
X32058254Y-160447818D02*
G01*
X32418170Y-160596900D01*
X32431513Y-160602427D01*
X32767436Y-160826884D01*
X33053116Y-161112564D01*
X33143765Y-161248229D01*
X33277574Y-161448489D01*
X33432182Y-161821746D01*
X33511000Y-162217993D01*
X33511000Y-162622007D01*
X33432182Y-163018254D01*
X33316506Y-163297520D01*
X33277573Y-163391513D01*
X33053116Y-163727436D01*
X32767436Y-164013116D01*
X32431513Y-164237573D01*
X32431512Y-164237574D01*
X32431511Y-164237574D01*
X32058254Y-164392182D01*
X31662007Y-164471000D01*
X31257993Y-164471000D01*
X30861746Y-164392182D01*
X30488489Y-164237574D01*
X30488488Y-164237574D01*
X30488487Y-164237573D01*
X30152564Y-164013116D01*
X29866884Y-163727436D01*
X29642427Y-163391513D01*
X29603494Y-163297520D01*
X29487818Y-163018254D01*
X29409000Y-162622007D01*
X29409000Y-162217993D01*
X29487818Y-161821746D01*
X29642426Y-161448489D01*
X29776236Y-161248229D01*
X29866884Y-161112564D01*
X30152564Y-160826884D01*
X30488487Y-160602427D01*
X30501830Y-160596900D01*
X30861746Y-160447818D01*
X31257993Y-160369000D01*
X31662007Y-160369000D01*
X32058254Y-160447818D01*
G37*
G36*
X69058254Y-160447818D02*
G01*
X69418170Y-160596900D01*
X69431513Y-160602427D01*
X69767436Y-160826884D01*
X70053116Y-161112564D01*
X70143765Y-161248229D01*
X70277574Y-161448489D01*
X70432182Y-161821746D01*
X70511000Y-162217993D01*
X70511000Y-162622007D01*
X70432182Y-163018254D01*
X70316506Y-163297520D01*
X70277573Y-163391513D01*
X70053116Y-163727436D01*
X69767436Y-164013116D01*
X69431513Y-164237573D01*
X69431512Y-164237574D01*
X69431511Y-164237574D01*
X69058254Y-164392182D01*
X68662007Y-164471000D01*
X68257993Y-164471000D01*
X67861746Y-164392182D01*
X67488489Y-164237574D01*
X67488488Y-164237574D01*
X67488487Y-164237573D01*
X67152564Y-164013116D01*
X66866884Y-163727436D01*
X66642427Y-163391513D01*
X66603494Y-163297520D01*
X66487818Y-163018254D01*
X66409000Y-162622007D01*
X66409000Y-162217993D01*
X66487818Y-161821746D01*
X66642426Y-161448489D01*
X66776236Y-161248229D01*
X66866884Y-161112564D01*
X67152564Y-160826884D01*
X67488487Y-160602427D01*
X67501830Y-160596900D01*
X67861746Y-160447818D01*
X68257993Y-160369000D01*
X68662007Y-160369000D01*
X69058254Y-160447818D01*
G37*
G36*
X57058254Y-160447818D02*
G01*
X57418170Y-160596900D01*
X57431513Y-160602427D01*
X57767436Y-160826884D01*
X58053116Y-161112564D01*
X58143765Y-161248229D01*
X58277574Y-161448489D01*
X58432182Y-161821746D01*
X58511000Y-162217993D01*
X58511000Y-162622007D01*
X58432182Y-163018254D01*
X58316506Y-163297520D01*
X58277573Y-163391513D01*
X58053116Y-163727436D01*
X57767436Y-164013116D01*
X57431513Y-164237573D01*
X57431512Y-164237574D01*
X57431511Y-164237574D01*
X57058254Y-164392182D01*
X56662007Y-164471000D01*
X56257993Y-164471000D01*
X55861746Y-164392182D01*
X55488489Y-164237574D01*
X55488488Y-164237574D01*
X55488487Y-164237573D01*
X55152564Y-164013116D01*
X54866884Y-163727436D01*
X54642427Y-163391513D01*
X54603494Y-163297520D01*
X54487818Y-163018254D01*
X54409000Y-162622007D01*
X54409000Y-162217993D01*
X54487818Y-161821746D01*
X54642426Y-161448489D01*
X54776236Y-161248229D01*
X54866884Y-161112564D01*
X55152564Y-160826884D01*
X55488487Y-160602427D01*
X55501830Y-160596900D01*
X55861746Y-160447818D01*
X56257993Y-160369000D01*
X56662007Y-160369000D01*
X57058254Y-160447818D01*
G37*
G36*
X50351000Y-161851000D02*
G01*
X48649000Y-161851000D01*
X48649000Y-160149000D01*
X50351000Y-160149000D01*
X50351000Y-161851000D01*
G37*
G36*
X38668228Y-160181703D02*
G01*
X38823100Y-160245853D01*
X38962481Y-160338985D01*
X39081015Y-160457519D01*
X39174147Y-160596900D01*
X39238297Y-160751772D01*
X39271000Y-160916184D01*
X39271000Y-161083816D01*
X39238297Y-161248228D01*
X39174147Y-161403100D01*
X39081015Y-161542481D01*
X38962481Y-161661015D01*
X38823100Y-161754147D01*
X38668228Y-161818297D01*
X38503816Y-161851000D01*
X38336184Y-161851000D01*
X38171772Y-161818297D01*
X38016900Y-161754147D01*
X37877519Y-161661015D01*
X37758985Y-161542481D01*
X37665853Y-161403100D01*
X37601703Y-161248228D01*
X37569000Y-161083816D01*
X37569000Y-160916184D01*
X37601703Y-160751772D01*
X37665853Y-160596900D01*
X37758985Y-160457519D01*
X37877519Y-160338985D01*
X38016900Y-160245853D01*
X38171772Y-160181703D01*
X38336184Y-160149000D01*
X38503816Y-160149000D01*
X38668228Y-160181703D01*
G37*
G36*
X44208228Y-160181703D02*
G01*
X44363100Y-160245853D01*
X44502481Y-160338985D01*
X44621015Y-160457519D01*
X44714147Y-160596900D01*
X44778297Y-160751772D01*
X44811000Y-160916184D01*
X44811000Y-161083816D01*
X44778297Y-161248228D01*
X44714147Y-161403100D01*
X44621015Y-161542481D01*
X44502481Y-161661015D01*
X44363100Y-161754147D01*
X44208228Y-161818297D01*
X44043816Y-161851000D01*
X43876184Y-161851000D01*
X43711772Y-161818297D01*
X43556900Y-161754147D01*
X43417519Y-161661015D01*
X43298985Y-161542481D01*
X43205853Y-161403100D01*
X43141703Y-161248228D01*
X43109000Y-161083816D01*
X43109000Y-160916184D01*
X43141703Y-160751772D01*
X43205853Y-160596900D01*
X43298985Y-160457519D01*
X43417519Y-160338985D01*
X43556900Y-160245853D01*
X43711772Y-160181703D01*
X43876184Y-160149000D01*
X44043816Y-160149000D01*
X44208228Y-160181703D01*
G37*
G36*
X46978228Y-160181703D02*
G01*
X47133100Y-160245853D01*
X47272481Y-160338985D01*
X47391015Y-160457519D01*
X47484147Y-160596900D01*
X47548297Y-160751772D01*
X47581000Y-160916184D01*
X47581000Y-161083816D01*
X47548297Y-161248228D01*
X47484147Y-161403100D01*
X47391015Y-161542481D01*
X47272481Y-161661015D01*
X47133100Y-161754147D01*
X46978228Y-161818297D01*
X46813816Y-161851000D01*
X46646184Y-161851000D01*
X46481772Y-161818297D01*
X46326900Y-161754147D01*
X46187519Y-161661015D01*
X46068985Y-161542481D01*
X45975853Y-161403100D01*
X45911703Y-161248228D01*
X45879000Y-161083816D01*
X45879000Y-160916184D01*
X45911703Y-160751772D01*
X45975853Y-160596900D01*
X46068985Y-160457519D01*
X46187519Y-160338985D01*
X46326900Y-160245853D01*
X46481772Y-160181703D01*
X46646184Y-160149000D01*
X46813816Y-160149000D01*
X46978228Y-160181703D01*
G37*
G36*
X75668228Y-160181703D02*
G01*
X75823100Y-160245853D01*
X75962481Y-160338985D01*
X76081015Y-160457519D01*
X76174147Y-160596900D01*
X76238297Y-160751772D01*
X76271000Y-160916184D01*
X76271000Y-161083816D01*
X76238297Y-161248228D01*
X76174147Y-161403100D01*
X76081015Y-161542481D01*
X75962481Y-161661015D01*
X75823100Y-161754147D01*
X75668228Y-161818297D01*
X75503816Y-161851000D01*
X75336184Y-161851000D01*
X75171772Y-161818297D01*
X75016900Y-161754147D01*
X74877519Y-161661015D01*
X74758985Y-161542481D01*
X74665853Y-161403100D01*
X74601703Y-161248228D01*
X74569000Y-161083816D01*
X74569000Y-160916184D01*
X74601703Y-160751772D01*
X74665853Y-160596900D01*
X74758985Y-160457519D01*
X74877519Y-160338985D01*
X75016900Y-160245853D01*
X75171772Y-160181703D01*
X75336184Y-160149000D01*
X75503816Y-160149000D01*
X75668228Y-160181703D01*
G37*
G36*
X78438228Y-160181703D02*
G01*
X78593100Y-160245853D01*
X78732481Y-160338985D01*
X78851015Y-160457519D01*
X78944147Y-160596900D01*
X79008297Y-160751772D01*
X79041000Y-160916184D01*
X79041000Y-161083816D01*
X79008297Y-161248228D01*
X78944147Y-161403100D01*
X78851015Y-161542481D01*
X78732481Y-161661015D01*
X78593100Y-161754147D01*
X78438228Y-161818297D01*
X78273816Y-161851000D01*
X78106184Y-161851000D01*
X77941772Y-161818297D01*
X77786900Y-161754147D01*
X77647519Y-161661015D01*
X77528985Y-161542481D01*
X77435853Y-161403100D01*
X77371703Y-161248228D01*
X77339000Y-161083816D01*
X77339000Y-160916184D01*
X77371703Y-160751772D01*
X77435853Y-160596900D01*
X77528985Y-160457519D01*
X77647519Y-160338985D01*
X77786900Y-160245853D01*
X77941772Y-160181703D01*
X78106184Y-160149000D01*
X78273816Y-160149000D01*
X78438228Y-160181703D01*
G37*
G36*
X81208228Y-160181703D02*
G01*
X81363100Y-160245853D01*
X81502481Y-160338985D01*
X81621015Y-160457519D01*
X81714147Y-160596900D01*
X81778297Y-160751772D01*
X81811000Y-160916184D01*
X81811000Y-161083816D01*
X81778297Y-161248228D01*
X81714147Y-161403100D01*
X81621015Y-161542481D01*
X81502481Y-161661015D01*
X81363100Y-161754147D01*
X81208228Y-161818297D01*
X81043816Y-161851000D01*
X80876184Y-161851000D01*
X80711772Y-161818297D01*
X80556900Y-161754147D01*
X80417519Y-161661015D01*
X80298985Y-161542481D01*
X80205853Y-161403100D01*
X80141703Y-161248228D01*
X80109000Y-161083816D01*
X80109000Y-160916184D01*
X80141703Y-160751772D01*
X80205853Y-160596900D01*
X80298985Y-160457519D01*
X80417519Y-160338985D01*
X80556900Y-160245853D01*
X80711772Y-160181703D01*
X80876184Y-160149000D01*
X81043816Y-160149000D01*
X81208228Y-160181703D01*
G37*
G36*
X83978228Y-160181703D02*
G01*
X84133100Y-160245853D01*
X84272481Y-160338985D01*
X84391015Y-160457519D01*
X84484147Y-160596900D01*
X84548297Y-160751772D01*
X84581000Y-160916184D01*
X84581000Y-161083816D01*
X84548297Y-161248228D01*
X84484147Y-161403100D01*
X84391015Y-161542481D01*
X84272481Y-161661015D01*
X84133100Y-161754147D01*
X83978228Y-161818297D01*
X83813816Y-161851000D01*
X83646184Y-161851000D01*
X83481772Y-161818297D01*
X83326900Y-161754147D01*
X83187519Y-161661015D01*
X83068985Y-161542481D01*
X82975853Y-161403100D01*
X82911703Y-161248228D01*
X82879000Y-161083816D01*
X82879000Y-160916184D01*
X82911703Y-160751772D01*
X82975853Y-160596900D01*
X83068985Y-160457519D01*
X83187519Y-160338985D01*
X83326900Y-160245853D01*
X83481772Y-160181703D01*
X83646184Y-160149000D01*
X83813816Y-160149000D01*
X83978228Y-160181703D01*
G37*
G36*
X87351000Y-161851000D02*
G01*
X85649000Y-161851000D01*
X85649000Y-160149000D01*
X87351000Y-160149000D01*
X87351000Y-161851000D01*
G37*
G36*
X41438228Y-160181703D02*
G01*
X41593100Y-160245853D01*
X41732481Y-160338985D01*
X41851015Y-160457519D01*
X41944147Y-160596900D01*
X42008297Y-160751772D01*
X42041000Y-160916184D01*
X42041000Y-161083816D01*
X42008297Y-161248228D01*
X41944147Y-161403100D01*
X41851015Y-161542481D01*
X41732481Y-161661015D01*
X41593100Y-161754147D01*
X41438228Y-161818297D01*
X41273816Y-161851000D01*
X41106184Y-161851000D01*
X40941772Y-161818297D01*
X40786900Y-161754147D01*
X40647519Y-161661015D01*
X40528985Y-161542481D01*
X40435853Y-161403100D01*
X40371703Y-161248228D01*
X40339000Y-161083816D01*
X40339000Y-160916184D01*
X40371703Y-160751772D01*
X40435853Y-160596900D01*
X40528985Y-160457519D01*
X40647519Y-160338985D01*
X40786900Y-160245853D01*
X40941772Y-160181703D01*
X41106184Y-160149000D01*
X41273816Y-160149000D01*
X41438228Y-160181703D01*
G37*
G36*
X32827593Y-154960891D02*
G01*
X32937789Y-154994319D01*
X33039338Y-155048598D01*
X33128351Y-155121649D01*
X33201402Y-155210662D01*
X33255681Y-155312211D01*
X33289109Y-155422407D01*
X33301000Y-155543140D01*
X33301000Y-156956860D01*
X33289109Y-157077593D01*
X33255681Y-157187789D01*
X33201402Y-157289338D01*
X33128351Y-157378351D01*
X33039338Y-157451402D01*
X32937789Y-157505681D01*
X32827593Y-157539109D01*
X32706860Y-157551000D01*
X31293140Y-157551000D01*
X31172407Y-157539109D01*
X31062211Y-157505681D01*
X30960662Y-157451402D01*
X30871649Y-157378351D01*
X30798598Y-157289338D01*
X30744319Y-157187789D01*
X30710891Y-157077593D01*
X30699000Y-156956860D01*
X30699000Y-155543140D01*
X30710891Y-155422407D01*
X30744319Y-155312211D01*
X30798598Y-155210662D01*
X30871649Y-155121649D01*
X30960662Y-155048598D01*
X31062211Y-154994319D01*
X31172407Y-154960891D01*
X31293140Y-154949000D01*
X32706860Y-154949000D01*
X32827593Y-154960891D01*
G37*
G36*
X93827593Y-154960891D02*
G01*
X93937789Y-154994319D01*
X94039338Y-155048598D01*
X94128351Y-155121649D01*
X94201402Y-155210662D01*
X94255681Y-155312211D01*
X94289109Y-155422407D01*
X94301000Y-155543140D01*
X94301000Y-156956860D01*
X94289109Y-157077593D01*
X94255681Y-157187789D01*
X94201402Y-157289338D01*
X94128351Y-157378351D01*
X94039338Y-157451402D01*
X93937789Y-157505681D01*
X93827593Y-157539109D01*
X93706860Y-157551000D01*
X92293140Y-157551000D01*
X92172407Y-157539109D01*
X92062211Y-157505681D01*
X91960662Y-157451402D01*
X91871649Y-157378351D01*
X91798598Y-157289338D01*
X91744319Y-157187789D01*
X91710891Y-157077593D01*
X91699000Y-156956860D01*
X91699000Y-155543140D01*
X91710891Y-155422407D01*
X91744319Y-155312211D01*
X91798598Y-155210662D01*
X91871649Y-155121649D01*
X91960662Y-155048598D01*
X92062211Y-154994319D01*
X92172407Y-154960891D01*
X92293140Y-154949000D01*
X93706860Y-154949000D01*
X93827593Y-154960891D01*
G37*
G36*
X45012199Y-154299954D02*
G01*
X45024450Y-154300556D01*
X45042869Y-154300556D01*
X45065149Y-154302750D01*
X45149233Y-154319476D01*
X45170660Y-154325976D01*
X45249858Y-154358780D01*
X45255303Y-154361691D01*
X45255309Y-154361693D01*
X45264169Y-154366429D01*
X45264173Y-154366432D01*
X45269614Y-154369340D01*
X45340899Y-154416971D01*
X45358204Y-154431172D01*
X45418828Y-154491796D01*
X45433029Y-154509101D01*
X45480660Y-154580386D01*
X45483568Y-154585827D01*
X45483571Y-154585831D01*
X45488307Y-154594691D01*
X45488309Y-154594697D01*
X45491220Y-154600142D01*
X45524024Y-154679340D01*
X45530524Y-154700767D01*
X45547250Y-154784851D01*
X45549444Y-154807131D01*
X45549444Y-154825550D01*
X45550046Y-154837801D01*
X45551852Y-154856139D01*
X45551852Y-155343860D01*
X45550263Y-155359999D01*
X45547348Y-155369608D01*
X45542610Y-155378472D01*
X45536237Y-155386237D01*
X45523794Y-155396448D01*
X45513425Y-155403378D01*
X45496098Y-155420705D01*
X45482485Y-155441080D01*
X45473109Y-155463720D01*
X45468329Y-155487753D01*
X45468330Y-155512257D01*
X45473112Y-155536290D01*
X45482490Y-155558929D01*
X45496105Y-155579302D01*
X45513432Y-155596629D01*
X45523802Y-155603558D01*
X45536237Y-155613763D01*
X45542610Y-155621528D01*
X45547348Y-155630392D01*
X45550263Y-155640001D01*
X45551852Y-155656140D01*
X45551852Y-156143862D01*
X45550046Y-156162199D01*
X45549444Y-156174450D01*
X45549444Y-156192869D01*
X45547250Y-156215149D01*
X45530524Y-156299233D01*
X45524024Y-156320660D01*
X45491220Y-156399858D01*
X45488309Y-156405303D01*
X45488307Y-156405309D01*
X45483571Y-156414169D01*
X45483568Y-156414173D01*
X45480660Y-156419614D01*
X45433029Y-156490899D01*
X45418828Y-156508204D01*
X45358204Y-156568828D01*
X45340899Y-156583029D01*
X45269614Y-156630660D01*
X45264173Y-156633568D01*
X45264169Y-156633571D01*
X45255309Y-156638307D01*
X45255303Y-156638309D01*
X45249858Y-156641220D01*
X45170660Y-156674024D01*
X45149233Y-156680524D01*
X45065149Y-156697250D01*
X45042869Y-156699444D01*
X45024450Y-156699444D01*
X45012199Y-156700046D01*
X44993862Y-156701852D01*
X44506138Y-156701852D01*
X44487801Y-156700046D01*
X44475550Y-156699444D01*
X44457131Y-156699444D01*
X44434851Y-156697250D01*
X44350767Y-156680524D01*
X44329340Y-156674024D01*
X44250142Y-156641220D01*
X44244697Y-156638309D01*
X44244691Y-156638307D01*
X44235831Y-156633571D01*
X44235827Y-156633568D01*
X44230386Y-156630660D01*
X44159101Y-156583029D01*
X44141796Y-156568828D01*
X44081172Y-156508204D01*
X44066971Y-156490899D01*
X44019340Y-156419614D01*
X44016432Y-156414173D01*
X44016429Y-156414169D01*
X44011693Y-156405309D01*
X44011691Y-156405303D01*
X44008780Y-156399858D01*
X43975976Y-156320660D01*
X43969476Y-156299233D01*
X43952750Y-156215149D01*
X43950556Y-156192869D01*
X43950556Y-156174450D01*
X43949954Y-156162199D01*
X43948148Y-156143862D01*
X43948148Y-155656140D01*
X43949737Y-155640001D01*
X43952652Y-155630392D01*
X43957390Y-155621528D01*
X43963763Y-155613763D01*
X43976206Y-155603552D01*
X43986575Y-155596622D01*
X44003902Y-155579295D01*
X44017515Y-155558920D01*
X44026891Y-155536280D01*
X44031671Y-155512247D01*
X44031670Y-155487743D01*
X44026888Y-155463710D01*
X44017510Y-155441071D01*
X44003895Y-155420698D01*
X43986568Y-155403371D01*
X43976198Y-155396442D01*
X43963763Y-155386237D01*
X43957390Y-155378472D01*
X43952652Y-155369608D01*
X43949737Y-155359999D01*
X43948148Y-155343860D01*
X43948148Y-154856139D01*
X43949954Y-154837801D01*
X43950556Y-154825550D01*
X43950556Y-154807131D01*
X43952750Y-154784851D01*
X43969476Y-154700767D01*
X43975976Y-154679340D01*
X44008780Y-154600142D01*
X44011691Y-154594697D01*
X44011693Y-154594691D01*
X44016429Y-154585831D01*
X44016432Y-154585827D01*
X44019340Y-154580386D01*
X44066971Y-154509101D01*
X44081172Y-154491796D01*
X44141796Y-154431172D01*
X44159101Y-154416971D01*
X44230386Y-154369340D01*
X44235827Y-154366432D01*
X44235831Y-154366429D01*
X44244691Y-154361693D01*
X44244697Y-154361691D01*
X44250142Y-154358780D01*
X44329340Y-154325976D01*
X44350767Y-154319476D01*
X44434851Y-154302750D01*
X44457131Y-154300556D01*
X44475550Y-154300556D01*
X44487801Y-154299954D01*
X44506139Y-154298148D01*
X44993861Y-154298148D01*
X45012199Y-154299954D01*
G37*
G36*
X49012199Y-154199954D02*
G01*
X49024450Y-154200556D01*
X49042869Y-154200556D01*
X49065149Y-154202750D01*
X49149233Y-154219476D01*
X49170660Y-154225976D01*
X49249858Y-154258780D01*
X49255303Y-154261691D01*
X49255309Y-154261693D01*
X49264169Y-154266429D01*
X49264173Y-154266432D01*
X49269614Y-154269340D01*
X49340899Y-154316971D01*
X49358204Y-154331172D01*
X49418828Y-154391796D01*
X49433029Y-154409101D01*
X49480660Y-154480386D01*
X49483568Y-154485827D01*
X49483571Y-154485831D01*
X49488307Y-154494691D01*
X49488309Y-154494697D01*
X49491220Y-154500142D01*
X49524024Y-154579340D01*
X49530524Y-154600767D01*
X49547250Y-154684851D01*
X49549444Y-154707131D01*
X49549444Y-154725550D01*
X49550046Y-154737801D01*
X49551852Y-154756139D01*
X49551852Y-155243860D01*
X49550263Y-155259999D01*
X49547348Y-155269608D01*
X49542610Y-155278472D01*
X49536237Y-155286237D01*
X49523794Y-155296448D01*
X49513425Y-155303378D01*
X49496098Y-155320705D01*
X49482485Y-155341080D01*
X49473109Y-155363720D01*
X49468329Y-155387753D01*
X49468330Y-155412257D01*
X49473112Y-155436290D01*
X49482490Y-155458929D01*
X49496105Y-155479302D01*
X49513432Y-155496629D01*
X49523802Y-155503558D01*
X49536237Y-155513763D01*
X49542610Y-155521528D01*
X49547348Y-155530392D01*
X49550263Y-155540001D01*
X49551852Y-155556140D01*
X49551852Y-156043862D01*
X49550046Y-156062199D01*
X49549444Y-156074450D01*
X49549444Y-156092869D01*
X49547250Y-156115149D01*
X49530524Y-156199233D01*
X49524024Y-156220660D01*
X49491220Y-156299858D01*
X49488309Y-156305303D01*
X49488307Y-156305309D01*
X49483571Y-156314169D01*
X49483568Y-156314173D01*
X49480660Y-156319614D01*
X49433029Y-156390899D01*
X49418828Y-156408204D01*
X49358204Y-156468828D01*
X49340899Y-156483029D01*
X49269614Y-156530660D01*
X49264173Y-156533568D01*
X49264169Y-156533571D01*
X49255309Y-156538307D01*
X49255303Y-156538309D01*
X49249858Y-156541220D01*
X49170660Y-156574024D01*
X49149233Y-156580524D01*
X49065149Y-156597250D01*
X49042869Y-156599444D01*
X49024450Y-156599444D01*
X49012199Y-156600046D01*
X48993862Y-156601852D01*
X48506138Y-156601852D01*
X48487801Y-156600046D01*
X48475550Y-156599444D01*
X48457131Y-156599444D01*
X48434851Y-156597250D01*
X48350767Y-156580524D01*
X48329340Y-156574024D01*
X48250142Y-156541220D01*
X48244697Y-156538309D01*
X48244691Y-156538307D01*
X48235831Y-156533571D01*
X48235827Y-156533568D01*
X48230386Y-156530660D01*
X48159101Y-156483029D01*
X48141796Y-156468828D01*
X48081172Y-156408204D01*
X48066971Y-156390899D01*
X48019340Y-156319614D01*
X48016432Y-156314173D01*
X48016429Y-156314169D01*
X48011693Y-156305309D01*
X48011691Y-156305303D01*
X48008780Y-156299858D01*
X47975976Y-156220660D01*
X47969476Y-156199233D01*
X47952750Y-156115149D01*
X47950556Y-156092869D01*
X47950556Y-156074450D01*
X47949954Y-156062199D01*
X47948148Y-156043862D01*
X47948148Y-155556140D01*
X47949737Y-155540001D01*
X47952652Y-155530392D01*
X47957390Y-155521528D01*
X47963763Y-155513763D01*
X47976206Y-155503552D01*
X47986575Y-155496622D01*
X48003902Y-155479295D01*
X48017515Y-155458920D01*
X48026891Y-155436280D01*
X48031671Y-155412247D01*
X48031670Y-155387743D01*
X48026888Y-155363710D01*
X48017510Y-155341071D01*
X48003895Y-155320698D01*
X47986568Y-155303371D01*
X47976198Y-155296442D01*
X47963763Y-155286237D01*
X47957390Y-155278472D01*
X47952652Y-155269608D01*
X47949737Y-155259999D01*
X47948148Y-155243860D01*
X47948148Y-154756139D01*
X47949954Y-154737801D01*
X47950556Y-154725550D01*
X47950556Y-154707131D01*
X47952750Y-154684851D01*
X47969476Y-154600767D01*
X47975976Y-154579340D01*
X48008780Y-154500142D01*
X48011691Y-154494697D01*
X48011693Y-154494691D01*
X48016429Y-154485831D01*
X48016432Y-154485827D01*
X48019340Y-154480386D01*
X48066971Y-154409101D01*
X48081172Y-154391796D01*
X48141796Y-154331172D01*
X48159101Y-154316971D01*
X48230386Y-154269340D01*
X48235827Y-154266432D01*
X48235831Y-154266429D01*
X48244691Y-154261693D01*
X48244697Y-154261691D01*
X48250142Y-154258780D01*
X48329340Y-154225976D01*
X48350767Y-154219476D01*
X48434851Y-154202750D01*
X48457131Y-154200556D01*
X48475550Y-154200556D01*
X48487801Y-154199954D01*
X48506139Y-154198148D01*
X48993861Y-154198148D01*
X49012199Y-154199954D01*
G37*
G36*
X41012199Y-154199954D02*
G01*
X41024450Y-154200556D01*
X41042869Y-154200556D01*
X41065149Y-154202750D01*
X41149233Y-154219476D01*
X41170660Y-154225976D01*
X41249858Y-154258780D01*
X41255303Y-154261691D01*
X41255309Y-154261693D01*
X41264169Y-154266429D01*
X41264173Y-154266432D01*
X41269614Y-154269340D01*
X41340899Y-154316971D01*
X41358204Y-154331172D01*
X41418828Y-154391796D01*
X41433029Y-154409101D01*
X41480660Y-154480386D01*
X41483568Y-154485827D01*
X41483571Y-154485831D01*
X41488307Y-154494691D01*
X41488309Y-154494697D01*
X41491220Y-154500142D01*
X41524024Y-154579340D01*
X41530524Y-154600767D01*
X41547250Y-154684851D01*
X41549444Y-154707131D01*
X41549444Y-154725550D01*
X41550046Y-154737801D01*
X41551852Y-154756139D01*
X41551852Y-155243860D01*
X41550263Y-155259999D01*
X41547348Y-155269608D01*
X41542610Y-155278472D01*
X41536237Y-155286237D01*
X41523794Y-155296448D01*
X41513425Y-155303378D01*
X41496098Y-155320705D01*
X41482485Y-155341080D01*
X41473109Y-155363720D01*
X41468329Y-155387753D01*
X41468330Y-155412257D01*
X41473112Y-155436290D01*
X41482490Y-155458929D01*
X41496105Y-155479302D01*
X41513432Y-155496629D01*
X41523802Y-155503558D01*
X41536237Y-155513763D01*
X41542610Y-155521528D01*
X41547348Y-155530392D01*
X41550263Y-155540001D01*
X41551852Y-155556140D01*
X41551852Y-156043862D01*
X41550046Y-156062199D01*
X41549444Y-156074450D01*
X41549444Y-156092869D01*
X41547250Y-156115149D01*
X41530524Y-156199233D01*
X41524024Y-156220660D01*
X41491220Y-156299858D01*
X41488309Y-156305303D01*
X41488307Y-156305309D01*
X41483571Y-156314169D01*
X41483568Y-156314173D01*
X41480660Y-156319614D01*
X41433029Y-156390899D01*
X41418828Y-156408204D01*
X41358204Y-156468828D01*
X41340899Y-156483029D01*
X41269614Y-156530660D01*
X41264173Y-156533568D01*
X41264169Y-156533571D01*
X41255309Y-156538307D01*
X41255303Y-156538309D01*
X41249858Y-156541220D01*
X41170660Y-156574024D01*
X41149233Y-156580524D01*
X41065149Y-156597250D01*
X41042869Y-156599444D01*
X41024450Y-156599444D01*
X41012199Y-156600046D01*
X40993862Y-156601852D01*
X40506138Y-156601852D01*
X40487801Y-156600046D01*
X40475550Y-156599444D01*
X40457131Y-156599444D01*
X40434851Y-156597250D01*
X40350767Y-156580524D01*
X40329340Y-156574024D01*
X40250142Y-156541220D01*
X40244697Y-156538309D01*
X40244691Y-156538307D01*
X40235831Y-156533571D01*
X40235827Y-156533568D01*
X40230386Y-156530660D01*
X40159101Y-156483029D01*
X40141796Y-156468828D01*
X40081172Y-156408204D01*
X40066971Y-156390899D01*
X40019340Y-156319614D01*
X40016432Y-156314173D01*
X40016429Y-156314169D01*
X40011693Y-156305309D01*
X40011691Y-156305303D01*
X40008780Y-156299858D01*
X39975976Y-156220660D01*
X39969476Y-156199233D01*
X39952750Y-156115149D01*
X39950556Y-156092869D01*
X39950556Y-156074450D01*
X39949954Y-156062199D01*
X39948148Y-156043862D01*
X39948148Y-155556140D01*
X39949737Y-155540001D01*
X39952652Y-155530392D01*
X39957390Y-155521528D01*
X39963763Y-155513763D01*
X39976206Y-155503552D01*
X39986575Y-155496622D01*
X40003902Y-155479295D01*
X40017515Y-155458920D01*
X40026891Y-155436280D01*
X40031671Y-155412247D01*
X40031670Y-155387743D01*
X40026888Y-155363710D01*
X40017510Y-155341071D01*
X40003895Y-155320698D01*
X39986568Y-155303371D01*
X39976198Y-155296442D01*
X39963763Y-155286237D01*
X39957390Y-155278472D01*
X39952652Y-155269608D01*
X39949737Y-155259999D01*
X39948148Y-155243860D01*
X39948148Y-154756139D01*
X39949954Y-154737801D01*
X39950556Y-154725550D01*
X39950556Y-154707131D01*
X39952750Y-154684851D01*
X39969476Y-154600767D01*
X39975976Y-154579340D01*
X40008780Y-154500142D01*
X40011691Y-154494697D01*
X40011693Y-154494691D01*
X40016429Y-154485831D01*
X40016432Y-154485827D01*
X40019340Y-154480386D01*
X40066971Y-154409101D01*
X40081172Y-154391796D01*
X40141796Y-154331172D01*
X40159101Y-154316971D01*
X40230386Y-154269340D01*
X40235827Y-154266432D01*
X40235831Y-154266429D01*
X40244691Y-154261693D01*
X40244697Y-154261691D01*
X40250142Y-154258780D01*
X40329340Y-154225976D01*
X40350767Y-154219476D01*
X40434851Y-154202750D01*
X40457131Y-154200556D01*
X40475550Y-154200556D01*
X40487801Y-154199954D01*
X40506139Y-154198148D01*
X40993861Y-154198148D01*
X41012199Y-154199954D01*
G37*
G36*
X93827593Y-151460891D02*
G01*
X93937789Y-151494319D01*
X94039338Y-151548598D01*
X94128351Y-151621649D01*
X94201402Y-151710662D01*
X94255681Y-151812211D01*
X94289109Y-151922407D01*
X94301000Y-152043140D01*
X94301000Y-153456860D01*
X94289109Y-153577593D01*
X94255681Y-153687789D01*
X94201402Y-153789338D01*
X94128351Y-153878351D01*
X94039338Y-153951402D01*
X93937789Y-154005681D01*
X93827593Y-154039109D01*
X93706860Y-154051000D01*
X92293140Y-154051000D01*
X92172407Y-154039109D01*
X92062211Y-154005681D01*
X91960662Y-153951402D01*
X91871649Y-153878351D01*
X91798598Y-153789338D01*
X91744319Y-153687789D01*
X91710891Y-153577593D01*
X91699000Y-153456860D01*
X91699000Y-152043140D01*
X91710891Y-151922407D01*
X91744319Y-151812211D01*
X91798598Y-151710662D01*
X91871649Y-151621649D01*
X91960662Y-151548598D01*
X92062211Y-151494319D01*
X92172407Y-151460891D01*
X92293140Y-151449000D01*
X93706860Y-151449000D01*
X93827593Y-151460891D01*
G37*
G36*
X32827593Y-151460891D02*
G01*
X32937789Y-151494319D01*
X33039338Y-151548598D01*
X33128351Y-151621649D01*
X33201402Y-151710662D01*
X33255681Y-151812211D01*
X33289109Y-151922407D01*
X33301000Y-152043140D01*
X33301000Y-153456860D01*
X33289109Y-153577593D01*
X33255681Y-153687789D01*
X33201402Y-153789338D01*
X33128351Y-153878351D01*
X33039338Y-153951402D01*
X32937789Y-154005681D01*
X32827593Y-154039109D01*
X32706860Y-154051000D01*
X31293140Y-154051000D01*
X31172407Y-154039109D01*
X31062211Y-154005681D01*
X30960662Y-153951402D01*
X30871649Y-153878351D01*
X30798598Y-153789338D01*
X30744319Y-153687789D01*
X30710891Y-153577593D01*
X30699000Y-153456860D01*
X30699000Y-152043140D01*
X30710891Y-151922407D01*
X30744319Y-151812211D01*
X30798598Y-151710662D01*
X30871649Y-151621649D01*
X30960662Y-151548598D01*
X31062211Y-151494319D01*
X31172407Y-151460891D01*
X31293140Y-151449000D01*
X32706860Y-151449000D01*
X32827593Y-151460891D01*
G37*
G36*
X32827593Y-146460891D02*
G01*
X32937789Y-146494319D01*
X33039338Y-146548598D01*
X33128351Y-146621649D01*
X33201402Y-146710662D01*
X33255681Y-146812211D01*
X33289109Y-146922407D01*
X33301000Y-147043140D01*
X33301000Y-148456860D01*
X33289109Y-148577593D01*
X33255681Y-148687789D01*
X33201402Y-148789338D01*
X33128351Y-148878351D01*
X33039338Y-148951402D01*
X32937789Y-149005681D01*
X32827593Y-149039109D01*
X32706860Y-149051000D01*
X31293140Y-149051000D01*
X31172407Y-149039109D01*
X31062211Y-149005681D01*
X30960662Y-148951402D01*
X30871649Y-148878351D01*
X30798598Y-148789338D01*
X30744319Y-148687789D01*
X30710891Y-148577593D01*
X30699000Y-148456860D01*
X30699000Y-147043140D01*
X30710891Y-146922407D01*
X30744319Y-146812211D01*
X30798598Y-146710662D01*
X30871649Y-146621649D01*
X30960662Y-146548598D01*
X31062211Y-146494319D01*
X31172407Y-146460891D01*
X31293140Y-146449000D01*
X32706860Y-146449000D01*
X32827593Y-146460891D01*
G37*
G36*
X32827593Y-142960891D02*
G01*
X32937789Y-142994319D01*
X33039338Y-143048598D01*
X33128351Y-143121649D01*
X33201402Y-143210662D01*
X33255681Y-143312211D01*
X33289109Y-143422407D01*
X33301000Y-143543140D01*
X33301000Y-144956860D01*
X33289109Y-145077593D01*
X33255681Y-145187789D01*
X33201402Y-145289338D01*
X33128351Y-145378351D01*
X33039338Y-145451402D01*
X32937789Y-145505681D01*
X32827593Y-145539109D01*
X32706860Y-145551000D01*
X31293140Y-145551000D01*
X31172407Y-145539109D01*
X31062211Y-145505681D01*
X30960662Y-145451402D01*
X30871649Y-145378351D01*
X30798598Y-145289338D01*
X30744319Y-145187789D01*
X30710891Y-145077593D01*
X30699000Y-144956860D01*
X30699000Y-143543140D01*
X30710891Y-143422407D01*
X30744319Y-143312211D01*
X30798598Y-143210662D01*
X30871649Y-143121649D01*
X30960662Y-143048598D01*
X31062211Y-142994319D01*
X31172407Y-142960891D01*
X31293140Y-142949000D01*
X32706860Y-142949000D01*
X32827593Y-142960891D01*
G37*
G36*
X101156301Y-135836466D02*
G01*
X101565775Y-136006076D01*
X101934292Y-136252311D01*
X102247689Y-136565708D01*
X102493924Y-136934225D01*
X102663534Y-137343699D01*
X102750000Y-137778394D01*
X102750000Y-138221606D01*
X102663534Y-138656301D01*
X102493924Y-139065775D01*
X102247689Y-139434292D01*
X101934292Y-139747689D01*
X101565775Y-139993924D01*
X101156301Y-140163534D01*
X100938953Y-140206767D01*
X100721607Y-140250000D01*
X100278393Y-140250000D01*
X100061047Y-140206767D01*
X99843699Y-140163534D01*
X99434225Y-139993924D01*
X99065708Y-139747689D01*
X98752311Y-139434292D01*
X98506076Y-139065775D01*
X98336466Y-138656301D01*
X98250000Y-138221606D01*
X98250000Y-137778394D01*
X98336466Y-137343699D01*
X98506076Y-136934225D01*
X98752311Y-136565708D01*
X99065708Y-136252311D01*
X99434225Y-136006076D01*
X99843699Y-135836466D01*
X100278393Y-135750000D01*
X100721607Y-135750000D01*
X101156301Y-135836466D01*
G37*
G36*
X25156301Y-135836466D02*
G01*
X25565775Y-136006076D01*
X25934292Y-136252311D01*
X26247689Y-136565708D01*
X26493924Y-136934225D01*
X26663534Y-137343699D01*
X26750000Y-137778394D01*
X26750000Y-138221606D01*
X26663534Y-138656301D01*
X26493924Y-139065775D01*
X26247689Y-139434292D01*
X25934292Y-139747689D01*
X25565775Y-139993924D01*
X25156301Y-140163534D01*
X24938953Y-140206767D01*
X24721607Y-140250000D01*
X24278393Y-140250000D01*
X24061047Y-140206767D01*
X23843699Y-140163534D01*
X23434225Y-139993924D01*
X23065708Y-139747689D01*
X22752311Y-139434292D01*
X22506076Y-139065775D01*
X22336466Y-138656301D01*
X22250000Y-138221606D01*
X22250000Y-137778394D01*
X22336466Y-137343699D01*
X22506076Y-136934225D01*
X22752311Y-136565708D01*
X23065708Y-136252311D01*
X23434225Y-136006076D01*
X23843699Y-135836466D01*
X24278393Y-135750000D01*
X24721607Y-135750000D01*
X25156301Y-135836466D01*
G37*
M02*
