G04 #@! TF.GenerationSoftware,KiCad,Pcbnew,(5.1.5)-3*
G04 #@! TF.CreationDate,2020-04-27T20:32:12+02:00*
G04 #@! TF.ProjectId,ICHaus,49434861-7573-42e6-9b69-6361645f7063,rev?*
G04 #@! TF.SameCoordinates,Original*
G04 #@! TF.FileFunction,Legend,Top*
G04 #@! TF.FilePolarity,Positive*
%FSLAX46Y46*%
G04 Gerber Fmt 4.6, Leading zero omitted, Abs format (unit mm)*
G04 Created by KiCad (PCBNEW (5.1.5)-3) date 2020-04-27 20:32:12*
%MOMM*%
%LPD*%
G04 APERTURE LIST*
%ADD10C,0.150000*%
%ADD11C,0.120000*%
%ADD12C,0.200000*%
%ADD13C,0.300000*%
G04 APERTURE END LIST*
D10*
X35059523Y-155702380D02*
X34583333Y-155702380D01*
X34535714Y-156178571D01*
X34583333Y-156130952D01*
X34678571Y-156083333D01*
X34916666Y-156083333D01*
X35011904Y-156130952D01*
X35059523Y-156178571D01*
X35107142Y-156273809D01*
X35107142Y-156511904D01*
X35059523Y-156607142D01*
X35011904Y-156654761D01*
X34916666Y-156702380D01*
X34678571Y-156702380D01*
X34583333Y-156654761D01*
X34535714Y-156607142D01*
X35392857Y-155702380D02*
X35726190Y-156702380D01*
X36059523Y-155702380D01*
X34488095Y-152250000D02*
X34392857Y-152202380D01*
X34250000Y-152202380D01*
X34107142Y-152250000D01*
X34011904Y-152345238D01*
X33964285Y-152440476D01*
X33916666Y-152630952D01*
X33916666Y-152773809D01*
X33964285Y-152964285D01*
X34011904Y-153059523D01*
X34107142Y-153154761D01*
X34250000Y-153202380D01*
X34345238Y-153202380D01*
X34488095Y-153154761D01*
X34535714Y-153107142D01*
X34535714Y-152773809D01*
X34345238Y-152773809D01*
X34964285Y-153202380D02*
X34964285Y-152202380D01*
X35535714Y-153202380D01*
X35535714Y-152202380D01*
X36011904Y-153202380D02*
X36011904Y-152202380D01*
X36250000Y-152202380D01*
X36392857Y-152250000D01*
X36488095Y-152345238D01*
X36535714Y-152440476D01*
X36583333Y-152630952D01*
X36583333Y-152773809D01*
X36535714Y-152964285D01*
X36488095Y-153059523D01*
X36392857Y-153154761D01*
X36250000Y-153202380D01*
X36011904Y-153202380D01*
X87916666Y-155702380D02*
X87440476Y-155702380D01*
X87392857Y-156178571D01*
X87440476Y-156130952D01*
X87535714Y-156083333D01*
X87773809Y-156083333D01*
X87869047Y-156130952D01*
X87916666Y-156178571D01*
X87964285Y-156273809D01*
X87964285Y-156511904D01*
X87916666Y-156607142D01*
X87869047Y-156654761D01*
X87773809Y-156702380D01*
X87535714Y-156702380D01*
X87440476Y-156654761D01*
X87392857Y-156607142D01*
X88250000Y-155702380D02*
X88583333Y-156702380D01*
X88916666Y-155702380D01*
X90011904Y-156702380D02*
X90011904Y-155702380D01*
X90488095Y-156702380D02*
X90488095Y-155702380D01*
X91059523Y-156702380D01*
X91059523Y-155702380D01*
X88988095Y-152250000D02*
X88892857Y-152202380D01*
X88750000Y-152202380D01*
X88607142Y-152250000D01*
X88511904Y-152345238D01*
X88464285Y-152440476D01*
X88416666Y-152630952D01*
X88416666Y-152773809D01*
X88464285Y-152964285D01*
X88511904Y-153059523D01*
X88607142Y-153154761D01*
X88750000Y-153202380D01*
X88845238Y-153202380D01*
X88988095Y-153154761D01*
X89035714Y-153107142D01*
X89035714Y-152773809D01*
X88845238Y-152773809D01*
X89464285Y-153202380D02*
X89464285Y-152202380D01*
X90035714Y-153202380D01*
X90035714Y-152202380D01*
X90511904Y-153202380D02*
X90511904Y-152202380D01*
X90750000Y-152202380D01*
X90892857Y-152250000D01*
X90988095Y-152345238D01*
X91035714Y-152440476D01*
X91083333Y-152630952D01*
X91083333Y-152773809D01*
X91035714Y-152964285D01*
X90988095Y-153059523D01*
X90892857Y-153154761D01*
X90750000Y-153202380D01*
X90511904Y-153202380D01*
X86333333Y-131952380D02*
X86333333Y-130952380D01*
X86714285Y-130952380D01*
X86809523Y-131000000D01*
X86857142Y-131047619D01*
X86904761Y-131142857D01*
X86904761Y-131285714D01*
X86857142Y-131380952D01*
X86809523Y-131428571D01*
X86714285Y-131476190D01*
X86333333Y-131476190D01*
X87523809Y-130952380D02*
X87714285Y-130952380D01*
X87809523Y-131000000D01*
X87904761Y-131095238D01*
X87952380Y-131285714D01*
X87952380Y-131619047D01*
X87904761Y-131809523D01*
X87809523Y-131904761D01*
X87714285Y-131952380D01*
X87523809Y-131952380D01*
X87428571Y-131904761D01*
X87333333Y-131809523D01*
X87285714Y-131619047D01*
X87285714Y-131285714D01*
X87333333Y-131095238D01*
X87428571Y-131000000D01*
X87523809Y-130952380D01*
X88238095Y-130952380D02*
X88809523Y-130952380D01*
X88523809Y-131952380D02*
X88523809Y-130952380D01*
X78904761Y-131452380D02*
X78571428Y-130976190D01*
X78333333Y-131452380D02*
X78333333Y-130452380D01*
X78714285Y-130452380D01*
X78809523Y-130500000D01*
X78857142Y-130547619D01*
X78904761Y-130642857D01*
X78904761Y-130785714D01*
X78857142Y-130880952D01*
X78809523Y-130928571D01*
X78714285Y-130976190D01*
X78333333Y-130976190D01*
X79904761Y-131357142D02*
X79857142Y-131404761D01*
X79714285Y-131452380D01*
X79619047Y-131452380D01*
X79476190Y-131404761D01*
X79380952Y-131309523D01*
X79333333Y-131214285D01*
X79285714Y-131023809D01*
X79285714Y-130880952D01*
X79333333Y-130690476D01*
X79380952Y-130595238D01*
X79476190Y-130500000D01*
X79619047Y-130452380D01*
X79714285Y-130452380D01*
X79857142Y-130500000D01*
X79904761Y-130547619D01*
X80809523Y-131452380D02*
X80333333Y-131452380D01*
X80333333Y-130452380D01*
X81142857Y-131452380D02*
X81142857Y-130452380D01*
X81714285Y-131452380D02*
X81285714Y-130880952D01*
X81714285Y-130452380D02*
X81142857Y-131023809D01*
X74654761Y-131452380D02*
X74321428Y-130976190D01*
X74083333Y-131452380D02*
X74083333Y-130452380D01*
X74464285Y-130452380D01*
X74559523Y-130500000D01*
X74607142Y-130547619D01*
X74654761Y-130642857D01*
X74654761Y-130785714D01*
X74607142Y-130880952D01*
X74559523Y-130928571D01*
X74464285Y-130976190D01*
X74083333Y-130976190D01*
X75273809Y-130452380D02*
X75464285Y-130452380D01*
X75559523Y-130500000D01*
X75654761Y-130595238D01*
X75702380Y-130785714D01*
X75702380Y-131119047D01*
X75654761Y-131309523D01*
X75559523Y-131404761D01*
X75464285Y-131452380D01*
X75273809Y-131452380D01*
X75178571Y-131404761D01*
X75083333Y-131309523D01*
X75035714Y-131119047D01*
X75035714Y-130785714D01*
X75083333Y-130595238D01*
X75178571Y-130500000D01*
X75273809Y-130452380D01*
X75988095Y-130452380D02*
X76559523Y-130452380D01*
X76273809Y-131452380D02*
X76273809Y-130452380D01*
X40392857Y-165166666D02*
X40869047Y-165166666D01*
X40297619Y-165452380D02*
X40630952Y-164452380D01*
X40964285Y-165452380D01*
X41297619Y-165071428D02*
X42059523Y-165071428D01*
X45702380Y-164928571D02*
X45845238Y-164976190D01*
X45892857Y-165023809D01*
X45940476Y-165119047D01*
X45940476Y-165261904D01*
X45892857Y-165357142D01*
X45845238Y-165404761D01*
X45750000Y-165452380D01*
X45369047Y-165452380D01*
X45369047Y-164452380D01*
X45702380Y-164452380D01*
X45797619Y-164500000D01*
X45845238Y-164547619D01*
X45892857Y-164642857D01*
X45892857Y-164738095D01*
X45845238Y-164833333D01*
X45797619Y-164880952D01*
X45702380Y-164928571D01*
X45369047Y-164928571D01*
X46369047Y-165071428D02*
X47130952Y-165071428D01*
X46750000Y-165452380D02*
X46750000Y-164690476D01*
X36892857Y-165166666D02*
X37369047Y-165166666D01*
X36797619Y-165452380D02*
X37130952Y-164452380D01*
X37464285Y-165452380D01*
X37797619Y-165071428D02*
X38559523Y-165071428D01*
X38178571Y-165452380D02*
X38178571Y-164690476D01*
X49202380Y-164928571D02*
X49345238Y-164976190D01*
X49392857Y-165023809D01*
X49440476Y-165119047D01*
X49440476Y-165261904D01*
X49392857Y-165357142D01*
X49345238Y-165404761D01*
X49250000Y-165452380D01*
X48869047Y-165452380D01*
X48869047Y-164452380D01*
X49202380Y-164452380D01*
X49297619Y-164500000D01*
X49345238Y-164547619D01*
X49392857Y-164642857D01*
X49392857Y-164738095D01*
X49345238Y-164833333D01*
X49297619Y-164880952D01*
X49202380Y-164928571D01*
X48869047Y-164928571D01*
X49869047Y-165071428D02*
X50630952Y-165071428D01*
X53797619Y-164452380D02*
X54464285Y-164452380D01*
X53797619Y-165452380D01*
X54464285Y-165452380D01*
X54845238Y-165071428D02*
X55607142Y-165071428D01*
X55226190Y-165452380D02*
X55226190Y-164690476D01*
X57297619Y-164452380D02*
X57964285Y-164452380D01*
X57297619Y-165452380D01*
X57964285Y-165452380D01*
X58345238Y-165071428D02*
X59107142Y-165071428D01*
X69892857Y-165166666D02*
X70369047Y-165166666D01*
X69797619Y-165452380D02*
X70130952Y-164452380D01*
X70464285Y-165452380D01*
X70797619Y-165071428D02*
X71559523Y-165071428D01*
X75202380Y-164928571D02*
X75345238Y-164976190D01*
X75392857Y-165023809D01*
X75440476Y-165119047D01*
X75440476Y-165261904D01*
X75392857Y-165357142D01*
X75345238Y-165404761D01*
X75250000Y-165452380D01*
X74869047Y-165452380D01*
X74869047Y-164452380D01*
X75202380Y-164452380D01*
X75297619Y-164500000D01*
X75345238Y-164547619D01*
X75392857Y-164642857D01*
X75392857Y-164738095D01*
X75345238Y-164833333D01*
X75297619Y-164880952D01*
X75202380Y-164928571D01*
X74869047Y-164928571D01*
X75869047Y-165071428D02*
X76630952Y-165071428D01*
X76250000Y-165452380D02*
X76250000Y-164690476D01*
X66392857Y-165166666D02*
X66869047Y-165166666D01*
X66297619Y-165452380D02*
X66630952Y-164452380D01*
X66964285Y-165452380D01*
X67297619Y-165071428D02*
X68059523Y-165071428D01*
X67678571Y-165452380D02*
X67678571Y-164690476D01*
X78702380Y-164928571D02*
X78845238Y-164976190D01*
X78892857Y-165023809D01*
X78940476Y-165119047D01*
X78940476Y-165261904D01*
X78892857Y-165357142D01*
X78845238Y-165404761D01*
X78750000Y-165452380D01*
X78369047Y-165452380D01*
X78369047Y-164452380D01*
X78702380Y-164452380D01*
X78797619Y-164500000D01*
X78845238Y-164547619D01*
X78892857Y-164642857D01*
X78892857Y-164738095D01*
X78845238Y-164833333D01*
X78797619Y-164880952D01*
X78702380Y-164928571D01*
X78369047Y-164928571D01*
X79369047Y-165071428D02*
X80130952Y-165071428D01*
X83297619Y-164452380D02*
X83964285Y-164452380D01*
X83297619Y-165452380D01*
X83964285Y-165452380D01*
X84345238Y-165071428D02*
X85107142Y-165071428D01*
X84726190Y-165452380D02*
X84726190Y-164690476D01*
X86797619Y-164452380D02*
X87464285Y-164452380D01*
X86797619Y-165452380D01*
X87464285Y-165452380D01*
X87845238Y-165071428D02*
X88607142Y-165071428D01*
X87407023Y-146377380D02*
X87073690Y-145901190D01*
X86835595Y-146377380D02*
X86835595Y-145377380D01*
X87216547Y-145377380D01*
X87311785Y-145425000D01*
X87359404Y-145472619D01*
X87407023Y-145567857D01*
X87407023Y-145710714D01*
X87359404Y-145805952D01*
X87311785Y-145853571D01*
X87216547Y-145901190D01*
X86835595Y-145901190D01*
X88026071Y-145377380D02*
X88216547Y-145377380D01*
X88311785Y-145425000D01*
X88407023Y-145520238D01*
X88454642Y-145710714D01*
X88454642Y-146044047D01*
X88407023Y-146234523D01*
X88311785Y-146329761D01*
X88216547Y-146377380D01*
X88026071Y-146377380D01*
X87930833Y-146329761D01*
X87835595Y-146234523D01*
X87787976Y-146044047D01*
X87787976Y-145710714D01*
X87835595Y-145520238D01*
X87930833Y-145425000D01*
X88026071Y-145377380D01*
X88740357Y-145377380D02*
X89311785Y-145377380D01*
X89026071Y-146377380D02*
X89026071Y-145377380D01*
X89645119Y-146282142D02*
X89692738Y-146329761D01*
X89645119Y-146377380D01*
X89597500Y-146329761D01*
X89645119Y-146282142D01*
X89645119Y-146377380D01*
X89645119Y-145758333D02*
X89692738Y-145805952D01*
X89645119Y-145853571D01*
X89597500Y-145805952D01*
X89645119Y-145758333D01*
X89645119Y-145853571D01*
X87264166Y-147979761D02*
X87168928Y-148027380D01*
X86978452Y-148027380D01*
X86883214Y-147979761D01*
X86835595Y-147932142D01*
X86787976Y-147836904D01*
X86787976Y-147551190D01*
X86835595Y-147455952D01*
X86883214Y-147408333D01*
X86978452Y-147360714D01*
X87168928Y-147360714D01*
X87264166Y-147408333D01*
X87692738Y-148027380D02*
X87692738Y-147027380D01*
X88121309Y-148027380D02*
X88121309Y-147503571D01*
X88073690Y-147408333D01*
X87978452Y-147360714D01*
X87835595Y-147360714D01*
X87740357Y-147408333D01*
X87692738Y-147455952D01*
X89026071Y-148027380D02*
X89026071Y-147503571D01*
X88978452Y-147408333D01*
X88883214Y-147360714D01*
X88692738Y-147360714D01*
X88597500Y-147408333D01*
X89026071Y-147979761D02*
X88930833Y-148027380D01*
X88692738Y-148027380D01*
X88597500Y-147979761D01*
X88549880Y-147884523D01*
X88549880Y-147789285D01*
X88597500Y-147694047D01*
X88692738Y-147646428D01*
X88930833Y-147646428D01*
X89026071Y-147598809D01*
X89502261Y-147360714D02*
X89502261Y-148027380D01*
X89502261Y-147455952D02*
X89549880Y-147408333D01*
X89645119Y-147360714D01*
X89787976Y-147360714D01*
X89883214Y-147408333D01*
X89930833Y-147503571D01*
X89930833Y-148027380D01*
X90835595Y-147360714D02*
X90835595Y-148170238D01*
X90787976Y-148265476D01*
X90740357Y-148313095D01*
X90645119Y-148360714D01*
X90502261Y-148360714D01*
X90407023Y-148313095D01*
X90835595Y-147979761D02*
X90740357Y-148027380D01*
X90549880Y-148027380D01*
X90454642Y-147979761D01*
X90407023Y-147932142D01*
X90359404Y-147836904D01*
X90359404Y-147551190D01*
X90407023Y-147455952D01*
X90454642Y-147408333D01*
X90549880Y-147360714D01*
X90740357Y-147360714D01*
X90835595Y-147408333D01*
X91692738Y-147979761D02*
X91597500Y-148027380D01*
X91407023Y-148027380D01*
X91311785Y-147979761D01*
X91264166Y-147884523D01*
X91264166Y-147503571D01*
X91311785Y-147408333D01*
X91407023Y-147360714D01*
X91597500Y-147360714D01*
X91692738Y-147408333D01*
X91740357Y-147503571D01*
X91740357Y-147598809D01*
X91264166Y-147694047D01*
X92883214Y-147741666D02*
X93359404Y-147741666D01*
X92787976Y-148027380D02*
X93121309Y-147027380D01*
X93454642Y-148027380D01*
X94502261Y-146979761D02*
X93645119Y-148265476D01*
X95168928Y-147503571D02*
X95311785Y-147551190D01*
X95359404Y-147598809D01*
X95407023Y-147694047D01*
X95407023Y-147836904D01*
X95359404Y-147932142D01*
X95311785Y-147979761D01*
X95216547Y-148027380D01*
X94835595Y-148027380D01*
X94835595Y-147027380D01*
X95168928Y-147027380D01*
X95264166Y-147075000D01*
X95311785Y-147122619D01*
X95359404Y-147217857D01*
X95359404Y-147313095D01*
X95311785Y-147408333D01*
X95264166Y-147455952D01*
X95168928Y-147503571D01*
X94835595Y-147503571D01*
X96740357Y-148027380D02*
X96645119Y-147979761D01*
X96597500Y-147884523D01*
X96597500Y-147027380D01*
X97502261Y-147979761D02*
X97407023Y-148027380D01*
X97216547Y-148027380D01*
X97121309Y-147979761D01*
X97073690Y-147884523D01*
X97073690Y-147503571D01*
X97121309Y-147408333D01*
X97216547Y-147360714D01*
X97407023Y-147360714D01*
X97502261Y-147408333D01*
X97549880Y-147503571D01*
X97549880Y-147598809D01*
X97073690Y-147694047D01*
X98407023Y-148027380D02*
X98407023Y-147503571D01*
X98359404Y-147408333D01*
X98264166Y-147360714D01*
X98073690Y-147360714D01*
X97978452Y-147408333D01*
X98407023Y-147979761D02*
X98311785Y-148027380D01*
X98073690Y-148027380D01*
X97978452Y-147979761D01*
X97930833Y-147884523D01*
X97930833Y-147789285D01*
X97978452Y-147694047D01*
X98073690Y-147646428D01*
X98311785Y-147646428D01*
X98407023Y-147598809D01*
X99311785Y-148027380D02*
X99311785Y-147027380D01*
X99311785Y-147979761D02*
X99216547Y-148027380D01*
X99026071Y-148027380D01*
X98930833Y-147979761D01*
X98883214Y-147932142D01*
X98835595Y-147836904D01*
X98835595Y-147551190D01*
X98883214Y-147455952D01*
X98930833Y-147408333D01*
X99026071Y-147360714D01*
X99216547Y-147360714D01*
X99311785Y-147408333D01*
X99787976Y-148027380D02*
X99787976Y-147360714D01*
X99787976Y-147027380D02*
X99740357Y-147075000D01*
X99787976Y-147122619D01*
X99835595Y-147075000D01*
X99787976Y-147027380D01*
X99787976Y-147122619D01*
X100264166Y-147360714D02*
X100264166Y-148027380D01*
X100264166Y-147455952D02*
X100311785Y-147408333D01*
X100407023Y-147360714D01*
X100549880Y-147360714D01*
X100645119Y-147408333D01*
X100692738Y-147503571D01*
X100692738Y-148027380D01*
X101597500Y-147360714D02*
X101597500Y-148170238D01*
X101549880Y-148265476D01*
X101502261Y-148313095D01*
X101407023Y-148360714D01*
X101264166Y-148360714D01*
X101168928Y-148313095D01*
X101597500Y-147979761D02*
X101502261Y-148027380D01*
X101311785Y-148027380D01*
X101216547Y-147979761D01*
X101168928Y-147932142D01*
X101121309Y-147836904D01*
X101121309Y-147551190D01*
X101168928Y-147455952D01*
X101216547Y-147408333D01*
X101311785Y-147360714D01*
X101502261Y-147360714D01*
X101597500Y-147408333D01*
X83692738Y-140052380D02*
X84264166Y-140052380D01*
X83978452Y-141052380D02*
X83978452Y-140052380D01*
X84740357Y-141052380D02*
X84645119Y-141004761D01*
X84597500Y-140957142D01*
X84549880Y-140861904D01*
X84549880Y-140576190D01*
X84597500Y-140480952D01*
X84645119Y-140433333D01*
X84740357Y-140385714D01*
X84883214Y-140385714D01*
X84978452Y-140433333D01*
X85026071Y-140480952D01*
X85073690Y-140576190D01*
X85073690Y-140861904D01*
X85026071Y-140957142D01*
X84978452Y-141004761D01*
X84883214Y-141052380D01*
X84740357Y-141052380D01*
X86121309Y-140385714D02*
X86502261Y-140385714D01*
X86264166Y-140052380D02*
X86264166Y-140909523D01*
X86311785Y-141004761D01*
X86407023Y-141052380D01*
X86502261Y-141052380D01*
X87264166Y-140385714D02*
X87264166Y-141052380D01*
X86835595Y-140385714D02*
X86835595Y-140909523D01*
X86883214Y-141004761D01*
X86978452Y-141052380D01*
X87121309Y-141052380D01*
X87216547Y-141004761D01*
X87264166Y-140957142D01*
X87740357Y-140385714D02*
X87740357Y-141052380D01*
X87740357Y-140480952D02*
X87787976Y-140433333D01*
X87883214Y-140385714D01*
X88026071Y-140385714D01*
X88121309Y-140433333D01*
X88168928Y-140528571D01*
X88168928Y-141052380D01*
X89026071Y-141004761D02*
X88930833Y-141052380D01*
X88740357Y-141052380D01*
X88645119Y-141004761D01*
X88597500Y-140909523D01*
X88597500Y-140528571D01*
X88645119Y-140433333D01*
X88740357Y-140385714D01*
X88930833Y-140385714D01*
X89026071Y-140433333D01*
X89073690Y-140528571D01*
X89073690Y-140623809D01*
X88597500Y-140719047D01*
X90264166Y-141052380D02*
X90264166Y-140385714D01*
X90264166Y-140480952D02*
X90311785Y-140433333D01*
X90407023Y-140385714D01*
X90549880Y-140385714D01*
X90645119Y-140433333D01*
X90692738Y-140528571D01*
X90692738Y-141052380D01*
X90692738Y-140528571D02*
X90740357Y-140433333D01*
X90835595Y-140385714D01*
X90978452Y-140385714D01*
X91073690Y-140433333D01*
X91121309Y-140528571D01*
X91121309Y-141052380D01*
X91597500Y-141052380D02*
X91597500Y-140385714D01*
X91597500Y-140052380D02*
X91549880Y-140100000D01*
X91597500Y-140147619D01*
X91645119Y-140100000D01*
X91597500Y-140052380D01*
X91597500Y-140147619D01*
X92073690Y-140385714D02*
X92073690Y-141052380D01*
X92073690Y-140480952D02*
X92121309Y-140433333D01*
X92216547Y-140385714D01*
X92359404Y-140385714D01*
X92454642Y-140433333D01*
X92502261Y-140528571D01*
X92502261Y-141052380D01*
X92978452Y-140957142D02*
X93026071Y-141004761D01*
X92978452Y-141052380D01*
X92930833Y-141004761D01*
X92978452Y-140957142D01*
X92978452Y-141052380D01*
X83692738Y-142035714D02*
X84073690Y-142035714D01*
X83835595Y-141702380D02*
X83835595Y-142559523D01*
X83883214Y-142654761D01*
X83978452Y-142702380D01*
X84073690Y-142702380D01*
X84407023Y-142702380D02*
X84407023Y-142035714D01*
X84407023Y-142226190D02*
X84454642Y-142130952D01*
X84502261Y-142083333D01*
X84597500Y-142035714D01*
X84692738Y-142035714D01*
X85454642Y-142702380D02*
X85454642Y-142178571D01*
X85407023Y-142083333D01*
X85311785Y-142035714D01*
X85121309Y-142035714D01*
X85026071Y-142083333D01*
X85454642Y-142654761D02*
X85359404Y-142702380D01*
X85121309Y-142702380D01*
X85026071Y-142654761D01*
X84978452Y-142559523D01*
X84978452Y-142464285D01*
X85026071Y-142369047D01*
X85121309Y-142321428D01*
X85359404Y-142321428D01*
X85454642Y-142273809D01*
X85930833Y-142035714D02*
X85930833Y-142702380D01*
X85930833Y-142130952D02*
X85978452Y-142083333D01*
X86073690Y-142035714D01*
X86216547Y-142035714D01*
X86311785Y-142083333D01*
X86359404Y-142178571D01*
X86359404Y-142702380D01*
X86787976Y-142654761D02*
X86883214Y-142702380D01*
X87073690Y-142702380D01*
X87168928Y-142654761D01*
X87216547Y-142559523D01*
X87216547Y-142511904D01*
X87168928Y-142416666D01*
X87073690Y-142369047D01*
X86930833Y-142369047D01*
X86835595Y-142321428D01*
X86787976Y-142226190D01*
X86787976Y-142178571D01*
X86835595Y-142083333D01*
X86930833Y-142035714D01*
X87073690Y-142035714D01*
X87168928Y-142083333D01*
X87645119Y-142702380D02*
X87645119Y-142035714D01*
X87645119Y-141702380D02*
X87597500Y-141750000D01*
X87645119Y-141797619D01*
X87692738Y-141750000D01*
X87645119Y-141702380D01*
X87645119Y-141797619D01*
X87978452Y-142035714D02*
X88359404Y-142035714D01*
X88121309Y-141702380D02*
X88121309Y-142559523D01*
X88168928Y-142654761D01*
X88264166Y-142702380D01*
X88359404Y-142702380D01*
X88692738Y-142702380D02*
X88692738Y-142035714D01*
X88692738Y-141702380D02*
X88645119Y-141750000D01*
X88692738Y-141797619D01*
X88740357Y-141750000D01*
X88692738Y-141702380D01*
X88692738Y-141797619D01*
X89311785Y-142702380D02*
X89216547Y-142654761D01*
X89168928Y-142607142D01*
X89121309Y-142511904D01*
X89121309Y-142226190D01*
X89168928Y-142130952D01*
X89216547Y-142083333D01*
X89311785Y-142035714D01*
X89454642Y-142035714D01*
X89549880Y-142083333D01*
X89597500Y-142130952D01*
X89645119Y-142226190D01*
X89645119Y-142511904D01*
X89597500Y-142607142D01*
X89549880Y-142654761D01*
X89454642Y-142702380D01*
X89311785Y-142702380D01*
X90073690Y-142035714D02*
X90073690Y-142702380D01*
X90073690Y-142130952D02*
X90121309Y-142083333D01*
X90216547Y-142035714D01*
X90359404Y-142035714D01*
X90454642Y-142083333D01*
X90502261Y-142178571D01*
X90502261Y-142702380D01*
X92168928Y-142702380D02*
X92168928Y-141702380D01*
X92168928Y-142654761D02*
X92073690Y-142702380D01*
X91883214Y-142702380D01*
X91787976Y-142654761D01*
X91740357Y-142607142D01*
X91692738Y-142511904D01*
X91692738Y-142226190D01*
X91740357Y-142130952D01*
X91787976Y-142083333D01*
X91883214Y-142035714D01*
X92073690Y-142035714D01*
X92168928Y-142083333D01*
X92645119Y-142702380D02*
X92645119Y-142035714D01*
X92645119Y-141702380D02*
X92597500Y-141750000D01*
X92645119Y-141797619D01*
X92692738Y-141750000D01*
X92645119Y-141702380D01*
X92645119Y-141797619D01*
X93073690Y-142654761D02*
X93168928Y-142702380D01*
X93359404Y-142702380D01*
X93454642Y-142654761D01*
X93502261Y-142559523D01*
X93502261Y-142511904D01*
X93454642Y-142416666D01*
X93359404Y-142369047D01*
X93216547Y-142369047D01*
X93121309Y-142321428D01*
X93073690Y-142226190D01*
X93073690Y-142178571D01*
X93121309Y-142083333D01*
X93216547Y-142035714D01*
X93359404Y-142035714D01*
X93454642Y-142083333D01*
X93787976Y-142035714D02*
X94168928Y-142035714D01*
X93930833Y-141702380D02*
X93930833Y-142559523D01*
X93978452Y-142654761D01*
X94073690Y-142702380D01*
X94168928Y-142702380D01*
X94930833Y-142702380D02*
X94930833Y-142178571D01*
X94883214Y-142083333D01*
X94787976Y-142035714D01*
X94597500Y-142035714D01*
X94502261Y-142083333D01*
X94930833Y-142654761D02*
X94835595Y-142702380D01*
X94597500Y-142702380D01*
X94502261Y-142654761D01*
X94454642Y-142559523D01*
X94454642Y-142464285D01*
X94502261Y-142369047D01*
X94597500Y-142321428D01*
X94835595Y-142321428D01*
X94930833Y-142273809D01*
X95407023Y-142035714D02*
X95407023Y-142702380D01*
X95407023Y-142130952D02*
X95454642Y-142083333D01*
X95549880Y-142035714D01*
X95692738Y-142035714D01*
X95787976Y-142083333D01*
X95835595Y-142178571D01*
X95835595Y-142702380D01*
X96740357Y-142654761D02*
X96645119Y-142702380D01*
X96454642Y-142702380D01*
X96359404Y-142654761D01*
X96311785Y-142607142D01*
X96264166Y-142511904D01*
X96264166Y-142226190D01*
X96311785Y-142130952D01*
X96359404Y-142083333D01*
X96454642Y-142035714D01*
X96645119Y-142035714D01*
X96740357Y-142083333D01*
X97549880Y-142654761D02*
X97454642Y-142702380D01*
X97264166Y-142702380D01*
X97168928Y-142654761D01*
X97121309Y-142559523D01*
X97121309Y-142178571D01*
X97168928Y-142083333D01*
X97264166Y-142035714D01*
X97454642Y-142035714D01*
X97549880Y-142083333D01*
X97597500Y-142178571D01*
X97597500Y-142273809D01*
X97121309Y-142369047D01*
X98026071Y-142607142D02*
X98073690Y-142654761D01*
X98026071Y-142702380D01*
X97978452Y-142654761D01*
X98026071Y-142607142D01*
X98026071Y-142702380D01*
X98026071Y-142083333D02*
X98073690Y-142130952D01*
X98026071Y-142178571D01*
X97978452Y-142130952D01*
X98026071Y-142083333D01*
X98026071Y-142178571D01*
X99264166Y-142702380D02*
X99264166Y-141702380D01*
X99264166Y-142083333D02*
X99359404Y-142035714D01*
X99549880Y-142035714D01*
X99645119Y-142083333D01*
X99692738Y-142130952D01*
X99740357Y-142226190D01*
X99740357Y-142511904D01*
X99692738Y-142607142D01*
X99645119Y-142654761D01*
X99549880Y-142702380D01*
X99359404Y-142702380D01*
X99264166Y-142654761D01*
X100168928Y-142702380D02*
X100168928Y-142035714D01*
X100168928Y-142226190D02*
X100216547Y-142130952D01*
X100264166Y-142083333D01*
X100359404Y-142035714D01*
X100454642Y-142035714D01*
X100787976Y-142702380D02*
X100787976Y-142035714D01*
X100787976Y-141702380D02*
X100740357Y-141750000D01*
X100787976Y-141797619D01*
X100835595Y-141750000D01*
X100787976Y-141702380D01*
X100787976Y-141797619D01*
X101692738Y-142702380D02*
X101692738Y-141702380D01*
X101692738Y-142654761D02*
X101597500Y-142702380D01*
X101407023Y-142702380D01*
X101311785Y-142654761D01*
X101264166Y-142607142D01*
X101216547Y-142511904D01*
X101216547Y-142226190D01*
X101264166Y-142130952D01*
X101311785Y-142083333D01*
X101407023Y-142035714D01*
X101597500Y-142035714D01*
X101692738Y-142083333D01*
X102597500Y-142035714D02*
X102597500Y-142845238D01*
X102549880Y-142940476D01*
X102502261Y-142988095D01*
X102407023Y-143035714D01*
X102264166Y-143035714D01*
X102168928Y-142988095D01*
X102597500Y-142654761D02*
X102502261Y-142702380D01*
X102311785Y-142702380D01*
X102216547Y-142654761D01*
X102168928Y-142607142D01*
X102121309Y-142511904D01*
X102121309Y-142226190D01*
X102168928Y-142130952D01*
X102216547Y-142083333D01*
X102311785Y-142035714D01*
X102502261Y-142035714D01*
X102597500Y-142083333D01*
X103454642Y-142654761D02*
X103359404Y-142702380D01*
X103168928Y-142702380D01*
X103073690Y-142654761D01*
X103026071Y-142559523D01*
X103026071Y-142178571D01*
X103073690Y-142083333D01*
X103168928Y-142035714D01*
X103359404Y-142035714D01*
X103454642Y-142083333D01*
X103502261Y-142178571D01*
X103502261Y-142273809D01*
X103026071Y-142369047D01*
X84407023Y-144352380D02*
X84073690Y-143876190D01*
X83835595Y-144352380D02*
X83835595Y-143352380D01*
X84216547Y-143352380D01*
X84311785Y-143400000D01*
X84359404Y-143447619D01*
X84407023Y-143542857D01*
X84407023Y-143685714D01*
X84359404Y-143780952D01*
X84311785Y-143828571D01*
X84216547Y-143876190D01*
X83835595Y-143876190D01*
X85407023Y-144257142D02*
X85359404Y-144304761D01*
X85216547Y-144352380D01*
X85121309Y-144352380D01*
X84978452Y-144304761D01*
X84883214Y-144209523D01*
X84835595Y-144114285D01*
X84787976Y-143923809D01*
X84787976Y-143780952D01*
X84835595Y-143590476D01*
X84883214Y-143495238D01*
X84978452Y-143400000D01*
X85121309Y-143352380D01*
X85216547Y-143352380D01*
X85359404Y-143400000D01*
X85407023Y-143447619D01*
X86311785Y-144352380D02*
X85835595Y-144352380D01*
X85835595Y-143352380D01*
X86645119Y-144352380D02*
X86645119Y-143352380D01*
X87216547Y-144352380D02*
X86787976Y-143780952D01*
X87216547Y-143352380D02*
X86645119Y-143923809D01*
X88264166Y-143685714D02*
X88645119Y-143685714D01*
X88407023Y-143352380D02*
X88407023Y-144209523D01*
X88454642Y-144304761D01*
X88549880Y-144352380D01*
X88645119Y-144352380D01*
X89121309Y-144352380D02*
X89026071Y-144304761D01*
X88978452Y-144257142D01*
X88930833Y-144161904D01*
X88930833Y-143876190D01*
X88978452Y-143780952D01*
X89026071Y-143733333D01*
X89121309Y-143685714D01*
X89264166Y-143685714D01*
X89359404Y-143733333D01*
X89407023Y-143780952D01*
X89454642Y-143876190D01*
X89454642Y-144161904D01*
X89407023Y-144257142D01*
X89359404Y-144304761D01*
X89264166Y-144352380D01*
X89121309Y-144352380D01*
X90645119Y-144352380D02*
X90645119Y-143352380D01*
X91026071Y-143352380D01*
X91121309Y-143400000D01*
X91168928Y-143447619D01*
X91216547Y-143542857D01*
X91216547Y-143685714D01*
X91168928Y-143780952D01*
X91121309Y-143828571D01*
X91026071Y-143876190D01*
X90645119Y-143876190D01*
X91835595Y-143352380D02*
X92026071Y-143352380D01*
X92121309Y-143400000D01*
X92216547Y-143495238D01*
X92264166Y-143685714D01*
X92264166Y-144019047D01*
X92216547Y-144209523D01*
X92121309Y-144304761D01*
X92026071Y-144352380D01*
X91835595Y-144352380D01*
X91740357Y-144304761D01*
X91645119Y-144209523D01*
X91597500Y-144019047D01*
X91597500Y-143685714D01*
X91645119Y-143495238D01*
X91740357Y-143400000D01*
X91835595Y-143352380D01*
X92549880Y-143352380D02*
X93121309Y-143352380D01*
X92835595Y-144352380D02*
X92835595Y-143352380D01*
X23154761Y-148047619D02*
X23202380Y-147952380D01*
X23202380Y-147761904D01*
X23154761Y-147666666D01*
X23059523Y-147619047D01*
X23011904Y-147619047D01*
X22916666Y-147666666D01*
X22869047Y-147761904D01*
X22869047Y-147904761D01*
X22821428Y-148000000D01*
X22726190Y-148047619D01*
X22678571Y-148047619D01*
X22583333Y-148000000D01*
X22535714Y-147904761D01*
X22535714Y-147761904D01*
X22583333Y-147666666D01*
X23202380Y-147190476D02*
X22202380Y-147190476D01*
X23202380Y-146761904D02*
X22678571Y-146761904D01*
X22583333Y-146809523D01*
X22535714Y-146904761D01*
X22535714Y-147047619D01*
X22583333Y-147142857D01*
X22630952Y-147190476D01*
X23202380Y-146285714D02*
X22535714Y-146285714D01*
X22202380Y-146285714D02*
X22250000Y-146333333D01*
X22297619Y-146285714D01*
X22250000Y-146238095D01*
X22202380Y-146285714D01*
X22297619Y-146285714D01*
X23154761Y-145428571D02*
X23202380Y-145523809D01*
X23202380Y-145714285D01*
X23154761Y-145809523D01*
X23059523Y-145857142D01*
X22678571Y-145857142D01*
X22583333Y-145809523D01*
X22535714Y-145714285D01*
X22535714Y-145523809D01*
X22583333Y-145428571D01*
X22678571Y-145380952D01*
X22773809Y-145380952D01*
X22869047Y-145857142D01*
X23202380Y-144809523D02*
X23154761Y-144904761D01*
X23059523Y-144952380D01*
X22202380Y-144952380D01*
X23202380Y-144000000D02*
X22202380Y-144000000D01*
X23154761Y-144000000D02*
X23202380Y-144095238D01*
X23202380Y-144285714D01*
X23154761Y-144380952D01*
X23107142Y-144428571D01*
X23011904Y-144476190D01*
X22726190Y-144476190D01*
X22630952Y-144428571D01*
X22583333Y-144380952D01*
X22535714Y-144285714D01*
X22535714Y-144095238D01*
X22583333Y-144000000D01*
X21488095Y-152250000D02*
X21392857Y-152202380D01*
X21250000Y-152202380D01*
X21107142Y-152250000D01*
X21011904Y-152345238D01*
X20964285Y-152440476D01*
X20916666Y-152630952D01*
X20916666Y-152773809D01*
X20964285Y-152964285D01*
X21011904Y-153059523D01*
X21107142Y-153154761D01*
X21250000Y-153202380D01*
X21345238Y-153202380D01*
X21488095Y-153154761D01*
X21535714Y-153107142D01*
X21535714Y-152773809D01*
X21345238Y-152773809D01*
X21964285Y-153202380D02*
X21964285Y-152202380D01*
X22535714Y-153202380D01*
X22535714Y-152202380D01*
X23011904Y-153202380D02*
X23011904Y-152202380D01*
X23250000Y-152202380D01*
X23392857Y-152250000D01*
X23488095Y-152345238D01*
X23535714Y-152440476D01*
X23583333Y-152630952D01*
X23583333Y-152773809D01*
X23535714Y-152964285D01*
X23488095Y-153059523D01*
X23392857Y-153154761D01*
X23250000Y-153202380D01*
X23011904Y-153202380D01*
X22309523Y-155702380D02*
X21833333Y-155702380D01*
X21785714Y-156178571D01*
X21833333Y-156130952D01*
X21928571Y-156083333D01*
X22166666Y-156083333D01*
X22261904Y-156130952D01*
X22309523Y-156178571D01*
X22357142Y-156273809D01*
X22357142Y-156511904D01*
X22309523Y-156607142D01*
X22261904Y-156654761D01*
X22166666Y-156702380D01*
X21928571Y-156702380D01*
X21833333Y-156654761D01*
X21785714Y-156607142D01*
X22642857Y-155702380D02*
X22976190Y-156702380D01*
X23309523Y-155702380D01*
X101666666Y-155702380D02*
X101190476Y-155702380D01*
X101142857Y-156178571D01*
X101190476Y-156130952D01*
X101285714Y-156083333D01*
X101523809Y-156083333D01*
X101619047Y-156130952D01*
X101666666Y-156178571D01*
X101714285Y-156273809D01*
X101714285Y-156511904D01*
X101666666Y-156607142D01*
X101619047Y-156654761D01*
X101523809Y-156702380D01*
X101285714Y-156702380D01*
X101190476Y-156654761D01*
X101142857Y-156607142D01*
X102000000Y-155702380D02*
X102333333Y-156702380D01*
X102666666Y-155702380D01*
X103761904Y-156702380D02*
X103761904Y-155702380D01*
X104238095Y-156702380D02*
X104238095Y-155702380D01*
X104809523Y-156702380D01*
X104809523Y-155702380D01*
X101988095Y-152000000D02*
X101892857Y-151952380D01*
X101750000Y-151952380D01*
X101607142Y-152000000D01*
X101511904Y-152095238D01*
X101464285Y-152190476D01*
X101416666Y-152380952D01*
X101416666Y-152523809D01*
X101464285Y-152714285D01*
X101511904Y-152809523D01*
X101607142Y-152904761D01*
X101750000Y-152952380D01*
X101845238Y-152952380D01*
X101988095Y-152904761D01*
X102035714Y-152857142D01*
X102035714Y-152523809D01*
X101845238Y-152523809D01*
X102464285Y-152952380D02*
X102464285Y-151952380D01*
X103035714Y-152952380D01*
X103035714Y-151952380D01*
X103511904Y-152952380D02*
X103511904Y-151952380D01*
X103750000Y-151952380D01*
X103892857Y-152000000D01*
X103988095Y-152095238D01*
X104035714Y-152190476D01*
X104083333Y-152380952D01*
X104083333Y-152523809D01*
X104035714Y-152714285D01*
X103988095Y-152809523D01*
X103892857Y-152904761D01*
X103750000Y-152952380D01*
X103511904Y-152952380D01*
X27404761Y-174250000D02*
X27452380Y-174107142D01*
X27452380Y-173869047D01*
X27404761Y-173773809D01*
X27357142Y-173726190D01*
X27261904Y-173678571D01*
X27166666Y-173678571D01*
X27071428Y-173726190D01*
X27023809Y-173773809D01*
X26976190Y-173869047D01*
X26928571Y-174059523D01*
X26880952Y-174154761D01*
X26833333Y-174202380D01*
X26738095Y-174250000D01*
X26642857Y-174250000D01*
X26547619Y-174202380D01*
X26500000Y-174154761D01*
X26452380Y-174059523D01*
X26452380Y-173821428D01*
X26500000Y-173678571D01*
X27452380Y-173250000D02*
X26785714Y-173250000D01*
X26452380Y-173250000D02*
X26500000Y-173297619D01*
X26547619Y-173250000D01*
X26500000Y-173202380D01*
X26452380Y-173250000D01*
X26547619Y-173250000D01*
X26785714Y-172773809D02*
X27452380Y-172773809D01*
X26880952Y-172773809D02*
X26833333Y-172726190D01*
X26785714Y-172630952D01*
X26785714Y-172488095D01*
X26833333Y-172392857D01*
X26928571Y-172345238D01*
X27452380Y-172345238D01*
X26404761Y-171154761D02*
X27690476Y-172011904D01*
X27357142Y-170250000D02*
X27404761Y-170297619D01*
X27452380Y-170440476D01*
X27452380Y-170535714D01*
X27404761Y-170678571D01*
X27309523Y-170773809D01*
X27214285Y-170821428D01*
X27023809Y-170869047D01*
X26880952Y-170869047D01*
X26690476Y-170821428D01*
X26595238Y-170773809D01*
X26500000Y-170678571D01*
X26452380Y-170535714D01*
X26452380Y-170440476D01*
X26500000Y-170297619D01*
X26547619Y-170250000D01*
X27452380Y-169678571D02*
X27404761Y-169773809D01*
X27357142Y-169821428D01*
X27261904Y-169869047D01*
X26976190Y-169869047D01*
X26880952Y-169821428D01*
X26833333Y-169773809D01*
X26785714Y-169678571D01*
X26785714Y-169535714D01*
X26833333Y-169440476D01*
X26880952Y-169392857D01*
X26976190Y-169345238D01*
X27261904Y-169345238D01*
X27357142Y-169392857D01*
X27404761Y-169440476D01*
X27452380Y-169535714D01*
X27452380Y-169678571D01*
X27404761Y-168964285D02*
X27452380Y-168869047D01*
X27452380Y-168678571D01*
X27404761Y-168583333D01*
X27309523Y-168535714D01*
X27261904Y-168535714D01*
X27166666Y-168583333D01*
X27119047Y-168678571D01*
X27119047Y-168821428D01*
X27071428Y-168916666D01*
X26976190Y-168964285D01*
X26928571Y-168964285D01*
X26833333Y-168916666D01*
X26785714Y-168821428D01*
X26785714Y-168678571D01*
X26833333Y-168583333D01*
X27452380Y-167345238D02*
X26452380Y-167345238D01*
X27452380Y-166869047D02*
X26452380Y-166869047D01*
X27452380Y-166297619D01*
X26452380Y-166297619D01*
X97702380Y-171880952D02*
X97702380Y-171309523D01*
X98702380Y-171595238D02*
X97702380Y-171595238D01*
X97702380Y-171119047D02*
X97702380Y-170547619D01*
X98702380Y-170833333D02*
X97702380Y-170833333D01*
X98702380Y-169738095D02*
X98702380Y-170214285D01*
X97702380Y-170214285D01*
X97702380Y-168452380D02*
X97702380Y-168261904D01*
X97750000Y-168166666D01*
X97845238Y-168071428D01*
X98035714Y-168023809D01*
X98369047Y-168023809D01*
X98559523Y-168071428D01*
X98654761Y-168166666D01*
X98702380Y-168261904D01*
X98702380Y-168452380D01*
X98654761Y-168547619D01*
X98559523Y-168642857D01*
X98369047Y-168690476D01*
X98035714Y-168690476D01*
X97845238Y-168642857D01*
X97750000Y-168547619D01*
X97702380Y-168452380D01*
X97702380Y-167595238D02*
X98511904Y-167595238D01*
X98607142Y-167547619D01*
X98654761Y-167500000D01*
X98702380Y-167404761D01*
X98702380Y-167214285D01*
X98654761Y-167119047D01*
X98607142Y-167071428D01*
X98511904Y-167023809D01*
X97702380Y-167023809D01*
X97702380Y-166690476D02*
X97702380Y-166119047D01*
X98702380Y-166404761D02*
X97702380Y-166404761D01*
D11*
X44750000Y-131250000D02*
X44750000Y-148750000D01*
D10*
X72566666Y-135702380D02*
X72471428Y-135654761D01*
X72423809Y-135559523D01*
X72423809Y-134702380D01*
X73090476Y-135702380D02*
X72995238Y-135654761D01*
X72947619Y-135607142D01*
X72900000Y-135511904D01*
X72900000Y-135226190D01*
X72947619Y-135130952D01*
X72995238Y-135083333D01*
X73090476Y-135035714D01*
X73233333Y-135035714D01*
X73328571Y-135083333D01*
X73376190Y-135130952D01*
X73423809Y-135226190D01*
X73423809Y-135511904D01*
X73376190Y-135607142D01*
X73328571Y-135654761D01*
X73233333Y-135702380D01*
X73090476Y-135702380D01*
X72257142Y-133685714D02*
X72257142Y-134352380D01*
X72257142Y-133780952D02*
X72304761Y-133733333D01*
X72400000Y-133685714D01*
X72542857Y-133685714D01*
X72638095Y-133733333D01*
X72685714Y-133828571D01*
X72685714Y-134352380D01*
X73590476Y-134304761D02*
X73495238Y-134352380D01*
X73304761Y-134352380D01*
X73209523Y-134304761D01*
X73161904Y-134257142D01*
X73114285Y-134161904D01*
X73114285Y-133876190D01*
X73161904Y-133780952D01*
X73209523Y-133733333D01*
X73304761Y-133685714D01*
X73495238Y-133685714D01*
X73590476Y-133733333D01*
X72547619Y-133152380D02*
X72547619Y-132152380D01*
X72976190Y-133152380D02*
X72976190Y-132628571D01*
X72928571Y-132533333D01*
X72833333Y-132485714D01*
X72690476Y-132485714D01*
X72595238Y-132533333D01*
X72547619Y-132580952D01*
X73452380Y-133152380D02*
X73452380Y-132485714D01*
X73452380Y-132152380D02*
X73404761Y-132200000D01*
X73452380Y-132247619D01*
X73500000Y-132200000D01*
X73452380Y-132152380D01*
X73452380Y-132247619D01*
X56666666Y-135702380D02*
X56571428Y-135654761D01*
X56523809Y-135559523D01*
X56523809Y-134702380D01*
X57190476Y-135702380D02*
X57095238Y-135654761D01*
X57047619Y-135607142D01*
X57000000Y-135511904D01*
X57000000Y-135226190D01*
X57047619Y-135130952D01*
X57095238Y-135083333D01*
X57190476Y-135035714D01*
X57333333Y-135035714D01*
X57428571Y-135083333D01*
X57476190Y-135130952D01*
X57523809Y-135226190D01*
X57523809Y-135511904D01*
X57476190Y-135607142D01*
X57428571Y-135654761D01*
X57333333Y-135702380D01*
X57190476Y-135702380D01*
X56357142Y-133685714D02*
X56357142Y-134352380D01*
X56357142Y-133780952D02*
X56404761Y-133733333D01*
X56500000Y-133685714D01*
X56642857Y-133685714D01*
X56738095Y-133733333D01*
X56785714Y-133828571D01*
X56785714Y-134352380D01*
X57690476Y-134304761D02*
X57595238Y-134352380D01*
X57404761Y-134352380D01*
X57309523Y-134304761D01*
X57261904Y-134257142D01*
X57214285Y-134161904D01*
X57214285Y-133876190D01*
X57261904Y-133780952D01*
X57309523Y-133733333D01*
X57404761Y-133685714D01*
X57595238Y-133685714D01*
X57690476Y-133733333D01*
X56647619Y-133152380D02*
X56647619Y-132152380D01*
X57076190Y-133152380D02*
X57076190Y-132628571D01*
X57028571Y-132533333D01*
X56933333Y-132485714D01*
X56790476Y-132485714D01*
X56695238Y-132533333D01*
X56647619Y-132580952D01*
X57552380Y-133152380D02*
X57552380Y-132485714D01*
X57552380Y-132152380D02*
X57504761Y-132200000D01*
X57552380Y-132247619D01*
X57600000Y-132200000D01*
X57552380Y-132152380D01*
X57552380Y-132247619D01*
X41185595Y-131350000D02*
X41080833Y-131297619D01*
X40923690Y-131297619D01*
X40766547Y-131350000D01*
X40661785Y-131454761D01*
X40609404Y-131559523D01*
X40557023Y-131769047D01*
X40557023Y-131926190D01*
X40609404Y-132135714D01*
X40661785Y-132240476D01*
X40766547Y-132345238D01*
X40923690Y-132397619D01*
X41028452Y-132397619D01*
X41185595Y-132345238D01*
X41237976Y-132292857D01*
X41237976Y-131926190D01*
X41028452Y-131926190D01*
X42180833Y-132397619D02*
X42180833Y-131821428D01*
X42128452Y-131716666D01*
X42023690Y-131664285D01*
X41814166Y-131664285D01*
X41709404Y-131716666D01*
X42180833Y-132345238D02*
X42076071Y-132397619D01*
X41814166Y-132397619D01*
X41709404Y-132345238D01*
X41657023Y-132240476D01*
X41657023Y-132135714D01*
X41709404Y-132030952D01*
X41814166Y-131978571D01*
X42076071Y-131978571D01*
X42180833Y-131926190D01*
X42704642Y-132397619D02*
X42704642Y-131664285D01*
X42704642Y-131297619D02*
X42652261Y-131350000D01*
X42704642Y-131402380D01*
X42757023Y-131350000D01*
X42704642Y-131297619D01*
X42704642Y-131402380D01*
X43228452Y-131664285D02*
X43228452Y-132397619D01*
X43228452Y-131769047D02*
X43280833Y-131716666D01*
X43385595Y-131664285D01*
X43542738Y-131664285D01*
X43647500Y-131716666D01*
X43699880Y-131821428D01*
X43699880Y-132397619D01*
X41080833Y-133097619D02*
X40871309Y-133097619D01*
X40766547Y-133150000D01*
X40714166Y-133202380D01*
X40609404Y-133359523D01*
X40557023Y-133569047D01*
X40557023Y-133988095D01*
X40609404Y-134092857D01*
X40661785Y-134145238D01*
X40766547Y-134197619D01*
X40976071Y-134197619D01*
X41080833Y-134145238D01*
X41133214Y-134092857D01*
X41185595Y-133988095D01*
X41185595Y-133726190D01*
X41133214Y-133621428D01*
X41080833Y-133569047D01*
X40976071Y-133516666D01*
X40766547Y-133516666D01*
X40661785Y-133569047D01*
X40609404Y-133621428D01*
X40557023Y-133726190D01*
X42128452Y-133097619D02*
X41918928Y-133097619D01*
X41814166Y-133150000D01*
X41761785Y-133202380D01*
X41657023Y-133359523D01*
X41604642Y-133569047D01*
X41604642Y-133988095D01*
X41657023Y-134092857D01*
X41709404Y-134145238D01*
X41814166Y-134197619D01*
X42023690Y-134197619D01*
X42128452Y-134145238D01*
X42180833Y-134092857D01*
X42233214Y-133988095D01*
X42233214Y-133726190D01*
X42180833Y-133621428D01*
X42128452Y-133569047D01*
X42023690Y-133516666D01*
X41814166Y-133516666D01*
X41709404Y-133569047D01*
X41657023Y-133621428D01*
X41604642Y-133726190D01*
X42704642Y-134092857D02*
X42757023Y-134145238D01*
X42704642Y-134197619D01*
X42652261Y-134145238D01*
X42704642Y-134092857D01*
X42704642Y-134197619D01*
X43699880Y-133097619D02*
X43490357Y-133097619D01*
X43385595Y-133150000D01*
X43333214Y-133202380D01*
X43228452Y-133359523D01*
X43176071Y-133569047D01*
X43176071Y-133988095D01*
X43228452Y-134092857D01*
X43280833Y-134145238D01*
X43385595Y-134197619D01*
X43595119Y-134197619D01*
X43699880Y-134145238D01*
X43752261Y-134092857D01*
X43804642Y-133988095D01*
X43804642Y-133726190D01*
X43752261Y-133621428D01*
X43699880Y-133569047D01*
X43595119Y-133516666D01*
X43385595Y-133516666D01*
X43280833Y-133569047D01*
X43228452Y-133621428D01*
X43176071Y-133726190D01*
X41133214Y-134897619D02*
X40609404Y-134897619D01*
X40557023Y-135421428D01*
X40609404Y-135369047D01*
X40714166Y-135316666D01*
X40976071Y-135316666D01*
X41080833Y-135369047D01*
X41133214Y-135421428D01*
X41185595Y-135526190D01*
X41185595Y-135788095D01*
X41133214Y-135892857D01*
X41080833Y-135945238D01*
X40976071Y-135997619D01*
X40714166Y-135997619D01*
X40609404Y-135945238D01*
X40557023Y-135892857D01*
X41866547Y-134897619D02*
X41971309Y-134897619D01*
X42076071Y-134950000D01*
X42128452Y-135002380D01*
X42180833Y-135107142D01*
X42233214Y-135316666D01*
X42233214Y-135578571D01*
X42180833Y-135788095D01*
X42128452Y-135892857D01*
X42076071Y-135945238D01*
X41971309Y-135997619D01*
X41866547Y-135997619D01*
X41761785Y-135945238D01*
X41709404Y-135892857D01*
X41657023Y-135788095D01*
X41604642Y-135578571D01*
X41604642Y-135316666D01*
X41657023Y-135107142D01*
X41709404Y-135002380D01*
X41761785Y-134950000D01*
X41866547Y-134897619D01*
X40504642Y-136697619D02*
X41185595Y-136697619D01*
X40818928Y-137116666D01*
X40976071Y-137116666D01*
X41080833Y-137169047D01*
X41133214Y-137221428D01*
X41185595Y-137326190D01*
X41185595Y-137588095D01*
X41133214Y-137692857D01*
X41080833Y-137745238D01*
X40976071Y-137797619D01*
X40661785Y-137797619D01*
X40557023Y-137745238D01*
X40504642Y-137692857D01*
X41552261Y-136697619D02*
X42233214Y-136697619D01*
X41866547Y-137116666D01*
X42023690Y-137116666D01*
X42128452Y-137169047D01*
X42180833Y-137221428D01*
X42233214Y-137326190D01*
X42233214Y-137588095D01*
X42180833Y-137692857D01*
X42128452Y-137745238D01*
X42023690Y-137797619D01*
X41709404Y-137797619D01*
X41604642Y-137745238D01*
X41552261Y-137692857D01*
X42704642Y-137692857D02*
X42757023Y-137745238D01*
X42704642Y-137797619D01*
X42652261Y-137745238D01*
X42704642Y-137692857D01*
X42704642Y-137797619D01*
X43123690Y-136697619D02*
X43804642Y-136697619D01*
X43437976Y-137116666D01*
X43595119Y-137116666D01*
X43699880Y-137169047D01*
X43752261Y-137221428D01*
X43804642Y-137326190D01*
X43804642Y-137588095D01*
X43752261Y-137692857D01*
X43699880Y-137745238D01*
X43595119Y-137797619D01*
X43280833Y-137797619D01*
X43176071Y-137745238D01*
X43123690Y-137692857D01*
X40557023Y-138602380D02*
X40609404Y-138550000D01*
X40714166Y-138497619D01*
X40976071Y-138497619D01*
X41080833Y-138550000D01*
X41133214Y-138602380D01*
X41185595Y-138707142D01*
X41185595Y-138811904D01*
X41133214Y-138969047D01*
X40504642Y-139597619D01*
X41185595Y-139597619D01*
X41866547Y-138497619D02*
X41971309Y-138497619D01*
X42076071Y-138550000D01*
X42128452Y-138602380D01*
X42180833Y-138707142D01*
X42233214Y-138916666D01*
X42233214Y-139178571D01*
X42180833Y-139388095D01*
X42128452Y-139492857D01*
X42076071Y-139545238D01*
X41971309Y-139597619D01*
X41866547Y-139597619D01*
X41761785Y-139545238D01*
X41709404Y-139492857D01*
X41657023Y-139388095D01*
X41604642Y-139178571D01*
X41604642Y-138916666D01*
X41657023Y-138707142D01*
X41709404Y-138602380D01*
X41761785Y-138550000D01*
X41866547Y-138497619D01*
X41185595Y-141397619D02*
X40557023Y-141397619D01*
X40871309Y-141397619D02*
X40871309Y-140297619D01*
X40766547Y-140454761D01*
X40661785Y-140559523D01*
X40557023Y-140611904D01*
X42128452Y-140664285D02*
X42128452Y-141397619D01*
X41866547Y-140245238D02*
X41604642Y-141030952D01*
X42285595Y-141030952D01*
X42704642Y-141292857D02*
X42757023Y-141345238D01*
X42704642Y-141397619D01*
X42652261Y-141345238D01*
X42704642Y-141292857D01*
X42704642Y-141397619D01*
X43123690Y-140297619D02*
X43804642Y-140297619D01*
X43437976Y-140716666D01*
X43595119Y-140716666D01*
X43699880Y-140769047D01*
X43752261Y-140821428D01*
X43804642Y-140926190D01*
X43804642Y-141188095D01*
X43752261Y-141292857D01*
X43699880Y-141345238D01*
X43595119Y-141397619D01*
X43280833Y-141397619D01*
X43176071Y-141345238D01*
X43123690Y-141292857D01*
X41185595Y-143197619D02*
X40557023Y-143197619D01*
X40871309Y-143197619D02*
X40871309Y-142097619D01*
X40766547Y-142254761D01*
X40661785Y-142359523D01*
X40557023Y-142411904D01*
X41866547Y-142097619D02*
X41971309Y-142097619D01*
X42076071Y-142150000D01*
X42128452Y-142202380D01*
X42180833Y-142307142D01*
X42233214Y-142516666D01*
X42233214Y-142778571D01*
X42180833Y-142988095D01*
X42128452Y-143092857D01*
X42076071Y-143145238D01*
X41971309Y-143197619D01*
X41866547Y-143197619D01*
X41761785Y-143145238D01*
X41709404Y-143092857D01*
X41657023Y-142988095D01*
X41604642Y-142778571D01*
X41604642Y-142516666D01*
X41657023Y-142307142D01*
X41709404Y-142202380D01*
X41761785Y-142150000D01*
X41866547Y-142097619D01*
X40504642Y-143897619D02*
X41237976Y-143897619D01*
X40766547Y-144997619D01*
X41657023Y-144892857D02*
X41709404Y-144945238D01*
X41657023Y-144997619D01*
X41604642Y-144945238D01*
X41657023Y-144892857D01*
X41657023Y-144997619D01*
X42757023Y-144997619D02*
X42128452Y-144997619D01*
X42442738Y-144997619D02*
X42442738Y-143897619D01*
X42337976Y-144054761D01*
X42233214Y-144159523D01*
X42128452Y-144211904D01*
X41080833Y-146064285D02*
X41080833Y-146797619D01*
X40818928Y-145645238D02*
X40557023Y-146430952D01*
X41237976Y-146430952D01*
X40504642Y-147497619D02*
X41185595Y-147497619D01*
X40818928Y-147916666D01*
X40976071Y-147916666D01*
X41080833Y-147969047D01*
X41133214Y-148021428D01*
X41185595Y-148126190D01*
X41185595Y-148388095D01*
X41133214Y-148492857D01*
X41080833Y-148545238D01*
X40976071Y-148597619D01*
X40661785Y-148597619D01*
X40557023Y-148545238D01*
X40504642Y-148492857D01*
X45690476Y-132345238D02*
X45847619Y-132397619D01*
X46109523Y-132397619D01*
X46214285Y-132345238D01*
X46266666Y-132292857D01*
X46319047Y-132188095D01*
X46319047Y-132083333D01*
X46266666Y-131978571D01*
X46214285Y-131926190D01*
X46109523Y-131873809D01*
X45900000Y-131821428D01*
X45795238Y-131769047D01*
X45742857Y-131716666D01*
X45690476Y-131611904D01*
X45690476Y-131507142D01*
X45742857Y-131402380D01*
X45795238Y-131350000D01*
X45900000Y-131297619D01*
X46161904Y-131297619D01*
X46319047Y-131350000D01*
X47157142Y-131821428D02*
X46790476Y-131821428D01*
X46790476Y-132397619D02*
X46790476Y-131297619D01*
X47314285Y-131297619D01*
X48309523Y-132397619D02*
X47680952Y-132397619D01*
X47995238Y-132397619D02*
X47995238Y-131297619D01*
X47890476Y-131454761D01*
X47785714Y-131559523D01*
X47680952Y-131611904D01*
X46502380Y-134197619D02*
X46502380Y-133097619D01*
X46973809Y-134197619D02*
X46973809Y-133621428D01*
X46921428Y-133516666D01*
X46816666Y-133464285D01*
X46659523Y-133464285D01*
X46554761Y-133516666D01*
X46502380Y-133569047D01*
X47497619Y-134197619D02*
X47497619Y-133464285D01*
X47497619Y-133097619D02*
X47445238Y-133150000D01*
X47497619Y-133202380D01*
X47550000Y-133150000D01*
X47497619Y-133097619D01*
X47497619Y-133202380D01*
X46502380Y-135997619D02*
X46502380Y-134897619D01*
X46973809Y-135997619D02*
X46973809Y-135421428D01*
X46921428Y-135316666D01*
X46816666Y-135264285D01*
X46659523Y-135264285D01*
X46554761Y-135316666D01*
X46502380Y-135369047D01*
X47497619Y-135997619D02*
X47497619Y-135264285D01*
X47497619Y-134897619D02*
X47445238Y-134950000D01*
X47497619Y-135002380D01*
X47550000Y-134950000D01*
X47497619Y-134897619D01*
X47497619Y-135002380D01*
X46502380Y-137797619D02*
X46502380Y-136697619D01*
X46973809Y-137797619D02*
X46973809Y-137221428D01*
X46921428Y-137116666D01*
X46816666Y-137064285D01*
X46659523Y-137064285D01*
X46554761Y-137116666D01*
X46502380Y-137169047D01*
X47497619Y-137797619D02*
X47497619Y-137064285D01*
X47497619Y-136697619D02*
X47445238Y-136750000D01*
X47497619Y-136802380D01*
X47550000Y-136750000D01*
X47497619Y-136697619D01*
X47497619Y-136802380D01*
X46292857Y-138864285D02*
X46292857Y-139597619D01*
X46292857Y-138969047D02*
X46345238Y-138916666D01*
X46450000Y-138864285D01*
X46607142Y-138864285D01*
X46711904Y-138916666D01*
X46764285Y-139021428D01*
X46764285Y-139597619D01*
X47759523Y-139545238D02*
X47654761Y-139597619D01*
X47445238Y-139597619D01*
X47340476Y-139545238D01*
X47288095Y-139492857D01*
X47235714Y-139388095D01*
X47235714Y-139073809D01*
X47288095Y-138969047D01*
X47340476Y-138916666D01*
X47445238Y-138864285D01*
X47654761Y-138864285D01*
X47759523Y-138916666D01*
X46292857Y-140664285D02*
X46292857Y-141397619D01*
X46292857Y-140769047D02*
X46345238Y-140716666D01*
X46450000Y-140664285D01*
X46607142Y-140664285D01*
X46711904Y-140716666D01*
X46764285Y-140821428D01*
X46764285Y-141397619D01*
X47759523Y-141345238D02*
X47654761Y-141397619D01*
X47445238Y-141397619D01*
X47340476Y-141345238D01*
X47288095Y-141292857D01*
X47235714Y-141188095D01*
X47235714Y-140873809D01*
X47288095Y-140769047D01*
X47340476Y-140716666D01*
X47445238Y-140664285D01*
X47654761Y-140664285D01*
X47759523Y-140716666D01*
X46292857Y-142464285D02*
X46292857Y-143197619D01*
X46292857Y-142569047D02*
X46345238Y-142516666D01*
X46450000Y-142464285D01*
X46607142Y-142464285D01*
X46711904Y-142516666D01*
X46764285Y-142621428D01*
X46764285Y-143197619D01*
X47759523Y-143145238D02*
X47654761Y-143197619D01*
X47445238Y-143197619D01*
X47340476Y-143145238D01*
X47288095Y-143092857D01*
X47235714Y-142988095D01*
X47235714Y-142673809D01*
X47288095Y-142569047D01*
X47340476Y-142516666D01*
X47445238Y-142464285D01*
X47654761Y-142464285D01*
X47759523Y-142516666D01*
X46633333Y-144997619D02*
X46528571Y-144945238D01*
X46476190Y-144840476D01*
X46476190Y-143897619D01*
X47209523Y-144997619D02*
X47104761Y-144945238D01*
X47052380Y-144892857D01*
X47000000Y-144788095D01*
X47000000Y-144473809D01*
X47052380Y-144369047D01*
X47104761Y-144316666D01*
X47209523Y-144264285D01*
X47366666Y-144264285D01*
X47471428Y-144316666D01*
X47523809Y-144369047D01*
X47576190Y-144473809D01*
X47576190Y-144788095D01*
X47523809Y-144892857D01*
X47471428Y-144945238D01*
X47366666Y-144997619D01*
X47209523Y-144997619D01*
X46633333Y-146797619D02*
X46528571Y-146745238D01*
X46476190Y-146640476D01*
X46476190Y-145697619D01*
X47209523Y-146797619D02*
X47104761Y-146745238D01*
X47052380Y-146692857D01*
X47000000Y-146588095D01*
X47000000Y-146273809D01*
X47052380Y-146169047D01*
X47104761Y-146116666D01*
X47209523Y-146064285D01*
X47366666Y-146064285D01*
X47471428Y-146116666D01*
X47523809Y-146169047D01*
X47576190Y-146273809D01*
X47576190Y-146588095D01*
X47523809Y-146692857D01*
X47471428Y-146745238D01*
X47366666Y-146797619D01*
X47209523Y-146797619D01*
X46633333Y-148597619D02*
X46528571Y-148545238D01*
X46476190Y-148440476D01*
X46476190Y-147497619D01*
X47209523Y-148597619D02*
X47104761Y-148545238D01*
X47052380Y-148492857D01*
X47000000Y-148388095D01*
X47000000Y-148073809D01*
X47052380Y-147969047D01*
X47104761Y-147916666D01*
X47209523Y-147864285D01*
X47366666Y-147864285D01*
X47471428Y-147916666D01*
X47523809Y-147969047D01*
X47576190Y-148073809D01*
X47576190Y-148388095D01*
X47523809Y-148492857D01*
X47471428Y-148545238D01*
X47366666Y-148597619D01*
X47209523Y-148597619D01*
X49190476Y-132345238D02*
X49347619Y-132397619D01*
X49609523Y-132397619D01*
X49714285Y-132345238D01*
X49766666Y-132292857D01*
X49819047Y-132188095D01*
X49819047Y-132083333D01*
X49766666Y-131978571D01*
X49714285Y-131926190D01*
X49609523Y-131873809D01*
X49400000Y-131821428D01*
X49295238Y-131769047D01*
X49242857Y-131716666D01*
X49190476Y-131611904D01*
X49190476Y-131507142D01*
X49242857Y-131402380D01*
X49295238Y-131350000D01*
X49400000Y-131297619D01*
X49661904Y-131297619D01*
X49819047Y-131350000D01*
X50657142Y-131821428D02*
X50290476Y-131821428D01*
X50290476Y-132397619D02*
X50290476Y-131297619D01*
X50814285Y-131297619D01*
X51442857Y-131297619D02*
X51547619Y-131297619D01*
X51652380Y-131350000D01*
X51704761Y-131402380D01*
X51757142Y-131507142D01*
X51809523Y-131716666D01*
X51809523Y-131978571D01*
X51757142Y-132188095D01*
X51704761Y-132292857D01*
X51652380Y-132345238D01*
X51547619Y-132397619D01*
X51442857Y-132397619D01*
X51338095Y-132345238D01*
X51285714Y-132292857D01*
X51233333Y-132188095D01*
X51180952Y-131978571D01*
X51180952Y-131716666D01*
X51233333Y-131507142D01*
X51285714Y-131402380D01*
X51338095Y-131350000D01*
X51442857Y-131297619D01*
X50002380Y-134197619D02*
X50002380Y-133097619D01*
X50473809Y-134197619D02*
X50473809Y-133621428D01*
X50421428Y-133516666D01*
X50316666Y-133464285D01*
X50159523Y-133464285D01*
X50054761Y-133516666D01*
X50002380Y-133569047D01*
X50997619Y-134197619D02*
X50997619Y-133464285D01*
X50997619Y-133097619D02*
X50945238Y-133150000D01*
X50997619Y-133202380D01*
X51050000Y-133150000D01*
X50997619Y-133097619D01*
X50997619Y-133202380D01*
X49792857Y-135264285D02*
X49792857Y-135997619D01*
X49792857Y-135369047D02*
X49845238Y-135316666D01*
X49950000Y-135264285D01*
X50107142Y-135264285D01*
X50211904Y-135316666D01*
X50264285Y-135421428D01*
X50264285Y-135997619D01*
X51259523Y-135945238D02*
X51154761Y-135997619D01*
X50945238Y-135997619D01*
X50840476Y-135945238D01*
X50788095Y-135892857D01*
X50735714Y-135788095D01*
X50735714Y-135473809D01*
X50788095Y-135369047D01*
X50840476Y-135316666D01*
X50945238Y-135264285D01*
X51154761Y-135264285D01*
X51259523Y-135316666D01*
X50133333Y-137797619D02*
X50028571Y-137745238D01*
X49976190Y-137640476D01*
X49976190Y-136697619D01*
X50709523Y-137797619D02*
X50604761Y-137745238D01*
X50552380Y-137692857D01*
X50500000Y-137588095D01*
X50500000Y-137273809D01*
X50552380Y-137169047D01*
X50604761Y-137116666D01*
X50709523Y-137064285D01*
X50866666Y-137064285D01*
X50971428Y-137116666D01*
X51023809Y-137169047D01*
X51076190Y-137273809D01*
X51076190Y-137588095D01*
X51023809Y-137692857D01*
X50971428Y-137745238D01*
X50866666Y-137797619D01*
X50709523Y-137797619D01*
X50002380Y-139597619D02*
X50002380Y-138497619D01*
X50473809Y-139597619D02*
X50473809Y-139021428D01*
X50421428Y-138916666D01*
X50316666Y-138864285D01*
X50159523Y-138864285D01*
X50054761Y-138916666D01*
X50002380Y-138969047D01*
X50997619Y-139597619D02*
X50997619Y-138864285D01*
X50997619Y-138497619D02*
X50945238Y-138550000D01*
X50997619Y-138602380D01*
X51050000Y-138550000D01*
X50997619Y-138497619D01*
X50997619Y-138602380D01*
X49792857Y-140664285D02*
X49792857Y-141397619D01*
X49792857Y-140769047D02*
X49845238Y-140716666D01*
X49950000Y-140664285D01*
X50107142Y-140664285D01*
X50211904Y-140716666D01*
X50264285Y-140821428D01*
X50264285Y-141397619D01*
X51259523Y-141345238D02*
X51154761Y-141397619D01*
X50945238Y-141397619D01*
X50840476Y-141345238D01*
X50788095Y-141292857D01*
X50735714Y-141188095D01*
X50735714Y-140873809D01*
X50788095Y-140769047D01*
X50840476Y-140716666D01*
X50945238Y-140664285D01*
X51154761Y-140664285D01*
X51259523Y-140716666D01*
X50133333Y-143197619D02*
X50028571Y-143145238D01*
X49976190Y-143040476D01*
X49976190Y-142097619D01*
X50709523Y-143197619D02*
X50604761Y-143145238D01*
X50552380Y-143092857D01*
X50500000Y-142988095D01*
X50500000Y-142673809D01*
X50552380Y-142569047D01*
X50604761Y-142516666D01*
X50709523Y-142464285D01*
X50866666Y-142464285D01*
X50971428Y-142516666D01*
X51023809Y-142569047D01*
X51076190Y-142673809D01*
X51076190Y-142988095D01*
X51023809Y-143092857D01*
X50971428Y-143145238D01*
X50866666Y-143197619D01*
X50709523Y-143197619D01*
X50002380Y-144997619D02*
X50002380Y-143897619D01*
X50473809Y-144997619D02*
X50473809Y-144421428D01*
X50421428Y-144316666D01*
X50316666Y-144264285D01*
X50159523Y-144264285D01*
X50054761Y-144316666D01*
X50002380Y-144369047D01*
X50997619Y-144997619D02*
X50997619Y-144264285D01*
X50997619Y-143897619D02*
X50945238Y-143950000D01*
X50997619Y-144002380D01*
X51050000Y-143950000D01*
X50997619Y-143897619D01*
X50997619Y-144002380D01*
X49792857Y-146064285D02*
X49792857Y-146797619D01*
X49792857Y-146169047D02*
X49845238Y-146116666D01*
X49950000Y-146064285D01*
X50107142Y-146064285D01*
X50211904Y-146116666D01*
X50264285Y-146221428D01*
X50264285Y-146797619D01*
X51259523Y-146745238D02*
X51154761Y-146797619D01*
X50945238Y-146797619D01*
X50840476Y-146745238D01*
X50788095Y-146692857D01*
X50735714Y-146588095D01*
X50735714Y-146273809D01*
X50788095Y-146169047D01*
X50840476Y-146116666D01*
X50945238Y-146064285D01*
X51154761Y-146064285D01*
X51259523Y-146116666D01*
X50133333Y-148597619D02*
X50028571Y-148545238D01*
X49976190Y-148440476D01*
X49976190Y-147497619D01*
X50709523Y-148597619D02*
X50604761Y-148545238D01*
X50552380Y-148492857D01*
X50500000Y-148388095D01*
X50500000Y-148073809D01*
X50552380Y-147969047D01*
X50604761Y-147916666D01*
X50709523Y-147864285D01*
X50866666Y-147864285D01*
X50971428Y-147916666D01*
X51023809Y-147969047D01*
X51076190Y-148073809D01*
X51076190Y-148388095D01*
X51023809Y-148492857D01*
X50971428Y-148545238D01*
X50866666Y-148597619D01*
X50709523Y-148597619D01*
X52859404Y-132397619D02*
X52859404Y-131297619D01*
X53383214Y-132397619D02*
X53383214Y-131297619D01*
X53802261Y-131297619D01*
X53907023Y-131350000D01*
X53959404Y-131402380D01*
X54011785Y-131507142D01*
X54011785Y-131664285D01*
X53959404Y-131769047D01*
X53907023Y-131821428D01*
X53802261Y-131873809D01*
X53383214Y-131873809D01*
X54849880Y-131821428D02*
X54483214Y-131821428D01*
X54483214Y-132397619D02*
X54483214Y-131297619D01*
X55007023Y-131297619D01*
X53435595Y-134197619D02*
X52807023Y-134197619D01*
X53121309Y-134197619D02*
X53121309Y-133097619D01*
X53016547Y-133254761D01*
X52911785Y-133359523D01*
X52807023Y-133411904D01*
X54378452Y-133097619D02*
X54168928Y-133097619D01*
X54064166Y-133150000D01*
X54011785Y-133202380D01*
X53907023Y-133359523D01*
X53854642Y-133569047D01*
X53854642Y-133988095D01*
X53907023Y-134092857D01*
X53959404Y-134145238D01*
X54064166Y-134197619D01*
X54273690Y-134197619D01*
X54378452Y-134145238D01*
X54430833Y-134092857D01*
X54483214Y-133988095D01*
X54483214Y-133726190D01*
X54430833Y-133621428D01*
X54378452Y-133569047D01*
X54273690Y-133516666D01*
X54064166Y-133516666D01*
X53959404Y-133569047D01*
X53907023Y-133621428D01*
X53854642Y-133726190D01*
X53435595Y-135997619D02*
X52807023Y-135997619D01*
X53121309Y-135997619D02*
X53121309Y-134897619D01*
X53016547Y-135054761D01*
X52911785Y-135159523D01*
X52807023Y-135211904D01*
X53854642Y-135002380D02*
X53907023Y-134950000D01*
X54011785Y-134897619D01*
X54273690Y-134897619D01*
X54378452Y-134950000D01*
X54430833Y-135002380D01*
X54483214Y-135107142D01*
X54483214Y-135211904D01*
X54430833Y-135369047D01*
X53802261Y-135997619D01*
X54483214Y-135997619D01*
X53435595Y-137797619D02*
X52807023Y-137797619D01*
X53121309Y-137797619D02*
X53121309Y-136697619D01*
X53016547Y-136854761D01*
X52911785Y-136959523D01*
X52807023Y-137011904D01*
X54116547Y-136697619D02*
X54221309Y-136697619D01*
X54326071Y-136750000D01*
X54378452Y-136802380D01*
X54430833Y-136907142D01*
X54483214Y-137116666D01*
X54483214Y-137378571D01*
X54430833Y-137588095D01*
X54378452Y-137692857D01*
X54326071Y-137745238D01*
X54221309Y-137797619D01*
X54116547Y-137797619D01*
X54011785Y-137745238D01*
X53959404Y-137692857D01*
X53907023Y-137588095D01*
X53854642Y-137378571D01*
X53854642Y-137116666D01*
X53907023Y-136907142D01*
X53959404Y-136802380D01*
X54011785Y-136750000D01*
X54116547Y-136697619D01*
X53016547Y-138969047D02*
X52911785Y-138916666D01*
X52859404Y-138864285D01*
X52807023Y-138759523D01*
X52807023Y-138707142D01*
X52859404Y-138602380D01*
X52911785Y-138550000D01*
X53016547Y-138497619D01*
X53226071Y-138497619D01*
X53330833Y-138550000D01*
X53383214Y-138602380D01*
X53435595Y-138707142D01*
X53435595Y-138759523D01*
X53383214Y-138864285D01*
X53330833Y-138916666D01*
X53226071Y-138969047D01*
X53016547Y-138969047D01*
X52911785Y-139021428D01*
X52859404Y-139073809D01*
X52807023Y-139178571D01*
X52807023Y-139388095D01*
X52859404Y-139492857D01*
X52911785Y-139545238D01*
X53016547Y-139597619D01*
X53226071Y-139597619D01*
X53330833Y-139545238D01*
X53383214Y-139492857D01*
X53435595Y-139388095D01*
X53435595Y-139178571D01*
X53383214Y-139073809D01*
X53330833Y-139021428D01*
X53226071Y-138969047D01*
X53383214Y-140297619D02*
X52859404Y-140297619D01*
X52807023Y-140821428D01*
X52859404Y-140769047D01*
X52964166Y-140716666D01*
X53226071Y-140716666D01*
X53330833Y-140769047D01*
X53383214Y-140821428D01*
X53435595Y-140926190D01*
X53435595Y-141188095D01*
X53383214Y-141292857D01*
X53330833Y-141345238D01*
X53226071Y-141397619D01*
X52964166Y-141397619D01*
X52859404Y-141345238D01*
X52807023Y-141292857D01*
X53330833Y-142464285D02*
X53330833Y-143197619D01*
X53068928Y-142045238D02*
X52807023Y-142830952D01*
X53487976Y-142830952D01*
X52754642Y-143897619D02*
X53435595Y-143897619D01*
X53068928Y-144316666D01*
X53226071Y-144316666D01*
X53330833Y-144369047D01*
X53383214Y-144421428D01*
X53435595Y-144526190D01*
X53435595Y-144788095D01*
X53383214Y-144892857D01*
X53330833Y-144945238D01*
X53226071Y-144997619D01*
X52911785Y-144997619D01*
X52807023Y-144945238D01*
X52754642Y-144892857D01*
X52807023Y-145802380D02*
X52859404Y-145750000D01*
X52964166Y-145697619D01*
X53226071Y-145697619D01*
X53330833Y-145750000D01*
X53383214Y-145802380D01*
X53435595Y-145907142D01*
X53435595Y-146011904D01*
X53383214Y-146169047D01*
X52754642Y-146797619D01*
X53435595Y-146797619D01*
X53435595Y-148597619D02*
X52807023Y-148597619D01*
X53121309Y-148597619D02*
X53121309Y-147497619D01*
X53016547Y-147654761D01*
X52911785Y-147759523D01*
X52807023Y-147811904D01*
X36861904Y-132345238D02*
X37019047Y-132397619D01*
X37280952Y-132397619D01*
X37385714Y-132345238D01*
X37438095Y-132292857D01*
X37490476Y-132188095D01*
X37490476Y-132083333D01*
X37438095Y-131978571D01*
X37385714Y-131926190D01*
X37280952Y-131873809D01*
X37071428Y-131821428D01*
X36966666Y-131769047D01*
X36914285Y-131716666D01*
X36861904Y-131611904D01*
X36861904Y-131507142D01*
X36914285Y-131402380D01*
X36966666Y-131350000D01*
X37071428Y-131297619D01*
X37333333Y-131297619D01*
X37490476Y-131350000D01*
X38538095Y-131350000D02*
X38433333Y-131297619D01*
X38276190Y-131297619D01*
X38119047Y-131350000D01*
X38014285Y-131454761D01*
X37961904Y-131559523D01*
X37909523Y-131769047D01*
X37909523Y-131926190D01*
X37961904Y-132135714D01*
X38014285Y-132240476D01*
X38119047Y-132345238D01*
X38276190Y-132397619D01*
X38380952Y-132397619D01*
X38538095Y-132345238D01*
X38590476Y-132292857D01*
X38590476Y-131926190D01*
X38380952Y-131926190D01*
X39271428Y-131297619D02*
X39376190Y-131297619D01*
X39480952Y-131350000D01*
X39533333Y-131402380D01*
X39585714Y-131507142D01*
X39638095Y-131716666D01*
X39638095Y-131978571D01*
X39585714Y-132188095D01*
X39533333Y-132292857D01*
X39480952Y-132345238D01*
X39376190Y-132397619D01*
X39271428Y-132397619D01*
X39166666Y-132345238D01*
X39114285Y-132292857D01*
X39061904Y-132188095D01*
X39009523Y-131978571D01*
X39009523Y-131716666D01*
X39061904Y-131507142D01*
X39114285Y-131402380D01*
X39166666Y-131350000D01*
X39271428Y-131297619D01*
X37752380Y-134197619D02*
X37752380Y-133097619D01*
X38223809Y-134197619D02*
X38223809Y-133621428D01*
X38171428Y-133516666D01*
X38066666Y-133464285D01*
X37909523Y-133464285D01*
X37804761Y-133516666D01*
X37752380Y-133569047D01*
X38747619Y-134197619D02*
X38747619Y-133464285D01*
X38747619Y-133097619D02*
X38695238Y-133150000D01*
X38747619Y-133202380D01*
X38800000Y-133150000D01*
X38747619Y-133097619D01*
X38747619Y-133202380D01*
X37542857Y-135264285D02*
X37542857Y-135997619D01*
X37542857Y-135369047D02*
X37595238Y-135316666D01*
X37700000Y-135264285D01*
X37857142Y-135264285D01*
X37961904Y-135316666D01*
X38014285Y-135421428D01*
X38014285Y-135997619D01*
X39009523Y-135945238D02*
X38904761Y-135997619D01*
X38695238Y-135997619D01*
X38590476Y-135945238D01*
X38538095Y-135892857D01*
X38485714Y-135788095D01*
X38485714Y-135473809D01*
X38538095Y-135369047D01*
X38590476Y-135316666D01*
X38695238Y-135264285D01*
X38904761Y-135264285D01*
X39009523Y-135316666D01*
X37883333Y-137797619D02*
X37778571Y-137745238D01*
X37726190Y-137640476D01*
X37726190Y-136697619D01*
X38459523Y-137797619D02*
X38354761Y-137745238D01*
X38302380Y-137692857D01*
X38250000Y-137588095D01*
X38250000Y-137273809D01*
X38302380Y-137169047D01*
X38354761Y-137116666D01*
X38459523Y-137064285D01*
X38616666Y-137064285D01*
X38721428Y-137116666D01*
X38773809Y-137169047D01*
X38826190Y-137273809D01*
X38826190Y-137588095D01*
X38773809Y-137692857D01*
X38721428Y-137745238D01*
X38616666Y-137797619D01*
X38459523Y-137797619D01*
X37752380Y-139597619D02*
X37752380Y-138497619D01*
X38223809Y-139597619D02*
X38223809Y-139021428D01*
X38171428Y-138916666D01*
X38066666Y-138864285D01*
X37909523Y-138864285D01*
X37804761Y-138916666D01*
X37752380Y-138969047D01*
X38747619Y-139597619D02*
X38747619Y-138864285D01*
X38747619Y-138497619D02*
X38695238Y-138550000D01*
X38747619Y-138602380D01*
X38800000Y-138550000D01*
X38747619Y-138497619D01*
X38747619Y-138602380D01*
X37542857Y-140664285D02*
X37542857Y-141397619D01*
X37542857Y-140769047D02*
X37595238Y-140716666D01*
X37700000Y-140664285D01*
X37857142Y-140664285D01*
X37961904Y-140716666D01*
X38014285Y-140821428D01*
X38014285Y-141397619D01*
X39009523Y-141345238D02*
X38904761Y-141397619D01*
X38695238Y-141397619D01*
X38590476Y-141345238D01*
X38538095Y-141292857D01*
X38485714Y-141188095D01*
X38485714Y-140873809D01*
X38538095Y-140769047D01*
X38590476Y-140716666D01*
X38695238Y-140664285D01*
X38904761Y-140664285D01*
X39009523Y-140716666D01*
X37883333Y-143197619D02*
X37778571Y-143145238D01*
X37726190Y-143040476D01*
X37726190Y-142097619D01*
X38459523Y-143197619D02*
X38354761Y-143145238D01*
X38302380Y-143092857D01*
X38250000Y-142988095D01*
X38250000Y-142673809D01*
X38302380Y-142569047D01*
X38354761Y-142516666D01*
X38459523Y-142464285D01*
X38616666Y-142464285D01*
X38721428Y-142516666D01*
X38773809Y-142569047D01*
X38826190Y-142673809D01*
X38826190Y-142988095D01*
X38773809Y-143092857D01*
X38721428Y-143145238D01*
X38616666Y-143197619D01*
X38459523Y-143197619D01*
X37752380Y-144997619D02*
X37752380Y-143897619D01*
X38223809Y-144997619D02*
X38223809Y-144421428D01*
X38171428Y-144316666D01*
X38066666Y-144264285D01*
X37909523Y-144264285D01*
X37804761Y-144316666D01*
X37752380Y-144369047D01*
X38747619Y-144997619D02*
X38747619Y-144264285D01*
X38747619Y-143897619D02*
X38695238Y-143950000D01*
X38747619Y-144002380D01*
X38800000Y-143950000D01*
X38747619Y-143897619D01*
X38747619Y-144002380D01*
X37542857Y-146064285D02*
X37542857Y-146797619D01*
X37542857Y-146169047D02*
X37595238Y-146116666D01*
X37700000Y-146064285D01*
X37857142Y-146064285D01*
X37961904Y-146116666D01*
X38014285Y-146221428D01*
X38014285Y-146797619D01*
X39009523Y-146745238D02*
X38904761Y-146797619D01*
X38695238Y-146797619D01*
X38590476Y-146745238D01*
X38538095Y-146692857D01*
X38485714Y-146588095D01*
X38485714Y-146273809D01*
X38538095Y-146169047D01*
X38590476Y-146116666D01*
X38695238Y-146064285D01*
X38904761Y-146064285D01*
X39009523Y-146116666D01*
X37883333Y-148597619D02*
X37778571Y-148545238D01*
X37726190Y-148440476D01*
X37726190Y-147497619D01*
X38459523Y-148597619D02*
X38354761Y-148545238D01*
X38302380Y-148492857D01*
X38250000Y-148388095D01*
X38250000Y-148073809D01*
X38302380Y-147969047D01*
X38354761Y-147916666D01*
X38459523Y-147864285D01*
X38616666Y-147864285D01*
X38721428Y-147916666D01*
X38773809Y-147969047D01*
X38826190Y-148073809D01*
X38826190Y-148388095D01*
X38773809Y-148492857D01*
X38721428Y-148545238D01*
X38616666Y-148597619D01*
X38459523Y-148597619D01*
X33361904Y-132345238D02*
X33519047Y-132397619D01*
X33780952Y-132397619D01*
X33885714Y-132345238D01*
X33938095Y-132292857D01*
X33990476Y-132188095D01*
X33990476Y-132083333D01*
X33938095Y-131978571D01*
X33885714Y-131926190D01*
X33780952Y-131873809D01*
X33571428Y-131821428D01*
X33466666Y-131769047D01*
X33414285Y-131716666D01*
X33361904Y-131611904D01*
X33361904Y-131507142D01*
X33414285Y-131402380D01*
X33466666Y-131350000D01*
X33571428Y-131297619D01*
X33833333Y-131297619D01*
X33990476Y-131350000D01*
X35038095Y-131350000D02*
X34933333Y-131297619D01*
X34776190Y-131297619D01*
X34619047Y-131350000D01*
X34514285Y-131454761D01*
X34461904Y-131559523D01*
X34409523Y-131769047D01*
X34409523Y-131926190D01*
X34461904Y-132135714D01*
X34514285Y-132240476D01*
X34619047Y-132345238D01*
X34776190Y-132397619D01*
X34880952Y-132397619D01*
X35038095Y-132345238D01*
X35090476Y-132292857D01*
X35090476Y-131926190D01*
X34880952Y-131926190D01*
X36138095Y-132397619D02*
X35509523Y-132397619D01*
X35823809Y-132397619D02*
X35823809Y-131297619D01*
X35719047Y-131454761D01*
X35614285Y-131559523D01*
X35509523Y-131611904D01*
X34252380Y-134197619D02*
X34252380Y-133097619D01*
X34723809Y-134197619D02*
X34723809Y-133621428D01*
X34671428Y-133516666D01*
X34566666Y-133464285D01*
X34409523Y-133464285D01*
X34304761Y-133516666D01*
X34252380Y-133569047D01*
X35247619Y-134197619D02*
X35247619Y-133464285D01*
X35247619Y-133097619D02*
X35195238Y-133150000D01*
X35247619Y-133202380D01*
X35300000Y-133150000D01*
X35247619Y-133097619D01*
X35247619Y-133202380D01*
X34252380Y-135997619D02*
X34252380Y-134897619D01*
X34723809Y-135997619D02*
X34723809Y-135421428D01*
X34671428Y-135316666D01*
X34566666Y-135264285D01*
X34409523Y-135264285D01*
X34304761Y-135316666D01*
X34252380Y-135369047D01*
X35247619Y-135997619D02*
X35247619Y-135264285D01*
X35247619Y-134897619D02*
X35195238Y-134950000D01*
X35247619Y-135002380D01*
X35300000Y-134950000D01*
X35247619Y-134897619D01*
X35247619Y-135002380D01*
X34252380Y-137797619D02*
X34252380Y-136697619D01*
X34723809Y-137797619D02*
X34723809Y-137221428D01*
X34671428Y-137116666D01*
X34566666Y-137064285D01*
X34409523Y-137064285D01*
X34304761Y-137116666D01*
X34252380Y-137169047D01*
X35247619Y-137797619D02*
X35247619Y-137064285D01*
X35247619Y-136697619D02*
X35195238Y-136750000D01*
X35247619Y-136802380D01*
X35300000Y-136750000D01*
X35247619Y-136697619D01*
X35247619Y-136802380D01*
X34042857Y-138864285D02*
X34042857Y-139597619D01*
X34042857Y-138969047D02*
X34095238Y-138916666D01*
X34200000Y-138864285D01*
X34357142Y-138864285D01*
X34461904Y-138916666D01*
X34514285Y-139021428D01*
X34514285Y-139597619D01*
X35509523Y-139545238D02*
X35404761Y-139597619D01*
X35195238Y-139597619D01*
X35090476Y-139545238D01*
X35038095Y-139492857D01*
X34985714Y-139388095D01*
X34985714Y-139073809D01*
X35038095Y-138969047D01*
X35090476Y-138916666D01*
X35195238Y-138864285D01*
X35404761Y-138864285D01*
X35509523Y-138916666D01*
X34042857Y-140664285D02*
X34042857Y-141397619D01*
X34042857Y-140769047D02*
X34095238Y-140716666D01*
X34200000Y-140664285D01*
X34357142Y-140664285D01*
X34461904Y-140716666D01*
X34514285Y-140821428D01*
X34514285Y-141397619D01*
X35509523Y-141345238D02*
X35404761Y-141397619D01*
X35195238Y-141397619D01*
X35090476Y-141345238D01*
X35038095Y-141292857D01*
X34985714Y-141188095D01*
X34985714Y-140873809D01*
X35038095Y-140769047D01*
X35090476Y-140716666D01*
X35195238Y-140664285D01*
X35404761Y-140664285D01*
X35509523Y-140716666D01*
X34042857Y-142464285D02*
X34042857Y-143197619D01*
X34042857Y-142569047D02*
X34095238Y-142516666D01*
X34200000Y-142464285D01*
X34357142Y-142464285D01*
X34461904Y-142516666D01*
X34514285Y-142621428D01*
X34514285Y-143197619D01*
X35509523Y-143145238D02*
X35404761Y-143197619D01*
X35195238Y-143197619D01*
X35090476Y-143145238D01*
X35038095Y-143092857D01*
X34985714Y-142988095D01*
X34985714Y-142673809D01*
X35038095Y-142569047D01*
X35090476Y-142516666D01*
X35195238Y-142464285D01*
X35404761Y-142464285D01*
X35509523Y-142516666D01*
X34383333Y-144997619D02*
X34278571Y-144945238D01*
X34226190Y-144840476D01*
X34226190Y-143897619D01*
X34959523Y-144997619D02*
X34854761Y-144945238D01*
X34802380Y-144892857D01*
X34750000Y-144788095D01*
X34750000Y-144473809D01*
X34802380Y-144369047D01*
X34854761Y-144316666D01*
X34959523Y-144264285D01*
X35116666Y-144264285D01*
X35221428Y-144316666D01*
X35273809Y-144369047D01*
X35326190Y-144473809D01*
X35326190Y-144788095D01*
X35273809Y-144892857D01*
X35221428Y-144945238D01*
X35116666Y-144997619D01*
X34959523Y-144997619D01*
X34383333Y-146797619D02*
X34278571Y-146745238D01*
X34226190Y-146640476D01*
X34226190Y-145697619D01*
X34959523Y-146797619D02*
X34854761Y-146745238D01*
X34802380Y-146692857D01*
X34750000Y-146588095D01*
X34750000Y-146273809D01*
X34802380Y-146169047D01*
X34854761Y-146116666D01*
X34959523Y-146064285D01*
X35116666Y-146064285D01*
X35221428Y-146116666D01*
X35273809Y-146169047D01*
X35326190Y-146273809D01*
X35326190Y-146588095D01*
X35273809Y-146692857D01*
X35221428Y-146745238D01*
X35116666Y-146797619D01*
X34959523Y-146797619D01*
X34383333Y-148597619D02*
X34278571Y-148545238D01*
X34226190Y-148440476D01*
X34226190Y-147497619D01*
X34959523Y-148597619D02*
X34854761Y-148545238D01*
X34802380Y-148492857D01*
X34750000Y-148388095D01*
X34750000Y-148073809D01*
X34802380Y-147969047D01*
X34854761Y-147916666D01*
X34959523Y-147864285D01*
X35116666Y-147864285D01*
X35221428Y-147916666D01*
X35273809Y-147969047D01*
X35326190Y-148073809D01*
X35326190Y-148388095D01*
X35273809Y-148492857D01*
X35221428Y-148545238D01*
X35116666Y-148597619D01*
X34959523Y-148597619D01*
D11*
X75200000Y-136050000D02*
G75*
G02X74500000Y-135350000I0J700000D01*
G01*
X76500000Y-135350000D02*
G75*
G02X75800000Y-136050000I-700000J0D01*
G01*
X75800000Y-131950000D02*
G75*
G02X76500000Y-132650000I0J-700000D01*
G01*
X74500000Y-132650000D02*
G75*
G02X75200000Y-131950000I700000J0D01*
G01*
X74500000Y-135400000D02*
X74500000Y-132600000D01*
X75200000Y-131950000D02*
X75800000Y-131950000D01*
X76500000Y-132600000D02*
X76500000Y-135400000D01*
X75800000Y-136050000D02*
X75200000Y-136050000D01*
X76700000Y-135200000D02*
X77000000Y-135500000D01*
X77000000Y-135500000D02*
X77000000Y-134900000D01*
X76700000Y-135200000D02*
X77000000Y-134900000D01*
X80550000Y-131950000D02*
G75*
G02X81250000Y-132650000I0J-700000D01*
G01*
X79250000Y-132650000D02*
G75*
G02X79950000Y-131950000I700000J0D01*
G01*
X79950000Y-136050000D02*
G75*
G02X79250000Y-135350000I0J700000D01*
G01*
X81250000Y-135350000D02*
G75*
G02X80550000Y-136050000I-700000J0D01*
G01*
X81250000Y-132600000D02*
X81250000Y-135400000D01*
X80550000Y-136050000D02*
X79950000Y-136050000D01*
X79250000Y-135400000D02*
X79250000Y-132600000D01*
X79950000Y-131950000D02*
X80550000Y-131950000D01*
X79050000Y-132800000D02*
X78750000Y-132500000D01*
X78750000Y-132500000D02*
X78750000Y-133100000D01*
X79050000Y-132800000D02*
X78750000Y-133100000D01*
X77500000Y-142050000D02*
X77500000Y-143450000D01*
X76800000Y-144150000D02*
X76200000Y-144150000D01*
X75500000Y-143450000D02*
X75500000Y-142050000D01*
X76200000Y-141350000D02*
X76800000Y-141350000D01*
X76800000Y-141350000D02*
G75*
G02X77500000Y-142050000I0J-700000D01*
G01*
X75500000Y-142050000D02*
G75*
G02X76200000Y-141350000I700000J0D01*
G01*
X76200000Y-144150000D02*
G75*
G02X75500000Y-143450000I0J700000D01*
G01*
X77500000Y-143450000D02*
G75*
G02X76800000Y-144150000I-700000J0D01*
G01*
X85330000Y-133110000D02*
X85330000Y-134010000D01*
X85330000Y-133110000D02*
X85330000Y-134010000D01*
X85330000Y-133110000D02*
X85330000Y-133110000D01*
X90170000Y-137290000D02*
X90170000Y-137770000D01*
X90170000Y-134990000D02*
X90170000Y-135510000D01*
X90170000Y-132730000D02*
X90170000Y-133210000D01*
X85330000Y-136490000D02*
X85330000Y-137770000D01*
X85330000Y-132730000D02*
X85330000Y-134010000D01*
X85330000Y-137770000D02*
X90170000Y-137770000D01*
X85330000Y-132730000D02*
X90170000Y-132730000D01*
D10*
X70775000Y-142900000D02*
X72025000Y-142900000D01*
X72025000Y-142900000D02*
X72025000Y-140900000D01*
X72025000Y-140900000D02*
X70775000Y-140900000D01*
X70775000Y-140900000D02*
X70775000Y-142900000D01*
X70775000Y-142400000D02*
X72025000Y-142400000D01*
X70750000Y-141400000D02*
X72025000Y-141400000D01*
X24000000Y-150300000D02*
X24000000Y-158700000D01*
X33200000Y-158700000D02*
X24000000Y-158700000D01*
X33200000Y-150300000D02*
X33200000Y-158700000D01*
X24000000Y-150300000D02*
X33200000Y-150300000D01*
D11*
X28475000Y-171480000D02*
X28475000Y-159140000D01*
X28475000Y-159140000D02*
X59445000Y-159140000D01*
X59445000Y-159140000D02*
X59445000Y-171480000D01*
X49250000Y-158245662D02*
X49750000Y-158245662D01*
X49750000Y-158245662D02*
X49500000Y-158678675D01*
X49500000Y-158678675D02*
X49250000Y-158245662D01*
X86500000Y-158678675D02*
X86250000Y-158245662D01*
X86750000Y-158245662D02*
X86500000Y-158678675D01*
X86250000Y-158245662D02*
X86750000Y-158245662D01*
X96445000Y-159140000D02*
X96445000Y-171480000D01*
X65475000Y-159140000D02*
X96445000Y-159140000D01*
X65475000Y-171480000D02*
X65475000Y-159140000D01*
X66700000Y-136050000D02*
G75*
G02X66000000Y-135350000I0J700000D01*
G01*
X68000000Y-135350000D02*
G75*
G02X67300000Y-136050000I-700000J0D01*
G01*
X67300000Y-131950000D02*
G75*
G02X68000000Y-132650000I0J-700000D01*
G01*
X66000000Y-132650000D02*
G75*
G02X66700000Y-131950000I700000J0D01*
G01*
X66000000Y-135400000D02*
X66000000Y-132600000D01*
X66700000Y-131950000D02*
X67300000Y-131950000D01*
X68000000Y-132600000D02*
X68000000Y-135400000D01*
X67300000Y-136050000D02*
X66700000Y-136050000D01*
X62450000Y-136050000D02*
G75*
G02X61750000Y-135350000I0J700000D01*
G01*
X63750000Y-135350000D02*
G75*
G02X63050000Y-136050000I-700000J0D01*
G01*
X63050000Y-131950000D02*
G75*
G02X63750000Y-132650000I0J-700000D01*
G01*
X61750000Y-132650000D02*
G75*
G02X62450000Y-131950000I700000J0D01*
G01*
X61750000Y-135400000D02*
X61750000Y-132600000D01*
X62450000Y-131950000D02*
X63050000Y-131950000D01*
X63750000Y-132600000D02*
X63750000Y-135400000D01*
X63050000Y-136050000D02*
X62450000Y-136050000D01*
X71050000Y-136050000D02*
X70450000Y-136050000D01*
X71750000Y-132600000D02*
X71750000Y-135400000D01*
X70450000Y-131950000D02*
X71050000Y-131950000D01*
X69750000Y-135400000D02*
X69750000Y-132600000D01*
X69750000Y-132650000D02*
G75*
G02X70450000Y-131950000I700000J0D01*
G01*
X71050000Y-131950000D02*
G75*
G02X71750000Y-132650000I0J-700000D01*
G01*
X71750000Y-135350000D02*
G75*
G02X71050000Y-136050000I-700000J0D01*
G01*
X70450000Y-136050000D02*
G75*
G02X69750000Y-135350000I0J700000D01*
G01*
X59550000Y-136050000D02*
X58950000Y-136050000D01*
X60250000Y-132600000D02*
X60250000Y-135400000D01*
X58950000Y-131950000D02*
X59550000Y-131950000D01*
X58250000Y-135400000D02*
X58250000Y-132600000D01*
X58250000Y-132650000D02*
G75*
G02X58950000Y-131950000I700000J0D01*
G01*
X59550000Y-131950000D02*
G75*
G02X60250000Y-132650000I0J-700000D01*
G01*
X60250000Y-135350000D02*
G75*
G02X59550000Y-136050000I-700000J0D01*
G01*
X58950000Y-136050000D02*
G75*
G02X58250000Y-135350000I0J700000D01*
G01*
D10*
X68450000Y-156750000D02*
X67175000Y-156750000D01*
X68425000Y-155750000D02*
X67175000Y-155750000D01*
X68425000Y-157250000D02*
X68425000Y-155250000D01*
X67175000Y-157250000D02*
X68425000Y-157250000D01*
X67175000Y-155250000D02*
X67175000Y-157250000D01*
X68425000Y-155250000D02*
X67175000Y-155250000D01*
X62875000Y-160500000D02*
X61625000Y-160500000D01*
X61625000Y-160500000D02*
X61625000Y-162500000D01*
X61625000Y-162500000D02*
X62875000Y-162500000D01*
X62875000Y-162500000D02*
X62875000Y-160500000D01*
X62875000Y-161000000D02*
X61625000Y-161000000D01*
X62900000Y-162000000D02*
X61625000Y-162000000D01*
D11*
X62985000Y-166485000D02*
X62985000Y-164200000D01*
X61515000Y-166485000D02*
X62985000Y-166485000D01*
X61515000Y-164200000D02*
X61515000Y-166485000D01*
D10*
X81800000Y-175000000D02*
X90200000Y-175000000D01*
X90200000Y-165800000D02*
X90200000Y-175000000D01*
X81800000Y-165800000D02*
X90200000Y-165800000D01*
X81800000Y-175000000D02*
X81800000Y-165800000D01*
X73300000Y-175000000D02*
X81700000Y-175000000D01*
X81700000Y-165800000D02*
X81700000Y-175000000D01*
X73300000Y-165800000D02*
X81700000Y-165800000D01*
X73300000Y-175000000D02*
X73300000Y-165800000D01*
X101000000Y-158700000D02*
X101000000Y-150300000D01*
X91800000Y-150300000D02*
X101000000Y-150300000D01*
X91800000Y-158700000D02*
X91800000Y-150300000D01*
X101000000Y-158700000D02*
X91800000Y-158700000D01*
X64800000Y-175000000D02*
X73200000Y-175000000D01*
X73200000Y-165800000D02*
X73200000Y-175000000D01*
X64800000Y-165800000D02*
X73200000Y-165800000D01*
X64800000Y-175000000D02*
X64800000Y-165800000D01*
X24000000Y-141800000D02*
X33200000Y-141800000D01*
X33200000Y-141800000D02*
X33200000Y-150200000D01*
X33200000Y-150200000D02*
X24000000Y-150200000D01*
X24000000Y-141800000D02*
X24000000Y-150200000D01*
X51800000Y-175000000D02*
X60200000Y-175000000D01*
X60200000Y-165800000D02*
X60200000Y-175000000D01*
X51800000Y-165800000D02*
X60200000Y-165800000D01*
X51800000Y-175000000D02*
X51800000Y-165800000D01*
X43300000Y-175000000D02*
X51700000Y-175000000D01*
X51700000Y-165800000D02*
X51700000Y-175000000D01*
X43300000Y-165800000D02*
X51700000Y-165800000D01*
X43300000Y-175000000D02*
X43300000Y-165800000D01*
X34800000Y-175000000D02*
X43200000Y-175000000D01*
X43200000Y-165800000D02*
X43200000Y-175000000D01*
X34800000Y-165800000D02*
X43200000Y-165800000D01*
X34800000Y-175000000D02*
X34800000Y-165800000D01*
X52125000Y-156500000D02*
X53375000Y-156500000D01*
X53375000Y-156500000D02*
X53375000Y-154500000D01*
X53375000Y-154500000D02*
X52125000Y-154500000D01*
X52125000Y-154500000D02*
X52125000Y-156500000D01*
X52125000Y-156000000D02*
X53375000Y-156000000D01*
X52100000Y-155000000D02*
X53375000Y-155000000D01*
X58775000Y-157200000D02*
X60025000Y-157200000D01*
X60025000Y-157200000D02*
X60025000Y-155200000D01*
X60025000Y-155200000D02*
X58775000Y-155200000D01*
X58775000Y-155200000D02*
X58775000Y-157200000D01*
X58775000Y-156700000D02*
X60025000Y-156700000D01*
X58750000Y-155700000D02*
X60025000Y-155700000D01*
X64350000Y-155750000D02*
X65625000Y-155750000D01*
X64375000Y-156750000D02*
X65625000Y-156750000D01*
X64375000Y-155250000D02*
X64375000Y-157250000D01*
X65625000Y-155250000D02*
X64375000Y-155250000D01*
X65625000Y-157250000D02*
X65625000Y-155250000D01*
X64375000Y-157250000D02*
X65625000Y-157250000D01*
X61550000Y-155700000D02*
X62825000Y-155700000D01*
X61575000Y-156700000D02*
X62825000Y-156700000D01*
X61575000Y-155200000D02*
X61575000Y-157200000D01*
X62825000Y-155200000D02*
X61575000Y-155200000D01*
X62825000Y-157200000D02*
X62825000Y-155200000D01*
X61575000Y-157200000D02*
X62825000Y-157200000D01*
X66975000Y-142900000D02*
X68225000Y-142900000D01*
X68225000Y-142900000D02*
X68225000Y-140900000D01*
X68225000Y-140900000D02*
X66975000Y-140900000D01*
X66975000Y-140900000D02*
X66975000Y-142900000D01*
X66975000Y-142400000D02*
X68225000Y-142400000D01*
X66950000Y-141400000D02*
X68225000Y-141400000D01*
X68850000Y-141400000D02*
X70125000Y-141400000D01*
X68875000Y-142400000D02*
X70125000Y-142400000D01*
X68875000Y-140900000D02*
X68875000Y-142900000D01*
X70125000Y-140900000D02*
X68875000Y-140900000D01*
X70125000Y-142900000D02*
X70125000Y-140900000D01*
X68875000Y-142900000D02*
X70125000Y-142900000D01*
X73625000Y-146250000D02*
X74875000Y-146250000D01*
X74875000Y-146250000D02*
X74875000Y-144250000D01*
X74875000Y-144250000D02*
X73625000Y-144250000D01*
X73625000Y-144250000D02*
X73625000Y-146250000D01*
X73625000Y-145750000D02*
X74875000Y-145750000D01*
X73600000Y-144750000D02*
X74875000Y-144750000D01*
D11*
X38750000Y-150800000D02*
G75*
G02X39450000Y-150100000I700000J0D01*
G01*
X40050000Y-150100000D02*
G75*
G02X40750000Y-150800000I0J-700000D01*
G01*
X40750000Y-152200000D02*
G75*
G02X40050000Y-152900000I-700000J0D01*
G01*
X39450000Y-152900000D02*
G75*
G02X38750000Y-152200000I0J700000D01*
G01*
X40050000Y-152900000D02*
X39450000Y-152900000D01*
X40750000Y-150800000D02*
X40750000Y-152200000D01*
X39450000Y-150100000D02*
X40050000Y-150100000D01*
X38750000Y-152200000D02*
X38750000Y-150800000D01*
X42750000Y-152200000D02*
X42750000Y-150800000D01*
X43450000Y-150100000D02*
X44050000Y-150100000D01*
X44750000Y-150800000D02*
X44750000Y-152200000D01*
X44050000Y-152900000D02*
X43450000Y-152900000D01*
X43450000Y-152900000D02*
G75*
G02X42750000Y-152200000I0J700000D01*
G01*
X44750000Y-152200000D02*
G75*
G02X44050000Y-152900000I-700000J0D01*
G01*
X44050000Y-150100000D02*
G75*
G02X44750000Y-150800000I0J-700000D01*
G01*
X42750000Y-150800000D02*
G75*
G02X43450000Y-150100000I700000J0D01*
G01*
X46750000Y-150800000D02*
G75*
G02X47450000Y-150100000I700000J0D01*
G01*
X48050000Y-150100000D02*
G75*
G02X48750000Y-150800000I0J-700000D01*
G01*
X48750000Y-152200000D02*
G75*
G02X48050000Y-152900000I-700000J0D01*
G01*
X47450000Y-152900000D02*
G75*
G02X46750000Y-152200000I0J700000D01*
G01*
X48050000Y-152900000D02*
X47450000Y-152900000D01*
X48750000Y-150800000D02*
X48750000Y-152200000D01*
X47450000Y-150100000D02*
X48050000Y-150100000D01*
X46750000Y-152200000D02*
X46750000Y-150800000D01*
D10*
X71125000Y-155250000D02*
X69875000Y-155250000D01*
X69875000Y-155250000D02*
X69875000Y-157250000D01*
X69875000Y-157250000D02*
X71125000Y-157250000D01*
X71125000Y-157250000D02*
X71125000Y-155250000D01*
X71125000Y-155750000D02*
X69875000Y-155750000D01*
X71150000Y-156750000D02*
X69875000Y-156750000D01*
X54100000Y-155000000D02*
X55375000Y-155000000D01*
X54125000Y-156000000D02*
X55375000Y-156000000D01*
X54125000Y-154500000D02*
X54125000Y-156500000D01*
X55375000Y-154500000D02*
X54125000Y-154500000D01*
X55375000Y-156500000D02*
X55375000Y-154500000D01*
X54125000Y-156500000D02*
X55375000Y-156500000D01*
X38100000Y-155000000D02*
X39375000Y-155000000D01*
X38125000Y-156000000D02*
X39375000Y-156000000D01*
X38125000Y-154500000D02*
X38125000Y-156500000D01*
X39375000Y-154500000D02*
X38125000Y-154500000D01*
X39375000Y-156500000D02*
X39375000Y-154500000D01*
X38125000Y-156500000D02*
X39375000Y-156500000D01*
X40125000Y-156500000D02*
X41375000Y-156500000D01*
X41375000Y-156500000D02*
X41375000Y-154500000D01*
X41375000Y-154500000D02*
X40125000Y-154500000D01*
X40125000Y-154500000D02*
X40125000Y-156500000D01*
X40125000Y-156000000D02*
X41375000Y-156000000D01*
X40100000Y-155000000D02*
X41375000Y-155000000D01*
X42125000Y-156500000D02*
X43375000Y-156500000D01*
X43375000Y-156500000D02*
X43375000Y-154500000D01*
X43375000Y-154500000D02*
X42125000Y-154500000D01*
X42125000Y-154500000D02*
X42125000Y-156500000D01*
X42125000Y-156000000D02*
X43375000Y-156000000D01*
X42100000Y-155000000D02*
X43375000Y-155000000D01*
X44100000Y-155000000D02*
X45375000Y-155000000D01*
X44125000Y-156000000D02*
X45375000Y-156000000D01*
X44125000Y-154500000D02*
X44125000Y-156500000D01*
X45375000Y-154500000D02*
X44125000Y-154500000D01*
X45375000Y-156500000D02*
X45375000Y-154500000D01*
X44125000Y-156500000D02*
X45375000Y-156500000D01*
X46125000Y-156500000D02*
X47375000Y-156500000D01*
X47375000Y-156500000D02*
X47375000Y-154500000D01*
X47375000Y-154500000D02*
X46125000Y-154500000D01*
X46125000Y-154500000D02*
X46125000Y-156500000D01*
X46125000Y-156000000D02*
X47375000Y-156000000D01*
X46100000Y-155000000D02*
X47375000Y-155000000D01*
X48100000Y-155000000D02*
X49375000Y-155000000D01*
X48125000Y-156000000D02*
X49375000Y-156000000D01*
X48125000Y-154500000D02*
X48125000Y-156500000D01*
X49375000Y-154500000D02*
X48125000Y-154500000D01*
X49375000Y-156500000D02*
X49375000Y-154500000D01*
X48125000Y-156500000D02*
X49375000Y-156500000D01*
X103500000Y-163000000D02*
G75*
G03X103500000Y-163000000I-3000000J0D01*
G01*
X103500000Y-138000000D02*
G75*
G03X103500000Y-138000000I-3000000J0D01*
G01*
X27500000Y-163000000D02*
G75*
G03X27500000Y-163000000I-3000000J0D01*
G01*
X27500000Y-138000000D02*
G75*
G03X27500000Y-138000000I-3000000J0D01*
G01*
X70950000Y-151225000D02*
X70950000Y-146775000D01*
X64050000Y-152750000D02*
X64050000Y-146775000D01*
D11*
X85560000Y-149000000D02*
X85560000Y-147050000D01*
X85560000Y-149000000D02*
X85560000Y-150950000D01*
X75440000Y-149000000D02*
X75440000Y-147050000D01*
X75440000Y-149000000D02*
X75440000Y-152450000D01*
X86110000Y-157900000D02*
X86110000Y-156100000D01*
X82890000Y-156100000D02*
X82890000Y-158550000D01*
X75890000Y-156100000D02*
X75890000Y-158550000D01*
X79110000Y-157900000D02*
X79110000Y-156100000D01*
D10*
X77752380Y-143583333D02*
X78466666Y-143583333D01*
X78609523Y-143630952D01*
X78704761Y-143726190D01*
X78752380Y-143869047D01*
X78752380Y-143964285D01*
X78752380Y-143107142D02*
X77752380Y-143107142D01*
X77752380Y-142726190D01*
X77800000Y-142630952D01*
X77847619Y-142583333D01*
X77942857Y-142535714D01*
X78085714Y-142535714D01*
X78180952Y-142583333D01*
X78228571Y-142630952D01*
X78276190Y-142726190D01*
X78276190Y-143107142D01*
X77752380Y-142202380D02*
X77752380Y-141535714D01*
X78752380Y-141964285D01*
D12*
X71266666Y-139435714D02*
X71228571Y-139473809D01*
X71114285Y-139511904D01*
X71038095Y-139511904D01*
X70923809Y-139473809D01*
X70847619Y-139397619D01*
X70809523Y-139321428D01*
X70771428Y-139169047D01*
X70771428Y-139054761D01*
X70809523Y-138902380D01*
X70847619Y-138826190D01*
X70923809Y-138750000D01*
X71038095Y-138711904D01*
X71114285Y-138711904D01*
X71228571Y-138750000D01*
X71266666Y-138788095D01*
X71647619Y-139511904D02*
X71800000Y-139511904D01*
X71876190Y-139473809D01*
X71914285Y-139435714D01*
X71990476Y-139321428D01*
X72028571Y-139169047D01*
X72028571Y-138864285D01*
X71990476Y-138788095D01*
X71952380Y-138750000D01*
X71876190Y-138711904D01*
X71723809Y-138711904D01*
X71647619Y-138750000D01*
X71609523Y-138788095D01*
X71571428Y-138864285D01*
X71571428Y-139054761D01*
X71609523Y-139130952D01*
X71647619Y-139169047D01*
X71723809Y-139207142D01*
X71876190Y-139207142D01*
X71952380Y-139169047D01*
X71990476Y-139130952D01*
X72028571Y-139054761D01*
D13*
X26392857Y-155178571D02*
X26392857Y-153678571D01*
X26964285Y-153678571D01*
X27107142Y-153750000D01*
X27178571Y-153821428D01*
X27250000Y-153964285D01*
X27250000Y-154178571D01*
X27178571Y-154321428D01*
X27107142Y-154392857D01*
X26964285Y-154464285D01*
X26392857Y-154464285D01*
X28678571Y-155178571D02*
X27821428Y-155178571D01*
X28250000Y-155178571D02*
X28250000Y-153678571D01*
X28107142Y-153892857D01*
X27964285Y-154035714D01*
X27821428Y-154107142D01*
D10*
X60916666Y-173452380D02*
X60916666Y-174166666D01*
X60869047Y-174309523D01*
X60773809Y-174404761D01*
X60630952Y-174452380D01*
X60535714Y-174452380D01*
X61916666Y-174452380D02*
X61345238Y-174452380D01*
X61630952Y-174452380D02*
X61630952Y-173452380D01*
X61535714Y-173595238D01*
X61440476Y-173690476D01*
X61345238Y-173738095D01*
X97666666Y-173202380D02*
X97666666Y-173916666D01*
X97619047Y-174059523D01*
X97523809Y-174154761D01*
X97380952Y-174202380D01*
X97285714Y-174202380D01*
X98095238Y-173297619D02*
X98142857Y-173250000D01*
X98238095Y-173202380D01*
X98476190Y-173202380D01*
X98571428Y-173250000D01*
X98619047Y-173297619D01*
X98666666Y-173392857D01*
X98666666Y-173488095D01*
X98619047Y-173630952D01*
X98047619Y-174202380D01*
X98666666Y-174202380D01*
X65809523Y-131404761D02*
X65952380Y-131452380D01*
X66190476Y-131452380D01*
X66285714Y-131404761D01*
X66333333Y-131357142D01*
X66380952Y-131261904D01*
X66380952Y-131166666D01*
X66333333Y-131071428D01*
X66285714Y-131023809D01*
X66190476Y-130976190D01*
X66000000Y-130928571D01*
X65904761Y-130880952D01*
X65857142Y-130833333D01*
X65809523Y-130738095D01*
X65809523Y-130642857D01*
X65857142Y-130547619D01*
X65904761Y-130500000D01*
X66000000Y-130452380D01*
X66238095Y-130452380D01*
X66380952Y-130500000D01*
X67142857Y-130928571D02*
X66809523Y-130928571D01*
X66809523Y-131452380D02*
X66809523Y-130452380D01*
X67285714Y-130452380D01*
X68190476Y-131452380D02*
X67619047Y-131452380D01*
X67904761Y-131452380D02*
X67904761Y-130452380D01*
X67809523Y-130595238D01*
X67714285Y-130690476D01*
X67619047Y-130738095D01*
X61488095Y-131404761D02*
X61630952Y-131452380D01*
X61869047Y-131452380D01*
X61964285Y-131404761D01*
X62011904Y-131357142D01*
X62059523Y-131261904D01*
X62059523Y-131166666D01*
X62011904Y-131071428D01*
X61964285Y-131023809D01*
X61869047Y-130976190D01*
X61678571Y-130928571D01*
X61583333Y-130880952D01*
X61535714Y-130833333D01*
X61488095Y-130738095D01*
X61488095Y-130642857D01*
X61535714Y-130547619D01*
X61583333Y-130500000D01*
X61678571Y-130452380D01*
X61916666Y-130452380D01*
X62059523Y-130500000D01*
X63011904Y-130500000D02*
X62916666Y-130452380D01*
X62773809Y-130452380D01*
X62630952Y-130500000D01*
X62535714Y-130595238D01*
X62488095Y-130690476D01*
X62440476Y-130880952D01*
X62440476Y-131023809D01*
X62488095Y-131214285D01*
X62535714Y-131309523D01*
X62630952Y-131404761D01*
X62773809Y-131452380D01*
X62869047Y-131452380D01*
X63011904Y-131404761D01*
X63059523Y-131357142D01*
X63059523Y-131023809D01*
X62869047Y-131023809D01*
X63678571Y-130452380D02*
X63773809Y-130452380D01*
X63869047Y-130500000D01*
X63916666Y-130547619D01*
X63964285Y-130642857D01*
X64011904Y-130833333D01*
X64011904Y-131071428D01*
X63964285Y-131261904D01*
X63916666Y-131357142D01*
X63869047Y-131404761D01*
X63773809Y-131452380D01*
X63678571Y-131452380D01*
X63583333Y-131404761D01*
X63535714Y-131357142D01*
X63488095Y-131261904D01*
X63440476Y-131071428D01*
X63440476Y-130833333D01*
X63488095Y-130642857D01*
X63535714Y-130547619D01*
X63583333Y-130500000D01*
X63678571Y-130452380D01*
X69559523Y-131404761D02*
X69702380Y-131452380D01*
X69940476Y-131452380D01*
X70035714Y-131404761D01*
X70083333Y-131357142D01*
X70130952Y-131261904D01*
X70130952Y-131166666D01*
X70083333Y-131071428D01*
X70035714Y-131023809D01*
X69940476Y-130976190D01*
X69750000Y-130928571D01*
X69654761Y-130880952D01*
X69607142Y-130833333D01*
X69559523Y-130738095D01*
X69559523Y-130642857D01*
X69607142Y-130547619D01*
X69654761Y-130500000D01*
X69750000Y-130452380D01*
X69988095Y-130452380D01*
X70130952Y-130500000D01*
X70892857Y-130928571D02*
X70559523Y-130928571D01*
X70559523Y-131452380D02*
X70559523Y-130452380D01*
X71035714Y-130452380D01*
X71607142Y-130452380D02*
X71702380Y-130452380D01*
X71797619Y-130500000D01*
X71845238Y-130547619D01*
X71892857Y-130642857D01*
X71940476Y-130833333D01*
X71940476Y-131071428D01*
X71892857Y-131261904D01*
X71845238Y-131357142D01*
X71797619Y-131404761D01*
X71702380Y-131452380D01*
X71607142Y-131452380D01*
X71511904Y-131404761D01*
X71464285Y-131357142D01*
X71416666Y-131261904D01*
X71369047Y-131071428D01*
X71369047Y-130833333D01*
X71416666Y-130642857D01*
X71464285Y-130547619D01*
X71511904Y-130500000D01*
X71607142Y-130452380D01*
X57988095Y-131404761D02*
X58130952Y-131452380D01*
X58369047Y-131452380D01*
X58464285Y-131404761D01*
X58511904Y-131357142D01*
X58559523Y-131261904D01*
X58559523Y-131166666D01*
X58511904Y-131071428D01*
X58464285Y-131023809D01*
X58369047Y-130976190D01*
X58178571Y-130928571D01*
X58083333Y-130880952D01*
X58035714Y-130833333D01*
X57988095Y-130738095D01*
X57988095Y-130642857D01*
X58035714Y-130547619D01*
X58083333Y-130500000D01*
X58178571Y-130452380D01*
X58416666Y-130452380D01*
X58559523Y-130500000D01*
X59511904Y-130500000D02*
X59416666Y-130452380D01*
X59273809Y-130452380D01*
X59130952Y-130500000D01*
X59035714Y-130595238D01*
X58988095Y-130690476D01*
X58940476Y-130880952D01*
X58940476Y-131023809D01*
X58988095Y-131214285D01*
X59035714Y-131309523D01*
X59130952Y-131404761D01*
X59273809Y-131452380D01*
X59369047Y-131452380D01*
X59511904Y-131404761D01*
X59559523Y-131357142D01*
X59559523Y-131023809D01*
X59369047Y-131023809D01*
X60511904Y-131452380D02*
X59940476Y-131452380D01*
X60226190Y-131452380D02*
X60226190Y-130452380D01*
X60130952Y-130595238D01*
X60035714Y-130690476D01*
X59940476Y-130738095D01*
D12*
X67616666Y-154035714D02*
X67578571Y-154073809D01*
X67464285Y-154111904D01*
X67388095Y-154111904D01*
X67273809Y-154073809D01*
X67197619Y-153997619D01*
X67159523Y-153921428D01*
X67121428Y-153769047D01*
X67121428Y-153654761D01*
X67159523Y-153502380D01*
X67197619Y-153426190D01*
X67273809Y-153350000D01*
X67388095Y-153311904D01*
X67464285Y-153311904D01*
X67578571Y-153350000D01*
X67616666Y-153388095D01*
X68340476Y-153311904D02*
X67959523Y-153311904D01*
X67921428Y-153692857D01*
X67959523Y-153654761D01*
X68035714Y-153616666D01*
X68226190Y-153616666D01*
X68302380Y-153654761D01*
X68340476Y-153692857D01*
X68378571Y-153769047D01*
X68378571Y-153959523D01*
X68340476Y-154035714D01*
X68302380Y-154073809D01*
X68226190Y-154111904D01*
X68035714Y-154111904D01*
X67959523Y-154073809D01*
X67921428Y-154035714D01*
X62116666Y-159611904D02*
X61850000Y-159230952D01*
X61659523Y-159611904D02*
X61659523Y-158811904D01*
X61964285Y-158811904D01*
X62040476Y-158850000D01*
X62078571Y-158888095D01*
X62116666Y-158964285D01*
X62116666Y-159078571D01*
X62078571Y-159154761D01*
X62040476Y-159192857D01*
X61964285Y-159230952D01*
X61659523Y-159230952D01*
X62573809Y-159154761D02*
X62497619Y-159116666D01*
X62459523Y-159078571D01*
X62421428Y-159002380D01*
X62421428Y-158964285D01*
X62459523Y-158888095D01*
X62497619Y-158850000D01*
X62573809Y-158811904D01*
X62726190Y-158811904D01*
X62802380Y-158850000D01*
X62840476Y-158888095D01*
X62878571Y-158964285D01*
X62878571Y-159002380D01*
X62840476Y-159078571D01*
X62802380Y-159116666D01*
X62726190Y-159154761D01*
X62573809Y-159154761D01*
X62497619Y-159192857D01*
X62459523Y-159230952D01*
X62421428Y-159307142D01*
X62421428Y-159459523D01*
X62459523Y-159535714D01*
X62497619Y-159573809D01*
X62573809Y-159611904D01*
X62726190Y-159611904D01*
X62802380Y-159573809D01*
X62840476Y-159535714D01*
X62878571Y-159459523D01*
X62878571Y-159307142D01*
X62840476Y-159230952D01*
X62802380Y-159192857D01*
X62726190Y-159154761D01*
D10*
X61511904Y-167702380D02*
X61511904Y-166702380D01*
X61750000Y-166702380D01*
X61892857Y-166750000D01*
X61988095Y-166845238D01*
X62035714Y-166940476D01*
X62083333Y-167130952D01*
X62083333Y-167273809D01*
X62035714Y-167464285D01*
X61988095Y-167559523D01*
X61892857Y-167654761D01*
X61750000Y-167702380D01*
X61511904Y-167702380D01*
X63035714Y-167702380D02*
X62464285Y-167702380D01*
X62750000Y-167702380D02*
X62750000Y-166702380D01*
X62654761Y-166845238D01*
X62559523Y-166940476D01*
X62464285Y-166988095D01*
D13*
X85321428Y-169892857D02*
X86821428Y-169892857D01*
X86821428Y-170464285D01*
X86750000Y-170607142D01*
X86678571Y-170678571D01*
X86535714Y-170750000D01*
X86321428Y-170750000D01*
X86178571Y-170678571D01*
X86107142Y-170607142D01*
X86035714Y-170464285D01*
X86035714Y-169892857D01*
X85321428Y-171464285D02*
X85321428Y-171750000D01*
X85392857Y-171892857D01*
X85464285Y-171964285D01*
X85678571Y-172107142D01*
X85964285Y-172178571D01*
X86535714Y-172178571D01*
X86678571Y-172107142D01*
X86750000Y-172035714D01*
X86821428Y-171892857D01*
X86821428Y-171607142D01*
X86750000Y-171464285D01*
X86678571Y-171392857D01*
X86535714Y-171321428D01*
X86178571Y-171321428D01*
X86035714Y-171392857D01*
X85964285Y-171464285D01*
X85892857Y-171607142D01*
X85892857Y-171892857D01*
X85964285Y-172035714D01*
X86035714Y-172107142D01*
X86178571Y-172178571D01*
X76821428Y-169892857D02*
X78321428Y-169892857D01*
X78321428Y-170464285D01*
X78250000Y-170607142D01*
X78178571Y-170678571D01*
X78035714Y-170750000D01*
X77821428Y-170750000D01*
X77678571Y-170678571D01*
X77607142Y-170607142D01*
X77535714Y-170464285D01*
X77535714Y-169892857D01*
X77678571Y-171607142D02*
X77750000Y-171464285D01*
X77821428Y-171392857D01*
X77964285Y-171321428D01*
X78035714Y-171321428D01*
X78178571Y-171392857D01*
X78250000Y-171464285D01*
X78321428Y-171607142D01*
X78321428Y-171892857D01*
X78250000Y-172035714D01*
X78178571Y-172107142D01*
X78035714Y-172178571D01*
X77964285Y-172178571D01*
X77821428Y-172107142D01*
X77750000Y-172035714D01*
X77678571Y-171892857D01*
X77678571Y-171607142D01*
X77607142Y-171464285D01*
X77535714Y-171392857D01*
X77392857Y-171321428D01*
X77107142Y-171321428D01*
X76964285Y-171392857D01*
X76892857Y-171464285D01*
X76821428Y-171607142D01*
X76821428Y-171892857D01*
X76892857Y-172035714D01*
X76964285Y-172107142D01*
X77107142Y-172178571D01*
X77392857Y-172178571D01*
X77535714Y-172107142D01*
X77607142Y-172035714D01*
X77678571Y-171892857D01*
X95392857Y-155428571D02*
X95392857Y-153928571D01*
X95964285Y-153928571D01*
X96107142Y-154000000D01*
X96178571Y-154071428D01*
X96250000Y-154214285D01*
X96250000Y-154428571D01*
X96178571Y-154571428D01*
X96107142Y-154642857D01*
X95964285Y-154714285D01*
X95392857Y-154714285D01*
X96750000Y-153928571D02*
X97750000Y-153928571D01*
X97107142Y-155428571D01*
X68321428Y-169642857D02*
X69821428Y-169642857D01*
X69821428Y-170214285D01*
X69750000Y-170357142D01*
X69678571Y-170428571D01*
X69535714Y-170500000D01*
X69321428Y-170500000D01*
X69178571Y-170428571D01*
X69107142Y-170357142D01*
X69035714Y-170214285D01*
X69035714Y-169642857D01*
X69821428Y-171785714D02*
X69821428Y-171500000D01*
X69750000Y-171357142D01*
X69678571Y-171285714D01*
X69464285Y-171142857D01*
X69178571Y-171071428D01*
X68607142Y-171071428D01*
X68464285Y-171142857D01*
X68392857Y-171214285D01*
X68321428Y-171357142D01*
X68321428Y-171642857D01*
X68392857Y-171785714D01*
X68464285Y-171857142D01*
X68607142Y-171928571D01*
X68964285Y-171928571D01*
X69107142Y-171857142D01*
X69178571Y-171785714D01*
X69250000Y-171642857D01*
X69250000Y-171357142D01*
X69178571Y-171214285D01*
X69107142Y-171142857D01*
X68964285Y-171071428D01*
X26392857Y-147178571D02*
X26392857Y-145678571D01*
X26964285Y-145678571D01*
X27107142Y-145750000D01*
X27178571Y-145821428D01*
X27250000Y-145964285D01*
X27250000Y-146178571D01*
X27178571Y-146321428D01*
X27107142Y-146392857D01*
X26964285Y-146464285D01*
X26392857Y-146464285D01*
X28607142Y-145678571D02*
X27892857Y-145678571D01*
X27821428Y-146392857D01*
X27892857Y-146321428D01*
X28035714Y-146250000D01*
X28392857Y-146250000D01*
X28535714Y-146321428D01*
X28607142Y-146392857D01*
X28678571Y-146535714D01*
X28678571Y-146892857D01*
X28607142Y-147035714D01*
X28535714Y-147107142D01*
X28392857Y-147178571D01*
X28035714Y-147178571D01*
X27892857Y-147107142D01*
X27821428Y-147035714D01*
X55821428Y-169892857D02*
X57321428Y-169892857D01*
X57321428Y-170464285D01*
X57250000Y-170607142D01*
X57178571Y-170678571D01*
X57035714Y-170750000D01*
X56821428Y-170750000D01*
X56678571Y-170678571D01*
X56607142Y-170607142D01*
X56535714Y-170464285D01*
X56535714Y-169892857D01*
X56821428Y-172035714D02*
X55821428Y-172035714D01*
X57392857Y-171678571D02*
X56321428Y-171321428D01*
X56321428Y-172250000D01*
X46821428Y-169892857D02*
X48321428Y-169892857D01*
X48321428Y-170464285D01*
X48250000Y-170607142D01*
X48178571Y-170678571D01*
X48035714Y-170750000D01*
X47821428Y-170750000D01*
X47678571Y-170678571D01*
X47607142Y-170607142D01*
X47535714Y-170464285D01*
X47535714Y-169892857D01*
X48321428Y-171250000D02*
X48321428Y-172178571D01*
X47750000Y-171678571D01*
X47750000Y-171892857D01*
X47678571Y-172035714D01*
X47607142Y-172107142D01*
X47464285Y-172178571D01*
X47107142Y-172178571D01*
X46964285Y-172107142D01*
X46892857Y-172035714D01*
X46821428Y-171892857D01*
X46821428Y-171464285D01*
X46892857Y-171321428D01*
X46964285Y-171250000D01*
X37821428Y-169892857D02*
X39321428Y-169892857D01*
X39321428Y-170464285D01*
X39250000Y-170607142D01*
X39178571Y-170678571D01*
X39035714Y-170750000D01*
X38821428Y-170750000D01*
X38678571Y-170678571D01*
X38607142Y-170607142D01*
X38535714Y-170464285D01*
X38535714Y-169892857D01*
X39178571Y-171321428D02*
X39250000Y-171392857D01*
X39321428Y-171535714D01*
X39321428Y-171892857D01*
X39250000Y-172035714D01*
X39178571Y-172107142D01*
X39035714Y-172178571D01*
X38892857Y-172178571D01*
X38678571Y-172107142D01*
X37821428Y-171250000D01*
X37821428Y-172178571D01*
D12*
X52616666Y-153035714D02*
X52578571Y-153073809D01*
X52464285Y-153111904D01*
X52388095Y-153111904D01*
X52273809Y-153073809D01*
X52197619Y-152997619D01*
X52159523Y-152921428D01*
X52121428Y-152769047D01*
X52121428Y-152654761D01*
X52159523Y-152502380D01*
X52197619Y-152426190D01*
X52273809Y-152350000D01*
X52388095Y-152311904D01*
X52464285Y-152311904D01*
X52578571Y-152350000D01*
X52616666Y-152388095D01*
X53378571Y-153111904D02*
X52921428Y-153111904D01*
X53150000Y-153111904D02*
X53150000Y-152311904D01*
X53073809Y-152426190D01*
X52997619Y-152502380D01*
X52921428Y-152540476D01*
X59366666Y-153785714D02*
X59328571Y-153823809D01*
X59214285Y-153861904D01*
X59138095Y-153861904D01*
X59023809Y-153823809D01*
X58947619Y-153747619D01*
X58909523Y-153671428D01*
X58871428Y-153519047D01*
X58871428Y-153404761D01*
X58909523Y-153252380D01*
X58947619Y-153176190D01*
X59023809Y-153100000D01*
X59138095Y-153061904D01*
X59214285Y-153061904D01*
X59328571Y-153100000D01*
X59366666Y-153138095D01*
X59671428Y-153138095D02*
X59709523Y-153100000D01*
X59785714Y-153061904D01*
X59976190Y-153061904D01*
X60052380Y-153100000D01*
X60090476Y-153138095D01*
X60128571Y-153214285D01*
X60128571Y-153290476D01*
X60090476Y-153404761D01*
X59633333Y-153861904D01*
X60128571Y-153861904D01*
X64866666Y-154035714D02*
X64828571Y-154073809D01*
X64714285Y-154111904D01*
X64638095Y-154111904D01*
X64523809Y-154073809D01*
X64447619Y-153997619D01*
X64409523Y-153921428D01*
X64371428Y-153769047D01*
X64371428Y-153654761D01*
X64409523Y-153502380D01*
X64447619Y-153426190D01*
X64523809Y-153350000D01*
X64638095Y-153311904D01*
X64714285Y-153311904D01*
X64828571Y-153350000D01*
X64866666Y-153388095D01*
X65133333Y-153311904D02*
X65628571Y-153311904D01*
X65361904Y-153616666D01*
X65476190Y-153616666D01*
X65552380Y-153654761D01*
X65590476Y-153692857D01*
X65628571Y-153769047D01*
X65628571Y-153959523D01*
X65590476Y-154035714D01*
X65552380Y-154073809D01*
X65476190Y-154111904D01*
X65247619Y-154111904D01*
X65171428Y-154073809D01*
X65133333Y-154035714D01*
X62116666Y-153785714D02*
X62078571Y-153823809D01*
X61964285Y-153861904D01*
X61888095Y-153861904D01*
X61773809Y-153823809D01*
X61697619Y-153747619D01*
X61659523Y-153671428D01*
X61621428Y-153519047D01*
X61621428Y-153404761D01*
X61659523Y-153252380D01*
X61697619Y-153176190D01*
X61773809Y-153100000D01*
X61888095Y-153061904D01*
X61964285Y-153061904D01*
X62078571Y-153100000D01*
X62116666Y-153138095D01*
X62802380Y-153328571D02*
X62802380Y-153861904D01*
X62611904Y-153023809D02*
X62421428Y-153595238D01*
X62916666Y-153595238D01*
X67466666Y-139435714D02*
X67428571Y-139473809D01*
X67314285Y-139511904D01*
X67238095Y-139511904D01*
X67123809Y-139473809D01*
X67047619Y-139397619D01*
X67009523Y-139321428D01*
X66971428Y-139169047D01*
X66971428Y-139054761D01*
X67009523Y-138902380D01*
X67047619Y-138826190D01*
X67123809Y-138750000D01*
X67238095Y-138711904D01*
X67314285Y-138711904D01*
X67428571Y-138750000D01*
X67466666Y-138788095D01*
X68152380Y-138711904D02*
X68000000Y-138711904D01*
X67923809Y-138750000D01*
X67885714Y-138788095D01*
X67809523Y-138902380D01*
X67771428Y-139054761D01*
X67771428Y-139359523D01*
X67809523Y-139435714D01*
X67847619Y-139473809D01*
X67923809Y-139511904D01*
X68076190Y-139511904D01*
X68152380Y-139473809D01*
X68190476Y-139435714D01*
X68228571Y-139359523D01*
X68228571Y-139169047D01*
X68190476Y-139092857D01*
X68152380Y-139054761D01*
X68076190Y-139016666D01*
X67923809Y-139016666D01*
X67847619Y-139054761D01*
X67809523Y-139092857D01*
X67771428Y-139169047D01*
X69366666Y-139435714D02*
X69328571Y-139473809D01*
X69214285Y-139511904D01*
X69138095Y-139511904D01*
X69023809Y-139473809D01*
X68947619Y-139397619D01*
X68909523Y-139321428D01*
X68871428Y-139169047D01*
X68871428Y-139054761D01*
X68909523Y-138902380D01*
X68947619Y-138826190D01*
X69023809Y-138750000D01*
X69138095Y-138711904D01*
X69214285Y-138711904D01*
X69328571Y-138750000D01*
X69366666Y-138788095D01*
X69633333Y-138711904D02*
X70166666Y-138711904D01*
X69823809Y-139511904D01*
X74116666Y-142785714D02*
X74078571Y-142823809D01*
X73964285Y-142861904D01*
X73888095Y-142861904D01*
X73773809Y-142823809D01*
X73697619Y-142747619D01*
X73659523Y-142671428D01*
X73621428Y-142519047D01*
X73621428Y-142404761D01*
X73659523Y-142252380D01*
X73697619Y-142176190D01*
X73773809Y-142100000D01*
X73888095Y-142061904D01*
X73964285Y-142061904D01*
X74078571Y-142100000D01*
X74116666Y-142138095D01*
X74573809Y-142404761D02*
X74497619Y-142366666D01*
X74459523Y-142328571D01*
X74421428Y-142252380D01*
X74421428Y-142214285D01*
X74459523Y-142138095D01*
X74497619Y-142100000D01*
X74573809Y-142061904D01*
X74726190Y-142061904D01*
X74802380Y-142100000D01*
X74840476Y-142138095D01*
X74878571Y-142214285D01*
X74878571Y-142252380D01*
X74840476Y-142328571D01*
X74802380Y-142366666D01*
X74726190Y-142404761D01*
X74573809Y-142404761D01*
X74497619Y-142442857D01*
X74459523Y-142480952D01*
X74421428Y-142557142D01*
X74421428Y-142709523D01*
X74459523Y-142785714D01*
X74497619Y-142823809D01*
X74573809Y-142861904D01*
X74726190Y-142861904D01*
X74802380Y-142823809D01*
X74840476Y-142785714D01*
X74878571Y-142709523D01*
X74878571Y-142557142D01*
X74840476Y-142480952D01*
X74802380Y-142442857D01*
X74726190Y-142404761D01*
D10*
X37402380Y-152333333D02*
X38116666Y-152333333D01*
X38259523Y-152380952D01*
X38354761Y-152476190D01*
X38402380Y-152619047D01*
X38402380Y-152714285D01*
X38402380Y-151857142D02*
X37402380Y-151857142D01*
X37402380Y-151476190D01*
X37450000Y-151380952D01*
X37497619Y-151333333D01*
X37592857Y-151285714D01*
X37735714Y-151285714D01*
X37830952Y-151333333D01*
X37878571Y-151380952D01*
X37926190Y-151476190D01*
X37926190Y-151857142D01*
X37735714Y-150428571D02*
X38402380Y-150428571D01*
X37354761Y-150666666D02*
X38069047Y-150904761D01*
X38069047Y-150285714D01*
X41402380Y-152333333D02*
X42116666Y-152333333D01*
X42259523Y-152380952D01*
X42354761Y-152476190D01*
X42402380Y-152619047D01*
X42402380Y-152714285D01*
X42402380Y-151857142D02*
X41402380Y-151857142D01*
X41402380Y-151476190D01*
X41450000Y-151380952D01*
X41497619Y-151333333D01*
X41592857Y-151285714D01*
X41735714Y-151285714D01*
X41830952Y-151333333D01*
X41878571Y-151380952D01*
X41926190Y-151476190D01*
X41926190Y-151857142D01*
X41402380Y-150380952D02*
X41402380Y-150857142D01*
X41878571Y-150904761D01*
X41830952Y-150857142D01*
X41783333Y-150761904D01*
X41783333Y-150523809D01*
X41830952Y-150428571D01*
X41878571Y-150380952D01*
X41973809Y-150333333D01*
X42211904Y-150333333D01*
X42307142Y-150380952D01*
X42354761Y-150428571D01*
X42402380Y-150523809D01*
X42402380Y-150761904D01*
X42354761Y-150857142D01*
X42307142Y-150904761D01*
X45402380Y-152333333D02*
X46116666Y-152333333D01*
X46259523Y-152380952D01*
X46354761Y-152476190D01*
X46402380Y-152619047D01*
X46402380Y-152714285D01*
X46402380Y-151857142D02*
X45402380Y-151857142D01*
X45402380Y-151476190D01*
X45450000Y-151380952D01*
X45497619Y-151333333D01*
X45592857Y-151285714D01*
X45735714Y-151285714D01*
X45830952Y-151333333D01*
X45878571Y-151380952D01*
X45926190Y-151476190D01*
X45926190Y-151857142D01*
X45402380Y-150428571D02*
X45402380Y-150619047D01*
X45450000Y-150714285D01*
X45497619Y-150761904D01*
X45640476Y-150857142D01*
X45830952Y-150904761D01*
X46211904Y-150904761D01*
X46307142Y-150857142D01*
X46354761Y-150809523D01*
X46402380Y-150714285D01*
X46402380Y-150523809D01*
X46354761Y-150428571D01*
X46307142Y-150380952D01*
X46211904Y-150333333D01*
X45973809Y-150333333D01*
X45878571Y-150380952D01*
X45830952Y-150428571D01*
X45783333Y-150523809D01*
X45783333Y-150714285D01*
X45830952Y-150809523D01*
X45878571Y-150857142D01*
X45973809Y-150904761D01*
D12*
X72361904Y-157545238D02*
X71561904Y-157545238D01*
X71561904Y-157240476D01*
X71600000Y-157164285D01*
X71638095Y-157126190D01*
X71714285Y-157088095D01*
X71828571Y-157088095D01*
X71904761Y-157126190D01*
X71942857Y-157164285D01*
X71980952Y-157240476D01*
X71980952Y-157545238D01*
X71561904Y-156859523D02*
X71561904Y-156402380D01*
X72361904Y-156630952D02*
X71561904Y-156630952D01*
X72285714Y-155678571D02*
X72323809Y-155716666D01*
X72361904Y-155830952D01*
X72361904Y-155907142D01*
X72323809Y-156021428D01*
X72247619Y-156097619D01*
X72171428Y-156135714D01*
X72019047Y-156173809D01*
X71904761Y-156173809D01*
X71752380Y-156135714D01*
X71676190Y-156097619D01*
X71600000Y-156021428D01*
X71561904Y-155907142D01*
X71561904Y-155830952D01*
X71600000Y-155716666D01*
X71638095Y-155678571D01*
X72361904Y-154916666D02*
X72361904Y-155373809D01*
X72361904Y-155145238D02*
X71561904Y-155145238D01*
X71676190Y-155221428D01*
X71752380Y-155297619D01*
X71790476Y-155373809D01*
X54616666Y-153111904D02*
X54350000Y-152730952D01*
X54159523Y-153111904D02*
X54159523Y-152311904D01*
X54464285Y-152311904D01*
X54540476Y-152350000D01*
X54578571Y-152388095D01*
X54616666Y-152464285D01*
X54616666Y-152578571D01*
X54578571Y-152654761D01*
X54540476Y-152692857D01*
X54464285Y-152730952D01*
X54159523Y-152730952D01*
X55378571Y-153111904D02*
X54921428Y-153111904D01*
X55150000Y-153111904D02*
X55150000Y-152311904D01*
X55073809Y-152426190D01*
X54997619Y-152502380D01*
X54921428Y-152540476D01*
X38616666Y-158361904D02*
X38350000Y-157980952D01*
X38159523Y-158361904D02*
X38159523Y-157561904D01*
X38464285Y-157561904D01*
X38540476Y-157600000D01*
X38578571Y-157638095D01*
X38616666Y-157714285D01*
X38616666Y-157828571D01*
X38578571Y-157904761D01*
X38540476Y-157942857D01*
X38464285Y-157980952D01*
X38159523Y-157980952D01*
X38921428Y-157638095D02*
X38959523Y-157600000D01*
X39035714Y-157561904D01*
X39226190Y-157561904D01*
X39302380Y-157600000D01*
X39340476Y-157638095D01*
X39378571Y-157714285D01*
X39378571Y-157790476D01*
X39340476Y-157904761D01*
X38883333Y-158361904D01*
X39378571Y-158361904D01*
X40616666Y-158361904D02*
X40350000Y-157980952D01*
X40159523Y-158361904D02*
X40159523Y-157561904D01*
X40464285Y-157561904D01*
X40540476Y-157600000D01*
X40578571Y-157638095D01*
X40616666Y-157714285D01*
X40616666Y-157828571D01*
X40578571Y-157904761D01*
X40540476Y-157942857D01*
X40464285Y-157980952D01*
X40159523Y-157980952D01*
X40883333Y-157561904D02*
X41378571Y-157561904D01*
X41111904Y-157866666D01*
X41226190Y-157866666D01*
X41302380Y-157904761D01*
X41340476Y-157942857D01*
X41378571Y-158019047D01*
X41378571Y-158209523D01*
X41340476Y-158285714D01*
X41302380Y-158323809D01*
X41226190Y-158361904D01*
X40997619Y-158361904D01*
X40921428Y-158323809D01*
X40883333Y-158285714D01*
X42616666Y-158361904D02*
X42350000Y-157980952D01*
X42159523Y-158361904D02*
X42159523Y-157561904D01*
X42464285Y-157561904D01*
X42540476Y-157600000D01*
X42578571Y-157638095D01*
X42616666Y-157714285D01*
X42616666Y-157828571D01*
X42578571Y-157904761D01*
X42540476Y-157942857D01*
X42464285Y-157980952D01*
X42159523Y-157980952D01*
X43302380Y-157828571D02*
X43302380Y-158361904D01*
X43111904Y-157523809D02*
X42921428Y-158095238D01*
X43416666Y-158095238D01*
X44616666Y-158361904D02*
X44350000Y-157980952D01*
X44159523Y-158361904D02*
X44159523Y-157561904D01*
X44464285Y-157561904D01*
X44540476Y-157600000D01*
X44578571Y-157638095D01*
X44616666Y-157714285D01*
X44616666Y-157828571D01*
X44578571Y-157904761D01*
X44540476Y-157942857D01*
X44464285Y-157980952D01*
X44159523Y-157980952D01*
X45340476Y-157561904D02*
X44959523Y-157561904D01*
X44921428Y-157942857D01*
X44959523Y-157904761D01*
X45035714Y-157866666D01*
X45226190Y-157866666D01*
X45302380Y-157904761D01*
X45340476Y-157942857D01*
X45378571Y-158019047D01*
X45378571Y-158209523D01*
X45340476Y-158285714D01*
X45302380Y-158323809D01*
X45226190Y-158361904D01*
X45035714Y-158361904D01*
X44959523Y-158323809D01*
X44921428Y-158285714D01*
X46616666Y-158361904D02*
X46350000Y-157980952D01*
X46159523Y-158361904D02*
X46159523Y-157561904D01*
X46464285Y-157561904D01*
X46540476Y-157600000D01*
X46578571Y-157638095D01*
X46616666Y-157714285D01*
X46616666Y-157828571D01*
X46578571Y-157904761D01*
X46540476Y-157942857D01*
X46464285Y-157980952D01*
X46159523Y-157980952D01*
X47302380Y-157561904D02*
X47150000Y-157561904D01*
X47073809Y-157600000D01*
X47035714Y-157638095D01*
X46959523Y-157752380D01*
X46921428Y-157904761D01*
X46921428Y-158209523D01*
X46959523Y-158285714D01*
X46997619Y-158323809D01*
X47073809Y-158361904D01*
X47226190Y-158361904D01*
X47302380Y-158323809D01*
X47340476Y-158285714D01*
X47378571Y-158209523D01*
X47378571Y-158019047D01*
X47340476Y-157942857D01*
X47302380Y-157904761D01*
X47226190Y-157866666D01*
X47073809Y-157866666D01*
X46997619Y-157904761D01*
X46959523Y-157942857D01*
X46921428Y-158019047D01*
X48616666Y-158361904D02*
X48350000Y-157980952D01*
X48159523Y-158361904D02*
X48159523Y-157561904D01*
X48464285Y-157561904D01*
X48540476Y-157600000D01*
X48578571Y-157638095D01*
X48616666Y-157714285D01*
X48616666Y-157828571D01*
X48578571Y-157904761D01*
X48540476Y-157942857D01*
X48464285Y-157980952D01*
X48159523Y-157980952D01*
X48883333Y-157561904D02*
X49416666Y-157561904D01*
X49073809Y-158361904D01*
D10*
X62652380Y-149761904D02*
X63461904Y-149761904D01*
X63557142Y-149714285D01*
X63604761Y-149666666D01*
X63652380Y-149571428D01*
X63652380Y-149380952D01*
X63604761Y-149285714D01*
X63557142Y-149238095D01*
X63461904Y-149190476D01*
X62652380Y-149190476D01*
X62652380Y-148238095D02*
X62652380Y-148714285D01*
X63128571Y-148761904D01*
X63080952Y-148714285D01*
X63033333Y-148619047D01*
X63033333Y-148380952D01*
X63080952Y-148285714D01*
X63128571Y-148238095D01*
X63223809Y-148190476D01*
X63461904Y-148190476D01*
X63557142Y-148238095D01*
X63604761Y-148285714D01*
X63652380Y-148380952D01*
X63652380Y-148619047D01*
X63604761Y-148714285D01*
X63557142Y-148761904D01*
X74052380Y-149761904D02*
X74861904Y-149761904D01*
X74957142Y-149714285D01*
X75004761Y-149666666D01*
X75052380Y-149571428D01*
X75052380Y-149380952D01*
X75004761Y-149285714D01*
X74957142Y-149238095D01*
X74861904Y-149190476D01*
X74052380Y-149190476D01*
X74052380Y-148285714D02*
X74052380Y-148476190D01*
X74100000Y-148571428D01*
X74147619Y-148619047D01*
X74290476Y-148714285D01*
X74480952Y-148761904D01*
X74861904Y-148761904D01*
X74957142Y-148714285D01*
X75004761Y-148666666D01*
X75052380Y-148571428D01*
X75052380Y-148380952D01*
X75004761Y-148285714D01*
X74957142Y-148238095D01*
X74861904Y-148190476D01*
X74623809Y-148190476D01*
X74528571Y-148238095D01*
X74480952Y-148285714D01*
X74433333Y-148380952D01*
X74433333Y-148571428D01*
X74480952Y-148666666D01*
X74528571Y-148714285D01*
X74623809Y-148761904D01*
X81052380Y-157761904D02*
X81861904Y-157761904D01*
X81957142Y-157714285D01*
X82004761Y-157666666D01*
X82052380Y-157571428D01*
X82052380Y-157380952D01*
X82004761Y-157285714D01*
X81957142Y-157238095D01*
X81861904Y-157190476D01*
X81052380Y-157190476D01*
X81052380Y-156809523D02*
X81052380Y-156142857D01*
X82052380Y-156571428D01*
X74052380Y-157761904D02*
X74861904Y-157761904D01*
X74957142Y-157714285D01*
X75004761Y-157666666D01*
X75052380Y-157571428D01*
X75052380Y-157380952D01*
X75004761Y-157285714D01*
X74957142Y-157238095D01*
X74861904Y-157190476D01*
X74052380Y-157190476D01*
X74480952Y-156571428D02*
X74433333Y-156666666D01*
X74385714Y-156714285D01*
X74290476Y-156761904D01*
X74242857Y-156761904D01*
X74147619Y-156714285D01*
X74100000Y-156666666D01*
X74052380Y-156571428D01*
X74052380Y-156380952D01*
X74100000Y-156285714D01*
X74147619Y-156238095D01*
X74242857Y-156190476D01*
X74290476Y-156190476D01*
X74385714Y-156238095D01*
X74433333Y-156285714D01*
X74480952Y-156380952D01*
X74480952Y-156571428D01*
X74528571Y-156666666D01*
X74576190Y-156714285D01*
X74671428Y-156761904D01*
X74861904Y-156761904D01*
X74957142Y-156714285D01*
X75004761Y-156666666D01*
X75052380Y-156571428D01*
X75052380Y-156380952D01*
X75004761Y-156285714D01*
X74957142Y-156238095D01*
X74861904Y-156190476D01*
X74671428Y-156190476D01*
X74576190Y-156238095D01*
X74528571Y-156285714D01*
X74480952Y-156380952D01*
M02*
