G04 #@! TF.GenerationSoftware,KiCad,Pcbnew,(5.1.5)-3*
G04 #@! TF.CreationDate,2020-04-27T20:32:12+02:00*
G04 #@! TF.ProjectId,ICHaus,49434861-7573-42e6-9b69-6361645f7063,rev?*
G04 #@! TF.SameCoordinates,Original*
G04 #@! TF.FileFunction,Paste,Top*
G04 #@! TF.FilePolarity,Positive*
%FSLAX46Y46*%
G04 Gerber Fmt 4.6, Leading zero omitted, Abs format (unit mm)*
G04 Created by KiCad (PCBNEW (5.1.5)-3) date 2020-04-27 20:32:12*
%MOMM*%
%LPD*%
G04 APERTURE LIST*
%ADD10R,2.000000X1.300000*%
%ADD11R,2.000000X2.000000*%
%ADD12C,0.100000*%
%ADD13R,0.450000X1.450000*%
%ADD14R,0.650000X1.060000*%
G04 APERTURE END LIST*
D10*
X89750000Y-136400000D03*
D11*
X85750000Y-135250000D03*
D10*
X89750000Y-134100000D03*
D12*
G36*
X71799504Y-142401204D02*
G01*
X71823773Y-142404804D01*
X71847571Y-142410765D01*
X71870671Y-142419030D01*
X71892849Y-142429520D01*
X71913893Y-142442133D01*
X71933598Y-142456747D01*
X71951777Y-142473223D01*
X71968253Y-142491402D01*
X71982867Y-142511107D01*
X71995480Y-142532151D01*
X72005970Y-142554329D01*
X72014235Y-142577429D01*
X72020196Y-142601227D01*
X72023796Y-142625496D01*
X72025000Y-142650000D01*
X72025000Y-143150000D01*
X72023796Y-143174504D01*
X72020196Y-143198773D01*
X72014235Y-143222571D01*
X72005970Y-143245671D01*
X71995480Y-143267849D01*
X71982867Y-143288893D01*
X71968253Y-143308598D01*
X71951777Y-143326777D01*
X71933598Y-143343253D01*
X71913893Y-143357867D01*
X71892849Y-143370480D01*
X71870671Y-143380970D01*
X71847571Y-143389235D01*
X71823773Y-143395196D01*
X71799504Y-143398796D01*
X71775000Y-143400000D01*
X71025000Y-143400000D01*
X71000496Y-143398796D01*
X70976227Y-143395196D01*
X70952429Y-143389235D01*
X70929329Y-143380970D01*
X70907151Y-143370480D01*
X70886107Y-143357867D01*
X70866402Y-143343253D01*
X70848223Y-143326777D01*
X70831747Y-143308598D01*
X70817133Y-143288893D01*
X70804520Y-143267849D01*
X70794030Y-143245671D01*
X70785765Y-143222571D01*
X70779804Y-143198773D01*
X70776204Y-143174504D01*
X70775000Y-143150000D01*
X70775000Y-142650000D01*
X70776204Y-142625496D01*
X70779804Y-142601227D01*
X70785765Y-142577429D01*
X70794030Y-142554329D01*
X70804520Y-142532151D01*
X70817133Y-142511107D01*
X70831747Y-142491402D01*
X70848223Y-142473223D01*
X70866402Y-142456747D01*
X70886107Y-142442133D01*
X70907151Y-142429520D01*
X70929329Y-142419030D01*
X70952429Y-142410765D01*
X70976227Y-142404804D01*
X71000496Y-142401204D01*
X71025000Y-142400000D01*
X71775000Y-142400000D01*
X71799504Y-142401204D01*
G37*
G36*
X71799504Y-140401204D02*
G01*
X71823773Y-140404804D01*
X71847571Y-140410765D01*
X71870671Y-140419030D01*
X71892849Y-140429520D01*
X71913893Y-140442133D01*
X71933598Y-140456747D01*
X71951777Y-140473223D01*
X71968253Y-140491402D01*
X71982867Y-140511107D01*
X71995480Y-140532151D01*
X72005970Y-140554329D01*
X72014235Y-140577429D01*
X72020196Y-140601227D01*
X72023796Y-140625496D01*
X72025000Y-140650000D01*
X72025000Y-141150000D01*
X72023796Y-141174504D01*
X72020196Y-141198773D01*
X72014235Y-141222571D01*
X72005970Y-141245671D01*
X71995480Y-141267849D01*
X71982867Y-141288893D01*
X71968253Y-141308598D01*
X71951777Y-141326777D01*
X71933598Y-141343253D01*
X71913893Y-141357867D01*
X71892849Y-141370480D01*
X71870671Y-141380970D01*
X71847571Y-141389235D01*
X71823773Y-141395196D01*
X71799504Y-141398796D01*
X71775000Y-141400000D01*
X71025000Y-141400000D01*
X71000496Y-141398796D01*
X70976227Y-141395196D01*
X70952429Y-141389235D01*
X70929329Y-141380970D01*
X70907151Y-141370480D01*
X70886107Y-141357867D01*
X70866402Y-141343253D01*
X70848223Y-141326777D01*
X70831747Y-141308598D01*
X70817133Y-141288893D01*
X70804520Y-141267849D01*
X70794030Y-141245671D01*
X70785765Y-141222571D01*
X70779804Y-141198773D01*
X70776204Y-141174504D01*
X70775000Y-141150000D01*
X70775000Y-140650000D01*
X70776204Y-140625496D01*
X70779804Y-140601227D01*
X70785765Y-140577429D01*
X70794030Y-140554329D01*
X70804520Y-140532151D01*
X70817133Y-140511107D01*
X70831747Y-140491402D01*
X70848223Y-140473223D01*
X70866402Y-140456747D01*
X70886107Y-140442133D01*
X70907151Y-140429520D01*
X70929329Y-140419030D01*
X70952429Y-140410765D01*
X70976227Y-140404804D01*
X71000496Y-140401204D01*
X71025000Y-140400000D01*
X71775000Y-140400000D01*
X71799504Y-140401204D01*
G37*
G36*
X68199504Y-156751204D02*
G01*
X68223773Y-156754804D01*
X68247571Y-156760765D01*
X68270671Y-156769030D01*
X68292849Y-156779520D01*
X68313893Y-156792133D01*
X68333598Y-156806747D01*
X68351777Y-156823223D01*
X68368253Y-156841402D01*
X68382867Y-156861107D01*
X68395480Y-156882151D01*
X68405970Y-156904329D01*
X68414235Y-156927429D01*
X68420196Y-156951227D01*
X68423796Y-156975496D01*
X68425000Y-157000000D01*
X68425000Y-157500000D01*
X68423796Y-157524504D01*
X68420196Y-157548773D01*
X68414235Y-157572571D01*
X68405970Y-157595671D01*
X68395480Y-157617849D01*
X68382867Y-157638893D01*
X68368253Y-157658598D01*
X68351777Y-157676777D01*
X68333598Y-157693253D01*
X68313893Y-157707867D01*
X68292849Y-157720480D01*
X68270671Y-157730970D01*
X68247571Y-157739235D01*
X68223773Y-157745196D01*
X68199504Y-157748796D01*
X68175000Y-157750000D01*
X67425000Y-157750000D01*
X67400496Y-157748796D01*
X67376227Y-157745196D01*
X67352429Y-157739235D01*
X67329329Y-157730970D01*
X67307151Y-157720480D01*
X67286107Y-157707867D01*
X67266402Y-157693253D01*
X67248223Y-157676777D01*
X67231747Y-157658598D01*
X67217133Y-157638893D01*
X67204520Y-157617849D01*
X67194030Y-157595671D01*
X67185765Y-157572571D01*
X67179804Y-157548773D01*
X67176204Y-157524504D01*
X67175000Y-157500000D01*
X67175000Y-157000000D01*
X67176204Y-156975496D01*
X67179804Y-156951227D01*
X67185765Y-156927429D01*
X67194030Y-156904329D01*
X67204520Y-156882151D01*
X67217133Y-156861107D01*
X67231747Y-156841402D01*
X67248223Y-156823223D01*
X67266402Y-156806747D01*
X67286107Y-156792133D01*
X67307151Y-156779520D01*
X67329329Y-156769030D01*
X67352429Y-156760765D01*
X67376227Y-156754804D01*
X67400496Y-156751204D01*
X67425000Y-156750000D01*
X68175000Y-156750000D01*
X68199504Y-156751204D01*
G37*
G36*
X68199504Y-154751204D02*
G01*
X68223773Y-154754804D01*
X68247571Y-154760765D01*
X68270671Y-154769030D01*
X68292849Y-154779520D01*
X68313893Y-154792133D01*
X68333598Y-154806747D01*
X68351777Y-154823223D01*
X68368253Y-154841402D01*
X68382867Y-154861107D01*
X68395480Y-154882151D01*
X68405970Y-154904329D01*
X68414235Y-154927429D01*
X68420196Y-154951227D01*
X68423796Y-154975496D01*
X68425000Y-155000000D01*
X68425000Y-155500000D01*
X68423796Y-155524504D01*
X68420196Y-155548773D01*
X68414235Y-155572571D01*
X68405970Y-155595671D01*
X68395480Y-155617849D01*
X68382867Y-155638893D01*
X68368253Y-155658598D01*
X68351777Y-155676777D01*
X68333598Y-155693253D01*
X68313893Y-155707867D01*
X68292849Y-155720480D01*
X68270671Y-155730970D01*
X68247571Y-155739235D01*
X68223773Y-155745196D01*
X68199504Y-155748796D01*
X68175000Y-155750000D01*
X67425000Y-155750000D01*
X67400496Y-155748796D01*
X67376227Y-155745196D01*
X67352429Y-155739235D01*
X67329329Y-155730970D01*
X67307151Y-155720480D01*
X67286107Y-155707867D01*
X67266402Y-155693253D01*
X67248223Y-155676777D01*
X67231747Y-155658598D01*
X67217133Y-155638893D01*
X67204520Y-155617849D01*
X67194030Y-155595671D01*
X67185765Y-155572571D01*
X67179804Y-155548773D01*
X67176204Y-155524504D01*
X67175000Y-155500000D01*
X67175000Y-155000000D01*
X67176204Y-154975496D01*
X67179804Y-154951227D01*
X67185765Y-154927429D01*
X67194030Y-154904329D01*
X67204520Y-154882151D01*
X67217133Y-154861107D01*
X67231747Y-154841402D01*
X67248223Y-154823223D01*
X67266402Y-154806747D01*
X67286107Y-154792133D01*
X67307151Y-154779520D01*
X67329329Y-154769030D01*
X67352429Y-154760765D01*
X67376227Y-154754804D01*
X67400496Y-154751204D01*
X67425000Y-154750000D01*
X68175000Y-154750000D01*
X68199504Y-154751204D01*
G37*
G36*
X62649504Y-160001204D02*
G01*
X62673773Y-160004804D01*
X62697571Y-160010765D01*
X62720671Y-160019030D01*
X62742849Y-160029520D01*
X62763893Y-160042133D01*
X62783598Y-160056747D01*
X62801777Y-160073223D01*
X62818253Y-160091402D01*
X62832867Y-160111107D01*
X62845480Y-160132151D01*
X62855970Y-160154329D01*
X62864235Y-160177429D01*
X62870196Y-160201227D01*
X62873796Y-160225496D01*
X62875000Y-160250000D01*
X62875000Y-160750000D01*
X62873796Y-160774504D01*
X62870196Y-160798773D01*
X62864235Y-160822571D01*
X62855970Y-160845671D01*
X62845480Y-160867849D01*
X62832867Y-160888893D01*
X62818253Y-160908598D01*
X62801777Y-160926777D01*
X62783598Y-160943253D01*
X62763893Y-160957867D01*
X62742849Y-160970480D01*
X62720671Y-160980970D01*
X62697571Y-160989235D01*
X62673773Y-160995196D01*
X62649504Y-160998796D01*
X62625000Y-161000000D01*
X61875000Y-161000000D01*
X61850496Y-160998796D01*
X61826227Y-160995196D01*
X61802429Y-160989235D01*
X61779329Y-160980970D01*
X61757151Y-160970480D01*
X61736107Y-160957867D01*
X61716402Y-160943253D01*
X61698223Y-160926777D01*
X61681747Y-160908598D01*
X61667133Y-160888893D01*
X61654520Y-160867849D01*
X61644030Y-160845671D01*
X61635765Y-160822571D01*
X61629804Y-160798773D01*
X61626204Y-160774504D01*
X61625000Y-160750000D01*
X61625000Y-160250000D01*
X61626204Y-160225496D01*
X61629804Y-160201227D01*
X61635765Y-160177429D01*
X61644030Y-160154329D01*
X61654520Y-160132151D01*
X61667133Y-160111107D01*
X61681747Y-160091402D01*
X61698223Y-160073223D01*
X61716402Y-160056747D01*
X61736107Y-160042133D01*
X61757151Y-160029520D01*
X61779329Y-160019030D01*
X61802429Y-160010765D01*
X61826227Y-160004804D01*
X61850496Y-160001204D01*
X61875000Y-160000000D01*
X62625000Y-160000000D01*
X62649504Y-160001204D01*
G37*
G36*
X62649504Y-162001204D02*
G01*
X62673773Y-162004804D01*
X62697571Y-162010765D01*
X62720671Y-162019030D01*
X62742849Y-162029520D01*
X62763893Y-162042133D01*
X62783598Y-162056747D01*
X62801777Y-162073223D01*
X62818253Y-162091402D01*
X62832867Y-162111107D01*
X62845480Y-162132151D01*
X62855970Y-162154329D01*
X62864235Y-162177429D01*
X62870196Y-162201227D01*
X62873796Y-162225496D01*
X62875000Y-162250000D01*
X62875000Y-162750000D01*
X62873796Y-162774504D01*
X62870196Y-162798773D01*
X62864235Y-162822571D01*
X62855970Y-162845671D01*
X62845480Y-162867849D01*
X62832867Y-162888893D01*
X62818253Y-162908598D01*
X62801777Y-162926777D01*
X62783598Y-162943253D01*
X62763893Y-162957867D01*
X62742849Y-162970480D01*
X62720671Y-162980970D01*
X62697571Y-162989235D01*
X62673773Y-162995196D01*
X62649504Y-162998796D01*
X62625000Y-163000000D01*
X61875000Y-163000000D01*
X61850496Y-162998796D01*
X61826227Y-162995196D01*
X61802429Y-162989235D01*
X61779329Y-162980970D01*
X61757151Y-162970480D01*
X61736107Y-162957867D01*
X61716402Y-162943253D01*
X61698223Y-162926777D01*
X61681747Y-162908598D01*
X61667133Y-162888893D01*
X61654520Y-162867849D01*
X61644030Y-162845671D01*
X61635765Y-162822571D01*
X61629804Y-162798773D01*
X61626204Y-162774504D01*
X61625000Y-162750000D01*
X61625000Y-162250000D01*
X61626204Y-162225496D01*
X61629804Y-162201227D01*
X61635765Y-162177429D01*
X61644030Y-162154329D01*
X61654520Y-162132151D01*
X61667133Y-162111107D01*
X61681747Y-162091402D01*
X61698223Y-162073223D01*
X61716402Y-162056747D01*
X61736107Y-162042133D01*
X61757151Y-162029520D01*
X61779329Y-162019030D01*
X61802429Y-162010765D01*
X61826227Y-162004804D01*
X61850496Y-162001204D01*
X61875000Y-162000000D01*
X62625000Y-162000000D01*
X62649504Y-162001204D01*
G37*
G36*
X62527691Y-163776053D02*
G01*
X62548926Y-163779203D01*
X62569750Y-163784419D01*
X62589962Y-163791651D01*
X62609368Y-163800830D01*
X62627781Y-163811866D01*
X62645024Y-163824654D01*
X62660930Y-163839070D01*
X62675346Y-163854976D01*
X62688134Y-163872219D01*
X62699170Y-163890632D01*
X62708349Y-163910038D01*
X62715581Y-163930250D01*
X62720797Y-163951074D01*
X62723947Y-163972309D01*
X62725000Y-163993750D01*
X62725000Y-164431250D01*
X62723947Y-164452691D01*
X62720797Y-164473926D01*
X62715581Y-164494750D01*
X62708349Y-164514962D01*
X62699170Y-164534368D01*
X62688134Y-164552781D01*
X62675346Y-164570024D01*
X62660930Y-164585930D01*
X62645024Y-164600346D01*
X62627781Y-164613134D01*
X62609368Y-164624170D01*
X62589962Y-164633349D01*
X62569750Y-164640581D01*
X62548926Y-164645797D01*
X62527691Y-164648947D01*
X62506250Y-164650000D01*
X61993750Y-164650000D01*
X61972309Y-164648947D01*
X61951074Y-164645797D01*
X61930250Y-164640581D01*
X61910038Y-164633349D01*
X61890632Y-164624170D01*
X61872219Y-164613134D01*
X61854976Y-164600346D01*
X61839070Y-164585930D01*
X61824654Y-164570024D01*
X61811866Y-164552781D01*
X61800830Y-164534368D01*
X61791651Y-164514962D01*
X61784419Y-164494750D01*
X61779203Y-164473926D01*
X61776053Y-164452691D01*
X61775000Y-164431250D01*
X61775000Y-163993750D01*
X61776053Y-163972309D01*
X61779203Y-163951074D01*
X61784419Y-163930250D01*
X61791651Y-163910038D01*
X61800830Y-163890632D01*
X61811866Y-163872219D01*
X61824654Y-163854976D01*
X61839070Y-163839070D01*
X61854976Y-163824654D01*
X61872219Y-163811866D01*
X61890632Y-163800830D01*
X61910038Y-163791651D01*
X61930250Y-163784419D01*
X61951074Y-163779203D01*
X61972309Y-163776053D01*
X61993750Y-163775000D01*
X62506250Y-163775000D01*
X62527691Y-163776053D01*
G37*
G36*
X62527691Y-165351053D02*
G01*
X62548926Y-165354203D01*
X62569750Y-165359419D01*
X62589962Y-165366651D01*
X62609368Y-165375830D01*
X62627781Y-165386866D01*
X62645024Y-165399654D01*
X62660930Y-165414070D01*
X62675346Y-165429976D01*
X62688134Y-165447219D01*
X62699170Y-165465632D01*
X62708349Y-165485038D01*
X62715581Y-165505250D01*
X62720797Y-165526074D01*
X62723947Y-165547309D01*
X62725000Y-165568750D01*
X62725000Y-166006250D01*
X62723947Y-166027691D01*
X62720797Y-166048926D01*
X62715581Y-166069750D01*
X62708349Y-166089962D01*
X62699170Y-166109368D01*
X62688134Y-166127781D01*
X62675346Y-166145024D01*
X62660930Y-166160930D01*
X62645024Y-166175346D01*
X62627781Y-166188134D01*
X62609368Y-166199170D01*
X62589962Y-166208349D01*
X62569750Y-166215581D01*
X62548926Y-166220797D01*
X62527691Y-166223947D01*
X62506250Y-166225000D01*
X61993750Y-166225000D01*
X61972309Y-166223947D01*
X61951074Y-166220797D01*
X61930250Y-166215581D01*
X61910038Y-166208349D01*
X61890632Y-166199170D01*
X61872219Y-166188134D01*
X61854976Y-166175346D01*
X61839070Y-166160930D01*
X61824654Y-166145024D01*
X61811866Y-166127781D01*
X61800830Y-166109368D01*
X61791651Y-166089962D01*
X61784419Y-166069750D01*
X61779203Y-166048926D01*
X61776053Y-166027691D01*
X61775000Y-166006250D01*
X61775000Y-165568750D01*
X61776053Y-165547309D01*
X61779203Y-165526074D01*
X61784419Y-165505250D01*
X61791651Y-165485038D01*
X61800830Y-165465632D01*
X61811866Y-165447219D01*
X61824654Y-165429976D01*
X61839070Y-165414070D01*
X61854976Y-165399654D01*
X61872219Y-165386866D01*
X61890632Y-165375830D01*
X61910038Y-165366651D01*
X61930250Y-165359419D01*
X61951074Y-165354203D01*
X61972309Y-165351053D01*
X61993750Y-165350000D01*
X62506250Y-165350000D01*
X62527691Y-165351053D01*
G37*
G36*
X53149504Y-156001204D02*
G01*
X53173773Y-156004804D01*
X53197571Y-156010765D01*
X53220671Y-156019030D01*
X53242849Y-156029520D01*
X53263893Y-156042133D01*
X53283598Y-156056747D01*
X53301777Y-156073223D01*
X53318253Y-156091402D01*
X53332867Y-156111107D01*
X53345480Y-156132151D01*
X53355970Y-156154329D01*
X53364235Y-156177429D01*
X53370196Y-156201227D01*
X53373796Y-156225496D01*
X53375000Y-156250000D01*
X53375000Y-156750000D01*
X53373796Y-156774504D01*
X53370196Y-156798773D01*
X53364235Y-156822571D01*
X53355970Y-156845671D01*
X53345480Y-156867849D01*
X53332867Y-156888893D01*
X53318253Y-156908598D01*
X53301777Y-156926777D01*
X53283598Y-156943253D01*
X53263893Y-156957867D01*
X53242849Y-156970480D01*
X53220671Y-156980970D01*
X53197571Y-156989235D01*
X53173773Y-156995196D01*
X53149504Y-156998796D01*
X53125000Y-157000000D01*
X52375000Y-157000000D01*
X52350496Y-156998796D01*
X52326227Y-156995196D01*
X52302429Y-156989235D01*
X52279329Y-156980970D01*
X52257151Y-156970480D01*
X52236107Y-156957867D01*
X52216402Y-156943253D01*
X52198223Y-156926777D01*
X52181747Y-156908598D01*
X52167133Y-156888893D01*
X52154520Y-156867849D01*
X52144030Y-156845671D01*
X52135765Y-156822571D01*
X52129804Y-156798773D01*
X52126204Y-156774504D01*
X52125000Y-156750000D01*
X52125000Y-156250000D01*
X52126204Y-156225496D01*
X52129804Y-156201227D01*
X52135765Y-156177429D01*
X52144030Y-156154329D01*
X52154520Y-156132151D01*
X52167133Y-156111107D01*
X52181747Y-156091402D01*
X52198223Y-156073223D01*
X52216402Y-156056747D01*
X52236107Y-156042133D01*
X52257151Y-156029520D01*
X52279329Y-156019030D01*
X52302429Y-156010765D01*
X52326227Y-156004804D01*
X52350496Y-156001204D01*
X52375000Y-156000000D01*
X53125000Y-156000000D01*
X53149504Y-156001204D01*
G37*
G36*
X53149504Y-154001204D02*
G01*
X53173773Y-154004804D01*
X53197571Y-154010765D01*
X53220671Y-154019030D01*
X53242849Y-154029520D01*
X53263893Y-154042133D01*
X53283598Y-154056747D01*
X53301777Y-154073223D01*
X53318253Y-154091402D01*
X53332867Y-154111107D01*
X53345480Y-154132151D01*
X53355970Y-154154329D01*
X53364235Y-154177429D01*
X53370196Y-154201227D01*
X53373796Y-154225496D01*
X53375000Y-154250000D01*
X53375000Y-154750000D01*
X53373796Y-154774504D01*
X53370196Y-154798773D01*
X53364235Y-154822571D01*
X53355970Y-154845671D01*
X53345480Y-154867849D01*
X53332867Y-154888893D01*
X53318253Y-154908598D01*
X53301777Y-154926777D01*
X53283598Y-154943253D01*
X53263893Y-154957867D01*
X53242849Y-154970480D01*
X53220671Y-154980970D01*
X53197571Y-154989235D01*
X53173773Y-154995196D01*
X53149504Y-154998796D01*
X53125000Y-155000000D01*
X52375000Y-155000000D01*
X52350496Y-154998796D01*
X52326227Y-154995196D01*
X52302429Y-154989235D01*
X52279329Y-154980970D01*
X52257151Y-154970480D01*
X52236107Y-154957867D01*
X52216402Y-154943253D01*
X52198223Y-154926777D01*
X52181747Y-154908598D01*
X52167133Y-154888893D01*
X52154520Y-154867849D01*
X52144030Y-154845671D01*
X52135765Y-154822571D01*
X52129804Y-154798773D01*
X52126204Y-154774504D01*
X52125000Y-154750000D01*
X52125000Y-154250000D01*
X52126204Y-154225496D01*
X52129804Y-154201227D01*
X52135765Y-154177429D01*
X52144030Y-154154329D01*
X52154520Y-154132151D01*
X52167133Y-154111107D01*
X52181747Y-154091402D01*
X52198223Y-154073223D01*
X52216402Y-154056747D01*
X52236107Y-154042133D01*
X52257151Y-154029520D01*
X52279329Y-154019030D01*
X52302429Y-154010765D01*
X52326227Y-154004804D01*
X52350496Y-154001204D01*
X52375000Y-154000000D01*
X53125000Y-154000000D01*
X53149504Y-154001204D01*
G37*
G36*
X59799504Y-156701204D02*
G01*
X59823773Y-156704804D01*
X59847571Y-156710765D01*
X59870671Y-156719030D01*
X59892849Y-156729520D01*
X59913893Y-156742133D01*
X59933598Y-156756747D01*
X59951777Y-156773223D01*
X59968253Y-156791402D01*
X59982867Y-156811107D01*
X59995480Y-156832151D01*
X60005970Y-156854329D01*
X60014235Y-156877429D01*
X60020196Y-156901227D01*
X60023796Y-156925496D01*
X60025000Y-156950000D01*
X60025000Y-157450000D01*
X60023796Y-157474504D01*
X60020196Y-157498773D01*
X60014235Y-157522571D01*
X60005970Y-157545671D01*
X59995480Y-157567849D01*
X59982867Y-157588893D01*
X59968253Y-157608598D01*
X59951777Y-157626777D01*
X59933598Y-157643253D01*
X59913893Y-157657867D01*
X59892849Y-157670480D01*
X59870671Y-157680970D01*
X59847571Y-157689235D01*
X59823773Y-157695196D01*
X59799504Y-157698796D01*
X59775000Y-157700000D01*
X59025000Y-157700000D01*
X59000496Y-157698796D01*
X58976227Y-157695196D01*
X58952429Y-157689235D01*
X58929329Y-157680970D01*
X58907151Y-157670480D01*
X58886107Y-157657867D01*
X58866402Y-157643253D01*
X58848223Y-157626777D01*
X58831747Y-157608598D01*
X58817133Y-157588893D01*
X58804520Y-157567849D01*
X58794030Y-157545671D01*
X58785765Y-157522571D01*
X58779804Y-157498773D01*
X58776204Y-157474504D01*
X58775000Y-157450000D01*
X58775000Y-156950000D01*
X58776204Y-156925496D01*
X58779804Y-156901227D01*
X58785765Y-156877429D01*
X58794030Y-156854329D01*
X58804520Y-156832151D01*
X58817133Y-156811107D01*
X58831747Y-156791402D01*
X58848223Y-156773223D01*
X58866402Y-156756747D01*
X58886107Y-156742133D01*
X58907151Y-156729520D01*
X58929329Y-156719030D01*
X58952429Y-156710765D01*
X58976227Y-156704804D01*
X59000496Y-156701204D01*
X59025000Y-156700000D01*
X59775000Y-156700000D01*
X59799504Y-156701204D01*
G37*
G36*
X59799504Y-154701204D02*
G01*
X59823773Y-154704804D01*
X59847571Y-154710765D01*
X59870671Y-154719030D01*
X59892849Y-154729520D01*
X59913893Y-154742133D01*
X59933598Y-154756747D01*
X59951777Y-154773223D01*
X59968253Y-154791402D01*
X59982867Y-154811107D01*
X59995480Y-154832151D01*
X60005970Y-154854329D01*
X60014235Y-154877429D01*
X60020196Y-154901227D01*
X60023796Y-154925496D01*
X60025000Y-154950000D01*
X60025000Y-155450000D01*
X60023796Y-155474504D01*
X60020196Y-155498773D01*
X60014235Y-155522571D01*
X60005970Y-155545671D01*
X59995480Y-155567849D01*
X59982867Y-155588893D01*
X59968253Y-155608598D01*
X59951777Y-155626777D01*
X59933598Y-155643253D01*
X59913893Y-155657867D01*
X59892849Y-155670480D01*
X59870671Y-155680970D01*
X59847571Y-155689235D01*
X59823773Y-155695196D01*
X59799504Y-155698796D01*
X59775000Y-155700000D01*
X59025000Y-155700000D01*
X59000496Y-155698796D01*
X58976227Y-155695196D01*
X58952429Y-155689235D01*
X58929329Y-155680970D01*
X58907151Y-155670480D01*
X58886107Y-155657867D01*
X58866402Y-155643253D01*
X58848223Y-155626777D01*
X58831747Y-155608598D01*
X58817133Y-155588893D01*
X58804520Y-155567849D01*
X58794030Y-155545671D01*
X58785765Y-155522571D01*
X58779804Y-155498773D01*
X58776204Y-155474504D01*
X58775000Y-155450000D01*
X58775000Y-154950000D01*
X58776204Y-154925496D01*
X58779804Y-154901227D01*
X58785765Y-154877429D01*
X58794030Y-154854329D01*
X58804520Y-154832151D01*
X58817133Y-154811107D01*
X58831747Y-154791402D01*
X58848223Y-154773223D01*
X58866402Y-154756747D01*
X58886107Y-154742133D01*
X58907151Y-154729520D01*
X58929329Y-154719030D01*
X58952429Y-154710765D01*
X58976227Y-154704804D01*
X59000496Y-154701204D01*
X59025000Y-154700000D01*
X59775000Y-154700000D01*
X59799504Y-154701204D01*
G37*
G36*
X65399504Y-154751204D02*
G01*
X65423773Y-154754804D01*
X65447571Y-154760765D01*
X65470671Y-154769030D01*
X65492849Y-154779520D01*
X65513893Y-154792133D01*
X65533598Y-154806747D01*
X65551777Y-154823223D01*
X65568253Y-154841402D01*
X65582867Y-154861107D01*
X65595480Y-154882151D01*
X65605970Y-154904329D01*
X65614235Y-154927429D01*
X65620196Y-154951227D01*
X65623796Y-154975496D01*
X65625000Y-155000000D01*
X65625000Y-155500000D01*
X65623796Y-155524504D01*
X65620196Y-155548773D01*
X65614235Y-155572571D01*
X65605970Y-155595671D01*
X65595480Y-155617849D01*
X65582867Y-155638893D01*
X65568253Y-155658598D01*
X65551777Y-155676777D01*
X65533598Y-155693253D01*
X65513893Y-155707867D01*
X65492849Y-155720480D01*
X65470671Y-155730970D01*
X65447571Y-155739235D01*
X65423773Y-155745196D01*
X65399504Y-155748796D01*
X65375000Y-155750000D01*
X64625000Y-155750000D01*
X64600496Y-155748796D01*
X64576227Y-155745196D01*
X64552429Y-155739235D01*
X64529329Y-155730970D01*
X64507151Y-155720480D01*
X64486107Y-155707867D01*
X64466402Y-155693253D01*
X64448223Y-155676777D01*
X64431747Y-155658598D01*
X64417133Y-155638893D01*
X64404520Y-155617849D01*
X64394030Y-155595671D01*
X64385765Y-155572571D01*
X64379804Y-155548773D01*
X64376204Y-155524504D01*
X64375000Y-155500000D01*
X64375000Y-155000000D01*
X64376204Y-154975496D01*
X64379804Y-154951227D01*
X64385765Y-154927429D01*
X64394030Y-154904329D01*
X64404520Y-154882151D01*
X64417133Y-154861107D01*
X64431747Y-154841402D01*
X64448223Y-154823223D01*
X64466402Y-154806747D01*
X64486107Y-154792133D01*
X64507151Y-154779520D01*
X64529329Y-154769030D01*
X64552429Y-154760765D01*
X64576227Y-154754804D01*
X64600496Y-154751204D01*
X64625000Y-154750000D01*
X65375000Y-154750000D01*
X65399504Y-154751204D01*
G37*
G36*
X65399504Y-156751204D02*
G01*
X65423773Y-156754804D01*
X65447571Y-156760765D01*
X65470671Y-156769030D01*
X65492849Y-156779520D01*
X65513893Y-156792133D01*
X65533598Y-156806747D01*
X65551777Y-156823223D01*
X65568253Y-156841402D01*
X65582867Y-156861107D01*
X65595480Y-156882151D01*
X65605970Y-156904329D01*
X65614235Y-156927429D01*
X65620196Y-156951227D01*
X65623796Y-156975496D01*
X65625000Y-157000000D01*
X65625000Y-157500000D01*
X65623796Y-157524504D01*
X65620196Y-157548773D01*
X65614235Y-157572571D01*
X65605970Y-157595671D01*
X65595480Y-157617849D01*
X65582867Y-157638893D01*
X65568253Y-157658598D01*
X65551777Y-157676777D01*
X65533598Y-157693253D01*
X65513893Y-157707867D01*
X65492849Y-157720480D01*
X65470671Y-157730970D01*
X65447571Y-157739235D01*
X65423773Y-157745196D01*
X65399504Y-157748796D01*
X65375000Y-157750000D01*
X64625000Y-157750000D01*
X64600496Y-157748796D01*
X64576227Y-157745196D01*
X64552429Y-157739235D01*
X64529329Y-157730970D01*
X64507151Y-157720480D01*
X64486107Y-157707867D01*
X64466402Y-157693253D01*
X64448223Y-157676777D01*
X64431747Y-157658598D01*
X64417133Y-157638893D01*
X64404520Y-157617849D01*
X64394030Y-157595671D01*
X64385765Y-157572571D01*
X64379804Y-157548773D01*
X64376204Y-157524504D01*
X64375000Y-157500000D01*
X64375000Y-157000000D01*
X64376204Y-156975496D01*
X64379804Y-156951227D01*
X64385765Y-156927429D01*
X64394030Y-156904329D01*
X64404520Y-156882151D01*
X64417133Y-156861107D01*
X64431747Y-156841402D01*
X64448223Y-156823223D01*
X64466402Y-156806747D01*
X64486107Y-156792133D01*
X64507151Y-156779520D01*
X64529329Y-156769030D01*
X64552429Y-156760765D01*
X64576227Y-156754804D01*
X64600496Y-156751204D01*
X64625000Y-156750000D01*
X65375000Y-156750000D01*
X65399504Y-156751204D01*
G37*
G36*
X62599504Y-154701204D02*
G01*
X62623773Y-154704804D01*
X62647571Y-154710765D01*
X62670671Y-154719030D01*
X62692849Y-154729520D01*
X62713893Y-154742133D01*
X62733598Y-154756747D01*
X62751777Y-154773223D01*
X62768253Y-154791402D01*
X62782867Y-154811107D01*
X62795480Y-154832151D01*
X62805970Y-154854329D01*
X62814235Y-154877429D01*
X62820196Y-154901227D01*
X62823796Y-154925496D01*
X62825000Y-154950000D01*
X62825000Y-155450000D01*
X62823796Y-155474504D01*
X62820196Y-155498773D01*
X62814235Y-155522571D01*
X62805970Y-155545671D01*
X62795480Y-155567849D01*
X62782867Y-155588893D01*
X62768253Y-155608598D01*
X62751777Y-155626777D01*
X62733598Y-155643253D01*
X62713893Y-155657867D01*
X62692849Y-155670480D01*
X62670671Y-155680970D01*
X62647571Y-155689235D01*
X62623773Y-155695196D01*
X62599504Y-155698796D01*
X62575000Y-155700000D01*
X61825000Y-155700000D01*
X61800496Y-155698796D01*
X61776227Y-155695196D01*
X61752429Y-155689235D01*
X61729329Y-155680970D01*
X61707151Y-155670480D01*
X61686107Y-155657867D01*
X61666402Y-155643253D01*
X61648223Y-155626777D01*
X61631747Y-155608598D01*
X61617133Y-155588893D01*
X61604520Y-155567849D01*
X61594030Y-155545671D01*
X61585765Y-155522571D01*
X61579804Y-155498773D01*
X61576204Y-155474504D01*
X61575000Y-155450000D01*
X61575000Y-154950000D01*
X61576204Y-154925496D01*
X61579804Y-154901227D01*
X61585765Y-154877429D01*
X61594030Y-154854329D01*
X61604520Y-154832151D01*
X61617133Y-154811107D01*
X61631747Y-154791402D01*
X61648223Y-154773223D01*
X61666402Y-154756747D01*
X61686107Y-154742133D01*
X61707151Y-154729520D01*
X61729329Y-154719030D01*
X61752429Y-154710765D01*
X61776227Y-154704804D01*
X61800496Y-154701204D01*
X61825000Y-154700000D01*
X62575000Y-154700000D01*
X62599504Y-154701204D01*
G37*
G36*
X62599504Y-156701204D02*
G01*
X62623773Y-156704804D01*
X62647571Y-156710765D01*
X62670671Y-156719030D01*
X62692849Y-156729520D01*
X62713893Y-156742133D01*
X62733598Y-156756747D01*
X62751777Y-156773223D01*
X62768253Y-156791402D01*
X62782867Y-156811107D01*
X62795480Y-156832151D01*
X62805970Y-156854329D01*
X62814235Y-156877429D01*
X62820196Y-156901227D01*
X62823796Y-156925496D01*
X62825000Y-156950000D01*
X62825000Y-157450000D01*
X62823796Y-157474504D01*
X62820196Y-157498773D01*
X62814235Y-157522571D01*
X62805970Y-157545671D01*
X62795480Y-157567849D01*
X62782867Y-157588893D01*
X62768253Y-157608598D01*
X62751777Y-157626777D01*
X62733598Y-157643253D01*
X62713893Y-157657867D01*
X62692849Y-157670480D01*
X62670671Y-157680970D01*
X62647571Y-157689235D01*
X62623773Y-157695196D01*
X62599504Y-157698796D01*
X62575000Y-157700000D01*
X61825000Y-157700000D01*
X61800496Y-157698796D01*
X61776227Y-157695196D01*
X61752429Y-157689235D01*
X61729329Y-157680970D01*
X61707151Y-157670480D01*
X61686107Y-157657867D01*
X61666402Y-157643253D01*
X61648223Y-157626777D01*
X61631747Y-157608598D01*
X61617133Y-157588893D01*
X61604520Y-157567849D01*
X61594030Y-157545671D01*
X61585765Y-157522571D01*
X61579804Y-157498773D01*
X61576204Y-157474504D01*
X61575000Y-157450000D01*
X61575000Y-156950000D01*
X61576204Y-156925496D01*
X61579804Y-156901227D01*
X61585765Y-156877429D01*
X61594030Y-156854329D01*
X61604520Y-156832151D01*
X61617133Y-156811107D01*
X61631747Y-156791402D01*
X61648223Y-156773223D01*
X61666402Y-156756747D01*
X61686107Y-156742133D01*
X61707151Y-156729520D01*
X61729329Y-156719030D01*
X61752429Y-156710765D01*
X61776227Y-156704804D01*
X61800496Y-156701204D01*
X61825000Y-156700000D01*
X62575000Y-156700000D01*
X62599504Y-156701204D01*
G37*
G36*
X67999504Y-142401204D02*
G01*
X68023773Y-142404804D01*
X68047571Y-142410765D01*
X68070671Y-142419030D01*
X68092849Y-142429520D01*
X68113893Y-142442133D01*
X68133598Y-142456747D01*
X68151777Y-142473223D01*
X68168253Y-142491402D01*
X68182867Y-142511107D01*
X68195480Y-142532151D01*
X68205970Y-142554329D01*
X68214235Y-142577429D01*
X68220196Y-142601227D01*
X68223796Y-142625496D01*
X68225000Y-142650000D01*
X68225000Y-143150000D01*
X68223796Y-143174504D01*
X68220196Y-143198773D01*
X68214235Y-143222571D01*
X68205970Y-143245671D01*
X68195480Y-143267849D01*
X68182867Y-143288893D01*
X68168253Y-143308598D01*
X68151777Y-143326777D01*
X68133598Y-143343253D01*
X68113893Y-143357867D01*
X68092849Y-143370480D01*
X68070671Y-143380970D01*
X68047571Y-143389235D01*
X68023773Y-143395196D01*
X67999504Y-143398796D01*
X67975000Y-143400000D01*
X67225000Y-143400000D01*
X67200496Y-143398796D01*
X67176227Y-143395196D01*
X67152429Y-143389235D01*
X67129329Y-143380970D01*
X67107151Y-143370480D01*
X67086107Y-143357867D01*
X67066402Y-143343253D01*
X67048223Y-143326777D01*
X67031747Y-143308598D01*
X67017133Y-143288893D01*
X67004520Y-143267849D01*
X66994030Y-143245671D01*
X66985765Y-143222571D01*
X66979804Y-143198773D01*
X66976204Y-143174504D01*
X66975000Y-143150000D01*
X66975000Y-142650000D01*
X66976204Y-142625496D01*
X66979804Y-142601227D01*
X66985765Y-142577429D01*
X66994030Y-142554329D01*
X67004520Y-142532151D01*
X67017133Y-142511107D01*
X67031747Y-142491402D01*
X67048223Y-142473223D01*
X67066402Y-142456747D01*
X67086107Y-142442133D01*
X67107151Y-142429520D01*
X67129329Y-142419030D01*
X67152429Y-142410765D01*
X67176227Y-142404804D01*
X67200496Y-142401204D01*
X67225000Y-142400000D01*
X67975000Y-142400000D01*
X67999504Y-142401204D01*
G37*
G36*
X67999504Y-140401204D02*
G01*
X68023773Y-140404804D01*
X68047571Y-140410765D01*
X68070671Y-140419030D01*
X68092849Y-140429520D01*
X68113893Y-140442133D01*
X68133598Y-140456747D01*
X68151777Y-140473223D01*
X68168253Y-140491402D01*
X68182867Y-140511107D01*
X68195480Y-140532151D01*
X68205970Y-140554329D01*
X68214235Y-140577429D01*
X68220196Y-140601227D01*
X68223796Y-140625496D01*
X68225000Y-140650000D01*
X68225000Y-141150000D01*
X68223796Y-141174504D01*
X68220196Y-141198773D01*
X68214235Y-141222571D01*
X68205970Y-141245671D01*
X68195480Y-141267849D01*
X68182867Y-141288893D01*
X68168253Y-141308598D01*
X68151777Y-141326777D01*
X68133598Y-141343253D01*
X68113893Y-141357867D01*
X68092849Y-141370480D01*
X68070671Y-141380970D01*
X68047571Y-141389235D01*
X68023773Y-141395196D01*
X67999504Y-141398796D01*
X67975000Y-141400000D01*
X67225000Y-141400000D01*
X67200496Y-141398796D01*
X67176227Y-141395196D01*
X67152429Y-141389235D01*
X67129329Y-141380970D01*
X67107151Y-141370480D01*
X67086107Y-141357867D01*
X67066402Y-141343253D01*
X67048223Y-141326777D01*
X67031747Y-141308598D01*
X67017133Y-141288893D01*
X67004520Y-141267849D01*
X66994030Y-141245671D01*
X66985765Y-141222571D01*
X66979804Y-141198773D01*
X66976204Y-141174504D01*
X66975000Y-141150000D01*
X66975000Y-140650000D01*
X66976204Y-140625496D01*
X66979804Y-140601227D01*
X66985765Y-140577429D01*
X66994030Y-140554329D01*
X67004520Y-140532151D01*
X67017133Y-140511107D01*
X67031747Y-140491402D01*
X67048223Y-140473223D01*
X67066402Y-140456747D01*
X67086107Y-140442133D01*
X67107151Y-140429520D01*
X67129329Y-140419030D01*
X67152429Y-140410765D01*
X67176227Y-140404804D01*
X67200496Y-140401204D01*
X67225000Y-140400000D01*
X67975000Y-140400000D01*
X67999504Y-140401204D01*
G37*
G36*
X69899504Y-140401204D02*
G01*
X69923773Y-140404804D01*
X69947571Y-140410765D01*
X69970671Y-140419030D01*
X69992849Y-140429520D01*
X70013893Y-140442133D01*
X70033598Y-140456747D01*
X70051777Y-140473223D01*
X70068253Y-140491402D01*
X70082867Y-140511107D01*
X70095480Y-140532151D01*
X70105970Y-140554329D01*
X70114235Y-140577429D01*
X70120196Y-140601227D01*
X70123796Y-140625496D01*
X70125000Y-140650000D01*
X70125000Y-141150000D01*
X70123796Y-141174504D01*
X70120196Y-141198773D01*
X70114235Y-141222571D01*
X70105970Y-141245671D01*
X70095480Y-141267849D01*
X70082867Y-141288893D01*
X70068253Y-141308598D01*
X70051777Y-141326777D01*
X70033598Y-141343253D01*
X70013893Y-141357867D01*
X69992849Y-141370480D01*
X69970671Y-141380970D01*
X69947571Y-141389235D01*
X69923773Y-141395196D01*
X69899504Y-141398796D01*
X69875000Y-141400000D01*
X69125000Y-141400000D01*
X69100496Y-141398796D01*
X69076227Y-141395196D01*
X69052429Y-141389235D01*
X69029329Y-141380970D01*
X69007151Y-141370480D01*
X68986107Y-141357867D01*
X68966402Y-141343253D01*
X68948223Y-141326777D01*
X68931747Y-141308598D01*
X68917133Y-141288893D01*
X68904520Y-141267849D01*
X68894030Y-141245671D01*
X68885765Y-141222571D01*
X68879804Y-141198773D01*
X68876204Y-141174504D01*
X68875000Y-141150000D01*
X68875000Y-140650000D01*
X68876204Y-140625496D01*
X68879804Y-140601227D01*
X68885765Y-140577429D01*
X68894030Y-140554329D01*
X68904520Y-140532151D01*
X68917133Y-140511107D01*
X68931747Y-140491402D01*
X68948223Y-140473223D01*
X68966402Y-140456747D01*
X68986107Y-140442133D01*
X69007151Y-140429520D01*
X69029329Y-140419030D01*
X69052429Y-140410765D01*
X69076227Y-140404804D01*
X69100496Y-140401204D01*
X69125000Y-140400000D01*
X69875000Y-140400000D01*
X69899504Y-140401204D01*
G37*
G36*
X69899504Y-142401204D02*
G01*
X69923773Y-142404804D01*
X69947571Y-142410765D01*
X69970671Y-142419030D01*
X69992849Y-142429520D01*
X70013893Y-142442133D01*
X70033598Y-142456747D01*
X70051777Y-142473223D01*
X70068253Y-142491402D01*
X70082867Y-142511107D01*
X70095480Y-142532151D01*
X70105970Y-142554329D01*
X70114235Y-142577429D01*
X70120196Y-142601227D01*
X70123796Y-142625496D01*
X70125000Y-142650000D01*
X70125000Y-143150000D01*
X70123796Y-143174504D01*
X70120196Y-143198773D01*
X70114235Y-143222571D01*
X70105970Y-143245671D01*
X70095480Y-143267849D01*
X70082867Y-143288893D01*
X70068253Y-143308598D01*
X70051777Y-143326777D01*
X70033598Y-143343253D01*
X70013893Y-143357867D01*
X69992849Y-143370480D01*
X69970671Y-143380970D01*
X69947571Y-143389235D01*
X69923773Y-143395196D01*
X69899504Y-143398796D01*
X69875000Y-143400000D01*
X69125000Y-143400000D01*
X69100496Y-143398796D01*
X69076227Y-143395196D01*
X69052429Y-143389235D01*
X69029329Y-143380970D01*
X69007151Y-143370480D01*
X68986107Y-143357867D01*
X68966402Y-143343253D01*
X68948223Y-143326777D01*
X68931747Y-143308598D01*
X68917133Y-143288893D01*
X68904520Y-143267849D01*
X68894030Y-143245671D01*
X68885765Y-143222571D01*
X68879804Y-143198773D01*
X68876204Y-143174504D01*
X68875000Y-143150000D01*
X68875000Y-142650000D01*
X68876204Y-142625496D01*
X68879804Y-142601227D01*
X68885765Y-142577429D01*
X68894030Y-142554329D01*
X68904520Y-142532151D01*
X68917133Y-142511107D01*
X68931747Y-142491402D01*
X68948223Y-142473223D01*
X68966402Y-142456747D01*
X68986107Y-142442133D01*
X69007151Y-142429520D01*
X69029329Y-142419030D01*
X69052429Y-142410765D01*
X69076227Y-142404804D01*
X69100496Y-142401204D01*
X69125000Y-142400000D01*
X69875000Y-142400000D01*
X69899504Y-142401204D01*
G37*
G36*
X74649504Y-145751204D02*
G01*
X74673773Y-145754804D01*
X74697571Y-145760765D01*
X74720671Y-145769030D01*
X74742849Y-145779520D01*
X74763893Y-145792133D01*
X74783598Y-145806747D01*
X74801777Y-145823223D01*
X74818253Y-145841402D01*
X74832867Y-145861107D01*
X74845480Y-145882151D01*
X74855970Y-145904329D01*
X74864235Y-145927429D01*
X74870196Y-145951227D01*
X74873796Y-145975496D01*
X74875000Y-146000000D01*
X74875000Y-146500000D01*
X74873796Y-146524504D01*
X74870196Y-146548773D01*
X74864235Y-146572571D01*
X74855970Y-146595671D01*
X74845480Y-146617849D01*
X74832867Y-146638893D01*
X74818253Y-146658598D01*
X74801777Y-146676777D01*
X74783598Y-146693253D01*
X74763893Y-146707867D01*
X74742849Y-146720480D01*
X74720671Y-146730970D01*
X74697571Y-146739235D01*
X74673773Y-146745196D01*
X74649504Y-146748796D01*
X74625000Y-146750000D01*
X73875000Y-146750000D01*
X73850496Y-146748796D01*
X73826227Y-146745196D01*
X73802429Y-146739235D01*
X73779329Y-146730970D01*
X73757151Y-146720480D01*
X73736107Y-146707867D01*
X73716402Y-146693253D01*
X73698223Y-146676777D01*
X73681747Y-146658598D01*
X73667133Y-146638893D01*
X73654520Y-146617849D01*
X73644030Y-146595671D01*
X73635765Y-146572571D01*
X73629804Y-146548773D01*
X73626204Y-146524504D01*
X73625000Y-146500000D01*
X73625000Y-146000000D01*
X73626204Y-145975496D01*
X73629804Y-145951227D01*
X73635765Y-145927429D01*
X73644030Y-145904329D01*
X73654520Y-145882151D01*
X73667133Y-145861107D01*
X73681747Y-145841402D01*
X73698223Y-145823223D01*
X73716402Y-145806747D01*
X73736107Y-145792133D01*
X73757151Y-145779520D01*
X73779329Y-145769030D01*
X73802429Y-145760765D01*
X73826227Y-145754804D01*
X73850496Y-145751204D01*
X73875000Y-145750000D01*
X74625000Y-145750000D01*
X74649504Y-145751204D01*
G37*
G36*
X74649504Y-143751204D02*
G01*
X74673773Y-143754804D01*
X74697571Y-143760765D01*
X74720671Y-143769030D01*
X74742849Y-143779520D01*
X74763893Y-143792133D01*
X74783598Y-143806747D01*
X74801777Y-143823223D01*
X74818253Y-143841402D01*
X74832867Y-143861107D01*
X74845480Y-143882151D01*
X74855970Y-143904329D01*
X74864235Y-143927429D01*
X74870196Y-143951227D01*
X74873796Y-143975496D01*
X74875000Y-144000000D01*
X74875000Y-144500000D01*
X74873796Y-144524504D01*
X74870196Y-144548773D01*
X74864235Y-144572571D01*
X74855970Y-144595671D01*
X74845480Y-144617849D01*
X74832867Y-144638893D01*
X74818253Y-144658598D01*
X74801777Y-144676777D01*
X74783598Y-144693253D01*
X74763893Y-144707867D01*
X74742849Y-144720480D01*
X74720671Y-144730970D01*
X74697571Y-144739235D01*
X74673773Y-144745196D01*
X74649504Y-144748796D01*
X74625000Y-144750000D01*
X73875000Y-144750000D01*
X73850496Y-144748796D01*
X73826227Y-144745196D01*
X73802429Y-144739235D01*
X73779329Y-144730970D01*
X73757151Y-144720480D01*
X73736107Y-144707867D01*
X73716402Y-144693253D01*
X73698223Y-144676777D01*
X73681747Y-144658598D01*
X73667133Y-144638893D01*
X73654520Y-144617849D01*
X73644030Y-144595671D01*
X73635765Y-144572571D01*
X73629804Y-144548773D01*
X73626204Y-144524504D01*
X73625000Y-144500000D01*
X73625000Y-144000000D01*
X73626204Y-143975496D01*
X73629804Y-143951227D01*
X73635765Y-143927429D01*
X73644030Y-143904329D01*
X73654520Y-143882151D01*
X73667133Y-143861107D01*
X73681747Y-143841402D01*
X73698223Y-143823223D01*
X73716402Y-143806747D01*
X73736107Y-143792133D01*
X73757151Y-143779520D01*
X73779329Y-143769030D01*
X73802429Y-143760765D01*
X73826227Y-143754804D01*
X73850496Y-143751204D01*
X73875000Y-143750000D01*
X74625000Y-143750000D01*
X74649504Y-143751204D01*
G37*
G36*
X70899504Y-154751204D02*
G01*
X70923773Y-154754804D01*
X70947571Y-154760765D01*
X70970671Y-154769030D01*
X70992849Y-154779520D01*
X71013893Y-154792133D01*
X71033598Y-154806747D01*
X71051777Y-154823223D01*
X71068253Y-154841402D01*
X71082867Y-154861107D01*
X71095480Y-154882151D01*
X71105970Y-154904329D01*
X71114235Y-154927429D01*
X71120196Y-154951227D01*
X71123796Y-154975496D01*
X71125000Y-155000000D01*
X71125000Y-155500000D01*
X71123796Y-155524504D01*
X71120196Y-155548773D01*
X71114235Y-155572571D01*
X71105970Y-155595671D01*
X71095480Y-155617849D01*
X71082867Y-155638893D01*
X71068253Y-155658598D01*
X71051777Y-155676777D01*
X71033598Y-155693253D01*
X71013893Y-155707867D01*
X70992849Y-155720480D01*
X70970671Y-155730970D01*
X70947571Y-155739235D01*
X70923773Y-155745196D01*
X70899504Y-155748796D01*
X70875000Y-155750000D01*
X70125000Y-155750000D01*
X70100496Y-155748796D01*
X70076227Y-155745196D01*
X70052429Y-155739235D01*
X70029329Y-155730970D01*
X70007151Y-155720480D01*
X69986107Y-155707867D01*
X69966402Y-155693253D01*
X69948223Y-155676777D01*
X69931747Y-155658598D01*
X69917133Y-155638893D01*
X69904520Y-155617849D01*
X69894030Y-155595671D01*
X69885765Y-155572571D01*
X69879804Y-155548773D01*
X69876204Y-155524504D01*
X69875000Y-155500000D01*
X69875000Y-155000000D01*
X69876204Y-154975496D01*
X69879804Y-154951227D01*
X69885765Y-154927429D01*
X69894030Y-154904329D01*
X69904520Y-154882151D01*
X69917133Y-154861107D01*
X69931747Y-154841402D01*
X69948223Y-154823223D01*
X69966402Y-154806747D01*
X69986107Y-154792133D01*
X70007151Y-154779520D01*
X70029329Y-154769030D01*
X70052429Y-154760765D01*
X70076227Y-154754804D01*
X70100496Y-154751204D01*
X70125000Y-154750000D01*
X70875000Y-154750000D01*
X70899504Y-154751204D01*
G37*
G36*
X70899504Y-156751204D02*
G01*
X70923773Y-156754804D01*
X70947571Y-156760765D01*
X70970671Y-156769030D01*
X70992849Y-156779520D01*
X71013893Y-156792133D01*
X71033598Y-156806747D01*
X71051777Y-156823223D01*
X71068253Y-156841402D01*
X71082867Y-156861107D01*
X71095480Y-156882151D01*
X71105970Y-156904329D01*
X71114235Y-156927429D01*
X71120196Y-156951227D01*
X71123796Y-156975496D01*
X71125000Y-157000000D01*
X71125000Y-157500000D01*
X71123796Y-157524504D01*
X71120196Y-157548773D01*
X71114235Y-157572571D01*
X71105970Y-157595671D01*
X71095480Y-157617849D01*
X71082867Y-157638893D01*
X71068253Y-157658598D01*
X71051777Y-157676777D01*
X71033598Y-157693253D01*
X71013893Y-157707867D01*
X70992849Y-157720480D01*
X70970671Y-157730970D01*
X70947571Y-157739235D01*
X70923773Y-157745196D01*
X70899504Y-157748796D01*
X70875000Y-157750000D01*
X70125000Y-157750000D01*
X70100496Y-157748796D01*
X70076227Y-157745196D01*
X70052429Y-157739235D01*
X70029329Y-157730970D01*
X70007151Y-157720480D01*
X69986107Y-157707867D01*
X69966402Y-157693253D01*
X69948223Y-157676777D01*
X69931747Y-157658598D01*
X69917133Y-157638893D01*
X69904520Y-157617849D01*
X69894030Y-157595671D01*
X69885765Y-157572571D01*
X69879804Y-157548773D01*
X69876204Y-157524504D01*
X69875000Y-157500000D01*
X69875000Y-157000000D01*
X69876204Y-156975496D01*
X69879804Y-156951227D01*
X69885765Y-156927429D01*
X69894030Y-156904329D01*
X69904520Y-156882151D01*
X69917133Y-156861107D01*
X69931747Y-156841402D01*
X69948223Y-156823223D01*
X69966402Y-156806747D01*
X69986107Y-156792133D01*
X70007151Y-156779520D01*
X70029329Y-156769030D01*
X70052429Y-156760765D01*
X70076227Y-156754804D01*
X70100496Y-156751204D01*
X70125000Y-156750000D01*
X70875000Y-156750000D01*
X70899504Y-156751204D01*
G37*
G36*
X55149504Y-154001204D02*
G01*
X55173773Y-154004804D01*
X55197571Y-154010765D01*
X55220671Y-154019030D01*
X55242849Y-154029520D01*
X55263893Y-154042133D01*
X55283598Y-154056747D01*
X55301777Y-154073223D01*
X55318253Y-154091402D01*
X55332867Y-154111107D01*
X55345480Y-154132151D01*
X55355970Y-154154329D01*
X55364235Y-154177429D01*
X55370196Y-154201227D01*
X55373796Y-154225496D01*
X55375000Y-154250000D01*
X55375000Y-154750000D01*
X55373796Y-154774504D01*
X55370196Y-154798773D01*
X55364235Y-154822571D01*
X55355970Y-154845671D01*
X55345480Y-154867849D01*
X55332867Y-154888893D01*
X55318253Y-154908598D01*
X55301777Y-154926777D01*
X55283598Y-154943253D01*
X55263893Y-154957867D01*
X55242849Y-154970480D01*
X55220671Y-154980970D01*
X55197571Y-154989235D01*
X55173773Y-154995196D01*
X55149504Y-154998796D01*
X55125000Y-155000000D01*
X54375000Y-155000000D01*
X54350496Y-154998796D01*
X54326227Y-154995196D01*
X54302429Y-154989235D01*
X54279329Y-154980970D01*
X54257151Y-154970480D01*
X54236107Y-154957867D01*
X54216402Y-154943253D01*
X54198223Y-154926777D01*
X54181747Y-154908598D01*
X54167133Y-154888893D01*
X54154520Y-154867849D01*
X54144030Y-154845671D01*
X54135765Y-154822571D01*
X54129804Y-154798773D01*
X54126204Y-154774504D01*
X54125000Y-154750000D01*
X54125000Y-154250000D01*
X54126204Y-154225496D01*
X54129804Y-154201227D01*
X54135765Y-154177429D01*
X54144030Y-154154329D01*
X54154520Y-154132151D01*
X54167133Y-154111107D01*
X54181747Y-154091402D01*
X54198223Y-154073223D01*
X54216402Y-154056747D01*
X54236107Y-154042133D01*
X54257151Y-154029520D01*
X54279329Y-154019030D01*
X54302429Y-154010765D01*
X54326227Y-154004804D01*
X54350496Y-154001204D01*
X54375000Y-154000000D01*
X55125000Y-154000000D01*
X55149504Y-154001204D01*
G37*
G36*
X55149504Y-156001204D02*
G01*
X55173773Y-156004804D01*
X55197571Y-156010765D01*
X55220671Y-156019030D01*
X55242849Y-156029520D01*
X55263893Y-156042133D01*
X55283598Y-156056747D01*
X55301777Y-156073223D01*
X55318253Y-156091402D01*
X55332867Y-156111107D01*
X55345480Y-156132151D01*
X55355970Y-156154329D01*
X55364235Y-156177429D01*
X55370196Y-156201227D01*
X55373796Y-156225496D01*
X55375000Y-156250000D01*
X55375000Y-156750000D01*
X55373796Y-156774504D01*
X55370196Y-156798773D01*
X55364235Y-156822571D01*
X55355970Y-156845671D01*
X55345480Y-156867849D01*
X55332867Y-156888893D01*
X55318253Y-156908598D01*
X55301777Y-156926777D01*
X55283598Y-156943253D01*
X55263893Y-156957867D01*
X55242849Y-156970480D01*
X55220671Y-156980970D01*
X55197571Y-156989235D01*
X55173773Y-156995196D01*
X55149504Y-156998796D01*
X55125000Y-157000000D01*
X54375000Y-157000000D01*
X54350496Y-156998796D01*
X54326227Y-156995196D01*
X54302429Y-156989235D01*
X54279329Y-156980970D01*
X54257151Y-156970480D01*
X54236107Y-156957867D01*
X54216402Y-156943253D01*
X54198223Y-156926777D01*
X54181747Y-156908598D01*
X54167133Y-156888893D01*
X54154520Y-156867849D01*
X54144030Y-156845671D01*
X54135765Y-156822571D01*
X54129804Y-156798773D01*
X54126204Y-156774504D01*
X54125000Y-156750000D01*
X54125000Y-156250000D01*
X54126204Y-156225496D01*
X54129804Y-156201227D01*
X54135765Y-156177429D01*
X54144030Y-156154329D01*
X54154520Y-156132151D01*
X54167133Y-156111107D01*
X54181747Y-156091402D01*
X54198223Y-156073223D01*
X54216402Y-156056747D01*
X54236107Y-156042133D01*
X54257151Y-156029520D01*
X54279329Y-156019030D01*
X54302429Y-156010765D01*
X54326227Y-156004804D01*
X54350496Y-156001204D01*
X54375000Y-156000000D01*
X55125000Y-156000000D01*
X55149504Y-156001204D01*
G37*
G36*
X39149504Y-154001204D02*
G01*
X39173773Y-154004804D01*
X39197571Y-154010765D01*
X39220671Y-154019030D01*
X39242849Y-154029520D01*
X39263893Y-154042133D01*
X39283598Y-154056747D01*
X39301777Y-154073223D01*
X39318253Y-154091402D01*
X39332867Y-154111107D01*
X39345480Y-154132151D01*
X39355970Y-154154329D01*
X39364235Y-154177429D01*
X39370196Y-154201227D01*
X39373796Y-154225496D01*
X39375000Y-154250000D01*
X39375000Y-154750000D01*
X39373796Y-154774504D01*
X39370196Y-154798773D01*
X39364235Y-154822571D01*
X39355970Y-154845671D01*
X39345480Y-154867849D01*
X39332867Y-154888893D01*
X39318253Y-154908598D01*
X39301777Y-154926777D01*
X39283598Y-154943253D01*
X39263893Y-154957867D01*
X39242849Y-154970480D01*
X39220671Y-154980970D01*
X39197571Y-154989235D01*
X39173773Y-154995196D01*
X39149504Y-154998796D01*
X39125000Y-155000000D01*
X38375000Y-155000000D01*
X38350496Y-154998796D01*
X38326227Y-154995196D01*
X38302429Y-154989235D01*
X38279329Y-154980970D01*
X38257151Y-154970480D01*
X38236107Y-154957867D01*
X38216402Y-154943253D01*
X38198223Y-154926777D01*
X38181747Y-154908598D01*
X38167133Y-154888893D01*
X38154520Y-154867849D01*
X38144030Y-154845671D01*
X38135765Y-154822571D01*
X38129804Y-154798773D01*
X38126204Y-154774504D01*
X38125000Y-154750000D01*
X38125000Y-154250000D01*
X38126204Y-154225496D01*
X38129804Y-154201227D01*
X38135765Y-154177429D01*
X38144030Y-154154329D01*
X38154520Y-154132151D01*
X38167133Y-154111107D01*
X38181747Y-154091402D01*
X38198223Y-154073223D01*
X38216402Y-154056747D01*
X38236107Y-154042133D01*
X38257151Y-154029520D01*
X38279329Y-154019030D01*
X38302429Y-154010765D01*
X38326227Y-154004804D01*
X38350496Y-154001204D01*
X38375000Y-154000000D01*
X39125000Y-154000000D01*
X39149504Y-154001204D01*
G37*
G36*
X39149504Y-156001204D02*
G01*
X39173773Y-156004804D01*
X39197571Y-156010765D01*
X39220671Y-156019030D01*
X39242849Y-156029520D01*
X39263893Y-156042133D01*
X39283598Y-156056747D01*
X39301777Y-156073223D01*
X39318253Y-156091402D01*
X39332867Y-156111107D01*
X39345480Y-156132151D01*
X39355970Y-156154329D01*
X39364235Y-156177429D01*
X39370196Y-156201227D01*
X39373796Y-156225496D01*
X39375000Y-156250000D01*
X39375000Y-156750000D01*
X39373796Y-156774504D01*
X39370196Y-156798773D01*
X39364235Y-156822571D01*
X39355970Y-156845671D01*
X39345480Y-156867849D01*
X39332867Y-156888893D01*
X39318253Y-156908598D01*
X39301777Y-156926777D01*
X39283598Y-156943253D01*
X39263893Y-156957867D01*
X39242849Y-156970480D01*
X39220671Y-156980970D01*
X39197571Y-156989235D01*
X39173773Y-156995196D01*
X39149504Y-156998796D01*
X39125000Y-157000000D01*
X38375000Y-157000000D01*
X38350496Y-156998796D01*
X38326227Y-156995196D01*
X38302429Y-156989235D01*
X38279329Y-156980970D01*
X38257151Y-156970480D01*
X38236107Y-156957867D01*
X38216402Y-156943253D01*
X38198223Y-156926777D01*
X38181747Y-156908598D01*
X38167133Y-156888893D01*
X38154520Y-156867849D01*
X38144030Y-156845671D01*
X38135765Y-156822571D01*
X38129804Y-156798773D01*
X38126204Y-156774504D01*
X38125000Y-156750000D01*
X38125000Y-156250000D01*
X38126204Y-156225496D01*
X38129804Y-156201227D01*
X38135765Y-156177429D01*
X38144030Y-156154329D01*
X38154520Y-156132151D01*
X38167133Y-156111107D01*
X38181747Y-156091402D01*
X38198223Y-156073223D01*
X38216402Y-156056747D01*
X38236107Y-156042133D01*
X38257151Y-156029520D01*
X38279329Y-156019030D01*
X38302429Y-156010765D01*
X38326227Y-156004804D01*
X38350496Y-156001204D01*
X38375000Y-156000000D01*
X39125000Y-156000000D01*
X39149504Y-156001204D01*
G37*
G36*
X41149504Y-156001204D02*
G01*
X41173773Y-156004804D01*
X41197571Y-156010765D01*
X41220671Y-156019030D01*
X41242849Y-156029520D01*
X41263893Y-156042133D01*
X41283598Y-156056747D01*
X41301777Y-156073223D01*
X41318253Y-156091402D01*
X41332867Y-156111107D01*
X41345480Y-156132151D01*
X41355970Y-156154329D01*
X41364235Y-156177429D01*
X41370196Y-156201227D01*
X41373796Y-156225496D01*
X41375000Y-156250000D01*
X41375000Y-156750000D01*
X41373796Y-156774504D01*
X41370196Y-156798773D01*
X41364235Y-156822571D01*
X41355970Y-156845671D01*
X41345480Y-156867849D01*
X41332867Y-156888893D01*
X41318253Y-156908598D01*
X41301777Y-156926777D01*
X41283598Y-156943253D01*
X41263893Y-156957867D01*
X41242849Y-156970480D01*
X41220671Y-156980970D01*
X41197571Y-156989235D01*
X41173773Y-156995196D01*
X41149504Y-156998796D01*
X41125000Y-157000000D01*
X40375000Y-157000000D01*
X40350496Y-156998796D01*
X40326227Y-156995196D01*
X40302429Y-156989235D01*
X40279329Y-156980970D01*
X40257151Y-156970480D01*
X40236107Y-156957867D01*
X40216402Y-156943253D01*
X40198223Y-156926777D01*
X40181747Y-156908598D01*
X40167133Y-156888893D01*
X40154520Y-156867849D01*
X40144030Y-156845671D01*
X40135765Y-156822571D01*
X40129804Y-156798773D01*
X40126204Y-156774504D01*
X40125000Y-156750000D01*
X40125000Y-156250000D01*
X40126204Y-156225496D01*
X40129804Y-156201227D01*
X40135765Y-156177429D01*
X40144030Y-156154329D01*
X40154520Y-156132151D01*
X40167133Y-156111107D01*
X40181747Y-156091402D01*
X40198223Y-156073223D01*
X40216402Y-156056747D01*
X40236107Y-156042133D01*
X40257151Y-156029520D01*
X40279329Y-156019030D01*
X40302429Y-156010765D01*
X40326227Y-156004804D01*
X40350496Y-156001204D01*
X40375000Y-156000000D01*
X41125000Y-156000000D01*
X41149504Y-156001204D01*
G37*
G36*
X41149504Y-154001204D02*
G01*
X41173773Y-154004804D01*
X41197571Y-154010765D01*
X41220671Y-154019030D01*
X41242849Y-154029520D01*
X41263893Y-154042133D01*
X41283598Y-154056747D01*
X41301777Y-154073223D01*
X41318253Y-154091402D01*
X41332867Y-154111107D01*
X41345480Y-154132151D01*
X41355970Y-154154329D01*
X41364235Y-154177429D01*
X41370196Y-154201227D01*
X41373796Y-154225496D01*
X41375000Y-154250000D01*
X41375000Y-154750000D01*
X41373796Y-154774504D01*
X41370196Y-154798773D01*
X41364235Y-154822571D01*
X41355970Y-154845671D01*
X41345480Y-154867849D01*
X41332867Y-154888893D01*
X41318253Y-154908598D01*
X41301777Y-154926777D01*
X41283598Y-154943253D01*
X41263893Y-154957867D01*
X41242849Y-154970480D01*
X41220671Y-154980970D01*
X41197571Y-154989235D01*
X41173773Y-154995196D01*
X41149504Y-154998796D01*
X41125000Y-155000000D01*
X40375000Y-155000000D01*
X40350496Y-154998796D01*
X40326227Y-154995196D01*
X40302429Y-154989235D01*
X40279329Y-154980970D01*
X40257151Y-154970480D01*
X40236107Y-154957867D01*
X40216402Y-154943253D01*
X40198223Y-154926777D01*
X40181747Y-154908598D01*
X40167133Y-154888893D01*
X40154520Y-154867849D01*
X40144030Y-154845671D01*
X40135765Y-154822571D01*
X40129804Y-154798773D01*
X40126204Y-154774504D01*
X40125000Y-154750000D01*
X40125000Y-154250000D01*
X40126204Y-154225496D01*
X40129804Y-154201227D01*
X40135765Y-154177429D01*
X40144030Y-154154329D01*
X40154520Y-154132151D01*
X40167133Y-154111107D01*
X40181747Y-154091402D01*
X40198223Y-154073223D01*
X40216402Y-154056747D01*
X40236107Y-154042133D01*
X40257151Y-154029520D01*
X40279329Y-154019030D01*
X40302429Y-154010765D01*
X40326227Y-154004804D01*
X40350496Y-154001204D01*
X40375000Y-154000000D01*
X41125000Y-154000000D01*
X41149504Y-154001204D01*
G37*
G36*
X43149504Y-156001204D02*
G01*
X43173773Y-156004804D01*
X43197571Y-156010765D01*
X43220671Y-156019030D01*
X43242849Y-156029520D01*
X43263893Y-156042133D01*
X43283598Y-156056747D01*
X43301777Y-156073223D01*
X43318253Y-156091402D01*
X43332867Y-156111107D01*
X43345480Y-156132151D01*
X43355970Y-156154329D01*
X43364235Y-156177429D01*
X43370196Y-156201227D01*
X43373796Y-156225496D01*
X43375000Y-156250000D01*
X43375000Y-156750000D01*
X43373796Y-156774504D01*
X43370196Y-156798773D01*
X43364235Y-156822571D01*
X43355970Y-156845671D01*
X43345480Y-156867849D01*
X43332867Y-156888893D01*
X43318253Y-156908598D01*
X43301777Y-156926777D01*
X43283598Y-156943253D01*
X43263893Y-156957867D01*
X43242849Y-156970480D01*
X43220671Y-156980970D01*
X43197571Y-156989235D01*
X43173773Y-156995196D01*
X43149504Y-156998796D01*
X43125000Y-157000000D01*
X42375000Y-157000000D01*
X42350496Y-156998796D01*
X42326227Y-156995196D01*
X42302429Y-156989235D01*
X42279329Y-156980970D01*
X42257151Y-156970480D01*
X42236107Y-156957867D01*
X42216402Y-156943253D01*
X42198223Y-156926777D01*
X42181747Y-156908598D01*
X42167133Y-156888893D01*
X42154520Y-156867849D01*
X42144030Y-156845671D01*
X42135765Y-156822571D01*
X42129804Y-156798773D01*
X42126204Y-156774504D01*
X42125000Y-156750000D01*
X42125000Y-156250000D01*
X42126204Y-156225496D01*
X42129804Y-156201227D01*
X42135765Y-156177429D01*
X42144030Y-156154329D01*
X42154520Y-156132151D01*
X42167133Y-156111107D01*
X42181747Y-156091402D01*
X42198223Y-156073223D01*
X42216402Y-156056747D01*
X42236107Y-156042133D01*
X42257151Y-156029520D01*
X42279329Y-156019030D01*
X42302429Y-156010765D01*
X42326227Y-156004804D01*
X42350496Y-156001204D01*
X42375000Y-156000000D01*
X43125000Y-156000000D01*
X43149504Y-156001204D01*
G37*
G36*
X43149504Y-154001204D02*
G01*
X43173773Y-154004804D01*
X43197571Y-154010765D01*
X43220671Y-154019030D01*
X43242849Y-154029520D01*
X43263893Y-154042133D01*
X43283598Y-154056747D01*
X43301777Y-154073223D01*
X43318253Y-154091402D01*
X43332867Y-154111107D01*
X43345480Y-154132151D01*
X43355970Y-154154329D01*
X43364235Y-154177429D01*
X43370196Y-154201227D01*
X43373796Y-154225496D01*
X43375000Y-154250000D01*
X43375000Y-154750000D01*
X43373796Y-154774504D01*
X43370196Y-154798773D01*
X43364235Y-154822571D01*
X43355970Y-154845671D01*
X43345480Y-154867849D01*
X43332867Y-154888893D01*
X43318253Y-154908598D01*
X43301777Y-154926777D01*
X43283598Y-154943253D01*
X43263893Y-154957867D01*
X43242849Y-154970480D01*
X43220671Y-154980970D01*
X43197571Y-154989235D01*
X43173773Y-154995196D01*
X43149504Y-154998796D01*
X43125000Y-155000000D01*
X42375000Y-155000000D01*
X42350496Y-154998796D01*
X42326227Y-154995196D01*
X42302429Y-154989235D01*
X42279329Y-154980970D01*
X42257151Y-154970480D01*
X42236107Y-154957867D01*
X42216402Y-154943253D01*
X42198223Y-154926777D01*
X42181747Y-154908598D01*
X42167133Y-154888893D01*
X42154520Y-154867849D01*
X42144030Y-154845671D01*
X42135765Y-154822571D01*
X42129804Y-154798773D01*
X42126204Y-154774504D01*
X42125000Y-154750000D01*
X42125000Y-154250000D01*
X42126204Y-154225496D01*
X42129804Y-154201227D01*
X42135765Y-154177429D01*
X42144030Y-154154329D01*
X42154520Y-154132151D01*
X42167133Y-154111107D01*
X42181747Y-154091402D01*
X42198223Y-154073223D01*
X42216402Y-154056747D01*
X42236107Y-154042133D01*
X42257151Y-154029520D01*
X42279329Y-154019030D01*
X42302429Y-154010765D01*
X42326227Y-154004804D01*
X42350496Y-154001204D01*
X42375000Y-154000000D01*
X43125000Y-154000000D01*
X43149504Y-154001204D01*
G37*
G36*
X45149504Y-154001204D02*
G01*
X45173773Y-154004804D01*
X45197571Y-154010765D01*
X45220671Y-154019030D01*
X45242849Y-154029520D01*
X45263893Y-154042133D01*
X45283598Y-154056747D01*
X45301777Y-154073223D01*
X45318253Y-154091402D01*
X45332867Y-154111107D01*
X45345480Y-154132151D01*
X45355970Y-154154329D01*
X45364235Y-154177429D01*
X45370196Y-154201227D01*
X45373796Y-154225496D01*
X45375000Y-154250000D01*
X45375000Y-154750000D01*
X45373796Y-154774504D01*
X45370196Y-154798773D01*
X45364235Y-154822571D01*
X45355970Y-154845671D01*
X45345480Y-154867849D01*
X45332867Y-154888893D01*
X45318253Y-154908598D01*
X45301777Y-154926777D01*
X45283598Y-154943253D01*
X45263893Y-154957867D01*
X45242849Y-154970480D01*
X45220671Y-154980970D01*
X45197571Y-154989235D01*
X45173773Y-154995196D01*
X45149504Y-154998796D01*
X45125000Y-155000000D01*
X44375000Y-155000000D01*
X44350496Y-154998796D01*
X44326227Y-154995196D01*
X44302429Y-154989235D01*
X44279329Y-154980970D01*
X44257151Y-154970480D01*
X44236107Y-154957867D01*
X44216402Y-154943253D01*
X44198223Y-154926777D01*
X44181747Y-154908598D01*
X44167133Y-154888893D01*
X44154520Y-154867849D01*
X44144030Y-154845671D01*
X44135765Y-154822571D01*
X44129804Y-154798773D01*
X44126204Y-154774504D01*
X44125000Y-154750000D01*
X44125000Y-154250000D01*
X44126204Y-154225496D01*
X44129804Y-154201227D01*
X44135765Y-154177429D01*
X44144030Y-154154329D01*
X44154520Y-154132151D01*
X44167133Y-154111107D01*
X44181747Y-154091402D01*
X44198223Y-154073223D01*
X44216402Y-154056747D01*
X44236107Y-154042133D01*
X44257151Y-154029520D01*
X44279329Y-154019030D01*
X44302429Y-154010765D01*
X44326227Y-154004804D01*
X44350496Y-154001204D01*
X44375000Y-154000000D01*
X45125000Y-154000000D01*
X45149504Y-154001204D01*
G37*
G36*
X45149504Y-156001204D02*
G01*
X45173773Y-156004804D01*
X45197571Y-156010765D01*
X45220671Y-156019030D01*
X45242849Y-156029520D01*
X45263893Y-156042133D01*
X45283598Y-156056747D01*
X45301777Y-156073223D01*
X45318253Y-156091402D01*
X45332867Y-156111107D01*
X45345480Y-156132151D01*
X45355970Y-156154329D01*
X45364235Y-156177429D01*
X45370196Y-156201227D01*
X45373796Y-156225496D01*
X45375000Y-156250000D01*
X45375000Y-156750000D01*
X45373796Y-156774504D01*
X45370196Y-156798773D01*
X45364235Y-156822571D01*
X45355970Y-156845671D01*
X45345480Y-156867849D01*
X45332867Y-156888893D01*
X45318253Y-156908598D01*
X45301777Y-156926777D01*
X45283598Y-156943253D01*
X45263893Y-156957867D01*
X45242849Y-156970480D01*
X45220671Y-156980970D01*
X45197571Y-156989235D01*
X45173773Y-156995196D01*
X45149504Y-156998796D01*
X45125000Y-157000000D01*
X44375000Y-157000000D01*
X44350496Y-156998796D01*
X44326227Y-156995196D01*
X44302429Y-156989235D01*
X44279329Y-156980970D01*
X44257151Y-156970480D01*
X44236107Y-156957867D01*
X44216402Y-156943253D01*
X44198223Y-156926777D01*
X44181747Y-156908598D01*
X44167133Y-156888893D01*
X44154520Y-156867849D01*
X44144030Y-156845671D01*
X44135765Y-156822571D01*
X44129804Y-156798773D01*
X44126204Y-156774504D01*
X44125000Y-156750000D01*
X44125000Y-156250000D01*
X44126204Y-156225496D01*
X44129804Y-156201227D01*
X44135765Y-156177429D01*
X44144030Y-156154329D01*
X44154520Y-156132151D01*
X44167133Y-156111107D01*
X44181747Y-156091402D01*
X44198223Y-156073223D01*
X44216402Y-156056747D01*
X44236107Y-156042133D01*
X44257151Y-156029520D01*
X44279329Y-156019030D01*
X44302429Y-156010765D01*
X44326227Y-156004804D01*
X44350496Y-156001204D01*
X44375000Y-156000000D01*
X45125000Y-156000000D01*
X45149504Y-156001204D01*
G37*
G36*
X47149504Y-156001204D02*
G01*
X47173773Y-156004804D01*
X47197571Y-156010765D01*
X47220671Y-156019030D01*
X47242849Y-156029520D01*
X47263893Y-156042133D01*
X47283598Y-156056747D01*
X47301777Y-156073223D01*
X47318253Y-156091402D01*
X47332867Y-156111107D01*
X47345480Y-156132151D01*
X47355970Y-156154329D01*
X47364235Y-156177429D01*
X47370196Y-156201227D01*
X47373796Y-156225496D01*
X47375000Y-156250000D01*
X47375000Y-156750000D01*
X47373796Y-156774504D01*
X47370196Y-156798773D01*
X47364235Y-156822571D01*
X47355970Y-156845671D01*
X47345480Y-156867849D01*
X47332867Y-156888893D01*
X47318253Y-156908598D01*
X47301777Y-156926777D01*
X47283598Y-156943253D01*
X47263893Y-156957867D01*
X47242849Y-156970480D01*
X47220671Y-156980970D01*
X47197571Y-156989235D01*
X47173773Y-156995196D01*
X47149504Y-156998796D01*
X47125000Y-157000000D01*
X46375000Y-157000000D01*
X46350496Y-156998796D01*
X46326227Y-156995196D01*
X46302429Y-156989235D01*
X46279329Y-156980970D01*
X46257151Y-156970480D01*
X46236107Y-156957867D01*
X46216402Y-156943253D01*
X46198223Y-156926777D01*
X46181747Y-156908598D01*
X46167133Y-156888893D01*
X46154520Y-156867849D01*
X46144030Y-156845671D01*
X46135765Y-156822571D01*
X46129804Y-156798773D01*
X46126204Y-156774504D01*
X46125000Y-156750000D01*
X46125000Y-156250000D01*
X46126204Y-156225496D01*
X46129804Y-156201227D01*
X46135765Y-156177429D01*
X46144030Y-156154329D01*
X46154520Y-156132151D01*
X46167133Y-156111107D01*
X46181747Y-156091402D01*
X46198223Y-156073223D01*
X46216402Y-156056747D01*
X46236107Y-156042133D01*
X46257151Y-156029520D01*
X46279329Y-156019030D01*
X46302429Y-156010765D01*
X46326227Y-156004804D01*
X46350496Y-156001204D01*
X46375000Y-156000000D01*
X47125000Y-156000000D01*
X47149504Y-156001204D01*
G37*
G36*
X47149504Y-154001204D02*
G01*
X47173773Y-154004804D01*
X47197571Y-154010765D01*
X47220671Y-154019030D01*
X47242849Y-154029520D01*
X47263893Y-154042133D01*
X47283598Y-154056747D01*
X47301777Y-154073223D01*
X47318253Y-154091402D01*
X47332867Y-154111107D01*
X47345480Y-154132151D01*
X47355970Y-154154329D01*
X47364235Y-154177429D01*
X47370196Y-154201227D01*
X47373796Y-154225496D01*
X47375000Y-154250000D01*
X47375000Y-154750000D01*
X47373796Y-154774504D01*
X47370196Y-154798773D01*
X47364235Y-154822571D01*
X47355970Y-154845671D01*
X47345480Y-154867849D01*
X47332867Y-154888893D01*
X47318253Y-154908598D01*
X47301777Y-154926777D01*
X47283598Y-154943253D01*
X47263893Y-154957867D01*
X47242849Y-154970480D01*
X47220671Y-154980970D01*
X47197571Y-154989235D01*
X47173773Y-154995196D01*
X47149504Y-154998796D01*
X47125000Y-155000000D01*
X46375000Y-155000000D01*
X46350496Y-154998796D01*
X46326227Y-154995196D01*
X46302429Y-154989235D01*
X46279329Y-154980970D01*
X46257151Y-154970480D01*
X46236107Y-154957867D01*
X46216402Y-154943253D01*
X46198223Y-154926777D01*
X46181747Y-154908598D01*
X46167133Y-154888893D01*
X46154520Y-154867849D01*
X46144030Y-154845671D01*
X46135765Y-154822571D01*
X46129804Y-154798773D01*
X46126204Y-154774504D01*
X46125000Y-154750000D01*
X46125000Y-154250000D01*
X46126204Y-154225496D01*
X46129804Y-154201227D01*
X46135765Y-154177429D01*
X46144030Y-154154329D01*
X46154520Y-154132151D01*
X46167133Y-154111107D01*
X46181747Y-154091402D01*
X46198223Y-154073223D01*
X46216402Y-154056747D01*
X46236107Y-154042133D01*
X46257151Y-154029520D01*
X46279329Y-154019030D01*
X46302429Y-154010765D01*
X46326227Y-154004804D01*
X46350496Y-154001204D01*
X46375000Y-154000000D01*
X47125000Y-154000000D01*
X47149504Y-154001204D01*
G37*
G36*
X49149504Y-154001204D02*
G01*
X49173773Y-154004804D01*
X49197571Y-154010765D01*
X49220671Y-154019030D01*
X49242849Y-154029520D01*
X49263893Y-154042133D01*
X49283598Y-154056747D01*
X49301777Y-154073223D01*
X49318253Y-154091402D01*
X49332867Y-154111107D01*
X49345480Y-154132151D01*
X49355970Y-154154329D01*
X49364235Y-154177429D01*
X49370196Y-154201227D01*
X49373796Y-154225496D01*
X49375000Y-154250000D01*
X49375000Y-154750000D01*
X49373796Y-154774504D01*
X49370196Y-154798773D01*
X49364235Y-154822571D01*
X49355970Y-154845671D01*
X49345480Y-154867849D01*
X49332867Y-154888893D01*
X49318253Y-154908598D01*
X49301777Y-154926777D01*
X49283598Y-154943253D01*
X49263893Y-154957867D01*
X49242849Y-154970480D01*
X49220671Y-154980970D01*
X49197571Y-154989235D01*
X49173773Y-154995196D01*
X49149504Y-154998796D01*
X49125000Y-155000000D01*
X48375000Y-155000000D01*
X48350496Y-154998796D01*
X48326227Y-154995196D01*
X48302429Y-154989235D01*
X48279329Y-154980970D01*
X48257151Y-154970480D01*
X48236107Y-154957867D01*
X48216402Y-154943253D01*
X48198223Y-154926777D01*
X48181747Y-154908598D01*
X48167133Y-154888893D01*
X48154520Y-154867849D01*
X48144030Y-154845671D01*
X48135765Y-154822571D01*
X48129804Y-154798773D01*
X48126204Y-154774504D01*
X48125000Y-154750000D01*
X48125000Y-154250000D01*
X48126204Y-154225496D01*
X48129804Y-154201227D01*
X48135765Y-154177429D01*
X48144030Y-154154329D01*
X48154520Y-154132151D01*
X48167133Y-154111107D01*
X48181747Y-154091402D01*
X48198223Y-154073223D01*
X48216402Y-154056747D01*
X48236107Y-154042133D01*
X48257151Y-154029520D01*
X48279329Y-154019030D01*
X48302429Y-154010765D01*
X48326227Y-154004804D01*
X48350496Y-154001204D01*
X48375000Y-154000000D01*
X49125000Y-154000000D01*
X49149504Y-154001204D01*
G37*
G36*
X49149504Y-156001204D02*
G01*
X49173773Y-156004804D01*
X49197571Y-156010765D01*
X49220671Y-156019030D01*
X49242849Y-156029520D01*
X49263893Y-156042133D01*
X49283598Y-156056747D01*
X49301777Y-156073223D01*
X49318253Y-156091402D01*
X49332867Y-156111107D01*
X49345480Y-156132151D01*
X49355970Y-156154329D01*
X49364235Y-156177429D01*
X49370196Y-156201227D01*
X49373796Y-156225496D01*
X49375000Y-156250000D01*
X49375000Y-156750000D01*
X49373796Y-156774504D01*
X49370196Y-156798773D01*
X49364235Y-156822571D01*
X49355970Y-156845671D01*
X49345480Y-156867849D01*
X49332867Y-156888893D01*
X49318253Y-156908598D01*
X49301777Y-156926777D01*
X49283598Y-156943253D01*
X49263893Y-156957867D01*
X49242849Y-156970480D01*
X49220671Y-156980970D01*
X49197571Y-156989235D01*
X49173773Y-156995196D01*
X49149504Y-156998796D01*
X49125000Y-157000000D01*
X48375000Y-157000000D01*
X48350496Y-156998796D01*
X48326227Y-156995196D01*
X48302429Y-156989235D01*
X48279329Y-156980970D01*
X48257151Y-156970480D01*
X48236107Y-156957867D01*
X48216402Y-156943253D01*
X48198223Y-156926777D01*
X48181747Y-156908598D01*
X48167133Y-156888893D01*
X48154520Y-156867849D01*
X48144030Y-156845671D01*
X48135765Y-156822571D01*
X48129804Y-156798773D01*
X48126204Y-156774504D01*
X48125000Y-156750000D01*
X48125000Y-156250000D01*
X48126204Y-156225496D01*
X48129804Y-156201227D01*
X48135765Y-156177429D01*
X48144030Y-156154329D01*
X48154520Y-156132151D01*
X48167133Y-156111107D01*
X48181747Y-156091402D01*
X48198223Y-156073223D01*
X48216402Y-156056747D01*
X48236107Y-156042133D01*
X48257151Y-156029520D01*
X48279329Y-156019030D01*
X48302429Y-156010765D01*
X48326227Y-156004804D01*
X48350496Y-156001204D01*
X48375000Y-156000000D01*
X49125000Y-156000000D01*
X49149504Y-156001204D01*
G37*
D13*
X64575000Y-151950000D03*
X65225000Y-151950000D03*
X65875000Y-151950000D03*
X66525000Y-151950000D03*
X67175000Y-151950000D03*
X67825000Y-151950000D03*
X68475000Y-151950000D03*
X69125000Y-151950000D03*
X69775000Y-151950000D03*
X70425000Y-151950000D03*
X70425000Y-146050000D03*
X69775000Y-146050000D03*
X69125000Y-146050000D03*
X68475000Y-146050000D03*
X67825000Y-146050000D03*
X67175000Y-146050000D03*
X66525000Y-146050000D03*
X65875000Y-146050000D03*
X65225000Y-146050000D03*
X64575000Y-146050000D03*
D12*
G36*
X76219703Y-150500722D02*
G01*
X76234264Y-150502882D01*
X76248543Y-150506459D01*
X76262403Y-150511418D01*
X76275710Y-150517712D01*
X76288336Y-150525280D01*
X76300159Y-150534048D01*
X76311066Y-150543934D01*
X76320952Y-150554841D01*
X76329720Y-150566664D01*
X76337288Y-150579290D01*
X76343582Y-150592597D01*
X76348541Y-150606457D01*
X76352118Y-150620736D01*
X76354278Y-150635297D01*
X76355000Y-150650000D01*
X76355000Y-152300000D01*
X76354278Y-152314703D01*
X76352118Y-152329264D01*
X76348541Y-152343543D01*
X76343582Y-152357403D01*
X76337288Y-152370710D01*
X76329720Y-152383336D01*
X76320952Y-152395159D01*
X76311066Y-152406066D01*
X76300159Y-152415952D01*
X76288336Y-152424720D01*
X76275710Y-152432288D01*
X76262403Y-152438582D01*
X76248543Y-152443541D01*
X76234264Y-152447118D01*
X76219703Y-152449278D01*
X76205000Y-152450000D01*
X75905000Y-152450000D01*
X75890297Y-152449278D01*
X75875736Y-152447118D01*
X75861457Y-152443541D01*
X75847597Y-152438582D01*
X75834290Y-152432288D01*
X75821664Y-152424720D01*
X75809841Y-152415952D01*
X75798934Y-152406066D01*
X75789048Y-152395159D01*
X75780280Y-152383336D01*
X75772712Y-152370710D01*
X75766418Y-152357403D01*
X75761459Y-152343543D01*
X75757882Y-152329264D01*
X75755722Y-152314703D01*
X75755000Y-152300000D01*
X75755000Y-150650000D01*
X75755722Y-150635297D01*
X75757882Y-150620736D01*
X75761459Y-150606457D01*
X75766418Y-150592597D01*
X75772712Y-150579290D01*
X75780280Y-150566664D01*
X75789048Y-150554841D01*
X75798934Y-150543934D01*
X75809841Y-150534048D01*
X75821664Y-150525280D01*
X75834290Y-150517712D01*
X75847597Y-150511418D01*
X75861457Y-150506459D01*
X75875736Y-150502882D01*
X75890297Y-150500722D01*
X75905000Y-150500000D01*
X76205000Y-150500000D01*
X76219703Y-150500722D01*
G37*
G36*
X77489703Y-150500722D02*
G01*
X77504264Y-150502882D01*
X77518543Y-150506459D01*
X77532403Y-150511418D01*
X77545710Y-150517712D01*
X77558336Y-150525280D01*
X77570159Y-150534048D01*
X77581066Y-150543934D01*
X77590952Y-150554841D01*
X77599720Y-150566664D01*
X77607288Y-150579290D01*
X77613582Y-150592597D01*
X77618541Y-150606457D01*
X77622118Y-150620736D01*
X77624278Y-150635297D01*
X77625000Y-150650000D01*
X77625000Y-152300000D01*
X77624278Y-152314703D01*
X77622118Y-152329264D01*
X77618541Y-152343543D01*
X77613582Y-152357403D01*
X77607288Y-152370710D01*
X77599720Y-152383336D01*
X77590952Y-152395159D01*
X77581066Y-152406066D01*
X77570159Y-152415952D01*
X77558336Y-152424720D01*
X77545710Y-152432288D01*
X77532403Y-152438582D01*
X77518543Y-152443541D01*
X77504264Y-152447118D01*
X77489703Y-152449278D01*
X77475000Y-152450000D01*
X77175000Y-152450000D01*
X77160297Y-152449278D01*
X77145736Y-152447118D01*
X77131457Y-152443541D01*
X77117597Y-152438582D01*
X77104290Y-152432288D01*
X77091664Y-152424720D01*
X77079841Y-152415952D01*
X77068934Y-152406066D01*
X77059048Y-152395159D01*
X77050280Y-152383336D01*
X77042712Y-152370710D01*
X77036418Y-152357403D01*
X77031459Y-152343543D01*
X77027882Y-152329264D01*
X77025722Y-152314703D01*
X77025000Y-152300000D01*
X77025000Y-150650000D01*
X77025722Y-150635297D01*
X77027882Y-150620736D01*
X77031459Y-150606457D01*
X77036418Y-150592597D01*
X77042712Y-150579290D01*
X77050280Y-150566664D01*
X77059048Y-150554841D01*
X77068934Y-150543934D01*
X77079841Y-150534048D01*
X77091664Y-150525280D01*
X77104290Y-150517712D01*
X77117597Y-150511418D01*
X77131457Y-150506459D01*
X77145736Y-150502882D01*
X77160297Y-150500722D01*
X77175000Y-150500000D01*
X77475000Y-150500000D01*
X77489703Y-150500722D01*
G37*
G36*
X78759703Y-150500722D02*
G01*
X78774264Y-150502882D01*
X78788543Y-150506459D01*
X78802403Y-150511418D01*
X78815710Y-150517712D01*
X78828336Y-150525280D01*
X78840159Y-150534048D01*
X78851066Y-150543934D01*
X78860952Y-150554841D01*
X78869720Y-150566664D01*
X78877288Y-150579290D01*
X78883582Y-150592597D01*
X78888541Y-150606457D01*
X78892118Y-150620736D01*
X78894278Y-150635297D01*
X78895000Y-150650000D01*
X78895000Y-152300000D01*
X78894278Y-152314703D01*
X78892118Y-152329264D01*
X78888541Y-152343543D01*
X78883582Y-152357403D01*
X78877288Y-152370710D01*
X78869720Y-152383336D01*
X78860952Y-152395159D01*
X78851066Y-152406066D01*
X78840159Y-152415952D01*
X78828336Y-152424720D01*
X78815710Y-152432288D01*
X78802403Y-152438582D01*
X78788543Y-152443541D01*
X78774264Y-152447118D01*
X78759703Y-152449278D01*
X78745000Y-152450000D01*
X78445000Y-152450000D01*
X78430297Y-152449278D01*
X78415736Y-152447118D01*
X78401457Y-152443541D01*
X78387597Y-152438582D01*
X78374290Y-152432288D01*
X78361664Y-152424720D01*
X78349841Y-152415952D01*
X78338934Y-152406066D01*
X78329048Y-152395159D01*
X78320280Y-152383336D01*
X78312712Y-152370710D01*
X78306418Y-152357403D01*
X78301459Y-152343543D01*
X78297882Y-152329264D01*
X78295722Y-152314703D01*
X78295000Y-152300000D01*
X78295000Y-150650000D01*
X78295722Y-150635297D01*
X78297882Y-150620736D01*
X78301459Y-150606457D01*
X78306418Y-150592597D01*
X78312712Y-150579290D01*
X78320280Y-150566664D01*
X78329048Y-150554841D01*
X78338934Y-150543934D01*
X78349841Y-150534048D01*
X78361664Y-150525280D01*
X78374290Y-150517712D01*
X78387597Y-150511418D01*
X78401457Y-150506459D01*
X78415736Y-150502882D01*
X78430297Y-150500722D01*
X78445000Y-150500000D01*
X78745000Y-150500000D01*
X78759703Y-150500722D01*
G37*
G36*
X80029703Y-150500722D02*
G01*
X80044264Y-150502882D01*
X80058543Y-150506459D01*
X80072403Y-150511418D01*
X80085710Y-150517712D01*
X80098336Y-150525280D01*
X80110159Y-150534048D01*
X80121066Y-150543934D01*
X80130952Y-150554841D01*
X80139720Y-150566664D01*
X80147288Y-150579290D01*
X80153582Y-150592597D01*
X80158541Y-150606457D01*
X80162118Y-150620736D01*
X80164278Y-150635297D01*
X80165000Y-150650000D01*
X80165000Y-152300000D01*
X80164278Y-152314703D01*
X80162118Y-152329264D01*
X80158541Y-152343543D01*
X80153582Y-152357403D01*
X80147288Y-152370710D01*
X80139720Y-152383336D01*
X80130952Y-152395159D01*
X80121066Y-152406066D01*
X80110159Y-152415952D01*
X80098336Y-152424720D01*
X80085710Y-152432288D01*
X80072403Y-152438582D01*
X80058543Y-152443541D01*
X80044264Y-152447118D01*
X80029703Y-152449278D01*
X80015000Y-152450000D01*
X79715000Y-152450000D01*
X79700297Y-152449278D01*
X79685736Y-152447118D01*
X79671457Y-152443541D01*
X79657597Y-152438582D01*
X79644290Y-152432288D01*
X79631664Y-152424720D01*
X79619841Y-152415952D01*
X79608934Y-152406066D01*
X79599048Y-152395159D01*
X79590280Y-152383336D01*
X79582712Y-152370710D01*
X79576418Y-152357403D01*
X79571459Y-152343543D01*
X79567882Y-152329264D01*
X79565722Y-152314703D01*
X79565000Y-152300000D01*
X79565000Y-150650000D01*
X79565722Y-150635297D01*
X79567882Y-150620736D01*
X79571459Y-150606457D01*
X79576418Y-150592597D01*
X79582712Y-150579290D01*
X79590280Y-150566664D01*
X79599048Y-150554841D01*
X79608934Y-150543934D01*
X79619841Y-150534048D01*
X79631664Y-150525280D01*
X79644290Y-150517712D01*
X79657597Y-150511418D01*
X79671457Y-150506459D01*
X79685736Y-150502882D01*
X79700297Y-150500722D01*
X79715000Y-150500000D01*
X80015000Y-150500000D01*
X80029703Y-150500722D01*
G37*
G36*
X81299703Y-150500722D02*
G01*
X81314264Y-150502882D01*
X81328543Y-150506459D01*
X81342403Y-150511418D01*
X81355710Y-150517712D01*
X81368336Y-150525280D01*
X81380159Y-150534048D01*
X81391066Y-150543934D01*
X81400952Y-150554841D01*
X81409720Y-150566664D01*
X81417288Y-150579290D01*
X81423582Y-150592597D01*
X81428541Y-150606457D01*
X81432118Y-150620736D01*
X81434278Y-150635297D01*
X81435000Y-150650000D01*
X81435000Y-152300000D01*
X81434278Y-152314703D01*
X81432118Y-152329264D01*
X81428541Y-152343543D01*
X81423582Y-152357403D01*
X81417288Y-152370710D01*
X81409720Y-152383336D01*
X81400952Y-152395159D01*
X81391066Y-152406066D01*
X81380159Y-152415952D01*
X81368336Y-152424720D01*
X81355710Y-152432288D01*
X81342403Y-152438582D01*
X81328543Y-152443541D01*
X81314264Y-152447118D01*
X81299703Y-152449278D01*
X81285000Y-152450000D01*
X80985000Y-152450000D01*
X80970297Y-152449278D01*
X80955736Y-152447118D01*
X80941457Y-152443541D01*
X80927597Y-152438582D01*
X80914290Y-152432288D01*
X80901664Y-152424720D01*
X80889841Y-152415952D01*
X80878934Y-152406066D01*
X80869048Y-152395159D01*
X80860280Y-152383336D01*
X80852712Y-152370710D01*
X80846418Y-152357403D01*
X80841459Y-152343543D01*
X80837882Y-152329264D01*
X80835722Y-152314703D01*
X80835000Y-152300000D01*
X80835000Y-150650000D01*
X80835722Y-150635297D01*
X80837882Y-150620736D01*
X80841459Y-150606457D01*
X80846418Y-150592597D01*
X80852712Y-150579290D01*
X80860280Y-150566664D01*
X80869048Y-150554841D01*
X80878934Y-150543934D01*
X80889841Y-150534048D01*
X80901664Y-150525280D01*
X80914290Y-150517712D01*
X80927597Y-150511418D01*
X80941457Y-150506459D01*
X80955736Y-150502882D01*
X80970297Y-150500722D01*
X80985000Y-150500000D01*
X81285000Y-150500000D01*
X81299703Y-150500722D01*
G37*
G36*
X82569703Y-150500722D02*
G01*
X82584264Y-150502882D01*
X82598543Y-150506459D01*
X82612403Y-150511418D01*
X82625710Y-150517712D01*
X82638336Y-150525280D01*
X82650159Y-150534048D01*
X82661066Y-150543934D01*
X82670952Y-150554841D01*
X82679720Y-150566664D01*
X82687288Y-150579290D01*
X82693582Y-150592597D01*
X82698541Y-150606457D01*
X82702118Y-150620736D01*
X82704278Y-150635297D01*
X82705000Y-150650000D01*
X82705000Y-152300000D01*
X82704278Y-152314703D01*
X82702118Y-152329264D01*
X82698541Y-152343543D01*
X82693582Y-152357403D01*
X82687288Y-152370710D01*
X82679720Y-152383336D01*
X82670952Y-152395159D01*
X82661066Y-152406066D01*
X82650159Y-152415952D01*
X82638336Y-152424720D01*
X82625710Y-152432288D01*
X82612403Y-152438582D01*
X82598543Y-152443541D01*
X82584264Y-152447118D01*
X82569703Y-152449278D01*
X82555000Y-152450000D01*
X82255000Y-152450000D01*
X82240297Y-152449278D01*
X82225736Y-152447118D01*
X82211457Y-152443541D01*
X82197597Y-152438582D01*
X82184290Y-152432288D01*
X82171664Y-152424720D01*
X82159841Y-152415952D01*
X82148934Y-152406066D01*
X82139048Y-152395159D01*
X82130280Y-152383336D01*
X82122712Y-152370710D01*
X82116418Y-152357403D01*
X82111459Y-152343543D01*
X82107882Y-152329264D01*
X82105722Y-152314703D01*
X82105000Y-152300000D01*
X82105000Y-150650000D01*
X82105722Y-150635297D01*
X82107882Y-150620736D01*
X82111459Y-150606457D01*
X82116418Y-150592597D01*
X82122712Y-150579290D01*
X82130280Y-150566664D01*
X82139048Y-150554841D01*
X82148934Y-150543934D01*
X82159841Y-150534048D01*
X82171664Y-150525280D01*
X82184290Y-150517712D01*
X82197597Y-150511418D01*
X82211457Y-150506459D01*
X82225736Y-150502882D01*
X82240297Y-150500722D01*
X82255000Y-150500000D01*
X82555000Y-150500000D01*
X82569703Y-150500722D01*
G37*
G36*
X83839703Y-150500722D02*
G01*
X83854264Y-150502882D01*
X83868543Y-150506459D01*
X83882403Y-150511418D01*
X83895710Y-150517712D01*
X83908336Y-150525280D01*
X83920159Y-150534048D01*
X83931066Y-150543934D01*
X83940952Y-150554841D01*
X83949720Y-150566664D01*
X83957288Y-150579290D01*
X83963582Y-150592597D01*
X83968541Y-150606457D01*
X83972118Y-150620736D01*
X83974278Y-150635297D01*
X83975000Y-150650000D01*
X83975000Y-152300000D01*
X83974278Y-152314703D01*
X83972118Y-152329264D01*
X83968541Y-152343543D01*
X83963582Y-152357403D01*
X83957288Y-152370710D01*
X83949720Y-152383336D01*
X83940952Y-152395159D01*
X83931066Y-152406066D01*
X83920159Y-152415952D01*
X83908336Y-152424720D01*
X83895710Y-152432288D01*
X83882403Y-152438582D01*
X83868543Y-152443541D01*
X83854264Y-152447118D01*
X83839703Y-152449278D01*
X83825000Y-152450000D01*
X83525000Y-152450000D01*
X83510297Y-152449278D01*
X83495736Y-152447118D01*
X83481457Y-152443541D01*
X83467597Y-152438582D01*
X83454290Y-152432288D01*
X83441664Y-152424720D01*
X83429841Y-152415952D01*
X83418934Y-152406066D01*
X83409048Y-152395159D01*
X83400280Y-152383336D01*
X83392712Y-152370710D01*
X83386418Y-152357403D01*
X83381459Y-152343543D01*
X83377882Y-152329264D01*
X83375722Y-152314703D01*
X83375000Y-152300000D01*
X83375000Y-150650000D01*
X83375722Y-150635297D01*
X83377882Y-150620736D01*
X83381459Y-150606457D01*
X83386418Y-150592597D01*
X83392712Y-150579290D01*
X83400280Y-150566664D01*
X83409048Y-150554841D01*
X83418934Y-150543934D01*
X83429841Y-150534048D01*
X83441664Y-150525280D01*
X83454290Y-150517712D01*
X83467597Y-150511418D01*
X83481457Y-150506459D01*
X83495736Y-150502882D01*
X83510297Y-150500722D01*
X83525000Y-150500000D01*
X83825000Y-150500000D01*
X83839703Y-150500722D01*
G37*
G36*
X85109703Y-150500722D02*
G01*
X85124264Y-150502882D01*
X85138543Y-150506459D01*
X85152403Y-150511418D01*
X85165710Y-150517712D01*
X85178336Y-150525280D01*
X85190159Y-150534048D01*
X85201066Y-150543934D01*
X85210952Y-150554841D01*
X85219720Y-150566664D01*
X85227288Y-150579290D01*
X85233582Y-150592597D01*
X85238541Y-150606457D01*
X85242118Y-150620736D01*
X85244278Y-150635297D01*
X85245000Y-150650000D01*
X85245000Y-152300000D01*
X85244278Y-152314703D01*
X85242118Y-152329264D01*
X85238541Y-152343543D01*
X85233582Y-152357403D01*
X85227288Y-152370710D01*
X85219720Y-152383336D01*
X85210952Y-152395159D01*
X85201066Y-152406066D01*
X85190159Y-152415952D01*
X85178336Y-152424720D01*
X85165710Y-152432288D01*
X85152403Y-152438582D01*
X85138543Y-152443541D01*
X85124264Y-152447118D01*
X85109703Y-152449278D01*
X85095000Y-152450000D01*
X84795000Y-152450000D01*
X84780297Y-152449278D01*
X84765736Y-152447118D01*
X84751457Y-152443541D01*
X84737597Y-152438582D01*
X84724290Y-152432288D01*
X84711664Y-152424720D01*
X84699841Y-152415952D01*
X84688934Y-152406066D01*
X84679048Y-152395159D01*
X84670280Y-152383336D01*
X84662712Y-152370710D01*
X84656418Y-152357403D01*
X84651459Y-152343543D01*
X84647882Y-152329264D01*
X84645722Y-152314703D01*
X84645000Y-152300000D01*
X84645000Y-150650000D01*
X84645722Y-150635297D01*
X84647882Y-150620736D01*
X84651459Y-150606457D01*
X84656418Y-150592597D01*
X84662712Y-150579290D01*
X84670280Y-150566664D01*
X84679048Y-150554841D01*
X84688934Y-150543934D01*
X84699841Y-150534048D01*
X84711664Y-150525280D01*
X84724290Y-150517712D01*
X84737597Y-150511418D01*
X84751457Y-150506459D01*
X84765736Y-150502882D01*
X84780297Y-150500722D01*
X84795000Y-150500000D01*
X85095000Y-150500000D01*
X85109703Y-150500722D01*
G37*
G36*
X85109703Y-145550722D02*
G01*
X85124264Y-145552882D01*
X85138543Y-145556459D01*
X85152403Y-145561418D01*
X85165710Y-145567712D01*
X85178336Y-145575280D01*
X85190159Y-145584048D01*
X85201066Y-145593934D01*
X85210952Y-145604841D01*
X85219720Y-145616664D01*
X85227288Y-145629290D01*
X85233582Y-145642597D01*
X85238541Y-145656457D01*
X85242118Y-145670736D01*
X85244278Y-145685297D01*
X85245000Y-145700000D01*
X85245000Y-147350000D01*
X85244278Y-147364703D01*
X85242118Y-147379264D01*
X85238541Y-147393543D01*
X85233582Y-147407403D01*
X85227288Y-147420710D01*
X85219720Y-147433336D01*
X85210952Y-147445159D01*
X85201066Y-147456066D01*
X85190159Y-147465952D01*
X85178336Y-147474720D01*
X85165710Y-147482288D01*
X85152403Y-147488582D01*
X85138543Y-147493541D01*
X85124264Y-147497118D01*
X85109703Y-147499278D01*
X85095000Y-147500000D01*
X84795000Y-147500000D01*
X84780297Y-147499278D01*
X84765736Y-147497118D01*
X84751457Y-147493541D01*
X84737597Y-147488582D01*
X84724290Y-147482288D01*
X84711664Y-147474720D01*
X84699841Y-147465952D01*
X84688934Y-147456066D01*
X84679048Y-147445159D01*
X84670280Y-147433336D01*
X84662712Y-147420710D01*
X84656418Y-147407403D01*
X84651459Y-147393543D01*
X84647882Y-147379264D01*
X84645722Y-147364703D01*
X84645000Y-147350000D01*
X84645000Y-145700000D01*
X84645722Y-145685297D01*
X84647882Y-145670736D01*
X84651459Y-145656457D01*
X84656418Y-145642597D01*
X84662712Y-145629290D01*
X84670280Y-145616664D01*
X84679048Y-145604841D01*
X84688934Y-145593934D01*
X84699841Y-145584048D01*
X84711664Y-145575280D01*
X84724290Y-145567712D01*
X84737597Y-145561418D01*
X84751457Y-145556459D01*
X84765736Y-145552882D01*
X84780297Y-145550722D01*
X84795000Y-145550000D01*
X85095000Y-145550000D01*
X85109703Y-145550722D01*
G37*
G36*
X83839703Y-145550722D02*
G01*
X83854264Y-145552882D01*
X83868543Y-145556459D01*
X83882403Y-145561418D01*
X83895710Y-145567712D01*
X83908336Y-145575280D01*
X83920159Y-145584048D01*
X83931066Y-145593934D01*
X83940952Y-145604841D01*
X83949720Y-145616664D01*
X83957288Y-145629290D01*
X83963582Y-145642597D01*
X83968541Y-145656457D01*
X83972118Y-145670736D01*
X83974278Y-145685297D01*
X83975000Y-145700000D01*
X83975000Y-147350000D01*
X83974278Y-147364703D01*
X83972118Y-147379264D01*
X83968541Y-147393543D01*
X83963582Y-147407403D01*
X83957288Y-147420710D01*
X83949720Y-147433336D01*
X83940952Y-147445159D01*
X83931066Y-147456066D01*
X83920159Y-147465952D01*
X83908336Y-147474720D01*
X83895710Y-147482288D01*
X83882403Y-147488582D01*
X83868543Y-147493541D01*
X83854264Y-147497118D01*
X83839703Y-147499278D01*
X83825000Y-147500000D01*
X83525000Y-147500000D01*
X83510297Y-147499278D01*
X83495736Y-147497118D01*
X83481457Y-147493541D01*
X83467597Y-147488582D01*
X83454290Y-147482288D01*
X83441664Y-147474720D01*
X83429841Y-147465952D01*
X83418934Y-147456066D01*
X83409048Y-147445159D01*
X83400280Y-147433336D01*
X83392712Y-147420710D01*
X83386418Y-147407403D01*
X83381459Y-147393543D01*
X83377882Y-147379264D01*
X83375722Y-147364703D01*
X83375000Y-147350000D01*
X83375000Y-145700000D01*
X83375722Y-145685297D01*
X83377882Y-145670736D01*
X83381459Y-145656457D01*
X83386418Y-145642597D01*
X83392712Y-145629290D01*
X83400280Y-145616664D01*
X83409048Y-145604841D01*
X83418934Y-145593934D01*
X83429841Y-145584048D01*
X83441664Y-145575280D01*
X83454290Y-145567712D01*
X83467597Y-145561418D01*
X83481457Y-145556459D01*
X83495736Y-145552882D01*
X83510297Y-145550722D01*
X83525000Y-145550000D01*
X83825000Y-145550000D01*
X83839703Y-145550722D01*
G37*
G36*
X82569703Y-145550722D02*
G01*
X82584264Y-145552882D01*
X82598543Y-145556459D01*
X82612403Y-145561418D01*
X82625710Y-145567712D01*
X82638336Y-145575280D01*
X82650159Y-145584048D01*
X82661066Y-145593934D01*
X82670952Y-145604841D01*
X82679720Y-145616664D01*
X82687288Y-145629290D01*
X82693582Y-145642597D01*
X82698541Y-145656457D01*
X82702118Y-145670736D01*
X82704278Y-145685297D01*
X82705000Y-145700000D01*
X82705000Y-147350000D01*
X82704278Y-147364703D01*
X82702118Y-147379264D01*
X82698541Y-147393543D01*
X82693582Y-147407403D01*
X82687288Y-147420710D01*
X82679720Y-147433336D01*
X82670952Y-147445159D01*
X82661066Y-147456066D01*
X82650159Y-147465952D01*
X82638336Y-147474720D01*
X82625710Y-147482288D01*
X82612403Y-147488582D01*
X82598543Y-147493541D01*
X82584264Y-147497118D01*
X82569703Y-147499278D01*
X82555000Y-147500000D01*
X82255000Y-147500000D01*
X82240297Y-147499278D01*
X82225736Y-147497118D01*
X82211457Y-147493541D01*
X82197597Y-147488582D01*
X82184290Y-147482288D01*
X82171664Y-147474720D01*
X82159841Y-147465952D01*
X82148934Y-147456066D01*
X82139048Y-147445159D01*
X82130280Y-147433336D01*
X82122712Y-147420710D01*
X82116418Y-147407403D01*
X82111459Y-147393543D01*
X82107882Y-147379264D01*
X82105722Y-147364703D01*
X82105000Y-147350000D01*
X82105000Y-145700000D01*
X82105722Y-145685297D01*
X82107882Y-145670736D01*
X82111459Y-145656457D01*
X82116418Y-145642597D01*
X82122712Y-145629290D01*
X82130280Y-145616664D01*
X82139048Y-145604841D01*
X82148934Y-145593934D01*
X82159841Y-145584048D01*
X82171664Y-145575280D01*
X82184290Y-145567712D01*
X82197597Y-145561418D01*
X82211457Y-145556459D01*
X82225736Y-145552882D01*
X82240297Y-145550722D01*
X82255000Y-145550000D01*
X82555000Y-145550000D01*
X82569703Y-145550722D01*
G37*
G36*
X81299703Y-145550722D02*
G01*
X81314264Y-145552882D01*
X81328543Y-145556459D01*
X81342403Y-145561418D01*
X81355710Y-145567712D01*
X81368336Y-145575280D01*
X81380159Y-145584048D01*
X81391066Y-145593934D01*
X81400952Y-145604841D01*
X81409720Y-145616664D01*
X81417288Y-145629290D01*
X81423582Y-145642597D01*
X81428541Y-145656457D01*
X81432118Y-145670736D01*
X81434278Y-145685297D01*
X81435000Y-145700000D01*
X81435000Y-147350000D01*
X81434278Y-147364703D01*
X81432118Y-147379264D01*
X81428541Y-147393543D01*
X81423582Y-147407403D01*
X81417288Y-147420710D01*
X81409720Y-147433336D01*
X81400952Y-147445159D01*
X81391066Y-147456066D01*
X81380159Y-147465952D01*
X81368336Y-147474720D01*
X81355710Y-147482288D01*
X81342403Y-147488582D01*
X81328543Y-147493541D01*
X81314264Y-147497118D01*
X81299703Y-147499278D01*
X81285000Y-147500000D01*
X80985000Y-147500000D01*
X80970297Y-147499278D01*
X80955736Y-147497118D01*
X80941457Y-147493541D01*
X80927597Y-147488582D01*
X80914290Y-147482288D01*
X80901664Y-147474720D01*
X80889841Y-147465952D01*
X80878934Y-147456066D01*
X80869048Y-147445159D01*
X80860280Y-147433336D01*
X80852712Y-147420710D01*
X80846418Y-147407403D01*
X80841459Y-147393543D01*
X80837882Y-147379264D01*
X80835722Y-147364703D01*
X80835000Y-147350000D01*
X80835000Y-145700000D01*
X80835722Y-145685297D01*
X80837882Y-145670736D01*
X80841459Y-145656457D01*
X80846418Y-145642597D01*
X80852712Y-145629290D01*
X80860280Y-145616664D01*
X80869048Y-145604841D01*
X80878934Y-145593934D01*
X80889841Y-145584048D01*
X80901664Y-145575280D01*
X80914290Y-145567712D01*
X80927597Y-145561418D01*
X80941457Y-145556459D01*
X80955736Y-145552882D01*
X80970297Y-145550722D01*
X80985000Y-145550000D01*
X81285000Y-145550000D01*
X81299703Y-145550722D01*
G37*
G36*
X80029703Y-145550722D02*
G01*
X80044264Y-145552882D01*
X80058543Y-145556459D01*
X80072403Y-145561418D01*
X80085710Y-145567712D01*
X80098336Y-145575280D01*
X80110159Y-145584048D01*
X80121066Y-145593934D01*
X80130952Y-145604841D01*
X80139720Y-145616664D01*
X80147288Y-145629290D01*
X80153582Y-145642597D01*
X80158541Y-145656457D01*
X80162118Y-145670736D01*
X80164278Y-145685297D01*
X80165000Y-145700000D01*
X80165000Y-147350000D01*
X80164278Y-147364703D01*
X80162118Y-147379264D01*
X80158541Y-147393543D01*
X80153582Y-147407403D01*
X80147288Y-147420710D01*
X80139720Y-147433336D01*
X80130952Y-147445159D01*
X80121066Y-147456066D01*
X80110159Y-147465952D01*
X80098336Y-147474720D01*
X80085710Y-147482288D01*
X80072403Y-147488582D01*
X80058543Y-147493541D01*
X80044264Y-147497118D01*
X80029703Y-147499278D01*
X80015000Y-147500000D01*
X79715000Y-147500000D01*
X79700297Y-147499278D01*
X79685736Y-147497118D01*
X79671457Y-147493541D01*
X79657597Y-147488582D01*
X79644290Y-147482288D01*
X79631664Y-147474720D01*
X79619841Y-147465952D01*
X79608934Y-147456066D01*
X79599048Y-147445159D01*
X79590280Y-147433336D01*
X79582712Y-147420710D01*
X79576418Y-147407403D01*
X79571459Y-147393543D01*
X79567882Y-147379264D01*
X79565722Y-147364703D01*
X79565000Y-147350000D01*
X79565000Y-145700000D01*
X79565722Y-145685297D01*
X79567882Y-145670736D01*
X79571459Y-145656457D01*
X79576418Y-145642597D01*
X79582712Y-145629290D01*
X79590280Y-145616664D01*
X79599048Y-145604841D01*
X79608934Y-145593934D01*
X79619841Y-145584048D01*
X79631664Y-145575280D01*
X79644290Y-145567712D01*
X79657597Y-145561418D01*
X79671457Y-145556459D01*
X79685736Y-145552882D01*
X79700297Y-145550722D01*
X79715000Y-145550000D01*
X80015000Y-145550000D01*
X80029703Y-145550722D01*
G37*
G36*
X78759703Y-145550722D02*
G01*
X78774264Y-145552882D01*
X78788543Y-145556459D01*
X78802403Y-145561418D01*
X78815710Y-145567712D01*
X78828336Y-145575280D01*
X78840159Y-145584048D01*
X78851066Y-145593934D01*
X78860952Y-145604841D01*
X78869720Y-145616664D01*
X78877288Y-145629290D01*
X78883582Y-145642597D01*
X78888541Y-145656457D01*
X78892118Y-145670736D01*
X78894278Y-145685297D01*
X78895000Y-145700000D01*
X78895000Y-147350000D01*
X78894278Y-147364703D01*
X78892118Y-147379264D01*
X78888541Y-147393543D01*
X78883582Y-147407403D01*
X78877288Y-147420710D01*
X78869720Y-147433336D01*
X78860952Y-147445159D01*
X78851066Y-147456066D01*
X78840159Y-147465952D01*
X78828336Y-147474720D01*
X78815710Y-147482288D01*
X78802403Y-147488582D01*
X78788543Y-147493541D01*
X78774264Y-147497118D01*
X78759703Y-147499278D01*
X78745000Y-147500000D01*
X78445000Y-147500000D01*
X78430297Y-147499278D01*
X78415736Y-147497118D01*
X78401457Y-147493541D01*
X78387597Y-147488582D01*
X78374290Y-147482288D01*
X78361664Y-147474720D01*
X78349841Y-147465952D01*
X78338934Y-147456066D01*
X78329048Y-147445159D01*
X78320280Y-147433336D01*
X78312712Y-147420710D01*
X78306418Y-147407403D01*
X78301459Y-147393543D01*
X78297882Y-147379264D01*
X78295722Y-147364703D01*
X78295000Y-147350000D01*
X78295000Y-145700000D01*
X78295722Y-145685297D01*
X78297882Y-145670736D01*
X78301459Y-145656457D01*
X78306418Y-145642597D01*
X78312712Y-145629290D01*
X78320280Y-145616664D01*
X78329048Y-145604841D01*
X78338934Y-145593934D01*
X78349841Y-145584048D01*
X78361664Y-145575280D01*
X78374290Y-145567712D01*
X78387597Y-145561418D01*
X78401457Y-145556459D01*
X78415736Y-145552882D01*
X78430297Y-145550722D01*
X78445000Y-145550000D01*
X78745000Y-145550000D01*
X78759703Y-145550722D01*
G37*
G36*
X77489703Y-145550722D02*
G01*
X77504264Y-145552882D01*
X77518543Y-145556459D01*
X77532403Y-145561418D01*
X77545710Y-145567712D01*
X77558336Y-145575280D01*
X77570159Y-145584048D01*
X77581066Y-145593934D01*
X77590952Y-145604841D01*
X77599720Y-145616664D01*
X77607288Y-145629290D01*
X77613582Y-145642597D01*
X77618541Y-145656457D01*
X77622118Y-145670736D01*
X77624278Y-145685297D01*
X77625000Y-145700000D01*
X77625000Y-147350000D01*
X77624278Y-147364703D01*
X77622118Y-147379264D01*
X77618541Y-147393543D01*
X77613582Y-147407403D01*
X77607288Y-147420710D01*
X77599720Y-147433336D01*
X77590952Y-147445159D01*
X77581066Y-147456066D01*
X77570159Y-147465952D01*
X77558336Y-147474720D01*
X77545710Y-147482288D01*
X77532403Y-147488582D01*
X77518543Y-147493541D01*
X77504264Y-147497118D01*
X77489703Y-147499278D01*
X77475000Y-147500000D01*
X77175000Y-147500000D01*
X77160297Y-147499278D01*
X77145736Y-147497118D01*
X77131457Y-147493541D01*
X77117597Y-147488582D01*
X77104290Y-147482288D01*
X77091664Y-147474720D01*
X77079841Y-147465952D01*
X77068934Y-147456066D01*
X77059048Y-147445159D01*
X77050280Y-147433336D01*
X77042712Y-147420710D01*
X77036418Y-147407403D01*
X77031459Y-147393543D01*
X77027882Y-147379264D01*
X77025722Y-147364703D01*
X77025000Y-147350000D01*
X77025000Y-145700000D01*
X77025722Y-145685297D01*
X77027882Y-145670736D01*
X77031459Y-145656457D01*
X77036418Y-145642597D01*
X77042712Y-145629290D01*
X77050280Y-145616664D01*
X77059048Y-145604841D01*
X77068934Y-145593934D01*
X77079841Y-145584048D01*
X77091664Y-145575280D01*
X77104290Y-145567712D01*
X77117597Y-145561418D01*
X77131457Y-145556459D01*
X77145736Y-145552882D01*
X77160297Y-145550722D01*
X77175000Y-145550000D01*
X77475000Y-145550000D01*
X77489703Y-145550722D01*
G37*
G36*
X76219703Y-145550722D02*
G01*
X76234264Y-145552882D01*
X76248543Y-145556459D01*
X76262403Y-145561418D01*
X76275710Y-145567712D01*
X76288336Y-145575280D01*
X76300159Y-145584048D01*
X76311066Y-145593934D01*
X76320952Y-145604841D01*
X76329720Y-145616664D01*
X76337288Y-145629290D01*
X76343582Y-145642597D01*
X76348541Y-145656457D01*
X76352118Y-145670736D01*
X76354278Y-145685297D01*
X76355000Y-145700000D01*
X76355000Y-147350000D01*
X76354278Y-147364703D01*
X76352118Y-147379264D01*
X76348541Y-147393543D01*
X76343582Y-147407403D01*
X76337288Y-147420710D01*
X76329720Y-147433336D01*
X76320952Y-147445159D01*
X76311066Y-147456066D01*
X76300159Y-147465952D01*
X76288336Y-147474720D01*
X76275710Y-147482288D01*
X76262403Y-147488582D01*
X76248543Y-147493541D01*
X76234264Y-147497118D01*
X76219703Y-147499278D01*
X76205000Y-147500000D01*
X75905000Y-147500000D01*
X75890297Y-147499278D01*
X75875736Y-147497118D01*
X75861457Y-147493541D01*
X75847597Y-147488582D01*
X75834290Y-147482288D01*
X75821664Y-147474720D01*
X75809841Y-147465952D01*
X75798934Y-147456066D01*
X75789048Y-147445159D01*
X75780280Y-147433336D01*
X75772712Y-147420710D01*
X75766418Y-147407403D01*
X75761459Y-147393543D01*
X75757882Y-147379264D01*
X75755722Y-147364703D01*
X75755000Y-147350000D01*
X75755000Y-145700000D01*
X75755722Y-145685297D01*
X75757882Y-145670736D01*
X75761459Y-145656457D01*
X75766418Y-145642597D01*
X75772712Y-145629290D01*
X75780280Y-145616664D01*
X75789048Y-145604841D01*
X75798934Y-145593934D01*
X75809841Y-145584048D01*
X75821664Y-145575280D01*
X75834290Y-145567712D01*
X75847597Y-145561418D01*
X75861457Y-145556459D01*
X75875736Y-145552882D01*
X75890297Y-145550722D01*
X75905000Y-145550000D01*
X76205000Y-145550000D01*
X76219703Y-145550722D01*
G37*
D14*
X83550000Y-158100000D03*
X84500000Y-158100000D03*
X85450000Y-158100000D03*
X85450000Y-155900000D03*
X83550000Y-155900000D03*
X84500000Y-155900000D03*
X77500000Y-155900000D03*
X76550000Y-155900000D03*
X78450000Y-155900000D03*
X78450000Y-158100000D03*
X77500000Y-158100000D03*
X76550000Y-158100000D03*
M02*
