G04 #@! TF.GenerationSoftware,KiCad,Pcbnew,(5.1.5)-3*
G04 #@! TF.CreationDate,2020-04-27T20:32:12+02:00*
G04 #@! TF.ProjectId,ICHaus,49434861-7573-42e6-9b69-6361645f7063,rev?*
G04 #@! TF.SameCoordinates,Original*
G04 #@! TF.FileFunction,Soldermask,Top*
G04 #@! TF.FilePolarity,Negative*
%FSLAX46Y46*%
G04 Gerber Fmt 4.6, Leading zero omitted, Abs format (unit mm)*
G04 Created by KiCad (PCBNEW (5.1.5)-3) date 2020-04-27 20:32:12*
%MOMM*%
%LPD*%
G04 APERTURE LIST*
%ADD10C,0.100000*%
G04 APERTURE END LIST*
D10*
G36*
X87983642Y-166229781D02*
G01*
X88129414Y-166290162D01*
X88129416Y-166290163D01*
X88260608Y-166377822D01*
X88372178Y-166489392D01*
X88459837Y-166620584D01*
X88459838Y-166620586D01*
X88520219Y-166766358D01*
X88551000Y-166921107D01*
X88551000Y-167078893D01*
X88520219Y-167233642D01*
X88459838Y-167379414D01*
X88459837Y-167379416D01*
X88372178Y-167510608D01*
X88260608Y-167622178D01*
X88129416Y-167709837D01*
X88129415Y-167709838D01*
X88129414Y-167709838D01*
X87983642Y-167770219D01*
X87828893Y-167801000D01*
X87671107Y-167801000D01*
X87516358Y-167770219D01*
X87370586Y-167709838D01*
X87370585Y-167709838D01*
X87370584Y-167709837D01*
X87239392Y-167622178D01*
X87127822Y-167510608D01*
X87040163Y-167379416D01*
X87040162Y-167379414D01*
X86979781Y-167233642D01*
X86949000Y-167078893D01*
X86949000Y-166921107D01*
X86979781Y-166766358D01*
X87040162Y-166620586D01*
X87040163Y-166620584D01*
X87127822Y-166489392D01*
X87239392Y-166377822D01*
X87370584Y-166290163D01*
X87370586Y-166290162D01*
X87516358Y-166229781D01*
X87671107Y-166199000D01*
X87828893Y-166199000D01*
X87983642Y-166229781D01*
G37*
G36*
X84483642Y-166229781D02*
G01*
X84629414Y-166290162D01*
X84629416Y-166290163D01*
X84760608Y-166377822D01*
X84872178Y-166489392D01*
X84959837Y-166620584D01*
X84959838Y-166620586D01*
X85020219Y-166766358D01*
X85051000Y-166921107D01*
X85051000Y-167078893D01*
X85020219Y-167233642D01*
X84959838Y-167379414D01*
X84959837Y-167379416D01*
X84872178Y-167510608D01*
X84760608Y-167622178D01*
X84629416Y-167709837D01*
X84629415Y-167709838D01*
X84629414Y-167709838D01*
X84483642Y-167770219D01*
X84328893Y-167801000D01*
X84171107Y-167801000D01*
X84016358Y-167770219D01*
X83870586Y-167709838D01*
X83870585Y-167709838D01*
X83870584Y-167709837D01*
X83739392Y-167622178D01*
X83627822Y-167510608D01*
X83540163Y-167379416D01*
X83540162Y-167379414D01*
X83479781Y-167233642D01*
X83449000Y-167078893D01*
X83449000Y-166921107D01*
X83479781Y-166766358D01*
X83540162Y-166620586D01*
X83540163Y-166620584D01*
X83627822Y-166489392D01*
X83739392Y-166377822D01*
X83870584Y-166290163D01*
X83870586Y-166290162D01*
X84016358Y-166229781D01*
X84171107Y-166199000D01*
X84328893Y-166199000D01*
X84483642Y-166229781D01*
G37*
G36*
X40983642Y-166229781D02*
G01*
X41129414Y-166290162D01*
X41129416Y-166290163D01*
X41260608Y-166377822D01*
X41372178Y-166489392D01*
X41459837Y-166620584D01*
X41459838Y-166620586D01*
X41520219Y-166766358D01*
X41551000Y-166921107D01*
X41551000Y-167078893D01*
X41520219Y-167233642D01*
X41459838Y-167379414D01*
X41459837Y-167379416D01*
X41372178Y-167510608D01*
X41260608Y-167622178D01*
X41129416Y-167709837D01*
X41129415Y-167709838D01*
X41129414Y-167709838D01*
X40983642Y-167770219D01*
X40828893Y-167801000D01*
X40671107Y-167801000D01*
X40516358Y-167770219D01*
X40370586Y-167709838D01*
X40370585Y-167709838D01*
X40370584Y-167709837D01*
X40239392Y-167622178D01*
X40127822Y-167510608D01*
X40040163Y-167379416D01*
X40040162Y-167379414D01*
X39979781Y-167233642D01*
X39949000Y-167078893D01*
X39949000Y-166921107D01*
X39979781Y-166766358D01*
X40040162Y-166620586D01*
X40040163Y-166620584D01*
X40127822Y-166489392D01*
X40239392Y-166377822D01*
X40370584Y-166290163D01*
X40370586Y-166290162D01*
X40516358Y-166229781D01*
X40671107Y-166199000D01*
X40828893Y-166199000D01*
X40983642Y-166229781D01*
G37*
G36*
X37483642Y-166229781D02*
G01*
X37629414Y-166290162D01*
X37629416Y-166290163D01*
X37760608Y-166377822D01*
X37872178Y-166489392D01*
X37959837Y-166620584D01*
X37959838Y-166620586D01*
X38020219Y-166766358D01*
X38051000Y-166921107D01*
X38051000Y-167078893D01*
X38020219Y-167233642D01*
X37959838Y-167379414D01*
X37959837Y-167379416D01*
X37872178Y-167510608D01*
X37760608Y-167622178D01*
X37629416Y-167709837D01*
X37629415Y-167709838D01*
X37629414Y-167709838D01*
X37483642Y-167770219D01*
X37328893Y-167801000D01*
X37171107Y-167801000D01*
X37016358Y-167770219D01*
X36870586Y-167709838D01*
X36870585Y-167709838D01*
X36870584Y-167709837D01*
X36739392Y-167622178D01*
X36627822Y-167510608D01*
X36540163Y-167379416D01*
X36540162Y-167379414D01*
X36479781Y-167233642D01*
X36449000Y-167078893D01*
X36449000Y-166921107D01*
X36479781Y-166766358D01*
X36540162Y-166620586D01*
X36540163Y-166620584D01*
X36627822Y-166489392D01*
X36739392Y-166377822D01*
X36870584Y-166290163D01*
X36870586Y-166290162D01*
X37016358Y-166229781D01*
X37171107Y-166199000D01*
X37328893Y-166199000D01*
X37483642Y-166229781D01*
G37*
G36*
X49483642Y-166229781D02*
G01*
X49629414Y-166290162D01*
X49629416Y-166290163D01*
X49760608Y-166377822D01*
X49872178Y-166489392D01*
X49959837Y-166620584D01*
X49959838Y-166620586D01*
X50020219Y-166766358D01*
X50051000Y-166921107D01*
X50051000Y-167078893D01*
X50020219Y-167233642D01*
X49959838Y-167379414D01*
X49959837Y-167379416D01*
X49872178Y-167510608D01*
X49760608Y-167622178D01*
X49629416Y-167709837D01*
X49629415Y-167709838D01*
X49629414Y-167709838D01*
X49483642Y-167770219D01*
X49328893Y-167801000D01*
X49171107Y-167801000D01*
X49016358Y-167770219D01*
X48870586Y-167709838D01*
X48870585Y-167709838D01*
X48870584Y-167709837D01*
X48739392Y-167622178D01*
X48627822Y-167510608D01*
X48540163Y-167379416D01*
X48540162Y-167379414D01*
X48479781Y-167233642D01*
X48449000Y-167078893D01*
X48449000Y-166921107D01*
X48479781Y-166766358D01*
X48540162Y-166620586D01*
X48540163Y-166620584D01*
X48627822Y-166489392D01*
X48739392Y-166377822D01*
X48870584Y-166290163D01*
X48870586Y-166290162D01*
X49016358Y-166229781D01*
X49171107Y-166199000D01*
X49328893Y-166199000D01*
X49483642Y-166229781D01*
G37*
G36*
X45983642Y-166229781D02*
G01*
X46129414Y-166290162D01*
X46129416Y-166290163D01*
X46260608Y-166377822D01*
X46372178Y-166489392D01*
X46459837Y-166620584D01*
X46459838Y-166620586D01*
X46520219Y-166766358D01*
X46551000Y-166921107D01*
X46551000Y-167078893D01*
X46520219Y-167233642D01*
X46459838Y-167379414D01*
X46459837Y-167379416D01*
X46372178Y-167510608D01*
X46260608Y-167622178D01*
X46129416Y-167709837D01*
X46129415Y-167709838D01*
X46129414Y-167709838D01*
X45983642Y-167770219D01*
X45828893Y-167801000D01*
X45671107Y-167801000D01*
X45516358Y-167770219D01*
X45370586Y-167709838D01*
X45370585Y-167709838D01*
X45370584Y-167709837D01*
X45239392Y-167622178D01*
X45127822Y-167510608D01*
X45040163Y-167379416D01*
X45040162Y-167379414D01*
X44979781Y-167233642D01*
X44949000Y-167078893D01*
X44949000Y-166921107D01*
X44979781Y-166766358D01*
X45040162Y-166620586D01*
X45040163Y-166620584D01*
X45127822Y-166489392D01*
X45239392Y-166377822D01*
X45370584Y-166290163D01*
X45370586Y-166290162D01*
X45516358Y-166229781D01*
X45671107Y-166199000D01*
X45828893Y-166199000D01*
X45983642Y-166229781D01*
G37*
G36*
X57983642Y-166229781D02*
G01*
X58129414Y-166290162D01*
X58129416Y-166290163D01*
X58260608Y-166377822D01*
X58372178Y-166489392D01*
X58459837Y-166620584D01*
X58459838Y-166620586D01*
X58520219Y-166766358D01*
X58551000Y-166921107D01*
X58551000Y-167078893D01*
X58520219Y-167233642D01*
X58459838Y-167379414D01*
X58459837Y-167379416D01*
X58372178Y-167510608D01*
X58260608Y-167622178D01*
X58129416Y-167709837D01*
X58129415Y-167709838D01*
X58129414Y-167709838D01*
X57983642Y-167770219D01*
X57828893Y-167801000D01*
X57671107Y-167801000D01*
X57516358Y-167770219D01*
X57370586Y-167709838D01*
X57370585Y-167709838D01*
X57370584Y-167709837D01*
X57239392Y-167622178D01*
X57127822Y-167510608D01*
X57040163Y-167379416D01*
X57040162Y-167379414D01*
X56979781Y-167233642D01*
X56949000Y-167078893D01*
X56949000Y-166921107D01*
X56979781Y-166766358D01*
X57040162Y-166620586D01*
X57040163Y-166620584D01*
X57127822Y-166489392D01*
X57239392Y-166377822D01*
X57370584Y-166290163D01*
X57370586Y-166290162D01*
X57516358Y-166229781D01*
X57671107Y-166199000D01*
X57828893Y-166199000D01*
X57983642Y-166229781D01*
G37*
G36*
X70983642Y-166229781D02*
G01*
X71129414Y-166290162D01*
X71129416Y-166290163D01*
X71260608Y-166377822D01*
X71372178Y-166489392D01*
X71459837Y-166620584D01*
X71459838Y-166620586D01*
X71520219Y-166766358D01*
X71551000Y-166921107D01*
X71551000Y-167078893D01*
X71520219Y-167233642D01*
X71459838Y-167379414D01*
X71459837Y-167379416D01*
X71372178Y-167510608D01*
X71260608Y-167622178D01*
X71129416Y-167709837D01*
X71129415Y-167709838D01*
X71129414Y-167709838D01*
X70983642Y-167770219D01*
X70828893Y-167801000D01*
X70671107Y-167801000D01*
X70516358Y-167770219D01*
X70370586Y-167709838D01*
X70370585Y-167709838D01*
X70370584Y-167709837D01*
X70239392Y-167622178D01*
X70127822Y-167510608D01*
X70040163Y-167379416D01*
X70040162Y-167379414D01*
X69979781Y-167233642D01*
X69949000Y-167078893D01*
X69949000Y-166921107D01*
X69979781Y-166766358D01*
X70040162Y-166620586D01*
X70040163Y-166620584D01*
X70127822Y-166489392D01*
X70239392Y-166377822D01*
X70370584Y-166290163D01*
X70370586Y-166290162D01*
X70516358Y-166229781D01*
X70671107Y-166199000D01*
X70828893Y-166199000D01*
X70983642Y-166229781D01*
G37*
G36*
X67483642Y-166229781D02*
G01*
X67629414Y-166290162D01*
X67629416Y-166290163D01*
X67760608Y-166377822D01*
X67872178Y-166489392D01*
X67959837Y-166620584D01*
X67959838Y-166620586D01*
X68020219Y-166766358D01*
X68051000Y-166921107D01*
X68051000Y-167078893D01*
X68020219Y-167233642D01*
X67959838Y-167379414D01*
X67959837Y-167379416D01*
X67872178Y-167510608D01*
X67760608Y-167622178D01*
X67629416Y-167709837D01*
X67629415Y-167709838D01*
X67629414Y-167709838D01*
X67483642Y-167770219D01*
X67328893Y-167801000D01*
X67171107Y-167801000D01*
X67016358Y-167770219D01*
X66870586Y-167709838D01*
X66870585Y-167709838D01*
X66870584Y-167709837D01*
X66739392Y-167622178D01*
X66627822Y-167510608D01*
X66540163Y-167379416D01*
X66540162Y-167379414D01*
X66479781Y-167233642D01*
X66449000Y-167078893D01*
X66449000Y-166921107D01*
X66479781Y-166766358D01*
X66540162Y-166620586D01*
X66540163Y-166620584D01*
X66627822Y-166489392D01*
X66739392Y-166377822D01*
X66870584Y-166290163D01*
X66870586Y-166290162D01*
X67016358Y-166229781D01*
X67171107Y-166199000D01*
X67328893Y-166199000D01*
X67483642Y-166229781D01*
G37*
G36*
X79483642Y-166229781D02*
G01*
X79629414Y-166290162D01*
X79629416Y-166290163D01*
X79760608Y-166377822D01*
X79872178Y-166489392D01*
X79959837Y-166620584D01*
X79959838Y-166620586D01*
X80020219Y-166766358D01*
X80051000Y-166921107D01*
X80051000Y-167078893D01*
X80020219Y-167233642D01*
X79959838Y-167379414D01*
X79959837Y-167379416D01*
X79872178Y-167510608D01*
X79760608Y-167622178D01*
X79629416Y-167709837D01*
X79629415Y-167709838D01*
X79629414Y-167709838D01*
X79483642Y-167770219D01*
X79328893Y-167801000D01*
X79171107Y-167801000D01*
X79016358Y-167770219D01*
X78870586Y-167709838D01*
X78870585Y-167709838D01*
X78870584Y-167709837D01*
X78739392Y-167622178D01*
X78627822Y-167510608D01*
X78540163Y-167379416D01*
X78540162Y-167379414D01*
X78479781Y-167233642D01*
X78449000Y-167078893D01*
X78449000Y-166921107D01*
X78479781Y-166766358D01*
X78540162Y-166620586D01*
X78540163Y-166620584D01*
X78627822Y-166489392D01*
X78739392Y-166377822D01*
X78870584Y-166290163D01*
X78870586Y-166290162D01*
X79016358Y-166229781D01*
X79171107Y-166199000D01*
X79328893Y-166199000D01*
X79483642Y-166229781D01*
G37*
G36*
X75983642Y-166229781D02*
G01*
X76129414Y-166290162D01*
X76129416Y-166290163D01*
X76260608Y-166377822D01*
X76372178Y-166489392D01*
X76459837Y-166620584D01*
X76459838Y-166620586D01*
X76520219Y-166766358D01*
X76551000Y-166921107D01*
X76551000Y-167078893D01*
X76520219Y-167233642D01*
X76459838Y-167379414D01*
X76459837Y-167379416D01*
X76372178Y-167510608D01*
X76260608Y-167622178D01*
X76129416Y-167709837D01*
X76129415Y-167709838D01*
X76129414Y-167709838D01*
X75983642Y-167770219D01*
X75828893Y-167801000D01*
X75671107Y-167801000D01*
X75516358Y-167770219D01*
X75370586Y-167709838D01*
X75370585Y-167709838D01*
X75370584Y-167709837D01*
X75239392Y-167622178D01*
X75127822Y-167510608D01*
X75040163Y-167379416D01*
X75040162Y-167379414D01*
X74979781Y-167233642D01*
X74949000Y-167078893D01*
X74949000Y-166921107D01*
X74979781Y-166766358D01*
X75040162Y-166620586D01*
X75040163Y-166620584D01*
X75127822Y-166489392D01*
X75239392Y-166377822D01*
X75370584Y-166290163D01*
X75370586Y-166290162D01*
X75516358Y-166229781D01*
X75671107Y-166199000D01*
X75828893Y-166199000D01*
X75983642Y-166229781D01*
G37*
G36*
X54483642Y-166229781D02*
G01*
X54629414Y-166290162D01*
X54629416Y-166290163D01*
X54760608Y-166377822D01*
X54872178Y-166489392D01*
X54959837Y-166620584D01*
X54959838Y-166620586D01*
X55020219Y-166766358D01*
X55051000Y-166921107D01*
X55051000Y-167078893D01*
X55020219Y-167233642D01*
X54959838Y-167379414D01*
X54959837Y-167379416D01*
X54872178Y-167510608D01*
X54760608Y-167622178D01*
X54629416Y-167709837D01*
X54629415Y-167709838D01*
X54629414Y-167709838D01*
X54483642Y-167770219D01*
X54328893Y-167801000D01*
X54171107Y-167801000D01*
X54016358Y-167770219D01*
X53870586Y-167709838D01*
X53870585Y-167709838D01*
X53870584Y-167709837D01*
X53739392Y-167622178D01*
X53627822Y-167510608D01*
X53540163Y-167379416D01*
X53540162Y-167379414D01*
X53479781Y-167233642D01*
X53449000Y-167078893D01*
X53449000Y-166921107D01*
X53479781Y-166766358D01*
X53540162Y-166620586D01*
X53540163Y-166620584D01*
X53627822Y-166489392D01*
X53739392Y-166377822D01*
X53870584Y-166290163D01*
X53870586Y-166290162D01*
X54016358Y-166229781D01*
X54171107Y-166199000D01*
X54328893Y-166199000D01*
X54483642Y-166229781D01*
G37*
G36*
X62629591Y-165303085D02*
G01*
X62663569Y-165313393D01*
X62694890Y-165330134D01*
X62722339Y-165352661D01*
X62744866Y-165380110D01*
X62761607Y-165411431D01*
X62771915Y-165445409D01*
X62776000Y-165486890D01*
X62776000Y-166088110D01*
X62771915Y-166129591D01*
X62761607Y-166163569D01*
X62744866Y-166194890D01*
X62722339Y-166222339D01*
X62694890Y-166244866D01*
X62663569Y-166261607D01*
X62629591Y-166271915D01*
X62588110Y-166276000D01*
X61911890Y-166276000D01*
X61870409Y-166271915D01*
X61836431Y-166261607D01*
X61805110Y-166244866D01*
X61777661Y-166222339D01*
X61755134Y-166194890D01*
X61738393Y-166163569D01*
X61728085Y-166129591D01*
X61724000Y-166088110D01*
X61724000Y-165486890D01*
X61728085Y-165445409D01*
X61738393Y-165411431D01*
X61755134Y-165380110D01*
X61777661Y-165352661D01*
X61805110Y-165330134D01*
X61836431Y-165313393D01*
X61870409Y-165303085D01*
X61911890Y-165299000D01*
X62588110Y-165299000D01*
X62629591Y-165303085D01*
G37*
G36*
X100938953Y-160793233D02*
G01*
X101156301Y-160836466D01*
X101565775Y-161006076D01*
X101934292Y-161252311D01*
X102247689Y-161565708D01*
X102493924Y-161934225D01*
X102558981Y-162091285D01*
X102663534Y-162343700D01*
X102750000Y-162778393D01*
X102750000Y-163221607D01*
X102707175Y-163436900D01*
X102663534Y-163656301D01*
X102493924Y-164065775D01*
X102247689Y-164434292D01*
X101934292Y-164747689D01*
X101565775Y-164993924D01*
X101156301Y-165163534D01*
X100721607Y-165250000D01*
X100278393Y-165250000D01*
X99843699Y-165163534D01*
X99434225Y-164993924D01*
X99065708Y-164747689D01*
X98752311Y-164434292D01*
X98506076Y-164065775D01*
X98336466Y-163656301D01*
X98292825Y-163436900D01*
X98250000Y-163221607D01*
X98250000Y-162778393D01*
X98336466Y-162343700D01*
X98441020Y-162091285D01*
X98506076Y-161934225D01*
X98752311Y-161565708D01*
X99065708Y-161252311D01*
X99434225Y-161006076D01*
X99843699Y-160836466D01*
X100061047Y-160793233D01*
X100278393Y-160750000D01*
X100721607Y-160750000D01*
X100938953Y-160793233D01*
G37*
G36*
X24938953Y-160793233D02*
G01*
X25156301Y-160836466D01*
X25565775Y-161006076D01*
X25934292Y-161252311D01*
X26247689Y-161565708D01*
X26493924Y-161934225D01*
X26558981Y-162091285D01*
X26663534Y-162343700D01*
X26750000Y-162778393D01*
X26750000Y-163221607D01*
X26707175Y-163436900D01*
X26663534Y-163656301D01*
X26493924Y-164065775D01*
X26247689Y-164434292D01*
X25934292Y-164747689D01*
X25565775Y-164993924D01*
X25156301Y-165163534D01*
X24721607Y-165250000D01*
X24278393Y-165250000D01*
X23843699Y-165163534D01*
X23434225Y-164993924D01*
X23065708Y-164747689D01*
X22752311Y-164434292D01*
X22506076Y-164065775D01*
X22336466Y-163656301D01*
X22292825Y-163436900D01*
X22250000Y-163221607D01*
X22250000Y-162778393D01*
X22336466Y-162343700D01*
X22441020Y-162091285D01*
X22506076Y-161934225D01*
X22752311Y-161565708D01*
X23065708Y-161252311D01*
X23434225Y-161006076D01*
X23843699Y-160836466D01*
X24061047Y-160793233D01*
X24278393Y-160750000D01*
X24721607Y-160750000D01*
X24938953Y-160793233D01*
G37*
G36*
X62629591Y-163728085D02*
G01*
X62663569Y-163738393D01*
X62694890Y-163755134D01*
X62722339Y-163777661D01*
X62744866Y-163805110D01*
X62761607Y-163836431D01*
X62771915Y-163870409D01*
X62776000Y-163911890D01*
X62776000Y-164513110D01*
X62771915Y-164554591D01*
X62761607Y-164588569D01*
X62744866Y-164619890D01*
X62722339Y-164647339D01*
X62694890Y-164669866D01*
X62663569Y-164686607D01*
X62629591Y-164696915D01*
X62588110Y-164701000D01*
X61911890Y-164701000D01*
X61870409Y-164696915D01*
X61836431Y-164686607D01*
X61805110Y-164669866D01*
X61777661Y-164647339D01*
X61755134Y-164619890D01*
X61738393Y-164588569D01*
X61728085Y-164554591D01*
X61724000Y-164513110D01*
X61724000Y-163911890D01*
X61728085Y-163870409D01*
X61738393Y-163836431D01*
X61755134Y-163805110D01*
X61777661Y-163777661D01*
X61805110Y-163755134D01*
X61836431Y-163738393D01*
X61870409Y-163728085D01*
X61911890Y-163724000D01*
X62588110Y-163724000D01*
X62629591Y-163728085D01*
G37*
G36*
X40053228Y-163021703D02*
G01*
X40208100Y-163085853D01*
X40347481Y-163178985D01*
X40466015Y-163297519D01*
X40559147Y-163436900D01*
X40623297Y-163591772D01*
X40656000Y-163756184D01*
X40656000Y-163923816D01*
X40623297Y-164088228D01*
X40559147Y-164243100D01*
X40466015Y-164382481D01*
X40347481Y-164501015D01*
X40208100Y-164594147D01*
X40053228Y-164658297D01*
X39888816Y-164691000D01*
X39721184Y-164691000D01*
X39556772Y-164658297D01*
X39401900Y-164594147D01*
X39262519Y-164501015D01*
X39143985Y-164382481D01*
X39050853Y-164243100D01*
X38986703Y-164088228D01*
X38954000Y-163923816D01*
X38954000Y-163756184D01*
X38986703Y-163591772D01*
X39050853Y-163436900D01*
X39143985Y-163297519D01*
X39262519Y-163178985D01*
X39401900Y-163085853D01*
X39556772Y-163021703D01*
X39721184Y-162989000D01*
X39888816Y-162989000D01*
X40053228Y-163021703D01*
G37*
G36*
X48363228Y-163021703D02*
G01*
X48518100Y-163085853D01*
X48657481Y-163178985D01*
X48776015Y-163297519D01*
X48869147Y-163436900D01*
X48933297Y-163591772D01*
X48966000Y-163756184D01*
X48966000Y-163923816D01*
X48933297Y-164088228D01*
X48869147Y-164243100D01*
X48776015Y-164382481D01*
X48657481Y-164501015D01*
X48518100Y-164594147D01*
X48363228Y-164658297D01*
X48198816Y-164691000D01*
X48031184Y-164691000D01*
X47866772Y-164658297D01*
X47711900Y-164594147D01*
X47572519Y-164501015D01*
X47453985Y-164382481D01*
X47360853Y-164243100D01*
X47296703Y-164088228D01*
X47264000Y-163923816D01*
X47264000Y-163756184D01*
X47296703Y-163591772D01*
X47360853Y-163436900D01*
X47453985Y-163297519D01*
X47572519Y-163178985D01*
X47711900Y-163085853D01*
X47866772Y-163021703D01*
X48031184Y-162989000D01*
X48198816Y-162989000D01*
X48363228Y-163021703D01*
G37*
G36*
X45593228Y-163021703D02*
G01*
X45748100Y-163085853D01*
X45887481Y-163178985D01*
X46006015Y-163297519D01*
X46099147Y-163436900D01*
X46163297Y-163591772D01*
X46196000Y-163756184D01*
X46196000Y-163923816D01*
X46163297Y-164088228D01*
X46099147Y-164243100D01*
X46006015Y-164382481D01*
X45887481Y-164501015D01*
X45748100Y-164594147D01*
X45593228Y-164658297D01*
X45428816Y-164691000D01*
X45261184Y-164691000D01*
X45096772Y-164658297D01*
X44941900Y-164594147D01*
X44802519Y-164501015D01*
X44683985Y-164382481D01*
X44590853Y-164243100D01*
X44526703Y-164088228D01*
X44494000Y-163923816D01*
X44494000Y-163756184D01*
X44526703Y-163591772D01*
X44590853Y-163436900D01*
X44683985Y-163297519D01*
X44802519Y-163178985D01*
X44941900Y-163085853D01*
X45096772Y-163021703D01*
X45261184Y-162989000D01*
X45428816Y-162989000D01*
X45593228Y-163021703D01*
G37*
G36*
X42823228Y-163021703D02*
G01*
X42978100Y-163085853D01*
X43117481Y-163178985D01*
X43236015Y-163297519D01*
X43329147Y-163436900D01*
X43393297Y-163591772D01*
X43426000Y-163756184D01*
X43426000Y-163923816D01*
X43393297Y-164088228D01*
X43329147Y-164243100D01*
X43236015Y-164382481D01*
X43117481Y-164501015D01*
X42978100Y-164594147D01*
X42823228Y-164658297D01*
X42658816Y-164691000D01*
X42491184Y-164691000D01*
X42326772Y-164658297D01*
X42171900Y-164594147D01*
X42032519Y-164501015D01*
X41913985Y-164382481D01*
X41820853Y-164243100D01*
X41756703Y-164088228D01*
X41724000Y-163923816D01*
X41724000Y-163756184D01*
X41756703Y-163591772D01*
X41820853Y-163436900D01*
X41913985Y-163297519D01*
X42032519Y-163178985D01*
X42171900Y-163085853D01*
X42326772Y-163021703D01*
X42491184Y-162989000D01*
X42658816Y-162989000D01*
X42823228Y-163021703D01*
G37*
G36*
X77053228Y-163021703D02*
G01*
X77208100Y-163085853D01*
X77347481Y-163178985D01*
X77466015Y-163297519D01*
X77559147Y-163436900D01*
X77623297Y-163591772D01*
X77656000Y-163756184D01*
X77656000Y-163923816D01*
X77623297Y-164088228D01*
X77559147Y-164243100D01*
X77466015Y-164382481D01*
X77347481Y-164501015D01*
X77208100Y-164594147D01*
X77053228Y-164658297D01*
X76888816Y-164691000D01*
X76721184Y-164691000D01*
X76556772Y-164658297D01*
X76401900Y-164594147D01*
X76262519Y-164501015D01*
X76143985Y-164382481D01*
X76050853Y-164243100D01*
X75986703Y-164088228D01*
X75954000Y-163923816D01*
X75954000Y-163756184D01*
X75986703Y-163591772D01*
X76050853Y-163436900D01*
X76143985Y-163297519D01*
X76262519Y-163178985D01*
X76401900Y-163085853D01*
X76556772Y-163021703D01*
X76721184Y-162989000D01*
X76888816Y-162989000D01*
X77053228Y-163021703D01*
G37*
G36*
X79823228Y-163021703D02*
G01*
X79978100Y-163085853D01*
X80117481Y-163178985D01*
X80236015Y-163297519D01*
X80329147Y-163436900D01*
X80393297Y-163591772D01*
X80426000Y-163756184D01*
X80426000Y-163923816D01*
X80393297Y-164088228D01*
X80329147Y-164243100D01*
X80236015Y-164382481D01*
X80117481Y-164501015D01*
X79978100Y-164594147D01*
X79823228Y-164658297D01*
X79658816Y-164691000D01*
X79491184Y-164691000D01*
X79326772Y-164658297D01*
X79171900Y-164594147D01*
X79032519Y-164501015D01*
X78913985Y-164382481D01*
X78820853Y-164243100D01*
X78756703Y-164088228D01*
X78724000Y-163923816D01*
X78724000Y-163756184D01*
X78756703Y-163591772D01*
X78820853Y-163436900D01*
X78913985Y-163297519D01*
X79032519Y-163178985D01*
X79171900Y-163085853D01*
X79326772Y-163021703D01*
X79491184Y-162989000D01*
X79658816Y-162989000D01*
X79823228Y-163021703D01*
G37*
G36*
X82593228Y-163021703D02*
G01*
X82748100Y-163085853D01*
X82887481Y-163178985D01*
X83006015Y-163297519D01*
X83099147Y-163436900D01*
X83163297Y-163591772D01*
X83196000Y-163756184D01*
X83196000Y-163923816D01*
X83163297Y-164088228D01*
X83099147Y-164243100D01*
X83006015Y-164382481D01*
X82887481Y-164501015D01*
X82748100Y-164594147D01*
X82593228Y-164658297D01*
X82428816Y-164691000D01*
X82261184Y-164691000D01*
X82096772Y-164658297D01*
X81941900Y-164594147D01*
X81802519Y-164501015D01*
X81683985Y-164382481D01*
X81590853Y-164243100D01*
X81526703Y-164088228D01*
X81494000Y-163923816D01*
X81494000Y-163756184D01*
X81526703Y-163591772D01*
X81590853Y-163436900D01*
X81683985Y-163297519D01*
X81802519Y-163178985D01*
X81941900Y-163085853D01*
X82096772Y-163021703D01*
X82261184Y-162989000D01*
X82428816Y-162989000D01*
X82593228Y-163021703D01*
G37*
G36*
X85363228Y-163021703D02*
G01*
X85518100Y-163085853D01*
X85657481Y-163178985D01*
X85776015Y-163297519D01*
X85869147Y-163436900D01*
X85933297Y-163591772D01*
X85966000Y-163756184D01*
X85966000Y-163923816D01*
X85933297Y-164088228D01*
X85869147Y-164243100D01*
X85776015Y-164382481D01*
X85657481Y-164501015D01*
X85518100Y-164594147D01*
X85363228Y-164658297D01*
X85198816Y-164691000D01*
X85031184Y-164691000D01*
X84866772Y-164658297D01*
X84711900Y-164594147D01*
X84572519Y-164501015D01*
X84453985Y-164382481D01*
X84360853Y-164243100D01*
X84296703Y-164088228D01*
X84264000Y-163923816D01*
X84264000Y-163756184D01*
X84296703Y-163591772D01*
X84360853Y-163436900D01*
X84453985Y-163297519D01*
X84572519Y-163178985D01*
X84711900Y-163085853D01*
X84866772Y-163021703D01*
X85031184Y-162989000D01*
X85198816Y-162989000D01*
X85363228Y-163021703D01*
G37*
G36*
X57058254Y-160447818D02*
G01*
X57418170Y-160596900D01*
X57431513Y-160602427D01*
X57767436Y-160826884D01*
X58053116Y-161112564D01*
X58143765Y-161248229D01*
X58277574Y-161448489D01*
X58432182Y-161821746D01*
X58511000Y-162217993D01*
X58511000Y-162622007D01*
X58432182Y-163018254D01*
X58316506Y-163297520D01*
X58277573Y-163391513D01*
X58053116Y-163727436D01*
X57767436Y-164013116D01*
X57431513Y-164237573D01*
X57431512Y-164237574D01*
X57431511Y-164237574D01*
X57058254Y-164392182D01*
X56662007Y-164471000D01*
X56257993Y-164471000D01*
X55861746Y-164392182D01*
X55488489Y-164237574D01*
X55488488Y-164237574D01*
X55488487Y-164237573D01*
X55152564Y-164013116D01*
X54866884Y-163727436D01*
X54642427Y-163391513D01*
X54603494Y-163297520D01*
X54487818Y-163018254D01*
X54409000Y-162622007D01*
X54409000Y-162217993D01*
X54487818Y-161821746D01*
X54642426Y-161448489D01*
X54776236Y-161248229D01*
X54866884Y-161112564D01*
X55152564Y-160826884D01*
X55488487Y-160602427D01*
X55501830Y-160596900D01*
X55861746Y-160447818D01*
X56257993Y-160369000D01*
X56662007Y-160369000D01*
X57058254Y-160447818D01*
G37*
G36*
X32058254Y-160447818D02*
G01*
X32418170Y-160596900D01*
X32431513Y-160602427D01*
X32767436Y-160826884D01*
X33053116Y-161112564D01*
X33143765Y-161248229D01*
X33277574Y-161448489D01*
X33432182Y-161821746D01*
X33511000Y-162217993D01*
X33511000Y-162622007D01*
X33432182Y-163018254D01*
X33316506Y-163297520D01*
X33277573Y-163391513D01*
X33053116Y-163727436D01*
X32767436Y-164013116D01*
X32431513Y-164237573D01*
X32431512Y-164237574D01*
X32431511Y-164237574D01*
X32058254Y-164392182D01*
X31662007Y-164471000D01*
X31257993Y-164471000D01*
X30861746Y-164392182D01*
X30488489Y-164237574D01*
X30488488Y-164237574D01*
X30488487Y-164237573D01*
X30152564Y-164013116D01*
X29866884Y-163727436D01*
X29642427Y-163391513D01*
X29603494Y-163297520D01*
X29487818Y-163018254D01*
X29409000Y-162622007D01*
X29409000Y-162217993D01*
X29487818Y-161821746D01*
X29642426Y-161448489D01*
X29776236Y-161248229D01*
X29866884Y-161112564D01*
X30152564Y-160826884D01*
X30488487Y-160602427D01*
X30501830Y-160596900D01*
X30861746Y-160447818D01*
X31257993Y-160369000D01*
X31662007Y-160369000D01*
X32058254Y-160447818D01*
G37*
G36*
X69058254Y-160447818D02*
G01*
X69418170Y-160596900D01*
X69431513Y-160602427D01*
X69767436Y-160826884D01*
X70053116Y-161112564D01*
X70143765Y-161248229D01*
X70277574Y-161448489D01*
X70432182Y-161821746D01*
X70511000Y-162217993D01*
X70511000Y-162622007D01*
X70432182Y-163018254D01*
X70316506Y-163297520D01*
X70277573Y-163391513D01*
X70053116Y-163727436D01*
X69767436Y-164013116D01*
X69431513Y-164237573D01*
X69431512Y-164237574D01*
X69431511Y-164237574D01*
X69058254Y-164392182D01*
X68662007Y-164471000D01*
X68257993Y-164471000D01*
X67861746Y-164392182D01*
X67488489Y-164237574D01*
X67488488Y-164237574D01*
X67488487Y-164237573D01*
X67152564Y-164013116D01*
X66866884Y-163727436D01*
X66642427Y-163391513D01*
X66603494Y-163297520D01*
X66487818Y-163018254D01*
X66409000Y-162622007D01*
X66409000Y-162217993D01*
X66487818Y-161821746D01*
X66642426Y-161448489D01*
X66776236Y-161248229D01*
X66866884Y-161112564D01*
X67152564Y-160826884D01*
X67488487Y-160602427D01*
X67501830Y-160596900D01*
X67861746Y-160447818D01*
X68257993Y-160369000D01*
X68662007Y-160369000D01*
X69058254Y-160447818D01*
G37*
G36*
X94058254Y-160447818D02*
G01*
X94418170Y-160596900D01*
X94431513Y-160602427D01*
X94767436Y-160826884D01*
X95053116Y-161112564D01*
X95143765Y-161248229D01*
X95277574Y-161448489D01*
X95432182Y-161821746D01*
X95511000Y-162217993D01*
X95511000Y-162622007D01*
X95432182Y-163018254D01*
X95316506Y-163297520D01*
X95277573Y-163391513D01*
X95053116Y-163727436D01*
X94767436Y-164013116D01*
X94431513Y-164237573D01*
X94431512Y-164237574D01*
X94431511Y-164237574D01*
X94058254Y-164392182D01*
X93662007Y-164471000D01*
X93257993Y-164471000D01*
X92861746Y-164392182D01*
X92488489Y-164237574D01*
X92488488Y-164237574D01*
X92488487Y-164237573D01*
X92152564Y-164013116D01*
X91866884Y-163727436D01*
X91642427Y-163391513D01*
X91603494Y-163297520D01*
X91487818Y-163018254D01*
X91409000Y-162622007D01*
X91409000Y-162217993D01*
X91487818Y-161821746D01*
X91642426Y-161448489D01*
X91776236Y-161248229D01*
X91866884Y-161112564D01*
X92152564Y-160826884D01*
X92488487Y-160602427D01*
X92501830Y-160596900D01*
X92861746Y-160447818D01*
X93257993Y-160369000D01*
X93662007Y-160369000D01*
X94058254Y-160447818D01*
G37*
G36*
X62783715Y-161905156D02*
G01*
X62828155Y-161918637D01*
X62869113Y-161940530D01*
X62905011Y-161969989D01*
X62934470Y-162005887D01*
X62956363Y-162046845D01*
X62969844Y-162091285D01*
X62975000Y-162143640D01*
X62975000Y-162856360D01*
X62969844Y-162908715D01*
X62956363Y-162953155D01*
X62934470Y-162994113D01*
X62905011Y-163030011D01*
X62869113Y-163059470D01*
X62828155Y-163081363D01*
X62783715Y-163094844D01*
X62731360Y-163100000D01*
X61768640Y-163100000D01*
X61716285Y-163094844D01*
X61671845Y-163081363D01*
X61630887Y-163059470D01*
X61594989Y-163030011D01*
X61565530Y-162994113D01*
X61543637Y-162953155D01*
X61530156Y-162908715D01*
X61525000Y-162856360D01*
X61525000Y-162143640D01*
X61530156Y-162091285D01*
X61543637Y-162046845D01*
X61565530Y-162005887D01*
X61594989Y-161969989D01*
X61630887Y-161940530D01*
X61671845Y-161918637D01*
X61716285Y-161905156D01*
X61768640Y-161900000D01*
X62731360Y-161900000D01*
X62783715Y-161905156D01*
G37*
G36*
X78438228Y-160181703D02*
G01*
X78593100Y-160245853D01*
X78732481Y-160338985D01*
X78851015Y-160457519D01*
X78944147Y-160596900D01*
X79008297Y-160751772D01*
X79041000Y-160916184D01*
X79041000Y-161083816D01*
X79008297Y-161248228D01*
X78944147Y-161403100D01*
X78851015Y-161542481D01*
X78732481Y-161661015D01*
X78593100Y-161754147D01*
X78438228Y-161818297D01*
X78273816Y-161851000D01*
X78106184Y-161851000D01*
X77941772Y-161818297D01*
X77786900Y-161754147D01*
X77647519Y-161661015D01*
X77528985Y-161542481D01*
X77435853Y-161403100D01*
X77371703Y-161248228D01*
X77339000Y-161083816D01*
X77339000Y-160916184D01*
X77371703Y-160751772D01*
X77435853Y-160596900D01*
X77528985Y-160457519D01*
X77647519Y-160338985D01*
X77786900Y-160245853D01*
X77941772Y-160181703D01*
X78106184Y-160149000D01*
X78273816Y-160149000D01*
X78438228Y-160181703D01*
G37*
G36*
X81208228Y-160181703D02*
G01*
X81363100Y-160245853D01*
X81502481Y-160338985D01*
X81621015Y-160457519D01*
X81714147Y-160596900D01*
X81778297Y-160751772D01*
X81811000Y-160916184D01*
X81811000Y-161083816D01*
X81778297Y-161248228D01*
X81714147Y-161403100D01*
X81621015Y-161542481D01*
X81502481Y-161661015D01*
X81363100Y-161754147D01*
X81208228Y-161818297D01*
X81043816Y-161851000D01*
X80876184Y-161851000D01*
X80711772Y-161818297D01*
X80556900Y-161754147D01*
X80417519Y-161661015D01*
X80298985Y-161542481D01*
X80205853Y-161403100D01*
X80141703Y-161248228D01*
X80109000Y-161083816D01*
X80109000Y-160916184D01*
X80141703Y-160751772D01*
X80205853Y-160596900D01*
X80298985Y-160457519D01*
X80417519Y-160338985D01*
X80556900Y-160245853D01*
X80711772Y-160181703D01*
X80876184Y-160149000D01*
X81043816Y-160149000D01*
X81208228Y-160181703D01*
G37*
G36*
X83978228Y-160181703D02*
G01*
X84133100Y-160245853D01*
X84272481Y-160338985D01*
X84391015Y-160457519D01*
X84484147Y-160596900D01*
X84548297Y-160751772D01*
X84581000Y-160916184D01*
X84581000Y-161083816D01*
X84548297Y-161248228D01*
X84484147Y-161403100D01*
X84391015Y-161542481D01*
X84272481Y-161661015D01*
X84133100Y-161754147D01*
X83978228Y-161818297D01*
X83813816Y-161851000D01*
X83646184Y-161851000D01*
X83481772Y-161818297D01*
X83326900Y-161754147D01*
X83187519Y-161661015D01*
X83068985Y-161542481D01*
X82975853Y-161403100D01*
X82911703Y-161248228D01*
X82879000Y-161083816D01*
X82879000Y-160916184D01*
X82911703Y-160751772D01*
X82975853Y-160596900D01*
X83068985Y-160457519D01*
X83187519Y-160338985D01*
X83326900Y-160245853D01*
X83481772Y-160181703D01*
X83646184Y-160149000D01*
X83813816Y-160149000D01*
X83978228Y-160181703D01*
G37*
G36*
X87351000Y-161851000D02*
G01*
X85649000Y-161851000D01*
X85649000Y-160149000D01*
X87351000Y-160149000D01*
X87351000Y-161851000D01*
G37*
G36*
X38668228Y-160181703D02*
G01*
X38823100Y-160245853D01*
X38962481Y-160338985D01*
X39081015Y-160457519D01*
X39174147Y-160596900D01*
X39238297Y-160751772D01*
X39271000Y-160916184D01*
X39271000Y-161083816D01*
X39238297Y-161248228D01*
X39174147Y-161403100D01*
X39081015Y-161542481D01*
X38962481Y-161661015D01*
X38823100Y-161754147D01*
X38668228Y-161818297D01*
X38503816Y-161851000D01*
X38336184Y-161851000D01*
X38171772Y-161818297D01*
X38016900Y-161754147D01*
X37877519Y-161661015D01*
X37758985Y-161542481D01*
X37665853Y-161403100D01*
X37601703Y-161248228D01*
X37569000Y-161083816D01*
X37569000Y-160916184D01*
X37601703Y-160751772D01*
X37665853Y-160596900D01*
X37758985Y-160457519D01*
X37877519Y-160338985D01*
X38016900Y-160245853D01*
X38171772Y-160181703D01*
X38336184Y-160149000D01*
X38503816Y-160149000D01*
X38668228Y-160181703D01*
G37*
G36*
X44208228Y-160181703D02*
G01*
X44363100Y-160245853D01*
X44502481Y-160338985D01*
X44621015Y-160457519D01*
X44714147Y-160596900D01*
X44778297Y-160751772D01*
X44811000Y-160916184D01*
X44811000Y-161083816D01*
X44778297Y-161248228D01*
X44714147Y-161403100D01*
X44621015Y-161542481D01*
X44502481Y-161661015D01*
X44363100Y-161754147D01*
X44208228Y-161818297D01*
X44043816Y-161851000D01*
X43876184Y-161851000D01*
X43711772Y-161818297D01*
X43556900Y-161754147D01*
X43417519Y-161661015D01*
X43298985Y-161542481D01*
X43205853Y-161403100D01*
X43141703Y-161248228D01*
X43109000Y-161083816D01*
X43109000Y-160916184D01*
X43141703Y-160751772D01*
X43205853Y-160596900D01*
X43298985Y-160457519D01*
X43417519Y-160338985D01*
X43556900Y-160245853D01*
X43711772Y-160181703D01*
X43876184Y-160149000D01*
X44043816Y-160149000D01*
X44208228Y-160181703D01*
G37*
G36*
X75668228Y-160181703D02*
G01*
X75823100Y-160245853D01*
X75962481Y-160338985D01*
X76081015Y-160457519D01*
X76174147Y-160596900D01*
X76238297Y-160751772D01*
X76271000Y-160916184D01*
X76271000Y-161083816D01*
X76238297Y-161248228D01*
X76174147Y-161403100D01*
X76081015Y-161542481D01*
X75962481Y-161661015D01*
X75823100Y-161754147D01*
X75668228Y-161818297D01*
X75503816Y-161851000D01*
X75336184Y-161851000D01*
X75171772Y-161818297D01*
X75016900Y-161754147D01*
X74877519Y-161661015D01*
X74758985Y-161542481D01*
X74665853Y-161403100D01*
X74601703Y-161248228D01*
X74569000Y-161083816D01*
X74569000Y-160916184D01*
X74601703Y-160751772D01*
X74665853Y-160596900D01*
X74758985Y-160457519D01*
X74877519Y-160338985D01*
X75016900Y-160245853D01*
X75171772Y-160181703D01*
X75336184Y-160149000D01*
X75503816Y-160149000D01*
X75668228Y-160181703D01*
G37*
G36*
X50351000Y-161851000D02*
G01*
X48649000Y-161851000D01*
X48649000Y-160149000D01*
X50351000Y-160149000D01*
X50351000Y-161851000D01*
G37*
G36*
X46978228Y-160181703D02*
G01*
X47133100Y-160245853D01*
X47272481Y-160338985D01*
X47391015Y-160457519D01*
X47484147Y-160596900D01*
X47548297Y-160751772D01*
X47581000Y-160916184D01*
X47581000Y-161083816D01*
X47548297Y-161248228D01*
X47484147Y-161403100D01*
X47391015Y-161542481D01*
X47272481Y-161661015D01*
X47133100Y-161754147D01*
X46978228Y-161818297D01*
X46813816Y-161851000D01*
X46646184Y-161851000D01*
X46481772Y-161818297D01*
X46326900Y-161754147D01*
X46187519Y-161661015D01*
X46068985Y-161542481D01*
X45975853Y-161403100D01*
X45911703Y-161248228D01*
X45879000Y-161083816D01*
X45879000Y-160916184D01*
X45911703Y-160751772D01*
X45975853Y-160596900D01*
X46068985Y-160457519D01*
X46187519Y-160338985D01*
X46326900Y-160245853D01*
X46481772Y-160181703D01*
X46646184Y-160149000D01*
X46813816Y-160149000D01*
X46978228Y-160181703D01*
G37*
G36*
X41438228Y-160181703D02*
G01*
X41593100Y-160245853D01*
X41732481Y-160338985D01*
X41851015Y-160457519D01*
X41944147Y-160596900D01*
X42008297Y-160751772D01*
X42041000Y-160916184D01*
X42041000Y-161083816D01*
X42008297Y-161248228D01*
X41944147Y-161403100D01*
X41851015Y-161542481D01*
X41732481Y-161661015D01*
X41593100Y-161754147D01*
X41438228Y-161818297D01*
X41273816Y-161851000D01*
X41106184Y-161851000D01*
X40941772Y-161818297D01*
X40786900Y-161754147D01*
X40647519Y-161661015D01*
X40528985Y-161542481D01*
X40435853Y-161403100D01*
X40371703Y-161248228D01*
X40339000Y-161083816D01*
X40339000Y-160916184D01*
X40371703Y-160751772D01*
X40435853Y-160596900D01*
X40528985Y-160457519D01*
X40647519Y-160338985D01*
X40786900Y-160245853D01*
X40941772Y-160181703D01*
X41106184Y-160149000D01*
X41273816Y-160149000D01*
X41438228Y-160181703D01*
G37*
G36*
X62783715Y-159905156D02*
G01*
X62828155Y-159918637D01*
X62869113Y-159940530D01*
X62905011Y-159969989D01*
X62934470Y-160005887D01*
X62956363Y-160046845D01*
X62969844Y-160091285D01*
X62975000Y-160143640D01*
X62975000Y-160856360D01*
X62969844Y-160908715D01*
X62956363Y-160953155D01*
X62934470Y-160994113D01*
X62905011Y-161030011D01*
X62869113Y-161059470D01*
X62828155Y-161081363D01*
X62783715Y-161094844D01*
X62731360Y-161100000D01*
X61768640Y-161100000D01*
X61716285Y-161094844D01*
X61671845Y-161081363D01*
X61630887Y-161059470D01*
X61594989Y-161030011D01*
X61565530Y-160994113D01*
X61543637Y-160953155D01*
X61530156Y-160908715D01*
X61525000Y-160856360D01*
X61525000Y-160143640D01*
X61530156Y-160091285D01*
X61543637Y-160046845D01*
X61565530Y-160005887D01*
X61594989Y-159969989D01*
X61630887Y-159940530D01*
X61671845Y-159918637D01*
X61716285Y-159905156D01*
X61768640Y-159900000D01*
X62731360Y-159900000D01*
X62783715Y-159905156D01*
G37*
G36*
X85826000Y-158681000D02*
G01*
X83174000Y-158681000D01*
X83174000Y-157519000D01*
X85826000Y-157519000D01*
X85826000Y-158681000D01*
G37*
G36*
X78826000Y-158681000D02*
G01*
X76174000Y-158681000D01*
X76174000Y-157519000D01*
X78826000Y-157519000D01*
X78826000Y-158681000D01*
G37*
G36*
X65533715Y-156655156D02*
G01*
X65578155Y-156668637D01*
X65619113Y-156690530D01*
X65655011Y-156719989D01*
X65684470Y-156755887D01*
X65706363Y-156796845D01*
X65719844Y-156841285D01*
X65725000Y-156893640D01*
X65725000Y-157606360D01*
X65719844Y-157658715D01*
X65706363Y-157703155D01*
X65684470Y-157744113D01*
X65655011Y-157780011D01*
X65619113Y-157809470D01*
X65578155Y-157831363D01*
X65533715Y-157844844D01*
X65481360Y-157850000D01*
X64518640Y-157850000D01*
X64466285Y-157844844D01*
X64421845Y-157831363D01*
X64380887Y-157809470D01*
X64344989Y-157780011D01*
X64315530Y-157744113D01*
X64293637Y-157703155D01*
X64280156Y-157658715D01*
X64275000Y-157606360D01*
X64275000Y-156893640D01*
X64280156Y-156841285D01*
X64293637Y-156796845D01*
X64315530Y-156755887D01*
X64344989Y-156719989D01*
X64380887Y-156690530D01*
X64421845Y-156668637D01*
X64466285Y-156655156D01*
X64518640Y-156650000D01*
X65481360Y-156650000D01*
X65533715Y-156655156D01*
G37*
G36*
X71033715Y-156655156D02*
G01*
X71078155Y-156668637D01*
X71119113Y-156690530D01*
X71155011Y-156719989D01*
X71184470Y-156755887D01*
X71206363Y-156796845D01*
X71219844Y-156841285D01*
X71225000Y-156893640D01*
X71225000Y-157606360D01*
X71219844Y-157658715D01*
X71206363Y-157703155D01*
X71184470Y-157744113D01*
X71155011Y-157780011D01*
X71119113Y-157809470D01*
X71078155Y-157831363D01*
X71033715Y-157844844D01*
X70981360Y-157850000D01*
X70018640Y-157850000D01*
X69966285Y-157844844D01*
X69921845Y-157831363D01*
X69880887Y-157809470D01*
X69844989Y-157780011D01*
X69815530Y-157744113D01*
X69793637Y-157703155D01*
X69780156Y-157658715D01*
X69775000Y-157606360D01*
X69775000Y-156893640D01*
X69780156Y-156841285D01*
X69793637Y-156796845D01*
X69815530Y-156755887D01*
X69844989Y-156719989D01*
X69880887Y-156690530D01*
X69921845Y-156668637D01*
X69966285Y-156655156D01*
X70018640Y-156650000D01*
X70981360Y-156650000D01*
X71033715Y-156655156D01*
G37*
G36*
X68333715Y-156655156D02*
G01*
X68378155Y-156668637D01*
X68419113Y-156690530D01*
X68455011Y-156719989D01*
X68484470Y-156755887D01*
X68506363Y-156796845D01*
X68519844Y-156841285D01*
X68525000Y-156893640D01*
X68525000Y-157606360D01*
X68519844Y-157658715D01*
X68506363Y-157703155D01*
X68484470Y-157744113D01*
X68455011Y-157780011D01*
X68419113Y-157809470D01*
X68378155Y-157831363D01*
X68333715Y-157844844D01*
X68281360Y-157850000D01*
X67318640Y-157850000D01*
X67266285Y-157844844D01*
X67221845Y-157831363D01*
X67180887Y-157809470D01*
X67144989Y-157780011D01*
X67115530Y-157744113D01*
X67093637Y-157703155D01*
X67080156Y-157658715D01*
X67075000Y-157606360D01*
X67075000Y-156893640D01*
X67080156Y-156841285D01*
X67093637Y-156796845D01*
X67115530Y-156755887D01*
X67144989Y-156719989D01*
X67180887Y-156690530D01*
X67221845Y-156668637D01*
X67266285Y-156655156D01*
X67318640Y-156650000D01*
X68281360Y-156650000D01*
X68333715Y-156655156D01*
G37*
G36*
X59933715Y-156605156D02*
G01*
X59978155Y-156618637D01*
X60019113Y-156640530D01*
X60055011Y-156669989D01*
X60084470Y-156705887D01*
X60106363Y-156746845D01*
X60119844Y-156791285D01*
X60125000Y-156843640D01*
X60125000Y-157556360D01*
X60119844Y-157608715D01*
X60106363Y-157653155D01*
X60084470Y-157694113D01*
X60055011Y-157730011D01*
X60019113Y-157759470D01*
X59978155Y-157781363D01*
X59933715Y-157794844D01*
X59881360Y-157800000D01*
X58918640Y-157800000D01*
X58866285Y-157794844D01*
X58821845Y-157781363D01*
X58780887Y-157759470D01*
X58744989Y-157730011D01*
X58715530Y-157694113D01*
X58693637Y-157653155D01*
X58680156Y-157608715D01*
X58675000Y-157556360D01*
X58675000Y-156843640D01*
X58680156Y-156791285D01*
X58693637Y-156746845D01*
X58715530Y-156705887D01*
X58744989Y-156669989D01*
X58780887Y-156640530D01*
X58821845Y-156618637D01*
X58866285Y-156605156D01*
X58918640Y-156600000D01*
X59881360Y-156600000D01*
X59933715Y-156605156D01*
G37*
G36*
X62733715Y-156605156D02*
G01*
X62778155Y-156618637D01*
X62819113Y-156640530D01*
X62855011Y-156669989D01*
X62884470Y-156705887D01*
X62906363Y-156746845D01*
X62919844Y-156791285D01*
X62925000Y-156843640D01*
X62925000Y-157556360D01*
X62919844Y-157608715D01*
X62906363Y-157653155D01*
X62884470Y-157694113D01*
X62855011Y-157730011D01*
X62819113Y-157759470D01*
X62778155Y-157781363D01*
X62733715Y-157794844D01*
X62681360Y-157800000D01*
X61718640Y-157800000D01*
X61666285Y-157794844D01*
X61621845Y-157781363D01*
X61580887Y-157759470D01*
X61544989Y-157730011D01*
X61515530Y-157694113D01*
X61493637Y-157653155D01*
X61480156Y-157608715D01*
X61475000Y-157556360D01*
X61475000Y-156843640D01*
X61480156Y-156791285D01*
X61493637Y-156746845D01*
X61515530Y-156705887D01*
X61544989Y-156669989D01*
X61580887Y-156640530D01*
X61621845Y-156618637D01*
X61666285Y-156605156D01*
X61718640Y-156600000D01*
X62681360Y-156600000D01*
X62733715Y-156605156D01*
G37*
G36*
X43283715Y-155905156D02*
G01*
X43328155Y-155918637D01*
X43369113Y-155940530D01*
X43405011Y-155969989D01*
X43434470Y-156005887D01*
X43456363Y-156046845D01*
X43469844Y-156091285D01*
X43475000Y-156143640D01*
X43475000Y-156856360D01*
X43469844Y-156908715D01*
X43456363Y-156953155D01*
X43434470Y-156994113D01*
X43405011Y-157030011D01*
X43369113Y-157059470D01*
X43328155Y-157081363D01*
X43283715Y-157094844D01*
X43231360Y-157100000D01*
X42268640Y-157100000D01*
X42216285Y-157094844D01*
X42171845Y-157081363D01*
X42130887Y-157059470D01*
X42094989Y-157030011D01*
X42065530Y-156994113D01*
X42043637Y-156953155D01*
X42030156Y-156908715D01*
X42025000Y-156856360D01*
X42025000Y-156143640D01*
X42030156Y-156091285D01*
X42043637Y-156046845D01*
X42065530Y-156005887D01*
X42094989Y-155969989D01*
X42130887Y-155940530D01*
X42171845Y-155918637D01*
X42216285Y-155905156D01*
X42268640Y-155900000D01*
X43231360Y-155900000D01*
X43283715Y-155905156D01*
G37*
G36*
X39283715Y-155905156D02*
G01*
X39328155Y-155918637D01*
X39369113Y-155940530D01*
X39405011Y-155969989D01*
X39434470Y-156005887D01*
X39456363Y-156046845D01*
X39469844Y-156091285D01*
X39475000Y-156143640D01*
X39475000Y-156856360D01*
X39469844Y-156908715D01*
X39456363Y-156953155D01*
X39434470Y-156994113D01*
X39405011Y-157030011D01*
X39369113Y-157059470D01*
X39328155Y-157081363D01*
X39283715Y-157094844D01*
X39231360Y-157100000D01*
X38268640Y-157100000D01*
X38216285Y-157094844D01*
X38171845Y-157081363D01*
X38130887Y-157059470D01*
X38094989Y-157030011D01*
X38065530Y-156994113D01*
X38043637Y-156953155D01*
X38030156Y-156908715D01*
X38025000Y-156856360D01*
X38025000Y-156143640D01*
X38030156Y-156091285D01*
X38043637Y-156046845D01*
X38065530Y-156005887D01*
X38094989Y-155969989D01*
X38130887Y-155940530D01*
X38171845Y-155918637D01*
X38216285Y-155905156D01*
X38268640Y-155900000D01*
X39231360Y-155900000D01*
X39283715Y-155905156D01*
G37*
G36*
X41283715Y-155905156D02*
G01*
X41328155Y-155918637D01*
X41369113Y-155940530D01*
X41405011Y-155969989D01*
X41434470Y-156005887D01*
X41456363Y-156046845D01*
X41469844Y-156091285D01*
X41475000Y-156143640D01*
X41475000Y-156856360D01*
X41469844Y-156908715D01*
X41456363Y-156953155D01*
X41434470Y-156994113D01*
X41405011Y-157030011D01*
X41369113Y-157059470D01*
X41328155Y-157081363D01*
X41283715Y-157094844D01*
X41231360Y-157100000D01*
X40268640Y-157100000D01*
X40216285Y-157094844D01*
X40171845Y-157081363D01*
X40130887Y-157059470D01*
X40094989Y-157030011D01*
X40065530Y-156994113D01*
X40043637Y-156953155D01*
X40030156Y-156908715D01*
X40025000Y-156856360D01*
X40025000Y-156143640D01*
X40030156Y-156091285D01*
X40043637Y-156046845D01*
X40065530Y-156005887D01*
X40094989Y-155969989D01*
X40130887Y-155940530D01*
X40171845Y-155918637D01*
X40216285Y-155905156D01*
X40268640Y-155900000D01*
X41231360Y-155900000D01*
X41283715Y-155905156D01*
G37*
G36*
X45283715Y-155905156D02*
G01*
X45328155Y-155918637D01*
X45369113Y-155940530D01*
X45405011Y-155969989D01*
X45434470Y-156005887D01*
X45456363Y-156046845D01*
X45469844Y-156091285D01*
X45475000Y-156143640D01*
X45475000Y-156856360D01*
X45469844Y-156908715D01*
X45456363Y-156953155D01*
X45434470Y-156994113D01*
X45405011Y-157030011D01*
X45369113Y-157059470D01*
X45328155Y-157081363D01*
X45283715Y-157094844D01*
X45231360Y-157100000D01*
X44268640Y-157100000D01*
X44216285Y-157094844D01*
X44171845Y-157081363D01*
X44130887Y-157059470D01*
X44094989Y-157030011D01*
X44065530Y-156994113D01*
X44043637Y-156953155D01*
X44030156Y-156908715D01*
X44025000Y-156856360D01*
X44025000Y-156143640D01*
X44030156Y-156091285D01*
X44043637Y-156046845D01*
X44065530Y-156005887D01*
X44094989Y-155969989D01*
X44130887Y-155940530D01*
X44171845Y-155918637D01*
X44216285Y-155905156D01*
X44268640Y-155900000D01*
X45231360Y-155900000D01*
X45283715Y-155905156D01*
G37*
G36*
X47283715Y-155905156D02*
G01*
X47328155Y-155918637D01*
X47369113Y-155940530D01*
X47405011Y-155969989D01*
X47434470Y-156005887D01*
X47456363Y-156046845D01*
X47469844Y-156091285D01*
X47475000Y-156143640D01*
X47475000Y-156856360D01*
X47469844Y-156908715D01*
X47456363Y-156953155D01*
X47434470Y-156994113D01*
X47405011Y-157030011D01*
X47369113Y-157059470D01*
X47328155Y-157081363D01*
X47283715Y-157094844D01*
X47231360Y-157100000D01*
X46268640Y-157100000D01*
X46216285Y-157094844D01*
X46171845Y-157081363D01*
X46130887Y-157059470D01*
X46094989Y-157030011D01*
X46065530Y-156994113D01*
X46043637Y-156953155D01*
X46030156Y-156908715D01*
X46025000Y-156856360D01*
X46025000Y-156143640D01*
X46030156Y-156091285D01*
X46043637Y-156046845D01*
X46065530Y-156005887D01*
X46094989Y-155969989D01*
X46130887Y-155940530D01*
X46171845Y-155918637D01*
X46216285Y-155905156D01*
X46268640Y-155900000D01*
X47231360Y-155900000D01*
X47283715Y-155905156D01*
G37*
G36*
X49283715Y-155905156D02*
G01*
X49328155Y-155918637D01*
X49369113Y-155940530D01*
X49405011Y-155969989D01*
X49434470Y-156005887D01*
X49456363Y-156046845D01*
X49469844Y-156091285D01*
X49475000Y-156143640D01*
X49475000Y-156856360D01*
X49469844Y-156908715D01*
X49456363Y-156953155D01*
X49434470Y-156994113D01*
X49405011Y-157030011D01*
X49369113Y-157059470D01*
X49328155Y-157081363D01*
X49283715Y-157094844D01*
X49231360Y-157100000D01*
X48268640Y-157100000D01*
X48216285Y-157094844D01*
X48171845Y-157081363D01*
X48130887Y-157059470D01*
X48094989Y-157030011D01*
X48065530Y-156994113D01*
X48043637Y-156953155D01*
X48030156Y-156908715D01*
X48025000Y-156856360D01*
X48025000Y-156143640D01*
X48030156Y-156091285D01*
X48043637Y-156046845D01*
X48065530Y-156005887D01*
X48094989Y-155969989D01*
X48130887Y-155940530D01*
X48171845Y-155918637D01*
X48216285Y-155905156D01*
X48268640Y-155900000D01*
X49231360Y-155900000D01*
X49283715Y-155905156D01*
G37*
G36*
X53283715Y-155905156D02*
G01*
X53328155Y-155918637D01*
X53369113Y-155940530D01*
X53405011Y-155969989D01*
X53434470Y-156005887D01*
X53456363Y-156046845D01*
X53469844Y-156091285D01*
X53475000Y-156143640D01*
X53475000Y-156856360D01*
X53469844Y-156908715D01*
X53456363Y-156953155D01*
X53434470Y-156994113D01*
X53405011Y-157030011D01*
X53369113Y-157059470D01*
X53328155Y-157081363D01*
X53283715Y-157094844D01*
X53231360Y-157100000D01*
X52268640Y-157100000D01*
X52216285Y-157094844D01*
X52171845Y-157081363D01*
X52130887Y-157059470D01*
X52094989Y-157030011D01*
X52065530Y-156994113D01*
X52043637Y-156953155D01*
X52030156Y-156908715D01*
X52025000Y-156856360D01*
X52025000Y-156143640D01*
X52030156Y-156091285D01*
X52043637Y-156046845D01*
X52065530Y-156005887D01*
X52094989Y-155969989D01*
X52130887Y-155940530D01*
X52171845Y-155918637D01*
X52216285Y-155905156D01*
X52268640Y-155900000D01*
X53231360Y-155900000D01*
X53283715Y-155905156D01*
G37*
G36*
X55283715Y-155905156D02*
G01*
X55328155Y-155918637D01*
X55369113Y-155940530D01*
X55405011Y-155969989D01*
X55434470Y-156005887D01*
X55456363Y-156046845D01*
X55469844Y-156091285D01*
X55475000Y-156143640D01*
X55475000Y-156856360D01*
X55469844Y-156908715D01*
X55456363Y-156953155D01*
X55434470Y-156994113D01*
X55405011Y-157030011D01*
X55369113Y-157059470D01*
X55328155Y-157081363D01*
X55283715Y-157094844D01*
X55231360Y-157100000D01*
X54268640Y-157100000D01*
X54216285Y-157094844D01*
X54171845Y-157081363D01*
X54130887Y-157059470D01*
X54094989Y-157030011D01*
X54065530Y-156994113D01*
X54043637Y-156953155D01*
X54030156Y-156908715D01*
X54025000Y-156856360D01*
X54025000Y-156143640D01*
X54030156Y-156091285D01*
X54043637Y-156046845D01*
X54065530Y-156005887D01*
X54094989Y-155969989D01*
X54130887Y-155940530D01*
X54171845Y-155918637D01*
X54216285Y-155905156D01*
X54268640Y-155900000D01*
X55231360Y-155900000D01*
X55283715Y-155905156D01*
G37*
G36*
X32233642Y-155479781D02*
G01*
X32379414Y-155540162D01*
X32379416Y-155540163D01*
X32510608Y-155627822D01*
X32622178Y-155739392D01*
X32692232Y-155844236D01*
X32709838Y-155870586D01*
X32770219Y-156016358D01*
X32801000Y-156171107D01*
X32801000Y-156328893D01*
X32770219Y-156483642D01*
X32719886Y-156605156D01*
X32709837Y-156629416D01*
X32622178Y-156760608D01*
X32510608Y-156872178D01*
X32379416Y-156959837D01*
X32379415Y-156959838D01*
X32379414Y-156959838D01*
X32233642Y-157020219D01*
X32078893Y-157051000D01*
X31921107Y-157051000D01*
X31766358Y-157020219D01*
X31620586Y-156959838D01*
X31620585Y-156959838D01*
X31620584Y-156959837D01*
X31489392Y-156872178D01*
X31377822Y-156760608D01*
X31290163Y-156629416D01*
X31280114Y-156605156D01*
X31229781Y-156483642D01*
X31199000Y-156328893D01*
X31199000Y-156171107D01*
X31229781Y-156016358D01*
X31290162Y-155870586D01*
X31307768Y-155844236D01*
X31377822Y-155739392D01*
X31489392Y-155627822D01*
X31620584Y-155540163D01*
X31620586Y-155540162D01*
X31766358Y-155479781D01*
X31921107Y-155449000D01*
X32078893Y-155449000D01*
X32233642Y-155479781D01*
G37*
G36*
X93233642Y-155479781D02*
G01*
X93379414Y-155540162D01*
X93379416Y-155540163D01*
X93510608Y-155627822D01*
X93622178Y-155739392D01*
X93692232Y-155844236D01*
X93709838Y-155870586D01*
X93770219Y-156016358D01*
X93801000Y-156171107D01*
X93801000Y-156328893D01*
X93770219Y-156483642D01*
X93719886Y-156605156D01*
X93709837Y-156629416D01*
X93622178Y-156760608D01*
X93510608Y-156872178D01*
X93379416Y-156959837D01*
X93379415Y-156959838D01*
X93379414Y-156959838D01*
X93233642Y-157020219D01*
X93078893Y-157051000D01*
X92921107Y-157051000D01*
X92766358Y-157020219D01*
X92620586Y-156959838D01*
X92620585Y-156959838D01*
X92620584Y-156959837D01*
X92489392Y-156872178D01*
X92377822Y-156760608D01*
X92290163Y-156629416D01*
X92280114Y-156605156D01*
X92229781Y-156483642D01*
X92199000Y-156328893D01*
X92199000Y-156171107D01*
X92229781Y-156016358D01*
X92290162Y-155870586D01*
X92307768Y-155844236D01*
X92377822Y-155739392D01*
X92489392Y-155627822D01*
X92620584Y-155540163D01*
X92620586Y-155540162D01*
X92766358Y-155479781D01*
X92921107Y-155449000D01*
X93078893Y-155449000D01*
X93233642Y-155479781D01*
G37*
G36*
X78826000Y-156481000D02*
G01*
X76174000Y-156481000D01*
X76174000Y-155319000D01*
X78826000Y-155319000D01*
X78826000Y-156481000D01*
G37*
G36*
X85826000Y-156481000D02*
G01*
X83174000Y-156481000D01*
X83174000Y-155319000D01*
X85826000Y-155319000D01*
X85826000Y-156481000D01*
G37*
G36*
X65533715Y-154655156D02*
G01*
X65578155Y-154668637D01*
X65619113Y-154690530D01*
X65655011Y-154719989D01*
X65684470Y-154755887D01*
X65706363Y-154796845D01*
X65719844Y-154841285D01*
X65725000Y-154893640D01*
X65725000Y-155606360D01*
X65719844Y-155658715D01*
X65706363Y-155703155D01*
X65684470Y-155744113D01*
X65655011Y-155780011D01*
X65619113Y-155809470D01*
X65578155Y-155831363D01*
X65533715Y-155844844D01*
X65481360Y-155850000D01*
X64518640Y-155850000D01*
X64466285Y-155844844D01*
X64421845Y-155831363D01*
X64380887Y-155809470D01*
X64344989Y-155780011D01*
X64315530Y-155744113D01*
X64293637Y-155703155D01*
X64280156Y-155658715D01*
X64275000Y-155606360D01*
X64275000Y-154893640D01*
X64280156Y-154841285D01*
X64293637Y-154796845D01*
X64315530Y-154755887D01*
X64344989Y-154719989D01*
X64380887Y-154690530D01*
X64421845Y-154668637D01*
X64466285Y-154655156D01*
X64518640Y-154650000D01*
X65481360Y-154650000D01*
X65533715Y-154655156D01*
G37*
G36*
X71033715Y-154655156D02*
G01*
X71078155Y-154668637D01*
X71119113Y-154690530D01*
X71155011Y-154719989D01*
X71184470Y-154755887D01*
X71206363Y-154796845D01*
X71219844Y-154841285D01*
X71225000Y-154893640D01*
X71225000Y-155606360D01*
X71219844Y-155658715D01*
X71206363Y-155703155D01*
X71184470Y-155744113D01*
X71155011Y-155780011D01*
X71119113Y-155809470D01*
X71078155Y-155831363D01*
X71033715Y-155844844D01*
X70981360Y-155850000D01*
X70018640Y-155850000D01*
X69966285Y-155844844D01*
X69921845Y-155831363D01*
X69880887Y-155809470D01*
X69844989Y-155780011D01*
X69815530Y-155744113D01*
X69793637Y-155703155D01*
X69780156Y-155658715D01*
X69775000Y-155606360D01*
X69775000Y-154893640D01*
X69780156Y-154841285D01*
X69793637Y-154796845D01*
X69815530Y-154755887D01*
X69844989Y-154719989D01*
X69880887Y-154690530D01*
X69921845Y-154668637D01*
X69966285Y-154655156D01*
X70018640Y-154650000D01*
X70981360Y-154650000D01*
X71033715Y-154655156D01*
G37*
G36*
X68333715Y-154655156D02*
G01*
X68378155Y-154668637D01*
X68419113Y-154690530D01*
X68455011Y-154719989D01*
X68484470Y-154755887D01*
X68506363Y-154796845D01*
X68519844Y-154841285D01*
X68525000Y-154893640D01*
X68525000Y-155606360D01*
X68519844Y-155658715D01*
X68506363Y-155703155D01*
X68484470Y-155744113D01*
X68455011Y-155780011D01*
X68419113Y-155809470D01*
X68378155Y-155831363D01*
X68333715Y-155844844D01*
X68281360Y-155850000D01*
X67318640Y-155850000D01*
X67266285Y-155844844D01*
X67221845Y-155831363D01*
X67180887Y-155809470D01*
X67144989Y-155780011D01*
X67115530Y-155744113D01*
X67093637Y-155703155D01*
X67080156Y-155658715D01*
X67075000Y-155606360D01*
X67075000Y-154893640D01*
X67080156Y-154841285D01*
X67093637Y-154796845D01*
X67115530Y-154755887D01*
X67144989Y-154719989D01*
X67180887Y-154690530D01*
X67221845Y-154668637D01*
X67266285Y-154655156D01*
X67318640Y-154650000D01*
X68281360Y-154650000D01*
X68333715Y-154655156D01*
G37*
G36*
X62733715Y-154605156D02*
G01*
X62778155Y-154618637D01*
X62819113Y-154640530D01*
X62855011Y-154669989D01*
X62884470Y-154705887D01*
X62906363Y-154746845D01*
X62919844Y-154791285D01*
X62925000Y-154843640D01*
X62925000Y-155556360D01*
X62919844Y-155608715D01*
X62906363Y-155653155D01*
X62884470Y-155694113D01*
X62855011Y-155730011D01*
X62819113Y-155759470D01*
X62778155Y-155781363D01*
X62733715Y-155794844D01*
X62681360Y-155800000D01*
X61718640Y-155800000D01*
X61666285Y-155794844D01*
X61621845Y-155781363D01*
X61580887Y-155759470D01*
X61544989Y-155730011D01*
X61515530Y-155694113D01*
X61493637Y-155653155D01*
X61480156Y-155608715D01*
X61475000Y-155556360D01*
X61475000Y-154843640D01*
X61480156Y-154791285D01*
X61493637Y-154746845D01*
X61515530Y-154705887D01*
X61544989Y-154669989D01*
X61580887Y-154640530D01*
X61621845Y-154618637D01*
X61666285Y-154605156D01*
X61718640Y-154600000D01*
X62681360Y-154600000D01*
X62733715Y-154605156D01*
G37*
G36*
X59933715Y-154605156D02*
G01*
X59978155Y-154618637D01*
X60019113Y-154640530D01*
X60055011Y-154669989D01*
X60084470Y-154705887D01*
X60106363Y-154746845D01*
X60119844Y-154791285D01*
X60125000Y-154843640D01*
X60125000Y-155556360D01*
X60119844Y-155608715D01*
X60106363Y-155653155D01*
X60084470Y-155694113D01*
X60055011Y-155730011D01*
X60019113Y-155759470D01*
X59978155Y-155781363D01*
X59933715Y-155794844D01*
X59881360Y-155800000D01*
X58918640Y-155800000D01*
X58866285Y-155794844D01*
X58821845Y-155781363D01*
X58780887Y-155759470D01*
X58744989Y-155730011D01*
X58715530Y-155694113D01*
X58693637Y-155653155D01*
X58680156Y-155608715D01*
X58675000Y-155556360D01*
X58675000Y-154843640D01*
X58680156Y-154791285D01*
X58693637Y-154746845D01*
X58715530Y-154705887D01*
X58744989Y-154669989D01*
X58780887Y-154640530D01*
X58821845Y-154618637D01*
X58866285Y-154605156D01*
X58918640Y-154600000D01*
X59881360Y-154600000D01*
X59933715Y-154605156D01*
G37*
G36*
X47283715Y-153905156D02*
G01*
X47328155Y-153918637D01*
X47369113Y-153940530D01*
X47405011Y-153969989D01*
X47434470Y-154005887D01*
X47456363Y-154046845D01*
X47469844Y-154091285D01*
X47475000Y-154143640D01*
X47475000Y-154856360D01*
X47469844Y-154908715D01*
X47456363Y-154953155D01*
X47434470Y-154994113D01*
X47405011Y-155030011D01*
X47369113Y-155059470D01*
X47328155Y-155081363D01*
X47283715Y-155094844D01*
X47231360Y-155100000D01*
X46268640Y-155100000D01*
X46216285Y-155094844D01*
X46171845Y-155081363D01*
X46130887Y-155059470D01*
X46094989Y-155030011D01*
X46065530Y-154994113D01*
X46043637Y-154953155D01*
X46030156Y-154908715D01*
X46025000Y-154856360D01*
X46025000Y-154143640D01*
X46030156Y-154091285D01*
X46043637Y-154046845D01*
X46065530Y-154005887D01*
X46094989Y-153969989D01*
X46130887Y-153940530D01*
X46171845Y-153918637D01*
X46216285Y-153905156D01*
X46268640Y-153900000D01*
X47231360Y-153900000D01*
X47283715Y-153905156D01*
G37*
G36*
X39283715Y-153905156D02*
G01*
X39328155Y-153918637D01*
X39369113Y-153940530D01*
X39405011Y-153969989D01*
X39434470Y-154005887D01*
X39456363Y-154046845D01*
X39469844Y-154091285D01*
X39475000Y-154143640D01*
X39475000Y-154856360D01*
X39469844Y-154908715D01*
X39456363Y-154953155D01*
X39434470Y-154994113D01*
X39405011Y-155030011D01*
X39369113Y-155059470D01*
X39328155Y-155081363D01*
X39283715Y-155094844D01*
X39231360Y-155100000D01*
X38268640Y-155100000D01*
X38216285Y-155094844D01*
X38171845Y-155081363D01*
X38130887Y-155059470D01*
X38094989Y-155030011D01*
X38065530Y-154994113D01*
X38043637Y-154953155D01*
X38030156Y-154908715D01*
X38025000Y-154856360D01*
X38025000Y-154143640D01*
X38030156Y-154091285D01*
X38043637Y-154046845D01*
X38065530Y-154005887D01*
X38094989Y-153969989D01*
X38130887Y-153940530D01*
X38171845Y-153918637D01*
X38216285Y-153905156D01*
X38268640Y-153900000D01*
X39231360Y-153900000D01*
X39283715Y-153905156D01*
G37*
G36*
X45283715Y-153905156D02*
G01*
X45328155Y-153918637D01*
X45369113Y-153940530D01*
X45405011Y-153969989D01*
X45434470Y-154005887D01*
X45456363Y-154046845D01*
X45469844Y-154091285D01*
X45475000Y-154143640D01*
X45475000Y-154856360D01*
X45469844Y-154908715D01*
X45456363Y-154953155D01*
X45434470Y-154994113D01*
X45405011Y-155030011D01*
X45369113Y-155059470D01*
X45328155Y-155081363D01*
X45283715Y-155094844D01*
X45231360Y-155100000D01*
X44268640Y-155100000D01*
X44216285Y-155094844D01*
X44171845Y-155081363D01*
X44130887Y-155059470D01*
X44094989Y-155030011D01*
X44065530Y-154994113D01*
X44043637Y-154953155D01*
X44030156Y-154908715D01*
X44025000Y-154856360D01*
X44025000Y-154143640D01*
X44030156Y-154091285D01*
X44043637Y-154046845D01*
X44065530Y-154005887D01*
X44094989Y-153969989D01*
X44130887Y-153940530D01*
X44171845Y-153918637D01*
X44216285Y-153905156D01*
X44268640Y-153900000D01*
X45231360Y-153900000D01*
X45283715Y-153905156D01*
G37*
G36*
X41283715Y-153905156D02*
G01*
X41328155Y-153918637D01*
X41369113Y-153940530D01*
X41405011Y-153969989D01*
X41434470Y-154005887D01*
X41456363Y-154046845D01*
X41469844Y-154091285D01*
X41475000Y-154143640D01*
X41475000Y-154856360D01*
X41469844Y-154908715D01*
X41456363Y-154953155D01*
X41434470Y-154994113D01*
X41405011Y-155030011D01*
X41369113Y-155059470D01*
X41328155Y-155081363D01*
X41283715Y-155094844D01*
X41231360Y-155100000D01*
X40268640Y-155100000D01*
X40216285Y-155094844D01*
X40171845Y-155081363D01*
X40130887Y-155059470D01*
X40094989Y-155030011D01*
X40065530Y-154994113D01*
X40043637Y-154953155D01*
X40030156Y-154908715D01*
X40025000Y-154856360D01*
X40025000Y-154143640D01*
X40030156Y-154091285D01*
X40043637Y-154046845D01*
X40065530Y-154005887D01*
X40094989Y-153969989D01*
X40130887Y-153940530D01*
X40171845Y-153918637D01*
X40216285Y-153905156D01*
X40268640Y-153900000D01*
X41231360Y-153900000D01*
X41283715Y-153905156D01*
G37*
G36*
X43283715Y-153905156D02*
G01*
X43328155Y-153918637D01*
X43369113Y-153940530D01*
X43405011Y-153969989D01*
X43434470Y-154005887D01*
X43456363Y-154046845D01*
X43469844Y-154091285D01*
X43475000Y-154143640D01*
X43475000Y-154856360D01*
X43469844Y-154908715D01*
X43456363Y-154953155D01*
X43434470Y-154994113D01*
X43405011Y-155030011D01*
X43369113Y-155059470D01*
X43328155Y-155081363D01*
X43283715Y-155094844D01*
X43231360Y-155100000D01*
X42268640Y-155100000D01*
X42216285Y-155094844D01*
X42171845Y-155081363D01*
X42130887Y-155059470D01*
X42094989Y-155030011D01*
X42065530Y-154994113D01*
X42043637Y-154953155D01*
X42030156Y-154908715D01*
X42025000Y-154856360D01*
X42025000Y-154143640D01*
X42030156Y-154091285D01*
X42043637Y-154046845D01*
X42065530Y-154005887D01*
X42094989Y-153969989D01*
X42130887Y-153940530D01*
X42171845Y-153918637D01*
X42216285Y-153905156D01*
X42268640Y-153900000D01*
X43231360Y-153900000D01*
X43283715Y-153905156D01*
G37*
G36*
X49283715Y-153905156D02*
G01*
X49328155Y-153918637D01*
X49369113Y-153940530D01*
X49405011Y-153969989D01*
X49434470Y-154005887D01*
X49456363Y-154046845D01*
X49469844Y-154091285D01*
X49475000Y-154143640D01*
X49475000Y-154856360D01*
X49469844Y-154908715D01*
X49456363Y-154953155D01*
X49434470Y-154994113D01*
X49405011Y-155030011D01*
X49369113Y-155059470D01*
X49328155Y-155081363D01*
X49283715Y-155094844D01*
X49231360Y-155100000D01*
X48268640Y-155100000D01*
X48216285Y-155094844D01*
X48171845Y-155081363D01*
X48130887Y-155059470D01*
X48094989Y-155030011D01*
X48065530Y-154994113D01*
X48043637Y-154953155D01*
X48030156Y-154908715D01*
X48025000Y-154856360D01*
X48025000Y-154143640D01*
X48030156Y-154091285D01*
X48043637Y-154046845D01*
X48065530Y-154005887D01*
X48094989Y-153969989D01*
X48130887Y-153940530D01*
X48171845Y-153918637D01*
X48216285Y-153905156D01*
X48268640Y-153900000D01*
X49231360Y-153900000D01*
X49283715Y-153905156D01*
G37*
G36*
X53283715Y-153905156D02*
G01*
X53328155Y-153918637D01*
X53369113Y-153940530D01*
X53405011Y-153969989D01*
X53434470Y-154005887D01*
X53456363Y-154046845D01*
X53469844Y-154091285D01*
X53475000Y-154143640D01*
X53475000Y-154856360D01*
X53469844Y-154908715D01*
X53456363Y-154953155D01*
X53434470Y-154994113D01*
X53405011Y-155030011D01*
X53369113Y-155059470D01*
X53328155Y-155081363D01*
X53283715Y-155094844D01*
X53231360Y-155100000D01*
X52268640Y-155100000D01*
X52216285Y-155094844D01*
X52171845Y-155081363D01*
X52130887Y-155059470D01*
X52094989Y-155030011D01*
X52065530Y-154994113D01*
X52043637Y-154953155D01*
X52030156Y-154908715D01*
X52025000Y-154856360D01*
X52025000Y-154143640D01*
X52030156Y-154091285D01*
X52043637Y-154046845D01*
X52065530Y-154005887D01*
X52094989Y-153969989D01*
X52130887Y-153940530D01*
X52171845Y-153918637D01*
X52216285Y-153905156D01*
X52268640Y-153900000D01*
X53231360Y-153900000D01*
X53283715Y-153905156D01*
G37*
G36*
X55283715Y-153905156D02*
G01*
X55328155Y-153918637D01*
X55369113Y-153940530D01*
X55405011Y-153969989D01*
X55434470Y-154005887D01*
X55456363Y-154046845D01*
X55469844Y-154091285D01*
X55475000Y-154143640D01*
X55475000Y-154856360D01*
X55469844Y-154908715D01*
X55456363Y-154953155D01*
X55434470Y-154994113D01*
X55405011Y-155030011D01*
X55369113Y-155059470D01*
X55328155Y-155081363D01*
X55283715Y-155094844D01*
X55231360Y-155100000D01*
X54268640Y-155100000D01*
X54216285Y-155094844D01*
X54171845Y-155081363D01*
X54130887Y-155059470D01*
X54094989Y-155030011D01*
X54065530Y-154994113D01*
X54043637Y-154953155D01*
X54030156Y-154908715D01*
X54025000Y-154856360D01*
X54025000Y-154143640D01*
X54030156Y-154091285D01*
X54043637Y-154046845D01*
X54065530Y-154005887D01*
X54094989Y-153969989D01*
X54130887Y-153940530D01*
X54171845Y-153918637D01*
X54216285Y-153905156D01*
X54268640Y-153900000D01*
X55231360Y-153900000D01*
X55283715Y-153905156D01*
G37*
G36*
X32233642Y-151979781D02*
G01*
X32379414Y-152040162D01*
X32379416Y-152040163D01*
X32510608Y-152127822D01*
X32622178Y-152239392D01*
X32662162Y-152299233D01*
X32709838Y-152370586D01*
X32770219Y-152516358D01*
X32801000Y-152671107D01*
X32801000Y-152828893D01*
X32770219Y-152983642D01*
X32709838Y-153129414D01*
X32709837Y-153129416D01*
X32622178Y-153260608D01*
X32510608Y-153372178D01*
X32379416Y-153459837D01*
X32379415Y-153459838D01*
X32379414Y-153459838D01*
X32233642Y-153520219D01*
X32078893Y-153551000D01*
X31921107Y-153551000D01*
X31766358Y-153520219D01*
X31620586Y-153459838D01*
X31620585Y-153459838D01*
X31620584Y-153459837D01*
X31489392Y-153372178D01*
X31377822Y-153260608D01*
X31290163Y-153129416D01*
X31290162Y-153129414D01*
X31229781Y-152983642D01*
X31199000Y-152828893D01*
X31199000Y-152671107D01*
X31229781Y-152516358D01*
X31290162Y-152370586D01*
X31337838Y-152299233D01*
X31377822Y-152239392D01*
X31489392Y-152127822D01*
X31620584Y-152040163D01*
X31620586Y-152040162D01*
X31766358Y-151979781D01*
X31921107Y-151949000D01*
X32078893Y-151949000D01*
X32233642Y-151979781D01*
G37*
G36*
X93233642Y-151979781D02*
G01*
X93379414Y-152040162D01*
X93379416Y-152040163D01*
X93510608Y-152127822D01*
X93622178Y-152239392D01*
X93662162Y-152299233D01*
X93709838Y-152370586D01*
X93770219Y-152516358D01*
X93801000Y-152671107D01*
X93801000Y-152828893D01*
X93770219Y-152983642D01*
X93709838Y-153129414D01*
X93709837Y-153129416D01*
X93622178Y-153260608D01*
X93510608Y-153372178D01*
X93379416Y-153459837D01*
X93379415Y-153459838D01*
X93379414Y-153459838D01*
X93233642Y-153520219D01*
X93078893Y-153551000D01*
X92921107Y-153551000D01*
X92766358Y-153520219D01*
X92620586Y-153459838D01*
X92620585Y-153459838D01*
X92620584Y-153459837D01*
X92489392Y-153372178D01*
X92377822Y-153260608D01*
X92290163Y-153129416D01*
X92290162Y-153129414D01*
X92229781Y-152983642D01*
X92199000Y-152828893D01*
X92199000Y-152671107D01*
X92229781Y-152516358D01*
X92290162Y-152370586D01*
X92337838Y-152299233D01*
X92377822Y-152239392D01*
X92489392Y-152127822D01*
X92620584Y-152040163D01*
X92620586Y-152040162D01*
X92766358Y-151979781D01*
X92921107Y-151949000D01*
X93078893Y-151949000D01*
X93233642Y-151979781D01*
G37*
G36*
X70701000Y-152726000D02*
G01*
X64299000Y-152726000D01*
X64299000Y-151174000D01*
X70701000Y-151174000D01*
X70701000Y-152726000D01*
G37*
G36*
X48012199Y-150299954D02*
G01*
X48024450Y-150300556D01*
X48042869Y-150300556D01*
X48065149Y-150302750D01*
X48149233Y-150319476D01*
X48170660Y-150325976D01*
X48249858Y-150358780D01*
X48255303Y-150361691D01*
X48255309Y-150361693D01*
X48264169Y-150366429D01*
X48264173Y-150366432D01*
X48269614Y-150369340D01*
X48340899Y-150416971D01*
X48358204Y-150431172D01*
X48418828Y-150491796D01*
X48433029Y-150509101D01*
X48480660Y-150580386D01*
X48483568Y-150585827D01*
X48483571Y-150585831D01*
X48488307Y-150594691D01*
X48488309Y-150594697D01*
X48491220Y-150600142D01*
X48524024Y-150679340D01*
X48530524Y-150700767D01*
X48547250Y-150784851D01*
X48549444Y-150807131D01*
X48549444Y-150825550D01*
X48550046Y-150837801D01*
X48551852Y-150856139D01*
X48551852Y-151343860D01*
X48550263Y-151359999D01*
X48547348Y-151369608D01*
X48542610Y-151378472D01*
X48536237Y-151386237D01*
X48523794Y-151396448D01*
X48513425Y-151403378D01*
X48496098Y-151420705D01*
X48482485Y-151441080D01*
X48473109Y-151463720D01*
X48468329Y-151487753D01*
X48468330Y-151512257D01*
X48473112Y-151536290D01*
X48482490Y-151558929D01*
X48496105Y-151579302D01*
X48513432Y-151596629D01*
X48523802Y-151603558D01*
X48536237Y-151613763D01*
X48542610Y-151621528D01*
X48547348Y-151630392D01*
X48550263Y-151640001D01*
X48551852Y-151656140D01*
X48551852Y-152143862D01*
X48550046Y-152162199D01*
X48549444Y-152174450D01*
X48549444Y-152192869D01*
X48547250Y-152215149D01*
X48530524Y-152299233D01*
X48524024Y-152320660D01*
X48491220Y-152399858D01*
X48488309Y-152405303D01*
X48488307Y-152405309D01*
X48483571Y-152414169D01*
X48483568Y-152414173D01*
X48480660Y-152419614D01*
X48433029Y-152490899D01*
X48418828Y-152508204D01*
X48358204Y-152568828D01*
X48340899Y-152583029D01*
X48269614Y-152630660D01*
X48264173Y-152633568D01*
X48264169Y-152633571D01*
X48255309Y-152638307D01*
X48255303Y-152638309D01*
X48249858Y-152641220D01*
X48170660Y-152674024D01*
X48149233Y-152680524D01*
X48065149Y-152697250D01*
X48042869Y-152699444D01*
X48024450Y-152699444D01*
X48012199Y-152700046D01*
X47993862Y-152701852D01*
X47506138Y-152701852D01*
X47487801Y-152700046D01*
X47475550Y-152699444D01*
X47457131Y-152699444D01*
X47434851Y-152697250D01*
X47350767Y-152680524D01*
X47329340Y-152674024D01*
X47250142Y-152641220D01*
X47244697Y-152638309D01*
X47244691Y-152638307D01*
X47235831Y-152633571D01*
X47235827Y-152633568D01*
X47230386Y-152630660D01*
X47159101Y-152583029D01*
X47141796Y-152568828D01*
X47081172Y-152508204D01*
X47066971Y-152490899D01*
X47019340Y-152419614D01*
X47016432Y-152414173D01*
X47016429Y-152414169D01*
X47011693Y-152405309D01*
X47011691Y-152405303D01*
X47008780Y-152399858D01*
X46975976Y-152320660D01*
X46969476Y-152299233D01*
X46952750Y-152215149D01*
X46950556Y-152192869D01*
X46950556Y-152174450D01*
X46949954Y-152162199D01*
X46948148Y-152143862D01*
X46948148Y-151656140D01*
X46949737Y-151640001D01*
X46952652Y-151630392D01*
X46957390Y-151621528D01*
X46963763Y-151613763D01*
X46976206Y-151603552D01*
X46986575Y-151596622D01*
X47003902Y-151579295D01*
X47017515Y-151558920D01*
X47026891Y-151536280D01*
X47031671Y-151512247D01*
X47031670Y-151487743D01*
X47026888Y-151463710D01*
X47017510Y-151441071D01*
X47003895Y-151420698D01*
X46986568Y-151403371D01*
X46976198Y-151396442D01*
X46963763Y-151386237D01*
X46957390Y-151378472D01*
X46952652Y-151369608D01*
X46949737Y-151359999D01*
X46948148Y-151343860D01*
X46948148Y-150856139D01*
X46949954Y-150837801D01*
X46950556Y-150825550D01*
X46950556Y-150807131D01*
X46952750Y-150784851D01*
X46969476Y-150700767D01*
X46975976Y-150679340D01*
X47008780Y-150600142D01*
X47011691Y-150594697D01*
X47011693Y-150594691D01*
X47016429Y-150585831D01*
X47016432Y-150585827D01*
X47019340Y-150580386D01*
X47066971Y-150509101D01*
X47081172Y-150491796D01*
X47141796Y-150431172D01*
X47159101Y-150416971D01*
X47230386Y-150369340D01*
X47235827Y-150366432D01*
X47235831Y-150366429D01*
X47244691Y-150361693D01*
X47244697Y-150361691D01*
X47250142Y-150358780D01*
X47329340Y-150325976D01*
X47350767Y-150319476D01*
X47434851Y-150302750D01*
X47457131Y-150300556D01*
X47475550Y-150300556D01*
X47487801Y-150299954D01*
X47506139Y-150298148D01*
X47993861Y-150298148D01*
X48012199Y-150299954D01*
G37*
G36*
X44012199Y-150299954D02*
G01*
X44024450Y-150300556D01*
X44042869Y-150300556D01*
X44065149Y-150302750D01*
X44149233Y-150319476D01*
X44170660Y-150325976D01*
X44249858Y-150358780D01*
X44255303Y-150361691D01*
X44255309Y-150361693D01*
X44264169Y-150366429D01*
X44264173Y-150366432D01*
X44269614Y-150369340D01*
X44340899Y-150416971D01*
X44358204Y-150431172D01*
X44418828Y-150491796D01*
X44433029Y-150509101D01*
X44480660Y-150580386D01*
X44483568Y-150585827D01*
X44483571Y-150585831D01*
X44488307Y-150594691D01*
X44488309Y-150594697D01*
X44491220Y-150600142D01*
X44524024Y-150679340D01*
X44530524Y-150700767D01*
X44547250Y-150784851D01*
X44549444Y-150807131D01*
X44549444Y-150825550D01*
X44550046Y-150837801D01*
X44551852Y-150856139D01*
X44551852Y-151343860D01*
X44550263Y-151359999D01*
X44547348Y-151369608D01*
X44542610Y-151378472D01*
X44536237Y-151386237D01*
X44523794Y-151396448D01*
X44513425Y-151403378D01*
X44496098Y-151420705D01*
X44482485Y-151441080D01*
X44473109Y-151463720D01*
X44468329Y-151487753D01*
X44468330Y-151512257D01*
X44473112Y-151536290D01*
X44482490Y-151558929D01*
X44496105Y-151579302D01*
X44513432Y-151596629D01*
X44523802Y-151603558D01*
X44536237Y-151613763D01*
X44542610Y-151621528D01*
X44547348Y-151630392D01*
X44550263Y-151640001D01*
X44551852Y-151656140D01*
X44551852Y-152143861D01*
X44550046Y-152162199D01*
X44549444Y-152174450D01*
X44549444Y-152192869D01*
X44547250Y-152215149D01*
X44530524Y-152299233D01*
X44524024Y-152320660D01*
X44491220Y-152399858D01*
X44488309Y-152405303D01*
X44488307Y-152405309D01*
X44483571Y-152414169D01*
X44483568Y-152414173D01*
X44480660Y-152419614D01*
X44433029Y-152490899D01*
X44418828Y-152508204D01*
X44358204Y-152568828D01*
X44340899Y-152583029D01*
X44269614Y-152630660D01*
X44264173Y-152633568D01*
X44264169Y-152633571D01*
X44255309Y-152638307D01*
X44255303Y-152638309D01*
X44249858Y-152641220D01*
X44170660Y-152674024D01*
X44149233Y-152680524D01*
X44065149Y-152697250D01*
X44042869Y-152699444D01*
X44024450Y-152699444D01*
X44012199Y-152700046D01*
X43993862Y-152701852D01*
X43506138Y-152701852D01*
X43487801Y-152700046D01*
X43475550Y-152699444D01*
X43457131Y-152699444D01*
X43434851Y-152697250D01*
X43350767Y-152680524D01*
X43329340Y-152674024D01*
X43250142Y-152641220D01*
X43244697Y-152638309D01*
X43244691Y-152638307D01*
X43235831Y-152633571D01*
X43235827Y-152633568D01*
X43230386Y-152630660D01*
X43159101Y-152583029D01*
X43141796Y-152568828D01*
X43081172Y-152508204D01*
X43066971Y-152490899D01*
X43019340Y-152419614D01*
X43016432Y-152414173D01*
X43016429Y-152414169D01*
X43011693Y-152405309D01*
X43011691Y-152405303D01*
X43008780Y-152399858D01*
X42975976Y-152320660D01*
X42969476Y-152299233D01*
X42952750Y-152215149D01*
X42950556Y-152192869D01*
X42950556Y-152174450D01*
X42949954Y-152162199D01*
X42948148Y-152143862D01*
X42948148Y-151656140D01*
X42949737Y-151640001D01*
X42952652Y-151630392D01*
X42957390Y-151621528D01*
X42963763Y-151613763D01*
X42976206Y-151603552D01*
X42986575Y-151596622D01*
X43003902Y-151579295D01*
X43017515Y-151558920D01*
X43026891Y-151536280D01*
X43031671Y-151512247D01*
X43031670Y-151487743D01*
X43026888Y-151463710D01*
X43017510Y-151441071D01*
X43003895Y-151420698D01*
X42986568Y-151403371D01*
X42976198Y-151396442D01*
X42963763Y-151386237D01*
X42957390Y-151378472D01*
X42952652Y-151369608D01*
X42949737Y-151359999D01*
X42948148Y-151343860D01*
X42948148Y-150856138D01*
X42949954Y-150837801D01*
X42950556Y-150825550D01*
X42950556Y-150807131D01*
X42952750Y-150784851D01*
X42969476Y-150700767D01*
X42975976Y-150679340D01*
X43008780Y-150600142D01*
X43011691Y-150594697D01*
X43011693Y-150594691D01*
X43016429Y-150585831D01*
X43016432Y-150585827D01*
X43019340Y-150580386D01*
X43066971Y-150509101D01*
X43081172Y-150491796D01*
X43141796Y-150431172D01*
X43159101Y-150416971D01*
X43230386Y-150369340D01*
X43235827Y-150366432D01*
X43235831Y-150366429D01*
X43244691Y-150361693D01*
X43244697Y-150361691D01*
X43250142Y-150358780D01*
X43329340Y-150325976D01*
X43350767Y-150319476D01*
X43434851Y-150302750D01*
X43457131Y-150300556D01*
X43475550Y-150300556D01*
X43487801Y-150299954D01*
X43506139Y-150298148D01*
X43993861Y-150298148D01*
X44012199Y-150299954D01*
G37*
G36*
X40012199Y-150299954D02*
G01*
X40024450Y-150300556D01*
X40042869Y-150300556D01*
X40065149Y-150302750D01*
X40149233Y-150319476D01*
X40170660Y-150325976D01*
X40249858Y-150358780D01*
X40255303Y-150361691D01*
X40255309Y-150361693D01*
X40264169Y-150366429D01*
X40264173Y-150366432D01*
X40269614Y-150369340D01*
X40340899Y-150416971D01*
X40358204Y-150431172D01*
X40418828Y-150491796D01*
X40433029Y-150509101D01*
X40480660Y-150580386D01*
X40483568Y-150585827D01*
X40483571Y-150585831D01*
X40488307Y-150594691D01*
X40488309Y-150594697D01*
X40491220Y-150600142D01*
X40524024Y-150679340D01*
X40530524Y-150700767D01*
X40547250Y-150784851D01*
X40549444Y-150807131D01*
X40549444Y-150825550D01*
X40550046Y-150837801D01*
X40551852Y-150856139D01*
X40551852Y-151343860D01*
X40550263Y-151359999D01*
X40547348Y-151369608D01*
X40542610Y-151378472D01*
X40536237Y-151386237D01*
X40523794Y-151396448D01*
X40513425Y-151403378D01*
X40496098Y-151420705D01*
X40482485Y-151441080D01*
X40473109Y-151463720D01*
X40468329Y-151487753D01*
X40468330Y-151512257D01*
X40473112Y-151536290D01*
X40482490Y-151558929D01*
X40496105Y-151579302D01*
X40513432Y-151596629D01*
X40523802Y-151603558D01*
X40536237Y-151613763D01*
X40542610Y-151621528D01*
X40547348Y-151630392D01*
X40550263Y-151640001D01*
X40551852Y-151656140D01*
X40551852Y-152143862D01*
X40550046Y-152162199D01*
X40549444Y-152174450D01*
X40549444Y-152192869D01*
X40547250Y-152215149D01*
X40530524Y-152299233D01*
X40524024Y-152320660D01*
X40491220Y-152399858D01*
X40488309Y-152405303D01*
X40488307Y-152405309D01*
X40483571Y-152414169D01*
X40483568Y-152414173D01*
X40480660Y-152419614D01*
X40433029Y-152490899D01*
X40418828Y-152508204D01*
X40358204Y-152568828D01*
X40340899Y-152583029D01*
X40269614Y-152630660D01*
X40264173Y-152633568D01*
X40264169Y-152633571D01*
X40255309Y-152638307D01*
X40255303Y-152638309D01*
X40249858Y-152641220D01*
X40170660Y-152674024D01*
X40149233Y-152680524D01*
X40065149Y-152697250D01*
X40042869Y-152699444D01*
X40024450Y-152699444D01*
X40012199Y-152700046D01*
X39993862Y-152701852D01*
X39506138Y-152701852D01*
X39487801Y-152700046D01*
X39475550Y-152699444D01*
X39457131Y-152699444D01*
X39434851Y-152697250D01*
X39350767Y-152680524D01*
X39329340Y-152674024D01*
X39250142Y-152641220D01*
X39244697Y-152638309D01*
X39244691Y-152638307D01*
X39235831Y-152633571D01*
X39235827Y-152633568D01*
X39230386Y-152630660D01*
X39159101Y-152583029D01*
X39141796Y-152568828D01*
X39081172Y-152508204D01*
X39066971Y-152490899D01*
X39019340Y-152419614D01*
X39016432Y-152414173D01*
X39016429Y-152414169D01*
X39011693Y-152405309D01*
X39011691Y-152405303D01*
X39008780Y-152399858D01*
X38975976Y-152320660D01*
X38969476Y-152299233D01*
X38952750Y-152215149D01*
X38950556Y-152192869D01*
X38950556Y-152174450D01*
X38949954Y-152162199D01*
X38948148Y-152143862D01*
X38948148Y-151656140D01*
X38949737Y-151640001D01*
X38952652Y-151630392D01*
X38957390Y-151621528D01*
X38963763Y-151613763D01*
X38976206Y-151603552D01*
X38986575Y-151596622D01*
X39003902Y-151579295D01*
X39017515Y-151558920D01*
X39026891Y-151536280D01*
X39031671Y-151512247D01*
X39031670Y-151487743D01*
X39026888Y-151463710D01*
X39017510Y-151441071D01*
X39003895Y-151420698D01*
X38986568Y-151403371D01*
X38976198Y-151396442D01*
X38963763Y-151386237D01*
X38957390Y-151378472D01*
X38952652Y-151369608D01*
X38949737Y-151359999D01*
X38948148Y-151343860D01*
X38948148Y-150856138D01*
X38949954Y-150837801D01*
X38950556Y-150825550D01*
X38950556Y-150807131D01*
X38952750Y-150784851D01*
X38969476Y-150700767D01*
X38975976Y-150679340D01*
X39008780Y-150600142D01*
X39011691Y-150594697D01*
X39011693Y-150594691D01*
X39016429Y-150585831D01*
X39016432Y-150585827D01*
X39019340Y-150580386D01*
X39066971Y-150509101D01*
X39081172Y-150491796D01*
X39141796Y-150431172D01*
X39159101Y-150416971D01*
X39230386Y-150369340D01*
X39235827Y-150366432D01*
X39235831Y-150366429D01*
X39244691Y-150361693D01*
X39244697Y-150361691D01*
X39250142Y-150358780D01*
X39329340Y-150325976D01*
X39350767Y-150319476D01*
X39434851Y-150302750D01*
X39457131Y-150300556D01*
X39475550Y-150300556D01*
X39487801Y-150299954D01*
X39506139Y-150298148D01*
X39993861Y-150298148D01*
X40012199Y-150299954D01*
G37*
G36*
X77584928Y-150451764D02*
G01*
X77606009Y-150458160D01*
X77625445Y-150468548D01*
X77642476Y-150482524D01*
X77656452Y-150499555D01*
X77666840Y-150518991D01*
X77673236Y-150540072D01*
X77676000Y-150568140D01*
X77676000Y-152381860D01*
X77673236Y-152409928D01*
X77666840Y-152431009D01*
X77656452Y-152450445D01*
X77642476Y-152467476D01*
X77625445Y-152481452D01*
X77606009Y-152491840D01*
X77584928Y-152498236D01*
X77556860Y-152501000D01*
X77093140Y-152501000D01*
X77065072Y-152498236D01*
X77043991Y-152491840D01*
X77024555Y-152481452D01*
X77007524Y-152467476D01*
X76993548Y-152450445D01*
X76983160Y-152431009D01*
X76976764Y-152409928D01*
X76974000Y-152381860D01*
X76974000Y-150568140D01*
X76976764Y-150540072D01*
X76983160Y-150518991D01*
X76993548Y-150499555D01*
X77007524Y-150482524D01*
X77024555Y-150468548D01*
X77043991Y-150458160D01*
X77065072Y-150451764D01*
X77093140Y-150449000D01*
X77556860Y-150449000D01*
X77584928Y-150451764D01*
G37*
G36*
X85204928Y-150451764D02*
G01*
X85226009Y-150458160D01*
X85245445Y-150468548D01*
X85262476Y-150482524D01*
X85276452Y-150499555D01*
X85286840Y-150518991D01*
X85293236Y-150540072D01*
X85296000Y-150568140D01*
X85296000Y-152381860D01*
X85293236Y-152409928D01*
X85286840Y-152431009D01*
X85276452Y-152450445D01*
X85262476Y-152467476D01*
X85245445Y-152481452D01*
X85226009Y-152491840D01*
X85204928Y-152498236D01*
X85176860Y-152501000D01*
X84713140Y-152501000D01*
X84685072Y-152498236D01*
X84663991Y-152491840D01*
X84644555Y-152481452D01*
X84627524Y-152467476D01*
X84613548Y-152450445D01*
X84603160Y-152431009D01*
X84596764Y-152409928D01*
X84594000Y-152381860D01*
X84594000Y-150568140D01*
X84596764Y-150540072D01*
X84603160Y-150518991D01*
X84613548Y-150499555D01*
X84627524Y-150482524D01*
X84644555Y-150468548D01*
X84663991Y-150458160D01*
X84685072Y-150451764D01*
X84713140Y-150449000D01*
X85176860Y-150449000D01*
X85204928Y-150451764D01*
G37*
G36*
X83934928Y-150451764D02*
G01*
X83956009Y-150458160D01*
X83975445Y-150468548D01*
X83992476Y-150482524D01*
X84006452Y-150499555D01*
X84016840Y-150518991D01*
X84023236Y-150540072D01*
X84026000Y-150568140D01*
X84026000Y-152381860D01*
X84023236Y-152409928D01*
X84016840Y-152431009D01*
X84006452Y-152450445D01*
X83992476Y-152467476D01*
X83975445Y-152481452D01*
X83956009Y-152491840D01*
X83934928Y-152498236D01*
X83906860Y-152501000D01*
X83443140Y-152501000D01*
X83415072Y-152498236D01*
X83393991Y-152491840D01*
X83374555Y-152481452D01*
X83357524Y-152467476D01*
X83343548Y-152450445D01*
X83333160Y-152431009D01*
X83326764Y-152409928D01*
X83324000Y-152381860D01*
X83324000Y-150568140D01*
X83326764Y-150540072D01*
X83333160Y-150518991D01*
X83343548Y-150499555D01*
X83357524Y-150482524D01*
X83374555Y-150468548D01*
X83393991Y-150458160D01*
X83415072Y-150451764D01*
X83443140Y-150449000D01*
X83906860Y-150449000D01*
X83934928Y-150451764D01*
G37*
G36*
X82664928Y-150451764D02*
G01*
X82686009Y-150458160D01*
X82705445Y-150468548D01*
X82722476Y-150482524D01*
X82736452Y-150499555D01*
X82746840Y-150518991D01*
X82753236Y-150540072D01*
X82756000Y-150568140D01*
X82756000Y-152381860D01*
X82753236Y-152409928D01*
X82746840Y-152431009D01*
X82736452Y-152450445D01*
X82722476Y-152467476D01*
X82705445Y-152481452D01*
X82686009Y-152491840D01*
X82664928Y-152498236D01*
X82636860Y-152501000D01*
X82173140Y-152501000D01*
X82145072Y-152498236D01*
X82123991Y-152491840D01*
X82104555Y-152481452D01*
X82087524Y-152467476D01*
X82073548Y-152450445D01*
X82063160Y-152431009D01*
X82056764Y-152409928D01*
X82054000Y-152381860D01*
X82054000Y-150568140D01*
X82056764Y-150540072D01*
X82063160Y-150518991D01*
X82073548Y-150499555D01*
X82087524Y-150482524D01*
X82104555Y-150468548D01*
X82123991Y-150458160D01*
X82145072Y-150451764D01*
X82173140Y-150449000D01*
X82636860Y-150449000D01*
X82664928Y-150451764D01*
G37*
G36*
X81394928Y-150451764D02*
G01*
X81416009Y-150458160D01*
X81435445Y-150468548D01*
X81452476Y-150482524D01*
X81466452Y-150499555D01*
X81476840Y-150518991D01*
X81483236Y-150540072D01*
X81486000Y-150568140D01*
X81486000Y-152381860D01*
X81483236Y-152409928D01*
X81476840Y-152431009D01*
X81466452Y-152450445D01*
X81452476Y-152467476D01*
X81435445Y-152481452D01*
X81416009Y-152491840D01*
X81394928Y-152498236D01*
X81366860Y-152501000D01*
X80903140Y-152501000D01*
X80875072Y-152498236D01*
X80853991Y-152491840D01*
X80834555Y-152481452D01*
X80817524Y-152467476D01*
X80803548Y-152450445D01*
X80793160Y-152431009D01*
X80786764Y-152409928D01*
X80784000Y-152381860D01*
X80784000Y-150568140D01*
X80786764Y-150540072D01*
X80793160Y-150518991D01*
X80803548Y-150499555D01*
X80817524Y-150482524D01*
X80834555Y-150468548D01*
X80853991Y-150458160D01*
X80875072Y-150451764D01*
X80903140Y-150449000D01*
X81366860Y-150449000D01*
X81394928Y-150451764D01*
G37*
G36*
X80124928Y-150451764D02*
G01*
X80146009Y-150458160D01*
X80165445Y-150468548D01*
X80182476Y-150482524D01*
X80196452Y-150499555D01*
X80206840Y-150518991D01*
X80213236Y-150540072D01*
X80216000Y-150568140D01*
X80216000Y-152381860D01*
X80213236Y-152409928D01*
X80206840Y-152431009D01*
X80196452Y-152450445D01*
X80182476Y-152467476D01*
X80165445Y-152481452D01*
X80146009Y-152491840D01*
X80124928Y-152498236D01*
X80096860Y-152501000D01*
X79633140Y-152501000D01*
X79605072Y-152498236D01*
X79583991Y-152491840D01*
X79564555Y-152481452D01*
X79547524Y-152467476D01*
X79533548Y-152450445D01*
X79523160Y-152431009D01*
X79516764Y-152409928D01*
X79514000Y-152381860D01*
X79514000Y-150568140D01*
X79516764Y-150540072D01*
X79523160Y-150518991D01*
X79533548Y-150499555D01*
X79547524Y-150482524D01*
X79564555Y-150468548D01*
X79583991Y-150458160D01*
X79605072Y-150451764D01*
X79633140Y-150449000D01*
X80096860Y-150449000D01*
X80124928Y-150451764D01*
G37*
G36*
X78854928Y-150451764D02*
G01*
X78876009Y-150458160D01*
X78895445Y-150468548D01*
X78912476Y-150482524D01*
X78926452Y-150499555D01*
X78936840Y-150518991D01*
X78943236Y-150540072D01*
X78946000Y-150568140D01*
X78946000Y-152381860D01*
X78943236Y-152409928D01*
X78936840Y-152431009D01*
X78926452Y-152450445D01*
X78912476Y-152467476D01*
X78895445Y-152481452D01*
X78876009Y-152491840D01*
X78854928Y-152498236D01*
X78826860Y-152501000D01*
X78363140Y-152501000D01*
X78335072Y-152498236D01*
X78313991Y-152491840D01*
X78294555Y-152481452D01*
X78277524Y-152467476D01*
X78263548Y-152450445D01*
X78253160Y-152431009D01*
X78246764Y-152409928D01*
X78244000Y-152381860D01*
X78244000Y-150568140D01*
X78246764Y-150540072D01*
X78253160Y-150518991D01*
X78263548Y-150499555D01*
X78277524Y-150482524D01*
X78294555Y-150468548D01*
X78313991Y-150458160D01*
X78335072Y-150451764D01*
X78363140Y-150449000D01*
X78826860Y-150449000D01*
X78854928Y-150451764D01*
G37*
G36*
X76314928Y-150451764D02*
G01*
X76336009Y-150458160D01*
X76355445Y-150468548D01*
X76372476Y-150482524D01*
X76386452Y-150499555D01*
X76396840Y-150518991D01*
X76403236Y-150540072D01*
X76406000Y-150568140D01*
X76406000Y-152381860D01*
X76403236Y-152409928D01*
X76396840Y-152431009D01*
X76386452Y-152450445D01*
X76372476Y-152467476D01*
X76355445Y-152481452D01*
X76336009Y-152491840D01*
X76314928Y-152498236D01*
X76286860Y-152501000D01*
X75823140Y-152501000D01*
X75795072Y-152498236D01*
X75773991Y-152491840D01*
X75754555Y-152481452D01*
X75737524Y-152467476D01*
X75723548Y-152450445D01*
X75713160Y-152431009D01*
X75706764Y-152409928D01*
X75704000Y-152381860D01*
X75704000Y-150568140D01*
X75706764Y-150540072D01*
X75713160Y-150518991D01*
X75723548Y-150499555D01*
X75737524Y-150482524D01*
X75754555Y-150468548D01*
X75773991Y-150458160D01*
X75795072Y-150451764D01*
X75823140Y-150449000D01*
X76286860Y-150449000D01*
X76314928Y-150451764D01*
G37*
G36*
X32233642Y-146979781D02*
G01*
X32379414Y-147040162D01*
X32379416Y-147040163D01*
X32510608Y-147127822D01*
X32622178Y-147239392D01*
X32709837Y-147370584D01*
X32709838Y-147370586D01*
X32770219Y-147516358D01*
X32801000Y-147671107D01*
X32801000Y-147828893D01*
X32770219Y-147983642D01*
X32709838Y-148129414D01*
X32709837Y-148129416D01*
X32622178Y-148260608D01*
X32510608Y-148372178D01*
X32379416Y-148459837D01*
X32379415Y-148459838D01*
X32379414Y-148459838D01*
X32233642Y-148520219D01*
X32078893Y-148551000D01*
X31921107Y-148551000D01*
X31766358Y-148520219D01*
X31620586Y-148459838D01*
X31620585Y-148459838D01*
X31620584Y-148459837D01*
X31489392Y-148372178D01*
X31377822Y-148260608D01*
X31290163Y-148129416D01*
X31290162Y-148129414D01*
X31229781Y-147983642D01*
X31199000Y-147828893D01*
X31199000Y-147671107D01*
X31229781Y-147516358D01*
X31290162Y-147370586D01*
X31290163Y-147370584D01*
X31377822Y-147239392D01*
X31489392Y-147127822D01*
X31620584Y-147040163D01*
X31620586Y-147040162D01*
X31766358Y-146979781D01*
X31921107Y-146949000D01*
X32078893Y-146949000D01*
X32233642Y-146979781D01*
G37*
G36*
X81394928Y-145501764D02*
G01*
X81416009Y-145508160D01*
X81435445Y-145518548D01*
X81452476Y-145532524D01*
X81466452Y-145549555D01*
X81476840Y-145568991D01*
X81483236Y-145590072D01*
X81486000Y-145618140D01*
X81486000Y-147431860D01*
X81483236Y-147459928D01*
X81476840Y-147481009D01*
X81466452Y-147500445D01*
X81452476Y-147517476D01*
X81435445Y-147531452D01*
X81416009Y-147541840D01*
X81394928Y-147548236D01*
X81366860Y-147551000D01*
X80903140Y-147551000D01*
X80875072Y-147548236D01*
X80853991Y-147541840D01*
X80834555Y-147531452D01*
X80817524Y-147517476D01*
X80803548Y-147500445D01*
X80793160Y-147481009D01*
X80786764Y-147459928D01*
X80784000Y-147431860D01*
X80784000Y-145618140D01*
X80786764Y-145590072D01*
X80793160Y-145568991D01*
X80803548Y-145549555D01*
X80817524Y-145532524D01*
X80834555Y-145518548D01*
X80853991Y-145508160D01*
X80875072Y-145501764D01*
X80903140Y-145499000D01*
X81366860Y-145499000D01*
X81394928Y-145501764D01*
G37*
G36*
X85204928Y-145501764D02*
G01*
X85226009Y-145508160D01*
X85245445Y-145518548D01*
X85262476Y-145532524D01*
X85276452Y-145549555D01*
X85286840Y-145568991D01*
X85293236Y-145590072D01*
X85296000Y-145618140D01*
X85296000Y-147431860D01*
X85293236Y-147459928D01*
X85286840Y-147481009D01*
X85276452Y-147500445D01*
X85262476Y-147517476D01*
X85245445Y-147531452D01*
X85226009Y-147541840D01*
X85204928Y-147548236D01*
X85176860Y-147551000D01*
X84713140Y-147551000D01*
X84685072Y-147548236D01*
X84663991Y-147541840D01*
X84644555Y-147531452D01*
X84627524Y-147517476D01*
X84613548Y-147500445D01*
X84603160Y-147481009D01*
X84596764Y-147459928D01*
X84594000Y-147431860D01*
X84594000Y-145618140D01*
X84596764Y-145590072D01*
X84603160Y-145568991D01*
X84613548Y-145549555D01*
X84627524Y-145532524D01*
X84644555Y-145518548D01*
X84663991Y-145508160D01*
X84685072Y-145501764D01*
X84713140Y-145499000D01*
X85176860Y-145499000D01*
X85204928Y-145501764D01*
G37*
G36*
X83934928Y-145501764D02*
G01*
X83956009Y-145508160D01*
X83975445Y-145518548D01*
X83992476Y-145532524D01*
X84006452Y-145549555D01*
X84016840Y-145568991D01*
X84023236Y-145590072D01*
X84026000Y-145618140D01*
X84026000Y-147431860D01*
X84023236Y-147459928D01*
X84016840Y-147481009D01*
X84006452Y-147500445D01*
X83992476Y-147517476D01*
X83975445Y-147531452D01*
X83956009Y-147541840D01*
X83934928Y-147548236D01*
X83906860Y-147551000D01*
X83443140Y-147551000D01*
X83415072Y-147548236D01*
X83393991Y-147541840D01*
X83374555Y-147531452D01*
X83357524Y-147517476D01*
X83343548Y-147500445D01*
X83333160Y-147481009D01*
X83326764Y-147459928D01*
X83324000Y-147431860D01*
X83324000Y-145618140D01*
X83326764Y-145590072D01*
X83333160Y-145568991D01*
X83343548Y-145549555D01*
X83357524Y-145532524D01*
X83374555Y-145518548D01*
X83393991Y-145508160D01*
X83415072Y-145501764D01*
X83443140Y-145499000D01*
X83906860Y-145499000D01*
X83934928Y-145501764D01*
G37*
G36*
X82664928Y-145501764D02*
G01*
X82686009Y-145508160D01*
X82705445Y-145518548D01*
X82722476Y-145532524D01*
X82736452Y-145549555D01*
X82746840Y-145568991D01*
X82753236Y-145590072D01*
X82756000Y-145618140D01*
X82756000Y-147431860D01*
X82753236Y-147459928D01*
X82746840Y-147481009D01*
X82736452Y-147500445D01*
X82722476Y-147517476D01*
X82705445Y-147531452D01*
X82686009Y-147541840D01*
X82664928Y-147548236D01*
X82636860Y-147551000D01*
X82173140Y-147551000D01*
X82145072Y-147548236D01*
X82123991Y-147541840D01*
X82104555Y-147531452D01*
X82087524Y-147517476D01*
X82073548Y-147500445D01*
X82063160Y-147481009D01*
X82056764Y-147459928D01*
X82054000Y-147431860D01*
X82054000Y-145618140D01*
X82056764Y-145590072D01*
X82063160Y-145568991D01*
X82073548Y-145549555D01*
X82087524Y-145532524D01*
X82104555Y-145518548D01*
X82123991Y-145508160D01*
X82145072Y-145501764D01*
X82173140Y-145499000D01*
X82636860Y-145499000D01*
X82664928Y-145501764D01*
G37*
G36*
X77584928Y-145501764D02*
G01*
X77606009Y-145508160D01*
X77625445Y-145518548D01*
X77642476Y-145532524D01*
X77656452Y-145549555D01*
X77666840Y-145568991D01*
X77673236Y-145590072D01*
X77676000Y-145618140D01*
X77676000Y-147431860D01*
X77673236Y-147459928D01*
X77666840Y-147481009D01*
X77656452Y-147500445D01*
X77642476Y-147517476D01*
X77625445Y-147531452D01*
X77606009Y-147541840D01*
X77584928Y-147548236D01*
X77556860Y-147551000D01*
X77093140Y-147551000D01*
X77065072Y-147548236D01*
X77043991Y-147541840D01*
X77024555Y-147531452D01*
X77007524Y-147517476D01*
X76993548Y-147500445D01*
X76983160Y-147481009D01*
X76976764Y-147459928D01*
X76974000Y-147431860D01*
X76974000Y-145618140D01*
X76976764Y-145590072D01*
X76983160Y-145568991D01*
X76993548Y-145549555D01*
X77007524Y-145532524D01*
X77024555Y-145518548D01*
X77043991Y-145508160D01*
X77065072Y-145501764D01*
X77093140Y-145499000D01*
X77556860Y-145499000D01*
X77584928Y-145501764D01*
G37*
G36*
X78854928Y-145501764D02*
G01*
X78876009Y-145508160D01*
X78895445Y-145518548D01*
X78912476Y-145532524D01*
X78926452Y-145549555D01*
X78936840Y-145568991D01*
X78943236Y-145590072D01*
X78946000Y-145618140D01*
X78946000Y-147431860D01*
X78943236Y-147459928D01*
X78936840Y-147481009D01*
X78926452Y-147500445D01*
X78912476Y-147517476D01*
X78895445Y-147531452D01*
X78876009Y-147541840D01*
X78854928Y-147548236D01*
X78826860Y-147551000D01*
X78363140Y-147551000D01*
X78335072Y-147548236D01*
X78313991Y-147541840D01*
X78294555Y-147531452D01*
X78277524Y-147517476D01*
X78263548Y-147500445D01*
X78253160Y-147481009D01*
X78246764Y-147459928D01*
X78244000Y-147431860D01*
X78244000Y-145618140D01*
X78246764Y-145590072D01*
X78253160Y-145568991D01*
X78263548Y-145549555D01*
X78277524Y-145532524D01*
X78294555Y-145518548D01*
X78313991Y-145508160D01*
X78335072Y-145501764D01*
X78363140Y-145499000D01*
X78826860Y-145499000D01*
X78854928Y-145501764D01*
G37*
G36*
X80124928Y-145501764D02*
G01*
X80146009Y-145508160D01*
X80165445Y-145518548D01*
X80182476Y-145532524D01*
X80196452Y-145549555D01*
X80206840Y-145568991D01*
X80213236Y-145590072D01*
X80216000Y-145618140D01*
X80216000Y-147431860D01*
X80213236Y-147459928D01*
X80206840Y-147481009D01*
X80196452Y-147500445D01*
X80182476Y-147517476D01*
X80165445Y-147531452D01*
X80146009Y-147541840D01*
X80124928Y-147548236D01*
X80096860Y-147551000D01*
X79633140Y-147551000D01*
X79605072Y-147548236D01*
X79583991Y-147541840D01*
X79564555Y-147531452D01*
X79547524Y-147517476D01*
X79533548Y-147500445D01*
X79523160Y-147481009D01*
X79516764Y-147459928D01*
X79514000Y-147431860D01*
X79514000Y-145618140D01*
X79516764Y-145590072D01*
X79523160Y-145568991D01*
X79533548Y-145549555D01*
X79547524Y-145532524D01*
X79564555Y-145518548D01*
X79583991Y-145508160D01*
X79605072Y-145501764D01*
X79633140Y-145499000D01*
X80096860Y-145499000D01*
X80124928Y-145501764D01*
G37*
G36*
X76314928Y-145501764D02*
G01*
X76336009Y-145508160D01*
X76355445Y-145518548D01*
X76372476Y-145532524D01*
X76386452Y-145549555D01*
X76396840Y-145568991D01*
X76403236Y-145590072D01*
X76406000Y-145618140D01*
X76406000Y-147431860D01*
X76403236Y-147459928D01*
X76396840Y-147481009D01*
X76386452Y-147500445D01*
X76372476Y-147517476D01*
X76355445Y-147531452D01*
X76336009Y-147541840D01*
X76314928Y-147548236D01*
X76286860Y-147551000D01*
X75823140Y-147551000D01*
X75795072Y-147548236D01*
X75773991Y-147541840D01*
X75754555Y-147531452D01*
X75737524Y-147517476D01*
X75723548Y-147500445D01*
X75713160Y-147481009D01*
X75706764Y-147459928D01*
X75704000Y-147431860D01*
X75704000Y-145618140D01*
X75706764Y-145590072D01*
X75713160Y-145568991D01*
X75723548Y-145549555D01*
X75737524Y-145532524D01*
X75754555Y-145518548D01*
X75773991Y-145508160D01*
X75795072Y-145501764D01*
X75823140Y-145499000D01*
X76286860Y-145499000D01*
X76314928Y-145501764D01*
G37*
G36*
X74783715Y-145655156D02*
G01*
X74828155Y-145668637D01*
X74869113Y-145690530D01*
X74905011Y-145719989D01*
X74934470Y-145755887D01*
X74956363Y-145796845D01*
X74969844Y-145841285D01*
X74975000Y-145893640D01*
X74975000Y-146606360D01*
X74969844Y-146658715D01*
X74956363Y-146703155D01*
X74934470Y-146744113D01*
X74905011Y-146780011D01*
X74869113Y-146809470D01*
X74828155Y-146831363D01*
X74783715Y-146844844D01*
X74731360Y-146850000D01*
X73768640Y-146850000D01*
X73716285Y-146844844D01*
X73671845Y-146831363D01*
X73630887Y-146809470D01*
X73594989Y-146780011D01*
X73565530Y-146744113D01*
X73543637Y-146703155D01*
X73530156Y-146658715D01*
X73525000Y-146606360D01*
X73525000Y-145893640D01*
X73530156Y-145841285D01*
X73543637Y-145796845D01*
X73565530Y-145755887D01*
X73594989Y-145719989D01*
X73630887Y-145690530D01*
X73671845Y-145668637D01*
X73716285Y-145655156D01*
X73768640Y-145650000D01*
X74731360Y-145650000D01*
X74783715Y-145655156D01*
G37*
G36*
X70701000Y-146826000D02*
G01*
X64299000Y-146826000D01*
X64299000Y-145274000D01*
X70701000Y-145274000D01*
X70701000Y-146826000D01*
G37*
G36*
X32233642Y-143479781D02*
G01*
X32379414Y-143540162D01*
X32379416Y-143540163D01*
X32510608Y-143627822D01*
X32622178Y-143739392D01*
X32686191Y-143835195D01*
X32709838Y-143870586D01*
X32770219Y-144016358D01*
X32801000Y-144171107D01*
X32801000Y-144328893D01*
X32770219Y-144483642D01*
X32709838Y-144629414D01*
X32709837Y-144629416D01*
X32622178Y-144760608D01*
X32510608Y-144872178D01*
X32379416Y-144959837D01*
X32379415Y-144959838D01*
X32379414Y-144959838D01*
X32233642Y-145020219D01*
X32078893Y-145051000D01*
X31921107Y-145051000D01*
X31766358Y-145020219D01*
X31620586Y-144959838D01*
X31620585Y-144959838D01*
X31620584Y-144959837D01*
X31489392Y-144872178D01*
X31377822Y-144760608D01*
X31290163Y-144629416D01*
X31290162Y-144629414D01*
X31229781Y-144483642D01*
X31199000Y-144328893D01*
X31199000Y-144171107D01*
X31229781Y-144016358D01*
X31290162Y-143870586D01*
X31313809Y-143835195D01*
X31377822Y-143739392D01*
X31489392Y-143627822D01*
X31620584Y-143540163D01*
X31620586Y-143540162D01*
X31766358Y-143479781D01*
X31921107Y-143449000D01*
X32078893Y-143449000D01*
X32233642Y-143479781D01*
G37*
G36*
X74783715Y-143655156D02*
G01*
X74828155Y-143668637D01*
X74869113Y-143690530D01*
X74905011Y-143719989D01*
X74934470Y-143755887D01*
X74956363Y-143796845D01*
X74969844Y-143841285D01*
X74975000Y-143893640D01*
X74975000Y-144606360D01*
X74969844Y-144658715D01*
X74956363Y-144703155D01*
X74934470Y-144744113D01*
X74905011Y-144780011D01*
X74869113Y-144809470D01*
X74828155Y-144831363D01*
X74783715Y-144844844D01*
X74731360Y-144850000D01*
X73768640Y-144850000D01*
X73716285Y-144844844D01*
X73671845Y-144831363D01*
X73630887Y-144809470D01*
X73594989Y-144780011D01*
X73565530Y-144744113D01*
X73543637Y-144703155D01*
X73530156Y-144658715D01*
X73525000Y-144606360D01*
X73525000Y-143893640D01*
X73530156Y-143841285D01*
X73543637Y-143796845D01*
X73565530Y-143755887D01*
X73594989Y-143719989D01*
X73630887Y-143690530D01*
X73671845Y-143668637D01*
X73716285Y-143655156D01*
X73768640Y-143650000D01*
X74731360Y-143650000D01*
X74783715Y-143655156D01*
G37*
G36*
X76762199Y-141549954D02*
G01*
X76774450Y-141550556D01*
X76792869Y-141550556D01*
X76815149Y-141552750D01*
X76899233Y-141569476D01*
X76920660Y-141575976D01*
X76999858Y-141608780D01*
X77005303Y-141611691D01*
X77005309Y-141611693D01*
X77014169Y-141616429D01*
X77014173Y-141616432D01*
X77019614Y-141619340D01*
X77090899Y-141666971D01*
X77108204Y-141681172D01*
X77168828Y-141741796D01*
X77183029Y-141759101D01*
X77230660Y-141830386D01*
X77233568Y-141835827D01*
X77233571Y-141835831D01*
X77238307Y-141844691D01*
X77238309Y-141844697D01*
X77241220Y-141850142D01*
X77274024Y-141929340D01*
X77280524Y-141950767D01*
X77297250Y-142034851D01*
X77299444Y-142057131D01*
X77299444Y-142075550D01*
X77300046Y-142087801D01*
X77301852Y-142106139D01*
X77301852Y-142593860D01*
X77300263Y-142609999D01*
X77297348Y-142619608D01*
X77292610Y-142628472D01*
X77286237Y-142636237D01*
X77273794Y-142646448D01*
X77263425Y-142653378D01*
X77246098Y-142670705D01*
X77232485Y-142691080D01*
X77223109Y-142713720D01*
X77218329Y-142737753D01*
X77218330Y-142762257D01*
X77223112Y-142786290D01*
X77232490Y-142808929D01*
X77246105Y-142829302D01*
X77263432Y-142846629D01*
X77273802Y-142853558D01*
X77286237Y-142863763D01*
X77292610Y-142871528D01*
X77297348Y-142880392D01*
X77300263Y-142890001D01*
X77301852Y-142906140D01*
X77301852Y-143393862D01*
X77300046Y-143412199D01*
X77299444Y-143424450D01*
X77299444Y-143442869D01*
X77297250Y-143465149D01*
X77280524Y-143549233D01*
X77274024Y-143570660D01*
X77241220Y-143649858D01*
X77238309Y-143655303D01*
X77238307Y-143655309D01*
X77233571Y-143664169D01*
X77233568Y-143664173D01*
X77230660Y-143669614D01*
X77183029Y-143740899D01*
X77168828Y-143758204D01*
X77108204Y-143818828D01*
X77090899Y-143833029D01*
X77019614Y-143880660D01*
X77014173Y-143883568D01*
X77014169Y-143883571D01*
X77005309Y-143888307D01*
X77005303Y-143888309D01*
X76999858Y-143891220D01*
X76920660Y-143924024D01*
X76899233Y-143930524D01*
X76815149Y-143947250D01*
X76792869Y-143949444D01*
X76774450Y-143949444D01*
X76762199Y-143950046D01*
X76743862Y-143951852D01*
X76256138Y-143951852D01*
X76237801Y-143950046D01*
X76225550Y-143949444D01*
X76207131Y-143949444D01*
X76184851Y-143947250D01*
X76100767Y-143930524D01*
X76079340Y-143924024D01*
X76000142Y-143891220D01*
X75994697Y-143888309D01*
X75994691Y-143888307D01*
X75985831Y-143883571D01*
X75985827Y-143883568D01*
X75980386Y-143880660D01*
X75909101Y-143833029D01*
X75891796Y-143818828D01*
X75831172Y-143758204D01*
X75816971Y-143740899D01*
X75769340Y-143669614D01*
X75766432Y-143664173D01*
X75766429Y-143664169D01*
X75761693Y-143655309D01*
X75761691Y-143655303D01*
X75758780Y-143649858D01*
X75725976Y-143570660D01*
X75719476Y-143549233D01*
X75702750Y-143465149D01*
X75700556Y-143442869D01*
X75700556Y-143424450D01*
X75699954Y-143412199D01*
X75698148Y-143393862D01*
X75698148Y-142906140D01*
X75699737Y-142890001D01*
X75702652Y-142880392D01*
X75707390Y-142871528D01*
X75713763Y-142863763D01*
X75726206Y-142853552D01*
X75736575Y-142846622D01*
X75753902Y-142829295D01*
X75767515Y-142808920D01*
X75776891Y-142786280D01*
X75781671Y-142762247D01*
X75781670Y-142737743D01*
X75776888Y-142713710D01*
X75767510Y-142691071D01*
X75753895Y-142670698D01*
X75736568Y-142653371D01*
X75726198Y-142646442D01*
X75713763Y-142636237D01*
X75707390Y-142628472D01*
X75702652Y-142619608D01*
X75699737Y-142609999D01*
X75698148Y-142593860D01*
X75698148Y-142106139D01*
X75699954Y-142087801D01*
X75700556Y-142075550D01*
X75700556Y-142057131D01*
X75702750Y-142034851D01*
X75719476Y-141950767D01*
X75725976Y-141929340D01*
X75758780Y-141850142D01*
X75761691Y-141844697D01*
X75761693Y-141844691D01*
X75766429Y-141835831D01*
X75766432Y-141835827D01*
X75769340Y-141830386D01*
X75816971Y-141759101D01*
X75831172Y-141741796D01*
X75891796Y-141681172D01*
X75909101Y-141666971D01*
X75980386Y-141619340D01*
X75985827Y-141616432D01*
X75985831Y-141616429D01*
X75994691Y-141611693D01*
X75994697Y-141611691D01*
X76000142Y-141608780D01*
X76079340Y-141575976D01*
X76100767Y-141569476D01*
X76184851Y-141552750D01*
X76207131Y-141550556D01*
X76225550Y-141550556D01*
X76237801Y-141549954D01*
X76256139Y-141548148D01*
X76743861Y-141548148D01*
X76762199Y-141549954D01*
G37*
G36*
X70033715Y-142305156D02*
G01*
X70078155Y-142318637D01*
X70119113Y-142340530D01*
X70155011Y-142369989D01*
X70184470Y-142405887D01*
X70206363Y-142446845D01*
X70219844Y-142491285D01*
X70225000Y-142543640D01*
X70225000Y-143256360D01*
X70219844Y-143308715D01*
X70206363Y-143353155D01*
X70184470Y-143394113D01*
X70155011Y-143430011D01*
X70119113Y-143459470D01*
X70078155Y-143481363D01*
X70033715Y-143494844D01*
X69981360Y-143500000D01*
X69018640Y-143500000D01*
X68966285Y-143494844D01*
X68921845Y-143481363D01*
X68880887Y-143459470D01*
X68844989Y-143430011D01*
X68815530Y-143394113D01*
X68793637Y-143353155D01*
X68780156Y-143308715D01*
X68775000Y-143256360D01*
X68775000Y-142543640D01*
X68780156Y-142491285D01*
X68793637Y-142446845D01*
X68815530Y-142405887D01*
X68844989Y-142369989D01*
X68880887Y-142340530D01*
X68921845Y-142318637D01*
X68966285Y-142305156D01*
X69018640Y-142300000D01*
X69981360Y-142300000D01*
X70033715Y-142305156D01*
G37*
G36*
X68133715Y-142305156D02*
G01*
X68178155Y-142318637D01*
X68219113Y-142340530D01*
X68255011Y-142369989D01*
X68284470Y-142405887D01*
X68306363Y-142446845D01*
X68319844Y-142491285D01*
X68325000Y-142543640D01*
X68325000Y-143256360D01*
X68319844Y-143308715D01*
X68306363Y-143353155D01*
X68284470Y-143394113D01*
X68255011Y-143430011D01*
X68219113Y-143459470D01*
X68178155Y-143481363D01*
X68133715Y-143494844D01*
X68081360Y-143500000D01*
X67118640Y-143500000D01*
X67066285Y-143494844D01*
X67021845Y-143481363D01*
X66980887Y-143459470D01*
X66944989Y-143430011D01*
X66915530Y-143394113D01*
X66893637Y-143353155D01*
X66880156Y-143308715D01*
X66875000Y-143256360D01*
X66875000Y-142543640D01*
X66880156Y-142491285D01*
X66893637Y-142446845D01*
X66915530Y-142405887D01*
X66944989Y-142369989D01*
X66980887Y-142340530D01*
X67021845Y-142318637D01*
X67066285Y-142305156D01*
X67118640Y-142300000D01*
X68081360Y-142300000D01*
X68133715Y-142305156D01*
G37*
G36*
X71933715Y-142305156D02*
G01*
X71978155Y-142318637D01*
X72019113Y-142340530D01*
X72055011Y-142369989D01*
X72084470Y-142405887D01*
X72106363Y-142446845D01*
X72119844Y-142491285D01*
X72125000Y-142543640D01*
X72125000Y-143256360D01*
X72119844Y-143308715D01*
X72106363Y-143353155D01*
X72084470Y-143394113D01*
X72055011Y-143430011D01*
X72019113Y-143459470D01*
X71978155Y-143481363D01*
X71933715Y-143494844D01*
X71881360Y-143500000D01*
X70918640Y-143500000D01*
X70866285Y-143494844D01*
X70821845Y-143481363D01*
X70780887Y-143459470D01*
X70744989Y-143430011D01*
X70715530Y-143394113D01*
X70693637Y-143353155D01*
X70680156Y-143308715D01*
X70675000Y-143256360D01*
X70675000Y-142543640D01*
X70680156Y-142491285D01*
X70693637Y-142446845D01*
X70715530Y-142405887D01*
X70744989Y-142369989D01*
X70780887Y-142340530D01*
X70821845Y-142318637D01*
X70866285Y-142305156D01*
X70918640Y-142300000D01*
X71881360Y-142300000D01*
X71933715Y-142305156D01*
G37*
G36*
X70033715Y-140305156D02*
G01*
X70078155Y-140318637D01*
X70119113Y-140340530D01*
X70155011Y-140369989D01*
X70184470Y-140405887D01*
X70206363Y-140446845D01*
X70219844Y-140491285D01*
X70225000Y-140543640D01*
X70225000Y-141256360D01*
X70219844Y-141308715D01*
X70206363Y-141353155D01*
X70184470Y-141394113D01*
X70155011Y-141430011D01*
X70119113Y-141459470D01*
X70078155Y-141481363D01*
X70033715Y-141494844D01*
X69981360Y-141500000D01*
X69018640Y-141500000D01*
X68966285Y-141494844D01*
X68921845Y-141481363D01*
X68880887Y-141459470D01*
X68844989Y-141430011D01*
X68815530Y-141394113D01*
X68793637Y-141353155D01*
X68780156Y-141308715D01*
X68775000Y-141256360D01*
X68775000Y-140543640D01*
X68780156Y-140491285D01*
X68793637Y-140446845D01*
X68815530Y-140405887D01*
X68844989Y-140369989D01*
X68880887Y-140340530D01*
X68921845Y-140318637D01*
X68966285Y-140305156D01*
X69018640Y-140300000D01*
X69981360Y-140300000D01*
X70033715Y-140305156D01*
G37*
G36*
X71933715Y-140305156D02*
G01*
X71978155Y-140318637D01*
X72019113Y-140340530D01*
X72055011Y-140369989D01*
X72084470Y-140405887D01*
X72106363Y-140446845D01*
X72119844Y-140491285D01*
X72125000Y-140543640D01*
X72125000Y-141256360D01*
X72119844Y-141308715D01*
X72106363Y-141353155D01*
X72084470Y-141394113D01*
X72055011Y-141430011D01*
X72019113Y-141459470D01*
X71978155Y-141481363D01*
X71933715Y-141494844D01*
X71881360Y-141500000D01*
X70918640Y-141500000D01*
X70866285Y-141494844D01*
X70821845Y-141481363D01*
X70780887Y-141459470D01*
X70744989Y-141430011D01*
X70715530Y-141394113D01*
X70693637Y-141353155D01*
X70680156Y-141308715D01*
X70675000Y-141256360D01*
X70675000Y-140543640D01*
X70680156Y-140491285D01*
X70693637Y-140446845D01*
X70715530Y-140405887D01*
X70744989Y-140369989D01*
X70780887Y-140340530D01*
X70821845Y-140318637D01*
X70866285Y-140305156D01*
X70918640Y-140300000D01*
X71881360Y-140300000D01*
X71933715Y-140305156D01*
G37*
G36*
X68133715Y-140305156D02*
G01*
X68178155Y-140318637D01*
X68219113Y-140340530D01*
X68255011Y-140369989D01*
X68284470Y-140405887D01*
X68306363Y-140446845D01*
X68319844Y-140491285D01*
X68325000Y-140543640D01*
X68325000Y-141256360D01*
X68319844Y-141308715D01*
X68306363Y-141353155D01*
X68284470Y-141394113D01*
X68255011Y-141430011D01*
X68219113Y-141459470D01*
X68178155Y-141481363D01*
X68133715Y-141494844D01*
X68081360Y-141500000D01*
X67118640Y-141500000D01*
X67066285Y-141494844D01*
X67021845Y-141481363D01*
X66980887Y-141459470D01*
X66944989Y-141430011D01*
X66915530Y-141394113D01*
X66893637Y-141353155D01*
X66880156Y-141308715D01*
X66875000Y-141256360D01*
X66875000Y-140543640D01*
X66880156Y-140491285D01*
X66893637Y-140446845D01*
X66915530Y-140405887D01*
X66944989Y-140369989D01*
X66980887Y-140340530D01*
X67021845Y-140318637D01*
X67066285Y-140305156D01*
X67118640Y-140300000D01*
X68081360Y-140300000D01*
X68133715Y-140305156D01*
G37*
G36*
X100875745Y-135780660D02*
G01*
X101156301Y-135836466D01*
X101565775Y-136006076D01*
X101934292Y-136252311D01*
X102247689Y-136565708D01*
X102493924Y-136934225D01*
X102663534Y-137343699D01*
X102750000Y-137778394D01*
X102750000Y-138221606D01*
X102663534Y-138656301D01*
X102493924Y-139065775D01*
X102247689Y-139434292D01*
X101934292Y-139747689D01*
X101565775Y-139993924D01*
X101156301Y-140163534D01*
X100938953Y-140206767D01*
X100721607Y-140250000D01*
X100278393Y-140250000D01*
X100061047Y-140206767D01*
X99843699Y-140163534D01*
X99434225Y-139993924D01*
X99065708Y-139747689D01*
X98752311Y-139434292D01*
X98506076Y-139065775D01*
X98336466Y-138656301D01*
X98250000Y-138221606D01*
X98250000Y-137778394D01*
X98336466Y-137343699D01*
X98506076Y-136934225D01*
X98752311Y-136565708D01*
X99065708Y-136252311D01*
X99434225Y-136006076D01*
X99843699Y-135836466D01*
X100124255Y-135780660D01*
X100278393Y-135750000D01*
X100721607Y-135750000D01*
X100875745Y-135780660D01*
G37*
G36*
X24875745Y-135780660D02*
G01*
X25156301Y-135836466D01*
X25565775Y-136006076D01*
X25934292Y-136252311D01*
X26247689Y-136565708D01*
X26493924Y-136934225D01*
X26663534Y-137343699D01*
X26750000Y-137778394D01*
X26750000Y-138221606D01*
X26663534Y-138656301D01*
X26493924Y-139065775D01*
X26247689Y-139434292D01*
X25934292Y-139747689D01*
X25565775Y-139993924D01*
X25156301Y-140163534D01*
X24938953Y-140206767D01*
X24721607Y-140250000D01*
X24278393Y-140250000D01*
X24061047Y-140206767D01*
X23843699Y-140163534D01*
X23434225Y-139993924D01*
X23065708Y-139747689D01*
X22752311Y-139434292D01*
X22506076Y-139065775D01*
X22336466Y-138656301D01*
X22250000Y-138221606D01*
X22250000Y-137778394D01*
X22336466Y-137343699D01*
X22506076Y-136934225D01*
X22752311Y-136565708D01*
X23065708Y-136252311D01*
X23434225Y-136006076D01*
X23843699Y-135836466D01*
X24124255Y-135780660D01*
X24278393Y-135750000D01*
X24721607Y-135750000D01*
X24875745Y-135780660D01*
G37*
G36*
X90801000Y-137101000D02*
G01*
X88699000Y-137101000D01*
X88699000Y-135699000D01*
X90801000Y-135699000D01*
X90801000Y-137101000D01*
G37*
G36*
X86801000Y-136301000D02*
G01*
X84699000Y-136301000D01*
X84699000Y-134199000D01*
X86801000Y-134199000D01*
X86801000Y-136301000D01*
G37*
G36*
X71012199Y-132149954D02*
G01*
X71024450Y-132150556D01*
X71042869Y-132150556D01*
X71065149Y-132152750D01*
X71149233Y-132169476D01*
X71170660Y-132175976D01*
X71249858Y-132208780D01*
X71255303Y-132211691D01*
X71255309Y-132211693D01*
X71264169Y-132216429D01*
X71264173Y-132216432D01*
X71269614Y-132219340D01*
X71340899Y-132266971D01*
X71358204Y-132281172D01*
X71418828Y-132341796D01*
X71433029Y-132359101D01*
X71480660Y-132430386D01*
X71483568Y-132435827D01*
X71483571Y-132435831D01*
X71488307Y-132444691D01*
X71488309Y-132444697D01*
X71491220Y-132450142D01*
X71524024Y-132529340D01*
X71530524Y-132550767D01*
X71547250Y-132634851D01*
X71549444Y-132657131D01*
X71549444Y-132675550D01*
X71550046Y-132687801D01*
X71551852Y-132706139D01*
X71551852Y-133243860D01*
X71550263Y-133259999D01*
X71545855Y-133274528D01*
X71540394Y-133287711D01*
X71535612Y-133311745D01*
X71535611Y-133336249D01*
X71540391Y-133360282D01*
X71549768Y-133382921D01*
X71551000Y-133384765D01*
X71551000Y-134616050D01*
X71544525Y-134628164D01*
X71537412Y-134651613D01*
X71535010Y-134675999D01*
X71537412Y-134700385D01*
X71544525Y-134723834D01*
X71546848Y-134728746D01*
X71550263Y-134740001D01*
X71551852Y-134756140D01*
X71551852Y-135293862D01*
X71550046Y-135312199D01*
X71549444Y-135324450D01*
X71549444Y-135342869D01*
X71547250Y-135365149D01*
X71530524Y-135449233D01*
X71524024Y-135470660D01*
X71491220Y-135549858D01*
X71488309Y-135555303D01*
X71488307Y-135555309D01*
X71483571Y-135564169D01*
X71483568Y-135564173D01*
X71480660Y-135569614D01*
X71433029Y-135640899D01*
X71418828Y-135658204D01*
X71358204Y-135718828D01*
X71340899Y-135733029D01*
X71269614Y-135780660D01*
X71264173Y-135783568D01*
X71264169Y-135783571D01*
X71255309Y-135788307D01*
X71255303Y-135788309D01*
X71249858Y-135791220D01*
X71170660Y-135824024D01*
X71149233Y-135830524D01*
X71065149Y-135847250D01*
X71042869Y-135849444D01*
X71024450Y-135849444D01*
X71012199Y-135850046D01*
X70993862Y-135851852D01*
X70506138Y-135851852D01*
X70487801Y-135850046D01*
X70475550Y-135849444D01*
X70457131Y-135849444D01*
X70434851Y-135847250D01*
X70350767Y-135830524D01*
X70329340Y-135824024D01*
X70250142Y-135791220D01*
X70244697Y-135788309D01*
X70244691Y-135788307D01*
X70235831Y-135783571D01*
X70235827Y-135783568D01*
X70230386Y-135780660D01*
X70159101Y-135733029D01*
X70141796Y-135718828D01*
X70081172Y-135658204D01*
X70066971Y-135640899D01*
X70019340Y-135569614D01*
X70016432Y-135564173D01*
X70016429Y-135564169D01*
X70011693Y-135555309D01*
X70011691Y-135555303D01*
X70008780Y-135549858D01*
X69975976Y-135470660D01*
X69969476Y-135449233D01*
X69952750Y-135365149D01*
X69950556Y-135342869D01*
X69950556Y-135324450D01*
X69949954Y-135312199D01*
X69948148Y-135293862D01*
X69948148Y-134756140D01*
X69949737Y-134740001D01*
X69954145Y-134725472D01*
X69959606Y-134712289D01*
X69964388Y-134688255D01*
X69964389Y-134663751D01*
X69959609Y-134639718D01*
X69950232Y-134617079D01*
X69949000Y-134615235D01*
X69949000Y-133383950D01*
X69955475Y-133371836D01*
X69962588Y-133348387D01*
X69964990Y-133324001D01*
X69962588Y-133299615D01*
X69955475Y-133276166D01*
X69953152Y-133271254D01*
X69949737Y-133259999D01*
X69948148Y-133243860D01*
X69948148Y-132706139D01*
X69949954Y-132687801D01*
X69950556Y-132675550D01*
X69950556Y-132657131D01*
X69952750Y-132634851D01*
X69969476Y-132550767D01*
X69975976Y-132529340D01*
X70008780Y-132450142D01*
X70011691Y-132444697D01*
X70011693Y-132444691D01*
X70016429Y-132435831D01*
X70016432Y-132435827D01*
X70019340Y-132430386D01*
X70066971Y-132359101D01*
X70081172Y-132341796D01*
X70141796Y-132281172D01*
X70159101Y-132266971D01*
X70230386Y-132219340D01*
X70235827Y-132216432D01*
X70235831Y-132216429D01*
X70244691Y-132211693D01*
X70244697Y-132211691D01*
X70250142Y-132208780D01*
X70329340Y-132175976D01*
X70350767Y-132169476D01*
X70434851Y-132152750D01*
X70457131Y-132150556D01*
X70475550Y-132150556D01*
X70487801Y-132149954D01*
X70506139Y-132148148D01*
X70993861Y-132148148D01*
X71012199Y-132149954D01*
G37*
G36*
X80512199Y-132149954D02*
G01*
X80524450Y-132150556D01*
X80542869Y-132150556D01*
X80565149Y-132152750D01*
X80649233Y-132169476D01*
X80670660Y-132175976D01*
X80749858Y-132208780D01*
X80755303Y-132211691D01*
X80755309Y-132211693D01*
X80764169Y-132216429D01*
X80764173Y-132216432D01*
X80769614Y-132219340D01*
X80840899Y-132266971D01*
X80858204Y-132281172D01*
X80918828Y-132341796D01*
X80933029Y-132359101D01*
X80980660Y-132430386D01*
X80983568Y-132435827D01*
X80983571Y-132435831D01*
X80988307Y-132444691D01*
X80988309Y-132444697D01*
X80991220Y-132450142D01*
X81024024Y-132529340D01*
X81030524Y-132550767D01*
X81047250Y-132634851D01*
X81049444Y-132657131D01*
X81049444Y-132675550D01*
X81050046Y-132687801D01*
X81051852Y-132706139D01*
X81051852Y-133243860D01*
X81050263Y-133259999D01*
X81045855Y-133274528D01*
X81040394Y-133287711D01*
X81035612Y-133311745D01*
X81035611Y-133336249D01*
X81040391Y-133360282D01*
X81049768Y-133382921D01*
X81051000Y-133384765D01*
X81051000Y-134616050D01*
X81044525Y-134628164D01*
X81037412Y-134651613D01*
X81035010Y-134675999D01*
X81037412Y-134700385D01*
X81044525Y-134723834D01*
X81046848Y-134728746D01*
X81050263Y-134740001D01*
X81051852Y-134756140D01*
X81051852Y-135293862D01*
X81050046Y-135312199D01*
X81049444Y-135324450D01*
X81049444Y-135342869D01*
X81047250Y-135365149D01*
X81030524Y-135449233D01*
X81024024Y-135470660D01*
X80991220Y-135549858D01*
X80988309Y-135555303D01*
X80988307Y-135555309D01*
X80983571Y-135564169D01*
X80983568Y-135564173D01*
X80980660Y-135569614D01*
X80933029Y-135640899D01*
X80918828Y-135658204D01*
X80858204Y-135718828D01*
X80840899Y-135733029D01*
X80769614Y-135780660D01*
X80764173Y-135783568D01*
X80764169Y-135783571D01*
X80755309Y-135788307D01*
X80755303Y-135788309D01*
X80749858Y-135791220D01*
X80670660Y-135824024D01*
X80649233Y-135830524D01*
X80565149Y-135847250D01*
X80542869Y-135849444D01*
X80524450Y-135849444D01*
X80512199Y-135850046D01*
X80493862Y-135851852D01*
X80006138Y-135851852D01*
X79987801Y-135850046D01*
X79975550Y-135849444D01*
X79957131Y-135849444D01*
X79934851Y-135847250D01*
X79850767Y-135830524D01*
X79829340Y-135824024D01*
X79750142Y-135791220D01*
X79744697Y-135788309D01*
X79744691Y-135788307D01*
X79735831Y-135783571D01*
X79735827Y-135783568D01*
X79730386Y-135780660D01*
X79659101Y-135733029D01*
X79641796Y-135718828D01*
X79581172Y-135658204D01*
X79566971Y-135640899D01*
X79519340Y-135569614D01*
X79516432Y-135564173D01*
X79516429Y-135564169D01*
X79511693Y-135555309D01*
X79511691Y-135555303D01*
X79508780Y-135549858D01*
X79475976Y-135470660D01*
X79469476Y-135449233D01*
X79452750Y-135365149D01*
X79450556Y-135342869D01*
X79450556Y-135324450D01*
X79449954Y-135312199D01*
X79448148Y-135293862D01*
X79448148Y-134756140D01*
X79449737Y-134740001D01*
X79454145Y-134725472D01*
X79459606Y-134712289D01*
X79464388Y-134688255D01*
X79464389Y-134663751D01*
X79459609Y-134639718D01*
X79450232Y-134617079D01*
X79449000Y-134615235D01*
X79449000Y-133383950D01*
X79455475Y-133371836D01*
X79462588Y-133348387D01*
X79464990Y-133324001D01*
X79462588Y-133299615D01*
X79455475Y-133276166D01*
X79453152Y-133271254D01*
X79449737Y-133259999D01*
X79448148Y-133243860D01*
X79448148Y-132706139D01*
X79449954Y-132687801D01*
X79450556Y-132675550D01*
X79450556Y-132657131D01*
X79452750Y-132634851D01*
X79469476Y-132550767D01*
X79475976Y-132529340D01*
X79508780Y-132450142D01*
X79511691Y-132444697D01*
X79511693Y-132444691D01*
X79516429Y-132435831D01*
X79516432Y-132435827D01*
X79519340Y-132430386D01*
X79566971Y-132359101D01*
X79581172Y-132341796D01*
X79641796Y-132281172D01*
X79659101Y-132266971D01*
X79730386Y-132219340D01*
X79735827Y-132216432D01*
X79735831Y-132216429D01*
X79744691Y-132211693D01*
X79744697Y-132211691D01*
X79750142Y-132208780D01*
X79829340Y-132175976D01*
X79850767Y-132169476D01*
X79934851Y-132152750D01*
X79957131Y-132150556D01*
X79975550Y-132150556D01*
X79987801Y-132149954D01*
X80006139Y-132148148D01*
X80493861Y-132148148D01*
X80512199Y-132149954D01*
G37*
G36*
X67262199Y-132149954D02*
G01*
X67274450Y-132150556D01*
X67292869Y-132150556D01*
X67315149Y-132152750D01*
X67399233Y-132169476D01*
X67420660Y-132175976D01*
X67499858Y-132208780D01*
X67505303Y-132211691D01*
X67505309Y-132211693D01*
X67514169Y-132216429D01*
X67514173Y-132216432D01*
X67519614Y-132219340D01*
X67590899Y-132266971D01*
X67608204Y-132281172D01*
X67668828Y-132341796D01*
X67683029Y-132359101D01*
X67730660Y-132430386D01*
X67733568Y-132435827D01*
X67733571Y-132435831D01*
X67738307Y-132444691D01*
X67738309Y-132444697D01*
X67741220Y-132450142D01*
X67774024Y-132529340D01*
X67780524Y-132550767D01*
X67797250Y-132634851D01*
X67799444Y-132657131D01*
X67799444Y-132675550D01*
X67800046Y-132687801D01*
X67801852Y-132706139D01*
X67801852Y-133243860D01*
X67800263Y-133259999D01*
X67795855Y-133274528D01*
X67790394Y-133287711D01*
X67785612Y-133311745D01*
X67785611Y-133336249D01*
X67790391Y-133360282D01*
X67799768Y-133382921D01*
X67801000Y-133384765D01*
X67801000Y-134616050D01*
X67794525Y-134628164D01*
X67787412Y-134651613D01*
X67785010Y-134675999D01*
X67787412Y-134700385D01*
X67794525Y-134723834D01*
X67796848Y-134728746D01*
X67800263Y-134740001D01*
X67801852Y-134756140D01*
X67801852Y-135293862D01*
X67800046Y-135312199D01*
X67799444Y-135324450D01*
X67799444Y-135342869D01*
X67797250Y-135365149D01*
X67780524Y-135449233D01*
X67774024Y-135470660D01*
X67741220Y-135549858D01*
X67738309Y-135555303D01*
X67738307Y-135555309D01*
X67733571Y-135564169D01*
X67733568Y-135564173D01*
X67730660Y-135569614D01*
X67683029Y-135640899D01*
X67668828Y-135658204D01*
X67608204Y-135718828D01*
X67590899Y-135733029D01*
X67519614Y-135780660D01*
X67514173Y-135783568D01*
X67514169Y-135783571D01*
X67505309Y-135788307D01*
X67505303Y-135788309D01*
X67499858Y-135791220D01*
X67420660Y-135824024D01*
X67399233Y-135830524D01*
X67315149Y-135847250D01*
X67292869Y-135849444D01*
X67274450Y-135849444D01*
X67262199Y-135850046D01*
X67243862Y-135851852D01*
X66756138Y-135851852D01*
X66737801Y-135850046D01*
X66725550Y-135849444D01*
X66707131Y-135849444D01*
X66684851Y-135847250D01*
X66600767Y-135830524D01*
X66579340Y-135824024D01*
X66500142Y-135791220D01*
X66494697Y-135788309D01*
X66494691Y-135788307D01*
X66485831Y-135783571D01*
X66485827Y-135783568D01*
X66480386Y-135780660D01*
X66409101Y-135733029D01*
X66391796Y-135718828D01*
X66331172Y-135658204D01*
X66316971Y-135640899D01*
X66269340Y-135569614D01*
X66266432Y-135564173D01*
X66266429Y-135564169D01*
X66261693Y-135555309D01*
X66261691Y-135555303D01*
X66258780Y-135549858D01*
X66225976Y-135470660D01*
X66219476Y-135449233D01*
X66202750Y-135365149D01*
X66200556Y-135342869D01*
X66200556Y-135324450D01*
X66199954Y-135312199D01*
X66198148Y-135293862D01*
X66198148Y-134756140D01*
X66199737Y-134740001D01*
X66204145Y-134725472D01*
X66209606Y-134712289D01*
X66214388Y-134688255D01*
X66214389Y-134663751D01*
X66209609Y-134639718D01*
X66200232Y-134617079D01*
X66199000Y-134615235D01*
X66199000Y-133383950D01*
X66205475Y-133371836D01*
X66212588Y-133348387D01*
X66214990Y-133324001D01*
X66212588Y-133299615D01*
X66205475Y-133276166D01*
X66203152Y-133271254D01*
X66199737Y-133259999D01*
X66198148Y-133243860D01*
X66198148Y-132706139D01*
X66199954Y-132687801D01*
X66200556Y-132675550D01*
X66200556Y-132657131D01*
X66202750Y-132634851D01*
X66219476Y-132550767D01*
X66225976Y-132529340D01*
X66258780Y-132450142D01*
X66261691Y-132444697D01*
X66261693Y-132444691D01*
X66266429Y-132435831D01*
X66266432Y-132435827D01*
X66269340Y-132430386D01*
X66316971Y-132359101D01*
X66331172Y-132341796D01*
X66391796Y-132281172D01*
X66409101Y-132266971D01*
X66480386Y-132219340D01*
X66485827Y-132216432D01*
X66485831Y-132216429D01*
X66494691Y-132211693D01*
X66494697Y-132211691D01*
X66500142Y-132208780D01*
X66579340Y-132175976D01*
X66600767Y-132169476D01*
X66684851Y-132152750D01*
X66707131Y-132150556D01*
X66725550Y-132150556D01*
X66737801Y-132149954D01*
X66756139Y-132148148D01*
X67243861Y-132148148D01*
X67262199Y-132149954D01*
G37*
G36*
X63012199Y-132149954D02*
G01*
X63024450Y-132150556D01*
X63042869Y-132150556D01*
X63065149Y-132152750D01*
X63149233Y-132169476D01*
X63170660Y-132175976D01*
X63249858Y-132208780D01*
X63255303Y-132211691D01*
X63255309Y-132211693D01*
X63264169Y-132216429D01*
X63264173Y-132216432D01*
X63269614Y-132219340D01*
X63340899Y-132266971D01*
X63358204Y-132281172D01*
X63418828Y-132341796D01*
X63433029Y-132359101D01*
X63480660Y-132430386D01*
X63483568Y-132435827D01*
X63483571Y-132435831D01*
X63488307Y-132444691D01*
X63488309Y-132444697D01*
X63491220Y-132450142D01*
X63524024Y-132529340D01*
X63530524Y-132550767D01*
X63547250Y-132634851D01*
X63549444Y-132657131D01*
X63549444Y-132675550D01*
X63550046Y-132687801D01*
X63551852Y-132706139D01*
X63551852Y-133243860D01*
X63550263Y-133259999D01*
X63545855Y-133274528D01*
X63540394Y-133287711D01*
X63535612Y-133311745D01*
X63535611Y-133336249D01*
X63540391Y-133360282D01*
X63549768Y-133382921D01*
X63551000Y-133384765D01*
X63551000Y-134616050D01*
X63544525Y-134628164D01*
X63537412Y-134651613D01*
X63535010Y-134675999D01*
X63537412Y-134700385D01*
X63544525Y-134723834D01*
X63546848Y-134728746D01*
X63550263Y-134740001D01*
X63551852Y-134756140D01*
X63551852Y-135293862D01*
X63550046Y-135312199D01*
X63549444Y-135324450D01*
X63549444Y-135342869D01*
X63547250Y-135365149D01*
X63530524Y-135449233D01*
X63524024Y-135470660D01*
X63491220Y-135549858D01*
X63488309Y-135555303D01*
X63488307Y-135555309D01*
X63483571Y-135564169D01*
X63483568Y-135564173D01*
X63480660Y-135569614D01*
X63433029Y-135640899D01*
X63418828Y-135658204D01*
X63358204Y-135718828D01*
X63340899Y-135733029D01*
X63269614Y-135780660D01*
X63264173Y-135783568D01*
X63264169Y-135783571D01*
X63255309Y-135788307D01*
X63255303Y-135788309D01*
X63249858Y-135791220D01*
X63170660Y-135824024D01*
X63149233Y-135830524D01*
X63065149Y-135847250D01*
X63042869Y-135849444D01*
X63024450Y-135849444D01*
X63012199Y-135850046D01*
X62993862Y-135851852D01*
X62506138Y-135851852D01*
X62487801Y-135850046D01*
X62475550Y-135849444D01*
X62457131Y-135849444D01*
X62434851Y-135847250D01*
X62350767Y-135830524D01*
X62329340Y-135824024D01*
X62250142Y-135791220D01*
X62244697Y-135788309D01*
X62244691Y-135788307D01*
X62235831Y-135783571D01*
X62235827Y-135783568D01*
X62230386Y-135780660D01*
X62159101Y-135733029D01*
X62141796Y-135718828D01*
X62081172Y-135658204D01*
X62066971Y-135640899D01*
X62019340Y-135569614D01*
X62016432Y-135564173D01*
X62016429Y-135564169D01*
X62011693Y-135555309D01*
X62011691Y-135555303D01*
X62008780Y-135549858D01*
X61975976Y-135470660D01*
X61969476Y-135449233D01*
X61952750Y-135365149D01*
X61950556Y-135342869D01*
X61950556Y-135324450D01*
X61949954Y-135312199D01*
X61948148Y-135293862D01*
X61948148Y-134756140D01*
X61949737Y-134740001D01*
X61954145Y-134725472D01*
X61959606Y-134712289D01*
X61964388Y-134688255D01*
X61964389Y-134663751D01*
X61959609Y-134639718D01*
X61950232Y-134617079D01*
X61949000Y-134615235D01*
X61949000Y-133383950D01*
X61955475Y-133371836D01*
X61962588Y-133348387D01*
X61964990Y-133324001D01*
X61962588Y-133299615D01*
X61955475Y-133276166D01*
X61953152Y-133271254D01*
X61949737Y-133259999D01*
X61948148Y-133243860D01*
X61948148Y-132706139D01*
X61949954Y-132687801D01*
X61950556Y-132675550D01*
X61950556Y-132657131D01*
X61952750Y-132634851D01*
X61969476Y-132550767D01*
X61975976Y-132529340D01*
X62008780Y-132450142D01*
X62011691Y-132444697D01*
X62011693Y-132444691D01*
X62016429Y-132435831D01*
X62016432Y-132435827D01*
X62019340Y-132430386D01*
X62066971Y-132359101D01*
X62081172Y-132341796D01*
X62141796Y-132281172D01*
X62159101Y-132266971D01*
X62230386Y-132219340D01*
X62235827Y-132216432D01*
X62235831Y-132216429D01*
X62244691Y-132211693D01*
X62244697Y-132211691D01*
X62250142Y-132208780D01*
X62329340Y-132175976D01*
X62350767Y-132169476D01*
X62434851Y-132152750D01*
X62457131Y-132150556D01*
X62475550Y-132150556D01*
X62487801Y-132149954D01*
X62506139Y-132148148D01*
X62993861Y-132148148D01*
X63012199Y-132149954D01*
G37*
G36*
X59512199Y-132149954D02*
G01*
X59524450Y-132150556D01*
X59542869Y-132150556D01*
X59565149Y-132152750D01*
X59649233Y-132169476D01*
X59670660Y-132175976D01*
X59749858Y-132208780D01*
X59755303Y-132211691D01*
X59755309Y-132211693D01*
X59764169Y-132216429D01*
X59764173Y-132216432D01*
X59769614Y-132219340D01*
X59840899Y-132266971D01*
X59858204Y-132281172D01*
X59918828Y-132341796D01*
X59933029Y-132359101D01*
X59980660Y-132430386D01*
X59983568Y-132435827D01*
X59983571Y-132435831D01*
X59988307Y-132444691D01*
X59988309Y-132444697D01*
X59991220Y-132450142D01*
X60024024Y-132529340D01*
X60030524Y-132550767D01*
X60047250Y-132634851D01*
X60049444Y-132657131D01*
X60049444Y-132675550D01*
X60050046Y-132687801D01*
X60051852Y-132706139D01*
X60051852Y-133243860D01*
X60050263Y-133259999D01*
X60045855Y-133274528D01*
X60040394Y-133287711D01*
X60035612Y-133311745D01*
X60035611Y-133336249D01*
X60040391Y-133360282D01*
X60049768Y-133382921D01*
X60051000Y-133384765D01*
X60051000Y-134616050D01*
X60044525Y-134628164D01*
X60037412Y-134651613D01*
X60035010Y-134675999D01*
X60037412Y-134700385D01*
X60044525Y-134723834D01*
X60046848Y-134728746D01*
X60050263Y-134740001D01*
X60051852Y-134756140D01*
X60051852Y-135293862D01*
X60050046Y-135312199D01*
X60049444Y-135324450D01*
X60049444Y-135342869D01*
X60047250Y-135365149D01*
X60030524Y-135449233D01*
X60024024Y-135470660D01*
X59991220Y-135549858D01*
X59988309Y-135555303D01*
X59988307Y-135555309D01*
X59983571Y-135564169D01*
X59983568Y-135564173D01*
X59980660Y-135569614D01*
X59933029Y-135640899D01*
X59918828Y-135658204D01*
X59858204Y-135718828D01*
X59840899Y-135733029D01*
X59769614Y-135780660D01*
X59764173Y-135783568D01*
X59764169Y-135783571D01*
X59755309Y-135788307D01*
X59755303Y-135788309D01*
X59749858Y-135791220D01*
X59670660Y-135824024D01*
X59649233Y-135830524D01*
X59565149Y-135847250D01*
X59542869Y-135849444D01*
X59524450Y-135849444D01*
X59512199Y-135850046D01*
X59493862Y-135851852D01*
X59006138Y-135851852D01*
X58987801Y-135850046D01*
X58975550Y-135849444D01*
X58957131Y-135849444D01*
X58934851Y-135847250D01*
X58850767Y-135830524D01*
X58829340Y-135824024D01*
X58750142Y-135791220D01*
X58744697Y-135788309D01*
X58744691Y-135788307D01*
X58735831Y-135783571D01*
X58735827Y-135783568D01*
X58730386Y-135780660D01*
X58659101Y-135733029D01*
X58641796Y-135718828D01*
X58581172Y-135658204D01*
X58566971Y-135640899D01*
X58519340Y-135569614D01*
X58516432Y-135564173D01*
X58516429Y-135564169D01*
X58511693Y-135555309D01*
X58511691Y-135555303D01*
X58508780Y-135549858D01*
X58475976Y-135470660D01*
X58469476Y-135449233D01*
X58452750Y-135365149D01*
X58450556Y-135342869D01*
X58450556Y-135324450D01*
X58449954Y-135312199D01*
X58448148Y-135293862D01*
X58448148Y-134756140D01*
X58449737Y-134740001D01*
X58454145Y-134725472D01*
X58459606Y-134712289D01*
X58464388Y-134688255D01*
X58464389Y-134663751D01*
X58459609Y-134639718D01*
X58450232Y-134617079D01*
X58449000Y-134615235D01*
X58449000Y-133383950D01*
X58455475Y-133371836D01*
X58462588Y-133348387D01*
X58464990Y-133324001D01*
X58462588Y-133299615D01*
X58455475Y-133276166D01*
X58453152Y-133271254D01*
X58449737Y-133259999D01*
X58448148Y-133243860D01*
X58448148Y-132706139D01*
X58449954Y-132687801D01*
X58450556Y-132675550D01*
X58450556Y-132657131D01*
X58452750Y-132634851D01*
X58469476Y-132550767D01*
X58475976Y-132529340D01*
X58508780Y-132450142D01*
X58511691Y-132444697D01*
X58511693Y-132444691D01*
X58516429Y-132435831D01*
X58516432Y-132435827D01*
X58519340Y-132430386D01*
X58566971Y-132359101D01*
X58581172Y-132341796D01*
X58641796Y-132281172D01*
X58659101Y-132266971D01*
X58730386Y-132219340D01*
X58735827Y-132216432D01*
X58735831Y-132216429D01*
X58744691Y-132211693D01*
X58744697Y-132211691D01*
X58750142Y-132208780D01*
X58829340Y-132175976D01*
X58850767Y-132169476D01*
X58934851Y-132152750D01*
X58957131Y-132150556D01*
X58975550Y-132150556D01*
X58987801Y-132149954D01*
X59006139Y-132148148D01*
X59493861Y-132148148D01*
X59512199Y-132149954D01*
G37*
G36*
X75762199Y-132149954D02*
G01*
X75774450Y-132150556D01*
X75792869Y-132150556D01*
X75815149Y-132152750D01*
X75899233Y-132169476D01*
X75920660Y-132175976D01*
X75999858Y-132208780D01*
X76005303Y-132211691D01*
X76005309Y-132211693D01*
X76014169Y-132216429D01*
X76014173Y-132216432D01*
X76019614Y-132219340D01*
X76090899Y-132266971D01*
X76108204Y-132281172D01*
X76168828Y-132341796D01*
X76183029Y-132359101D01*
X76230660Y-132430386D01*
X76233568Y-132435827D01*
X76233571Y-132435831D01*
X76238307Y-132444691D01*
X76238309Y-132444697D01*
X76241220Y-132450142D01*
X76274024Y-132529340D01*
X76280524Y-132550767D01*
X76297250Y-132634851D01*
X76299444Y-132657131D01*
X76299444Y-132675550D01*
X76300046Y-132687801D01*
X76301852Y-132706139D01*
X76301852Y-133243860D01*
X76300263Y-133259999D01*
X76295855Y-133274528D01*
X76290394Y-133287711D01*
X76285612Y-133311745D01*
X76285611Y-133336249D01*
X76290391Y-133360282D01*
X76299768Y-133382921D01*
X76301000Y-133384765D01*
X76301000Y-134616050D01*
X76294525Y-134628164D01*
X76287412Y-134651613D01*
X76285010Y-134675999D01*
X76287412Y-134700385D01*
X76294525Y-134723834D01*
X76296848Y-134728746D01*
X76300263Y-134740001D01*
X76301852Y-134756140D01*
X76301852Y-135293862D01*
X76300046Y-135312199D01*
X76299444Y-135324450D01*
X76299444Y-135342869D01*
X76297250Y-135365149D01*
X76280524Y-135449233D01*
X76274024Y-135470660D01*
X76241220Y-135549858D01*
X76238309Y-135555303D01*
X76238307Y-135555309D01*
X76233571Y-135564169D01*
X76233568Y-135564173D01*
X76230660Y-135569614D01*
X76183029Y-135640899D01*
X76168828Y-135658204D01*
X76108204Y-135718828D01*
X76090899Y-135733029D01*
X76019614Y-135780660D01*
X76014173Y-135783568D01*
X76014169Y-135783571D01*
X76005309Y-135788307D01*
X76005303Y-135788309D01*
X75999858Y-135791220D01*
X75920660Y-135824024D01*
X75899233Y-135830524D01*
X75815149Y-135847250D01*
X75792869Y-135849444D01*
X75774450Y-135849444D01*
X75762199Y-135850046D01*
X75743862Y-135851852D01*
X75256138Y-135851852D01*
X75237801Y-135850046D01*
X75225550Y-135849444D01*
X75207131Y-135849444D01*
X75184851Y-135847250D01*
X75100767Y-135830524D01*
X75079340Y-135824024D01*
X75000142Y-135791220D01*
X74994697Y-135788309D01*
X74994691Y-135788307D01*
X74985831Y-135783571D01*
X74985827Y-135783568D01*
X74980386Y-135780660D01*
X74909101Y-135733029D01*
X74891796Y-135718828D01*
X74831172Y-135658204D01*
X74816971Y-135640899D01*
X74769340Y-135569614D01*
X74766432Y-135564173D01*
X74766429Y-135564169D01*
X74761693Y-135555309D01*
X74761691Y-135555303D01*
X74758780Y-135549858D01*
X74725976Y-135470660D01*
X74719476Y-135449233D01*
X74702750Y-135365149D01*
X74700556Y-135342869D01*
X74700556Y-135324450D01*
X74699954Y-135312199D01*
X74698148Y-135293862D01*
X74698148Y-134756140D01*
X74699737Y-134740001D01*
X74704145Y-134725472D01*
X74709606Y-134712289D01*
X74714388Y-134688255D01*
X74714389Y-134663751D01*
X74709609Y-134639718D01*
X74700232Y-134617079D01*
X74699000Y-134615235D01*
X74699000Y-133383950D01*
X74705475Y-133371836D01*
X74712588Y-133348387D01*
X74714990Y-133324001D01*
X74712588Y-133299615D01*
X74705475Y-133276166D01*
X74703152Y-133271254D01*
X74699737Y-133259999D01*
X74698148Y-133243860D01*
X74698148Y-132706139D01*
X74699954Y-132687801D01*
X74700556Y-132675550D01*
X74700556Y-132657131D01*
X74702750Y-132634851D01*
X74719476Y-132550767D01*
X74725976Y-132529340D01*
X74758780Y-132450142D01*
X74761691Y-132444697D01*
X74761693Y-132444691D01*
X74766429Y-132435831D01*
X74766432Y-132435827D01*
X74769340Y-132430386D01*
X74816971Y-132359101D01*
X74831172Y-132341796D01*
X74891796Y-132281172D01*
X74909101Y-132266971D01*
X74980386Y-132219340D01*
X74985827Y-132216432D01*
X74985831Y-132216429D01*
X74994691Y-132211693D01*
X74994697Y-132211691D01*
X75000142Y-132208780D01*
X75079340Y-132175976D01*
X75100767Y-132169476D01*
X75184851Y-132152750D01*
X75207131Y-132150556D01*
X75225550Y-132150556D01*
X75237801Y-132149954D01*
X75256139Y-132148148D01*
X75743861Y-132148148D01*
X75762199Y-132149954D01*
G37*
G36*
X90801000Y-134801000D02*
G01*
X88699000Y-134801000D01*
X88699000Y-133399000D01*
X90801000Y-133399000D01*
X90801000Y-134801000D01*
G37*
M02*
