G04 #@! TF.GenerationSoftware,KiCad,Pcbnew,(5.1.5)-3*
G04 #@! TF.CreationDate,2020-04-24T21:16:10+02:00*
G04 #@! TF.ProjectId,ICHaus,49434861-7573-42e6-9b69-6361645f7063,rev?*
G04 #@! TF.SameCoordinates,PX1312d00PYa6e49c0*
G04 #@! TF.FileFunction,Soldermask,Bot*
G04 #@! TF.FilePolarity,Negative*
%FSLAX46Y46*%
G04 Gerber Fmt 4.6, Leading zero omitted, Abs format (unit mm)*
G04 Created by KiCad (PCBNEW (5.1.5)-3) date 2020-04-24 21:16:10*
%MOMM*%
%LPD*%
G04 APERTURE LIST*
%ADD10C,0.100000*%
G04 APERTURE END LIST*
D10*
G36*
X68577593Y8289109D02*
G01*
X68687789Y8255681D01*
X68789338Y8201402D01*
X68878351Y8128351D01*
X68951402Y8039338D01*
X69005681Y7937789D01*
X69039109Y7827593D01*
X69051000Y7706860D01*
X69051000Y6293140D01*
X69039109Y6172407D01*
X69005681Y6062211D01*
X68951402Y5960662D01*
X68878351Y5871649D01*
X68789338Y5798598D01*
X68687789Y5744319D01*
X68577593Y5710891D01*
X68456860Y5699000D01*
X67043140Y5699000D01*
X66922407Y5710891D01*
X66812211Y5744319D01*
X66710662Y5798598D01*
X66621649Y5871649D01*
X66548598Y5960662D01*
X66494319Y6062211D01*
X66460891Y6172407D01*
X66449000Y6293140D01*
X66449000Y7706860D01*
X66460891Y7827593D01*
X66494319Y7937789D01*
X66548598Y8039338D01*
X66621649Y8128351D01*
X66710662Y8201402D01*
X66812211Y8255681D01*
X66922407Y8289109D01*
X67043140Y8301000D01*
X68456860Y8301000D01*
X68577593Y8289109D01*
G37*
G36*
X65077593Y8289109D02*
G01*
X65187789Y8255681D01*
X65289338Y8201402D01*
X65378351Y8128351D01*
X65451402Y8039338D01*
X65505681Y7937789D01*
X65539109Y7827593D01*
X65551000Y7706860D01*
X65551000Y6293140D01*
X65539109Y6172407D01*
X65505681Y6062211D01*
X65451402Y5960662D01*
X65378351Y5871649D01*
X65289338Y5798598D01*
X65187789Y5744319D01*
X65077593Y5710891D01*
X64956860Y5699000D01*
X63543140Y5699000D01*
X63422407Y5710891D01*
X63312211Y5744319D01*
X63210662Y5798598D01*
X63121649Y5871649D01*
X63048598Y5960662D01*
X62994319Y6062211D01*
X62960891Y6172407D01*
X62949000Y6293140D01*
X62949000Y7706860D01*
X62960891Y7827593D01*
X62994319Y7937789D01*
X63048598Y8039338D01*
X63121649Y8128351D01*
X63210662Y8201402D01*
X63312211Y8255681D01*
X63422407Y8289109D01*
X63543140Y8301000D01*
X64956860Y8301000D01*
X65077593Y8289109D01*
G37*
G36*
X60077593Y8289109D02*
G01*
X60187789Y8255681D01*
X60289338Y8201402D01*
X60378351Y8128351D01*
X60451402Y8039338D01*
X60505681Y7937789D01*
X60539109Y7827593D01*
X60551000Y7706860D01*
X60551000Y6293140D01*
X60539109Y6172407D01*
X60505681Y6062211D01*
X60451402Y5960662D01*
X60378351Y5871649D01*
X60289338Y5798598D01*
X60187789Y5744319D01*
X60077593Y5710891D01*
X59956860Y5699000D01*
X58543140Y5699000D01*
X58422407Y5710891D01*
X58312211Y5744319D01*
X58210662Y5798598D01*
X58121649Y5871649D01*
X58048598Y5960662D01*
X57994319Y6062211D01*
X57960891Y6172407D01*
X57949000Y6293140D01*
X57949000Y7706860D01*
X57960891Y7827593D01*
X57994319Y7937789D01*
X58048598Y8039338D01*
X58121649Y8128351D01*
X58210662Y8201402D01*
X58312211Y8255681D01*
X58422407Y8289109D01*
X58543140Y8301000D01*
X59956860Y8301000D01*
X60077593Y8289109D01*
G37*
G36*
X56577593Y8289109D02*
G01*
X56687789Y8255681D01*
X56789338Y8201402D01*
X56878351Y8128351D01*
X56951402Y8039338D01*
X57005681Y7937789D01*
X57039109Y7827593D01*
X57051000Y7706860D01*
X57051000Y6293140D01*
X57039109Y6172407D01*
X57005681Y6062211D01*
X56951402Y5960662D01*
X56878351Y5871649D01*
X56789338Y5798598D01*
X56687789Y5744319D01*
X56577593Y5710891D01*
X56456860Y5699000D01*
X55043140Y5699000D01*
X54922407Y5710891D01*
X54812211Y5744319D01*
X54710662Y5798598D01*
X54621649Y5871649D01*
X54548598Y5960662D01*
X54494319Y6062211D01*
X54460891Y6172407D01*
X54449000Y6293140D01*
X54449000Y7706860D01*
X54460891Y7827593D01*
X54494319Y7937789D01*
X54548598Y8039338D01*
X54621649Y8128351D01*
X54710662Y8201402D01*
X54812211Y8255681D01*
X54922407Y8289109D01*
X55043140Y8301000D01*
X56456860Y8301000D01*
X56577593Y8289109D01*
G37*
G36*
X51577593Y8289109D02*
G01*
X51687789Y8255681D01*
X51789338Y8201402D01*
X51878351Y8128351D01*
X51951402Y8039338D01*
X52005681Y7937789D01*
X52039109Y7827593D01*
X52051000Y7706860D01*
X52051000Y6293140D01*
X52039109Y6172407D01*
X52005681Y6062211D01*
X51951402Y5960662D01*
X51878351Y5871649D01*
X51789338Y5798598D01*
X51687789Y5744319D01*
X51577593Y5710891D01*
X51456860Y5699000D01*
X50043140Y5699000D01*
X49922407Y5710891D01*
X49812211Y5744319D01*
X49710662Y5798598D01*
X49621649Y5871649D01*
X49548598Y5960662D01*
X49494319Y6062211D01*
X49460891Y6172407D01*
X49449000Y6293140D01*
X49449000Y7706860D01*
X49460891Y7827593D01*
X49494319Y7937789D01*
X49548598Y8039338D01*
X49621649Y8128351D01*
X49710662Y8201402D01*
X49812211Y8255681D01*
X49922407Y8289109D01*
X50043140Y8301000D01*
X51456860Y8301000D01*
X51577593Y8289109D01*
G37*
G36*
X48077593Y8289109D02*
G01*
X48187789Y8255681D01*
X48289338Y8201402D01*
X48378351Y8128351D01*
X48451402Y8039338D01*
X48505681Y7937789D01*
X48539109Y7827593D01*
X48551000Y7706860D01*
X48551000Y6293140D01*
X48539109Y6172407D01*
X48505681Y6062211D01*
X48451402Y5960662D01*
X48378351Y5871649D01*
X48289338Y5798598D01*
X48187789Y5744319D01*
X48077593Y5710891D01*
X47956860Y5699000D01*
X46543140Y5699000D01*
X46422407Y5710891D01*
X46312211Y5744319D01*
X46210662Y5798598D01*
X46121649Y5871649D01*
X46048598Y5960662D01*
X45994319Y6062211D01*
X45960891Y6172407D01*
X45949000Y6293140D01*
X45949000Y7706860D01*
X45960891Y7827593D01*
X45994319Y7937789D01*
X46048598Y8039338D01*
X46121649Y8128351D01*
X46210662Y8201402D01*
X46312211Y8255681D01*
X46422407Y8289109D01*
X46543140Y8301000D01*
X47956860Y8301000D01*
X48077593Y8289109D01*
G37*
G36*
X38577593Y8289109D02*
G01*
X38687789Y8255681D01*
X38789338Y8201402D01*
X38878351Y8128351D01*
X38951402Y8039338D01*
X39005681Y7937789D01*
X39039109Y7827593D01*
X39051000Y7706860D01*
X39051000Y6293140D01*
X39039109Y6172407D01*
X39005681Y6062211D01*
X38951402Y5960662D01*
X38878351Y5871649D01*
X38789338Y5798598D01*
X38687789Y5744319D01*
X38577593Y5710891D01*
X38456860Y5699000D01*
X37043140Y5699000D01*
X36922407Y5710891D01*
X36812211Y5744319D01*
X36710662Y5798598D01*
X36621649Y5871649D01*
X36548598Y5960662D01*
X36494319Y6062211D01*
X36460891Y6172407D01*
X36449000Y6293140D01*
X36449000Y7706860D01*
X36460891Y7827593D01*
X36494319Y7937789D01*
X36548598Y8039338D01*
X36621649Y8128351D01*
X36710662Y8201402D01*
X36812211Y8255681D01*
X36922407Y8289109D01*
X37043140Y8301000D01*
X38456860Y8301000D01*
X38577593Y8289109D01*
G37*
G36*
X35077593Y8289109D02*
G01*
X35187789Y8255681D01*
X35289338Y8201402D01*
X35378351Y8128351D01*
X35451402Y8039338D01*
X35505681Y7937789D01*
X35539109Y7827593D01*
X35551000Y7706860D01*
X35551000Y6293140D01*
X35539109Y6172407D01*
X35505681Y6062211D01*
X35451402Y5960662D01*
X35378351Y5871649D01*
X35289338Y5798598D01*
X35187789Y5744319D01*
X35077593Y5710891D01*
X34956860Y5699000D01*
X33543140Y5699000D01*
X33422407Y5710891D01*
X33312211Y5744319D01*
X33210662Y5798598D01*
X33121649Y5871649D01*
X33048598Y5960662D01*
X32994319Y6062211D01*
X32960891Y6172407D01*
X32949000Y6293140D01*
X32949000Y7706860D01*
X32960891Y7827593D01*
X32994319Y7937789D01*
X33048598Y8039338D01*
X33121649Y8128351D01*
X33210662Y8201402D01*
X33312211Y8255681D01*
X33422407Y8289109D01*
X33543140Y8301000D01*
X34956860Y8301000D01*
X35077593Y8289109D01*
G37*
G36*
X30077593Y8289109D02*
G01*
X30187789Y8255681D01*
X30289338Y8201402D01*
X30378351Y8128351D01*
X30451402Y8039338D01*
X30505681Y7937789D01*
X30539109Y7827593D01*
X30551000Y7706860D01*
X30551000Y6293140D01*
X30539109Y6172407D01*
X30505681Y6062211D01*
X30451402Y5960662D01*
X30378351Y5871649D01*
X30289338Y5798598D01*
X30187789Y5744319D01*
X30077593Y5710891D01*
X29956860Y5699000D01*
X28543140Y5699000D01*
X28422407Y5710891D01*
X28312211Y5744319D01*
X28210662Y5798598D01*
X28121649Y5871649D01*
X28048598Y5960662D01*
X27994319Y6062211D01*
X27960891Y6172407D01*
X27949000Y6293140D01*
X27949000Y7706860D01*
X27960891Y7827593D01*
X27994319Y7937789D01*
X28048598Y8039338D01*
X28121649Y8128351D01*
X28210662Y8201402D01*
X28312211Y8255681D01*
X28422407Y8289109D01*
X28543140Y8301000D01*
X29956860Y8301000D01*
X30077593Y8289109D01*
G37*
G36*
X26577593Y8289109D02*
G01*
X26687789Y8255681D01*
X26789338Y8201402D01*
X26878351Y8128351D01*
X26951402Y8039338D01*
X27005681Y7937789D01*
X27039109Y7827593D01*
X27051000Y7706860D01*
X27051000Y6293140D01*
X27039109Y6172407D01*
X27005681Y6062211D01*
X26951402Y5960662D01*
X26878351Y5871649D01*
X26789338Y5798598D01*
X26687789Y5744319D01*
X26577593Y5710891D01*
X26456860Y5699000D01*
X25043140Y5699000D01*
X24922407Y5710891D01*
X24812211Y5744319D01*
X24710662Y5798598D01*
X24621649Y5871649D01*
X24548598Y5960662D01*
X24494319Y6062211D01*
X24460891Y6172407D01*
X24449000Y6293140D01*
X24449000Y7706860D01*
X24460891Y7827593D01*
X24494319Y7937789D01*
X24548598Y8039338D01*
X24621649Y8128351D01*
X24710662Y8201402D01*
X24812211Y8255681D01*
X24922407Y8289109D01*
X25043140Y8301000D01*
X26456860Y8301000D01*
X26577593Y8289109D01*
G37*
G36*
X21577593Y8289109D02*
G01*
X21687789Y8255681D01*
X21789338Y8201402D01*
X21878351Y8128351D01*
X21951402Y8039338D01*
X22005681Y7937789D01*
X22039109Y7827593D01*
X22051000Y7706860D01*
X22051000Y6293140D01*
X22039109Y6172407D01*
X22005681Y6062211D01*
X21951402Y5960662D01*
X21878351Y5871649D01*
X21789338Y5798598D01*
X21687789Y5744319D01*
X21577593Y5710891D01*
X21456860Y5699000D01*
X20043140Y5699000D01*
X19922407Y5710891D01*
X19812211Y5744319D01*
X19710662Y5798598D01*
X19621649Y5871649D01*
X19548598Y5960662D01*
X19494319Y6062211D01*
X19460891Y6172407D01*
X19449000Y6293140D01*
X19449000Y7706860D01*
X19460891Y7827593D01*
X19494319Y7937789D01*
X19548598Y8039338D01*
X19621649Y8128351D01*
X19710662Y8201402D01*
X19812211Y8255681D01*
X19922407Y8289109D01*
X20043140Y8301000D01*
X21456860Y8301000D01*
X21577593Y8289109D01*
G37*
G36*
X18077593Y8289109D02*
G01*
X18187789Y8255681D01*
X18289338Y8201402D01*
X18378351Y8128351D01*
X18451402Y8039338D01*
X18505681Y7937789D01*
X18539109Y7827593D01*
X18551000Y7706860D01*
X18551000Y6293140D01*
X18539109Y6172407D01*
X18505681Y6062211D01*
X18451402Y5960662D01*
X18378351Y5871649D01*
X18289338Y5798598D01*
X18187789Y5744319D01*
X18077593Y5710891D01*
X17956860Y5699000D01*
X16543140Y5699000D01*
X16422407Y5710891D01*
X16312211Y5744319D01*
X16210662Y5798598D01*
X16121649Y5871649D01*
X16048598Y5960662D01*
X15994319Y6062211D01*
X15960891Y6172407D01*
X15949000Y6293140D01*
X15949000Y7706860D01*
X15960891Y7827593D01*
X15994319Y7937789D01*
X16048598Y8039338D01*
X16121649Y8128351D01*
X16210662Y8201402D01*
X16312211Y8255681D01*
X16422407Y8289109D01*
X16543140Y8301000D01*
X17956860Y8301000D01*
X18077593Y8289109D01*
G37*
G36*
X5438953Y14206767D02*
G01*
X5656301Y14163534D01*
X6065775Y13993924D01*
X6434292Y13747689D01*
X6747689Y13434292D01*
X6993924Y13065775D01*
X6993925Y13065773D01*
X7163534Y12656300D01*
X7250000Y12221607D01*
X7250000Y11778393D01*
X7207175Y11563100D01*
X7163534Y11343699D01*
X6993924Y10934225D01*
X6747689Y10565708D01*
X6434292Y10252311D01*
X6065775Y10006076D01*
X5656301Y9836466D01*
X5221607Y9750000D01*
X4778393Y9750000D01*
X4343699Y9836466D01*
X3934225Y10006076D01*
X3565708Y10252311D01*
X3252311Y10565708D01*
X3006076Y10934225D01*
X2836466Y11343699D01*
X2792825Y11563100D01*
X2750000Y11778393D01*
X2750000Y12221607D01*
X2836466Y12656300D01*
X3006075Y13065773D01*
X3006076Y13065775D01*
X3252311Y13434292D01*
X3565708Y13747689D01*
X3934225Y13993924D01*
X4343699Y14163534D01*
X4561047Y14206767D01*
X4778393Y14250000D01*
X5221607Y14250000D01*
X5438953Y14206767D01*
G37*
G36*
X80438953Y14206767D02*
G01*
X80656301Y14163534D01*
X81065775Y13993924D01*
X81434292Y13747689D01*
X81747689Y13434292D01*
X81993924Y13065775D01*
X81993925Y13065773D01*
X82163534Y12656300D01*
X82250000Y12221607D01*
X82250000Y11778393D01*
X82207175Y11563100D01*
X82163534Y11343699D01*
X81993924Y10934225D01*
X81747689Y10565708D01*
X81434292Y10252311D01*
X81065775Y10006076D01*
X80656301Y9836466D01*
X80221607Y9750000D01*
X79778393Y9750000D01*
X79343699Y9836466D01*
X78934225Y10006076D01*
X78565708Y10252311D01*
X78252311Y10565708D01*
X78006076Y10934225D01*
X77836466Y11343699D01*
X77792825Y11563100D01*
X77750000Y11778393D01*
X77750000Y12221607D01*
X77836466Y12656300D01*
X78006075Y13065773D01*
X78006076Y13065775D01*
X78252311Y13434292D01*
X78565708Y13747689D01*
X78934225Y13993924D01*
X79343699Y14163534D01*
X79561047Y14206767D01*
X79778393Y14250000D01*
X80221607Y14250000D01*
X80438953Y14206767D01*
G37*
G36*
X62593228Y11978297D02*
G01*
X62748100Y11914147D01*
X62887481Y11821015D01*
X63006015Y11702481D01*
X63099147Y11563100D01*
X63163297Y11408228D01*
X63196000Y11243816D01*
X63196000Y11076184D01*
X63163297Y10911772D01*
X63099147Y10756900D01*
X63006015Y10617519D01*
X62887481Y10498985D01*
X62748100Y10405853D01*
X62593228Y10341703D01*
X62428816Y10309000D01*
X62261184Y10309000D01*
X62096772Y10341703D01*
X61941900Y10405853D01*
X61802519Y10498985D01*
X61683985Y10617519D01*
X61590853Y10756900D01*
X61526703Y10911772D01*
X61494000Y11076184D01*
X61494000Y11243816D01*
X61526703Y11408228D01*
X61590853Y11563100D01*
X61683985Y11702481D01*
X61802519Y11821015D01*
X61941900Y11914147D01*
X62096772Y11978297D01*
X62261184Y12011000D01*
X62428816Y12011000D01*
X62593228Y11978297D01*
G37*
G36*
X28363228Y11978297D02*
G01*
X28518100Y11914147D01*
X28657481Y11821015D01*
X28776015Y11702481D01*
X28869147Y11563100D01*
X28933297Y11408228D01*
X28966000Y11243816D01*
X28966000Y11076184D01*
X28933297Y10911772D01*
X28869147Y10756900D01*
X28776015Y10617519D01*
X28657481Y10498985D01*
X28518100Y10405853D01*
X28363228Y10341703D01*
X28198816Y10309000D01*
X28031184Y10309000D01*
X27866772Y10341703D01*
X27711900Y10405853D01*
X27572519Y10498985D01*
X27453985Y10617519D01*
X27360853Y10756900D01*
X27296703Y10911772D01*
X27264000Y11076184D01*
X27264000Y11243816D01*
X27296703Y11408228D01*
X27360853Y11563100D01*
X27453985Y11702481D01*
X27572519Y11821015D01*
X27711900Y11914147D01*
X27866772Y11978297D01*
X28031184Y12011000D01*
X28198816Y12011000D01*
X28363228Y11978297D01*
G37*
G36*
X25593228Y11978297D02*
G01*
X25748100Y11914147D01*
X25887481Y11821015D01*
X26006015Y11702481D01*
X26099147Y11563100D01*
X26163297Y11408228D01*
X26196000Y11243816D01*
X26196000Y11076184D01*
X26163297Y10911772D01*
X26099147Y10756900D01*
X26006015Y10617519D01*
X25887481Y10498985D01*
X25748100Y10405853D01*
X25593228Y10341703D01*
X25428816Y10309000D01*
X25261184Y10309000D01*
X25096772Y10341703D01*
X24941900Y10405853D01*
X24802519Y10498985D01*
X24683985Y10617519D01*
X24590853Y10756900D01*
X24526703Y10911772D01*
X24494000Y11076184D01*
X24494000Y11243816D01*
X24526703Y11408228D01*
X24590853Y11563100D01*
X24683985Y11702481D01*
X24802519Y11821015D01*
X24941900Y11914147D01*
X25096772Y11978297D01*
X25261184Y12011000D01*
X25428816Y12011000D01*
X25593228Y11978297D01*
G37*
G36*
X57053228Y11978297D02*
G01*
X57208100Y11914147D01*
X57347481Y11821015D01*
X57466015Y11702481D01*
X57559147Y11563100D01*
X57623297Y11408228D01*
X57656000Y11243816D01*
X57656000Y11076184D01*
X57623297Y10911772D01*
X57559147Y10756900D01*
X57466015Y10617519D01*
X57347481Y10498985D01*
X57208100Y10405853D01*
X57053228Y10341703D01*
X56888816Y10309000D01*
X56721184Y10309000D01*
X56556772Y10341703D01*
X56401900Y10405853D01*
X56262519Y10498985D01*
X56143985Y10617519D01*
X56050853Y10756900D01*
X55986703Y10911772D01*
X55954000Y11076184D01*
X55954000Y11243816D01*
X55986703Y11408228D01*
X56050853Y11563100D01*
X56143985Y11702481D01*
X56262519Y11821015D01*
X56401900Y11914147D01*
X56556772Y11978297D01*
X56721184Y12011000D01*
X56888816Y12011000D01*
X57053228Y11978297D01*
G37*
G36*
X59823228Y11978297D02*
G01*
X59978100Y11914147D01*
X60117481Y11821015D01*
X60236015Y11702481D01*
X60329147Y11563100D01*
X60393297Y11408228D01*
X60426000Y11243816D01*
X60426000Y11076184D01*
X60393297Y10911772D01*
X60329147Y10756900D01*
X60236015Y10617519D01*
X60117481Y10498985D01*
X59978100Y10405853D01*
X59823228Y10341703D01*
X59658816Y10309000D01*
X59491184Y10309000D01*
X59326772Y10341703D01*
X59171900Y10405853D01*
X59032519Y10498985D01*
X58913985Y10617519D01*
X58820853Y10756900D01*
X58756703Y10911772D01*
X58724000Y11076184D01*
X58724000Y11243816D01*
X58756703Y11408228D01*
X58820853Y11563100D01*
X58913985Y11702481D01*
X59032519Y11821015D01*
X59171900Y11914147D01*
X59326772Y11978297D01*
X59491184Y12011000D01*
X59658816Y12011000D01*
X59823228Y11978297D01*
G37*
G36*
X22823228Y11978297D02*
G01*
X22978100Y11914147D01*
X23117481Y11821015D01*
X23236015Y11702481D01*
X23329147Y11563100D01*
X23393297Y11408228D01*
X23426000Y11243816D01*
X23426000Y11076184D01*
X23393297Y10911772D01*
X23329147Y10756900D01*
X23236015Y10617519D01*
X23117481Y10498985D01*
X22978100Y10405853D01*
X22823228Y10341703D01*
X22658816Y10309000D01*
X22491184Y10309000D01*
X22326772Y10341703D01*
X22171900Y10405853D01*
X22032519Y10498985D01*
X21913985Y10617519D01*
X21820853Y10756900D01*
X21756703Y10911772D01*
X21724000Y11076184D01*
X21724000Y11243816D01*
X21756703Y11408228D01*
X21820853Y11563100D01*
X21913985Y11702481D01*
X22032519Y11821015D01*
X22171900Y11914147D01*
X22326772Y11978297D01*
X22491184Y12011000D01*
X22658816Y12011000D01*
X22823228Y11978297D01*
G37*
G36*
X20053228Y11978297D02*
G01*
X20208100Y11914147D01*
X20347481Y11821015D01*
X20466015Y11702481D01*
X20559147Y11563100D01*
X20623297Y11408228D01*
X20656000Y11243816D01*
X20656000Y11076184D01*
X20623297Y10911772D01*
X20559147Y10756900D01*
X20466015Y10617519D01*
X20347481Y10498985D01*
X20208100Y10405853D01*
X20053228Y10341703D01*
X19888816Y10309000D01*
X19721184Y10309000D01*
X19556772Y10341703D01*
X19401900Y10405853D01*
X19262519Y10498985D01*
X19143985Y10617519D01*
X19050853Y10756900D01*
X18986703Y10911772D01*
X18954000Y11076184D01*
X18954000Y11243816D01*
X18986703Y11408228D01*
X19050853Y11563100D01*
X19143985Y11702481D01*
X19262519Y11821015D01*
X19401900Y11914147D01*
X19556772Y11978297D01*
X19721184Y12011000D01*
X19888816Y12011000D01*
X20053228Y11978297D01*
G37*
G36*
X65363228Y11978297D02*
G01*
X65518100Y11914147D01*
X65657481Y11821015D01*
X65776015Y11702481D01*
X65869147Y11563100D01*
X65933297Y11408228D01*
X65966000Y11243816D01*
X65966000Y11076184D01*
X65933297Y10911772D01*
X65869147Y10756900D01*
X65776015Y10617519D01*
X65657481Y10498985D01*
X65518100Y10405853D01*
X65363228Y10341703D01*
X65198816Y10309000D01*
X65031184Y10309000D01*
X64866772Y10341703D01*
X64711900Y10405853D01*
X64572519Y10498985D01*
X64453985Y10617519D01*
X64360853Y10756900D01*
X64296703Y10911772D01*
X64264000Y11076184D01*
X64264000Y11243816D01*
X64296703Y11408228D01*
X64360853Y11563100D01*
X64453985Y11702481D01*
X64572519Y11821015D01*
X64711900Y11914147D01*
X64866772Y11978297D01*
X65031184Y12011000D01*
X65198816Y12011000D01*
X65363228Y11978297D01*
G37*
G36*
X74058254Y14552182D02*
G01*
X74418170Y14403100D01*
X74431513Y14397573D01*
X74767436Y14173116D01*
X75053116Y13887436D01*
X75143765Y13751771D01*
X75277574Y13551511D01*
X75432182Y13178254D01*
X75511000Y12782007D01*
X75511000Y12377993D01*
X75432182Y11981746D01*
X75316506Y11702480D01*
X75277573Y11608487D01*
X75053116Y11272564D01*
X74767436Y10986884D01*
X74431513Y10762427D01*
X74431512Y10762426D01*
X74431511Y10762426D01*
X74058254Y10607818D01*
X73662007Y10529000D01*
X73257993Y10529000D01*
X72861746Y10607818D01*
X72488489Y10762426D01*
X72488488Y10762426D01*
X72488487Y10762427D01*
X72152564Y10986884D01*
X71866884Y11272564D01*
X71642427Y11608487D01*
X71603494Y11702480D01*
X71487818Y11981746D01*
X71409000Y12377993D01*
X71409000Y12782007D01*
X71487818Y13178254D01*
X71642426Y13551511D01*
X71776236Y13751771D01*
X71866884Y13887436D01*
X72152564Y14173116D01*
X72488487Y14397573D01*
X72501830Y14403100D01*
X72861746Y14552182D01*
X73257993Y14631000D01*
X73662007Y14631000D01*
X74058254Y14552182D01*
G37*
G36*
X49058254Y14552182D02*
G01*
X49418170Y14403100D01*
X49431513Y14397573D01*
X49767436Y14173116D01*
X50053116Y13887436D01*
X50143765Y13751771D01*
X50277574Y13551511D01*
X50432182Y13178254D01*
X50511000Y12782007D01*
X50511000Y12377993D01*
X50432182Y11981746D01*
X50316506Y11702480D01*
X50277573Y11608487D01*
X50053116Y11272564D01*
X49767436Y10986884D01*
X49431513Y10762427D01*
X49431512Y10762426D01*
X49431511Y10762426D01*
X49058254Y10607818D01*
X48662007Y10529000D01*
X48257993Y10529000D01*
X47861746Y10607818D01*
X47488489Y10762426D01*
X47488488Y10762426D01*
X47488487Y10762427D01*
X47152564Y10986884D01*
X46866884Y11272564D01*
X46642427Y11608487D01*
X46603494Y11702480D01*
X46487818Y11981746D01*
X46409000Y12377993D01*
X46409000Y12782007D01*
X46487818Y13178254D01*
X46642426Y13551511D01*
X46776236Y13751771D01*
X46866884Y13887436D01*
X47152564Y14173116D01*
X47488487Y14397573D01*
X47501830Y14403100D01*
X47861746Y14552182D01*
X48257993Y14631000D01*
X48662007Y14631000D01*
X49058254Y14552182D01*
G37*
G36*
X37058254Y14552182D02*
G01*
X37418170Y14403100D01*
X37431513Y14397573D01*
X37767436Y14173116D01*
X38053116Y13887436D01*
X38143765Y13751771D01*
X38277574Y13551511D01*
X38432182Y13178254D01*
X38511000Y12782007D01*
X38511000Y12377993D01*
X38432182Y11981746D01*
X38316506Y11702480D01*
X38277573Y11608487D01*
X38053116Y11272564D01*
X37767436Y10986884D01*
X37431513Y10762427D01*
X37431512Y10762426D01*
X37431511Y10762426D01*
X37058254Y10607818D01*
X36662007Y10529000D01*
X36257993Y10529000D01*
X35861746Y10607818D01*
X35488489Y10762426D01*
X35488488Y10762426D01*
X35488487Y10762427D01*
X35152564Y10986884D01*
X34866884Y11272564D01*
X34642427Y11608487D01*
X34603494Y11702480D01*
X34487818Y11981746D01*
X34409000Y12377993D01*
X34409000Y12782007D01*
X34487818Y13178254D01*
X34642426Y13551511D01*
X34776236Y13751771D01*
X34866884Y13887436D01*
X35152564Y14173116D01*
X35488487Y14397573D01*
X35501830Y14403100D01*
X35861746Y14552182D01*
X36257993Y14631000D01*
X36662007Y14631000D01*
X37058254Y14552182D01*
G37*
G36*
X12058254Y14552182D02*
G01*
X12418170Y14403100D01*
X12431513Y14397573D01*
X12767436Y14173116D01*
X13053116Y13887436D01*
X13143765Y13751771D01*
X13277574Y13551511D01*
X13432182Y13178254D01*
X13511000Y12782007D01*
X13511000Y12377993D01*
X13432182Y11981746D01*
X13316506Y11702480D01*
X13277573Y11608487D01*
X13053116Y11272564D01*
X12767436Y10986884D01*
X12431513Y10762427D01*
X12431512Y10762426D01*
X12431511Y10762426D01*
X12058254Y10607818D01*
X11662007Y10529000D01*
X11257993Y10529000D01*
X10861746Y10607818D01*
X10488489Y10762426D01*
X10488488Y10762426D01*
X10488487Y10762427D01*
X10152564Y10986884D01*
X9866884Y11272564D01*
X9642427Y11608487D01*
X9603494Y11702480D01*
X9487818Y11981746D01*
X9409000Y12377993D01*
X9409000Y12782007D01*
X9487818Y13178254D01*
X9642426Y13551511D01*
X9776236Y13751771D01*
X9866884Y13887436D01*
X10152564Y14173116D01*
X10488487Y14397573D01*
X10501830Y14403100D01*
X10861746Y14552182D01*
X11257993Y14631000D01*
X11662007Y14631000D01*
X12058254Y14552182D01*
G37*
G36*
X58438228Y14818297D02*
G01*
X58593100Y14754147D01*
X58732481Y14661015D01*
X58851015Y14542481D01*
X58944147Y14403100D01*
X59008297Y14248228D01*
X59041000Y14083816D01*
X59041000Y13916184D01*
X59008297Y13751772D01*
X58944147Y13596900D01*
X58851015Y13457519D01*
X58732481Y13338985D01*
X58593100Y13245853D01*
X58438228Y13181703D01*
X58273816Y13149000D01*
X58106184Y13149000D01*
X57941772Y13181703D01*
X57786900Y13245853D01*
X57647519Y13338985D01*
X57528985Y13457519D01*
X57435853Y13596900D01*
X57371703Y13751772D01*
X57339000Y13916184D01*
X57339000Y14083816D01*
X57371703Y14248228D01*
X57435853Y14403100D01*
X57528985Y14542481D01*
X57647519Y14661015D01*
X57786900Y14754147D01*
X57941772Y14818297D01*
X58106184Y14851000D01*
X58273816Y14851000D01*
X58438228Y14818297D01*
G37*
G36*
X55668228Y14818297D02*
G01*
X55823100Y14754147D01*
X55962481Y14661015D01*
X56081015Y14542481D01*
X56174147Y14403100D01*
X56238297Y14248228D01*
X56271000Y14083816D01*
X56271000Y13916184D01*
X56238297Y13751772D01*
X56174147Y13596900D01*
X56081015Y13457519D01*
X55962481Y13338985D01*
X55823100Y13245853D01*
X55668228Y13181703D01*
X55503816Y13149000D01*
X55336184Y13149000D01*
X55171772Y13181703D01*
X55016900Y13245853D01*
X54877519Y13338985D01*
X54758985Y13457519D01*
X54665853Y13596900D01*
X54601703Y13751772D01*
X54569000Y13916184D01*
X54569000Y14083816D01*
X54601703Y14248228D01*
X54665853Y14403100D01*
X54758985Y14542481D01*
X54877519Y14661015D01*
X55016900Y14754147D01*
X55171772Y14818297D01*
X55336184Y14851000D01*
X55503816Y14851000D01*
X55668228Y14818297D01*
G37*
G36*
X30351000Y13149000D02*
G01*
X28649000Y13149000D01*
X28649000Y14851000D01*
X30351000Y14851000D01*
X30351000Y13149000D01*
G37*
G36*
X26978228Y14818297D02*
G01*
X27133100Y14754147D01*
X27272481Y14661015D01*
X27391015Y14542481D01*
X27484147Y14403100D01*
X27548297Y14248228D01*
X27581000Y14083816D01*
X27581000Y13916184D01*
X27548297Y13751772D01*
X27484147Y13596900D01*
X27391015Y13457519D01*
X27272481Y13338985D01*
X27133100Y13245853D01*
X26978228Y13181703D01*
X26813816Y13149000D01*
X26646184Y13149000D01*
X26481772Y13181703D01*
X26326900Y13245853D01*
X26187519Y13338985D01*
X26068985Y13457519D01*
X25975853Y13596900D01*
X25911703Y13751772D01*
X25879000Y13916184D01*
X25879000Y14083816D01*
X25911703Y14248228D01*
X25975853Y14403100D01*
X26068985Y14542481D01*
X26187519Y14661015D01*
X26326900Y14754147D01*
X26481772Y14818297D01*
X26646184Y14851000D01*
X26813816Y14851000D01*
X26978228Y14818297D01*
G37*
G36*
X24208228Y14818297D02*
G01*
X24363100Y14754147D01*
X24502481Y14661015D01*
X24621015Y14542481D01*
X24714147Y14403100D01*
X24778297Y14248228D01*
X24811000Y14083816D01*
X24811000Y13916184D01*
X24778297Y13751772D01*
X24714147Y13596900D01*
X24621015Y13457519D01*
X24502481Y13338985D01*
X24363100Y13245853D01*
X24208228Y13181703D01*
X24043816Y13149000D01*
X23876184Y13149000D01*
X23711772Y13181703D01*
X23556900Y13245853D01*
X23417519Y13338985D01*
X23298985Y13457519D01*
X23205853Y13596900D01*
X23141703Y13751772D01*
X23109000Y13916184D01*
X23109000Y14083816D01*
X23141703Y14248228D01*
X23205853Y14403100D01*
X23298985Y14542481D01*
X23417519Y14661015D01*
X23556900Y14754147D01*
X23711772Y14818297D01*
X23876184Y14851000D01*
X24043816Y14851000D01*
X24208228Y14818297D01*
G37*
G36*
X18668228Y14818297D02*
G01*
X18823100Y14754147D01*
X18962481Y14661015D01*
X19081015Y14542481D01*
X19174147Y14403100D01*
X19238297Y14248228D01*
X19271000Y14083816D01*
X19271000Y13916184D01*
X19238297Y13751772D01*
X19174147Y13596900D01*
X19081015Y13457519D01*
X18962481Y13338985D01*
X18823100Y13245853D01*
X18668228Y13181703D01*
X18503816Y13149000D01*
X18336184Y13149000D01*
X18171772Y13181703D01*
X18016900Y13245853D01*
X17877519Y13338985D01*
X17758985Y13457519D01*
X17665853Y13596900D01*
X17601703Y13751772D01*
X17569000Y13916184D01*
X17569000Y14083816D01*
X17601703Y14248228D01*
X17665853Y14403100D01*
X17758985Y14542481D01*
X17877519Y14661015D01*
X18016900Y14754147D01*
X18171772Y14818297D01*
X18336184Y14851000D01*
X18503816Y14851000D01*
X18668228Y14818297D01*
G37*
G36*
X67351000Y13149000D02*
G01*
X65649000Y13149000D01*
X65649000Y14851000D01*
X67351000Y14851000D01*
X67351000Y13149000D01*
G37*
G36*
X63978228Y14818297D02*
G01*
X64133100Y14754147D01*
X64272481Y14661015D01*
X64391015Y14542481D01*
X64484147Y14403100D01*
X64548297Y14248228D01*
X64581000Y14083816D01*
X64581000Y13916184D01*
X64548297Y13751772D01*
X64484147Y13596900D01*
X64391015Y13457519D01*
X64272481Y13338985D01*
X64133100Y13245853D01*
X63978228Y13181703D01*
X63813816Y13149000D01*
X63646184Y13149000D01*
X63481772Y13181703D01*
X63326900Y13245853D01*
X63187519Y13338985D01*
X63068985Y13457519D01*
X62975853Y13596900D01*
X62911703Y13751772D01*
X62879000Y13916184D01*
X62879000Y14083816D01*
X62911703Y14248228D01*
X62975853Y14403100D01*
X63068985Y14542481D01*
X63187519Y14661015D01*
X63326900Y14754147D01*
X63481772Y14818297D01*
X63646184Y14851000D01*
X63813816Y14851000D01*
X63978228Y14818297D01*
G37*
G36*
X61208228Y14818297D02*
G01*
X61363100Y14754147D01*
X61502481Y14661015D01*
X61621015Y14542481D01*
X61714147Y14403100D01*
X61778297Y14248228D01*
X61811000Y14083816D01*
X61811000Y13916184D01*
X61778297Y13751772D01*
X61714147Y13596900D01*
X61621015Y13457519D01*
X61502481Y13338985D01*
X61363100Y13245853D01*
X61208228Y13181703D01*
X61043816Y13149000D01*
X60876184Y13149000D01*
X60711772Y13181703D01*
X60556900Y13245853D01*
X60417519Y13338985D01*
X60298985Y13457519D01*
X60205853Y13596900D01*
X60141703Y13751772D01*
X60109000Y13916184D01*
X60109000Y14083816D01*
X60141703Y14248228D01*
X60205853Y14403100D01*
X60298985Y14542481D01*
X60417519Y14661015D01*
X60556900Y14754147D01*
X60711772Y14818297D01*
X60876184Y14851000D01*
X61043816Y14851000D01*
X61208228Y14818297D01*
G37*
G36*
X21438228Y14818297D02*
G01*
X21593100Y14754147D01*
X21732481Y14661015D01*
X21851015Y14542481D01*
X21944147Y14403100D01*
X22008297Y14248228D01*
X22041000Y14083816D01*
X22041000Y13916184D01*
X22008297Y13751772D01*
X21944147Y13596900D01*
X21851015Y13457519D01*
X21732481Y13338985D01*
X21593100Y13245853D01*
X21438228Y13181703D01*
X21273816Y13149000D01*
X21106184Y13149000D01*
X20941772Y13181703D01*
X20786900Y13245853D01*
X20647519Y13338985D01*
X20528985Y13457519D01*
X20435853Y13596900D01*
X20371703Y13751772D01*
X20339000Y13916184D01*
X20339000Y14083816D01*
X20371703Y14248228D01*
X20435853Y14403100D01*
X20528985Y14542481D01*
X20647519Y14661015D01*
X20786900Y14754147D01*
X20941772Y14818297D01*
X21106184Y14851000D01*
X21273816Y14851000D01*
X21438228Y14818297D01*
G37*
G36*
X8827593Y20039109D02*
G01*
X8937789Y20005681D01*
X9039338Y19951402D01*
X9128351Y19878351D01*
X9201402Y19789338D01*
X9255681Y19687789D01*
X9289109Y19577593D01*
X9301000Y19456860D01*
X9301000Y18043140D01*
X9289109Y17922407D01*
X9255681Y17812211D01*
X9201402Y17710662D01*
X9128351Y17621649D01*
X9039338Y17548598D01*
X8937789Y17494319D01*
X8827593Y17460891D01*
X8706860Y17449000D01*
X7293140Y17449000D01*
X7172407Y17460891D01*
X7062211Y17494319D01*
X6960662Y17548598D01*
X6871649Y17621649D01*
X6798598Y17710662D01*
X6744319Y17812211D01*
X6710891Y17922407D01*
X6699000Y18043140D01*
X6699000Y19456860D01*
X6710891Y19577593D01*
X6744319Y19687789D01*
X6798598Y19789338D01*
X6871649Y19878351D01*
X6960662Y19951402D01*
X7062211Y20005681D01*
X7172407Y20039109D01*
X7293140Y20051000D01*
X8706860Y20051000D01*
X8827593Y20039109D01*
G37*
G36*
X25012199Y20700046D02*
G01*
X25024450Y20699444D01*
X25042869Y20699444D01*
X25065149Y20697250D01*
X25149233Y20680524D01*
X25170660Y20674024D01*
X25249858Y20641220D01*
X25255303Y20638309D01*
X25255309Y20638307D01*
X25264169Y20633571D01*
X25264173Y20633568D01*
X25269614Y20630660D01*
X25340899Y20583029D01*
X25358204Y20568828D01*
X25418828Y20508204D01*
X25433029Y20490899D01*
X25480660Y20419614D01*
X25483568Y20414173D01*
X25483571Y20414169D01*
X25488307Y20405309D01*
X25488309Y20405303D01*
X25491220Y20399858D01*
X25524024Y20320660D01*
X25530524Y20299233D01*
X25547250Y20215149D01*
X25549444Y20192869D01*
X25549444Y20174450D01*
X25550046Y20162199D01*
X25551852Y20143861D01*
X25551852Y19656140D01*
X25550263Y19640001D01*
X25547348Y19630392D01*
X25542610Y19621528D01*
X25536237Y19613763D01*
X25523794Y19603552D01*
X25513425Y19596622D01*
X25496098Y19579295D01*
X25482485Y19558920D01*
X25473109Y19536280D01*
X25468329Y19512247D01*
X25468330Y19487743D01*
X25473112Y19463710D01*
X25482490Y19441071D01*
X25496105Y19420698D01*
X25513432Y19403371D01*
X25523802Y19396442D01*
X25536237Y19386237D01*
X25542610Y19378472D01*
X25547348Y19369608D01*
X25550263Y19359999D01*
X25551852Y19343860D01*
X25551852Y18856138D01*
X25550046Y18837801D01*
X25549444Y18825550D01*
X25549444Y18807131D01*
X25547250Y18784851D01*
X25530524Y18700767D01*
X25524024Y18679340D01*
X25491220Y18600142D01*
X25488309Y18594697D01*
X25488307Y18594691D01*
X25483571Y18585831D01*
X25483568Y18585827D01*
X25480660Y18580386D01*
X25433029Y18509101D01*
X25418828Y18491796D01*
X25358204Y18431172D01*
X25340899Y18416971D01*
X25269614Y18369340D01*
X25264173Y18366432D01*
X25264169Y18366429D01*
X25255309Y18361693D01*
X25255303Y18361691D01*
X25249858Y18358780D01*
X25170660Y18325976D01*
X25149233Y18319476D01*
X25065149Y18302750D01*
X25042869Y18300556D01*
X25024450Y18300556D01*
X25012199Y18299954D01*
X24993862Y18298148D01*
X24506138Y18298148D01*
X24487801Y18299954D01*
X24475550Y18300556D01*
X24457131Y18300556D01*
X24434851Y18302750D01*
X24350767Y18319476D01*
X24329340Y18325976D01*
X24250142Y18358780D01*
X24244697Y18361691D01*
X24244691Y18361693D01*
X24235831Y18366429D01*
X24235827Y18366432D01*
X24230386Y18369340D01*
X24159101Y18416971D01*
X24141796Y18431172D01*
X24081172Y18491796D01*
X24066971Y18509101D01*
X24019340Y18580386D01*
X24016432Y18585827D01*
X24016429Y18585831D01*
X24011693Y18594691D01*
X24011691Y18594697D01*
X24008780Y18600142D01*
X23975976Y18679340D01*
X23969476Y18700767D01*
X23952750Y18784851D01*
X23950556Y18807131D01*
X23950556Y18825550D01*
X23949954Y18837801D01*
X23948148Y18856138D01*
X23948148Y19343860D01*
X23949737Y19359999D01*
X23952652Y19369608D01*
X23957390Y19378472D01*
X23963763Y19386237D01*
X23976206Y19396448D01*
X23986575Y19403378D01*
X24003902Y19420705D01*
X24017515Y19441080D01*
X24026891Y19463720D01*
X24031671Y19487753D01*
X24031670Y19512257D01*
X24026888Y19536290D01*
X24017510Y19558929D01*
X24003895Y19579302D01*
X23986568Y19596629D01*
X23976198Y19603558D01*
X23963763Y19613763D01*
X23957390Y19621528D01*
X23952652Y19630392D01*
X23949737Y19640001D01*
X23948148Y19656140D01*
X23948148Y20143861D01*
X23949954Y20162199D01*
X23950556Y20174450D01*
X23950556Y20192869D01*
X23952750Y20215149D01*
X23969476Y20299233D01*
X23975976Y20320660D01*
X24008780Y20399858D01*
X24011691Y20405303D01*
X24011693Y20405309D01*
X24016429Y20414169D01*
X24016432Y20414173D01*
X24019340Y20419614D01*
X24066971Y20490899D01*
X24081172Y20508204D01*
X24141796Y20568828D01*
X24159101Y20583029D01*
X24230386Y20630660D01*
X24235827Y20633568D01*
X24235831Y20633571D01*
X24244691Y20638307D01*
X24244697Y20638309D01*
X24250142Y20641220D01*
X24329340Y20674024D01*
X24350767Y20680524D01*
X24434851Y20697250D01*
X24457131Y20699444D01*
X24475550Y20699444D01*
X24487801Y20700046D01*
X24506139Y20701852D01*
X24993861Y20701852D01*
X25012199Y20700046D01*
G37*
G36*
X29012199Y20800046D02*
G01*
X29024450Y20799444D01*
X29042869Y20799444D01*
X29065149Y20797250D01*
X29149233Y20780524D01*
X29170660Y20774024D01*
X29249858Y20741220D01*
X29255303Y20738309D01*
X29255309Y20738307D01*
X29264169Y20733571D01*
X29264173Y20733568D01*
X29269614Y20730660D01*
X29340899Y20683029D01*
X29358204Y20668828D01*
X29418828Y20608204D01*
X29433029Y20590899D01*
X29480660Y20519614D01*
X29483568Y20514173D01*
X29483571Y20514169D01*
X29488307Y20505309D01*
X29488309Y20505303D01*
X29491220Y20499858D01*
X29524024Y20420660D01*
X29530524Y20399233D01*
X29547250Y20315149D01*
X29549444Y20292869D01*
X29549444Y20274450D01*
X29550046Y20262199D01*
X29551852Y20243861D01*
X29551852Y19756140D01*
X29550263Y19740001D01*
X29547348Y19730392D01*
X29542610Y19721528D01*
X29536237Y19713763D01*
X29523794Y19703552D01*
X29513425Y19696622D01*
X29496098Y19679295D01*
X29482485Y19658920D01*
X29473109Y19636280D01*
X29468329Y19612247D01*
X29468330Y19587743D01*
X29473112Y19563710D01*
X29482490Y19541071D01*
X29496105Y19520698D01*
X29513432Y19503371D01*
X29523802Y19496442D01*
X29536237Y19486237D01*
X29542610Y19478472D01*
X29547348Y19469608D01*
X29550263Y19459999D01*
X29551852Y19443860D01*
X29551852Y18956138D01*
X29550046Y18937801D01*
X29549444Y18925550D01*
X29549444Y18907131D01*
X29547250Y18884851D01*
X29530524Y18800767D01*
X29524024Y18779340D01*
X29491220Y18700142D01*
X29488309Y18694697D01*
X29488307Y18694691D01*
X29483571Y18685831D01*
X29483568Y18685827D01*
X29480660Y18680386D01*
X29433029Y18609101D01*
X29418828Y18591796D01*
X29358204Y18531172D01*
X29340899Y18516971D01*
X29269614Y18469340D01*
X29264173Y18466432D01*
X29264169Y18466429D01*
X29255309Y18461693D01*
X29255303Y18461691D01*
X29249858Y18458780D01*
X29170660Y18425976D01*
X29149233Y18419476D01*
X29065149Y18402750D01*
X29042869Y18400556D01*
X29024450Y18400556D01*
X29012199Y18399954D01*
X28993862Y18398148D01*
X28506138Y18398148D01*
X28487801Y18399954D01*
X28475550Y18400556D01*
X28457131Y18400556D01*
X28434851Y18402750D01*
X28350767Y18419476D01*
X28329340Y18425976D01*
X28250142Y18458780D01*
X28244697Y18461691D01*
X28244691Y18461693D01*
X28235831Y18466429D01*
X28235827Y18466432D01*
X28230386Y18469340D01*
X28159101Y18516971D01*
X28141796Y18531172D01*
X28081172Y18591796D01*
X28066971Y18609101D01*
X28019340Y18680386D01*
X28016432Y18685827D01*
X28016429Y18685831D01*
X28011693Y18694691D01*
X28011691Y18694697D01*
X28008780Y18700142D01*
X27975976Y18779340D01*
X27969476Y18800767D01*
X27952750Y18884851D01*
X27950556Y18907131D01*
X27950556Y18925550D01*
X27949954Y18937801D01*
X27948148Y18956138D01*
X27948148Y19443860D01*
X27949737Y19459999D01*
X27952652Y19469608D01*
X27957390Y19478472D01*
X27963763Y19486237D01*
X27976206Y19496448D01*
X27986575Y19503378D01*
X28003902Y19520705D01*
X28017515Y19541080D01*
X28026891Y19563720D01*
X28031671Y19587753D01*
X28031670Y19612257D01*
X28026888Y19636290D01*
X28017510Y19658929D01*
X28003895Y19679302D01*
X27986568Y19696629D01*
X27976198Y19703558D01*
X27963763Y19713763D01*
X27957390Y19721528D01*
X27952652Y19730392D01*
X27949737Y19740001D01*
X27948148Y19756140D01*
X27948148Y20243861D01*
X27949954Y20262199D01*
X27950556Y20274450D01*
X27950556Y20292869D01*
X27952750Y20315149D01*
X27969476Y20399233D01*
X27975976Y20420660D01*
X28008780Y20499858D01*
X28011691Y20505303D01*
X28011693Y20505309D01*
X28016429Y20514169D01*
X28016432Y20514173D01*
X28019340Y20519614D01*
X28066971Y20590899D01*
X28081172Y20608204D01*
X28141796Y20668828D01*
X28159101Y20683029D01*
X28230386Y20730660D01*
X28235827Y20733568D01*
X28235831Y20733571D01*
X28244691Y20738307D01*
X28244697Y20738309D01*
X28250142Y20741220D01*
X28329340Y20774024D01*
X28350767Y20780524D01*
X28434851Y20797250D01*
X28457131Y20799444D01*
X28475550Y20799444D01*
X28487801Y20800046D01*
X28506139Y20801852D01*
X28993861Y20801852D01*
X29012199Y20800046D01*
G37*
G36*
X21012199Y20800046D02*
G01*
X21024450Y20799444D01*
X21042869Y20799444D01*
X21065149Y20797250D01*
X21149233Y20780524D01*
X21170660Y20774024D01*
X21249858Y20741220D01*
X21255303Y20738309D01*
X21255309Y20738307D01*
X21264169Y20733571D01*
X21264173Y20733568D01*
X21269614Y20730660D01*
X21340899Y20683029D01*
X21358204Y20668828D01*
X21418828Y20608204D01*
X21433029Y20590899D01*
X21480660Y20519614D01*
X21483568Y20514173D01*
X21483571Y20514169D01*
X21488307Y20505309D01*
X21488309Y20505303D01*
X21491220Y20499858D01*
X21524024Y20420660D01*
X21530524Y20399233D01*
X21547250Y20315149D01*
X21549444Y20292869D01*
X21549444Y20274450D01*
X21550046Y20262199D01*
X21551852Y20243861D01*
X21551852Y19756140D01*
X21550263Y19740001D01*
X21547348Y19730392D01*
X21542610Y19721528D01*
X21536237Y19713763D01*
X21523794Y19703552D01*
X21513425Y19696622D01*
X21496098Y19679295D01*
X21482485Y19658920D01*
X21473109Y19636280D01*
X21468329Y19612247D01*
X21468330Y19587743D01*
X21473112Y19563710D01*
X21482490Y19541071D01*
X21496105Y19520698D01*
X21513432Y19503371D01*
X21523802Y19496442D01*
X21536237Y19486237D01*
X21542610Y19478472D01*
X21547348Y19469608D01*
X21550263Y19459999D01*
X21551852Y19443860D01*
X21551852Y18956138D01*
X21550046Y18937801D01*
X21549444Y18925550D01*
X21549444Y18907131D01*
X21547250Y18884851D01*
X21530524Y18800767D01*
X21524024Y18779340D01*
X21491220Y18700142D01*
X21488309Y18694697D01*
X21488307Y18694691D01*
X21483571Y18685831D01*
X21483568Y18685827D01*
X21480660Y18680386D01*
X21433029Y18609101D01*
X21418828Y18591796D01*
X21358204Y18531172D01*
X21340899Y18516971D01*
X21269614Y18469340D01*
X21264173Y18466432D01*
X21264169Y18466429D01*
X21255309Y18461693D01*
X21255303Y18461691D01*
X21249858Y18458780D01*
X21170660Y18425976D01*
X21149233Y18419476D01*
X21065149Y18402750D01*
X21042869Y18400556D01*
X21024450Y18400556D01*
X21012199Y18399954D01*
X20993862Y18398148D01*
X20506138Y18398148D01*
X20487801Y18399954D01*
X20475550Y18400556D01*
X20457131Y18400556D01*
X20434851Y18402750D01*
X20350767Y18419476D01*
X20329340Y18425976D01*
X20250142Y18458780D01*
X20244697Y18461691D01*
X20244691Y18461693D01*
X20235831Y18466429D01*
X20235827Y18466432D01*
X20230386Y18469340D01*
X20159101Y18516971D01*
X20141796Y18531172D01*
X20081172Y18591796D01*
X20066971Y18609101D01*
X20019340Y18680386D01*
X20016432Y18685827D01*
X20016429Y18685831D01*
X20011693Y18694691D01*
X20011691Y18694697D01*
X20008780Y18700142D01*
X19975976Y18779340D01*
X19969476Y18800767D01*
X19952750Y18884851D01*
X19950556Y18907131D01*
X19950556Y18925550D01*
X19949954Y18937801D01*
X19948148Y18956138D01*
X19948148Y19443860D01*
X19949737Y19459999D01*
X19952652Y19469608D01*
X19957390Y19478472D01*
X19963763Y19486237D01*
X19976206Y19496448D01*
X19986575Y19503378D01*
X20003902Y19520705D01*
X20017515Y19541080D01*
X20026891Y19563720D01*
X20031671Y19587753D01*
X20031670Y19612257D01*
X20026888Y19636290D01*
X20017510Y19658929D01*
X20003895Y19679302D01*
X19986568Y19696629D01*
X19976198Y19703558D01*
X19963763Y19713763D01*
X19957390Y19721528D01*
X19952652Y19730392D01*
X19949737Y19740001D01*
X19948148Y19756140D01*
X19948148Y20243861D01*
X19949954Y20262199D01*
X19950556Y20274450D01*
X19950556Y20292869D01*
X19952750Y20315149D01*
X19969476Y20399233D01*
X19975976Y20420660D01*
X20008780Y20499858D01*
X20011691Y20505303D01*
X20011693Y20505309D01*
X20016429Y20514169D01*
X20016432Y20514173D01*
X20019340Y20519614D01*
X20066971Y20590899D01*
X20081172Y20608204D01*
X20141796Y20668828D01*
X20159101Y20683029D01*
X20230386Y20730660D01*
X20235827Y20733568D01*
X20235831Y20733571D01*
X20244691Y20738307D01*
X20244697Y20738309D01*
X20250142Y20741220D01*
X20329340Y20774024D01*
X20350767Y20780524D01*
X20434851Y20797250D01*
X20457131Y20799444D01*
X20475550Y20799444D01*
X20487801Y20800046D01*
X20506139Y20801852D01*
X20993861Y20801852D01*
X21012199Y20800046D01*
G37*
G36*
X77827593Y21539109D02*
G01*
X77937789Y21505681D01*
X78039338Y21451402D01*
X78128351Y21378351D01*
X78201402Y21289338D01*
X78255681Y21187789D01*
X78289109Y21077593D01*
X78301000Y20956860D01*
X78301000Y19543140D01*
X78289109Y19422407D01*
X78255681Y19312211D01*
X78201402Y19210662D01*
X78128351Y19121649D01*
X78039338Y19048598D01*
X77937789Y18994319D01*
X77827593Y18960891D01*
X77706860Y18949000D01*
X76293140Y18949000D01*
X76172407Y18960891D01*
X76062211Y18994319D01*
X75960662Y19048598D01*
X75871649Y19121649D01*
X75798598Y19210662D01*
X75744319Y19312211D01*
X75710891Y19422407D01*
X75699000Y19543140D01*
X75699000Y20956860D01*
X75710891Y21077593D01*
X75744319Y21187789D01*
X75798598Y21289338D01*
X75871649Y21378351D01*
X75960662Y21451402D01*
X76062211Y21505681D01*
X76172407Y21539109D01*
X76293140Y21551000D01*
X77706860Y21551000D01*
X77827593Y21539109D01*
G37*
G36*
X8827593Y23539109D02*
G01*
X8937789Y23505681D01*
X9039338Y23451402D01*
X9128351Y23378351D01*
X9201402Y23289338D01*
X9255681Y23187789D01*
X9289109Y23077593D01*
X9301000Y22956860D01*
X9301000Y21543140D01*
X9289109Y21422407D01*
X9255681Y21312211D01*
X9201402Y21210662D01*
X9128351Y21121649D01*
X9039338Y21048598D01*
X8937789Y20994319D01*
X8827593Y20960891D01*
X8706860Y20949000D01*
X7293140Y20949000D01*
X7172407Y20960891D01*
X7062211Y20994319D01*
X6960662Y21048598D01*
X6871649Y21121649D01*
X6798598Y21210662D01*
X6744319Y21312211D01*
X6710891Y21422407D01*
X6699000Y21543140D01*
X6699000Y22956860D01*
X6710891Y23077593D01*
X6744319Y23187789D01*
X6798598Y23289338D01*
X6871649Y23378351D01*
X6960662Y23451402D01*
X7062211Y23505681D01*
X7172407Y23539109D01*
X7293140Y23551000D01*
X8706860Y23551000D01*
X8827593Y23539109D01*
G37*
G36*
X77827593Y25039109D02*
G01*
X77937789Y25005681D01*
X78039338Y24951402D01*
X78128351Y24878351D01*
X78201402Y24789338D01*
X78255681Y24687789D01*
X78289109Y24577593D01*
X78301000Y24456860D01*
X78301000Y23043140D01*
X78289109Y22922407D01*
X78255681Y22812211D01*
X78201402Y22710662D01*
X78128351Y22621649D01*
X78039338Y22548598D01*
X77937789Y22494319D01*
X77827593Y22460891D01*
X77706860Y22449000D01*
X76293140Y22449000D01*
X76172407Y22460891D01*
X76062211Y22494319D01*
X75960662Y22548598D01*
X75871649Y22621649D01*
X75798598Y22710662D01*
X75744319Y22812211D01*
X75710891Y22922407D01*
X75699000Y23043140D01*
X75699000Y24456860D01*
X75710891Y24577593D01*
X75744319Y24687789D01*
X75798598Y24789338D01*
X75871649Y24878351D01*
X75960662Y24951402D01*
X76062211Y25005681D01*
X76172407Y25039109D01*
X76293140Y25051000D01*
X77706860Y25051000D01*
X77827593Y25039109D01*
G37*
G36*
X8827593Y28539109D02*
G01*
X8937789Y28505681D01*
X9039338Y28451402D01*
X9128351Y28378351D01*
X9201402Y28289338D01*
X9255681Y28187789D01*
X9289109Y28077593D01*
X9301000Y27956860D01*
X9301000Y26543140D01*
X9289109Y26422407D01*
X9255681Y26312211D01*
X9201402Y26210662D01*
X9128351Y26121649D01*
X9039338Y26048598D01*
X8937789Y25994319D01*
X8827593Y25960891D01*
X8706860Y25949000D01*
X7293140Y25949000D01*
X7172407Y25960891D01*
X7062211Y25994319D01*
X6960662Y26048598D01*
X6871649Y26121649D01*
X6798598Y26210662D01*
X6744319Y26312211D01*
X6710891Y26422407D01*
X6699000Y26543140D01*
X6699000Y27956860D01*
X6710891Y28077593D01*
X6744319Y28187789D01*
X6798598Y28289338D01*
X6871649Y28378351D01*
X6960662Y28451402D01*
X7062211Y28505681D01*
X7172407Y28539109D01*
X7293140Y28551000D01*
X8706860Y28551000D01*
X8827593Y28539109D01*
G37*
G36*
X8827593Y32039109D02*
G01*
X8937789Y32005681D01*
X9039338Y31951402D01*
X9128351Y31878351D01*
X9201402Y31789338D01*
X9255681Y31687789D01*
X9289109Y31577593D01*
X9301000Y31456860D01*
X9301000Y30043140D01*
X9289109Y29922407D01*
X9255681Y29812211D01*
X9201402Y29710662D01*
X9128351Y29621649D01*
X9039338Y29548598D01*
X8937789Y29494319D01*
X8827593Y29460891D01*
X8706860Y29449000D01*
X7293140Y29449000D01*
X7172407Y29460891D01*
X7062211Y29494319D01*
X6960662Y29548598D01*
X6871649Y29621649D01*
X6798598Y29710662D01*
X6744319Y29812211D01*
X6710891Y29922407D01*
X6699000Y30043140D01*
X6699000Y31456860D01*
X6710891Y31577593D01*
X6744319Y31687789D01*
X6798598Y31789338D01*
X6871649Y31878351D01*
X6960662Y31951402D01*
X7062211Y32005681D01*
X7172407Y32039109D01*
X7293140Y32051000D01*
X8706860Y32051000D01*
X8827593Y32039109D01*
G37*
G36*
X80656301Y39163534D02*
G01*
X81065775Y38993924D01*
X81434292Y38747689D01*
X81747689Y38434292D01*
X81993924Y38065775D01*
X82163534Y37656301D01*
X82250000Y37221606D01*
X82250000Y36778394D01*
X82163534Y36343699D01*
X81993924Y35934225D01*
X81747689Y35565708D01*
X81434292Y35252311D01*
X81065775Y35006076D01*
X80656301Y34836466D01*
X80438953Y34793233D01*
X80221607Y34750000D01*
X79778393Y34750000D01*
X79561047Y34793233D01*
X79343699Y34836466D01*
X78934225Y35006076D01*
X78565708Y35252311D01*
X78252311Y35565708D01*
X78006076Y35934225D01*
X77836466Y36343699D01*
X77750000Y36778394D01*
X77750000Y37221606D01*
X77836466Y37656301D01*
X78006076Y38065775D01*
X78252311Y38434292D01*
X78565708Y38747689D01*
X78934225Y38993924D01*
X79343699Y39163534D01*
X79778393Y39250000D01*
X80221607Y39250000D01*
X80656301Y39163534D01*
G37*
G36*
X5656301Y39163534D02*
G01*
X6065775Y38993924D01*
X6434292Y38747689D01*
X6747689Y38434292D01*
X6993924Y38065775D01*
X7163534Y37656301D01*
X7250000Y37221606D01*
X7250000Y36778394D01*
X7163534Y36343699D01*
X6993924Y35934225D01*
X6747689Y35565708D01*
X6434292Y35252311D01*
X6065775Y35006076D01*
X5656301Y34836466D01*
X5438953Y34793233D01*
X5221607Y34750000D01*
X4778393Y34750000D01*
X4561047Y34793233D01*
X4343699Y34836466D01*
X3934225Y35006076D01*
X3565708Y35252311D01*
X3252311Y35565708D01*
X3006076Y35934225D01*
X2836466Y36343699D01*
X2750000Y36778394D01*
X2750000Y37221606D01*
X2836466Y37656301D01*
X3006076Y38065775D01*
X3252311Y38434292D01*
X3565708Y38747689D01*
X3934225Y38993924D01*
X4343699Y39163534D01*
X4778393Y39250000D01*
X5221607Y39250000D01*
X5656301Y39163534D01*
G37*
G36*
X21577593Y57289109D02*
G01*
X21687789Y57255681D01*
X21789338Y57201402D01*
X21878351Y57128351D01*
X21951402Y57039338D01*
X22005681Y56937789D01*
X22039109Y56827593D01*
X22051000Y56706860D01*
X22051000Y55293140D01*
X22039109Y55172407D01*
X22005681Y55062211D01*
X21951402Y54960662D01*
X21878351Y54871649D01*
X21789338Y54798598D01*
X21687789Y54744319D01*
X21577593Y54710891D01*
X21456860Y54699000D01*
X20043140Y54699000D01*
X19922407Y54710891D01*
X19812211Y54744319D01*
X19710662Y54798598D01*
X19621649Y54871649D01*
X19548598Y54960662D01*
X19494319Y55062211D01*
X19460891Y55172407D01*
X19449000Y55293140D01*
X19449000Y56706860D01*
X19460891Y56827593D01*
X19494319Y56937789D01*
X19548598Y57039338D01*
X19621649Y57128351D01*
X19710662Y57201402D01*
X19812211Y57255681D01*
X19922407Y57289109D01*
X20043140Y57301000D01*
X21456860Y57301000D01*
X21577593Y57289109D01*
G37*
G36*
X68577593Y57289109D02*
G01*
X68687789Y57255681D01*
X68789338Y57201402D01*
X68878351Y57128351D01*
X68951402Y57039338D01*
X69005681Y56937789D01*
X69039109Y56827593D01*
X69051000Y56706860D01*
X69051000Y55293140D01*
X69039109Y55172407D01*
X69005681Y55062211D01*
X68951402Y54960662D01*
X68878351Y54871649D01*
X68789338Y54798598D01*
X68687789Y54744319D01*
X68577593Y54710891D01*
X68456860Y54699000D01*
X67043140Y54699000D01*
X66922407Y54710891D01*
X66812211Y54744319D01*
X66710662Y54798598D01*
X66621649Y54871649D01*
X66548598Y54960662D01*
X66494319Y55062211D01*
X66460891Y55172407D01*
X66449000Y55293140D01*
X66449000Y56706860D01*
X66460891Y56827593D01*
X66494319Y56937789D01*
X66548598Y57039338D01*
X66621649Y57128351D01*
X66710662Y57201402D01*
X66812211Y57255681D01*
X66922407Y57289109D01*
X67043140Y57301000D01*
X68456860Y57301000D01*
X68577593Y57289109D01*
G37*
G36*
X65077593Y57289109D02*
G01*
X65187789Y57255681D01*
X65289338Y57201402D01*
X65378351Y57128351D01*
X65451402Y57039338D01*
X65505681Y56937789D01*
X65539109Y56827593D01*
X65551000Y56706860D01*
X65551000Y55293140D01*
X65539109Y55172407D01*
X65505681Y55062211D01*
X65451402Y54960662D01*
X65378351Y54871649D01*
X65289338Y54798598D01*
X65187789Y54744319D01*
X65077593Y54710891D01*
X64956860Y54699000D01*
X63543140Y54699000D01*
X63422407Y54710891D01*
X63312211Y54744319D01*
X63210662Y54798598D01*
X63121649Y54871649D01*
X63048598Y54960662D01*
X62994319Y55062211D01*
X62960891Y55172407D01*
X62949000Y55293140D01*
X62949000Y56706860D01*
X62960891Y56827593D01*
X62994319Y56937789D01*
X63048598Y57039338D01*
X63121649Y57128351D01*
X63210662Y57201402D01*
X63312211Y57255681D01*
X63422407Y57289109D01*
X63543140Y57301000D01*
X64956860Y57301000D01*
X65077593Y57289109D01*
G37*
G36*
X60077593Y57289109D02*
G01*
X60187789Y57255681D01*
X60289338Y57201402D01*
X60378351Y57128351D01*
X60451402Y57039338D01*
X60505681Y56937789D01*
X60539109Y56827593D01*
X60551000Y56706860D01*
X60551000Y55293140D01*
X60539109Y55172407D01*
X60505681Y55062211D01*
X60451402Y54960662D01*
X60378351Y54871649D01*
X60289338Y54798598D01*
X60187789Y54744319D01*
X60077593Y54710891D01*
X59956860Y54699000D01*
X58543140Y54699000D01*
X58422407Y54710891D01*
X58312211Y54744319D01*
X58210662Y54798598D01*
X58121649Y54871649D01*
X58048598Y54960662D01*
X57994319Y55062211D01*
X57960891Y55172407D01*
X57949000Y55293140D01*
X57949000Y56706860D01*
X57960891Y56827593D01*
X57994319Y56937789D01*
X58048598Y57039338D01*
X58121649Y57128351D01*
X58210662Y57201402D01*
X58312211Y57255681D01*
X58422407Y57289109D01*
X58543140Y57301000D01*
X59956860Y57301000D01*
X60077593Y57289109D01*
G37*
G36*
X56577593Y57289109D02*
G01*
X56687789Y57255681D01*
X56789338Y57201402D01*
X56878351Y57128351D01*
X56951402Y57039338D01*
X57005681Y56937789D01*
X57039109Y56827593D01*
X57051000Y56706860D01*
X57051000Y55293140D01*
X57039109Y55172407D01*
X57005681Y55062211D01*
X56951402Y54960662D01*
X56878351Y54871649D01*
X56789338Y54798598D01*
X56687789Y54744319D01*
X56577593Y54710891D01*
X56456860Y54699000D01*
X55043140Y54699000D01*
X54922407Y54710891D01*
X54812211Y54744319D01*
X54710662Y54798598D01*
X54621649Y54871649D01*
X54548598Y54960662D01*
X54494319Y55062211D01*
X54460891Y55172407D01*
X54449000Y55293140D01*
X54449000Y56706860D01*
X54460891Y56827593D01*
X54494319Y56937789D01*
X54548598Y57039338D01*
X54621649Y57128351D01*
X54710662Y57201402D01*
X54812211Y57255681D01*
X54922407Y57289109D01*
X55043140Y57301000D01*
X56456860Y57301000D01*
X56577593Y57289109D01*
G37*
G36*
X38577593Y57289109D02*
G01*
X38687789Y57255681D01*
X38789338Y57201402D01*
X38878351Y57128351D01*
X38951402Y57039338D01*
X39005681Y56937789D01*
X39039109Y56827593D01*
X39051000Y56706860D01*
X39051000Y55293140D01*
X39039109Y55172407D01*
X39005681Y55062211D01*
X38951402Y54960662D01*
X38878351Y54871649D01*
X38789338Y54798598D01*
X38687789Y54744319D01*
X38577593Y54710891D01*
X38456860Y54699000D01*
X37043140Y54699000D01*
X36922407Y54710891D01*
X36812211Y54744319D01*
X36710662Y54798598D01*
X36621649Y54871649D01*
X36548598Y54960662D01*
X36494319Y55062211D01*
X36460891Y55172407D01*
X36449000Y55293140D01*
X36449000Y56706860D01*
X36460891Y56827593D01*
X36494319Y56937789D01*
X36548598Y57039338D01*
X36621649Y57128351D01*
X36710662Y57201402D01*
X36812211Y57255681D01*
X36922407Y57289109D01*
X37043140Y57301000D01*
X38456860Y57301000D01*
X38577593Y57289109D01*
G37*
G36*
X30077593Y57289109D02*
G01*
X30187789Y57255681D01*
X30289338Y57201402D01*
X30378351Y57128351D01*
X30451402Y57039338D01*
X30505681Y56937789D01*
X30539109Y56827593D01*
X30551000Y56706860D01*
X30551000Y55293140D01*
X30539109Y55172407D01*
X30505681Y55062211D01*
X30451402Y54960662D01*
X30378351Y54871649D01*
X30289338Y54798598D01*
X30187789Y54744319D01*
X30077593Y54710891D01*
X29956860Y54699000D01*
X28543140Y54699000D01*
X28422407Y54710891D01*
X28312211Y54744319D01*
X28210662Y54798598D01*
X28121649Y54871649D01*
X28048598Y54960662D01*
X27994319Y55062211D01*
X27960891Y55172407D01*
X27949000Y55293140D01*
X27949000Y56706860D01*
X27960891Y56827593D01*
X27994319Y56937789D01*
X28048598Y57039338D01*
X28121649Y57128351D01*
X28210662Y57201402D01*
X28312211Y57255681D01*
X28422407Y57289109D01*
X28543140Y57301000D01*
X29956860Y57301000D01*
X30077593Y57289109D01*
G37*
G36*
X26577593Y57289109D02*
G01*
X26687789Y57255681D01*
X26789338Y57201402D01*
X26878351Y57128351D01*
X26951402Y57039338D01*
X27005681Y56937789D01*
X27039109Y56827593D01*
X27051000Y56706860D01*
X27051000Y55293140D01*
X27039109Y55172407D01*
X27005681Y55062211D01*
X26951402Y54960662D01*
X26878351Y54871649D01*
X26789338Y54798598D01*
X26687789Y54744319D01*
X26577593Y54710891D01*
X26456860Y54699000D01*
X25043140Y54699000D01*
X24922407Y54710891D01*
X24812211Y54744319D01*
X24710662Y54798598D01*
X24621649Y54871649D01*
X24548598Y54960662D01*
X24494319Y55062211D01*
X24460891Y55172407D01*
X24449000Y55293140D01*
X24449000Y56706860D01*
X24460891Y56827593D01*
X24494319Y56937789D01*
X24548598Y57039338D01*
X24621649Y57128351D01*
X24710662Y57201402D01*
X24812211Y57255681D01*
X24922407Y57289109D01*
X25043140Y57301000D01*
X26456860Y57301000D01*
X26577593Y57289109D01*
G37*
G36*
X48077593Y57289109D02*
G01*
X48187789Y57255681D01*
X48289338Y57201402D01*
X48378351Y57128351D01*
X48451402Y57039338D01*
X48505681Y56937789D01*
X48539109Y56827593D01*
X48551000Y56706860D01*
X48551000Y55293140D01*
X48539109Y55172407D01*
X48505681Y55062211D01*
X48451402Y54960662D01*
X48378351Y54871649D01*
X48289338Y54798598D01*
X48187789Y54744319D01*
X48077593Y54710891D01*
X47956860Y54699000D01*
X46543140Y54699000D01*
X46422407Y54710891D01*
X46312211Y54744319D01*
X46210662Y54798598D01*
X46121649Y54871649D01*
X46048598Y54960662D01*
X45994319Y55062211D01*
X45960891Y55172407D01*
X45949000Y55293140D01*
X45949000Y56706860D01*
X45960891Y56827593D01*
X45994319Y56937789D01*
X46048598Y57039338D01*
X46121649Y57128351D01*
X46210662Y57201402D01*
X46312211Y57255681D01*
X46422407Y57289109D01*
X46543140Y57301000D01*
X47956860Y57301000D01*
X48077593Y57289109D01*
G37*
G36*
X18077593Y57289109D02*
G01*
X18187789Y57255681D01*
X18289338Y57201402D01*
X18378351Y57128351D01*
X18451402Y57039338D01*
X18505681Y56937789D01*
X18539109Y56827593D01*
X18551000Y56706860D01*
X18551000Y55293140D01*
X18539109Y55172407D01*
X18505681Y55062211D01*
X18451402Y54960662D01*
X18378351Y54871649D01*
X18289338Y54798598D01*
X18187789Y54744319D01*
X18077593Y54710891D01*
X17956860Y54699000D01*
X16543140Y54699000D01*
X16422407Y54710891D01*
X16312211Y54744319D01*
X16210662Y54798598D01*
X16121649Y54871649D01*
X16048598Y54960662D01*
X15994319Y55062211D01*
X15960891Y55172407D01*
X15949000Y55293140D01*
X15949000Y56706860D01*
X15960891Y56827593D01*
X15994319Y56937789D01*
X16048598Y57039338D01*
X16121649Y57128351D01*
X16210662Y57201402D01*
X16312211Y57255681D01*
X16422407Y57289109D01*
X16543140Y57301000D01*
X17956860Y57301000D01*
X18077593Y57289109D01*
G37*
G36*
X51577593Y57289109D02*
G01*
X51687789Y57255681D01*
X51789338Y57201402D01*
X51878351Y57128351D01*
X51951402Y57039338D01*
X52005681Y56937789D01*
X52039109Y56827593D01*
X52051000Y56706860D01*
X52051000Y55293140D01*
X52039109Y55172407D01*
X52005681Y55062211D01*
X51951402Y54960662D01*
X51878351Y54871649D01*
X51789338Y54798598D01*
X51687789Y54744319D01*
X51577593Y54710891D01*
X51456860Y54699000D01*
X50043140Y54699000D01*
X49922407Y54710891D01*
X49812211Y54744319D01*
X49710662Y54798598D01*
X49621649Y54871649D01*
X49548598Y54960662D01*
X49494319Y55062211D01*
X49460891Y55172407D01*
X49449000Y55293140D01*
X49449000Y56706860D01*
X49460891Y56827593D01*
X49494319Y56937789D01*
X49548598Y57039338D01*
X49621649Y57128351D01*
X49710662Y57201402D01*
X49812211Y57255681D01*
X49922407Y57289109D01*
X50043140Y57301000D01*
X51456860Y57301000D01*
X51577593Y57289109D01*
G37*
G36*
X35077593Y57289109D02*
G01*
X35187789Y57255681D01*
X35289338Y57201402D01*
X35378351Y57128351D01*
X35451402Y57039338D01*
X35505681Y56937789D01*
X35539109Y56827593D01*
X35551000Y56706860D01*
X35551000Y55293140D01*
X35539109Y55172407D01*
X35505681Y55062211D01*
X35451402Y54960662D01*
X35378351Y54871649D01*
X35289338Y54798598D01*
X35187789Y54744319D01*
X35077593Y54710891D01*
X34956860Y54699000D01*
X33543140Y54699000D01*
X33422407Y54710891D01*
X33312211Y54744319D01*
X33210662Y54798598D01*
X33121649Y54871649D01*
X33048598Y54960662D01*
X32994319Y55062211D01*
X32960891Y55172407D01*
X32949000Y55293140D01*
X32949000Y56706860D01*
X32960891Y56827593D01*
X32994319Y56937789D01*
X33048598Y57039338D01*
X33121649Y57128351D01*
X33210662Y57201402D01*
X33312211Y57255681D01*
X33422407Y57289109D01*
X33543140Y57301000D01*
X34956860Y57301000D01*
X35077593Y57289109D01*
G37*
G36*
X5438953Y63206767D02*
G01*
X5656301Y63163534D01*
X6065775Y62993924D01*
X6434292Y62747689D01*
X6747689Y62434292D01*
X6993924Y62065775D01*
X6993925Y62065773D01*
X7163534Y61656300D01*
X7250000Y61221607D01*
X7250000Y60778393D01*
X7207175Y60563100D01*
X7163534Y60343699D01*
X6993924Y59934225D01*
X6747689Y59565708D01*
X6434292Y59252311D01*
X6065775Y59006076D01*
X5656301Y58836466D01*
X5221607Y58750000D01*
X4778393Y58750000D01*
X4343699Y58836466D01*
X3934225Y59006076D01*
X3565708Y59252311D01*
X3252311Y59565708D01*
X3006076Y59934225D01*
X2836466Y60343699D01*
X2792825Y60563100D01*
X2750000Y60778393D01*
X2750000Y61221607D01*
X2836466Y61656300D01*
X3006075Y62065773D01*
X3006076Y62065775D01*
X3252311Y62434292D01*
X3565708Y62747689D01*
X3934225Y62993924D01*
X4343699Y63163534D01*
X4561047Y63206767D01*
X4778393Y63250000D01*
X5221607Y63250000D01*
X5438953Y63206767D01*
G37*
G36*
X80438953Y63206767D02*
G01*
X80656301Y63163534D01*
X81065775Y62993924D01*
X81434292Y62747689D01*
X81747689Y62434292D01*
X81993924Y62065775D01*
X81993925Y62065773D01*
X82163534Y61656300D01*
X82250000Y61221607D01*
X82250000Y60778393D01*
X82207175Y60563100D01*
X82163534Y60343699D01*
X81993924Y59934225D01*
X81747689Y59565708D01*
X81434292Y59252311D01*
X81065775Y59006076D01*
X80656301Y58836466D01*
X80221607Y58750000D01*
X79778393Y58750000D01*
X79343699Y58836466D01*
X78934225Y59006076D01*
X78565708Y59252311D01*
X78252311Y59565708D01*
X78006076Y59934225D01*
X77836466Y60343699D01*
X77792825Y60563100D01*
X77750000Y60778393D01*
X77750000Y61221607D01*
X77836466Y61656300D01*
X78006075Y62065773D01*
X78006076Y62065775D01*
X78252311Y62434292D01*
X78565708Y62747689D01*
X78934225Y62993924D01*
X79343699Y63163534D01*
X79561047Y63206767D01*
X79778393Y63250000D01*
X80221607Y63250000D01*
X80438953Y63206767D01*
G37*
G36*
X28363228Y60978297D02*
G01*
X28518100Y60914147D01*
X28657481Y60821015D01*
X28776015Y60702481D01*
X28869147Y60563100D01*
X28933297Y60408228D01*
X28966000Y60243816D01*
X28966000Y60076184D01*
X28933297Y59911772D01*
X28869147Y59756900D01*
X28776015Y59617519D01*
X28657481Y59498985D01*
X28518100Y59405853D01*
X28363228Y59341703D01*
X28198816Y59309000D01*
X28031184Y59309000D01*
X27866772Y59341703D01*
X27711900Y59405853D01*
X27572519Y59498985D01*
X27453985Y59617519D01*
X27360853Y59756900D01*
X27296703Y59911772D01*
X27264000Y60076184D01*
X27264000Y60243816D01*
X27296703Y60408228D01*
X27360853Y60563100D01*
X27453985Y60702481D01*
X27572519Y60821015D01*
X27711900Y60914147D01*
X27866772Y60978297D01*
X28031184Y61011000D01*
X28198816Y61011000D01*
X28363228Y60978297D01*
G37*
G36*
X65363228Y60978297D02*
G01*
X65518100Y60914147D01*
X65657481Y60821015D01*
X65776015Y60702481D01*
X65869147Y60563100D01*
X65933297Y60408228D01*
X65966000Y60243816D01*
X65966000Y60076184D01*
X65933297Y59911772D01*
X65869147Y59756900D01*
X65776015Y59617519D01*
X65657481Y59498985D01*
X65518100Y59405853D01*
X65363228Y59341703D01*
X65198816Y59309000D01*
X65031184Y59309000D01*
X64866772Y59341703D01*
X64711900Y59405853D01*
X64572519Y59498985D01*
X64453985Y59617519D01*
X64360853Y59756900D01*
X64296703Y59911772D01*
X64264000Y60076184D01*
X64264000Y60243816D01*
X64296703Y60408228D01*
X64360853Y60563100D01*
X64453985Y60702481D01*
X64572519Y60821015D01*
X64711900Y60914147D01*
X64866772Y60978297D01*
X65031184Y61011000D01*
X65198816Y61011000D01*
X65363228Y60978297D01*
G37*
G36*
X59823228Y60978297D02*
G01*
X59978100Y60914147D01*
X60117481Y60821015D01*
X60236015Y60702481D01*
X60329147Y60563100D01*
X60393297Y60408228D01*
X60426000Y60243816D01*
X60426000Y60076184D01*
X60393297Y59911772D01*
X60329147Y59756900D01*
X60236015Y59617519D01*
X60117481Y59498985D01*
X59978100Y59405853D01*
X59823228Y59341703D01*
X59658816Y59309000D01*
X59491184Y59309000D01*
X59326772Y59341703D01*
X59171900Y59405853D01*
X59032519Y59498985D01*
X58913985Y59617519D01*
X58820853Y59756900D01*
X58756703Y59911772D01*
X58724000Y60076184D01*
X58724000Y60243816D01*
X58756703Y60408228D01*
X58820853Y60563100D01*
X58913985Y60702481D01*
X59032519Y60821015D01*
X59171900Y60914147D01*
X59326772Y60978297D01*
X59491184Y61011000D01*
X59658816Y61011000D01*
X59823228Y60978297D01*
G37*
G36*
X57053228Y60978297D02*
G01*
X57208100Y60914147D01*
X57347481Y60821015D01*
X57466015Y60702481D01*
X57559147Y60563100D01*
X57623297Y60408228D01*
X57656000Y60243816D01*
X57656000Y60076184D01*
X57623297Y59911772D01*
X57559147Y59756900D01*
X57466015Y59617519D01*
X57347481Y59498985D01*
X57208100Y59405853D01*
X57053228Y59341703D01*
X56888816Y59309000D01*
X56721184Y59309000D01*
X56556772Y59341703D01*
X56401900Y59405853D01*
X56262519Y59498985D01*
X56143985Y59617519D01*
X56050853Y59756900D01*
X55986703Y59911772D01*
X55954000Y60076184D01*
X55954000Y60243816D01*
X55986703Y60408228D01*
X56050853Y60563100D01*
X56143985Y60702481D01*
X56262519Y60821015D01*
X56401900Y60914147D01*
X56556772Y60978297D01*
X56721184Y61011000D01*
X56888816Y61011000D01*
X57053228Y60978297D01*
G37*
G36*
X25593228Y60978297D02*
G01*
X25748100Y60914147D01*
X25887481Y60821015D01*
X26006015Y60702481D01*
X26099147Y60563100D01*
X26163297Y60408228D01*
X26196000Y60243816D01*
X26196000Y60076184D01*
X26163297Y59911772D01*
X26099147Y59756900D01*
X26006015Y59617519D01*
X25887481Y59498985D01*
X25748100Y59405853D01*
X25593228Y59341703D01*
X25428816Y59309000D01*
X25261184Y59309000D01*
X25096772Y59341703D01*
X24941900Y59405853D01*
X24802519Y59498985D01*
X24683985Y59617519D01*
X24590853Y59756900D01*
X24526703Y59911772D01*
X24494000Y60076184D01*
X24494000Y60243816D01*
X24526703Y60408228D01*
X24590853Y60563100D01*
X24683985Y60702481D01*
X24802519Y60821015D01*
X24941900Y60914147D01*
X25096772Y60978297D01*
X25261184Y61011000D01*
X25428816Y61011000D01*
X25593228Y60978297D01*
G37*
G36*
X22823228Y60978297D02*
G01*
X22978100Y60914147D01*
X23117481Y60821015D01*
X23236015Y60702481D01*
X23329147Y60563100D01*
X23393297Y60408228D01*
X23426000Y60243816D01*
X23426000Y60076184D01*
X23393297Y59911772D01*
X23329147Y59756900D01*
X23236015Y59617519D01*
X23117481Y59498985D01*
X22978100Y59405853D01*
X22823228Y59341703D01*
X22658816Y59309000D01*
X22491184Y59309000D01*
X22326772Y59341703D01*
X22171900Y59405853D01*
X22032519Y59498985D01*
X21913985Y59617519D01*
X21820853Y59756900D01*
X21756703Y59911772D01*
X21724000Y60076184D01*
X21724000Y60243816D01*
X21756703Y60408228D01*
X21820853Y60563100D01*
X21913985Y60702481D01*
X22032519Y60821015D01*
X22171900Y60914147D01*
X22326772Y60978297D01*
X22491184Y61011000D01*
X22658816Y61011000D01*
X22823228Y60978297D01*
G37*
G36*
X20053228Y60978297D02*
G01*
X20208100Y60914147D01*
X20347481Y60821015D01*
X20466015Y60702481D01*
X20559147Y60563100D01*
X20623297Y60408228D01*
X20656000Y60243816D01*
X20656000Y60076184D01*
X20623297Y59911772D01*
X20559147Y59756900D01*
X20466015Y59617519D01*
X20347481Y59498985D01*
X20208100Y59405853D01*
X20053228Y59341703D01*
X19888816Y59309000D01*
X19721184Y59309000D01*
X19556772Y59341703D01*
X19401900Y59405853D01*
X19262519Y59498985D01*
X19143985Y59617519D01*
X19050853Y59756900D01*
X18986703Y59911772D01*
X18954000Y60076184D01*
X18954000Y60243816D01*
X18986703Y60408228D01*
X19050853Y60563100D01*
X19143985Y60702481D01*
X19262519Y60821015D01*
X19401900Y60914147D01*
X19556772Y60978297D01*
X19721184Y61011000D01*
X19888816Y61011000D01*
X20053228Y60978297D01*
G37*
G36*
X62593228Y60978297D02*
G01*
X62748100Y60914147D01*
X62887481Y60821015D01*
X63006015Y60702481D01*
X63099147Y60563100D01*
X63163297Y60408228D01*
X63196000Y60243816D01*
X63196000Y60076184D01*
X63163297Y59911772D01*
X63099147Y59756900D01*
X63006015Y59617519D01*
X62887481Y59498985D01*
X62748100Y59405853D01*
X62593228Y59341703D01*
X62428816Y59309000D01*
X62261184Y59309000D01*
X62096772Y59341703D01*
X61941900Y59405853D01*
X61802519Y59498985D01*
X61683985Y59617519D01*
X61590853Y59756900D01*
X61526703Y59911772D01*
X61494000Y60076184D01*
X61494000Y60243816D01*
X61526703Y60408228D01*
X61590853Y60563100D01*
X61683985Y60702481D01*
X61802519Y60821015D01*
X61941900Y60914147D01*
X62096772Y60978297D01*
X62261184Y61011000D01*
X62428816Y61011000D01*
X62593228Y60978297D01*
G37*
G36*
X49058254Y63552182D02*
G01*
X49418170Y63403100D01*
X49431513Y63397573D01*
X49767436Y63173116D01*
X50053116Y62887436D01*
X50143765Y62751771D01*
X50277574Y62551511D01*
X50432182Y62178254D01*
X50511000Y61782007D01*
X50511000Y61377993D01*
X50432182Y60981746D01*
X50316506Y60702480D01*
X50277573Y60608487D01*
X50053116Y60272564D01*
X49767436Y59986884D01*
X49431513Y59762427D01*
X49431512Y59762426D01*
X49431511Y59762426D01*
X49058254Y59607818D01*
X48662007Y59529000D01*
X48257993Y59529000D01*
X47861746Y59607818D01*
X47488489Y59762426D01*
X47488488Y59762426D01*
X47488487Y59762427D01*
X47152564Y59986884D01*
X46866884Y60272564D01*
X46642427Y60608487D01*
X46603494Y60702480D01*
X46487818Y60981746D01*
X46409000Y61377993D01*
X46409000Y61782007D01*
X46487818Y62178254D01*
X46642426Y62551511D01*
X46776236Y62751771D01*
X46866884Y62887436D01*
X47152564Y63173116D01*
X47488487Y63397573D01*
X47501830Y63403100D01*
X47861746Y63552182D01*
X48257993Y63631000D01*
X48662007Y63631000D01*
X49058254Y63552182D01*
G37*
G36*
X74058254Y63552182D02*
G01*
X74418170Y63403100D01*
X74431513Y63397573D01*
X74767436Y63173116D01*
X75053116Y62887436D01*
X75143765Y62751771D01*
X75277574Y62551511D01*
X75432182Y62178254D01*
X75511000Y61782007D01*
X75511000Y61377993D01*
X75432182Y60981746D01*
X75316506Y60702480D01*
X75277573Y60608487D01*
X75053116Y60272564D01*
X74767436Y59986884D01*
X74431513Y59762427D01*
X74431512Y59762426D01*
X74431511Y59762426D01*
X74058254Y59607818D01*
X73662007Y59529000D01*
X73257993Y59529000D01*
X72861746Y59607818D01*
X72488489Y59762426D01*
X72488488Y59762426D01*
X72488487Y59762427D01*
X72152564Y59986884D01*
X71866884Y60272564D01*
X71642427Y60608487D01*
X71603494Y60702480D01*
X71487818Y60981746D01*
X71409000Y61377993D01*
X71409000Y61782007D01*
X71487818Y62178254D01*
X71642426Y62551511D01*
X71776236Y62751771D01*
X71866884Y62887436D01*
X72152564Y63173116D01*
X72488487Y63397573D01*
X72501830Y63403100D01*
X72861746Y63552182D01*
X73257993Y63631000D01*
X73662007Y63631000D01*
X74058254Y63552182D01*
G37*
G36*
X12058254Y63552182D02*
G01*
X12418170Y63403100D01*
X12431513Y63397573D01*
X12767436Y63173116D01*
X13053116Y62887436D01*
X13143765Y62751771D01*
X13277574Y62551511D01*
X13432182Y62178254D01*
X13511000Y61782007D01*
X13511000Y61377993D01*
X13432182Y60981746D01*
X13316506Y60702480D01*
X13277573Y60608487D01*
X13053116Y60272564D01*
X12767436Y59986884D01*
X12431513Y59762427D01*
X12431512Y59762426D01*
X12431511Y59762426D01*
X12058254Y59607818D01*
X11662007Y59529000D01*
X11257993Y59529000D01*
X10861746Y59607818D01*
X10488489Y59762426D01*
X10488488Y59762426D01*
X10488487Y59762427D01*
X10152564Y59986884D01*
X9866884Y60272564D01*
X9642427Y60608487D01*
X9603494Y60702480D01*
X9487818Y60981746D01*
X9409000Y61377993D01*
X9409000Y61782007D01*
X9487818Y62178254D01*
X9642426Y62551511D01*
X9776236Y62751771D01*
X9866884Y62887436D01*
X10152564Y63173116D01*
X10488487Y63397573D01*
X10501830Y63403100D01*
X10861746Y63552182D01*
X11257993Y63631000D01*
X11662007Y63631000D01*
X12058254Y63552182D01*
G37*
G36*
X37058254Y63552182D02*
G01*
X37418170Y63403100D01*
X37431513Y63397573D01*
X37767436Y63173116D01*
X38053116Y62887436D01*
X38143765Y62751771D01*
X38277574Y62551511D01*
X38432182Y62178254D01*
X38511000Y61782007D01*
X38511000Y61377993D01*
X38432182Y60981746D01*
X38316506Y60702480D01*
X38277573Y60608487D01*
X38053116Y60272564D01*
X37767436Y59986884D01*
X37431513Y59762427D01*
X37431512Y59762426D01*
X37431511Y59762426D01*
X37058254Y59607818D01*
X36662007Y59529000D01*
X36257993Y59529000D01*
X35861746Y59607818D01*
X35488489Y59762426D01*
X35488488Y59762426D01*
X35488487Y59762427D01*
X35152564Y59986884D01*
X34866884Y60272564D01*
X34642427Y60608487D01*
X34603494Y60702480D01*
X34487818Y60981746D01*
X34409000Y61377993D01*
X34409000Y61782007D01*
X34487818Y62178254D01*
X34642426Y62551511D01*
X34776236Y62751771D01*
X34866884Y62887436D01*
X35152564Y63173116D01*
X35488487Y63397573D01*
X35501830Y63403100D01*
X35861746Y63552182D01*
X36257993Y63631000D01*
X36662007Y63631000D01*
X37058254Y63552182D01*
G37*
G36*
X61208228Y63818297D02*
G01*
X61363100Y63754147D01*
X61502481Y63661015D01*
X61621015Y63542481D01*
X61714147Y63403100D01*
X61778297Y63248228D01*
X61811000Y63083816D01*
X61811000Y62916184D01*
X61778297Y62751772D01*
X61714147Y62596900D01*
X61621015Y62457519D01*
X61502481Y62338985D01*
X61363100Y62245853D01*
X61208228Y62181703D01*
X61043816Y62149000D01*
X60876184Y62149000D01*
X60711772Y62181703D01*
X60556900Y62245853D01*
X60417519Y62338985D01*
X60298985Y62457519D01*
X60205853Y62596900D01*
X60141703Y62751772D01*
X60109000Y62916184D01*
X60109000Y63083816D01*
X60141703Y63248228D01*
X60205853Y63403100D01*
X60298985Y63542481D01*
X60417519Y63661015D01*
X60556900Y63754147D01*
X60711772Y63818297D01*
X60876184Y63851000D01*
X61043816Y63851000D01*
X61208228Y63818297D01*
G37*
G36*
X21438228Y63818297D02*
G01*
X21593100Y63754147D01*
X21732481Y63661015D01*
X21851015Y63542481D01*
X21944147Y63403100D01*
X22008297Y63248228D01*
X22041000Y63083816D01*
X22041000Y62916184D01*
X22008297Y62751772D01*
X21944147Y62596900D01*
X21851015Y62457519D01*
X21732481Y62338985D01*
X21593100Y62245853D01*
X21438228Y62181703D01*
X21273816Y62149000D01*
X21106184Y62149000D01*
X20941772Y62181703D01*
X20786900Y62245853D01*
X20647519Y62338985D01*
X20528985Y62457519D01*
X20435853Y62596900D01*
X20371703Y62751772D01*
X20339000Y62916184D01*
X20339000Y63083816D01*
X20371703Y63248228D01*
X20435853Y63403100D01*
X20528985Y63542481D01*
X20647519Y63661015D01*
X20786900Y63754147D01*
X20941772Y63818297D01*
X21106184Y63851000D01*
X21273816Y63851000D01*
X21438228Y63818297D01*
G37*
G36*
X18668228Y63818297D02*
G01*
X18823100Y63754147D01*
X18962481Y63661015D01*
X19081015Y63542481D01*
X19174147Y63403100D01*
X19238297Y63248228D01*
X19271000Y63083816D01*
X19271000Y62916184D01*
X19238297Y62751772D01*
X19174147Y62596900D01*
X19081015Y62457519D01*
X18962481Y62338985D01*
X18823100Y62245853D01*
X18668228Y62181703D01*
X18503816Y62149000D01*
X18336184Y62149000D01*
X18171772Y62181703D01*
X18016900Y62245853D01*
X17877519Y62338985D01*
X17758985Y62457519D01*
X17665853Y62596900D01*
X17601703Y62751772D01*
X17569000Y62916184D01*
X17569000Y63083816D01*
X17601703Y63248228D01*
X17665853Y63403100D01*
X17758985Y63542481D01*
X17877519Y63661015D01*
X18016900Y63754147D01*
X18171772Y63818297D01*
X18336184Y63851000D01*
X18503816Y63851000D01*
X18668228Y63818297D01*
G37*
G36*
X67351000Y62149000D02*
G01*
X65649000Y62149000D01*
X65649000Y63851000D01*
X67351000Y63851000D01*
X67351000Y62149000D01*
G37*
G36*
X63978228Y63818297D02*
G01*
X64133100Y63754147D01*
X64272481Y63661015D01*
X64391015Y63542481D01*
X64484147Y63403100D01*
X64548297Y63248228D01*
X64581000Y63083816D01*
X64581000Y62916184D01*
X64548297Y62751772D01*
X64484147Y62596900D01*
X64391015Y62457519D01*
X64272481Y62338985D01*
X64133100Y62245853D01*
X63978228Y62181703D01*
X63813816Y62149000D01*
X63646184Y62149000D01*
X63481772Y62181703D01*
X63326900Y62245853D01*
X63187519Y62338985D01*
X63068985Y62457519D01*
X62975853Y62596900D01*
X62911703Y62751772D01*
X62879000Y62916184D01*
X62879000Y63083816D01*
X62911703Y63248228D01*
X62975853Y63403100D01*
X63068985Y63542481D01*
X63187519Y63661015D01*
X63326900Y63754147D01*
X63481772Y63818297D01*
X63646184Y63851000D01*
X63813816Y63851000D01*
X63978228Y63818297D01*
G37*
G36*
X26978228Y63818297D02*
G01*
X27133100Y63754147D01*
X27272481Y63661015D01*
X27391015Y63542481D01*
X27484147Y63403100D01*
X27548297Y63248228D01*
X27581000Y63083816D01*
X27581000Y62916184D01*
X27548297Y62751772D01*
X27484147Y62596900D01*
X27391015Y62457519D01*
X27272481Y62338985D01*
X27133100Y62245853D01*
X26978228Y62181703D01*
X26813816Y62149000D01*
X26646184Y62149000D01*
X26481772Y62181703D01*
X26326900Y62245853D01*
X26187519Y62338985D01*
X26068985Y62457519D01*
X25975853Y62596900D01*
X25911703Y62751772D01*
X25879000Y62916184D01*
X25879000Y63083816D01*
X25911703Y63248228D01*
X25975853Y63403100D01*
X26068985Y63542481D01*
X26187519Y63661015D01*
X26326900Y63754147D01*
X26481772Y63818297D01*
X26646184Y63851000D01*
X26813816Y63851000D01*
X26978228Y63818297D01*
G37*
G36*
X30351000Y62149000D02*
G01*
X28649000Y62149000D01*
X28649000Y63851000D01*
X30351000Y63851000D01*
X30351000Y62149000D01*
G37*
G36*
X55668228Y63818297D02*
G01*
X55823100Y63754147D01*
X55962481Y63661015D01*
X56081015Y63542481D01*
X56174147Y63403100D01*
X56238297Y63248228D01*
X56271000Y63083816D01*
X56271000Y62916184D01*
X56238297Y62751772D01*
X56174147Y62596900D01*
X56081015Y62457519D01*
X55962481Y62338985D01*
X55823100Y62245853D01*
X55668228Y62181703D01*
X55503816Y62149000D01*
X55336184Y62149000D01*
X55171772Y62181703D01*
X55016900Y62245853D01*
X54877519Y62338985D01*
X54758985Y62457519D01*
X54665853Y62596900D01*
X54601703Y62751772D01*
X54569000Y62916184D01*
X54569000Y63083816D01*
X54601703Y63248228D01*
X54665853Y63403100D01*
X54758985Y63542481D01*
X54877519Y63661015D01*
X55016900Y63754147D01*
X55171772Y63818297D01*
X55336184Y63851000D01*
X55503816Y63851000D01*
X55668228Y63818297D01*
G37*
G36*
X58438228Y63818297D02*
G01*
X58593100Y63754147D01*
X58732481Y63661015D01*
X58851015Y63542481D01*
X58944147Y63403100D01*
X59008297Y63248228D01*
X59041000Y63083816D01*
X59041000Y62916184D01*
X59008297Y62751772D01*
X58944147Y62596900D01*
X58851015Y62457519D01*
X58732481Y62338985D01*
X58593100Y62245853D01*
X58438228Y62181703D01*
X58273816Y62149000D01*
X58106184Y62149000D01*
X57941772Y62181703D01*
X57786900Y62245853D01*
X57647519Y62338985D01*
X57528985Y62457519D01*
X57435853Y62596900D01*
X57371703Y62751772D01*
X57339000Y62916184D01*
X57339000Y63083816D01*
X57371703Y63248228D01*
X57435853Y63403100D01*
X57528985Y63542481D01*
X57647519Y63661015D01*
X57786900Y63754147D01*
X57941772Y63818297D01*
X58106184Y63851000D01*
X58273816Y63851000D01*
X58438228Y63818297D01*
G37*
G36*
X24208228Y63818297D02*
G01*
X24363100Y63754147D01*
X24502481Y63661015D01*
X24621015Y63542481D01*
X24714147Y63403100D01*
X24778297Y63248228D01*
X24811000Y63083816D01*
X24811000Y62916184D01*
X24778297Y62751772D01*
X24714147Y62596900D01*
X24621015Y62457519D01*
X24502481Y62338985D01*
X24363100Y62245853D01*
X24208228Y62181703D01*
X24043816Y62149000D01*
X23876184Y62149000D01*
X23711772Y62181703D01*
X23556900Y62245853D01*
X23417519Y62338985D01*
X23298985Y62457519D01*
X23205853Y62596900D01*
X23141703Y62751772D01*
X23109000Y62916184D01*
X23109000Y63083816D01*
X23141703Y63248228D01*
X23205853Y63403100D01*
X23298985Y63542481D01*
X23417519Y63661015D01*
X23556900Y63754147D01*
X23711772Y63818297D01*
X23876184Y63851000D01*
X24043816Y63851000D01*
X24208228Y63818297D01*
G37*
G36*
X8827593Y69039109D02*
G01*
X8937789Y69005681D01*
X9039338Y68951402D01*
X9128351Y68878351D01*
X9201402Y68789338D01*
X9255681Y68687789D01*
X9289109Y68577593D01*
X9301000Y68456860D01*
X9301000Y67043140D01*
X9289109Y66922407D01*
X9255681Y66812211D01*
X9201402Y66710662D01*
X9128351Y66621649D01*
X9039338Y66548598D01*
X8937789Y66494319D01*
X8827593Y66460891D01*
X8706860Y66449000D01*
X7293140Y66449000D01*
X7172407Y66460891D01*
X7062211Y66494319D01*
X6960662Y66548598D01*
X6871649Y66621649D01*
X6798598Y66710662D01*
X6744319Y66812211D01*
X6710891Y66922407D01*
X6699000Y67043140D01*
X6699000Y68456860D01*
X6710891Y68577593D01*
X6744319Y68687789D01*
X6798598Y68789338D01*
X6871649Y68878351D01*
X6960662Y68951402D01*
X7062211Y69005681D01*
X7172407Y69039109D01*
X7293140Y69051000D01*
X8706860Y69051000D01*
X8827593Y69039109D01*
G37*
G36*
X25012199Y69700046D02*
G01*
X25024450Y69699444D01*
X25042869Y69699444D01*
X25065149Y69697250D01*
X25149233Y69680524D01*
X25170660Y69674024D01*
X25249858Y69641220D01*
X25255303Y69638309D01*
X25255309Y69638307D01*
X25264169Y69633571D01*
X25264173Y69633568D01*
X25269614Y69630660D01*
X25340899Y69583029D01*
X25358204Y69568828D01*
X25418828Y69508204D01*
X25433029Y69490899D01*
X25480660Y69419614D01*
X25483568Y69414173D01*
X25483571Y69414169D01*
X25488307Y69405309D01*
X25488309Y69405303D01*
X25491220Y69399858D01*
X25524024Y69320660D01*
X25530524Y69299233D01*
X25547250Y69215149D01*
X25549444Y69192869D01*
X25549444Y69174450D01*
X25550046Y69162199D01*
X25551852Y69143861D01*
X25551852Y68656140D01*
X25550263Y68640001D01*
X25547348Y68630392D01*
X25542610Y68621528D01*
X25536237Y68613763D01*
X25523794Y68603552D01*
X25513425Y68596622D01*
X25496098Y68579295D01*
X25482485Y68558920D01*
X25473109Y68536280D01*
X25468329Y68512247D01*
X25468330Y68487743D01*
X25473112Y68463710D01*
X25482490Y68441071D01*
X25496105Y68420698D01*
X25513432Y68403371D01*
X25523802Y68396442D01*
X25536237Y68386237D01*
X25542610Y68378472D01*
X25547348Y68369608D01*
X25550263Y68359999D01*
X25551852Y68343860D01*
X25551852Y67856138D01*
X25550046Y67837801D01*
X25549444Y67825550D01*
X25549444Y67807131D01*
X25547250Y67784851D01*
X25530524Y67700767D01*
X25524024Y67679340D01*
X25491220Y67600142D01*
X25488309Y67594697D01*
X25488307Y67594691D01*
X25483571Y67585831D01*
X25483568Y67585827D01*
X25480660Y67580386D01*
X25433029Y67509101D01*
X25418828Y67491796D01*
X25358204Y67431172D01*
X25340899Y67416971D01*
X25269614Y67369340D01*
X25264173Y67366432D01*
X25264169Y67366429D01*
X25255309Y67361693D01*
X25255303Y67361691D01*
X25249858Y67358780D01*
X25170660Y67325976D01*
X25149233Y67319476D01*
X25065149Y67302750D01*
X25042869Y67300556D01*
X25024450Y67300556D01*
X25012199Y67299954D01*
X24993862Y67298148D01*
X24506138Y67298148D01*
X24487801Y67299954D01*
X24475550Y67300556D01*
X24457131Y67300556D01*
X24434851Y67302750D01*
X24350767Y67319476D01*
X24329340Y67325976D01*
X24250142Y67358780D01*
X24244697Y67361691D01*
X24244691Y67361693D01*
X24235831Y67366429D01*
X24235827Y67366432D01*
X24230386Y67369340D01*
X24159101Y67416971D01*
X24141796Y67431172D01*
X24081172Y67491796D01*
X24066971Y67509101D01*
X24019340Y67580386D01*
X24016432Y67585827D01*
X24016429Y67585831D01*
X24011693Y67594691D01*
X24011691Y67594697D01*
X24008780Y67600142D01*
X23975976Y67679340D01*
X23969476Y67700767D01*
X23952750Y67784851D01*
X23950556Y67807131D01*
X23950556Y67825550D01*
X23949954Y67837801D01*
X23948148Y67856138D01*
X23948148Y68343860D01*
X23949737Y68359999D01*
X23952652Y68369608D01*
X23957390Y68378472D01*
X23963763Y68386237D01*
X23976206Y68396448D01*
X23986575Y68403378D01*
X24003902Y68420705D01*
X24017515Y68441080D01*
X24026891Y68463720D01*
X24031671Y68487753D01*
X24031670Y68512257D01*
X24026888Y68536290D01*
X24017510Y68558929D01*
X24003895Y68579302D01*
X23986568Y68596629D01*
X23976198Y68603558D01*
X23963763Y68613763D01*
X23957390Y68621528D01*
X23952652Y68630392D01*
X23949737Y68640001D01*
X23948148Y68656140D01*
X23948148Y69143861D01*
X23949954Y69162199D01*
X23950556Y69174450D01*
X23950556Y69192869D01*
X23952750Y69215149D01*
X23969476Y69299233D01*
X23975976Y69320660D01*
X24008780Y69399858D01*
X24011691Y69405303D01*
X24011693Y69405309D01*
X24016429Y69414169D01*
X24016432Y69414173D01*
X24019340Y69419614D01*
X24066971Y69490899D01*
X24081172Y69508204D01*
X24141796Y69568828D01*
X24159101Y69583029D01*
X24230386Y69630660D01*
X24235827Y69633568D01*
X24235831Y69633571D01*
X24244691Y69638307D01*
X24244697Y69638309D01*
X24250142Y69641220D01*
X24329340Y69674024D01*
X24350767Y69680524D01*
X24434851Y69697250D01*
X24457131Y69699444D01*
X24475550Y69699444D01*
X24487801Y69700046D01*
X24506139Y69701852D01*
X24993861Y69701852D01*
X25012199Y69700046D01*
G37*
G36*
X21012199Y69800046D02*
G01*
X21024450Y69799444D01*
X21042869Y69799444D01*
X21065149Y69797250D01*
X21149233Y69780524D01*
X21170660Y69774024D01*
X21249858Y69741220D01*
X21255303Y69738309D01*
X21255309Y69738307D01*
X21264169Y69733571D01*
X21264173Y69733568D01*
X21269614Y69730660D01*
X21340899Y69683029D01*
X21358204Y69668828D01*
X21418828Y69608204D01*
X21433029Y69590899D01*
X21480660Y69519614D01*
X21483568Y69514173D01*
X21483571Y69514169D01*
X21488307Y69505309D01*
X21488309Y69505303D01*
X21491220Y69499858D01*
X21524024Y69420660D01*
X21530524Y69399233D01*
X21547250Y69315149D01*
X21549444Y69292869D01*
X21549444Y69274450D01*
X21550046Y69262199D01*
X21551852Y69243861D01*
X21551852Y68756140D01*
X21550263Y68740001D01*
X21547348Y68730392D01*
X21542610Y68721528D01*
X21536237Y68713763D01*
X21523794Y68703552D01*
X21513425Y68696622D01*
X21496098Y68679295D01*
X21482485Y68658920D01*
X21473109Y68636280D01*
X21468329Y68612247D01*
X21468330Y68587743D01*
X21473112Y68563710D01*
X21482490Y68541071D01*
X21496105Y68520698D01*
X21513432Y68503371D01*
X21523802Y68496442D01*
X21536237Y68486237D01*
X21542610Y68478472D01*
X21547348Y68469608D01*
X21550263Y68459999D01*
X21551852Y68443860D01*
X21551852Y67956138D01*
X21550046Y67937801D01*
X21549444Y67925550D01*
X21549444Y67907131D01*
X21547250Y67884851D01*
X21530524Y67800767D01*
X21524024Y67779340D01*
X21491220Y67700142D01*
X21488309Y67694697D01*
X21488307Y67694691D01*
X21483571Y67685831D01*
X21483568Y67685827D01*
X21480660Y67680386D01*
X21433029Y67609101D01*
X21418828Y67591796D01*
X21358204Y67531172D01*
X21340899Y67516971D01*
X21269614Y67469340D01*
X21264173Y67466432D01*
X21264169Y67466429D01*
X21255309Y67461693D01*
X21255303Y67461691D01*
X21249858Y67458780D01*
X21170660Y67425976D01*
X21149233Y67419476D01*
X21065149Y67402750D01*
X21042869Y67400556D01*
X21024450Y67400556D01*
X21012199Y67399954D01*
X20993862Y67398148D01*
X20506138Y67398148D01*
X20487801Y67399954D01*
X20475550Y67400556D01*
X20457131Y67400556D01*
X20434851Y67402750D01*
X20350767Y67419476D01*
X20329340Y67425976D01*
X20250142Y67458780D01*
X20244697Y67461691D01*
X20244691Y67461693D01*
X20235831Y67466429D01*
X20235827Y67466432D01*
X20230386Y67469340D01*
X20159101Y67516971D01*
X20141796Y67531172D01*
X20081172Y67591796D01*
X20066971Y67609101D01*
X20019340Y67680386D01*
X20016432Y67685827D01*
X20016429Y67685831D01*
X20011693Y67694691D01*
X20011691Y67694697D01*
X20008780Y67700142D01*
X19975976Y67779340D01*
X19969476Y67800767D01*
X19952750Y67884851D01*
X19950556Y67907131D01*
X19950556Y67925550D01*
X19949954Y67937801D01*
X19948148Y67956138D01*
X19948148Y68443860D01*
X19949737Y68459999D01*
X19952652Y68469608D01*
X19957390Y68478472D01*
X19963763Y68486237D01*
X19976206Y68496448D01*
X19986575Y68503378D01*
X20003902Y68520705D01*
X20017515Y68541080D01*
X20026891Y68563720D01*
X20031671Y68587753D01*
X20031670Y68612257D01*
X20026888Y68636290D01*
X20017510Y68658929D01*
X20003895Y68679302D01*
X19986568Y68696629D01*
X19976198Y68703558D01*
X19963763Y68713763D01*
X19957390Y68721528D01*
X19952652Y68730392D01*
X19949737Y68740001D01*
X19948148Y68756140D01*
X19948148Y69243861D01*
X19949954Y69262199D01*
X19950556Y69274450D01*
X19950556Y69292869D01*
X19952750Y69315149D01*
X19969476Y69399233D01*
X19975976Y69420660D01*
X20008780Y69499858D01*
X20011691Y69505303D01*
X20011693Y69505309D01*
X20016429Y69514169D01*
X20016432Y69514173D01*
X20019340Y69519614D01*
X20066971Y69590899D01*
X20081172Y69608204D01*
X20141796Y69668828D01*
X20159101Y69683029D01*
X20230386Y69730660D01*
X20235827Y69733568D01*
X20235831Y69733571D01*
X20244691Y69738307D01*
X20244697Y69738309D01*
X20250142Y69741220D01*
X20329340Y69774024D01*
X20350767Y69780524D01*
X20434851Y69797250D01*
X20457131Y69799444D01*
X20475550Y69799444D01*
X20487801Y69800046D01*
X20506139Y69801852D01*
X20993861Y69801852D01*
X21012199Y69800046D01*
G37*
G36*
X29012199Y69800046D02*
G01*
X29024450Y69799444D01*
X29042869Y69799444D01*
X29065149Y69797250D01*
X29149233Y69780524D01*
X29170660Y69774024D01*
X29249858Y69741220D01*
X29255303Y69738309D01*
X29255309Y69738307D01*
X29264169Y69733571D01*
X29264173Y69733568D01*
X29269614Y69730660D01*
X29340899Y69683029D01*
X29358204Y69668828D01*
X29418828Y69608204D01*
X29433029Y69590899D01*
X29480660Y69519614D01*
X29483568Y69514173D01*
X29483571Y69514169D01*
X29488307Y69505309D01*
X29488309Y69505303D01*
X29491220Y69499858D01*
X29524024Y69420660D01*
X29530524Y69399233D01*
X29547250Y69315149D01*
X29549444Y69292869D01*
X29549444Y69274450D01*
X29550046Y69262199D01*
X29551852Y69243861D01*
X29551852Y68756140D01*
X29550263Y68740001D01*
X29547348Y68730392D01*
X29542610Y68721528D01*
X29536237Y68713763D01*
X29523794Y68703552D01*
X29513425Y68696622D01*
X29496098Y68679295D01*
X29482485Y68658920D01*
X29473109Y68636280D01*
X29468329Y68612247D01*
X29468330Y68587743D01*
X29473112Y68563710D01*
X29482490Y68541071D01*
X29496105Y68520698D01*
X29513432Y68503371D01*
X29523802Y68496442D01*
X29536237Y68486237D01*
X29542610Y68478472D01*
X29547348Y68469608D01*
X29550263Y68459999D01*
X29551852Y68443860D01*
X29551852Y67956138D01*
X29550046Y67937801D01*
X29549444Y67925550D01*
X29549444Y67907131D01*
X29547250Y67884851D01*
X29530524Y67800767D01*
X29524024Y67779340D01*
X29491220Y67700142D01*
X29488309Y67694697D01*
X29488307Y67694691D01*
X29483571Y67685831D01*
X29483568Y67685827D01*
X29480660Y67680386D01*
X29433029Y67609101D01*
X29418828Y67591796D01*
X29358204Y67531172D01*
X29340899Y67516971D01*
X29269614Y67469340D01*
X29264173Y67466432D01*
X29264169Y67466429D01*
X29255309Y67461693D01*
X29255303Y67461691D01*
X29249858Y67458780D01*
X29170660Y67425976D01*
X29149233Y67419476D01*
X29065149Y67402750D01*
X29042869Y67400556D01*
X29024450Y67400556D01*
X29012199Y67399954D01*
X28993862Y67398148D01*
X28506138Y67398148D01*
X28487801Y67399954D01*
X28475550Y67400556D01*
X28457131Y67400556D01*
X28434851Y67402750D01*
X28350767Y67419476D01*
X28329340Y67425976D01*
X28250142Y67458780D01*
X28244697Y67461691D01*
X28244691Y67461693D01*
X28235831Y67466429D01*
X28235827Y67466432D01*
X28230386Y67469340D01*
X28159101Y67516971D01*
X28141796Y67531172D01*
X28081172Y67591796D01*
X28066971Y67609101D01*
X28019340Y67680386D01*
X28016432Y67685827D01*
X28016429Y67685831D01*
X28011693Y67694691D01*
X28011691Y67694697D01*
X28008780Y67700142D01*
X27975976Y67779340D01*
X27969476Y67800767D01*
X27952750Y67884851D01*
X27950556Y67907131D01*
X27950556Y67925550D01*
X27949954Y67937801D01*
X27948148Y67956138D01*
X27948148Y68443860D01*
X27949737Y68459999D01*
X27952652Y68469608D01*
X27957390Y68478472D01*
X27963763Y68486237D01*
X27976206Y68496448D01*
X27986575Y68503378D01*
X28003902Y68520705D01*
X28017515Y68541080D01*
X28026891Y68563720D01*
X28031671Y68587753D01*
X28031670Y68612257D01*
X28026888Y68636290D01*
X28017510Y68658929D01*
X28003895Y68679302D01*
X27986568Y68696629D01*
X27976198Y68703558D01*
X27963763Y68713763D01*
X27957390Y68721528D01*
X27952652Y68730392D01*
X27949737Y68740001D01*
X27948148Y68756140D01*
X27948148Y69243861D01*
X27949954Y69262199D01*
X27950556Y69274450D01*
X27950556Y69292869D01*
X27952750Y69315149D01*
X27969476Y69399233D01*
X27975976Y69420660D01*
X28008780Y69499858D01*
X28011691Y69505303D01*
X28011693Y69505309D01*
X28016429Y69514169D01*
X28016432Y69514173D01*
X28019340Y69519614D01*
X28066971Y69590899D01*
X28081172Y69608204D01*
X28141796Y69668828D01*
X28159101Y69683029D01*
X28230386Y69730660D01*
X28235827Y69733568D01*
X28235831Y69733571D01*
X28244691Y69738307D01*
X28244697Y69738309D01*
X28250142Y69741220D01*
X28329340Y69774024D01*
X28350767Y69780524D01*
X28434851Y69797250D01*
X28457131Y69799444D01*
X28475550Y69799444D01*
X28487801Y69800046D01*
X28506139Y69801852D01*
X28993861Y69801852D01*
X29012199Y69800046D01*
G37*
G36*
X77827593Y70539109D02*
G01*
X77937789Y70505681D01*
X78039338Y70451402D01*
X78128351Y70378351D01*
X78201402Y70289338D01*
X78255681Y70187789D01*
X78289109Y70077593D01*
X78301000Y69956860D01*
X78301000Y68543140D01*
X78289109Y68422407D01*
X78255681Y68312211D01*
X78201402Y68210662D01*
X78128351Y68121649D01*
X78039338Y68048598D01*
X77937789Y67994319D01*
X77827593Y67960891D01*
X77706860Y67949000D01*
X76293140Y67949000D01*
X76172407Y67960891D01*
X76062211Y67994319D01*
X75960662Y68048598D01*
X75871649Y68121649D01*
X75798598Y68210662D01*
X75744319Y68312211D01*
X75710891Y68422407D01*
X75699000Y68543140D01*
X75699000Y69956860D01*
X75710891Y70077593D01*
X75744319Y70187789D01*
X75798598Y70289338D01*
X75871649Y70378351D01*
X75960662Y70451402D01*
X76062211Y70505681D01*
X76172407Y70539109D01*
X76293140Y70551000D01*
X77706860Y70551000D01*
X77827593Y70539109D01*
G37*
G36*
X8827593Y72539109D02*
G01*
X8937789Y72505681D01*
X9039338Y72451402D01*
X9128351Y72378351D01*
X9201402Y72289338D01*
X9255681Y72187789D01*
X9289109Y72077593D01*
X9301000Y71956860D01*
X9301000Y70543140D01*
X9289109Y70422407D01*
X9255681Y70312211D01*
X9201402Y70210662D01*
X9128351Y70121649D01*
X9039338Y70048598D01*
X8937789Y69994319D01*
X8827593Y69960891D01*
X8706860Y69949000D01*
X7293140Y69949000D01*
X7172407Y69960891D01*
X7062211Y69994319D01*
X6960662Y70048598D01*
X6871649Y70121649D01*
X6798598Y70210662D01*
X6744319Y70312211D01*
X6710891Y70422407D01*
X6699000Y70543140D01*
X6699000Y71956860D01*
X6710891Y72077593D01*
X6744319Y72187789D01*
X6798598Y72289338D01*
X6871649Y72378351D01*
X6960662Y72451402D01*
X7062211Y72505681D01*
X7172407Y72539109D01*
X7293140Y72551000D01*
X8706860Y72551000D01*
X8827593Y72539109D01*
G37*
G36*
X77827593Y74039109D02*
G01*
X77937789Y74005681D01*
X78039338Y73951402D01*
X78128351Y73878351D01*
X78201402Y73789338D01*
X78255681Y73687789D01*
X78289109Y73577593D01*
X78301000Y73456860D01*
X78301000Y72043140D01*
X78289109Y71922407D01*
X78255681Y71812211D01*
X78201402Y71710662D01*
X78128351Y71621649D01*
X78039338Y71548598D01*
X77937789Y71494319D01*
X77827593Y71460891D01*
X77706860Y71449000D01*
X76293140Y71449000D01*
X76172407Y71460891D01*
X76062211Y71494319D01*
X75960662Y71548598D01*
X75871649Y71621649D01*
X75798598Y71710662D01*
X75744319Y71812211D01*
X75710891Y71922407D01*
X75699000Y72043140D01*
X75699000Y73456860D01*
X75710891Y73577593D01*
X75744319Y73687789D01*
X75798598Y73789338D01*
X75871649Y73878351D01*
X75960662Y73951402D01*
X76062211Y74005681D01*
X76172407Y74039109D01*
X76293140Y74051000D01*
X77706860Y74051000D01*
X77827593Y74039109D01*
G37*
G36*
X8827593Y77539109D02*
G01*
X8937789Y77505681D01*
X9039338Y77451402D01*
X9128351Y77378351D01*
X9201402Y77289338D01*
X9255681Y77187789D01*
X9289109Y77077593D01*
X9301000Y76956860D01*
X9301000Y75543140D01*
X9289109Y75422407D01*
X9255681Y75312211D01*
X9201402Y75210662D01*
X9128351Y75121649D01*
X9039338Y75048598D01*
X8937789Y74994319D01*
X8827593Y74960891D01*
X8706860Y74949000D01*
X7293140Y74949000D01*
X7172407Y74960891D01*
X7062211Y74994319D01*
X6960662Y75048598D01*
X6871649Y75121649D01*
X6798598Y75210662D01*
X6744319Y75312211D01*
X6710891Y75422407D01*
X6699000Y75543140D01*
X6699000Y76956860D01*
X6710891Y77077593D01*
X6744319Y77187789D01*
X6798598Y77289338D01*
X6871649Y77378351D01*
X6960662Y77451402D01*
X7062211Y77505681D01*
X7172407Y77539109D01*
X7293140Y77551000D01*
X8706860Y77551000D01*
X8827593Y77539109D01*
G37*
G36*
X8827593Y81039109D02*
G01*
X8937789Y81005681D01*
X9039338Y80951402D01*
X9128351Y80878351D01*
X9201402Y80789338D01*
X9255681Y80687789D01*
X9289109Y80577593D01*
X9301000Y80456860D01*
X9301000Y79043140D01*
X9289109Y78922407D01*
X9255681Y78812211D01*
X9201402Y78710662D01*
X9128351Y78621649D01*
X9039338Y78548598D01*
X8937789Y78494319D01*
X8827593Y78460891D01*
X8706860Y78449000D01*
X7293140Y78449000D01*
X7172407Y78460891D01*
X7062211Y78494319D01*
X6960662Y78548598D01*
X6871649Y78621649D01*
X6798598Y78710662D01*
X6744319Y78812211D01*
X6710891Y78922407D01*
X6699000Y79043140D01*
X6699000Y80456860D01*
X6710891Y80577593D01*
X6744319Y80687789D01*
X6798598Y80789338D01*
X6871649Y80878351D01*
X6960662Y80951402D01*
X7062211Y81005681D01*
X7172407Y81039109D01*
X7293140Y81051000D01*
X8706860Y81051000D01*
X8827593Y81039109D01*
G37*
G36*
X5438953Y88206767D02*
G01*
X5656301Y88163534D01*
X6065775Y87993924D01*
X6434292Y87747689D01*
X6747689Y87434292D01*
X6993924Y87065775D01*
X7163534Y86656301D01*
X7250000Y86221606D01*
X7250000Y85778394D01*
X7163534Y85343699D01*
X6993924Y84934225D01*
X6747689Y84565708D01*
X6434292Y84252311D01*
X6065775Y84006076D01*
X5656301Y83836466D01*
X5221607Y83750000D01*
X4778393Y83750000D01*
X4343699Y83836466D01*
X3934225Y84006076D01*
X3565708Y84252311D01*
X3252311Y84565708D01*
X3006076Y84934225D01*
X2836466Y85343699D01*
X2750000Y85778394D01*
X2750000Y86221606D01*
X2836466Y86656301D01*
X3006076Y87065775D01*
X3252311Y87434292D01*
X3565708Y87747689D01*
X3934225Y87993924D01*
X4343699Y88163534D01*
X4561047Y88206767D01*
X4778393Y88250000D01*
X5221607Y88250000D01*
X5438953Y88206767D01*
G37*
G36*
X80438953Y88206767D02*
G01*
X80656301Y88163534D01*
X81065775Y87993924D01*
X81434292Y87747689D01*
X81747689Y87434292D01*
X81993924Y87065775D01*
X82163534Y86656301D01*
X82250000Y86221606D01*
X82250000Y85778394D01*
X82163534Y85343699D01*
X81993924Y84934225D01*
X81747689Y84565708D01*
X81434292Y84252311D01*
X81065775Y84006076D01*
X80656301Y83836466D01*
X80221607Y83750000D01*
X79778393Y83750000D01*
X79343699Y83836466D01*
X78934225Y84006076D01*
X78565708Y84252311D01*
X78252311Y84565708D01*
X78006076Y84934225D01*
X77836466Y85343699D01*
X77750000Y85778394D01*
X77750000Y86221606D01*
X77836466Y86656301D01*
X78006076Y87065775D01*
X78252311Y87434292D01*
X78565708Y87747689D01*
X78934225Y87993924D01*
X79343699Y88163534D01*
X79561047Y88206767D01*
X79778393Y88250000D01*
X80221607Y88250000D01*
X80438953Y88206767D01*
G37*
M02*
