G04 #@! TF.GenerationSoftware,KiCad,Pcbnew,(5.1.5)-3*
G04 #@! TF.CreationDate,2020-04-27T20:32:12+02:00*
G04 #@! TF.ProjectId,ICHaus,49434861-7573-42e6-9b69-6361645f7063,rev?*
G04 #@! TF.SameCoordinates,Original*
G04 #@! TF.FileFunction,Copper,L2,Bot*
G04 #@! TF.FilePolarity,Positive*
%FSLAX46Y46*%
G04 Gerber Fmt 4.6, Leading zero omitted, Abs format (unit mm)*
G04 Created by KiCad (PCBNEW (5.1.5)-3) date 2020-04-27 20:32:12*
%MOMM*%
%LPD*%
G04 APERTURE LIST*
%ADD10R,0.500000X0.500000*%
%ADD11C,0.100000*%
%ADD12C,1.500000*%
%ADD13R,1.600000X1.600000*%
%ADD14C,1.600000*%
%ADD15C,4.000000*%
%ADD16C,0.600000*%
%ADD17C,0.800000*%
%ADD18C,0.500000*%
%ADD19C,0.250000*%
%ADD20C,0.254000*%
G04 APERTURE END LIST*
D10*
X78750000Y-147000000D03*
X79250000Y-147000000D03*
X79750000Y-147000000D03*
X80250000Y-147000000D03*
X80750000Y-147000000D03*
X81250000Y-147000000D03*
X81750000Y-147000000D03*
X82750000Y-147000000D03*
X83250000Y-147000000D03*
X85250000Y-147000000D03*
X85750000Y-147000000D03*
X86750000Y-147000000D03*
X87750000Y-147000000D03*
X88250000Y-147000000D03*
X89250000Y-147000000D03*
X90250000Y-147000000D03*
X91750000Y-147000000D03*
X92250000Y-147000000D03*
X92750000Y-147000000D03*
X93250000Y-147000000D03*
X93750000Y-147000000D03*
X94250000Y-147000000D03*
X94750000Y-147000000D03*
X78750000Y-146500000D03*
X81750000Y-146500000D03*
X82750000Y-146500000D03*
X83250000Y-146500000D03*
X83750000Y-146500000D03*
X84750000Y-146500000D03*
X85250000Y-146500000D03*
X86750000Y-146500000D03*
X87250000Y-146500000D03*
X87750000Y-146500000D03*
X89250000Y-146500000D03*
X90250000Y-146500000D03*
X90750000Y-146500000D03*
X91750000Y-146500000D03*
X94750000Y-146500000D03*
X78750000Y-146000000D03*
X79750000Y-146000000D03*
X80250000Y-146000000D03*
X80750000Y-146000000D03*
X81750000Y-146000000D03*
X83750000Y-146000000D03*
X84250000Y-146000000D03*
X84750000Y-146000000D03*
X86250000Y-146000000D03*
X87750000Y-146000000D03*
X88250000Y-146000000D03*
X88750000Y-146000000D03*
X91750000Y-146000000D03*
X92750000Y-146000000D03*
X93250000Y-146000000D03*
X93750000Y-146000000D03*
X94750000Y-146000000D03*
X78750000Y-145500000D03*
X79750000Y-145500000D03*
X80250000Y-145500000D03*
X80750000Y-145500000D03*
X81750000Y-145500000D03*
X82750000Y-145500000D03*
X83250000Y-145500000D03*
X84750000Y-145500000D03*
X85750000Y-145500000D03*
X86750000Y-145500000D03*
X87250000Y-145500000D03*
X89750000Y-145500000D03*
X90250000Y-145500000D03*
X91750000Y-145500000D03*
X92750000Y-145500000D03*
X93250000Y-145500000D03*
X93750000Y-145500000D03*
X94750000Y-145500000D03*
X78750000Y-145000000D03*
X79750000Y-145000000D03*
X80250000Y-145000000D03*
X80750000Y-145000000D03*
X81750000Y-145000000D03*
X83750000Y-145000000D03*
X84250000Y-145000000D03*
X84750000Y-145000000D03*
X85750000Y-145000000D03*
X88250000Y-145000000D03*
X90750000Y-145000000D03*
X91750000Y-145000000D03*
X92750000Y-145000000D03*
X93250000Y-145000000D03*
X93750000Y-145000000D03*
X94750000Y-145000000D03*
X78750000Y-144500000D03*
X81750000Y-144500000D03*
X83250000Y-144500000D03*
X83750000Y-144500000D03*
X84250000Y-144500000D03*
X85250000Y-144500000D03*
X87250000Y-144500000D03*
X87750000Y-144500000D03*
X88250000Y-144500000D03*
X88750000Y-144500000D03*
X89250000Y-144500000D03*
X89750000Y-144500000D03*
X90750000Y-144500000D03*
X91750000Y-144500000D03*
X94750000Y-144500000D03*
X78750000Y-144000000D03*
X79250000Y-144000000D03*
X79750000Y-144000000D03*
X80250000Y-144000000D03*
X80750000Y-144000000D03*
X81250000Y-144000000D03*
X81750000Y-144000000D03*
X82750000Y-144000000D03*
X83750000Y-144000000D03*
X84750000Y-144000000D03*
X85750000Y-144000000D03*
X86750000Y-144000000D03*
X87750000Y-144000000D03*
X88750000Y-144000000D03*
X89750000Y-144000000D03*
X90750000Y-144000000D03*
X91750000Y-144000000D03*
X92250000Y-144000000D03*
X92750000Y-144000000D03*
X93250000Y-144000000D03*
X93750000Y-144000000D03*
X94250000Y-144000000D03*
X94750000Y-144000000D03*
X82750000Y-143500000D03*
X83250000Y-143500000D03*
X84250000Y-143500000D03*
X85750000Y-143500000D03*
X87250000Y-143500000D03*
X87750000Y-143500000D03*
X88750000Y-143500000D03*
X89750000Y-143500000D03*
X90250000Y-143500000D03*
X78750000Y-143000000D03*
X79750000Y-143000000D03*
X80250000Y-143000000D03*
X81250000Y-143000000D03*
X81750000Y-143000000D03*
X82250000Y-143000000D03*
X83250000Y-143000000D03*
X83750000Y-143000000D03*
X84750000Y-143000000D03*
X85750000Y-143000000D03*
X86750000Y-143000000D03*
X87250000Y-143000000D03*
X87750000Y-143000000D03*
X88250000Y-143000000D03*
X89250000Y-143000000D03*
X91750000Y-143000000D03*
X93250000Y-143000000D03*
X94250000Y-143000000D03*
X94750000Y-143000000D03*
X78750000Y-142500000D03*
X80250000Y-142500000D03*
X82250000Y-142500000D03*
X83750000Y-142500000D03*
X84750000Y-142500000D03*
X87250000Y-142500000D03*
X88250000Y-142500000D03*
X88750000Y-142500000D03*
X90250000Y-142500000D03*
X91750000Y-142500000D03*
X92250000Y-142500000D03*
X93250000Y-142500000D03*
X93750000Y-142500000D03*
X78750000Y-142000000D03*
X79750000Y-142000000D03*
X80250000Y-142000000D03*
X81250000Y-142000000D03*
X81750000Y-142000000D03*
X82250000Y-142000000D03*
X82750000Y-142000000D03*
X83250000Y-142000000D03*
X84250000Y-142000000D03*
X85750000Y-142000000D03*
X87750000Y-142000000D03*
X88750000Y-142000000D03*
X90250000Y-142000000D03*
X92250000Y-142000000D03*
X92750000Y-142000000D03*
X93250000Y-142000000D03*
X94250000Y-142000000D03*
X94750000Y-142000000D03*
X78750000Y-141500000D03*
X79250000Y-141500000D03*
X79750000Y-141500000D03*
X80250000Y-141500000D03*
X81250000Y-141500000D03*
X82750000Y-141500000D03*
X83250000Y-141500000D03*
X84250000Y-141500000D03*
X85250000Y-141500000D03*
X85750000Y-141500000D03*
X88250000Y-141500000D03*
X88750000Y-141500000D03*
X89750000Y-141500000D03*
X90250000Y-141500000D03*
X90750000Y-141500000D03*
X91250000Y-141500000D03*
X92250000Y-141500000D03*
X93250000Y-141500000D03*
X94750000Y-141500000D03*
X78750000Y-141000000D03*
X79250000Y-141000000D03*
X79750000Y-141000000D03*
X80250000Y-141000000D03*
X81750000Y-141000000D03*
X82250000Y-141000000D03*
X83750000Y-141000000D03*
X84750000Y-141000000D03*
X86250000Y-141000000D03*
X87250000Y-141000000D03*
X87750000Y-141000000D03*
X88750000Y-141000000D03*
X89750000Y-141000000D03*
X90250000Y-141000000D03*
X90750000Y-141000000D03*
X91250000Y-141000000D03*
X92250000Y-141000000D03*
X93250000Y-141000000D03*
X94250000Y-141000000D03*
X94750000Y-141000000D03*
X80250000Y-140500000D03*
X82250000Y-140500000D03*
X85250000Y-140500000D03*
X86750000Y-140500000D03*
X87250000Y-140500000D03*
X88250000Y-140500000D03*
X88750000Y-140500000D03*
X89250000Y-140500000D03*
X90750000Y-140500000D03*
X91250000Y-140500000D03*
X91750000Y-140500000D03*
X92250000Y-140500000D03*
X93750000Y-140500000D03*
X94250000Y-140500000D03*
X79250000Y-140000000D03*
X79750000Y-140000000D03*
X80750000Y-140000000D03*
X81750000Y-140000000D03*
X84250000Y-140000000D03*
X86250000Y-140000000D03*
X86750000Y-140000000D03*
X87750000Y-140000000D03*
X88250000Y-140000000D03*
X88750000Y-140000000D03*
X89750000Y-140000000D03*
X91750000Y-140000000D03*
X93750000Y-140000000D03*
X79250000Y-139500000D03*
X80250000Y-139500000D03*
X82250000Y-139500000D03*
X83250000Y-139500000D03*
X83750000Y-139500000D03*
X85250000Y-139500000D03*
X86750000Y-139500000D03*
X88750000Y-139500000D03*
X89250000Y-139500000D03*
X91250000Y-139500000D03*
X91750000Y-139500000D03*
X93250000Y-139500000D03*
X93750000Y-139500000D03*
X79250000Y-139000000D03*
X80750000Y-139000000D03*
X81750000Y-139000000D03*
X82750000Y-139000000D03*
X83250000Y-139000000D03*
X84250000Y-139000000D03*
X84750000Y-139000000D03*
X86250000Y-139000000D03*
X87750000Y-139000000D03*
X88750000Y-139000000D03*
X89250000Y-139000000D03*
X89750000Y-139000000D03*
X90250000Y-139000000D03*
X91250000Y-139000000D03*
X91750000Y-139000000D03*
X92750000Y-139000000D03*
X80750000Y-138500000D03*
X81250000Y-138500000D03*
X82250000Y-138500000D03*
X83250000Y-138500000D03*
X84250000Y-138500000D03*
X84750000Y-138500000D03*
X85250000Y-138500000D03*
X85750000Y-138500000D03*
X86250000Y-138500000D03*
X87250000Y-138500000D03*
X87750000Y-138500000D03*
X88750000Y-138500000D03*
X89750000Y-138500000D03*
X90250000Y-138500000D03*
X91750000Y-138500000D03*
X92750000Y-138500000D03*
X93250000Y-138500000D03*
X94250000Y-138500000D03*
X94750000Y-138500000D03*
X78750000Y-138000000D03*
X79250000Y-138000000D03*
X79750000Y-138000000D03*
X80250000Y-138000000D03*
X80750000Y-138000000D03*
X81750000Y-138000000D03*
X82250000Y-138000000D03*
X82750000Y-138000000D03*
X83750000Y-138000000D03*
X84250000Y-138000000D03*
X85250000Y-138000000D03*
X86250000Y-138000000D03*
X86750000Y-138000000D03*
X87250000Y-138000000D03*
X89250000Y-138000000D03*
X89750000Y-138000000D03*
X91250000Y-138000000D03*
X91750000Y-138000000D03*
X92250000Y-138000000D03*
X92750000Y-138000000D03*
X93750000Y-138000000D03*
X81250000Y-137500000D03*
X82250000Y-137500000D03*
X82750000Y-137500000D03*
X84750000Y-137500000D03*
X87250000Y-137500000D03*
X88250000Y-137500000D03*
X89750000Y-137500000D03*
X90750000Y-137500000D03*
X91250000Y-137500000D03*
X92750000Y-137500000D03*
X79750000Y-137000000D03*
X81250000Y-137000000D03*
X81750000Y-137000000D03*
X82250000Y-137000000D03*
X82750000Y-137000000D03*
X83250000Y-137000000D03*
X83750000Y-137000000D03*
X84250000Y-137000000D03*
X84750000Y-137000000D03*
X85250000Y-137000000D03*
X85750000Y-137000000D03*
X86750000Y-137000000D03*
X87250000Y-137000000D03*
X87750000Y-137000000D03*
X89250000Y-137000000D03*
X90750000Y-137000000D03*
X92250000Y-137000000D03*
X92750000Y-137000000D03*
X93250000Y-137000000D03*
X93750000Y-137000000D03*
X78750000Y-136500000D03*
X79250000Y-136500000D03*
X79750000Y-136500000D03*
X82750000Y-136500000D03*
X83750000Y-136500000D03*
X84750000Y-136500000D03*
X85250000Y-136500000D03*
X85750000Y-136500000D03*
X86250000Y-136500000D03*
X88750000Y-136500000D03*
X89250000Y-136500000D03*
X90250000Y-136500000D03*
X91750000Y-136500000D03*
X93250000Y-136500000D03*
X93750000Y-136500000D03*
X94750000Y-136500000D03*
X79750000Y-136000000D03*
X80750000Y-136000000D03*
X81250000Y-136000000D03*
X81750000Y-136000000D03*
X82250000Y-136000000D03*
X82750000Y-136000000D03*
X83250000Y-136000000D03*
X84250000Y-136000000D03*
X84750000Y-136000000D03*
X85250000Y-136000000D03*
X87250000Y-136000000D03*
X90250000Y-136000000D03*
X90750000Y-136000000D03*
X91250000Y-136000000D03*
X91750000Y-136000000D03*
X92750000Y-136000000D03*
X93250000Y-136000000D03*
X93750000Y-136000000D03*
X94250000Y-136000000D03*
X94750000Y-136000000D03*
X79250000Y-135500000D03*
X79750000Y-135500000D03*
X80250000Y-135500000D03*
X80750000Y-135500000D03*
X82750000Y-135500000D03*
X83250000Y-135500000D03*
X83750000Y-135500000D03*
X84750000Y-135500000D03*
X85750000Y-135500000D03*
X86250000Y-135500000D03*
X88750000Y-135500000D03*
X91750000Y-135500000D03*
X92250000Y-135500000D03*
X93250000Y-135500000D03*
X94250000Y-135500000D03*
X94750000Y-135500000D03*
X78750000Y-135000000D03*
X79750000Y-135000000D03*
X81750000Y-135000000D03*
X82250000Y-135000000D03*
X83250000Y-135000000D03*
X83750000Y-135000000D03*
X84250000Y-135000000D03*
X85750000Y-135000000D03*
X86250000Y-135000000D03*
X87250000Y-135000000D03*
X88250000Y-135000000D03*
X89750000Y-135000000D03*
X90750000Y-135000000D03*
X91250000Y-135000000D03*
X91750000Y-135000000D03*
X92250000Y-135000000D03*
X92750000Y-135000000D03*
X93250000Y-135000000D03*
X93750000Y-135000000D03*
X94750000Y-135000000D03*
X82750000Y-134500000D03*
X83250000Y-134500000D03*
X84250000Y-134500000D03*
X84750000Y-134500000D03*
X86250000Y-134500000D03*
X86750000Y-134500000D03*
X87250000Y-134500000D03*
X88250000Y-134500000D03*
X88750000Y-134500000D03*
X89750000Y-134500000D03*
X90750000Y-134500000D03*
X92750000Y-134500000D03*
X93250000Y-134500000D03*
X78750000Y-134000000D03*
X79250000Y-134000000D03*
X79750000Y-134000000D03*
X80250000Y-134000000D03*
X80750000Y-134000000D03*
X81250000Y-134000000D03*
X81750000Y-134000000D03*
X82750000Y-134000000D03*
X83250000Y-134000000D03*
X83750000Y-134000000D03*
X84750000Y-134000000D03*
X85750000Y-134000000D03*
X88250000Y-134000000D03*
X88750000Y-134000000D03*
X90250000Y-134000000D03*
X90750000Y-134000000D03*
X91750000Y-134000000D03*
X92750000Y-134000000D03*
X78750000Y-133500000D03*
X81750000Y-133500000D03*
X82750000Y-133500000D03*
X84250000Y-133500000D03*
X85750000Y-133500000D03*
X86750000Y-133500000D03*
X87750000Y-133500000D03*
X88250000Y-133500000D03*
X89250000Y-133500000D03*
X89750000Y-133500000D03*
X90250000Y-133500000D03*
X90750000Y-133500000D03*
X92750000Y-133500000D03*
X93250000Y-133500000D03*
X93750000Y-133500000D03*
X78750000Y-133000000D03*
X79750000Y-133000000D03*
X80250000Y-133000000D03*
X80750000Y-133000000D03*
X81750000Y-133000000D03*
X83250000Y-133000000D03*
X84750000Y-133000000D03*
X85250000Y-133000000D03*
X86250000Y-133000000D03*
X87750000Y-133000000D03*
X89250000Y-133000000D03*
X89750000Y-133000000D03*
X90250000Y-133000000D03*
X90750000Y-133000000D03*
X91250000Y-133000000D03*
X91750000Y-133000000D03*
X92250000Y-133000000D03*
X92750000Y-133000000D03*
X93750000Y-133000000D03*
X94250000Y-133000000D03*
X94750000Y-133000000D03*
X78750000Y-132500000D03*
X79750000Y-132500000D03*
X80250000Y-132500000D03*
X80750000Y-132500000D03*
X81750000Y-132500000D03*
X82750000Y-132500000D03*
X84250000Y-132500000D03*
X84750000Y-132500000D03*
X85750000Y-132500000D03*
X86250000Y-132500000D03*
X87250000Y-132500000D03*
X88250000Y-132500000D03*
X88750000Y-132500000D03*
X90250000Y-132500000D03*
X90750000Y-132500000D03*
X92250000Y-132500000D03*
X93250000Y-132500000D03*
X93750000Y-132500000D03*
X94750000Y-132500000D03*
X78750000Y-132000000D03*
X79750000Y-132000000D03*
X80250000Y-132000000D03*
X80750000Y-132000000D03*
X81750000Y-132000000D03*
X82750000Y-132000000D03*
X83250000Y-132000000D03*
X83750000Y-132000000D03*
X84250000Y-132000000D03*
X85750000Y-132000000D03*
X86250000Y-132000000D03*
X89250000Y-132000000D03*
X89750000Y-132000000D03*
X90250000Y-132000000D03*
X90750000Y-132000000D03*
X91250000Y-132000000D03*
X91750000Y-132000000D03*
X92250000Y-132000000D03*
X93250000Y-132000000D03*
X78750000Y-131500000D03*
X81750000Y-131500000D03*
X83250000Y-131500000D03*
X84250000Y-131500000D03*
X84750000Y-131500000D03*
X85250000Y-131500000D03*
X86750000Y-131500000D03*
X87250000Y-131500000D03*
X89750000Y-131500000D03*
X90250000Y-131500000D03*
X90750000Y-131500000D03*
X91250000Y-131500000D03*
X91750000Y-131500000D03*
X92250000Y-131500000D03*
X92750000Y-131500000D03*
X94750000Y-131500000D03*
X78750000Y-131000000D03*
X79250000Y-131000000D03*
X79750000Y-131000000D03*
X80250000Y-131000000D03*
X80750000Y-131000000D03*
X81250000Y-131000000D03*
X81750000Y-131000000D03*
X82750000Y-131000000D03*
X83250000Y-131000000D03*
X84250000Y-131000000D03*
X85250000Y-131000000D03*
X85750000Y-131000000D03*
X86750000Y-131000000D03*
X87250000Y-131000000D03*
X87750000Y-131000000D03*
X88250000Y-131000000D03*
X88750000Y-131000000D03*
X89250000Y-131000000D03*
X90250000Y-131000000D03*
X91250000Y-131000000D03*
X92750000Y-131000000D03*
G04 #@! TA.AperFunction,SMDPad,CuDef*
D11*
G36*
X86650000Y-171250602D02*
G01*
X86674534Y-171250602D01*
X86723365Y-171255412D01*
X86771490Y-171264984D01*
X86818445Y-171279228D01*
X86863778Y-171298005D01*
X86907051Y-171321136D01*
X86947850Y-171348396D01*
X86985779Y-171379524D01*
X87020476Y-171414221D01*
X87051604Y-171452150D01*
X87078864Y-171492949D01*
X87101995Y-171536222D01*
X87120772Y-171581555D01*
X87135016Y-171628510D01*
X87144588Y-171676635D01*
X87149398Y-171725466D01*
X87149398Y-171750000D01*
X87150000Y-171750000D01*
X87150000Y-172250000D01*
X87149398Y-172250000D01*
X87149398Y-172274534D01*
X87144588Y-172323365D01*
X87135016Y-172371490D01*
X87120772Y-172418445D01*
X87101995Y-172463778D01*
X87078864Y-172507051D01*
X87051604Y-172547850D01*
X87020476Y-172585779D01*
X86985779Y-172620476D01*
X86947850Y-172651604D01*
X86907051Y-172678864D01*
X86863778Y-172701995D01*
X86818445Y-172720772D01*
X86771490Y-172735016D01*
X86723365Y-172744588D01*
X86674534Y-172749398D01*
X86650000Y-172749398D01*
X86650000Y-172750000D01*
X86150000Y-172750000D01*
X86150000Y-171250000D01*
X86650000Y-171250000D01*
X86650000Y-171250602D01*
G37*
G04 #@! TD.AperFunction*
G04 #@! TA.AperFunction,SMDPad,CuDef*
G36*
X85850000Y-172750000D02*
G01*
X85350000Y-172750000D01*
X85350000Y-172749398D01*
X85325466Y-172749398D01*
X85276635Y-172744588D01*
X85228510Y-172735016D01*
X85181555Y-172720772D01*
X85136222Y-172701995D01*
X85092949Y-172678864D01*
X85052150Y-172651604D01*
X85014221Y-172620476D01*
X84979524Y-172585779D01*
X84948396Y-172547850D01*
X84921136Y-172507051D01*
X84898005Y-172463778D01*
X84879228Y-172418445D01*
X84864984Y-172371490D01*
X84855412Y-172323365D01*
X84850602Y-172274534D01*
X84850602Y-172250000D01*
X84850000Y-172250000D01*
X84850000Y-171750000D01*
X84850602Y-171750000D01*
X84850602Y-171725466D01*
X84855412Y-171676635D01*
X84864984Y-171628510D01*
X84879228Y-171581555D01*
X84898005Y-171536222D01*
X84921136Y-171492949D01*
X84948396Y-171452150D01*
X84979524Y-171414221D01*
X85014221Y-171379524D01*
X85052150Y-171348396D01*
X85092949Y-171321136D01*
X85136222Y-171298005D01*
X85181555Y-171279228D01*
X85228510Y-171264984D01*
X85276635Y-171255412D01*
X85325466Y-171250602D01*
X85350000Y-171250602D01*
X85350000Y-171250000D01*
X85850000Y-171250000D01*
X85850000Y-172750000D01*
G37*
G04 #@! TD.AperFunction*
G04 #@! TA.AperFunction,SMDPad,CuDef*
G36*
X78000000Y-171250602D02*
G01*
X78024534Y-171250602D01*
X78073365Y-171255412D01*
X78121490Y-171264984D01*
X78168445Y-171279228D01*
X78213778Y-171298005D01*
X78257051Y-171321136D01*
X78297850Y-171348396D01*
X78335779Y-171379524D01*
X78370476Y-171414221D01*
X78401604Y-171452150D01*
X78428864Y-171492949D01*
X78451995Y-171536222D01*
X78470772Y-171581555D01*
X78485016Y-171628510D01*
X78494588Y-171676635D01*
X78499398Y-171725466D01*
X78499398Y-171750000D01*
X78500000Y-171750000D01*
X78500000Y-172250000D01*
X78499398Y-172250000D01*
X78499398Y-172274534D01*
X78494588Y-172323365D01*
X78485016Y-172371490D01*
X78470772Y-172418445D01*
X78451995Y-172463778D01*
X78428864Y-172507051D01*
X78401604Y-172547850D01*
X78370476Y-172585779D01*
X78335779Y-172620476D01*
X78297850Y-172651604D01*
X78257051Y-172678864D01*
X78213778Y-172701995D01*
X78168445Y-172720772D01*
X78121490Y-172735016D01*
X78073365Y-172744588D01*
X78024534Y-172749398D01*
X78000000Y-172749398D01*
X78000000Y-172750000D01*
X77500000Y-172750000D01*
X77500000Y-171250000D01*
X78000000Y-171250000D01*
X78000000Y-171250602D01*
G37*
G04 #@! TD.AperFunction*
G04 #@! TA.AperFunction,SMDPad,CuDef*
G36*
X77200000Y-172750000D02*
G01*
X76700000Y-172750000D01*
X76700000Y-172749398D01*
X76675466Y-172749398D01*
X76626635Y-172744588D01*
X76578510Y-172735016D01*
X76531555Y-172720772D01*
X76486222Y-172701995D01*
X76442949Y-172678864D01*
X76402150Y-172651604D01*
X76364221Y-172620476D01*
X76329524Y-172585779D01*
X76298396Y-172547850D01*
X76271136Y-172507051D01*
X76248005Y-172463778D01*
X76229228Y-172418445D01*
X76214984Y-172371490D01*
X76205412Y-172323365D01*
X76200602Y-172274534D01*
X76200602Y-172250000D01*
X76200000Y-172250000D01*
X76200000Y-171750000D01*
X76200602Y-171750000D01*
X76200602Y-171725466D01*
X76205412Y-171676635D01*
X76214984Y-171628510D01*
X76229228Y-171581555D01*
X76248005Y-171536222D01*
X76271136Y-171492949D01*
X76298396Y-171452150D01*
X76329524Y-171414221D01*
X76364221Y-171379524D01*
X76402150Y-171348396D01*
X76442949Y-171321136D01*
X76486222Y-171298005D01*
X76531555Y-171279228D01*
X76578510Y-171264984D01*
X76626635Y-171255412D01*
X76675466Y-171250602D01*
X76700000Y-171250602D01*
X76700000Y-171250000D01*
X77200000Y-171250000D01*
X77200000Y-172750000D01*
G37*
G04 #@! TD.AperFunction*
G04 #@! TA.AperFunction,SMDPad,CuDef*
G36*
X69650000Y-171250602D02*
G01*
X69674534Y-171250602D01*
X69723365Y-171255412D01*
X69771490Y-171264984D01*
X69818445Y-171279228D01*
X69863778Y-171298005D01*
X69907051Y-171321136D01*
X69947850Y-171348396D01*
X69985779Y-171379524D01*
X70020476Y-171414221D01*
X70051604Y-171452150D01*
X70078864Y-171492949D01*
X70101995Y-171536222D01*
X70120772Y-171581555D01*
X70135016Y-171628510D01*
X70144588Y-171676635D01*
X70149398Y-171725466D01*
X70149398Y-171750000D01*
X70150000Y-171750000D01*
X70150000Y-172250000D01*
X70149398Y-172250000D01*
X70149398Y-172274534D01*
X70144588Y-172323365D01*
X70135016Y-172371490D01*
X70120772Y-172418445D01*
X70101995Y-172463778D01*
X70078864Y-172507051D01*
X70051604Y-172547850D01*
X70020476Y-172585779D01*
X69985779Y-172620476D01*
X69947850Y-172651604D01*
X69907051Y-172678864D01*
X69863778Y-172701995D01*
X69818445Y-172720772D01*
X69771490Y-172735016D01*
X69723365Y-172744588D01*
X69674534Y-172749398D01*
X69650000Y-172749398D01*
X69650000Y-172750000D01*
X69150000Y-172750000D01*
X69150000Y-171250000D01*
X69650000Y-171250000D01*
X69650000Y-171250602D01*
G37*
G04 #@! TD.AperFunction*
G04 #@! TA.AperFunction,SMDPad,CuDef*
G36*
X68850000Y-172750000D02*
G01*
X68350000Y-172750000D01*
X68350000Y-172749398D01*
X68325466Y-172749398D01*
X68276635Y-172744588D01*
X68228510Y-172735016D01*
X68181555Y-172720772D01*
X68136222Y-172701995D01*
X68092949Y-172678864D01*
X68052150Y-172651604D01*
X68014221Y-172620476D01*
X67979524Y-172585779D01*
X67948396Y-172547850D01*
X67921136Y-172507051D01*
X67898005Y-172463778D01*
X67879228Y-172418445D01*
X67864984Y-172371490D01*
X67855412Y-172323365D01*
X67850602Y-172274534D01*
X67850602Y-172250000D01*
X67850000Y-172250000D01*
X67850000Y-171750000D01*
X67850602Y-171750000D01*
X67850602Y-171725466D01*
X67855412Y-171676635D01*
X67864984Y-171628510D01*
X67879228Y-171581555D01*
X67898005Y-171536222D01*
X67921136Y-171492949D01*
X67948396Y-171452150D01*
X67979524Y-171414221D01*
X68014221Y-171379524D01*
X68052150Y-171348396D01*
X68092949Y-171321136D01*
X68136222Y-171298005D01*
X68181555Y-171279228D01*
X68228510Y-171264984D01*
X68276635Y-171255412D01*
X68325466Y-171250602D01*
X68350000Y-171250602D01*
X68350000Y-171250000D01*
X68850000Y-171250000D01*
X68850000Y-172750000D01*
G37*
G04 #@! TD.AperFunction*
G04 #@! TA.AperFunction,SMDPad,CuDef*
G36*
X32686261Y-155003010D02*
G01*
X32746931Y-155012009D01*
X32806428Y-155026912D01*
X32864177Y-155047575D01*
X32919623Y-155073799D01*
X32972231Y-155105331D01*
X33021496Y-155141868D01*
X33066942Y-155183058D01*
X33108132Y-155228504D01*
X33144669Y-155277769D01*
X33176201Y-155330377D01*
X33202425Y-155385823D01*
X33223088Y-155443572D01*
X33237991Y-155503069D01*
X33246990Y-155563739D01*
X33250000Y-155625000D01*
X33250000Y-156875000D01*
X33246990Y-156936261D01*
X33237991Y-156996931D01*
X33223088Y-157056428D01*
X33202425Y-157114177D01*
X33176201Y-157169623D01*
X33144669Y-157222231D01*
X33108132Y-157271496D01*
X33066942Y-157316942D01*
X33021496Y-157358132D01*
X32972231Y-157394669D01*
X32919623Y-157426201D01*
X32864177Y-157452425D01*
X32806428Y-157473088D01*
X32746931Y-157487991D01*
X32686261Y-157496990D01*
X32625000Y-157500000D01*
X31375000Y-157500000D01*
X31313739Y-157496990D01*
X31253069Y-157487991D01*
X31193572Y-157473088D01*
X31135823Y-157452425D01*
X31080377Y-157426201D01*
X31027769Y-157394669D01*
X30978504Y-157358132D01*
X30933058Y-157316942D01*
X30891868Y-157271496D01*
X30855331Y-157222231D01*
X30823799Y-157169623D01*
X30797575Y-157114177D01*
X30776912Y-157056428D01*
X30762009Y-156996931D01*
X30753010Y-156936261D01*
X30750000Y-156875000D01*
X30750000Y-155625000D01*
X30753010Y-155563739D01*
X30762009Y-155503069D01*
X30776912Y-155443572D01*
X30797575Y-155385823D01*
X30823799Y-155330377D01*
X30855331Y-155277769D01*
X30891868Y-155228504D01*
X30933058Y-155183058D01*
X30978504Y-155141868D01*
X31027769Y-155105331D01*
X31080377Y-155073799D01*
X31135823Y-155047575D01*
X31193572Y-155026912D01*
X31253069Y-155012009D01*
X31313739Y-155003010D01*
X31375000Y-155000000D01*
X32625000Y-155000000D01*
X32686261Y-155003010D01*
G37*
G04 #@! TD.AperFunction*
G04 #@! TA.AperFunction,SMDPad,CuDef*
G36*
X32686261Y-151503010D02*
G01*
X32746931Y-151512009D01*
X32806428Y-151526912D01*
X32864177Y-151547575D01*
X32919623Y-151573799D01*
X32972231Y-151605331D01*
X33021496Y-151641868D01*
X33066942Y-151683058D01*
X33108132Y-151728504D01*
X33144669Y-151777769D01*
X33176201Y-151830377D01*
X33202425Y-151885823D01*
X33223088Y-151943572D01*
X33237991Y-152003069D01*
X33246990Y-152063739D01*
X33250000Y-152125000D01*
X33250000Y-153375000D01*
X33246990Y-153436261D01*
X33237991Y-153496931D01*
X33223088Y-153556428D01*
X33202425Y-153614177D01*
X33176201Y-153669623D01*
X33144669Y-153722231D01*
X33108132Y-153771496D01*
X33066942Y-153816942D01*
X33021496Y-153858132D01*
X32972231Y-153894669D01*
X32919623Y-153926201D01*
X32864177Y-153952425D01*
X32806428Y-153973088D01*
X32746931Y-153987991D01*
X32686261Y-153996990D01*
X32625000Y-154000000D01*
X31375000Y-154000000D01*
X31313739Y-153996990D01*
X31253069Y-153987991D01*
X31193572Y-153973088D01*
X31135823Y-153952425D01*
X31080377Y-153926201D01*
X31027769Y-153894669D01*
X30978504Y-153858132D01*
X30933058Y-153816942D01*
X30891868Y-153771496D01*
X30855331Y-153722231D01*
X30823799Y-153669623D01*
X30797575Y-153614177D01*
X30776912Y-153556428D01*
X30762009Y-153496931D01*
X30753010Y-153436261D01*
X30750000Y-153375000D01*
X30750000Y-152125000D01*
X30753010Y-152063739D01*
X30762009Y-152003069D01*
X30776912Y-151943572D01*
X30797575Y-151885823D01*
X30823799Y-151830377D01*
X30855331Y-151777769D01*
X30891868Y-151728504D01*
X30933058Y-151683058D01*
X30978504Y-151641868D01*
X31027769Y-151605331D01*
X31080377Y-151573799D01*
X31135823Y-151547575D01*
X31193572Y-151526912D01*
X31253069Y-151512009D01*
X31313739Y-151503010D01*
X31375000Y-151500000D01*
X32625000Y-151500000D01*
X32686261Y-151503010D01*
G37*
G04 #@! TD.AperFunction*
D12*
X32000000Y-152750000D03*
X32000000Y-156250000D03*
D13*
X49500000Y-161000000D03*
D14*
X46730000Y-161000000D03*
X43960000Y-161000000D03*
X41190000Y-161000000D03*
X38420000Y-161000000D03*
X48115000Y-163840000D03*
X45345000Y-163840000D03*
X42575000Y-163840000D03*
X39805000Y-163840000D03*
D15*
X31460000Y-162420000D03*
X56460000Y-162420000D03*
X93460000Y-162420000D03*
X68460000Y-162420000D03*
D14*
X76805000Y-163840000D03*
X79575000Y-163840000D03*
X82345000Y-163840000D03*
X85115000Y-163840000D03*
X75420000Y-161000000D03*
X78190000Y-161000000D03*
X80960000Y-161000000D03*
X83730000Y-161000000D03*
D13*
X86500000Y-161000000D03*
G04 #@! TA.AperFunction,SMDPad,CuDef*
D11*
G36*
X88436261Y-165753010D02*
G01*
X88496931Y-165762009D01*
X88556428Y-165776912D01*
X88614177Y-165797575D01*
X88669623Y-165823799D01*
X88722231Y-165855331D01*
X88771496Y-165891868D01*
X88816942Y-165933058D01*
X88858132Y-165978504D01*
X88894669Y-166027769D01*
X88926201Y-166080377D01*
X88952425Y-166135823D01*
X88973088Y-166193572D01*
X88987991Y-166253069D01*
X88996990Y-166313739D01*
X89000000Y-166375000D01*
X89000000Y-167625000D01*
X88996990Y-167686261D01*
X88987991Y-167746931D01*
X88973088Y-167806428D01*
X88952425Y-167864177D01*
X88926201Y-167919623D01*
X88894669Y-167972231D01*
X88858132Y-168021496D01*
X88816942Y-168066942D01*
X88771496Y-168108132D01*
X88722231Y-168144669D01*
X88669623Y-168176201D01*
X88614177Y-168202425D01*
X88556428Y-168223088D01*
X88496931Y-168237991D01*
X88436261Y-168246990D01*
X88375000Y-168250000D01*
X87125000Y-168250000D01*
X87063739Y-168246990D01*
X87003069Y-168237991D01*
X86943572Y-168223088D01*
X86885823Y-168202425D01*
X86830377Y-168176201D01*
X86777769Y-168144669D01*
X86728504Y-168108132D01*
X86683058Y-168066942D01*
X86641868Y-168021496D01*
X86605331Y-167972231D01*
X86573799Y-167919623D01*
X86547575Y-167864177D01*
X86526912Y-167806428D01*
X86512009Y-167746931D01*
X86503010Y-167686261D01*
X86500000Y-167625000D01*
X86500000Y-166375000D01*
X86503010Y-166313739D01*
X86512009Y-166253069D01*
X86526912Y-166193572D01*
X86547575Y-166135823D01*
X86573799Y-166080377D01*
X86605331Y-166027769D01*
X86641868Y-165978504D01*
X86683058Y-165933058D01*
X86728504Y-165891868D01*
X86777769Y-165855331D01*
X86830377Y-165823799D01*
X86885823Y-165797575D01*
X86943572Y-165776912D01*
X87003069Y-165762009D01*
X87063739Y-165753010D01*
X87125000Y-165750000D01*
X88375000Y-165750000D01*
X88436261Y-165753010D01*
G37*
G04 #@! TD.AperFunction*
G04 #@! TA.AperFunction,SMDPad,CuDef*
G36*
X84936261Y-165753010D02*
G01*
X84996931Y-165762009D01*
X85056428Y-165776912D01*
X85114177Y-165797575D01*
X85169623Y-165823799D01*
X85222231Y-165855331D01*
X85271496Y-165891868D01*
X85316942Y-165933058D01*
X85358132Y-165978504D01*
X85394669Y-166027769D01*
X85426201Y-166080377D01*
X85452425Y-166135823D01*
X85473088Y-166193572D01*
X85487991Y-166253069D01*
X85496990Y-166313739D01*
X85500000Y-166375000D01*
X85500000Y-167625000D01*
X85496990Y-167686261D01*
X85487991Y-167746931D01*
X85473088Y-167806428D01*
X85452425Y-167864177D01*
X85426201Y-167919623D01*
X85394669Y-167972231D01*
X85358132Y-168021496D01*
X85316942Y-168066942D01*
X85271496Y-168108132D01*
X85222231Y-168144669D01*
X85169623Y-168176201D01*
X85114177Y-168202425D01*
X85056428Y-168223088D01*
X84996931Y-168237991D01*
X84936261Y-168246990D01*
X84875000Y-168250000D01*
X83625000Y-168250000D01*
X83563739Y-168246990D01*
X83503069Y-168237991D01*
X83443572Y-168223088D01*
X83385823Y-168202425D01*
X83330377Y-168176201D01*
X83277769Y-168144669D01*
X83228504Y-168108132D01*
X83183058Y-168066942D01*
X83141868Y-168021496D01*
X83105331Y-167972231D01*
X83073799Y-167919623D01*
X83047575Y-167864177D01*
X83026912Y-167806428D01*
X83012009Y-167746931D01*
X83003010Y-167686261D01*
X83000000Y-167625000D01*
X83000000Y-166375000D01*
X83003010Y-166313739D01*
X83012009Y-166253069D01*
X83026912Y-166193572D01*
X83047575Y-166135823D01*
X83073799Y-166080377D01*
X83105331Y-166027769D01*
X83141868Y-165978504D01*
X83183058Y-165933058D01*
X83228504Y-165891868D01*
X83277769Y-165855331D01*
X83330377Y-165823799D01*
X83385823Y-165797575D01*
X83443572Y-165776912D01*
X83503069Y-165762009D01*
X83563739Y-165753010D01*
X83625000Y-165750000D01*
X84875000Y-165750000D01*
X84936261Y-165753010D01*
G37*
G04 #@! TD.AperFunction*
D12*
X84250000Y-167000000D03*
X87750000Y-167000000D03*
G04 #@! TA.AperFunction,SMDPad,CuDef*
D11*
G36*
X79936261Y-165753010D02*
G01*
X79996931Y-165762009D01*
X80056428Y-165776912D01*
X80114177Y-165797575D01*
X80169623Y-165823799D01*
X80222231Y-165855331D01*
X80271496Y-165891868D01*
X80316942Y-165933058D01*
X80358132Y-165978504D01*
X80394669Y-166027769D01*
X80426201Y-166080377D01*
X80452425Y-166135823D01*
X80473088Y-166193572D01*
X80487991Y-166253069D01*
X80496990Y-166313739D01*
X80500000Y-166375000D01*
X80500000Y-167625000D01*
X80496990Y-167686261D01*
X80487991Y-167746931D01*
X80473088Y-167806428D01*
X80452425Y-167864177D01*
X80426201Y-167919623D01*
X80394669Y-167972231D01*
X80358132Y-168021496D01*
X80316942Y-168066942D01*
X80271496Y-168108132D01*
X80222231Y-168144669D01*
X80169623Y-168176201D01*
X80114177Y-168202425D01*
X80056428Y-168223088D01*
X79996931Y-168237991D01*
X79936261Y-168246990D01*
X79875000Y-168250000D01*
X78625000Y-168250000D01*
X78563739Y-168246990D01*
X78503069Y-168237991D01*
X78443572Y-168223088D01*
X78385823Y-168202425D01*
X78330377Y-168176201D01*
X78277769Y-168144669D01*
X78228504Y-168108132D01*
X78183058Y-168066942D01*
X78141868Y-168021496D01*
X78105331Y-167972231D01*
X78073799Y-167919623D01*
X78047575Y-167864177D01*
X78026912Y-167806428D01*
X78012009Y-167746931D01*
X78003010Y-167686261D01*
X78000000Y-167625000D01*
X78000000Y-166375000D01*
X78003010Y-166313739D01*
X78012009Y-166253069D01*
X78026912Y-166193572D01*
X78047575Y-166135823D01*
X78073799Y-166080377D01*
X78105331Y-166027769D01*
X78141868Y-165978504D01*
X78183058Y-165933058D01*
X78228504Y-165891868D01*
X78277769Y-165855331D01*
X78330377Y-165823799D01*
X78385823Y-165797575D01*
X78443572Y-165776912D01*
X78503069Y-165762009D01*
X78563739Y-165753010D01*
X78625000Y-165750000D01*
X79875000Y-165750000D01*
X79936261Y-165753010D01*
G37*
G04 #@! TD.AperFunction*
G04 #@! TA.AperFunction,SMDPad,CuDef*
G36*
X76436261Y-165753010D02*
G01*
X76496931Y-165762009D01*
X76556428Y-165776912D01*
X76614177Y-165797575D01*
X76669623Y-165823799D01*
X76722231Y-165855331D01*
X76771496Y-165891868D01*
X76816942Y-165933058D01*
X76858132Y-165978504D01*
X76894669Y-166027769D01*
X76926201Y-166080377D01*
X76952425Y-166135823D01*
X76973088Y-166193572D01*
X76987991Y-166253069D01*
X76996990Y-166313739D01*
X77000000Y-166375000D01*
X77000000Y-167625000D01*
X76996990Y-167686261D01*
X76987991Y-167746931D01*
X76973088Y-167806428D01*
X76952425Y-167864177D01*
X76926201Y-167919623D01*
X76894669Y-167972231D01*
X76858132Y-168021496D01*
X76816942Y-168066942D01*
X76771496Y-168108132D01*
X76722231Y-168144669D01*
X76669623Y-168176201D01*
X76614177Y-168202425D01*
X76556428Y-168223088D01*
X76496931Y-168237991D01*
X76436261Y-168246990D01*
X76375000Y-168250000D01*
X75125000Y-168250000D01*
X75063739Y-168246990D01*
X75003069Y-168237991D01*
X74943572Y-168223088D01*
X74885823Y-168202425D01*
X74830377Y-168176201D01*
X74777769Y-168144669D01*
X74728504Y-168108132D01*
X74683058Y-168066942D01*
X74641868Y-168021496D01*
X74605331Y-167972231D01*
X74573799Y-167919623D01*
X74547575Y-167864177D01*
X74526912Y-167806428D01*
X74512009Y-167746931D01*
X74503010Y-167686261D01*
X74500000Y-167625000D01*
X74500000Y-166375000D01*
X74503010Y-166313739D01*
X74512009Y-166253069D01*
X74526912Y-166193572D01*
X74547575Y-166135823D01*
X74573799Y-166080377D01*
X74605331Y-166027769D01*
X74641868Y-165978504D01*
X74683058Y-165933058D01*
X74728504Y-165891868D01*
X74777769Y-165855331D01*
X74830377Y-165823799D01*
X74885823Y-165797575D01*
X74943572Y-165776912D01*
X75003069Y-165762009D01*
X75063739Y-165753010D01*
X75125000Y-165750000D01*
X76375000Y-165750000D01*
X76436261Y-165753010D01*
G37*
G04 #@! TD.AperFunction*
D12*
X75750000Y-167000000D03*
X79250000Y-167000000D03*
G04 #@! TA.AperFunction,SMDPad,CuDef*
D11*
G36*
X93686261Y-151503010D02*
G01*
X93746931Y-151512009D01*
X93806428Y-151526912D01*
X93864177Y-151547575D01*
X93919623Y-151573799D01*
X93972231Y-151605331D01*
X94021496Y-151641868D01*
X94066942Y-151683058D01*
X94108132Y-151728504D01*
X94144669Y-151777769D01*
X94176201Y-151830377D01*
X94202425Y-151885823D01*
X94223088Y-151943572D01*
X94237991Y-152003069D01*
X94246990Y-152063739D01*
X94250000Y-152125000D01*
X94250000Y-153375000D01*
X94246990Y-153436261D01*
X94237991Y-153496931D01*
X94223088Y-153556428D01*
X94202425Y-153614177D01*
X94176201Y-153669623D01*
X94144669Y-153722231D01*
X94108132Y-153771496D01*
X94066942Y-153816942D01*
X94021496Y-153858132D01*
X93972231Y-153894669D01*
X93919623Y-153926201D01*
X93864177Y-153952425D01*
X93806428Y-153973088D01*
X93746931Y-153987991D01*
X93686261Y-153996990D01*
X93625000Y-154000000D01*
X92375000Y-154000000D01*
X92313739Y-153996990D01*
X92253069Y-153987991D01*
X92193572Y-153973088D01*
X92135823Y-153952425D01*
X92080377Y-153926201D01*
X92027769Y-153894669D01*
X91978504Y-153858132D01*
X91933058Y-153816942D01*
X91891868Y-153771496D01*
X91855331Y-153722231D01*
X91823799Y-153669623D01*
X91797575Y-153614177D01*
X91776912Y-153556428D01*
X91762009Y-153496931D01*
X91753010Y-153436261D01*
X91750000Y-153375000D01*
X91750000Y-152125000D01*
X91753010Y-152063739D01*
X91762009Y-152003069D01*
X91776912Y-151943572D01*
X91797575Y-151885823D01*
X91823799Y-151830377D01*
X91855331Y-151777769D01*
X91891868Y-151728504D01*
X91933058Y-151683058D01*
X91978504Y-151641868D01*
X92027769Y-151605331D01*
X92080377Y-151573799D01*
X92135823Y-151547575D01*
X92193572Y-151526912D01*
X92253069Y-151512009D01*
X92313739Y-151503010D01*
X92375000Y-151500000D01*
X93625000Y-151500000D01*
X93686261Y-151503010D01*
G37*
G04 #@! TD.AperFunction*
G04 #@! TA.AperFunction,SMDPad,CuDef*
G36*
X93686261Y-155003010D02*
G01*
X93746931Y-155012009D01*
X93806428Y-155026912D01*
X93864177Y-155047575D01*
X93919623Y-155073799D01*
X93972231Y-155105331D01*
X94021496Y-155141868D01*
X94066942Y-155183058D01*
X94108132Y-155228504D01*
X94144669Y-155277769D01*
X94176201Y-155330377D01*
X94202425Y-155385823D01*
X94223088Y-155443572D01*
X94237991Y-155503069D01*
X94246990Y-155563739D01*
X94250000Y-155625000D01*
X94250000Y-156875000D01*
X94246990Y-156936261D01*
X94237991Y-156996931D01*
X94223088Y-157056428D01*
X94202425Y-157114177D01*
X94176201Y-157169623D01*
X94144669Y-157222231D01*
X94108132Y-157271496D01*
X94066942Y-157316942D01*
X94021496Y-157358132D01*
X93972231Y-157394669D01*
X93919623Y-157426201D01*
X93864177Y-157452425D01*
X93806428Y-157473088D01*
X93746931Y-157487991D01*
X93686261Y-157496990D01*
X93625000Y-157500000D01*
X92375000Y-157500000D01*
X92313739Y-157496990D01*
X92253069Y-157487991D01*
X92193572Y-157473088D01*
X92135823Y-157452425D01*
X92080377Y-157426201D01*
X92027769Y-157394669D01*
X91978504Y-157358132D01*
X91933058Y-157316942D01*
X91891868Y-157271496D01*
X91855331Y-157222231D01*
X91823799Y-157169623D01*
X91797575Y-157114177D01*
X91776912Y-157056428D01*
X91762009Y-156996931D01*
X91753010Y-156936261D01*
X91750000Y-156875000D01*
X91750000Y-155625000D01*
X91753010Y-155563739D01*
X91762009Y-155503069D01*
X91776912Y-155443572D01*
X91797575Y-155385823D01*
X91823799Y-155330377D01*
X91855331Y-155277769D01*
X91891868Y-155228504D01*
X91933058Y-155183058D01*
X91978504Y-155141868D01*
X92027769Y-155105331D01*
X92080377Y-155073799D01*
X92135823Y-155047575D01*
X92193572Y-155026912D01*
X92253069Y-155012009D01*
X92313739Y-155003010D01*
X92375000Y-155000000D01*
X93625000Y-155000000D01*
X93686261Y-155003010D01*
G37*
G04 #@! TD.AperFunction*
D12*
X93000000Y-156250000D03*
X93000000Y-152750000D03*
G04 #@! TA.AperFunction,SMDPad,CuDef*
D11*
G36*
X71436261Y-165753010D02*
G01*
X71496931Y-165762009D01*
X71556428Y-165776912D01*
X71614177Y-165797575D01*
X71669623Y-165823799D01*
X71722231Y-165855331D01*
X71771496Y-165891868D01*
X71816942Y-165933058D01*
X71858132Y-165978504D01*
X71894669Y-166027769D01*
X71926201Y-166080377D01*
X71952425Y-166135823D01*
X71973088Y-166193572D01*
X71987991Y-166253069D01*
X71996990Y-166313739D01*
X72000000Y-166375000D01*
X72000000Y-167625000D01*
X71996990Y-167686261D01*
X71987991Y-167746931D01*
X71973088Y-167806428D01*
X71952425Y-167864177D01*
X71926201Y-167919623D01*
X71894669Y-167972231D01*
X71858132Y-168021496D01*
X71816942Y-168066942D01*
X71771496Y-168108132D01*
X71722231Y-168144669D01*
X71669623Y-168176201D01*
X71614177Y-168202425D01*
X71556428Y-168223088D01*
X71496931Y-168237991D01*
X71436261Y-168246990D01*
X71375000Y-168250000D01*
X70125000Y-168250000D01*
X70063739Y-168246990D01*
X70003069Y-168237991D01*
X69943572Y-168223088D01*
X69885823Y-168202425D01*
X69830377Y-168176201D01*
X69777769Y-168144669D01*
X69728504Y-168108132D01*
X69683058Y-168066942D01*
X69641868Y-168021496D01*
X69605331Y-167972231D01*
X69573799Y-167919623D01*
X69547575Y-167864177D01*
X69526912Y-167806428D01*
X69512009Y-167746931D01*
X69503010Y-167686261D01*
X69500000Y-167625000D01*
X69500000Y-166375000D01*
X69503010Y-166313739D01*
X69512009Y-166253069D01*
X69526912Y-166193572D01*
X69547575Y-166135823D01*
X69573799Y-166080377D01*
X69605331Y-166027769D01*
X69641868Y-165978504D01*
X69683058Y-165933058D01*
X69728504Y-165891868D01*
X69777769Y-165855331D01*
X69830377Y-165823799D01*
X69885823Y-165797575D01*
X69943572Y-165776912D01*
X70003069Y-165762009D01*
X70063739Y-165753010D01*
X70125000Y-165750000D01*
X71375000Y-165750000D01*
X71436261Y-165753010D01*
G37*
G04 #@! TD.AperFunction*
G04 #@! TA.AperFunction,SMDPad,CuDef*
G36*
X67936261Y-165753010D02*
G01*
X67996931Y-165762009D01*
X68056428Y-165776912D01*
X68114177Y-165797575D01*
X68169623Y-165823799D01*
X68222231Y-165855331D01*
X68271496Y-165891868D01*
X68316942Y-165933058D01*
X68358132Y-165978504D01*
X68394669Y-166027769D01*
X68426201Y-166080377D01*
X68452425Y-166135823D01*
X68473088Y-166193572D01*
X68487991Y-166253069D01*
X68496990Y-166313739D01*
X68500000Y-166375000D01*
X68500000Y-167625000D01*
X68496990Y-167686261D01*
X68487991Y-167746931D01*
X68473088Y-167806428D01*
X68452425Y-167864177D01*
X68426201Y-167919623D01*
X68394669Y-167972231D01*
X68358132Y-168021496D01*
X68316942Y-168066942D01*
X68271496Y-168108132D01*
X68222231Y-168144669D01*
X68169623Y-168176201D01*
X68114177Y-168202425D01*
X68056428Y-168223088D01*
X67996931Y-168237991D01*
X67936261Y-168246990D01*
X67875000Y-168250000D01*
X66625000Y-168250000D01*
X66563739Y-168246990D01*
X66503069Y-168237991D01*
X66443572Y-168223088D01*
X66385823Y-168202425D01*
X66330377Y-168176201D01*
X66277769Y-168144669D01*
X66228504Y-168108132D01*
X66183058Y-168066942D01*
X66141868Y-168021496D01*
X66105331Y-167972231D01*
X66073799Y-167919623D01*
X66047575Y-167864177D01*
X66026912Y-167806428D01*
X66012009Y-167746931D01*
X66003010Y-167686261D01*
X66000000Y-167625000D01*
X66000000Y-166375000D01*
X66003010Y-166313739D01*
X66012009Y-166253069D01*
X66026912Y-166193572D01*
X66047575Y-166135823D01*
X66073799Y-166080377D01*
X66105331Y-166027769D01*
X66141868Y-165978504D01*
X66183058Y-165933058D01*
X66228504Y-165891868D01*
X66277769Y-165855331D01*
X66330377Y-165823799D01*
X66385823Y-165797575D01*
X66443572Y-165776912D01*
X66503069Y-165762009D01*
X66563739Y-165753010D01*
X66625000Y-165750000D01*
X67875000Y-165750000D01*
X67936261Y-165753010D01*
G37*
G04 #@! TD.AperFunction*
D12*
X67250000Y-167000000D03*
X70750000Y-167000000D03*
X32000000Y-147750000D03*
X32000000Y-144250000D03*
G04 #@! TA.AperFunction,SMDPad,CuDef*
D11*
G36*
X32686261Y-143003010D02*
G01*
X32746931Y-143012009D01*
X32806428Y-143026912D01*
X32864177Y-143047575D01*
X32919623Y-143073799D01*
X32972231Y-143105331D01*
X33021496Y-143141868D01*
X33066942Y-143183058D01*
X33108132Y-143228504D01*
X33144669Y-143277769D01*
X33176201Y-143330377D01*
X33202425Y-143385823D01*
X33223088Y-143443572D01*
X33237991Y-143503069D01*
X33246990Y-143563739D01*
X33250000Y-143625000D01*
X33250000Y-144875000D01*
X33246990Y-144936261D01*
X33237991Y-144996931D01*
X33223088Y-145056428D01*
X33202425Y-145114177D01*
X33176201Y-145169623D01*
X33144669Y-145222231D01*
X33108132Y-145271496D01*
X33066942Y-145316942D01*
X33021496Y-145358132D01*
X32972231Y-145394669D01*
X32919623Y-145426201D01*
X32864177Y-145452425D01*
X32806428Y-145473088D01*
X32746931Y-145487991D01*
X32686261Y-145496990D01*
X32625000Y-145500000D01*
X31375000Y-145500000D01*
X31313739Y-145496990D01*
X31253069Y-145487991D01*
X31193572Y-145473088D01*
X31135823Y-145452425D01*
X31080377Y-145426201D01*
X31027769Y-145394669D01*
X30978504Y-145358132D01*
X30933058Y-145316942D01*
X30891868Y-145271496D01*
X30855331Y-145222231D01*
X30823799Y-145169623D01*
X30797575Y-145114177D01*
X30776912Y-145056428D01*
X30762009Y-144996931D01*
X30753010Y-144936261D01*
X30750000Y-144875000D01*
X30750000Y-143625000D01*
X30753010Y-143563739D01*
X30762009Y-143503069D01*
X30776912Y-143443572D01*
X30797575Y-143385823D01*
X30823799Y-143330377D01*
X30855331Y-143277769D01*
X30891868Y-143228504D01*
X30933058Y-143183058D01*
X30978504Y-143141868D01*
X31027769Y-143105331D01*
X31080377Y-143073799D01*
X31135823Y-143047575D01*
X31193572Y-143026912D01*
X31253069Y-143012009D01*
X31313739Y-143003010D01*
X31375000Y-143000000D01*
X32625000Y-143000000D01*
X32686261Y-143003010D01*
G37*
G04 #@! TD.AperFunction*
G04 #@! TA.AperFunction,SMDPad,CuDef*
G36*
X32686261Y-146503010D02*
G01*
X32746931Y-146512009D01*
X32806428Y-146526912D01*
X32864177Y-146547575D01*
X32919623Y-146573799D01*
X32972231Y-146605331D01*
X33021496Y-146641868D01*
X33066942Y-146683058D01*
X33108132Y-146728504D01*
X33144669Y-146777769D01*
X33176201Y-146830377D01*
X33202425Y-146885823D01*
X33223088Y-146943572D01*
X33237991Y-147003069D01*
X33246990Y-147063739D01*
X33250000Y-147125000D01*
X33250000Y-148375000D01*
X33246990Y-148436261D01*
X33237991Y-148496931D01*
X33223088Y-148556428D01*
X33202425Y-148614177D01*
X33176201Y-148669623D01*
X33144669Y-148722231D01*
X33108132Y-148771496D01*
X33066942Y-148816942D01*
X33021496Y-148858132D01*
X32972231Y-148894669D01*
X32919623Y-148926201D01*
X32864177Y-148952425D01*
X32806428Y-148973088D01*
X32746931Y-148987991D01*
X32686261Y-148996990D01*
X32625000Y-149000000D01*
X31375000Y-149000000D01*
X31313739Y-148996990D01*
X31253069Y-148987991D01*
X31193572Y-148973088D01*
X31135823Y-148952425D01*
X31080377Y-148926201D01*
X31027769Y-148894669D01*
X30978504Y-148858132D01*
X30933058Y-148816942D01*
X30891868Y-148771496D01*
X30855331Y-148722231D01*
X30823799Y-148669623D01*
X30797575Y-148614177D01*
X30776912Y-148556428D01*
X30762009Y-148496931D01*
X30753010Y-148436261D01*
X30750000Y-148375000D01*
X30750000Y-147125000D01*
X30753010Y-147063739D01*
X30762009Y-147003069D01*
X30776912Y-146943572D01*
X30797575Y-146885823D01*
X30823799Y-146830377D01*
X30855331Y-146777769D01*
X30891868Y-146728504D01*
X30933058Y-146683058D01*
X30978504Y-146641868D01*
X31027769Y-146605331D01*
X31080377Y-146573799D01*
X31135823Y-146547575D01*
X31193572Y-146526912D01*
X31253069Y-146512009D01*
X31313739Y-146503010D01*
X31375000Y-146500000D01*
X32625000Y-146500000D01*
X32686261Y-146503010D01*
G37*
G04 #@! TD.AperFunction*
G04 #@! TA.AperFunction,SMDPad,CuDef*
G36*
X58436261Y-165753010D02*
G01*
X58496931Y-165762009D01*
X58556428Y-165776912D01*
X58614177Y-165797575D01*
X58669623Y-165823799D01*
X58722231Y-165855331D01*
X58771496Y-165891868D01*
X58816942Y-165933058D01*
X58858132Y-165978504D01*
X58894669Y-166027769D01*
X58926201Y-166080377D01*
X58952425Y-166135823D01*
X58973088Y-166193572D01*
X58987991Y-166253069D01*
X58996990Y-166313739D01*
X59000000Y-166375000D01*
X59000000Y-167625000D01*
X58996990Y-167686261D01*
X58987991Y-167746931D01*
X58973088Y-167806428D01*
X58952425Y-167864177D01*
X58926201Y-167919623D01*
X58894669Y-167972231D01*
X58858132Y-168021496D01*
X58816942Y-168066942D01*
X58771496Y-168108132D01*
X58722231Y-168144669D01*
X58669623Y-168176201D01*
X58614177Y-168202425D01*
X58556428Y-168223088D01*
X58496931Y-168237991D01*
X58436261Y-168246990D01*
X58375000Y-168250000D01*
X57125000Y-168250000D01*
X57063739Y-168246990D01*
X57003069Y-168237991D01*
X56943572Y-168223088D01*
X56885823Y-168202425D01*
X56830377Y-168176201D01*
X56777769Y-168144669D01*
X56728504Y-168108132D01*
X56683058Y-168066942D01*
X56641868Y-168021496D01*
X56605331Y-167972231D01*
X56573799Y-167919623D01*
X56547575Y-167864177D01*
X56526912Y-167806428D01*
X56512009Y-167746931D01*
X56503010Y-167686261D01*
X56500000Y-167625000D01*
X56500000Y-166375000D01*
X56503010Y-166313739D01*
X56512009Y-166253069D01*
X56526912Y-166193572D01*
X56547575Y-166135823D01*
X56573799Y-166080377D01*
X56605331Y-166027769D01*
X56641868Y-165978504D01*
X56683058Y-165933058D01*
X56728504Y-165891868D01*
X56777769Y-165855331D01*
X56830377Y-165823799D01*
X56885823Y-165797575D01*
X56943572Y-165776912D01*
X57003069Y-165762009D01*
X57063739Y-165753010D01*
X57125000Y-165750000D01*
X58375000Y-165750000D01*
X58436261Y-165753010D01*
G37*
G04 #@! TD.AperFunction*
G04 #@! TA.AperFunction,SMDPad,CuDef*
G36*
X54936261Y-165753010D02*
G01*
X54996931Y-165762009D01*
X55056428Y-165776912D01*
X55114177Y-165797575D01*
X55169623Y-165823799D01*
X55222231Y-165855331D01*
X55271496Y-165891868D01*
X55316942Y-165933058D01*
X55358132Y-165978504D01*
X55394669Y-166027769D01*
X55426201Y-166080377D01*
X55452425Y-166135823D01*
X55473088Y-166193572D01*
X55487991Y-166253069D01*
X55496990Y-166313739D01*
X55500000Y-166375000D01*
X55500000Y-167625000D01*
X55496990Y-167686261D01*
X55487991Y-167746931D01*
X55473088Y-167806428D01*
X55452425Y-167864177D01*
X55426201Y-167919623D01*
X55394669Y-167972231D01*
X55358132Y-168021496D01*
X55316942Y-168066942D01*
X55271496Y-168108132D01*
X55222231Y-168144669D01*
X55169623Y-168176201D01*
X55114177Y-168202425D01*
X55056428Y-168223088D01*
X54996931Y-168237991D01*
X54936261Y-168246990D01*
X54875000Y-168250000D01*
X53625000Y-168250000D01*
X53563739Y-168246990D01*
X53503069Y-168237991D01*
X53443572Y-168223088D01*
X53385823Y-168202425D01*
X53330377Y-168176201D01*
X53277769Y-168144669D01*
X53228504Y-168108132D01*
X53183058Y-168066942D01*
X53141868Y-168021496D01*
X53105331Y-167972231D01*
X53073799Y-167919623D01*
X53047575Y-167864177D01*
X53026912Y-167806428D01*
X53012009Y-167746931D01*
X53003010Y-167686261D01*
X53000000Y-167625000D01*
X53000000Y-166375000D01*
X53003010Y-166313739D01*
X53012009Y-166253069D01*
X53026912Y-166193572D01*
X53047575Y-166135823D01*
X53073799Y-166080377D01*
X53105331Y-166027769D01*
X53141868Y-165978504D01*
X53183058Y-165933058D01*
X53228504Y-165891868D01*
X53277769Y-165855331D01*
X53330377Y-165823799D01*
X53385823Y-165797575D01*
X53443572Y-165776912D01*
X53503069Y-165762009D01*
X53563739Y-165753010D01*
X53625000Y-165750000D01*
X54875000Y-165750000D01*
X54936261Y-165753010D01*
G37*
G04 #@! TD.AperFunction*
D12*
X54250000Y-167000000D03*
X57750000Y-167000000D03*
G04 #@! TA.AperFunction,SMDPad,CuDef*
D11*
G36*
X49936261Y-165753010D02*
G01*
X49996931Y-165762009D01*
X50056428Y-165776912D01*
X50114177Y-165797575D01*
X50169623Y-165823799D01*
X50222231Y-165855331D01*
X50271496Y-165891868D01*
X50316942Y-165933058D01*
X50358132Y-165978504D01*
X50394669Y-166027769D01*
X50426201Y-166080377D01*
X50452425Y-166135823D01*
X50473088Y-166193572D01*
X50487991Y-166253069D01*
X50496990Y-166313739D01*
X50500000Y-166375000D01*
X50500000Y-167625000D01*
X50496990Y-167686261D01*
X50487991Y-167746931D01*
X50473088Y-167806428D01*
X50452425Y-167864177D01*
X50426201Y-167919623D01*
X50394669Y-167972231D01*
X50358132Y-168021496D01*
X50316942Y-168066942D01*
X50271496Y-168108132D01*
X50222231Y-168144669D01*
X50169623Y-168176201D01*
X50114177Y-168202425D01*
X50056428Y-168223088D01*
X49996931Y-168237991D01*
X49936261Y-168246990D01*
X49875000Y-168250000D01*
X48625000Y-168250000D01*
X48563739Y-168246990D01*
X48503069Y-168237991D01*
X48443572Y-168223088D01*
X48385823Y-168202425D01*
X48330377Y-168176201D01*
X48277769Y-168144669D01*
X48228504Y-168108132D01*
X48183058Y-168066942D01*
X48141868Y-168021496D01*
X48105331Y-167972231D01*
X48073799Y-167919623D01*
X48047575Y-167864177D01*
X48026912Y-167806428D01*
X48012009Y-167746931D01*
X48003010Y-167686261D01*
X48000000Y-167625000D01*
X48000000Y-166375000D01*
X48003010Y-166313739D01*
X48012009Y-166253069D01*
X48026912Y-166193572D01*
X48047575Y-166135823D01*
X48073799Y-166080377D01*
X48105331Y-166027769D01*
X48141868Y-165978504D01*
X48183058Y-165933058D01*
X48228504Y-165891868D01*
X48277769Y-165855331D01*
X48330377Y-165823799D01*
X48385823Y-165797575D01*
X48443572Y-165776912D01*
X48503069Y-165762009D01*
X48563739Y-165753010D01*
X48625000Y-165750000D01*
X49875000Y-165750000D01*
X49936261Y-165753010D01*
G37*
G04 #@! TD.AperFunction*
G04 #@! TA.AperFunction,SMDPad,CuDef*
G36*
X46436261Y-165753010D02*
G01*
X46496931Y-165762009D01*
X46556428Y-165776912D01*
X46614177Y-165797575D01*
X46669623Y-165823799D01*
X46722231Y-165855331D01*
X46771496Y-165891868D01*
X46816942Y-165933058D01*
X46858132Y-165978504D01*
X46894669Y-166027769D01*
X46926201Y-166080377D01*
X46952425Y-166135823D01*
X46973088Y-166193572D01*
X46987991Y-166253069D01*
X46996990Y-166313739D01*
X47000000Y-166375000D01*
X47000000Y-167625000D01*
X46996990Y-167686261D01*
X46987991Y-167746931D01*
X46973088Y-167806428D01*
X46952425Y-167864177D01*
X46926201Y-167919623D01*
X46894669Y-167972231D01*
X46858132Y-168021496D01*
X46816942Y-168066942D01*
X46771496Y-168108132D01*
X46722231Y-168144669D01*
X46669623Y-168176201D01*
X46614177Y-168202425D01*
X46556428Y-168223088D01*
X46496931Y-168237991D01*
X46436261Y-168246990D01*
X46375000Y-168250000D01*
X45125000Y-168250000D01*
X45063739Y-168246990D01*
X45003069Y-168237991D01*
X44943572Y-168223088D01*
X44885823Y-168202425D01*
X44830377Y-168176201D01*
X44777769Y-168144669D01*
X44728504Y-168108132D01*
X44683058Y-168066942D01*
X44641868Y-168021496D01*
X44605331Y-167972231D01*
X44573799Y-167919623D01*
X44547575Y-167864177D01*
X44526912Y-167806428D01*
X44512009Y-167746931D01*
X44503010Y-167686261D01*
X44500000Y-167625000D01*
X44500000Y-166375000D01*
X44503010Y-166313739D01*
X44512009Y-166253069D01*
X44526912Y-166193572D01*
X44547575Y-166135823D01*
X44573799Y-166080377D01*
X44605331Y-166027769D01*
X44641868Y-165978504D01*
X44683058Y-165933058D01*
X44728504Y-165891868D01*
X44777769Y-165855331D01*
X44830377Y-165823799D01*
X44885823Y-165797575D01*
X44943572Y-165776912D01*
X45003069Y-165762009D01*
X45063739Y-165753010D01*
X45125000Y-165750000D01*
X46375000Y-165750000D01*
X46436261Y-165753010D01*
G37*
G04 #@! TD.AperFunction*
D12*
X45750000Y-167000000D03*
X49250000Y-167000000D03*
G04 #@! TA.AperFunction,SMDPad,CuDef*
D11*
G36*
X41436261Y-165753010D02*
G01*
X41496931Y-165762009D01*
X41556428Y-165776912D01*
X41614177Y-165797575D01*
X41669623Y-165823799D01*
X41722231Y-165855331D01*
X41771496Y-165891868D01*
X41816942Y-165933058D01*
X41858132Y-165978504D01*
X41894669Y-166027769D01*
X41926201Y-166080377D01*
X41952425Y-166135823D01*
X41973088Y-166193572D01*
X41987991Y-166253069D01*
X41996990Y-166313739D01*
X42000000Y-166375000D01*
X42000000Y-167625000D01*
X41996990Y-167686261D01*
X41987991Y-167746931D01*
X41973088Y-167806428D01*
X41952425Y-167864177D01*
X41926201Y-167919623D01*
X41894669Y-167972231D01*
X41858132Y-168021496D01*
X41816942Y-168066942D01*
X41771496Y-168108132D01*
X41722231Y-168144669D01*
X41669623Y-168176201D01*
X41614177Y-168202425D01*
X41556428Y-168223088D01*
X41496931Y-168237991D01*
X41436261Y-168246990D01*
X41375000Y-168250000D01*
X40125000Y-168250000D01*
X40063739Y-168246990D01*
X40003069Y-168237991D01*
X39943572Y-168223088D01*
X39885823Y-168202425D01*
X39830377Y-168176201D01*
X39777769Y-168144669D01*
X39728504Y-168108132D01*
X39683058Y-168066942D01*
X39641868Y-168021496D01*
X39605331Y-167972231D01*
X39573799Y-167919623D01*
X39547575Y-167864177D01*
X39526912Y-167806428D01*
X39512009Y-167746931D01*
X39503010Y-167686261D01*
X39500000Y-167625000D01*
X39500000Y-166375000D01*
X39503010Y-166313739D01*
X39512009Y-166253069D01*
X39526912Y-166193572D01*
X39547575Y-166135823D01*
X39573799Y-166080377D01*
X39605331Y-166027769D01*
X39641868Y-165978504D01*
X39683058Y-165933058D01*
X39728504Y-165891868D01*
X39777769Y-165855331D01*
X39830377Y-165823799D01*
X39885823Y-165797575D01*
X39943572Y-165776912D01*
X40003069Y-165762009D01*
X40063739Y-165753010D01*
X40125000Y-165750000D01*
X41375000Y-165750000D01*
X41436261Y-165753010D01*
G37*
G04 #@! TD.AperFunction*
G04 #@! TA.AperFunction,SMDPad,CuDef*
G36*
X37936261Y-165753010D02*
G01*
X37996931Y-165762009D01*
X38056428Y-165776912D01*
X38114177Y-165797575D01*
X38169623Y-165823799D01*
X38222231Y-165855331D01*
X38271496Y-165891868D01*
X38316942Y-165933058D01*
X38358132Y-165978504D01*
X38394669Y-166027769D01*
X38426201Y-166080377D01*
X38452425Y-166135823D01*
X38473088Y-166193572D01*
X38487991Y-166253069D01*
X38496990Y-166313739D01*
X38500000Y-166375000D01*
X38500000Y-167625000D01*
X38496990Y-167686261D01*
X38487991Y-167746931D01*
X38473088Y-167806428D01*
X38452425Y-167864177D01*
X38426201Y-167919623D01*
X38394669Y-167972231D01*
X38358132Y-168021496D01*
X38316942Y-168066942D01*
X38271496Y-168108132D01*
X38222231Y-168144669D01*
X38169623Y-168176201D01*
X38114177Y-168202425D01*
X38056428Y-168223088D01*
X37996931Y-168237991D01*
X37936261Y-168246990D01*
X37875000Y-168250000D01*
X36625000Y-168250000D01*
X36563739Y-168246990D01*
X36503069Y-168237991D01*
X36443572Y-168223088D01*
X36385823Y-168202425D01*
X36330377Y-168176201D01*
X36277769Y-168144669D01*
X36228504Y-168108132D01*
X36183058Y-168066942D01*
X36141868Y-168021496D01*
X36105331Y-167972231D01*
X36073799Y-167919623D01*
X36047575Y-167864177D01*
X36026912Y-167806428D01*
X36012009Y-167746931D01*
X36003010Y-167686261D01*
X36000000Y-167625000D01*
X36000000Y-166375000D01*
X36003010Y-166313739D01*
X36012009Y-166253069D01*
X36026912Y-166193572D01*
X36047575Y-166135823D01*
X36073799Y-166080377D01*
X36105331Y-166027769D01*
X36141868Y-165978504D01*
X36183058Y-165933058D01*
X36228504Y-165891868D01*
X36277769Y-165855331D01*
X36330377Y-165823799D01*
X36385823Y-165797575D01*
X36443572Y-165776912D01*
X36503069Y-165762009D01*
X36563739Y-165753010D01*
X36625000Y-165750000D01*
X37875000Y-165750000D01*
X37936261Y-165753010D01*
G37*
G04 #@! TD.AperFunction*
D12*
X37250000Y-167000000D03*
X40750000Y-167000000D03*
G04 #@! TA.AperFunction,SMDPad,CuDef*
D11*
G36*
X40000000Y-155250000D02*
G01*
X40000000Y-154750000D01*
X40000602Y-154750000D01*
X40000602Y-154725466D01*
X40005412Y-154676635D01*
X40014984Y-154628510D01*
X40029228Y-154581555D01*
X40048005Y-154536222D01*
X40071136Y-154492949D01*
X40098396Y-154452150D01*
X40129524Y-154414221D01*
X40164221Y-154379524D01*
X40202150Y-154348396D01*
X40242949Y-154321136D01*
X40286222Y-154298005D01*
X40331555Y-154279228D01*
X40378510Y-154264984D01*
X40426635Y-154255412D01*
X40475466Y-154250602D01*
X40500000Y-154250602D01*
X40500000Y-154250000D01*
X41000000Y-154250000D01*
X41000000Y-154250602D01*
X41024534Y-154250602D01*
X41073365Y-154255412D01*
X41121490Y-154264984D01*
X41168445Y-154279228D01*
X41213778Y-154298005D01*
X41257051Y-154321136D01*
X41297850Y-154348396D01*
X41335779Y-154379524D01*
X41370476Y-154414221D01*
X41401604Y-154452150D01*
X41428864Y-154492949D01*
X41451995Y-154536222D01*
X41470772Y-154581555D01*
X41485016Y-154628510D01*
X41494588Y-154676635D01*
X41499398Y-154725466D01*
X41499398Y-154750000D01*
X41500000Y-154750000D01*
X41500000Y-155250000D01*
X40000000Y-155250000D01*
G37*
G04 #@! TD.AperFunction*
G04 #@! TA.AperFunction,SMDPad,CuDef*
G36*
X41499398Y-156050000D02*
G01*
X41499398Y-156074534D01*
X41494588Y-156123365D01*
X41485016Y-156171490D01*
X41470772Y-156218445D01*
X41451995Y-156263778D01*
X41428864Y-156307051D01*
X41401604Y-156347850D01*
X41370476Y-156385779D01*
X41335779Y-156420476D01*
X41297850Y-156451604D01*
X41257051Y-156478864D01*
X41213778Y-156501995D01*
X41168445Y-156520772D01*
X41121490Y-156535016D01*
X41073365Y-156544588D01*
X41024534Y-156549398D01*
X41000000Y-156549398D01*
X41000000Y-156550000D01*
X40500000Y-156550000D01*
X40500000Y-156549398D01*
X40475466Y-156549398D01*
X40426635Y-156544588D01*
X40378510Y-156535016D01*
X40331555Y-156520772D01*
X40286222Y-156501995D01*
X40242949Y-156478864D01*
X40202150Y-156451604D01*
X40164221Y-156420476D01*
X40129524Y-156385779D01*
X40098396Y-156347850D01*
X40071136Y-156307051D01*
X40048005Y-156263778D01*
X40029228Y-156218445D01*
X40014984Y-156171490D01*
X40005412Y-156123365D01*
X40000602Y-156074534D01*
X40000602Y-156050000D01*
X40000000Y-156050000D01*
X40000000Y-155550000D01*
X41500000Y-155550000D01*
X41500000Y-156050000D01*
X41499398Y-156050000D01*
G37*
G04 #@! TD.AperFunction*
G04 #@! TA.AperFunction,SMDPad,CuDef*
G36*
X45499398Y-156150000D02*
G01*
X45499398Y-156174534D01*
X45494588Y-156223365D01*
X45485016Y-156271490D01*
X45470772Y-156318445D01*
X45451995Y-156363778D01*
X45428864Y-156407051D01*
X45401604Y-156447850D01*
X45370476Y-156485779D01*
X45335779Y-156520476D01*
X45297850Y-156551604D01*
X45257051Y-156578864D01*
X45213778Y-156601995D01*
X45168445Y-156620772D01*
X45121490Y-156635016D01*
X45073365Y-156644588D01*
X45024534Y-156649398D01*
X45000000Y-156649398D01*
X45000000Y-156650000D01*
X44500000Y-156650000D01*
X44500000Y-156649398D01*
X44475466Y-156649398D01*
X44426635Y-156644588D01*
X44378510Y-156635016D01*
X44331555Y-156620772D01*
X44286222Y-156601995D01*
X44242949Y-156578864D01*
X44202150Y-156551604D01*
X44164221Y-156520476D01*
X44129524Y-156485779D01*
X44098396Y-156447850D01*
X44071136Y-156407051D01*
X44048005Y-156363778D01*
X44029228Y-156318445D01*
X44014984Y-156271490D01*
X44005412Y-156223365D01*
X44000602Y-156174534D01*
X44000602Y-156150000D01*
X44000000Y-156150000D01*
X44000000Y-155650000D01*
X45500000Y-155650000D01*
X45500000Y-156150000D01*
X45499398Y-156150000D01*
G37*
G04 #@! TD.AperFunction*
G04 #@! TA.AperFunction,SMDPad,CuDef*
G36*
X44000000Y-155350000D02*
G01*
X44000000Y-154850000D01*
X44000602Y-154850000D01*
X44000602Y-154825466D01*
X44005412Y-154776635D01*
X44014984Y-154728510D01*
X44029228Y-154681555D01*
X44048005Y-154636222D01*
X44071136Y-154592949D01*
X44098396Y-154552150D01*
X44129524Y-154514221D01*
X44164221Y-154479524D01*
X44202150Y-154448396D01*
X44242949Y-154421136D01*
X44286222Y-154398005D01*
X44331555Y-154379228D01*
X44378510Y-154364984D01*
X44426635Y-154355412D01*
X44475466Y-154350602D01*
X44500000Y-154350602D01*
X44500000Y-154350000D01*
X45000000Y-154350000D01*
X45000000Y-154350602D01*
X45024534Y-154350602D01*
X45073365Y-154355412D01*
X45121490Y-154364984D01*
X45168445Y-154379228D01*
X45213778Y-154398005D01*
X45257051Y-154421136D01*
X45297850Y-154448396D01*
X45335779Y-154479524D01*
X45370476Y-154514221D01*
X45401604Y-154552150D01*
X45428864Y-154592949D01*
X45451995Y-154636222D01*
X45470772Y-154681555D01*
X45485016Y-154728510D01*
X45494588Y-154776635D01*
X45499398Y-154825466D01*
X45499398Y-154850000D01*
X45500000Y-154850000D01*
X45500000Y-155350000D01*
X44000000Y-155350000D01*
G37*
G04 #@! TD.AperFunction*
G04 #@! TA.AperFunction,SMDPad,CuDef*
G36*
X48000000Y-155250000D02*
G01*
X48000000Y-154750000D01*
X48000602Y-154750000D01*
X48000602Y-154725466D01*
X48005412Y-154676635D01*
X48014984Y-154628510D01*
X48029228Y-154581555D01*
X48048005Y-154536222D01*
X48071136Y-154492949D01*
X48098396Y-154452150D01*
X48129524Y-154414221D01*
X48164221Y-154379524D01*
X48202150Y-154348396D01*
X48242949Y-154321136D01*
X48286222Y-154298005D01*
X48331555Y-154279228D01*
X48378510Y-154264984D01*
X48426635Y-154255412D01*
X48475466Y-154250602D01*
X48500000Y-154250602D01*
X48500000Y-154250000D01*
X49000000Y-154250000D01*
X49000000Y-154250602D01*
X49024534Y-154250602D01*
X49073365Y-154255412D01*
X49121490Y-154264984D01*
X49168445Y-154279228D01*
X49213778Y-154298005D01*
X49257051Y-154321136D01*
X49297850Y-154348396D01*
X49335779Y-154379524D01*
X49370476Y-154414221D01*
X49401604Y-154452150D01*
X49428864Y-154492949D01*
X49451995Y-154536222D01*
X49470772Y-154581555D01*
X49485016Y-154628510D01*
X49494588Y-154676635D01*
X49499398Y-154725466D01*
X49499398Y-154750000D01*
X49500000Y-154750000D01*
X49500000Y-155250000D01*
X48000000Y-155250000D01*
G37*
G04 #@! TD.AperFunction*
G04 #@! TA.AperFunction,SMDPad,CuDef*
G36*
X49499398Y-156050000D02*
G01*
X49499398Y-156074534D01*
X49494588Y-156123365D01*
X49485016Y-156171490D01*
X49470772Y-156218445D01*
X49451995Y-156263778D01*
X49428864Y-156307051D01*
X49401604Y-156347850D01*
X49370476Y-156385779D01*
X49335779Y-156420476D01*
X49297850Y-156451604D01*
X49257051Y-156478864D01*
X49213778Y-156501995D01*
X49168445Y-156520772D01*
X49121490Y-156535016D01*
X49073365Y-156544588D01*
X49024534Y-156549398D01*
X49000000Y-156549398D01*
X49000000Y-156550000D01*
X48500000Y-156550000D01*
X48500000Y-156549398D01*
X48475466Y-156549398D01*
X48426635Y-156544588D01*
X48378510Y-156535016D01*
X48331555Y-156520772D01*
X48286222Y-156501995D01*
X48242949Y-156478864D01*
X48202150Y-156451604D01*
X48164221Y-156420476D01*
X48129524Y-156385779D01*
X48098396Y-156347850D01*
X48071136Y-156307051D01*
X48048005Y-156263778D01*
X48029228Y-156218445D01*
X48014984Y-156171490D01*
X48005412Y-156123365D01*
X48000602Y-156074534D01*
X48000602Y-156050000D01*
X48000000Y-156050000D01*
X48000000Y-155550000D01*
X49500000Y-155550000D01*
X49500000Y-156050000D01*
X49499398Y-156050000D01*
G37*
G04 #@! TD.AperFunction*
D16*
X87000000Y-130000000D03*
X88000000Y-130000000D03*
X89000000Y-130000000D03*
X90000000Y-130000000D03*
X91000000Y-130000000D03*
X92000000Y-130000000D03*
X93000000Y-130000000D03*
X93000000Y-126000000D03*
X92000000Y-126000000D03*
X91000000Y-126000000D03*
X90000000Y-126000000D03*
X59000000Y-130000000D03*
X60000000Y-130000000D03*
X61000000Y-130000000D03*
X62000000Y-130000000D03*
X63000000Y-130000000D03*
X64000000Y-130000000D03*
X65000000Y-130000000D03*
X66000000Y-130000000D03*
X38000000Y-130000000D03*
X37000000Y-130000000D03*
X36000000Y-130000000D03*
X35000000Y-130000000D03*
X34000000Y-130000000D03*
X33000000Y-130000000D03*
X32000000Y-130000000D03*
X88000000Y-126000000D03*
X89000000Y-126000000D03*
X87000000Y-126000000D03*
X36000000Y-126000000D03*
X37000000Y-126000000D03*
X63000000Y-126000000D03*
X35000000Y-126000000D03*
X33000000Y-126000000D03*
X59000000Y-126000000D03*
X60000000Y-126000000D03*
X34000000Y-126000000D03*
X61000000Y-126000000D03*
X62000000Y-126000000D03*
X64000000Y-126000000D03*
X65000000Y-126000000D03*
X66000000Y-126000000D03*
X32000000Y-126000000D03*
X38000000Y-126000000D03*
X84000000Y-159500000D03*
X84750000Y-153250000D03*
X66500000Y-156250000D03*
X77500000Y-159250000D03*
X74250000Y-143000000D03*
X69200000Y-154300000D03*
X69200000Y-153500000D03*
X86800000Y-153900000D03*
X86800000Y-153200000D03*
X86800000Y-152500000D03*
X54800000Y-153400000D03*
X52700000Y-153400000D03*
X53300000Y-163200000D03*
X75500000Y-136500000D03*
X69750000Y-136500000D03*
X59400000Y-159200000D03*
X39650000Y-158650000D03*
X40400000Y-157800000D03*
X66000000Y-154000000D03*
X44000000Y-157800000D03*
X41815000Y-157800000D03*
X60200000Y-158500000D03*
X61400000Y-153900000D03*
X51000000Y-155750000D03*
X51000000Y-165500000D03*
X45900000Y-157800000D03*
X60800000Y-157800000D03*
X67100000Y-154000000D03*
X49400000Y-150900000D03*
X77500000Y-154400000D03*
X79900000Y-154400000D03*
X84500000Y-154500000D03*
D17*
X75300000Y-154400000D03*
X71750000Y-153500000D03*
X73000000Y-147750000D03*
D16*
X74000000Y-163000000D03*
X79500000Y-157000000D03*
X82245558Y-155745558D03*
X83700000Y-148400000D03*
X83250000Y-153000000D03*
D17*
X72500000Y-161000000D03*
D16*
X80500000Y-156500000D03*
X48750000Y-153250000D03*
X44750000Y-153250000D03*
X40750000Y-153250000D03*
X69250000Y-150250000D03*
X69250000Y-135000000D03*
X68250000Y-150250000D03*
X68750000Y-134000000D03*
X66500000Y-150250000D03*
X65000000Y-134000000D03*
X65500000Y-150250000D03*
X61000000Y-134000000D03*
X69500000Y-148750000D03*
X74000000Y-134000000D03*
X70500000Y-148750000D03*
X78000000Y-134000000D03*
X72500000Y-141900000D03*
X71500000Y-149750000D03*
X72250000Y-148250000D03*
X73978801Y-152049466D03*
X85000000Y-148500000D03*
D18*
X34913998Y-162420000D02*
X35000000Y-162333998D01*
X31460000Y-162420000D02*
X34913998Y-162420000D01*
X35000000Y-150750000D02*
X32000000Y-147750000D01*
X35000000Y-162333998D02*
X35000000Y-150750000D01*
X32000000Y-147750000D02*
X32000000Y-144250000D01*
X35000000Y-170500000D02*
X35000000Y-162333998D01*
X51750000Y-161950000D02*
X51750000Y-170000000D01*
X49500000Y-161000000D02*
X50800000Y-161000000D01*
X50800000Y-161000000D02*
X51750000Y-161950000D01*
X36500000Y-172000000D02*
X35000000Y-170500000D01*
X51750000Y-170000000D02*
X49750000Y-172000000D01*
X49750000Y-172000000D02*
X36500000Y-172000000D01*
D19*
X81800000Y-153500000D02*
X81925001Y-153625001D01*
X77500000Y-159250000D02*
X76000000Y-159250000D01*
X84374999Y-153625001D02*
X84450001Y-153549999D01*
X74700000Y-153500000D02*
X81800000Y-153500000D01*
X76000000Y-159250000D02*
X74574999Y-157824999D01*
X84450001Y-153549999D02*
X84750000Y-153250000D01*
X74574999Y-157824999D02*
X74574999Y-153625001D01*
X81925001Y-153625001D02*
X84374999Y-153625001D01*
X74574999Y-153625001D02*
X74700000Y-153500000D01*
X40200000Y-159200000D02*
X40300000Y-159200000D01*
X39650000Y-158650000D02*
X40200000Y-159200000D01*
X59400000Y-159200000D02*
X40200000Y-159200000D01*
X40250000Y-161000000D02*
X41190000Y-161000000D01*
X37250000Y-164000000D02*
X40250000Y-161000000D01*
X40750000Y-157450000D02*
X40750000Y-156050000D01*
X40400000Y-157800000D02*
X40750000Y-157450000D01*
X37250000Y-164000000D02*
X37250000Y-167000000D01*
X44750000Y-156150000D02*
X44750000Y-157050000D01*
X44750000Y-157050000D02*
X44000000Y-157800000D01*
X45700000Y-157100000D02*
X44750000Y-156150000D01*
X66000000Y-154000000D02*
X63500000Y-154000000D01*
X60400000Y-157100000D02*
X45700000Y-157100000D01*
X63500000Y-154000000D02*
X60400000Y-157100000D01*
X49250000Y-166750000D02*
X48600000Y-166100000D01*
X49250000Y-168000000D02*
X49250000Y-166750000D01*
X42515000Y-158500000D02*
X60200000Y-158500000D01*
X41815000Y-157800000D02*
X42515000Y-158500000D01*
X48763590Y-167000000D02*
X49250000Y-167000000D01*
X46728591Y-164965001D02*
X48763590Y-167000000D01*
X43700001Y-164965001D02*
X46728591Y-164965001D01*
X42575000Y-163840000D02*
X43700001Y-164965001D01*
X58900000Y-156400000D02*
X61400000Y-153900000D01*
X48750000Y-156050000D02*
X49100000Y-156400000D01*
X50350000Y-156400000D02*
X50200000Y-156400000D01*
X51000000Y-155750000D02*
X50350000Y-156400000D01*
X49100000Y-156400000D02*
X50200000Y-156400000D01*
X50200000Y-156400000D02*
X58900000Y-156400000D01*
X47700000Y-165300000D02*
X50800000Y-165300000D01*
X46730000Y-161000000D02*
X46730000Y-164330000D01*
X50800000Y-165300000D02*
X51000000Y-165500000D01*
X46730000Y-164330000D02*
X47700000Y-165300000D01*
X52450000Y-157800000D02*
X45900000Y-157800000D01*
X60800000Y-157800000D02*
X52450000Y-157800000D01*
X64000000Y-150900000D02*
X49400000Y-150900000D01*
X67100000Y-154000000D02*
X64000000Y-150900000D01*
X77500000Y-154400000D02*
X79900000Y-154400000D01*
X77500000Y-154400000D02*
X77075736Y-154400000D01*
X77075736Y-154400000D02*
X75300000Y-154400000D01*
D18*
X71750000Y-153500000D02*
X73000000Y-152250000D01*
X73000000Y-152250000D02*
X73000000Y-147750000D01*
D19*
X84174999Y-154825001D02*
X84500000Y-154500000D01*
X80225001Y-154825001D02*
X84174999Y-154825001D01*
X79900000Y-154400000D02*
X79900000Y-154500000D01*
X79900000Y-154500000D02*
X80225001Y-154825001D01*
X69650000Y-169400000D02*
X69650000Y-171000000D01*
X67250000Y-167000000D02*
X69650000Y-169400000D01*
X75965000Y-163000000D02*
X76805000Y-163840000D01*
X74000000Y-163000000D02*
X75965000Y-163000000D01*
X69650000Y-171000000D02*
X69650000Y-172000000D01*
X80199999Y-155874999D02*
X82025001Y-155874999D01*
X79500000Y-157000000D02*
X79500000Y-156574998D01*
X79500000Y-156574998D02*
X80199999Y-155874999D01*
X75750000Y-168002408D02*
X75750000Y-168000000D01*
X82025001Y-155874999D02*
X82116117Y-155874999D01*
X82116117Y-155874999D02*
X82245558Y-155745558D01*
X78000000Y-169250000D02*
X75750000Y-167000000D01*
X78000000Y-172000000D02*
X78000000Y-169250000D01*
X83700000Y-148600000D02*
X83700000Y-148400000D01*
X86650000Y-169400000D02*
X86650000Y-171000000D01*
X84250000Y-167000000D02*
X86650000Y-169400000D01*
X83700000Y-152550000D02*
X83700000Y-148400000D01*
X83250000Y-153000000D02*
X83700000Y-152550000D01*
X86650000Y-171000000D02*
X86650000Y-172000000D01*
D18*
X72500000Y-161000000D02*
X75420000Y-161000000D01*
X93000000Y-158750000D02*
X93000000Y-156250000D01*
X93000000Y-158750000D02*
X89250000Y-162500000D01*
X76920000Y-162500000D02*
X75420000Y-161000000D01*
X89250000Y-162500000D02*
X76920000Y-162500000D01*
D19*
X80500000Y-158690000D02*
X78190000Y-161000000D01*
X80500000Y-156500000D02*
X80500000Y-158690000D01*
X78190000Y-161000000D02*
X77500000Y-161000000D01*
X77750000Y-161000000D02*
X78190000Y-161000000D01*
X48750000Y-153250000D02*
X48750000Y-154750000D01*
X44750000Y-154850000D02*
X44750000Y-153250000D01*
X40750000Y-153250000D02*
X40750000Y-154750000D01*
X68500000Y-149500000D02*
X68500000Y-135750000D01*
X68500000Y-135750000D02*
X69250000Y-135000000D01*
X69250000Y-150250000D02*
X68500000Y-149500000D01*
X68250000Y-150250000D02*
X67500000Y-149500000D01*
X67500000Y-149500000D02*
X67500000Y-135250000D01*
X67500000Y-135250000D02*
X68750000Y-134000000D01*
X65500000Y-134000000D02*
X65000000Y-134000000D01*
X66500000Y-150250000D02*
X66500000Y-135000000D01*
X66500000Y-135000000D02*
X65500000Y-134000000D01*
X65500000Y-136250000D02*
X65500000Y-150250000D01*
X65250000Y-136000000D02*
X65500000Y-136250000D01*
X65250000Y-136000000D02*
X64000000Y-134750000D01*
X64000000Y-134750000D02*
X63500000Y-134250000D01*
X63500000Y-134250000D02*
X63250000Y-134000000D01*
X63250000Y-134000000D02*
X61000000Y-134000000D01*
X69500000Y-148325736D02*
X69500000Y-148750000D01*
X69500000Y-138075736D02*
X69500000Y-148325736D01*
X73575736Y-134000000D02*
X69500000Y-138075736D01*
X74000000Y-134000000D02*
X73575736Y-134000000D01*
X70500000Y-140250000D02*
X70500000Y-138750000D01*
X70500000Y-138750000D02*
X75250000Y-134000000D01*
X75250000Y-134000000D02*
X78000000Y-134000000D01*
X72075736Y-141900000D02*
X70500000Y-141900000D01*
X70500000Y-148750000D02*
X70500000Y-141900000D01*
X72500000Y-141900000D02*
X72075736Y-141900000D01*
X70500000Y-141900000D02*
X70500000Y-140250000D01*
X65250000Y-161000000D02*
X65250000Y-169397592D01*
X70500000Y-150750000D02*
X70500000Y-158500000D01*
X65250000Y-169397592D02*
X66852408Y-171000000D01*
X71500000Y-149750000D02*
X70500000Y-150750000D01*
X70500000Y-158500000D02*
X69750000Y-159250000D01*
X69750000Y-159250000D02*
X67000000Y-159250000D01*
X67000000Y-159250000D02*
X65250000Y-161000000D01*
X66852408Y-171002408D02*
X66852408Y-171000000D01*
X67850000Y-172000000D02*
X66852408Y-171002408D01*
X68350000Y-172000000D02*
X67850000Y-172000000D01*
X72250000Y-151926998D02*
X72250000Y-148250000D01*
X71000000Y-153176998D02*
X72250000Y-151926998D01*
X75200000Y-172000000D02*
X73500000Y-170300000D01*
X76700000Y-172000000D02*
X75200000Y-172000000D01*
X73500000Y-170300000D02*
X73500000Y-167000000D01*
X73500000Y-167000000D02*
X71000000Y-164500000D01*
X71000000Y-164500000D02*
X71000000Y-153176998D01*
X73978801Y-152049466D02*
X75250000Y-150778267D01*
X84274999Y-147774999D02*
X85000000Y-148500000D01*
X75250000Y-150778267D02*
X78253268Y-147774999D01*
X78253268Y-147774999D02*
X84274999Y-147774999D01*
X73978801Y-157771199D02*
X73978801Y-152049466D01*
X71750000Y-164250000D02*
X71750000Y-160000000D01*
X72465001Y-164965001D02*
X71750000Y-164250000D01*
X79965001Y-164965001D02*
X72465001Y-164965001D01*
X80000000Y-165000000D02*
X79965001Y-164965001D01*
X83000000Y-172000000D02*
X81750000Y-170750000D01*
X81250000Y-165000000D02*
X80000000Y-165000000D01*
X85350000Y-172000000D02*
X83000000Y-172000000D01*
X71750000Y-160000000D02*
X73978801Y-157771199D01*
X81750000Y-165500000D02*
X81250000Y-165000000D01*
X81750000Y-170750000D02*
X81750000Y-165500000D01*
D20*
G36*
X38928007Y-130431837D02*
G01*
X38983311Y-130454631D01*
X39038295Y-130478198D01*
X39047098Y-130480923D01*
X39420770Y-130593741D01*
X39479458Y-130605361D01*
X39537961Y-130617797D01*
X39547126Y-130618760D01*
X39935595Y-130656850D01*
X39935598Y-130656850D01*
X39967581Y-130660000D01*
X57532419Y-130660000D01*
X57566382Y-130656655D01*
X57592329Y-130656655D01*
X57601494Y-130655692D01*
X57989393Y-130612182D01*
X58047873Y-130599751D01*
X58106583Y-130588127D01*
X58115386Y-130585401D01*
X58240185Y-130545813D01*
X58273738Y-130596028D01*
X58403972Y-130726262D01*
X58557111Y-130828586D01*
X58727271Y-130899068D01*
X58907911Y-130935000D01*
X59092089Y-130935000D01*
X59272729Y-130899068D01*
X59442889Y-130828586D01*
X59500000Y-130790426D01*
X59557111Y-130828586D01*
X59727271Y-130899068D01*
X59907911Y-130935000D01*
X60092089Y-130935000D01*
X60272729Y-130899068D01*
X60442889Y-130828586D01*
X60500000Y-130790426D01*
X60557111Y-130828586D01*
X60727271Y-130899068D01*
X60907911Y-130935000D01*
X61092089Y-130935000D01*
X61272729Y-130899068D01*
X61442889Y-130828586D01*
X61500000Y-130790426D01*
X61557111Y-130828586D01*
X61727271Y-130899068D01*
X61907911Y-130935000D01*
X62092089Y-130935000D01*
X62272729Y-130899068D01*
X62442889Y-130828586D01*
X62500000Y-130790426D01*
X62557111Y-130828586D01*
X62727271Y-130899068D01*
X62907911Y-130935000D01*
X63092089Y-130935000D01*
X63272729Y-130899068D01*
X63442889Y-130828586D01*
X63500000Y-130790426D01*
X63557111Y-130828586D01*
X63727271Y-130899068D01*
X63907911Y-130935000D01*
X64092089Y-130935000D01*
X64272729Y-130899068D01*
X64442889Y-130828586D01*
X64500000Y-130790426D01*
X64557111Y-130828586D01*
X64727271Y-130899068D01*
X64907911Y-130935000D01*
X65092089Y-130935000D01*
X65272729Y-130899068D01*
X65442889Y-130828586D01*
X65500000Y-130790426D01*
X65557111Y-130828586D01*
X65727271Y-130899068D01*
X65907911Y-130935000D01*
X66092089Y-130935000D01*
X66272729Y-130899068D01*
X66442889Y-130828586D01*
X66596028Y-130726262D01*
X66726262Y-130596028D01*
X66760186Y-130545258D01*
X66920770Y-130593741D01*
X66979458Y-130605361D01*
X67037961Y-130617797D01*
X67047126Y-130618760D01*
X67435595Y-130656850D01*
X67435598Y-130656850D01*
X67467581Y-130660000D01*
X77870792Y-130660000D01*
X77861928Y-130750000D01*
X77861928Y-133074147D01*
X77727271Y-133100932D01*
X77557111Y-133171414D01*
X77454465Y-133240000D01*
X75287322Y-133240000D01*
X75249999Y-133236324D01*
X75212676Y-133240000D01*
X75212667Y-133240000D01*
X75101014Y-133250997D01*
X74957753Y-133294454D01*
X74825724Y-133365026D01*
X74825722Y-133365027D01*
X74825723Y-133365027D01*
X74744680Y-133431536D01*
X74726262Y-133403972D01*
X74596028Y-133273738D01*
X74442889Y-133171414D01*
X74272729Y-133100932D01*
X74092089Y-133065000D01*
X73907911Y-133065000D01*
X73727271Y-133100932D01*
X73557111Y-133171414D01*
X73439952Y-133249697D01*
X73426750Y-133250997D01*
X73283489Y-133294454D01*
X73151459Y-133365026D01*
X73104004Y-133403972D01*
X73035735Y-133459999D01*
X73011937Y-133488997D01*
X69260000Y-137240935D01*
X69260000Y-136064801D01*
X69401649Y-135923153D01*
X69522729Y-135899068D01*
X69692889Y-135828586D01*
X69846028Y-135726262D01*
X69976262Y-135596028D01*
X70078586Y-135442889D01*
X70149068Y-135272729D01*
X70185000Y-135092089D01*
X70185000Y-134907911D01*
X70149068Y-134727271D01*
X70078586Y-134557111D01*
X69976262Y-134403972D01*
X69846028Y-134273738D01*
X69692889Y-134171414D01*
X69671023Y-134162357D01*
X69685000Y-134092089D01*
X69685000Y-133907911D01*
X69649068Y-133727271D01*
X69578586Y-133557111D01*
X69476262Y-133403972D01*
X69346028Y-133273738D01*
X69192889Y-133171414D01*
X69022729Y-133100932D01*
X68842089Y-133065000D01*
X68657911Y-133065000D01*
X68477271Y-133100932D01*
X68307111Y-133171414D01*
X68153972Y-133273738D01*
X68023738Y-133403972D01*
X67921414Y-133557111D01*
X67850932Y-133727271D01*
X67826847Y-133848351D01*
X67118973Y-134556226D01*
X67063799Y-134488997D01*
X67040001Y-134459999D01*
X67011003Y-134436201D01*
X66063804Y-133489002D01*
X66040001Y-133459999D01*
X65924276Y-133365026D01*
X65792247Y-133294454D01*
X65648986Y-133250997D01*
X65546954Y-133240948D01*
X65442889Y-133171414D01*
X65272729Y-133100932D01*
X65092089Y-133065000D01*
X64907911Y-133065000D01*
X64727271Y-133100932D01*
X64557111Y-133171414D01*
X64403972Y-133273738D01*
X64273738Y-133403972D01*
X64171414Y-133557111D01*
X64100932Y-133727271D01*
X64092826Y-133768025D01*
X64063804Y-133739003D01*
X64063799Y-133738997D01*
X63813803Y-133489002D01*
X63790001Y-133459999D01*
X63674276Y-133365026D01*
X63542247Y-133294454D01*
X63398986Y-133250997D01*
X63287333Y-133240000D01*
X63287322Y-133240000D01*
X63250000Y-133236324D01*
X63212678Y-133240000D01*
X61545535Y-133240000D01*
X61442889Y-133171414D01*
X61272729Y-133100932D01*
X61092089Y-133065000D01*
X60907911Y-133065000D01*
X60727271Y-133100932D01*
X60557111Y-133171414D01*
X60403972Y-133273738D01*
X60273738Y-133403972D01*
X60171414Y-133557111D01*
X60100932Y-133727271D01*
X60065000Y-133907911D01*
X60065000Y-134092089D01*
X60100932Y-134272729D01*
X60171414Y-134442889D01*
X60273738Y-134596028D01*
X60403972Y-134726262D01*
X60557111Y-134828586D01*
X60727271Y-134899068D01*
X60907911Y-134935000D01*
X61092089Y-134935000D01*
X61272729Y-134899068D01*
X61442889Y-134828586D01*
X61545535Y-134760000D01*
X62935198Y-134760000D01*
X62988997Y-134813799D01*
X62989003Y-134813804D01*
X63436201Y-135261002D01*
X64738997Y-136563799D01*
X64739002Y-136563803D01*
X64740000Y-136564801D01*
X64740001Y-149704463D01*
X64671414Y-149807111D01*
X64600932Y-149977271D01*
X64565000Y-150157911D01*
X64565000Y-150342089D01*
X64576946Y-150402145D01*
X64563804Y-150389003D01*
X64540001Y-150359999D01*
X64424276Y-150265026D01*
X64292247Y-150194454D01*
X64148986Y-150150997D01*
X64037333Y-150140000D01*
X64037322Y-150140000D01*
X64000000Y-150136324D01*
X63962678Y-150140000D01*
X49945535Y-150140000D01*
X49842889Y-150071414D01*
X49672729Y-150000932D01*
X49492089Y-149965000D01*
X49307911Y-149965000D01*
X49127271Y-150000932D01*
X48957111Y-150071414D01*
X48803972Y-150173738D01*
X48673738Y-150303972D01*
X48571414Y-150457111D01*
X48500932Y-150627271D01*
X48465000Y-150807911D01*
X48465000Y-150992089D01*
X48500932Y-151172729D01*
X48571414Y-151342889D01*
X48673738Y-151496028D01*
X48803972Y-151626262D01*
X48957111Y-151728586D01*
X49127271Y-151799068D01*
X49307911Y-151835000D01*
X49492089Y-151835000D01*
X49672729Y-151799068D01*
X49842889Y-151728586D01*
X49945535Y-151660000D01*
X63685199Y-151660000D01*
X65265198Y-153240000D01*
X63537322Y-153240000D01*
X63499999Y-153236324D01*
X63462676Y-153240000D01*
X63462667Y-153240000D01*
X63351014Y-153250997D01*
X63215032Y-153292246D01*
X63207753Y-153294454D01*
X63075723Y-153365026D01*
X62992083Y-153433668D01*
X62959999Y-153459999D01*
X62936201Y-153488997D01*
X62310639Y-154114559D01*
X62335000Y-153992089D01*
X62335000Y-153807911D01*
X62299068Y-153627271D01*
X62228586Y-153457111D01*
X62126262Y-153303972D01*
X61996028Y-153173738D01*
X61842889Y-153071414D01*
X61672729Y-153000932D01*
X61492089Y-152965000D01*
X61307911Y-152965000D01*
X61127271Y-153000932D01*
X60957111Y-153071414D01*
X60803972Y-153173738D01*
X60673738Y-153303972D01*
X60571414Y-153457111D01*
X60500932Y-153627271D01*
X60476847Y-153748351D01*
X58585199Y-155640000D01*
X51931437Y-155640000D01*
X51899068Y-155477271D01*
X51828586Y-155307111D01*
X51726262Y-155153972D01*
X51596028Y-155023738D01*
X51442889Y-154921414D01*
X51272729Y-154850932D01*
X51092089Y-154815000D01*
X50907911Y-154815000D01*
X50727271Y-154850932D01*
X50557111Y-154921414D01*
X50403972Y-155023738D01*
X50273738Y-155153972D01*
X50171414Y-155307111D01*
X50124356Y-155420719D01*
X50118071Y-155400000D01*
X50125812Y-155374482D01*
X50138072Y-155250000D01*
X50138072Y-154750000D01*
X50135664Y-154725550D01*
X50135664Y-154700991D01*
X50123404Y-154576510D01*
X50104282Y-154480377D01*
X50067973Y-154360681D01*
X50030464Y-154270125D01*
X49971498Y-154159808D01*
X49917042Y-154078309D01*
X49837690Y-153981618D01*
X49768382Y-153912310D01*
X49671691Y-153832958D01*
X49590192Y-153778502D01*
X49539490Y-153751401D01*
X49578586Y-153692889D01*
X49649068Y-153522729D01*
X49685000Y-153342089D01*
X49685000Y-153157911D01*
X49649068Y-152977271D01*
X49578586Y-152807111D01*
X49476262Y-152653972D01*
X49346028Y-152523738D01*
X49192889Y-152421414D01*
X49022729Y-152350932D01*
X48842089Y-152315000D01*
X48657911Y-152315000D01*
X48477271Y-152350932D01*
X48307111Y-152421414D01*
X48153972Y-152523738D01*
X48023738Y-152653972D01*
X47921414Y-152807111D01*
X47850932Y-152977271D01*
X47815000Y-153157911D01*
X47815000Y-153342089D01*
X47850932Y-153522729D01*
X47921414Y-153692889D01*
X47960510Y-153751401D01*
X47909808Y-153778502D01*
X47828309Y-153832958D01*
X47731618Y-153912310D01*
X47662310Y-153981618D01*
X47582958Y-154078309D01*
X47528502Y-154159808D01*
X47469536Y-154270125D01*
X47432027Y-154360681D01*
X47395718Y-154480377D01*
X47376596Y-154576510D01*
X47364336Y-154700991D01*
X47364336Y-154725550D01*
X47361928Y-154750000D01*
X47361928Y-155250000D01*
X47374188Y-155374482D01*
X47381929Y-155400000D01*
X47374188Y-155425518D01*
X47361928Y-155550000D01*
X47361928Y-156050000D01*
X47364336Y-156074450D01*
X47364336Y-156099009D01*
X47376596Y-156223490D01*
X47395718Y-156319623D01*
X47401899Y-156340000D01*
X46120120Y-156340000D01*
X46123404Y-156323490D01*
X46135664Y-156199009D01*
X46135664Y-156174450D01*
X46138072Y-156150000D01*
X46138072Y-155650000D01*
X46125812Y-155525518D01*
X46118071Y-155500000D01*
X46125812Y-155474482D01*
X46138072Y-155350000D01*
X46138072Y-154850000D01*
X46135664Y-154825550D01*
X46135664Y-154800991D01*
X46123404Y-154676510D01*
X46104282Y-154580377D01*
X46067973Y-154460681D01*
X46030464Y-154370125D01*
X45971498Y-154259808D01*
X45917042Y-154178309D01*
X45837690Y-154081618D01*
X45768382Y-154012310D01*
X45671691Y-153932958D01*
X45590192Y-153878502D01*
X45510000Y-153835638D01*
X45510000Y-153795535D01*
X45578586Y-153692889D01*
X45649068Y-153522729D01*
X45685000Y-153342089D01*
X45685000Y-153157911D01*
X45649068Y-152977271D01*
X45578586Y-152807111D01*
X45476262Y-152653972D01*
X45346028Y-152523738D01*
X45192889Y-152421414D01*
X45022729Y-152350932D01*
X44842089Y-152315000D01*
X44657911Y-152315000D01*
X44477271Y-152350932D01*
X44307111Y-152421414D01*
X44153972Y-152523738D01*
X44023738Y-152653972D01*
X43921414Y-152807111D01*
X43850932Y-152977271D01*
X43815000Y-153157911D01*
X43815000Y-153342089D01*
X43850932Y-153522729D01*
X43921414Y-153692889D01*
X43990001Y-153795536D01*
X43990001Y-153835638D01*
X43909808Y-153878502D01*
X43828309Y-153932958D01*
X43731618Y-154012310D01*
X43662310Y-154081618D01*
X43582958Y-154178309D01*
X43528502Y-154259808D01*
X43469536Y-154370125D01*
X43432027Y-154460681D01*
X43395718Y-154580377D01*
X43376596Y-154676510D01*
X43364336Y-154800991D01*
X43364336Y-154825550D01*
X43361928Y-154850000D01*
X43361928Y-155350000D01*
X43374188Y-155474482D01*
X43381929Y-155500000D01*
X43374188Y-155525518D01*
X43361928Y-155650000D01*
X43361928Y-156150000D01*
X43364336Y-156174450D01*
X43364336Y-156199009D01*
X43376596Y-156323490D01*
X43395718Y-156419623D01*
X43432027Y-156539319D01*
X43469536Y-156629875D01*
X43528502Y-156740192D01*
X43582958Y-156821691D01*
X43662310Y-156918382D01*
X43668997Y-156925069D01*
X43557111Y-156971414D01*
X43403972Y-157073738D01*
X43273738Y-157203972D01*
X43171414Y-157357111D01*
X43100932Y-157527271D01*
X43065000Y-157707911D01*
X43065000Y-157740000D01*
X42829802Y-157740000D01*
X42738153Y-157648350D01*
X42714068Y-157527271D01*
X42643586Y-157357111D01*
X42541262Y-157203972D01*
X42411028Y-157073738D01*
X42257889Y-156971414D01*
X42087729Y-156900932D01*
X41907089Y-156865000D01*
X41791072Y-156865000D01*
X41837690Y-156818382D01*
X41917042Y-156721691D01*
X41971498Y-156640192D01*
X42030464Y-156529875D01*
X42067973Y-156439319D01*
X42104282Y-156319623D01*
X42123404Y-156223490D01*
X42135664Y-156099009D01*
X42135664Y-156074450D01*
X42138072Y-156050000D01*
X42138072Y-155550000D01*
X42125812Y-155425518D01*
X42118071Y-155400000D01*
X42125812Y-155374482D01*
X42138072Y-155250000D01*
X42138072Y-154750000D01*
X42135664Y-154725550D01*
X42135664Y-154700991D01*
X42123404Y-154576510D01*
X42104282Y-154480377D01*
X42067973Y-154360681D01*
X42030464Y-154270125D01*
X41971498Y-154159808D01*
X41917042Y-154078309D01*
X41837690Y-153981618D01*
X41768382Y-153912310D01*
X41671691Y-153832958D01*
X41590192Y-153778502D01*
X41539490Y-153751401D01*
X41578586Y-153692889D01*
X41649068Y-153522729D01*
X41685000Y-153342089D01*
X41685000Y-153157911D01*
X41649068Y-152977271D01*
X41578586Y-152807111D01*
X41476262Y-152653972D01*
X41346028Y-152523738D01*
X41192889Y-152421414D01*
X41022729Y-152350932D01*
X40842089Y-152315000D01*
X40657911Y-152315000D01*
X40477271Y-152350932D01*
X40307111Y-152421414D01*
X40153972Y-152523738D01*
X40023738Y-152653972D01*
X39921414Y-152807111D01*
X39850932Y-152977271D01*
X39815000Y-153157911D01*
X39815000Y-153342089D01*
X39850932Y-153522729D01*
X39921414Y-153692889D01*
X39960510Y-153751401D01*
X39909808Y-153778502D01*
X39828309Y-153832958D01*
X39731618Y-153912310D01*
X39662310Y-153981618D01*
X39582958Y-154078309D01*
X39528502Y-154159808D01*
X39469536Y-154270125D01*
X39432027Y-154360681D01*
X39395718Y-154480377D01*
X39376596Y-154576510D01*
X39364336Y-154700991D01*
X39364336Y-154725550D01*
X39361928Y-154750000D01*
X39361928Y-155250000D01*
X39374188Y-155374482D01*
X39381929Y-155400000D01*
X39374188Y-155425518D01*
X39361928Y-155550000D01*
X39361928Y-156050000D01*
X39364336Y-156074450D01*
X39364336Y-156099009D01*
X39376596Y-156223490D01*
X39395718Y-156319623D01*
X39432027Y-156439319D01*
X39469536Y-156529875D01*
X39528502Y-156640192D01*
X39582958Y-156721691D01*
X39662310Y-156818382D01*
X39731618Y-156887690D01*
X39828309Y-156967042D01*
X39895981Y-157012259D01*
X39803972Y-157073738D01*
X39673738Y-157203972D01*
X39571414Y-157357111D01*
X39500932Y-157527271D01*
X39465000Y-157707911D01*
X39465000Y-157733481D01*
X39377271Y-157750932D01*
X39207111Y-157821414D01*
X39053972Y-157923738D01*
X38923738Y-158053972D01*
X38821414Y-158207111D01*
X38750932Y-158377271D01*
X38715000Y-158557911D01*
X38715000Y-158742089D01*
X38750932Y-158922729D01*
X38821414Y-159092889D01*
X38923738Y-159246028D01*
X39053972Y-159376262D01*
X39207111Y-159478586D01*
X39377271Y-159549068D01*
X39498350Y-159573152D01*
X39636205Y-159711007D01*
X39659999Y-159740001D01*
X39688992Y-159763795D01*
X39688996Y-159763799D01*
X39759685Y-159821811D01*
X39775724Y-159834974D01*
X39907753Y-159905546D01*
X40051014Y-159949003D01*
X40162667Y-159960000D01*
X40162676Y-159960000D01*
X40197203Y-159963401D01*
X40075363Y-160085241D01*
X39923248Y-160312898D01*
X39825724Y-160365026D01*
X39739521Y-160435771D01*
X39691680Y-160320273D01*
X39534637Y-160085241D01*
X39334759Y-159885363D01*
X39099727Y-159728320D01*
X38838574Y-159620147D01*
X38561335Y-159565000D01*
X38278665Y-159565000D01*
X38001426Y-159620147D01*
X37740273Y-159728320D01*
X37505241Y-159885363D01*
X37305363Y-160085241D01*
X37148320Y-160320273D01*
X37040147Y-160581426D01*
X36985000Y-160858665D01*
X36985000Y-161141335D01*
X37040147Y-161418574D01*
X37148320Y-161679727D01*
X37305363Y-161914759D01*
X37505241Y-162114637D01*
X37740273Y-162271680D01*
X37855705Y-162319493D01*
X36739003Y-163436196D01*
X36709999Y-163459999D01*
X36654871Y-163527174D01*
X36615026Y-163575724D01*
X36583356Y-163634974D01*
X36544454Y-163707754D01*
X36500997Y-163851015D01*
X36490000Y-163962668D01*
X36490000Y-163962678D01*
X36486324Y-164000000D01*
X36490000Y-164037323D01*
X36490000Y-165125225D01*
X36378587Y-165136198D01*
X36141643Y-165208074D01*
X35923275Y-165324794D01*
X35885000Y-165356205D01*
X35885000Y-162377465D01*
X35889281Y-162333999D01*
X35885000Y-162290533D01*
X35885000Y-150793469D01*
X35889281Y-150750000D01*
X35885000Y-150706531D01*
X35885000Y-150706523D01*
X35872195Y-150576510D01*
X35861801Y-150542246D01*
X35821589Y-150409686D01*
X35739411Y-150255941D01*
X35656532Y-150154953D01*
X35656530Y-150154951D01*
X35628817Y-150121183D01*
X35595049Y-150093470D01*
X33887041Y-148385463D01*
X33888072Y-148375000D01*
X33888072Y-147125000D01*
X33863802Y-146878587D01*
X33791926Y-146641643D01*
X33675206Y-146423275D01*
X33518127Y-146231873D01*
X33326725Y-146074794D01*
X33186795Y-146000000D01*
X33326725Y-145925206D01*
X33518127Y-145768127D01*
X33675206Y-145576725D01*
X33791926Y-145358357D01*
X33863802Y-145121413D01*
X33888072Y-144875000D01*
X33888072Y-143625000D01*
X33863802Y-143378587D01*
X33791926Y-143141643D01*
X33675206Y-142923275D01*
X33518127Y-142731873D01*
X33326725Y-142574794D01*
X33108357Y-142458074D01*
X32871413Y-142386198D01*
X32625000Y-142361928D01*
X31375000Y-142361928D01*
X31128587Y-142386198D01*
X30891643Y-142458074D01*
X30673275Y-142574794D01*
X30481873Y-142731873D01*
X30324794Y-142923275D01*
X30208074Y-143141643D01*
X30136198Y-143378587D01*
X30111928Y-143625000D01*
X30111928Y-144875000D01*
X30136198Y-145121413D01*
X30208074Y-145358357D01*
X30324794Y-145576725D01*
X30481873Y-145768127D01*
X30673275Y-145925206D01*
X30813205Y-146000000D01*
X30673275Y-146074794D01*
X30481873Y-146231873D01*
X30324794Y-146423275D01*
X30208074Y-146641643D01*
X30136198Y-146878587D01*
X30111928Y-147125000D01*
X30111928Y-148375000D01*
X30136198Y-148621413D01*
X30208074Y-148858357D01*
X30324794Y-149076725D01*
X30481873Y-149268127D01*
X30673275Y-149425206D01*
X30891643Y-149541926D01*
X31128587Y-149613802D01*
X31375000Y-149638072D01*
X32625000Y-149638072D01*
X32635463Y-149637041D01*
X34115001Y-151116580D01*
X34115000Y-161535000D01*
X33945525Y-161535000D01*
X33795107Y-161171859D01*
X33506738Y-160740285D01*
X33139715Y-160373262D01*
X32708141Y-160084893D01*
X32228601Y-159886261D01*
X31719525Y-159785000D01*
X31200475Y-159785000D01*
X30691399Y-159886261D01*
X30211859Y-160084893D01*
X29780285Y-160373262D01*
X29413262Y-160740285D01*
X29124893Y-161171859D01*
X28926261Y-161651399D01*
X28825000Y-162160475D01*
X28825000Y-162679525D01*
X28926261Y-163188601D01*
X29124893Y-163668141D01*
X29413262Y-164099715D01*
X29780285Y-164466738D01*
X30211859Y-164755107D01*
X30691399Y-164953739D01*
X31200475Y-165055000D01*
X31719525Y-165055000D01*
X32228601Y-164953739D01*
X32708141Y-164755107D01*
X33139715Y-164466738D01*
X33506738Y-164099715D01*
X33795107Y-163668141D01*
X33945525Y-163305000D01*
X34115001Y-163305000D01*
X34115000Y-170456531D01*
X34110719Y-170500000D01*
X34115000Y-170543469D01*
X34115000Y-170543476D01*
X34123187Y-170626596D01*
X34126526Y-170660498D01*
X34127805Y-170673489D01*
X34178411Y-170840312D01*
X34260589Y-170994058D01*
X34371183Y-171128817D01*
X34404956Y-171156534D01*
X35843470Y-172595049D01*
X35871183Y-172628817D01*
X35904951Y-172656530D01*
X35904953Y-172656532D01*
X35964677Y-172705546D01*
X36005941Y-172739411D01*
X36159687Y-172821589D01*
X36326510Y-172872195D01*
X36456523Y-172885000D01*
X36456533Y-172885000D01*
X36499999Y-172889281D01*
X36543465Y-172885000D01*
X49706531Y-172885000D01*
X49750000Y-172889281D01*
X49793469Y-172885000D01*
X49793477Y-172885000D01*
X49923490Y-172872195D01*
X50090313Y-172821589D01*
X50244059Y-172739411D01*
X50378817Y-172628817D01*
X50406534Y-172595044D01*
X52345049Y-170656530D01*
X52378817Y-170628817D01*
X52408830Y-170592247D01*
X52489410Y-170494060D01*
X52489411Y-170494059D01*
X52571589Y-170340313D01*
X52622195Y-170173490D01*
X52635000Y-170043477D01*
X52635000Y-170043467D01*
X52639281Y-170000001D01*
X52635000Y-169956535D01*
X52635000Y-168400086D01*
X52731873Y-168518127D01*
X52923275Y-168675206D01*
X53141643Y-168791926D01*
X53378587Y-168863802D01*
X53625000Y-168888072D01*
X54875000Y-168888072D01*
X55121413Y-168863802D01*
X55358357Y-168791926D01*
X55576725Y-168675206D01*
X55768127Y-168518127D01*
X55925206Y-168326725D01*
X56000000Y-168186795D01*
X56074794Y-168326725D01*
X56231873Y-168518127D01*
X56423275Y-168675206D01*
X56641643Y-168791926D01*
X56878587Y-168863802D01*
X57125000Y-168888072D01*
X58375000Y-168888072D01*
X58621413Y-168863802D01*
X58858357Y-168791926D01*
X59076725Y-168675206D01*
X59268127Y-168518127D01*
X59425206Y-168326725D01*
X59541926Y-168108357D01*
X59613802Y-167871413D01*
X59638072Y-167625000D01*
X59638072Y-166375000D01*
X59613802Y-166128587D01*
X59541926Y-165891643D01*
X59425206Y-165673275D01*
X59268127Y-165481873D01*
X59076725Y-165324794D01*
X58858357Y-165208074D01*
X58621413Y-165136198D01*
X58375000Y-165111928D01*
X57125000Y-165111928D01*
X56878587Y-165136198D01*
X56641643Y-165208074D01*
X56423275Y-165324794D01*
X56231873Y-165481873D01*
X56074794Y-165673275D01*
X56000000Y-165813205D01*
X55925206Y-165673275D01*
X55768127Y-165481873D01*
X55576725Y-165324794D01*
X55358357Y-165208074D01*
X55121413Y-165136198D01*
X54875000Y-165111928D01*
X53625000Y-165111928D01*
X53378587Y-165136198D01*
X53141643Y-165208074D01*
X52923275Y-165324794D01*
X52731873Y-165481873D01*
X52635000Y-165599914D01*
X52635000Y-161993469D01*
X52639281Y-161950000D01*
X52635000Y-161906531D01*
X52635000Y-161906523D01*
X52622195Y-161776510D01*
X52571589Y-161609687D01*
X52489411Y-161455941D01*
X52480199Y-161444716D01*
X52406532Y-161354953D01*
X52406530Y-161354951D01*
X52378817Y-161321183D01*
X52345050Y-161293471D01*
X51456534Y-160404956D01*
X51428817Y-160371183D01*
X51294059Y-160260589D01*
X51140313Y-160178411D01*
X50973490Y-160127805D01*
X50930545Y-160123575D01*
X50925812Y-160075518D01*
X50890770Y-159960000D01*
X55513377Y-159960000D01*
X55211859Y-160084893D01*
X54780285Y-160373262D01*
X54413262Y-160740285D01*
X54124893Y-161171859D01*
X53926261Y-161651399D01*
X53825000Y-162160475D01*
X53825000Y-162679525D01*
X53926261Y-163188601D01*
X54124893Y-163668141D01*
X54413262Y-164099715D01*
X54780285Y-164466738D01*
X55211859Y-164755107D01*
X55691399Y-164953739D01*
X56200475Y-165055000D01*
X56719525Y-165055000D01*
X57228601Y-164953739D01*
X57708141Y-164755107D01*
X58139715Y-164466738D01*
X58506738Y-164099715D01*
X58795107Y-163668141D01*
X58993739Y-163188601D01*
X59095000Y-162679525D01*
X59095000Y-162160475D01*
X58993739Y-161651399D01*
X58795107Y-161171859D01*
X58506738Y-160740285D01*
X58139715Y-160373262D01*
X57708141Y-160084893D01*
X57406623Y-159960000D01*
X58854465Y-159960000D01*
X58957111Y-160028586D01*
X59127271Y-160099068D01*
X59307911Y-160135000D01*
X59492089Y-160135000D01*
X59672729Y-160099068D01*
X59842889Y-160028586D01*
X59996028Y-159926262D01*
X60126262Y-159796028D01*
X60228586Y-159642889D01*
X60299068Y-159472729D01*
X60307170Y-159432000D01*
X60472729Y-159399068D01*
X60642889Y-159328586D01*
X60796028Y-159226262D01*
X60926262Y-159096028D01*
X61028586Y-158942889D01*
X61099068Y-158772729D01*
X61117401Y-158680564D01*
X61242889Y-158628586D01*
X61396028Y-158526262D01*
X61526262Y-158396028D01*
X61628586Y-158242889D01*
X61699068Y-158072729D01*
X61735000Y-157892089D01*
X61735000Y-157707911D01*
X61699068Y-157527271D01*
X61628586Y-157357111D01*
X61526262Y-157203972D01*
X61448546Y-157126256D01*
X63814802Y-154760000D01*
X65454465Y-154760000D01*
X65557111Y-154828586D01*
X65727271Y-154899068D01*
X65907911Y-154935000D01*
X66092089Y-154935000D01*
X66272729Y-154899068D01*
X66442889Y-154828586D01*
X66550000Y-154757017D01*
X66657111Y-154828586D01*
X66827271Y-154899068D01*
X67007911Y-154935000D01*
X67192089Y-154935000D01*
X67372729Y-154899068D01*
X67542889Y-154828586D01*
X67696028Y-154726262D01*
X67826262Y-154596028D01*
X67928586Y-154442889D01*
X67999068Y-154272729D01*
X68035000Y-154092089D01*
X68035000Y-153907911D01*
X67999068Y-153727271D01*
X67928586Y-153557111D01*
X67826262Y-153403972D01*
X67696028Y-153273738D01*
X67542889Y-153171414D01*
X67372729Y-153100932D01*
X67251649Y-153076847D01*
X65347855Y-151173054D01*
X65407911Y-151185000D01*
X65592089Y-151185000D01*
X65772729Y-151149068D01*
X65942889Y-151078586D01*
X66000000Y-151040426D01*
X66057111Y-151078586D01*
X66227271Y-151149068D01*
X66407911Y-151185000D01*
X66592089Y-151185000D01*
X66772729Y-151149068D01*
X66942889Y-151078586D01*
X67096028Y-150976262D01*
X67226262Y-150846028D01*
X67328586Y-150692889D01*
X67375000Y-150580835D01*
X67421414Y-150692889D01*
X67523738Y-150846028D01*
X67653972Y-150976262D01*
X67807111Y-151078586D01*
X67977271Y-151149068D01*
X68157911Y-151185000D01*
X68342089Y-151185000D01*
X68522729Y-151149068D01*
X68692889Y-151078586D01*
X68750000Y-151040426D01*
X68807111Y-151078586D01*
X68977271Y-151149068D01*
X69157911Y-151185000D01*
X69342089Y-151185000D01*
X69522729Y-151149068D01*
X69692889Y-151078586D01*
X69740000Y-151047107D01*
X69740001Y-158185197D01*
X69435199Y-158490000D01*
X67037325Y-158490000D01*
X67000000Y-158486324D01*
X66962675Y-158490000D01*
X66962667Y-158490000D01*
X66851014Y-158500997D01*
X66707753Y-158544454D01*
X66575724Y-158615026D01*
X66459999Y-158709999D01*
X66436201Y-158738997D01*
X64739003Y-160436196D01*
X64709999Y-160459999D01*
X64672296Y-160505941D01*
X64615026Y-160575724D01*
X64583356Y-160634974D01*
X64544454Y-160707754D01*
X64500997Y-160851015D01*
X64490000Y-160962668D01*
X64490000Y-160962678D01*
X64486324Y-161000000D01*
X64490000Y-161037322D01*
X64490001Y-169360260D01*
X64486324Y-169397592D01*
X64490001Y-169434925D01*
X64500998Y-169546578D01*
X64502339Y-169550998D01*
X64544454Y-169689838D01*
X64615026Y-169821868D01*
X64686201Y-169908594D01*
X64710000Y-169937593D01*
X64738998Y-169961391D01*
X66277590Y-171499984D01*
X66312407Y-171542409D01*
X66341410Y-171566212D01*
X67233526Y-172458327D01*
X67245718Y-172519623D01*
X67282027Y-172639319D01*
X67319536Y-172729875D01*
X67378502Y-172840192D01*
X67432958Y-172921691D01*
X67512310Y-173018382D01*
X67581618Y-173087690D01*
X67678309Y-173167042D01*
X67759808Y-173221498D01*
X67870125Y-173280464D01*
X67960681Y-173317973D01*
X68080377Y-173354282D01*
X68176510Y-173373404D01*
X68300991Y-173385664D01*
X68325550Y-173385664D01*
X68350000Y-173388072D01*
X68850000Y-173388072D01*
X68974482Y-173375812D01*
X69000000Y-173368071D01*
X69025518Y-173375812D01*
X69150000Y-173388072D01*
X69650000Y-173388072D01*
X69674450Y-173385664D01*
X69699009Y-173385664D01*
X69823490Y-173373404D01*
X69919623Y-173354282D01*
X70039319Y-173317973D01*
X70129875Y-173280464D01*
X70240192Y-173221498D01*
X70321691Y-173167042D01*
X70418382Y-173087690D01*
X70487690Y-173018382D01*
X70567042Y-172921691D01*
X70621498Y-172840192D01*
X70680464Y-172729875D01*
X70717973Y-172639319D01*
X70754282Y-172519623D01*
X70773404Y-172423490D01*
X70785664Y-172299009D01*
X70785664Y-172274450D01*
X70788072Y-172250000D01*
X70788072Y-171750000D01*
X70785664Y-171725550D01*
X70785664Y-171700991D01*
X70773404Y-171576510D01*
X70754282Y-171480377D01*
X70717973Y-171360681D01*
X70680464Y-171270125D01*
X70621498Y-171159808D01*
X70567042Y-171078309D01*
X70487690Y-170981618D01*
X70418382Y-170912310D01*
X70410000Y-170905431D01*
X70410000Y-169437333D01*
X70413677Y-169400000D01*
X70399003Y-169251014D01*
X70355546Y-169107753D01*
X70284974Y-168975724D01*
X70213799Y-168888997D01*
X70213040Y-168888072D01*
X71375000Y-168888072D01*
X71621413Y-168863802D01*
X71858357Y-168791926D01*
X72076725Y-168675206D01*
X72268127Y-168518127D01*
X72425206Y-168326725D01*
X72541926Y-168108357D01*
X72613802Y-167871413D01*
X72638072Y-167625000D01*
X72638072Y-167212874D01*
X72740001Y-167314803D01*
X72740000Y-170262677D01*
X72736324Y-170300000D01*
X72740000Y-170337322D01*
X72740000Y-170337332D01*
X72750997Y-170448985D01*
X72790173Y-170578132D01*
X72794454Y-170592246D01*
X72865026Y-170724276D01*
X72904871Y-170772826D01*
X72959999Y-170840001D01*
X72989003Y-170863804D01*
X74636201Y-172511003D01*
X74659999Y-172540001D01*
X74688997Y-172563799D01*
X74775723Y-172634974D01*
X74907753Y-172705546D01*
X75051014Y-172749003D01*
X75162667Y-172760000D01*
X75162676Y-172760000D01*
X75199999Y-172763676D01*
X75237322Y-172760000D01*
X75685638Y-172760000D01*
X75728502Y-172840192D01*
X75782958Y-172921691D01*
X75862310Y-173018382D01*
X75931618Y-173087690D01*
X76028309Y-173167042D01*
X76109808Y-173221498D01*
X76220125Y-173280464D01*
X76310681Y-173317973D01*
X76430377Y-173354282D01*
X76526510Y-173373404D01*
X76650991Y-173385664D01*
X76675550Y-173385664D01*
X76700000Y-173388072D01*
X77200000Y-173388072D01*
X77324482Y-173375812D01*
X77350000Y-173368071D01*
X77375518Y-173375812D01*
X77500000Y-173388072D01*
X78000000Y-173388072D01*
X78024450Y-173385664D01*
X78049009Y-173385664D01*
X78173490Y-173373404D01*
X78269623Y-173354282D01*
X78389319Y-173317973D01*
X78479875Y-173280464D01*
X78590192Y-173221498D01*
X78671691Y-173167042D01*
X78768382Y-173087690D01*
X78837690Y-173018382D01*
X78917042Y-172921691D01*
X78971498Y-172840192D01*
X79030464Y-172729875D01*
X79067973Y-172639319D01*
X79104282Y-172519623D01*
X79123404Y-172423490D01*
X79135664Y-172299009D01*
X79135664Y-172274450D01*
X79138072Y-172250000D01*
X79138072Y-171750000D01*
X79135664Y-171725550D01*
X79135664Y-171700991D01*
X79123404Y-171576510D01*
X79104282Y-171480377D01*
X79067973Y-171360681D01*
X79030464Y-171270125D01*
X78971498Y-171159808D01*
X78917042Y-171078309D01*
X78837690Y-170981618D01*
X78768382Y-170912310D01*
X78760000Y-170905431D01*
X78760000Y-169287333D01*
X78763677Y-169250000D01*
X78749003Y-169101014D01*
X78705546Y-168957753D01*
X78668300Y-168888072D01*
X79875000Y-168888072D01*
X80121413Y-168863802D01*
X80358357Y-168791926D01*
X80576725Y-168675206D01*
X80768127Y-168518127D01*
X80925206Y-168326725D01*
X80990000Y-168205503D01*
X80990000Y-170712677D01*
X80986324Y-170750000D01*
X80990000Y-170787322D01*
X80990000Y-170787332D01*
X81000997Y-170898985D01*
X81042964Y-171037333D01*
X81044454Y-171042246D01*
X81115026Y-171174276D01*
X81118420Y-171178411D01*
X81209999Y-171290001D01*
X81239003Y-171313804D01*
X82436201Y-172511003D01*
X82459999Y-172540001D01*
X82488997Y-172563799D01*
X82575723Y-172634974D01*
X82707753Y-172705546D01*
X82851014Y-172749003D01*
X82962667Y-172760000D01*
X82962677Y-172760000D01*
X83000000Y-172763676D01*
X83037323Y-172760000D01*
X84335638Y-172760000D01*
X84378502Y-172840192D01*
X84432958Y-172921691D01*
X84512310Y-173018382D01*
X84581618Y-173087690D01*
X84678309Y-173167042D01*
X84759808Y-173221498D01*
X84870125Y-173280464D01*
X84960681Y-173317973D01*
X85080377Y-173354282D01*
X85176510Y-173373404D01*
X85300991Y-173385664D01*
X85325550Y-173385664D01*
X85350000Y-173388072D01*
X85850000Y-173388072D01*
X85974482Y-173375812D01*
X86000000Y-173368071D01*
X86025518Y-173375812D01*
X86150000Y-173388072D01*
X86650000Y-173388072D01*
X86674450Y-173385664D01*
X86699009Y-173385664D01*
X86823490Y-173373404D01*
X86919623Y-173354282D01*
X87039319Y-173317973D01*
X87129875Y-173280464D01*
X87240192Y-173221498D01*
X87321691Y-173167042D01*
X87418382Y-173087690D01*
X87487690Y-173018382D01*
X87567042Y-172921691D01*
X87621498Y-172840192D01*
X87680464Y-172729875D01*
X87717973Y-172639319D01*
X87754282Y-172519623D01*
X87773404Y-172423490D01*
X87785664Y-172299009D01*
X87785664Y-172274450D01*
X87788072Y-172250000D01*
X87788072Y-171750000D01*
X87785664Y-171725550D01*
X87785664Y-171700991D01*
X87773404Y-171576510D01*
X87754282Y-171480377D01*
X87717973Y-171360681D01*
X87680464Y-171270125D01*
X87621498Y-171159808D01*
X87567042Y-171078309D01*
X87487690Y-170981618D01*
X87418382Y-170912310D01*
X87410000Y-170905431D01*
X87410000Y-169437333D01*
X87413677Y-169400000D01*
X87399003Y-169251014D01*
X87355546Y-169107753D01*
X87284974Y-168975724D01*
X87213799Y-168888997D01*
X87213040Y-168888072D01*
X88375000Y-168888072D01*
X88621413Y-168863802D01*
X88858357Y-168791926D01*
X89076725Y-168675206D01*
X89268127Y-168518127D01*
X89425206Y-168326725D01*
X89541926Y-168108357D01*
X89613802Y-167871413D01*
X89638072Y-167625000D01*
X89638072Y-166375000D01*
X89613802Y-166128587D01*
X89541926Y-165891643D01*
X89425206Y-165673275D01*
X89268127Y-165481873D01*
X89076725Y-165324794D01*
X88858357Y-165208074D01*
X88621413Y-165136198D01*
X88375000Y-165111928D01*
X87125000Y-165111928D01*
X86878587Y-165136198D01*
X86641643Y-165208074D01*
X86423275Y-165324794D01*
X86231873Y-165481873D01*
X86074794Y-165673275D01*
X86000000Y-165813205D01*
X85925206Y-165673275D01*
X85768127Y-165481873D01*
X85576725Y-165324794D01*
X85426520Y-165244508D01*
X85465130Y-165238787D01*
X85731292Y-165143603D01*
X85856514Y-165076671D01*
X85928097Y-164832702D01*
X85115000Y-164019605D01*
X84301903Y-164832702D01*
X84373486Y-165076671D01*
X84447998Y-165111928D01*
X83625000Y-165111928D01*
X83378587Y-165136198D01*
X83141643Y-165208074D01*
X82923275Y-165324794D01*
X82731873Y-165481873D01*
X82574794Y-165673275D01*
X82510000Y-165794496D01*
X82510000Y-165537325D01*
X82513676Y-165500000D01*
X82510000Y-165462675D01*
X82510000Y-165462667D01*
X82499003Y-165351014D01*
X82475945Y-165275000D01*
X82486335Y-165275000D01*
X82763574Y-165219853D01*
X83024727Y-165111680D01*
X83259759Y-164954637D01*
X83459637Y-164754759D01*
X83616680Y-164519727D01*
X83724853Y-164258574D01*
X83730513Y-164230118D01*
X83811397Y-164456292D01*
X83878329Y-164581514D01*
X84122298Y-164653097D01*
X84935395Y-163840000D01*
X84921253Y-163825858D01*
X85100858Y-163646253D01*
X85115000Y-163660395D01*
X85129143Y-163646253D01*
X85308748Y-163825858D01*
X85294605Y-163840000D01*
X86107702Y-164653097D01*
X86351671Y-164581514D01*
X86472571Y-164326004D01*
X86487236Y-164267499D01*
X91792106Y-164267499D01*
X92008228Y-164634258D01*
X92468105Y-164874938D01*
X92966098Y-165021275D01*
X93483071Y-165067648D01*
X93999159Y-165012273D01*
X94494526Y-164857279D01*
X94911772Y-164634258D01*
X95127894Y-164267499D01*
X93460000Y-162599605D01*
X91792106Y-164267499D01*
X86487236Y-164267499D01*
X86541300Y-164051816D01*
X86555217Y-163769488D01*
X86513787Y-163489870D01*
X86476284Y-163385000D01*
X89206531Y-163385000D01*
X89250000Y-163389281D01*
X89293469Y-163385000D01*
X89293477Y-163385000D01*
X89423490Y-163372195D01*
X89590313Y-163321589D01*
X89744059Y-163239411D01*
X89878817Y-163128817D01*
X89906534Y-163095044D01*
X90837366Y-162164212D01*
X90812352Y-162443071D01*
X90867727Y-162959159D01*
X91022721Y-163454526D01*
X91245742Y-163871772D01*
X91612501Y-164087894D01*
X93280395Y-162420000D01*
X93639605Y-162420000D01*
X95307499Y-164087894D01*
X95674258Y-163871772D01*
X95914938Y-163411895D01*
X96061275Y-162913902D01*
X96081178Y-162692017D01*
X97373000Y-162692017D01*
X97373000Y-163307983D01*
X97493169Y-163912112D01*
X97728889Y-164481190D01*
X98071101Y-164993346D01*
X98506654Y-165428899D01*
X99018810Y-165771111D01*
X99587888Y-166006831D01*
X100192017Y-166127000D01*
X100807983Y-166127000D01*
X101412112Y-166006831D01*
X101981190Y-165771111D01*
X102493346Y-165428899D01*
X102928899Y-164993346D01*
X103271111Y-164481190D01*
X103506831Y-163912112D01*
X103627000Y-163307983D01*
X103627000Y-162692017D01*
X103506831Y-162087888D01*
X103271111Y-161518810D01*
X102928899Y-161006654D01*
X102493346Y-160571101D01*
X101981190Y-160228889D01*
X101412112Y-159993169D01*
X100807983Y-159873000D01*
X100192017Y-159873000D01*
X99587888Y-159993169D01*
X99018810Y-160228889D01*
X98506654Y-160571101D01*
X98071101Y-161006654D01*
X97728889Y-161518810D01*
X97493169Y-162087888D01*
X97373000Y-162692017D01*
X96081178Y-162692017D01*
X96107648Y-162396929D01*
X96052273Y-161880841D01*
X95897279Y-161385474D01*
X95674258Y-160968228D01*
X95307499Y-160752106D01*
X93639605Y-162420000D01*
X93280395Y-162420000D01*
X93266253Y-162405858D01*
X93445858Y-162226253D01*
X93460000Y-162240395D01*
X95127894Y-160572501D01*
X94911772Y-160205742D01*
X94451895Y-159965062D01*
X93953902Y-159818725D01*
X93436929Y-159772352D01*
X93204262Y-159797317D01*
X93595050Y-159406529D01*
X93628817Y-159378817D01*
X93673006Y-159324974D01*
X93739411Y-159244059D01*
X93808780Y-159114277D01*
X93821589Y-159090313D01*
X93872195Y-158923490D01*
X93885000Y-158793477D01*
X93885000Y-158793469D01*
X93889281Y-158750000D01*
X93885000Y-158706531D01*
X93885000Y-158109680D01*
X94108357Y-158041926D01*
X94326725Y-157925206D01*
X94518127Y-157768127D01*
X94675206Y-157576725D01*
X94791926Y-157358357D01*
X94863802Y-157121413D01*
X94888072Y-156875000D01*
X94888072Y-155625000D01*
X94863802Y-155378587D01*
X94791926Y-155141643D01*
X94675206Y-154923275D01*
X94518127Y-154731873D01*
X94385002Y-154622621D01*
X94494180Y-154589502D01*
X94604494Y-154530537D01*
X94701185Y-154451185D01*
X94780537Y-154354494D01*
X94839502Y-154244180D01*
X94875812Y-154124482D01*
X94888072Y-154000000D01*
X94885000Y-153035750D01*
X94726250Y-152877000D01*
X94380617Y-152877000D01*
X94389812Y-152677508D01*
X94381558Y-152623000D01*
X94726250Y-152623000D01*
X94885000Y-152464250D01*
X94888072Y-151500000D01*
X94875812Y-151375518D01*
X94839502Y-151255820D01*
X94780537Y-151145506D01*
X94701185Y-151048815D01*
X94604494Y-150969463D01*
X94494180Y-150910498D01*
X94374482Y-150874188D01*
X94250000Y-150861928D01*
X93285750Y-150865000D01*
X93127000Y-151023750D01*
X93127000Y-151369383D01*
X92927508Y-151360188D01*
X92873000Y-151368442D01*
X92873000Y-151023750D01*
X92714250Y-150865000D01*
X91750000Y-150861928D01*
X91625518Y-150874188D01*
X91505820Y-150910498D01*
X91395506Y-150969463D01*
X91298815Y-151048815D01*
X91219463Y-151145506D01*
X91160498Y-151255820D01*
X91124188Y-151375518D01*
X91111928Y-151500000D01*
X91115000Y-152464250D01*
X91273750Y-152623000D01*
X91619383Y-152623000D01*
X91610188Y-152822492D01*
X91618442Y-152877000D01*
X91273750Y-152877000D01*
X91115000Y-153035750D01*
X91111928Y-154000000D01*
X91124188Y-154124482D01*
X91160498Y-154244180D01*
X91219463Y-154354494D01*
X91298815Y-154451185D01*
X91395506Y-154530537D01*
X91505820Y-154589502D01*
X91614998Y-154622621D01*
X91481873Y-154731873D01*
X91324794Y-154923275D01*
X91208074Y-155141643D01*
X91136198Y-155378587D01*
X91111928Y-155625000D01*
X91111928Y-156875000D01*
X91136198Y-157121413D01*
X91208074Y-157358357D01*
X91324794Y-157576725D01*
X91481873Y-157768127D01*
X91673275Y-157925206D01*
X91891643Y-158041926D01*
X92115000Y-158109681D01*
X92115000Y-158383421D01*
X88883422Y-161615000D01*
X87936967Y-161615000D01*
X87935000Y-161285750D01*
X87776250Y-161127000D01*
X86627000Y-161127000D01*
X86627000Y-161147000D01*
X86373000Y-161147000D01*
X86373000Y-161127000D01*
X86353000Y-161127000D01*
X86353000Y-160873000D01*
X86373000Y-160873000D01*
X86373000Y-159723750D01*
X86627000Y-159723750D01*
X86627000Y-160873000D01*
X87776250Y-160873000D01*
X87935000Y-160714250D01*
X87938072Y-160200000D01*
X87925812Y-160075518D01*
X87889502Y-159955820D01*
X87830537Y-159845506D01*
X87751185Y-159748815D01*
X87654494Y-159669463D01*
X87544180Y-159610498D01*
X87424482Y-159574188D01*
X87300000Y-159561928D01*
X86785750Y-159565000D01*
X86627000Y-159723750D01*
X86373000Y-159723750D01*
X86214250Y-159565000D01*
X85700000Y-159561928D01*
X85575518Y-159574188D01*
X85455820Y-159610498D01*
X85345506Y-159669463D01*
X85248815Y-159748815D01*
X85169463Y-159845506D01*
X85110498Y-159955820D01*
X85074188Y-160075518D01*
X85061928Y-160200000D01*
X85063539Y-160469613D01*
X85001680Y-160320273D01*
X84844637Y-160085241D01*
X84644759Y-159885363D01*
X84409727Y-159728320D01*
X84148574Y-159620147D01*
X83871335Y-159565000D01*
X83588665Y-159565000D01*
X83311426Y-159620147D01*
X83050273Y-159728320D01*
X82815241Y-159885363D01*
X82615363Y-160085241D01*
X82458320Y-160320273D01*
X82350147Y-160581426D01*
X82345000Y-160607301D01*
X82339853Y-160581426D01*
X82231680Y-160320273D01*
X82074637Y-160085241D01*
X81874759Y-159885363D01*
X81639727Y-159728320D01*
X81378574Y-159620147D01*
X81101335Y-159565000D01*
X80818665Y-159565000D01*
X80670287Y-159594515D01*
X81011003Y-159253799D01*
X81040001Y-159230001D01*
X81134974Y-159114276D01*
X81205546Y-158982247D01*
X81249003Y-158838986D01*
X81260000Y-158727333D01*
X81260000Y-158727324D01*
X81263676Y-158690001D01*
X81260000Y-158652678D01*
X81260000Y-157045535D01*
X81328586Y-156942889D01*
X81399068Y-156772729D01*
X81426465Y-156634999D01*
X81949587Y-156634999D01*
X81972829Y-156644626D01*
X82153469Y-156680558D01*
X82337647Y-156680558D01*
X82518287Y-156644626D01*
X82688447Y-156574144D01*
X82841586Y-156471820D01*
X82971820Y-156341586D01*
X83074144Y-156188447D01*
X83144626Y-156018287D01*
X83180558Y-155837647D01*
X83180558Y-155653469D01*
X83166939Y-155585001D01*
X84137677Y-155585001D01*
X84174999Y-155588677D01*
X84212321Y-155585001D01*
X84212332Y-155585001D01*
X84323985Y-155574004D01*
X84467246Y-155530547D01*
X84599275Y-155459975D01*
X84641742Y-155425123D01*
X84772729Y-155399068D01*
X84942889Y-155328586D01*
X85096028Y-155226262D01*
X85226262Y-155096028D01*
X85328586Y-154942889D01*
X85399068Y-154772729D01*
X85435000Y-154592089D01*
X85435000Y-154407911D01*
X85399068Y-154227271D01*
X85328586Y-154057111D01*
X85226262Y-153903972D01*
X85096028Y-153773738D01*
X84942889Y-153671414D01*
X84772729Y-153600932D01*
X84592089Y-153565000D01*
X84407911Y-153565000D01*
X84227271Y-153600932D01*
X84057111Y-153671414D01*
X83903972Y-153773738D01*
X83773738Y-153903972D01*
X83671414Y-154057111D01*
X83668146Y-154065001D01*
X80773275Y-154065001D01*
X80728586Y-153957111D01*
X80626262Y-153803972D01*
X80496028Y-153673738D01*
X80342889Y-153571414D01*
X80172729Y-153500932D01*
X79992089Y-153465000D01*
X79807911Y-153465000D01*
X79627271Y-153500932D01*
X79457111Y-153571414D01*
X79354465Y-153640000D01*
X78045535Y-153640000D01*
X77942889Y-153571414D01*
X77772729Y-153500932D01*
X77592089Y-153465000D01*
X77407911Y-153465000D01*
X77227271Y-153500932D01*
X77057111Y-153571414D01*
X76954465Y-153640000D01*
X76003711Y-153640000D01*
X75959774Y-153596063D01*
X75790256Y-153482795D01*
X75601898Y-153404774D01*
X75401939Y-153365000D01*
X75198061Y-153365000D01*
X74998102Y-153404774D01*
X74809744Y-153482795D01*
X74738801Y-153530197D01*
X74738801Y-152595001D01*
X74807387Y-152492355D01*
X74877869Y-152322195D01*
X74901954Y-152201115D01*
X75813799Y-151289270D01*
X75813803Y-151289265D01*
X78568070Y-148534999D01*
X82773535Y-148534999D01*
X82800932Y-148672729D01*
X82871414Y-148842889D01*
X82940001Y-148945537D01*
X82940000Y-152116370D01*
X82807111Y-152171414D01*
X82653972Y-152273738D01*
X82523738Y-152403972D01*
X82421414Y-152557111D01*
X82350932Y-152727271D01*
X82315000Y-152907911D01*
X82315000Y-153092089D01*
X82350932Y-153272729D01*
X82421414Y-153442889D01*
X82523738Y-153596028D01*
X82653972Y-153726262D01*
X82807111Y-153828586D01*
X82977271Y-153899068D01*
X83157911Y-153935000D01*
X83342089Y-153935000D01*
X83522729Y-153899068D01*
X83692889Y-153828586D01*
X83846028Y-153726262D01*
X83976262Y-153596028D01*
X84078586Y-153442889D01*
X84149068Y-153272729D01*
X84173153Y-153151648D01*
X84210998Y-153113803D01*
X84240001Y-153090001D01*
X84313863Y-153000000D01*
X84334974Y-152974277D01*
X84405546Y-152842247D01*
X84410558Y-152825724D01*
X84449003Y-152698986D01*
X84460000Y-152587333D01*
X84460000Y-152587324D01*
X84463676Y-152550001D01*
X84460000Y-152512678D01*
X84460000Y-149263699D01*
X84557111Y-149328586D01*
X84727271Y-149399068D01*
X84907911Y-149435000D01*
X85092089Y-149435000D01*
X85272729Y-149399068D01*
X85442889Y-149328586D01*
X85596028Y-149226262D01*
X85726262Y-149096028D01*
X85828586Y-148942889D01*
X85899068Y-148772729D01*
X85935000Y-148592089D01*
X85935000Y-148407911D01*
X85899068Y-148227271D01*
X85828586Y-148057111D01*
X85726262Y-147903972D01*
X85710362Y-147888072D01*
X86000000Y-147888072D01*
X86124482Y-147875812D01*
X86244180Y-147839502D01*
X86250000Y-147836391D01*
X86255820Y-147839502D01*
X86375518Y-147875812D01*
X86500000Y-147888072D01*
X87000000Y-147888072D01*
X87124482Y-147875812D01*
X87244180Y-147839502D01*
X87250000Y-147836391D01*
X87255820Y-147839502D01*
X87375518Y-147875812D01*
X87500000Y-147888072D01*
X88500000Y-147888072D01*
X88624482Y-147875812D01*
X88744180Y-147839502D01*
X88750000Y-147836391D01*
X88755820Y-147839502D01*
X88875518Y-147875812D01*
X89000000Y-147888072D01*
X89500000Y-147888072D01*
X89624482Y-147875812D01*
X89744180Y-147839502D01*
X89750000Y-147836391D01*
X89755820Y-147839502D01*
X89875518Y-147875812D01*
X90000000Y-147888072D01*
X90500000Y-147888072D01*
X90624482Y-147875812D01*
X90744180Y-147839502D01*
X90854494Y-147780537D01*
X90951185Y-147701185D01*
X91000000Y-147641704D01*
X91048815Y-147701185D01*
X91145506Y-147780537D01*
X91255820Y-147839502D01*
X91375518Y-147875812D01*
X91500000Y-147888072D01*
X95000000Y-147888072D01*
X95124482Y-147875812D01*
X95244180Y-147839502D01*
X95354494Y-147780537D01*
X95451185Y-147701185D01*
X95530537Y-147604494D01*
X95589502Y-147494180D01*
X95625812Y-147374482D01*
X95638072Y-147250000D01*
X95638072Y-143750000D01*
X95625812Y-143625518D01*
X95589502Y-143505820D01*
X95586391Y-143500000D01*
X95589502Y-143494180D01*
X95625812Y-143374482D01*
X95638072Y-143250000D01*
X95638072Y-142750000D01*
X95625812Y-142625518D01*
X95589502Y-142505820D01*
X95586391Y-142500000D01*
X95589502Y-142494180D01*
X95625812Y-142374482D01*
X95638072Y-142250000D01*
X95638072Y-140750000D01*
X95625812Y-140625518D01*
X95589502Y-140505820D01*
X95530537Y-140395506D01*
X95451185Y-140298815D01*
X95354494Y-140219463D01*
X95244180Y-140160498D01*
X95125502Y-140124498D01*
X95089502Y-140005820D01*
X95030537Y-139895506D01*
X94951185Y-139798815D01*
X94854494Y-139719463D01*
X94744180Y-139660498D01*
X94638072Y-139628310D01*
X94638072Y-139388072D01*
X95000000Y-139388072D01*
X95124482Y-139375812D01*
X95244180Y-139339502D01*
X95354494Y-139280537D01*
X95451185Y-139201185D01*
X95530537Y-139104494D01*
X95589502Y-138994180D01*
X95625812Y-138874482D01*
X95638072Y-138750000D01*
X95638072Y-138250000D01*
X95625812Y-138125518D01*
X95589502Y-138005820D01*
X95530537Y-137895506D01*
X95451185Y-137798815D01*
X95354494Y-137719463D01*
X95303147Y-137692017D01*
X97373000Y-137692017D01*
X97373000Y-138307983D01*
X97493169Y-138912112D01*
X97728889Y-139481190D01*
X98071101Y-139993346D01*
X98506654Y-140428899D01*
X99018810Y-140771111D01*
X99587888Y-141006831D01*
X100192017Y-141127000D01*
X100807983Y-141127000D01*
X101412112Y-141006831D01*
X101981190Y-140771111D01*
X102493346Y-140428899D01*
X102928899Y-139993346D01*
X103271111Y-139481190D01*
X103506831Y-138912112D01*
X103627000Y-138307983D01*
X103627000Y-137692017D01*
X103506831Y-137087888D01*
X103271111Y-136518810D01*
X102928899Y-136006654D01*
X102493346Y-135571101D01*
X101981190Y-135228889D01*
X101412112Y-134993169D01*
X100807983Y-134873000D01*
X100192017Y-134873000D01*
X99587888Y-134993169D01*
X99018810Y-135228889D01*
X98506654Y-135571101D01*
X98071101Y-136006654D01*
X97728889Y-136518810D01*
X97493169Y-137087888D01*
X97373000Y-137692017D01*
X95303147Y-137692017D01*
X95244180Y-137660498D01*
X95124482Y-137624188D01*
X95000000Y-137611928D01*
X94621690Y-137611928D01*
X94589502Y-137505820D01*
X94586391Y-137500000D01*
X94589502Y-137494180D01*
X94621690Y-137388072D01*
X95000000Y-137388072D01*
X95124482Y-137375812D01*
X95244180Y-137339502D01*
X95354494Y-137280537D01*
X95451185Y-137201185D01*
X95530537Y-137104494D01*
X95589502Y-136994180D01*
X95625812Y-136874482D01*
X95638072Y-136750000D01*
X95638072Y-134750000D01*
X95625812Y-134625518D01*
X95589502Y-134505820D01*
X95530537Y-134395506D01*
X95451185Y-134298815D01*
X95354494Y-134219463D01*
X95244180Y-134160498D01*
X95124482Y-134124188D01*
X95000000Y-134111928D01*
X94524436Y-134111928D01*
X94530537Y-134104494D01*
X94589502Y-133994180D01*
X94621690Y-133888072D01*
X95000000Y-133888072D01*
X95124482Y-133875812D01*
X95244180Y-133839502D01*
X95354494Y-133780537D01*
X95451185Y-133701185D01*
X95530537Y-133604494D01*
X95589502Y-133494180D01*
X95625812Y-133374482D01*
X95638072Y-133250000D01*
X95638072Y-132250000D01*
X95625812Y-132125518D01*
X95589502Y-132005820D01*
X95586391Y-132000000D01*
X95589502Y-131994180D01*
X95625812Y-131874482D01*
X95638072Y-131750000D01*
X95638072Y-131250000D01*
X95625812Y-131125518D01*
X95589502Y-131005820D01*
X95530537Y-130895506D01*
X95451185Y-130798815D01*
X95354494Y-130719463D01*
X95244180Y-130660498D01*
X95242538Y-130660000D01*
X104340000Y-130660000D01*
X104340001Y-174340000D01*
X20660000Y-174340000D01*
X20660000Y-162692017D01*
X21373000Y-162692017D01*
X21373000Y-163307983D01*
X21493169Y-163912112D01*
X21728889Y-164481190D01*
X22071101Y-164993346D01*
X22506654Y-165428899D01*
X23018810Y-165771111D01*
X23587888Y-166006831D01*
X24192017Y-166127000D01*
X24807983Y-166127000D01*
X25412112Y-166006831D01*
X25981190Y-165771111D01*
X26493346Y-165428899D01*
X26928899Y-164993346D01*
X27271111Y-164481190D01*
X27506831Y-163912112D01*
X27627000Y-163307983D01*
X27627000Y-162692017D01*
X27506831Y-162087888D01*
X27271111Y-161518810D01*
X26928899Y-161006654D01*
X26493346Y-160571101D01*
X25981190Y-160228889D01*
X25412112Y-159993169D01*
X24807983Y-159873000D01*
X24192017Y-159873000D01*
X23587888Y-159993169D01*
X23018810Y-160228889D01*
X22506654Y-160571101D01*
X22071101Y-161006654D01*
X21728889Y-161518810D01*
X21493169Y-162087888D01*
X21373000Y-162692017D01*
X20660000Y-162692017D01*
X20660000Y-151500000D01*
X30111928Y-151500000D01*
X30115000Y-152464250D01*
X30273750Y-152623000D01*
X30619383Y-152623000D01*
X30610188Y-152822492D01*
X30618442Y-152877000D01*
X30273750Y-152877000D01*
X30115000Y-153035750D01*
X30111928Y-154000000D01*
X30124188Y-154124482D01*
X30160498Y-154244180D01*
X30219463Y-154354494D01*
X30298815Y-154451185D01*
X30395506Y-154530537D01*
X30505820Y-154589502D01*
X30614998Y-154622621D01*
X30481873Y-154731873D01*
X30324794Y-154923275D01*
X30208074Y-155141643D01*
X30136198Y-155378587D01*
X30111928Y-155625000D01*
X30111928Y-156875000D01*
X30136198Y-157121413D01*
X30208074Y-157358357D01*
X30324794Y-157576725D01*
X30481873Y-157768127D01*
X30673275Y-157925206D01*
X30891643Y-158041926D01*
X31128587Y-158113802D01*
X31375000Y-158138072D01*
X32625000Y-158138072D01*
X32871413Y-158113802D01*
X33108357Y-158041926D01*
X33326725Y-157925206D01*
X33518127Y-157768127D01*
X33675206Y-157576725D01*
X33791926Y-157358357D01*
X33863802Y-157121413D01*
X33888072Y-156875000D01*
X33888072Y-155625000D01*
X33863802Y-155378587D01*
X33791926Y-155141643D01*
X33675206Y-154923275D01*
X33518127Y-154731873D01*
X33385002Y-154622621D01*
X33494180Y-154589502D01*
X33604494Y-154530537D01*
X33701185Y-154451185D01*
X33780537Y-154354494D01*
X33839502Y-154244180D01*
X33875812Y-154124482D01*
X33888072Y-154000000D01*
X33885000Y-153035750D01*
X33726250Y-152877000D01*
X33380617Y-152877000D01*
X33389812Y-152677508D01*
X33381558Y-152623000D01*
X33726250Y-152623000D01*
X33885000Y-152464250D01*
X33888072Y-151500000D01*
X33875812Y-151375518D01*
X33839502Y-151255820D01*
X33780537Y-151145506D01*
X33701185Y-151048815D01*
X33604494Y-150969463D01*
X33494180Y-150910498D01*
X33374482Y-150874188D01*
X33250000Y-150861928D01*
X32285750Y-150865000D01*
X32127000Y-151023750D01*
X32127000Y-151369383D01*
X31927508Y-151360188D01*
X31873000Y-151368442D01*
X31873000Y-151023750D01*
X31714250Y-150865000D01*
X30750000Y-150861928D01*
X30625518Y-150874188D01*
X30505820Y-150910498D01*
X30395506Y-150969463D01*
X30298815Y-151048815D01*
X30219463Y-151145506D01*
X30160498Y-151255820D01*
X30124188Y-151375518D01*
X30111928Y-151500000D01*
X20660000Y-151500000D01*
X20660000Y-137692017D01*
X21373000Y-137692017D01*
X21373000Y-138307983D01*
X21493169Y-138912112D01*
X21728889Y-139481190D01*
X22071101Y-139993346D01*
X22506654Y-140428899D01*
X23018810Y-140771111D01*
X23587888Y-141006831D01*
X24192017Y-141127000D01*
X24807983Y-141127000D01*
X25412112Y-141006831D01*
X25981190Y-140771111D01*
X26493346Y-140428899D01*
X26928899Y-139993346D01*
X27271111Y-139481190D01*
X27506831Y-138912112D01*
X27627000Y-138307983D01*
X27627000Y-137692017D01*
X27506831Y-137087888D01*
X27271111Y-136518810D01*
X26928899Y-136006654D01*
X26493346Y-135571101D01*
X25981190Y-135228889D01*
X25412112Y-134993169D01*
X24807983Y-134873000D01*
X24192017Y-134873000D01*
X23587888Y-134993169D01*
X23018810Y-135228889D01*
X22506654Y-135571101D01*
X22071101Y-136006654D01*
X21728889Y-136518810D01*
X21493169Y-137087888D01*
X21373000Y-137692017D01*
X20660000Y-137692017D01*
X20660000Y-130660000D01*
X30032419Y-130660000D01*
X30066382Y-130656655D01*
X30092329Y-130656655D01*
X30101494Y-130655692D01*
X30489393Y-130612182D01*
X30547873Y-130599751D01*
X30606583Y-130588127D01*
X30615386Y-130585401D01*
X30987447Y-130467377D01*
X31042430Y-130443811D01*
X31097736Y-130421016D01*
X31105842Y-130416633D01*
X31150393Y-130392141D01*
X31171414Y-130442889D01*
X31273738Y-130596028D01*
X31403972Y-130726262D01*
X31557111Y-130828586D01*
X31727271Y-130899068D01*
X31907911Y-130935000D01*
X32092089Y-130935000D01*
X32272729Y-130899068D01*
X32442889Y-130828586D01*
X32500000Y-130790426D01*
X32557111Y-130828586D01*
X32727271Y-130899068D01*
X32907911Y-130935000D01*
X33092089Y-130935000D01*
X33272729Y-130899068D01*
X33442889Y-130828586D01*
X33500000Y-130790426D01*
X33557111Y-130828586D01*
X33727271Y-130899068D01*
X33907911Y-130935000D01*
X34092089Y-130935000D01*
X34272729Y-130899068D01*
X34442889Y-130828586D01*
X34500000Y-130790426D01*
X34557111Y-130828586D01*
X34727271Y-130899068D01*
X34907911Y-130935000D01*
X35092089Y-130935000D01*
X35272729Y-130899068D01*
X35442889Y-130828586D01*
X35500000Y-130790426D01*
X35557111Y-130828586D01*
X35727271Y-130899068D01*
X35907911Y-130935000D01*
X36092089Y-130935000D01*
X36272729Y-130899068D01*
X36442889Y-130828586D01*
X36500000Y-130790426D01*
X36557111Y-130828586D01*
X36727271Y-130899068D01*
X36907911Y-130935000D01*
X37092089Y-130935000D01*
X37272729Y-130899068D01*
X37442889Y-130828586D01*
X37500000Y-130790426D01*
X37557111Y-130828586D01*
X37727271Y-130899068D01*
X37907911Y-130935000D01*
X38092089Y-130935000D01*
X38272729Y-130899068D01*
X38442889Y-130828586D01*
X38596028Y-130726262D01*
X38726262Y-130596028D01*
X38828586Y-130442889D01*
X38850282Y-130390510D01*
X38928007Y-130431837D01*
G37*
X38928007Y-130431837D02*
X38983311Y-130454631D01*
X39038295Y-130478198D01*
X39047098Y-130480923D01*
X39420770Y-130593741D01*
X39479458Y-130605361D01*
X39537961Y-130617797D01*
X39547126Y-130618760D01*
X39935595Y-130656850D01*
X39935598Y-130656850D01*
X39967581Y-130660000D01*
X57532419Y-130660000D01*
X57566382Y-130656655D01*
X57592329Y-130656655D01*
X57601494Y-130655692D01*
X57989393Y-130612182D01*
X58047873Y-130599751D01*
X58106583Y-130588127D01*
X58115386Y-130585401D01*
X58240185Y-130545813D01*
X58273738Y-130596028D01*
X58403972Y-130726262D01*
X58557111Y-130828586D01*
X58727271Y-130899068D01*
X58907911Y-130935000D01*
X59092089Y-130935000D01*
X59272729Y-130899068D01*
X59442889Y-130828586D01*
X59500000Y-130790426D01*
X59557111Y-130828586D01*
X59727271Y-130899068D01*
X59907911Y-130935000D01*
X60092089Y-130935000D01*
X60272729Y-130899068D01*
X60442889Y-130828586D01*
X60500000Y-130790426D01*
X60557111Y-130828586D01*
X60727271Y-130899068D01*
X60907911Y-130935000D01*
X61092089Y-130935000D01*
X61272729Y-130899068D01*
X61442889Y-130828586D01*
X61500000Y-130790426D01*
X61557111Y-130828586D01*
X61727271Y-130899068D01*
X61907911Y-130935000D01*
X62092089Y-130935000D01*
X62272729Y-130899068D01*
X62442889Y-130828586D01*
X62500000Y-130790426D01*
X62557111Y-130828586D01*
X62727271Y-130899068D01*
X62907911Y-130935000D01*
X63092089Y-130935000D01*
X63272729Y-130899068D01*
X63442889Y-130828586D01*
X63500000Y-130790426D01*
X63557111Y-130828586D01*
X63727271Y-130899068D01*
X63907911Y-130935000D01*
X64092089Y-130935000D01*
X64272729Y-130899068D01*
X64442889Y-130828586D01*
X64500000Y-130790426D01*
X64557111Y-130828586D01*
X64727271Y-130899068D01*
X64907911Y-130935000D01*
X65092089Y-130935000D01*
X65272729Y-130899068D01*
X65442889Y-130828586D01*
X65500000Y-130790426D01*
X65557111Y-130828586D01*
X65727271Y-130899068D01*
X65907911Y-130935000D01*
X66092089Y-130935000D01*
X66272729Y-130899068D01*
X66442889Y-130828586D01*
X66596028Y-130726262D01*
X66726262Y-130596028D01*
X66760186Y-130545258D01*
X66920770Y-130593741D01*
X66979458Y-130605361D01*
X67037961Y-130617797D01*
X67047126Y-130618760D01*
X67435595Y-130656850D01*
X67435598Y-130656850D01*
X67467581Y-130660000D01*
X77870792Y-130660000D01*
X77861928Y-130750000D01*
X77861928Y-133074147D01*
X77727271Y-133100932D01*
X77557111Y-133171414D01*
X77454465Y-133240000D01*
X75287322Y-133240000D01*
X75249999Y-133236324D01*
X75212676Y-133240000D01*
X75212667Y-133240000D01*
X75101014Y-133250997D01*
X74957753Y-133294454D01*
X74825724Y-133365026D01*
X74825722Y-133365027D01*
X74825723Y-133365027D01*
X74744680Y-133431536D01*
X74726262Y-133403972D01*
X74596028Y-133273738D01*
X74442889Y-133171414D01*
X74272729Y-133100932D01*
X74092089Y-133065000D01*
X73907911Y-133065000D01*
X73727271Y-133100932D01*
X73557111Y-133171414D01*
X73439952Y-133249697D01*
X73426750Y-133250997D01*
X73283489Y-133294454D01*
X73151459Y-133365026D01*
X73104004Y-133403972D01*
X73035735Y-133459999D01*
X73011937Y-133488997D01*
X69260000Y-137240935D01*
X69260000Y-136064801D01*
X69401649Y-135923153D01*
X69522729Y-135899068D01*
X69692889Y-135828586D01*
X69846028Y-135726262D01*
X69976262Y-135596028D01*
X70078586Y-135442889D01*
X70149068Y-135272729D01*
X70185000Y-135092089D01*
X70185000Y-134907911D01*
X70149068Y-134727271D01*
X70078586Y-134557111D01*
X69976262Y-134403972D01*
X69846028Y-134273738D01*
X69692889Y-134171414D01*
X69671023Y-134162357D01*
X69685000Y-134092089D01*
X69685000Y-133907911D01*
X69649068Y-133727271D01*
X69578586Y-133557111D01*
X69476262Y-133403972D01*
X69346028Y-133273738D01*
X69192889Y-133171414D01*
X69022729Y-133100932D01*
X68842089Y-133065000D01*
X68657911Y-133065000D01*
X68477271Y-133100932D01*
X68307111Y-133171414D01*
X68153972Y-133273738D01*
X68023738Y-133403972D01*
X67921414Y-133557111D01*
X67850932Y-133727271D01*
X67826847Y-133848351D01*
X67118973Y-134556226D01*
X67063799Y-134488997D01*
X67040001Y-134459999D01*
X67011003Y-134436201D01*
X66063804Y-133489002D01*
X66040001Y-133459999D01*
X65924276Y-133365026D01*
X65792247Y-133294454D01*
X65648986Y-133250997D01*
X65546954Y-133240948D01*
X65442889Y-133171414D01*
X65272729Y-133100932D01*
X65092089Y-133065000D01*
X64907911Y-133065000D01*
X64727271Y-133100932D01*
X64557111Y-133171414D01*
X64403972Y-133273738D01*
X64273738Y-133403972D01*
X64171414Y-133557111D01*
X64100932Y-133727271D01*
X64092826Y-133768025D01*
X64063804Y-133739003D01*
X64063799Y-133738997D01*
X63813803Y-133489002D01*
X63790001Y-133459999D01*
X63674276Y-133365026D01*
X63542247Y-133294454D01*
X63398986Y-133250997D01*
X63287333Y-133240000D01*
X63287322Y-133240000D01*
X63250000Y-133236324D01*
X63212678Y-133240000D01*
X61545535Y-133240000D01*
X61442889Y-133171414D01*
X61272729Y-133100932D01*
X61092089Y-133065000D01*
X60907911Y-133065000D01*
X60727271Y-133100932D01*
X60557111Y-133171414D01*
X60403972Y-133273738D01*
X60273738Y-133403972D01*
X60171414Y-133557111D01*
X60100932Y-133727271D01*
X60065000Y-133907911D01*
X60065000Y-134092089D01*
X60100932Y-134272729D01*
X60171414Y-134442889D01*
X60273738Y-134596028D01*
X60403972Y-134726262D01*
X60557111Y-134828586D01*
X60727271Y-134899068D01*
X60907911Y-134935000D01*
X61092089Y-134935000D01*
X61272729Y-134899068D01*
X61442889Y-134828586D01*
X61545535Y-134760000D01*
X62935198Y-134760000D01*
X62988997Y-134813799D01*
X62989003Y-134813804D01*
X63436201Y-135261002D01*
X64738997Y-136563799D01*
X64739002Y-136563803D01*
X64740000Y-136564801D01*
X64740001Y-149704463D01*
X64671414Y-149807111D01*
X64600932Y-149977271D01*
X64565000Y-150157911D01*
X64565000Y-150342089D01*
X64576946Y-150402145D01*
X64563804Y-150389003D01*
X64540001Y-150359999D01*
X64424276Y-150265026D01*
X64292247Y-150194454D01*
X64148986Y-150150997D01*
X64037333Y-150140000D01*
X64037322Y-150140000D01*
X64000000Y-150136324D01*
X63962678Y-150140000D01*
X49945535Y-150140000D01*
X49842889Y-150071414D01*
X49672729Y-150000932D01*
X49492089Y-149965000D01*
X49307911Y-149965000D01*
X49127271Y-150000932D01*
X48957111Y-150071414D01*
X48803972Y-150173738D01*
X48673738Y-150303972D01*
X48571414Y-150457111D01*
X48500932Y-150627271D01*
X48465000Y-150807911D01*
X48465000Y-150992089D01*
X48500932Y-151172729D01*
X48571414Y-151342889D01*
X48673738Y-151496028D01*
X48803972Y-151626262D01*
X48957111Y-151728586D01*
X49127271Y-151799068D01*
X49307911Y-151835000D01*
X49492089Y-151835000D01*
X49672729Y-151799068D01*
X49842889Y-151728586D01*
X49945535Y-151660000D01*
X63685199Y-151660000D01*
X65265198Y-153240000D01*
X63537322Y-153240000D01*
X63499999Y-153236324D01*
X63462676Y-153240000D01*
X63462667Y-153240000D01*
X63351014Y-153250997D01*
X63215032Y-153292246D01*
X63207753Y-153294454D01*
X63075723Y-153365026D01*
X62992083Y-153433668D01*
X62959999Y-153459999D01*
X62936201Y-153488997D01*
X62310639Y-154114559D01*
X62335000Y-153992089D01*
X62335000Y-153807911D01*
X62299068Y-153627271D01*
X62228586Y-153457111D01*
X62126262Y-153303972D01*
X61996028Y-153173738D01*
X61842889Y-153071414D01*
X61672729Y-153000932D01*
X61492089Y-152965000D01*
X61307911Y-152965000D01*
X61127271Y-153000932D01*
X60957111Y-153071414D01*
X60803972Y-153173738D01*
X60673738Y-153303972D01*
X60571414Y-153457111D01*
X60500932Y-153627271D01*
X60476847Y-153748351D01*
X58585199Y-155640000D01*
X51931437Y-155640000D01*
X51899068Y-155477271D01*
X51828586Y-155307111D01*
X51726262Y-155153972D01*
X51596028Y-155023738D01*
X51442889Y-154921414D01*
X51272729Y-154850932D01*
X51092089Y-154815000D01*
X50907911Y-154815000D01*
X50727271Y-154850932D01*
X50557111Y-154921414D01*
X50403972Y-155023738D01*
X50273738Y-155153972D01*
X50171414Y-155307111D01*
X50124356Y-155420719D01*
X50118071Y-155400000D01*
X50125812Y-155374482D01*
X50138072Y-155250000D01*
X50138072Y-154750000D01*
X50135664Y-154725550D01*
X50135664Y-154700991D01*
X50123404Y-154576510D01*
X50104282Y-154480377D01*
X50067973Y-154360681D01*
X50030464Y-154270125D01*
X49971498Y-154159808D01*
X49917042Y-154078309D01*
X49837690Y-153981618D01*
X49768382Y-153912310D01*
X49671691Y-153832958D01*
X49590192Y-153778502D01*
X49539490Y-153751401D01*
X49578586Y-153692889D01*
X49649068Y-153522729D01*
X49685000Y-153342089D01*
X49685000Y-153157911D01*
X49649068Y-152977271D01*
X49578586Y-152807111D01*
X49476262Y-152653972D01*
X49346028Y-152523738D01*
X49192889Y-152421414D01*
X49022729Y-152350932D01*
X48842089Y-152315000D01*
X48657911Y-152315000D01*
X48477271Y-152350932D01*
X48307111Y-152421414D01*
X48153972Y-152523738D01*
X48023738Y-152653972D01*
X47921414Y-152807111D01*
X47850932Y-152977271D01*
X47815000Y-153157911D01*
X47815000Y-153342089D01*
X47850932Y-153522729D01*
X47921414Y-153692889D01*
X47960510Y-153751401D01*
X47909808Y-153778502D01*
X47828309Y-153832958D01*
X47731618Y-153912310D01*
X47662310Y-153981618D01*
X47582958Y-154078309D01*
X47528502Y-154159808D01*
X47469536Y-154270125D01*
X47432027Y-154360681D01*
X47395718Y-154480377D01*
X47376596Y-154576510D01*
X47364336Y-154700991D01*
X47364336Y-154725550D01*
X47361928Y-154750000D01*
X47361928Y-155250000D01*
X47374188Y-155374482D01*
X47381929Y-155400000D01*
X47374188Y-155425518D01*
X47361928Y-155550000D01*
X47361928Y-156050000D01*
X47364336Y-156074450D01*
X47364336Y-156099009D01*
X47376596Y-156223490D01*
X47395718Y-156319623D01*
X47401899Y-156340000D01*
X46120120Y-156340000D01*
X46123404Y-156323490D01*
X46135664Y-156199009D01*
X46135664Y-156174450D01*
X46138072Y-156150000D01*
X46138072Y-155650000D01*
X46125812Y-155525518D01*
X46118071Y-155500000D01*
X46125812Y-155474482D01*
X46138072Y-155350000D01*
X46138072Y-154850000D01*
X46135664Y-154825550D01*
X46135664Y-154800991D01*
X46123404Y-154676510D01*
X46104282Y-154580377D01*
X46067973Y-154460681D01*
X46030464Y-154370125D01*
X45971498Y-154259808D01*
X45917042Y-154178309D01*
X45837690Y-154081618D01*
X45768382Y-154012310D01*
X45671691Y-153932958D01*
X45590192Y-153878502D01*
X45510000Y-153835638D01*
X45510000Y-153795535D01*
X45578586Y-153692889D01*
X45649068Y-153522729D01*
X45685000Y-153342089D01*
X45685000Y-153157911D01*
X45649068Y-152977271D01*
X45578586Y-152807111D01*
X45476262Y-152653972D01*
X45346028Y-152523738D01*
X45192889Y-152421414D01*
X45022729Y-152350932D01*
X44842089Y-152315000D01*
X44657911Y-152315000D01*
X44477271Y-152350932D01*
X44307111Y-152421414D01*
X44153972Y-152523738D01*
X44023738Y-152653972D01*
X43921414Y-152807111D01*
X43850932Y-152977271D01*
X43815000Y-153157911D01*
X43815000Y-153342089D01*
X43850932Y-153522729D01*
X43921414Y-153692889D01*
X43990001Y-153795536D01*
X43990001Y-153835638D01*
X43909808Y-153878502D01*
X43828309Y-153932958D01*
X43731618Y-154012310D01*
X43662310Y-154081618D01*
X43582958Y-154178309D01*
X43528502Y-154259808D01*
X43469536Y-154370125D01*
X43432027Y-154460681D01*
X43395718Y-154580377D01*
X43376596Y-154676510D01*
X43364336Y-154800991D01*
X43364336Y-154825550D01*
X43361928Y-154850000D01*
X43361928Y-155350000D01*
X43374188Y-155474482D01*
X43381929Y-155500000D01*
X43374188Y-155525518D01*
X43361928Y-155650000D01*
X43361928Y-156150000D01*
X43364336Y-156174450D01*
X43364336Y-156199009D01*
X43376596Y-156323490D01*
X43395718Y-156419623D01*
X43432027Y-156539319D01*
X43469536Y-156629875D01*
X43528502Y-156740192D01*
X43582958Y-156821691D01*
X43662310Y-156918382D01*
X43668997Y-156925069D01*
X43557111Y-156971414D01*
X43403972Y-157073738D01*
X43273738Y-157203972D01*
X43171414Y-157357111D01*
X43100932Y-157527271D01*
X43065000Y-157707911D01*
X43065000Y-157740000D01*
X42829802Y-157740000D01*
X42738153Y-157648350D01*
X42714068Y-157527271D01*
X42643586Y-157357111D01*
X42541262Y-157203972D01*
X42411028Y-157073738D01*
X42257889Y-156971414D01*
X42087729Y-156900932D01*
X41907089Y-156865000D01*
X41791072Y-156865000D01*
X41837690Y-156818382D01*
X41917042Y-156721691D01*
X41971498Y-156640192D01*
X42030464Y-156529875D01*
X42067973Y-156439319D01*
X42104282Y-156319623D01*
X42123404Y-156223490D01*
X42135664Y-156099009D01*
X42135664Y-156074450D01*
X42138072Y-156050000D01*
X42138072Y-155550000D01*
X42125812Y-155425518D01*
X42118071Y-155400000D01*
X42125812Y-155374482D01*
X42138072Y-155250000D01*
X42138072Y-154750000D01*
X42135664Y-154725550D01*
X42135664Y-154700991D01*
X42123404Y-154576510D01*
X42104282Y-154480377D01*
X42067973Y-154360681D01*
X42030464Y-154270125D01*
X41971498Y-154159808D01*
X41917042Y-154078309D01*
X41837690Y-153981618D01*
X41768382Y-153912310D01*
X41671691Y-153832958D01*
X41590192Y-153778502D01*
X41539490Y-153751401D01*
X41578586Y-153692889D01*
X41649068Y-153522729D01*
X41685000Y-153342089D01*
X41685000Y-153157911D01*
X41649068Y-152977271D01*
X41578586Y-152807111D01*
X41476262Y-152653972D01*
X41346028Y-152523738D01*
X41192889Y-152421414D01*
X41022729Y-152350932D01*
X40842089Y-152315000D01*
X40657911Y-152315000D01*
X40477271Y-152350932D01*
X40307111Y-152421414D01*
X40153972Y-152523738D01*
X40023738Y-152653972D01*
X39921414Y-152807111D01*
X39850932Y-152977271D01*
X39815000Y-153157911D01*
X39815000Y-153342089D01*
X39850932Y-153522729D01*
X39921414Y-153692889D01*
X39960510Y-153751401D01*
X39909808Y-153778502D01*
X39828309Y-153832958D01*
X39731618Y-153912310D01*
X39662310Y-153981618D01*
X39582958Y-154078309D01*
X39528502Y-154159808D01*
X39469536Y-154270125D01*
X39432027Y-154360681D01*
X39395718Y-154480377D01*
X39376596Y-154576510D01*
X39364336Y-154700991D01*
X39364336Y-154725550D01*
X39361928Y-154750000D01*
X39361928Y-155250000D01*
X39374188Y-155374482D01*
X39381929Y-155400000D01*
X39374188Y-155425518D01*
X39361928Y-155550000D01*
X39361928Y-156050000D01*
X39364336Y-156074450D01*
X39364336Y-156099009D01*
X39376596Y-156223490D01*
X39395718Y-156319623D01*
X39432027Y-156439319D01*
X39469536Y-156529875D01*
X39528502Y-156640192D01*
X39582958Y-156721691D01*
X39662310Y-156818382D01*
X39731618Y-156887690D01*
X39828309Y-156967042D01*
X39895981Y-157012259D01*
X39803972Y-157073738D01*
X39673738Y-157203972D01*
X39571414Y-157357111D01*
X39500932Y-157527271D01*
X39465000Y-157707911D01*
X39465000Y-157733481D01*
X39377271Y-157750932D01*
X39207111Y-157821414D01*
X39053972Y-157923738D01*
X38923738Y-158053972D01*
X38821414Y-158207111D01*
X38750932Y-158377271D01*
X38715000Y-158557911D01*
X38715000Y-158742089D01*
X38750932Y-158922729D01*
X38821414Y-159092889D01*
X38923738Y-159246028D01*
X39053972Y-159376262D01*
X39207111Y-159478586D01*
X39377271Y-159549068D01*
X39498350Y-159573152D01*
X39636205Y-159711007D01*
X39659999Y-159740001D01*
X39688992Y-159763795D01*
X39688996Y-159763799D01*
X39759685Y-159821811D01*
X39775724Y-159834974D01*
X39907753Y-159905546D01*
X40051014Y-159949003D01*
X40162667Y-159960000D01*
X40162676Y-159960000D01*
X40197203Y-159963401D01*
X40075363Y-160085241D01*
X39923248Y-160312898D01*
X39825724Y-160365026D01*
X39739521Y-160435771D01*
X39691680Y-160320273D01*
X39534637Y-160085241D01*
X39334759Y-159885363D01*
X39099727Y-159728320D01*
X38838574Y-159620147D01*
X38561335Y-159565000D01*
X38278665Y-159565000D01*
X38001426Y-159620147D01*
X37740273Y-159728320D01*
X37505241Y-159885363D01*
X37305363Y-160085241D01*
X37148320Y-160320273D01*
X37040147Y-160581426D01*
X36985000Y-160858665D01*
X36985000Y-161141335D01*
X37040147Y-161418574D01*
X37148320Y-161679727D01*
X37305363Y-161914759D01*
X37505241Y-162114637D01*
X37740273Y-162271680D01*
X37855705Y-162319493D01*
X36739003Y-163436196D01*
X36709999Y-163459999D01*
X36654871Y-163527174D01*
X36615026Y-163575724D01*
X36583356Y-163634974D01*
X36544454Y-163707754D01*
X36500997Y-163851015D01*
X36490000Y-163962668D01*
X36490000Y-163962678D01*
X36486324Y-164000000D01*
X36490000Y-164037323D01*
X36490000Y-165125225D01*
X36378587Y-165136198D01*
X36141643Y-165208074D01*
X35923275Y-165324794D01*
X35885000Y-165356205D01*
X35885000Y-162377465D01*
X35889281Y-162333999D01*
X35885000Y-162290533D01*
X35885000Y-150793469D01*
X35889281Y-150750000D01*
X35885000Y-150706531D01*
X35885000Y-150706523D01*
X35872195Y-150576510D01*
X35861801Y-150542246D01*
X35821589Y-150409686D01*
X35739411Y-150255941D01*
X35656532Y-150154953D01*
X35656530Y-150154951D01*
X35628817Y-150121183D01*
X35595049Y-150093470D01*
X33887041Y-148385463D01*
X33888072Y-148375000D01*
X33888072Y-147125000D01*
X33863802Y-146878587D01*
X33791926Y-146641643D01*
X33675206Y-146423275D01*
X33518127Y-146231873D01*
X33326725Y-146074794D01*
X33186795Y-146000000D01*
X33326725Y-145925206D01*
X33518127Y-145768127D01*
X33675206Y-145576725D01*
X33791926Y-145358357D01*
X33863802Y-145121413D01*
X33888072Y-144875000D01*
X33888072Y-143625000D01*
X33863802Y-143378587D01*
X33791926Y-143141643D01*
X33675206Y-142923275D01*
X33518127Y-142731873D01*
X33326725Y-142574794D01*
X33108357Y-142458074D01*
X32871413Y-142386198D01*
X32625000Y-142361928D01*
X31375000Y-142361928D01*
X31128587Y-142386198D01*
X30891643Y-142458074D01*
X30673275Y-142574794D01*
X30481873Y-142731873D01*
X30324794Y-142923275D01*
X30208074Y-143141643D01*
X30136198Y-143378587D01*
X30111928Y-143625000D01*
X30111928Y-144875000D01*
X30136198Y-145121413D01*
X30208074Y-145358357D01*
X30324794Y-145576725D01*
X30481873Y-145768127D01*
X30673275Y-145925206D01*
X30813205Y-146000000D01*
X30673275Y-146074794D01*
X30481873Y-146231873D01*
X30324794Y-146423275D01*
X30208074Y-146641643D01*
X30136198Y-146878587D01*
X30111928Y-147125000D01*
X30111928Y-148375000D01*
X30136198Y-148621413D01*
X30208074Y-148858357D01*
X30324794Y-149076725D01*
X30481873Y-149268127D01*
X30673275Y-149425206D01*
X30891643Y-149541926D01*
X31128587Y-149613802D01*
X31375000Y-149638072D01*
X32625000Y-149638072D01*
X32635463Y-149637041D01*
X34115001Y-151116580D01*
X34115000Y-161535000D01*
X33945525Y-161535000D01*
X33795107Y-161171859D01*
X33506738Y-160740285D01*
X33139715Y-160373262D01*
X32708141Y-160084893D01*
X32228601Y-159886261D01*
X31719525Y-159785000D01*
X31200475Y-159785000D01*
X30691399Y-159886261D01*
X30211859Y-160084893D01*
X29780285Y-160373262D01*
X29413262Y-160740285D01*
X29124893Y-161171859D01*
X28926261Y-161651399D01*
X28825000Y-162160475D01*
X28825000Y-162679525D01*
X28926261Y-163188601D01*
X29124893Y-163668141D01*
X29413262Y-164099715D01*
X29780285Y-164466738D01*
X30211859Y-164755107D01*
X30691399Y-164953739D01*
X31200475Y-165055000D01*
X31719525Y-165055000D01*
X32228601Y-164953739D01*
X32708141Y-164755107D01*
X33139715Y-164466738D01*
X33506738Y-164099715D01*
X33795107Y-163668141D01*
X33945525Y-163305000D01*
X34115001Y-163305000D01*
X34115000Y-170456531D01*
X34110719Y-170500000D01*
X34115000Y-170543469D01*
X34115000Y-170543476D01*
X34123187Y-170626596D01*
X34126526Y-170660498D01*
X34127805Y-170673489D01*
X34178411Y-170840312D01*
X34260589Y-170994058D01*
X34371183Y-171128817D01*
X34404956Y-171156534D01*
X35843470Y-172595049D01*
X35871183Y-172628817D01*
X35904951Y-172656530D01*
X35904953Y-172656532D01*
X35964677Y-172705546D01*
X36005941Y-172739411D01*
X36159687Y-172821589D01*
X36326510Y-172872195D01*
X36456523Y-172885000D01*
X36456533Y-172885000D01*
X36499999Y-172889281D01*
X36543465Y-172885000D01*
X49706531Y-172885000D01*
X49750000Y-172889281D01*
X49793469Y-172885000D01*
X49793477Y-172885000D01*
X49923490Y-172872195D01*
X50090313Y-172821589D01*
X50244059Y-172739411D01*
X50378817Y-172628817D01*
X50406534Y-172595044D01*
X52345049Y-170656530D01*
X52378817Y-170628817D01*
X52408830Y-170592247D01*
X52489410Y-170494060D01*
X52489411Y-170494059D01*
X52571589Y-170340313D01*
X52622195Y-170173490D01*
X52635000Y-170043477D01*
X52635000Y-170043467D01*
X52639281Y-170000001D01*
X52635000Y-169956535D01*
X52635000Y-168400086D01*
X52731873Y-168518127D01*
X52923275Y-168675206D01*
X53141643Y-168791926D01*
X53378587Y-168863802D01*
X53625000Y-168888072D01*
X54875000Y-168888072D01*
X55121413Y-168863802D01*
X55358357Y-168791926D01*
X55576725Y-168675206D01*
X55768127Y-168518127D01*
X55925206Y-168326725D01*
X56000000Y-168186795D01*
X56074794Y-168326725D01*
X56231873Y-168518127D01*
X56423275Y-168675206D01*
X56641643Y-168791926D01*
X56878587Y-168863802D01*
X57125000Y-168888072D01*
X58375000Y-168888072D01*
X58621413Y-168863802D01*
X58858357Y-168791926D01*
X59076725Y-168675206D01*
X59268127Y-168518127D01*
X59425206Y-168326725D01*
X59541926Y-168108357D01*
X59613802Y-167871413D01*
X59638072Y-167625000D01*
X59638072Y-166375000D01*
X59613802Y-166128587D01*
X59541926Y-165891643D01*
X59425206Y-165673275D01*
X59268127Y-165481873D01*
X59076725Y-165324794D01*
X58858357Y-165208074D01*
X58621413Y-165136198D01*
X58375000Y-165111928D01*
X57125000Y-165111928D01*
X56878587Y-165136198D01*
X56641643Y-165208074D01*
X56423275Y-165324794D01*
X56231873Y-165481873D01*
X56074794Y-165673275D01*
X56000000Y-165813205D01*
X55925206Y-165673275D01*
X55768127Y-165481873D01*
X55576725Y-165324794D01*
X55358357Y-165208074D01*
X55121413Y-165136198D01*
X54875000Y-165111928D01*
X53625000Y-165111928D01*
X53378587Y-165136198D01*
X53141643Y-165208074D01*
X52923275Y-165324794D01*
X52731873Y-165481873D01*
X52635000Y-165599914D01*
X52635000Y-161993469D01*
X52639281Y-161950000D01*
X52635000Y-161906531D01*
X52635000Y-161906523D01*
X52622195Y-161776510D01*
X52571589Y-161609687D01*
X52489411Y-161455941D01*
X52480199Y-161444716D01*
X52406532Y-161354953D01*
X52406530Y-161354951D01*
X52378817Y-161321183D01*
X52345050Y-161293471D01*
X51456534Y-160404956D01*
X51428817Y-160371183D01*
X51294059Y-160260589D01*
X51140313Y-160178411D01*
X50973490Y-160127805D01*
X50930545Y-160123575D01*
X50925812Y-160075518D01*
X50890770Y-159960000D01*
X55513377Y-159960000D01*
X55211859Y-160084893D01*
X54780285Y-160373262D01*
X54413262Y-160740285D01*
X54124893Y-161171859D01*
X53926261Y-161651399D01*
X53825000Y-162160475D01*
X53825000Y-162679525D01*
X53926261Y-163188601D01*
X54124893Y-163668141D01*
X54413262Y-164099715D01*
X54780285Y-164466738D01*
X55211859Y-164755107D01*
X55691399Y-164953739D01*
X56200475Y-165055000D01*
X56719525Y-165055000D01*
X57228601Y-164953739D01*
X57708141Y-164755107D01*
X58139715Y-164466738D01*
X58506738Y-164099715D01*
X58795107Y-163668141D01*
X58993739Y-163188601D01*
X59095000Y-162679525D01*
X59095000Y-162160475D01*
X58993739Y-161651399D01*
X58795107Y-161171859D01*
X58506738Y-160740285D01*
X58139715Y-160373262D01*
X57708141Y-160084893D01*
X57406623Y-159960000D01*
X58854465Y-159960000D01*
X58957111Y-160028586D01*
X59127271Y-160099068D01*
X59307911Y-160135000D01*
X59492089Y-160135000D01*
X59672729Y-160099068D01*
X59842889Y-160028586D01*
X59996028Y-159926262D01*
X60126262Y-159796028D01*
X60228586Y-159642889D01*
X60299068Y-159472729D01*
X60307170Y-159432000D01*
X60472729Y-159399068D01*
X60642889Y-159328586D01*
X60796028Y-159226262D01*
X60926262Y-159096028D01*
X61028586Y-158942889D01*
X61099068Y-158772729D01*
X61117401Y-158680564D01*
X61242889Y-158628586D01*
X61396028Y-158526262D01*
X61526262Y-158396028D01*
X61628586Y-158242889D01*
X61699068Y-158072729D01*
X61735000Y-157892089D01*
X61735000Y-157707911D01*
X61699068Y-157527271D01*
X61628586Y-157357111D01*
X61526262Y-157203972D01*
X61448546Y-157126256D01*
X63814802Y-154760000D01*
X65454465Y-154760000D01*
X65557111Y-154828586D01*
X65727271Y-154899068D01*
X65907911Y-154935000D01*
X66092089Y-154935000D01*
X66272729Y-154899068D01*
X66442889Y-154828586D01*
X66550000Y-154757017D01*
X66657111Y-154828586D01*
X66827271Y-154899068D01*
X67007911Y-154935000D01*
X67192089Y-154935000D01*
X67372729Y-154899068D01*
X67542889Y-154828586D01*
X67696028Y-154726262D01*
X67826262Y-154596028D01*
X67928586Y-154442889D01*
X67999068Y-154272729D01*
X68035000Y-154092089D01*
X68035000Y-153907911D01*
X67999068Y-153727271D01*
X67928586Y-153557111D01*
X67826262Y-153403972D01*
X67696028Y-153273738D01*
X67542889Y-153171414D01*
X67372729Y-153100932D01*
X67251649Y-153076847D01*
X65347855Y-151173054D01*
X65407911Y-151185000D01*
X65592089Y-151185000D01*
X65772729Y-151149068D01*
X65942889Y-151078586D01*
X66000000Y-151040426D01*
X66057111Y-151078586D01*
X66227271Y-151149068D01*
X66407911Y-151185000D01*
X66592089Y-151185000D01*
X66772729Y-151149068D01*
X66942889Y-151078586D01*
X67096028Y-150976262D01*
X67226262Y-150846028D01*
X67328586Y-150692889D01*
X67375000Y-150580835D01*
X67421414Y-150692889D01*
X67523738Y-150846028D01*
X67653972Y-150976262D01*
X67807111Y-151078586D01*
X67977271Y-151149068D01*
X68157911Y-151185000D01*
X68342089Y-151185000D01*
X68522729Y-151149068D01*
X68692889Y-151078586D01*
X68750000Y-151040426D01*
X68807111Y-151078586D01*
X68977271Y-151149068D01*
X69157911Y-151185000D01*
X69342089Y-151185000D01*
X69522729Y-151149068D01*
X69692889Y-151078586D01*
X69740000Y-151047107D01*
X69740001Y-158185197D01*
X69435199Y-158490000D01*
X67037325Y-158490000D01*
X67000000Y-158486324D01*
X66962675Y-158490000D01*
X66962667Y-158490000D01*
X66851014Y-158500997D01*
X66707753Y-158544454D01*
X66575724Y-158615026D01*
X66459999Y-158709999D01*
X66436201Y-158738997D01*
X64739003Y-160436196D01*
X64709999Y-160459999D01*
X64672296Y-160505941D01*
X64615026Y-160575724D01*
X64583356Y-160634974D01*
X64544454Y-160707754D01*
X64500997Y-160851015D01*
X64490000Y-160962668D01*
X64490000Y-160962678D01*
X64486324Y-161000000D01*
X64490000Y-161037322D01*
X64490001Y-169360260D01*
X64486324Y-169397592D01*
X64490001Y-169434925D01*
X64500998Y-169546578D01*
X64502339Y-169550998D01*
X64544454Y-169689838D01*
X64615026Y-169821868D01*
X64686201Y-169908594D01*
X64710000Y-169937593D01*
X64738998Y-169961391D01*
X66277590Y-171499984D01*
X66312407Y-171542409D01*
X66341410Y-171566212D01*
X67233526Y-172458327D01*
X67245718Y-172519623D01*
X67282027Y-172639319D01*
X67319536Y-172729875D01*
X67378502Y-172840192D01*
X67432958Y-172921691D01*
X67512310Y-173018382D01*
X67581618Y-173087690D01*
X67678309Y-173167042D01*
X67759808Y-173221498D01*
X67870125Y-173280464D01*
X67960681Y-173317973D01*
X68080377Y-173354282D01*
X68176510Y-173373404D01*
X68300991Y-173385664D01*
X68325550Y-173385664D01*
X68350000Y-173388072D01*
X68850000Y-173388072D01*
X68974482Y-173375812D01*
X69000000Y-173368071D01*
X69025518Y-173375812D01*
X69150000Y-173388072D01*
X69650000Y-173388072D01*
X69674450Y-173385664D01*
X69699009Y-173385664D01*
X69823490Y-173373404D01*
X69919623Y-173354282D01*
X70039319Y-173317973D01*
X70129875Y-173280464D01*
X70240192Y-173221498D01*
X70321691Y-173167042D01*
X70418382Y-173087690D01*
X70487690Y-173018382D01*
X70567042Y-172921691D01*
X70621498Y-172840192D01*
X70680464Y-172729875D01*
X70717973Y-172639319D01*
X70754282Y-172519623D01*
X70773404Y-172423490D01*
X70785664Y-172299009D01*
X70785664Y-172274450D01*
X70788072Y-172250000D01*
X70788072Y-171750000D01*
X70785664Y-171725550D01*
X70785664Y-171700991D01*
X70773404Y-171576510D01*
X70754282Y-171480377D01*
X70717973Y-171360681D01*
X70680464Y-171270125D01*
X70621498Y-171159808D01*
X70567042Y-171078309D01*
X70487690Y-170981618D01*
X70418382Y-170912310D01*
X70410000Y-170905431D01*
X70410000Y-169437333D01*
X70413677Y-169400000D01*
X70399003Y-169251014D01*
X70355546Y-169107753D01*
X70284974Y-168975724D01*
X70213799Y-168888997D01*
X70213040Y-168888072D01*
X71375000Y-168888072D01*
X71621413Y-168863802D01*
X71858357Y-168791926D01*
X72076725Y-168675206D01*
X72268127Y-168518127D01*
X72425206Y-168326725D01*
X72541926Y-168108357D01*
X72613802Y-167871413D01*
X72638072Y-167625000D01*
X72638072Y-167212874D01*
X72740001Y-167314803D01*
X72740000Y-170262677D01*
X72736324Y-170300000D01*
X72740000Y-170337322D01*
X72740000Y-170337332D01*
X72750997Y-170448985D01*
X72790173Y-170578132D01*
X72794454Y-170592246D01*
X72865026Y-170724276D01*
X72904871Y-170772826D01*
X72959999Y-170840001D01*
X72989003Y-170863804D01*
X74636201Y-172511003D01*
X74659999Y-172540001D01*
X74688997Y-172563799D01*
X74775723Y-172634974D01*
X74907753Y-172705546D01*
X75051014Y-172749003D01*
X75162667Y-172760000D01*
X75162676Y-172760000D01*
X75199999Y-172763676D01*
X75237322Y-172760000D01*
X75685638Y-172760000D01*
X75728502Y-172840192D01*
X75782958Y-172921691D01*
X75862310Y-173018382D01*
X75931618Y-173087690D01*
X76028309Y-173167042D01*
X76109808Y-173221498D01*
X76220125Y-173280464D01*
X76310681Y-173317973D01*
X76430377Y-173354282D01*
X76526510Y-173373404D01*
X76650991Y-173385664D01*
X76675550Y-173385664D01*
X76700000Y-173388072D01*
X77200000Y-173388072D01*
X77324482Y-173375812D01*
X77350000Y-173368071D01*
X77375518Y-173375812D01*
X77500000Y-173388072D01*
X78000000Y-173388072D01*
X78024450Y-173385664D01*
X78049009Y-173385664D01*
X78173490Y-173373404D01*
X78269623Y-173354282D01*
X78389319Y-173317973D01*
X78479875Y-173280464D01*
X78590192Y-173221498D01*
X78671691Y-173167042D01*
X78768382Y-173087690D01*
X78837690Y-173018382D01*
X78917042Y-172921691D01*
X78971498Y-172840192D01*
X79030464Y-172729875D01*
X79067973Y-172639319D01*
X79104282Y-172519623D01*
X79123404Y-172423490D01*
X79135664Y-172299009D01*
X79135664Y-172274450D01*
X79138072Y-172250000D01*
X79138072Y-171750000D01*
X79135664Y-171725550D01*
X79135664Y-171700991D01*
X79123404Y-171576510D01*
X79104282Y-171480377D01*
X79067973Y-171360681D01*
X79030464Y-171270125D01*
X78971498Y-171159808D01*
X78917042Y-171078309D01*
X78837690Y-170981618D01*
X78768382Y-170912310D01*
X78760000Y-170905431D01*
X78760000Y-169287333D01*
X78763677Y-169250000D01*
X78749003Y-169101014D01*
X78705546Y-168957753D01*
X78668300Y-168888072D01*
X79875000Y-168888072D01*
X80121413Y-168863802D01*
X80358357Y-168791926D01*
X80576725Y-168675206D01*
X80768127Y-168518127D01*
X80925206Y-168326725D01*
X80990000Y-168205503D01*
X80990000Y-170712677D01*
X80986324Y-170750000D01*
X80990000Y-170787322D01*
X80990000Y-170787332D01*
X81000997Y-170898985D01*
X81042964Y-171037333D01*
X81044454Y-171042246D01*
X81115026Y-171174276D01*
X81118420Y-171178411D01*
X81209999Y-171290001D01*
X81239003Y-171313804D01*
X82436201Y-172511003D01*
X82459999Y-172540001D01*
X82488997Y-172563799D01*
X82575723Y-172634974D01*
X82707753Y-172705546D01*
X82851014Y-172749003D01*
X82962667Y-172760000D01*
X82962677Y-172760000D01*
X83000000Y-172763676D01*
X83037323Y-172760000D01*
X84335638Y-172760000D01*
X84378502Y-172840192D01*
X84432958Y-172921691D01*
X84512310Y-173018382D01*
X84581618Y-173087690D01*
X84678309Y-173167042D01*
X84759808Y-173221498D01*
X84870125Y-173280464D01*
X84960681Y-173317973D01*
X85080377Y-173354282D01*
X85176510Y-173373404D01*
X85300991Y-173385664D01*
X85325550Y-173385664D01*
X85350000Y-173388072D01*
X85850000Y-173388072D01*
X85974482Y-173375812D01*
X86000000Y-173368071D01*
X86025518Y-173375812D01*
X86150000Y-173388072D01*
X86650000Y-173388072D01*
X86674450Y-173385664D01*
X86699009Y-173385664D01*
X86823490Y-173373404D01*
X86919623Y-173354282D01*
X87039319Y-173317973D01*
X87129875Y-173280464D01*
X87240192Y-173221498D01*
X87321691Y-173167042D01*
X87418382Y-173087690D01*
X87487690Y-173018382D01*
X87567042Y-172921691D01*
X87621498Y-172840192D01*
X87680464Y-172729875D01*
X87717973Y-172639319D01*
X87754282Y-172519623D01*
X87773404Y-172423490D01*
X87785664Y-172299009D01*
X87785664Y-172274450D01*
X87788072Y-172250000D01*
X87788072Y-171750000D01*
X87785664Y-171725550D01*
X87785664Y-171700991D01*
X87773404Y-171576510D01*
X87754282Y-171480377D01*
X87717973Y-171360681D01*
X87680464Y-171270125D01*
X87621498Y-171159808D01*
X87567042Y-171078309D01*
X87487690Y-170981618D01*
X87418382Y-170912310D01*
X87410000Y-170905431D01*
X87410000Y-169437333D01*
X87413677Y-169400000D01*
X87399003Y-169251014D01*
X87355546Y-169107753D01*
X87284974Y-168975724D01*
X87213799Y-168888997D01*
X87213040Y-168888072D01*
X88375000Y-168888072D01*
X88621413Y-168863802D01*
X88858357Y-168791926D01*
X89076725Y-168675206D01*
X89268127Y-168518127D01*
X89425206Y-168326725D01*
X89541926Y-168108357D01*
X89613802Y-167871413D01*
X89638072Y-167625000D01*
X89638072Y-166375000D01*
X89613802Y-166128587D01*
X89541926Y-165891643D01*
X89425206Y-165673275D01*
X89268127Y-165481873D01*
X89076725Y-165324794D01*
X88858357Y-165208074D01*
X88621413Y-165136198D01*
X88375000Y-165111928D01*
X87125000Y-165111928D01*
X86878587Y-165136198D01*
X86641643Y-165208074D01*
X86423275Y-165324794D01*
X86231873Y-165481873D01*
X86074794Y-165673275D01*
X86000000Y-165813205D01*
X85925206Y-165673275D01*
X85768127Y-165481873D01*
X85576725Y-165324794D01*
X85426520Y-165244508D01*
X85465130Y-165238787D01*
X85731292Y-165143603D01*
X85856514Y-165076671D01*
X85928097Y-164832702D01*
X85115000Y-164019605D01*
X84301903Y-164832702D01*
X84373486Y-165076671D01*
X84447998Y-165111928D01*
X83625000Y-165111928D01*
X83378587Y-165136198D01*
X83141643Y-165208074D01*
X82923275Y-165324794D01*
X82731873Y-165481873D01*
X82574794Y-165673275D01*
X82510000Y-165794496D01*
X82510000Y-165537325D01*
X82513676Y-165500000D01*
X82510000Y-165462675D01*
X82510000Y-165462667D01*
X82499003Y-165351014D01*
X82475945Y-165275000D01*
X82486335Y-165275000D01*
X82763574Y-165219853D01*
X83024727Y-165111680D01*
X83259759Y-164954637D01*
X83459637Y-164754759D01*
X83616680Y-164519727D01*
X83724853Y-164258574D01*
X83730513Y-164230118D01*
X83811397Y-164456292D01*
X83878329Y-164581514D01*
X84122298Y-164653097D01*
X84935395Y-163840000D01*
X84921253Y-163825858D01*
X85100858Y-163646253D01*
X85115000Y-163660395D01*
X85129143Y-163646253D01*
X85308748Y-163825858D01*
X85294605Y-163840000D01*
X86107702Y-164653097D01*
X86351671Y-164581514D01*
X86472571Y-164326004D01*
X86487236Y-164267499D01*
X91792106Y-164267499D01*
X92008228Y-164634258D01*
X92468105Y-164874938D01*
X92966098Y-165021275D01*
X93483071Y-165067648D01*
X93999159Y-165012273D01*
X94494526Y-164857279D01*
X94911772Y-164634258D01*
X95127894Y-164267499D01*
X93460000Y-162599605D01*
X91792106Y-164267499D01*
X86487236Y-164267499D01*
X86541300Y-164051816D01*
X86555217Y-163769488D01*
X86513787Y-163489870D01*
X86476284Y-163385000D01*
X89206531Y-163385000D01*
X89250000Y-163389281D01*
X89293469Y-163385000D01*
X89293477Y-163385000D01*
X89423490Y-163372195D01*
X89590313Y-163321589D01*
X89744059Y-163239411D01*
X89878817Y-163128817D01*
X89906534Y-163095044D01*
X90837366Y-162164212D01*
X90812352Y-162443071D01*
X90867727Y-162959159D01*
X91022721Y-163454526D01*
X91245742Y-163871772D01*
X91612501Y-164087894D01*
X93280395Y-162420000D01*
X93639605Y-162420000D01*
X95307499Y-164087894D01*
X95674258Y-163871772D01*
X95914938Y-163411895D01*
X96061275Y-162913902D01*
X96081178Y-162692017D01*
X97373000Y-162692017D01*
X97373000Y-163307983D01*
X97493169Y-163912112D01*
X97728889Y-164481190D01*
X98071101Y-164993346D01*
X98506654Y-165428899D01*
X99018810Y-165771111D01*
X99587888Y-166006831D01*
X100192017Y-166127000D01*
X100807983Y-166127000D01*
X101412112Y-166006831D01*
X101981190Y-165771111D01*
X102493346Y-165428899D01*
X102928899Y-164993346D01*
X103271111Y-164481190D01*
X103506831Y-163912112D01*
X103627000Y-163307983D01*
X103627000Y-162692017D01*
X103506831Y-162087888D01*
X103271111Y-161518810D01*
X102928899Y-161006654D01*
X102493346Y-160571101D01*
X101981190Y-160228889D01*
X101412112Y-159993169D01*
X100807983Y-159873000D01*
X100192017Y-159873000D01*
X99587888Y-159993169D01*
X99018810Y-160228889D01*
X98506654Y-160571101D01*
X98071101Y-161006654D01*
X97728889Y-161518810D01*
X97493169Y-162087888D01*
X97373000Y-162692017D01*
X96081178Y-162692017D01*
X96107648Y-162396929D01*
X96052273Y-161880841D01*
X95897279Y-161385474D01*
X95674258Y-160968228D01*
X95307499Y-160752106D01*
X93639605Y-162420000D01*
X93280395Y-162420000D01*
X93266253Y-162405858D01*
X93445858Y-162226253D01*
X93460000Y-162240395D01*
X95127894Y-160572501D01*
X94911772Y-160205742D01*
X94451895Y-159965062D01*
X93953902Y-159818725D01*
X93436929Y-159772352D01*
X93204262Y-159797317D01*
X93595050Y-159406529D01*
X93628817Y-159378817D01*
X93673006Y-159324974D01*
X93739411Y-159244059D01*
X93808780Y-159114277D01*
X93821589Y-159090313D01*
X93872195Y-158923490D01*
X93885000Y-158793477D01*
X93885000Y-158793469D01*
X93889281Y-158750000D01*
X93885000Y-158706531D01*
X93885000Y-158109680D01*
X94108357Y-158041926D01*
X94326725Y-157925206D01*
X94518127Y-157768127D01*
X94675206Y-157576725D01*
X94791926Y-157358357D01*
X94863802Y-157121413D01*
X94888072Y-156875000D01*
X94888072Y-155625000D01*
X94863802Y-155378587D01*
X94791926Y-155141643D01*
X94675206Y-154923275D01*
X94518127Y-154731873D01*
X94385002Y-154622621D01*
X94494180Y-154589502D01*
X94604494Y-154530537D01*
X94701185Y-154451185D01*
X94780537Y-154354494D01*
X94839502Y-154244180D01*
X94875812Y-154124482D01*
X94888072Y-154000000D01*
X94885000Y-153035750D01*
X94726250Y-152877000D01*
X94380617Y-152877000D01*
X94389812Y-152677508D01*
X94381558Y-152623000D01*
X94726250Y-152623000D01*
X94885000Y-152464250D01*
X94888072Y-151500000D01*
X94875812Y-151375518D01*
X94839502Y-151255820D01*
X94780537Y-151145506D01*
X94701185Y-151048815D01*
X94604494Y-150969463D01*
X94494180Y-150910498D01*
X94374482Y-150874188D01*
X94250000Y-150861928D01*
X93285750Y-150865000D01*
X93127000Y-151023750D01*
X93127000Y-151369383D01*
X92927508Y-151360188D01*
X92873000Y-151368442D01*
X92873000Y-151023750D01*
X92714250Y-150865000D01*
X91750000Y-150861928D01*
X91625518Y-150874188D01*
X91505820Y-150910498D01*
X91395506Y-150969463D01*
X91298815Y-151048815D01*
X91219463Y-151145506D01*
X91160498Y-151255820D01*
X91124188Y-151375518D01*
X91111928Y-151500000D01*
X91115000Y-152464250D01*
X91273750Y-152623000D01*
X91619383Y-152623000D01*
X91610188Y-152822492D01*
X91618442Y-152877000D01*
X91273750Y-152877000D01*
X91115000Y-153035750D01*
X91111928Y-154000000D01*
X91124188Y-154124482D01*
X91160498Y-154244180D01*
X91219463Y-154354494D01*
X91298815Y-154451185D01*
X91395506Y-154530537D01*
X91505820Y-154589502D01*
X91614998Y-154622621D01*
X91481873Y-154731873D01*
X91324794Y-154923275D01*
X91208074Y-155141643D01*
X91136198Y-155378587D01*
X91111928Y-155625000D01*
X91111928Y-156875000D01*
X91136198Y-157121413D01*
X91208074Y-157358357D01*
X91324794Y-157576725D01*
X91481873Y-157768127D01*
X91673275Y-157925206D01*
X91891643Y-158041926D01*
X92115000Y-158109681D01*
X92115000Y-158383421D01*
X88883422Y-161615000D01*
X87936967Y-161615000D01*
X87935000Y-161285750D01*
X87776250Y-161127000D01*
X86627000Y-161127000D01*
X86627000Y-161147000D01*
X86373000Y-161147000D01*
X86373000Y-161127000D01*
X86353000Y-161127000D01*
X86353000Y-160873000D01*
X86373000Y-160873000D01*
X86373000Y-159723750D01*
X86627000Y-159723750D01*
X86627000Y-160873000D01*
X87776250Y-160873000D01*
X87935000Y-160714250D01*
X87938072Y-160200000D01*
X87925812Y-160075518D01*
X87889502Y-159955820D01*
X87830537Y-159845506D01*
X87751185Y-159748815D01*
X87654494Y-159669463D01*
X87544180Y-159610498D01*
X87424482Y-159574188D01*
X87300000Y-159561928D01*
X86785750Y-159565000D01*
X86627000Y-159723750D01*
X86373000Y-159723750D01*
X86214250Y-159565000D01*
X85700000Y-159561928D01*
X85575518Y-159574188D01*
X85455820Y-159610498D01*
X85345506Y-159669463D01*
X85248815Y-159748815D01*
X85169463Y-159845506D01*
X85110498Y-159955820D01*
X85074188Y-160075518D01*
X85061928Y-160200000D01*
X85063539Y-160469613D01*
X85001680Y-160320273D01*
X84844637Y-160085241D01*
X84644759Y-159885363D01*
X84409727Y-159728320D01*
X84148574Y-159620147D01*
X83871335Y-159565000D01*
X83588665Y-159565000D01*
X83311426Y-159620147D01*
X83050273Y-159728320D01*
X82815241Y-159885363D01*
X82615363Y-160085241D01*
X82458320Y-160320273D01*
X82350147Y-160581426D01*
X82345000Y-160607301D01*
X82339853Y-160581426D01*
X82231680Y-160320273D01*
X82074637Y-160085241D01*
X81874759Y-159885363D01*
X81639727Y-159728320D01*
X81378574Y-159620147D01*
X81101335Y-159565000D01*
X80818665Y-159565000D01*
X80670287Y-159594515D01*
X81011003Y-159253799D01*
X81040001Y-159230001D01*
X81134974Y-159114276D01*
X81205546Y-158982247D01*
X81249003Y-158838986D01*
X81260000Y-158727333D01*
X81260000Y-158727324D01*
X81263676Y-158690001D01*
X81260000Y-158652678D01*
X81260000Y-157045535D01*
X81328586Y-156942889D01*
X81399068Y-156772729D01*
X81426465Y-156634999D01*
X81949587Y-156634999D01*
X81972829Y-156644626D01*
X82153469Y-156680558D01*
X82337647Y-156680558D01*
X82518287Y-156644626D01*
X82688447Y-156574144D01*
X82841586Y-156471820D01*
X82971820Y-156341586D01*
X83074144Y-156188447D01*
X83144626Y-156018287D01*
X83180558Y-155837647D01*
X83180558Y-155653469D01*
X83166939Y-155585001D01*
X84137677Y-155585001D01*
X84174999Y-155588677D01*
X84212321Y-155585001D01*
X84212332Y-155585001D01*
X84323985Y-155574004D01*
X84467246Y-155530547D01*
X84599275Y-155459975D01*
X84641742Y-155425123D01*
X84772729Y-155399068D01*
X84942889Y-155328586D01*
X85096028Y-155226262D01*
X85226262Y-155096028D01*
X85328586Y-154942889D01*
X85399068Y-154772729D01*
X85435000Y-154592089D01*
X85435000Y-154407911D01*
X85399068Y-154227271D01*
X85328586Y-154057111D01*
X85226262Y-153903972D01*
X85096028Y-153773738D01*
X84942889Y-153671414D01*
X84772729Y-153600932D01*
X84592089Y-153565000D01*
X84407911Y-153565000D01*
X84227271Y-153600932D01*
X84057111Y-153671414D01*
X83903972Y-153773738D01*
X83773738Y-153903972D01*
X83671414Y-154057111D01*
X83668146Y-154065001D01*
X80773275Y-154065001D01*
X80728586Y-153957111D01*
X80626262Y-153803972D01*
X80496028Y-153673738D01*
X80342889Y-153571414D01*
X80172729Y-153500932D01*
X79992089Y-153465000D01*
X79807911Y-153465000D01*
X79627271Y-153500932D01*
X79457111Y-153571414D01*
X79354465Y-153640000D01*
X78045535Y-153640000D01*
X77942889Y-153571414D01*
X77772729Y-153500932D01*
X77592089Y-153465000D01*
X77407911Y-153465000D01*
X77227271Y-153500932D01*
X77057111Y-153571414D01*
X76954465Y-153640000D01*
X76003711Y-153640000D01*
X75959774Y-153596063D01*
X75790256Y-153482795D01*
X75601898Y-153404774D01*
X75401939Y-153365000D01*
X75198061Y-153365000D01*
X74998102Y-153404774D01*
X74809744Y-153482795D01*
X74738801Y-153530197D01*
X74738801Y-152595001D01*
X74807387Y-152492355D01*
X74877869Y-152322195D01*
X74901954Y-152201115D01*
X75813799Y-151289270D01*
X75813803Y-151289265D01*
X78568070Y-148534999D01*
X82773535Y-148534999D01*
X82800932Y-148672729D01*
X82871414Y-148842889D01*
X82940001Y-148945537D01*
X82940000Y-152116370D01*
X82807111Y-152171414D01*
X82653972Y-152273738D01*
X82523738Y-152403972D01*
X82421414Y-152557111D01*
X82350932Y-152727271D01*
X82315000Y-152907911D01*
X82315000Y-153092089D01*
X82350932Y-153272729D01*
X82421414Y-153442889D01*
X82523738Y-153596028D01*
X82653972Y-153726262D01*
X82807111Y-153828586D01*
X82977271Y-153899068D01*
X83157911Y-153935000D01*
X83342089Y-153935000D01*
X83522729Y-153899068D01*
X83692889Y-153828586D01*
X83846028Y-153726262D01*
X83976262Y-153596028D01*
X84078586Y-153442889D01*
X84149068Y-153272729D01*
X84173153Y-153151648D01*
X84210998Y-153113803D01*
X84240001Y-153090001D01*
X84313863Y-153000000D01*
X84334974Y-152974277D01*
X84405546Y-152842247D01*
X84410558Y-152825724D01*
X84449003Y-152698986D01*
X84460000Y-152587333D01*
X84460000Y-152587324D01*
X84463676Y-152550001D01*
X84460000Y-152512678D01*
X84460000Y-149263699D01*
X84557111Y-149328586D01*
X84727271Y-149399068D01*
X84907911Y-149435000D01*
X85092089Y-149435000D01*
X85272729Y-149399068D01*
X85442889Y-149328586D01*
X85596028Y-149226262D01*
X85726262Y-149096028D01*
X85828586Y-148942889D01*
X85899068Y-148772729D01*
X85935000Y-148592089D01*
X85935000Y-148407911D01*
X85899068Y-148227271D01*
X85828586Y-148057111D01*
X85726262Y-147903972D01*
X85710362Y-147888072D01*
X86000000Y-147888072D01*
X86124482Y-147875812D01*
X86244180Y-147839502D01*
X86250000Y-147836391D01*
X86255820Y-147839502D01*
X86375518Y-147875812D01*
X86500000Y-147888072D01*
X87000000Y-147888072D01*
X87124482Y-147875812D01*
X87244180Y-147839502D01*
X87250000Y-147836391D01*
X87255820Y-147839502D01*
X87375518Y-147875812D01*
X87500000Y-147888072D01*
X88500000Y-147888072D01*
X88624482Y-147875812D01*
X88744180Y-147839502D01*
X88750000Y-147836391D01*
X88755820Y-147839502D01*
X88875518Y-147875812D01*
X89000000Y-147888072D01*
X89500000Y-147888072D01*
X89624482Y-147875812D01*
X89744180Y-147839502D01*
X89750000Y-147836391D01*
X89755820Y-147839502D01*
X89875518Y-147875812D01*
X90000000Y-147888072D01*
X90500000Y-147888072D01*
X90624482Y-147875812D01*
X90744180Y-147839502D01*
X90854494Y-147780537D01*
X90951185Y-147701185D01*
X91000000Y-147641704D01*
X91048815Y-147701185D01*
X91145506Y-147780537D01*
X91255820Y-147839502D01*
X91375518Y-147875812D01*
X91500000Y-147888072D01*
X95000000Y-147888072D01*
X95124482Y-147875812D01*
X95244180Y-147839502D01*
X95354494Y-147780537D01*
X95451185Y-147701185D01*
X95530537Y-147604494D01*
X95589502Y-147494180D01*
X95625812Y-147374482D01*
X95638072Y-147250000D01*
X95638072Y-143750000D01*
X95625812Y-143625518D01*
X95589502Y-143505820D01*
X95586391Y-143500000D01*
X95589502Y-143494180D01*
X95625812Y-143374482D01*
X95638072Y-143250000D01*
X95638072Y-142750000D01*
X95625812Y-142625518D01*
X95589502Y-142505820D01*
X95586391Y-142500000D01*
X95589502Y-142494180D01*
X95625812Y-142374482D01*
X95638072Y-142250000D01*
X95638072Y-140750000D01*
X95625812Y-140625518D01*
X95589502Y-140505820D01*
X95530537Y-140395506D01*
X95451185Y-140298815D01*
X95354494Y-140219463D01*
X95244180Y-140160498D01*
X95125502Y-140124498D01*
X95089502Y-140005820D01*
X95030537Y-139895506D01*
X94951185Y-139798815D01*
X94854494Y-139719463D01*
X94744180Y-139660498D01*
X94638072Y-139628310D01*
X94638072Y-139388072D01*
X95000000Y-139388072D01*
X95124482Y-139375812D01*
X95244180Y-139339502D01*
X95354494Y-139280537D01*
X95451185Y-139201185D01*
X95530537Y-139104494D01*
X95589502Y-138994180D01*
X95625812Y-138874482D01*
X95638072Y-138750000D01*
X95638072Y-138250000D01*
X95625812Y-138125518D01*
X95589502Y-138005820D01*
X95530537Y-137895506D01*
X95451185Y-137798815D01*
X95354494Y-137719463D01*
X95303147Y-137692017D01*
X97373000Y-137692017D01*
X97373000Y-138307983D01*
X97493169Y-138912112D01*
X97728889Y-139481190D01*
X98071101Y-139993346D01*
X98506654Y-140428899D01*
X99018810Y-140771111D01*
X99587888Y-141006831D01*
X100192017Y-141127000D01*
X100807983Y-141127000D01*
X101412112Y-141006831D01*
X101981190Y-140771111D01*
X102493346Y-140428899D01*
X102928899Y-139993346D01*
X103271111Y-139481190D01*
X103506831Y-138912112D01*
X103627000Y-138307983D01*
X103627000Y-137692017D01*
X103506831Y-137087888D01*
X103271111Y-136518810D01*
X102928899Y-136006654D01*
X102493346Y-135571101D01*
X101981190Y-135228889D01*
X101412112Y-134993169D01*
X100807983Y-134873000D01*
X100192017Y-134873000D01*
X99587888Y-134993169D01*
X99018810Y-135228889D01*
X98506654Y-135571101D01*
X98071101Y-136006654D01*
X97728889Y-136518810D01*
X97493169Y-137087888D01*
X97373000Y-137692017D01*
X95303147Y-137692017D01*
X95244180Y-137660498D01*
X95124482Y-137624188D01*
X95000000Y-137611928D01*
X94621690Y-137611928D01*
X94589502Y-137505820D01*
X94586391Y-137500000D01*
X94589502Y-137494180D01*
X94621690Y-137388072D01*
X95000000Y-137388072D01*
X95124482Y-137375812D01*
X95244180Y-137339502D01*
X95354494Y-137280537D01*
X95451185Y-137201185D01*
X95530537Y-137104494D01*
X95589502Y-136994180D01*
X95625812Y-136874482D01*
X95638072Y-136750000D01*
X95638072Y-134750000D01*
X95625812Y-134625518D01*
X95589502Y-134505820D01*
X95530537Y-134395506D01*
X95451185Y-134298815D01*
X95354494Y-134219463D01*
X95244180Y-134160498D01*
X95124482Y-134124188D01*
X95000000Y-134111928D01*
X94524436Y-134111928D01*
X94530537Y-134104494D01*
X94589502Y-133994180D01*
X94621690Y-133888072D01*
X95000000Y-133888072D01*
X95124482Y-133875812D01*
X95244180Y-133839502D01*
X95354494Y-133780537D01*
X95451185Y-133701185D01*
X95530537Y-133604494D01*
X95589502Y-133494180D01*
X95625812Y-133374482D01*
X95638072Y-133250000D01*
X95638072Y-132250000D01*
X95625812Y-132125518D01*
X95589502Y-132005820D01*
X95586391Y-132000000D01*
X95589502Y-131994180D01*
X95625812Y-131874482D01*
X95638072Y-131750000D01*
X95638072Y-131250000D01*
X95625812Y-131125518D01*
X95589502Y-131005820D01*
X95530537Y-130895506D01*
X95451185Y-130798815D01*
X95354494Y-130719463D01*
X95244180Y-130660498D01*
X95242538Y-130660000D01*
X104340000Y-130660000D01*
X104340001Y-174340000D01*
X20660000Y-174340000D01*
X20660000Y-162692017D01*
X21373000Y-162692017D01*
X21373000Y-163307983D01*
X21493169Y-163912112D01*
X21728889Y-164481190D01*
X22071101Y-164993346D01*
X22506654Y-165428899D01*
X23018810Y-165771111D01*
X23587888Y-166006831D01*
X24192017Y-166127000D01*
X24807983Y-166127000D01*
X25412112Y-166006831D01*
X25981190Y-165771111D01*
X26493346Y-165428899D01*
X26928899Y-164993346D01*
X27271111Y-164481190D01*
X27506831Y-163912112D01*
X27627000Y-163307983D01*
X27627000Y-162692017D01*
X27506831Y-162087888D01*
X27271111Y-161518810D01*
X26928899Y-161006654D01*
X26493346Y-160571101D01*
X25981190Y-160228889D01*
X25412112Y-159993169D01*
X24807983Y-159873000D01*
X24192017Y-159873000D01*
X23587888Y-159993169D01*
X23018810Y-160228889D01*
X22506654Y-160571101D01*
X22071101Y-161006654D01*
X21728889Y-161518810D01*
X21493169Y-162087888D01*
X21373000Y-162692017D01*
X20660000Y-162692017D01*
X20660000Y-151500000D01*
X30111928Y-151500000D01*
X30115000Y-152464250D01*
X30273750Y-152623000D01*
X30619383Y-152623000D01*
X30610188Y-152822492D01*
X30618442Y-152877000D01*
X30273750Y-152877000D01*
X30115000Y-153035750D01*
X30111928Y-154000000D01*
X30124188Y-154124482D01*
X30160498Y-154244180D01*
X30219463Y-154354494D01*
X30298815Y-154451185D01*
X30395506Y-154530537D01*
X30505820Y-154589502D01*
X30614998Y-154622621D01*
X30481873Y-154731873D01*
X30324794Y-154923275D01*
X30208074Y-155141643D01*
X30136198Y-155378587D01*
X30111928Y-155625000D01*
X30111928Y-156875000D01*
X30136198Y-157121413D01*
X30208074Y-157358357D01*
X30324794Y-157576725D01*
X30481873Y-157768127D01*
X30673275Y-157925206D01*
X30891643Y-158041926D01*
X31128587Y-158113802D01*
X31375000Y-158138072D01*
X32625000Y-158138072D01*
X32871413Y-158113802D01*
X33108357Y-158041926D01*
X33326725Y-157925206D01*
X33518127Y-157768127D01*
X33675206Y-157576725D01*
X33791926Y-157358357D01*
X33863802Y-157121413D01*
X33888072Y-156875000D01*
X33888072Y-155625000D01*
X33863802Y-155378587D01*
X33791926Y-155141643D01*
X33675206Y-154923275D01*
X33518127Y-154731873D01*
X33385002Y-154622621D01*
X33494180Y-154589502D01*
X33604494Y-154530537D01*
X33701185Y-154451185D01*
X33780537Y-154354494D01*
X33839502Y-154244180D01*
X33875812Y-154124482D01*
X33888072Y-154000000D01*
X33885000Y-153035750D01*
X33726250Y-152877000D01*
X33380617Y-152877000D01*
X33389812Y-152677508D01*
X33381558Y-152623000D01*
X33726250Y-152623000D01*
X33885000Y-152464250D01*
X33888072Y-151500000D01*
X33875812Y-151375518D01*
X33839502Y-151255820D01*
X33780537Y-151145506D01*
X33701185Y-151048815D01*
X33604494Y-150969463D01*
X33494180Y-150910498D01*
X33374482Y-150874188D01*
X33250000Y-150861928D01*
X32285750Y-150865000D01*
X32127000Y-151023750D01*
X32127000Y-151369383D01*
X31927508Y-151360188D01*
X31873000Y-151368442D01*
X31873000Y-151023750D01*
X31714250Y-150865000D01*
X30750000Y-150861928D01*
X30625518Y-150874188D01*
X30505820Y-150910498D01*
X30395506Y-150969463D01*
X30298815Y-151048815D01*
X30219463Y-151145506D01*
X30160498Y-151255820D01*
X30124188Y-151375518D01*
X30111928Y-151500000D01*
X20660000Y-151500000D01*
X20660000Y-137692017D01*
X21373000Y-137692017D01*
X21373000Y-138307983D01*
X21493169Y-138912112D01*
X21728889Y-139481190D01*
X22071101Y-139993346D01*
X22506654Y-140428899D01*
X23018810Y-140771111D01*
X23587888Y-141006831D01*
X24192017Y-141127000D01*
X24807983Y-141127000D01*
X25412112Y-141006831D01*
X25981190Y-140771111D01*
X26493346Y-140428899D01*
X26928899Y-139993346D01*
X27271111Y-139481190D01*
X27506831Y-138912112D01*
X27627000Y-138307983D01*
X27627000Y-137692017D01*
X27506831Y-137087888D01*
X27271111Y-136518810D01*
X26928899Y-136006654D01*
X26493346Y-135571101D01*
X25981190Y-135228889D01*
X25412112Y-134993169D01*
X24807983Y-134873000D01*
X24192017Y-134873000D01*
X23587888Y-134993169D01*
X23018810Y-135228889D01*
X22506654Y-135571101D01*
X22071101Y-136006654D01*
X21728889Y-136518810D01*
X21493169Y-137087888D01*
X21373000Y-137692017D01*
X20660000Y-137692017D01*
X20660000Y-130660000D01*
X30032419Y-130660000D01*
X30066382Y-130656655D01*
X30092329Y-130656655D01*
X30101494Y-130655692D01*
X30489393Y-130612182D01*
X30547873Y-130599751D01*
X30606583Y-130588127D01*
X30615386Y-130585401D01*
X30987447Y-130467377D01*
X31042430Y-130443811D01*
X31097736Y-130421016D01*
X31105842Y-130416633D01*
X31150393Y-130392141D01*
X31171414Y-130442889D01*
X31273738Y-130596028D01*
X31403972Y-130726262D01*
X31557111Y-130828586D01*
X31727271Y-130899068D01*
X31907911Y-130935000D01*
X32092089Y-130935000D01*
X32272729Y-130899068D01*
X32442889Y-130828586D01*
X32500000Y-130790426D01*
X32557111Y-130828586D01*
X32727271Y-130899068D01*
X32907911Y-130935000D01*
X33092089Y-130935000D01*
X33272729Y-130899068D01*
X33442889Y-130828586D01*
X33500000Y-130790426D01*
X33557111Y-130828586D01*
X33727271Y-130899068D01*
X33907911Y-130935000D01*
X34092089Y-130935000D01*
X34272729Y-130899068D01*
X34442889Y-130828586D01*
X34500000Y-130790426D01*
X34557111Y-130828586D01*
X34727271Y-130899068D01*
X34907911Y-130935000D01*
X35092089Y-130935000D01*
X35272729Y-130899068D01*
X35442889Y-130828586D01*
X35500000Y-130790426D01*
X35557111Y-130828586D01*
X35727271Y-130899068D01*
X35907911Y-130935000D01*
X36092089Y-130935000D01*
X36272729Y-130899068D01*
X36442889Y-130828586D01*
X36500000Y-130790426D01*
X36557111Y-130828586D01*
X36727271Y-130899068D01*
X36907911Y-130935000D01*
X37092089Y-130935000D01*
X37272729Y-130899068D01*
X37442889Y-130828586D01*
X37500000Y-130790426D01*
X37557111Y-130828586D01*
X37727271Y-130899068D01*
X37907911Y-130935000D01*
X38092089Y-130935000D01*
X38272729Y-130899068D01*
X38442889Y-130828586D01*
X38596028Y-130726262D01*
X38726262Y-130596028D01*
X38828586Y-130442889D01*
X38850282Y-130390510D01*
X38928007Y-130431837D01*
G36*
X32193748Y-152735858D02*
G01*
X32179605Y-152750000D01*
X32193748Y-152764143D01*
X32060890Y-152897000D01*
X31939110Y-152897000D01*
X31806253Y-152764143D01*
X31820395Y-152750000D01*
X31806253Y-152735858D01*
X31985858Y-152556253D01*
X32000000Y-152570395D01*
X32014143Y-152556253D01*
X32193748Y-152735858D01*
G37*
X32193748Y-152735858D02*
X32179605Y-152750000D01*
X32193748Y-152764143D01*
X32060890Y-152897000D01*
X31939110Y-152897000D01*
X31806253Y-152764143D01*
X31820395Y-152750000D01*
X31806253Y-152735858D01*
X31985858Y-152556253D01*
X32000000Y-152570395D01*
X32014143Y-152556253D01*
X32193748Y-152735858D01*
G36*
X68653748Y-162405858D02*
G01*
X68639605Y-162420000D01*
X68653748Y-162434143D01*
X68474143Y-162613748D01*
X68460000Y-162599605D01*
X66792106Y-164267499D01*
X67008228Y-164634258D01*
X67468105Y-164874938D01*
X67966098Y-165021275D01*
X68483071Y-165067648D01*
X68999159Y-165012273D01*
X69494526Y-164857279D01*
X69911772Y-164634258D01*
X70127893Y-164267501D01*
X70240000Y-164379608D01*
X70240000Y-164462678D01*
X70236324Y-164500000D01*
X70240000Y-164537322D01*
X70240000Y-164537332D01*
X70250997Y-164648985D01*
X70285788Y-164763676D01*
X70294454Y-164792246D01*
X70365026Y-164924276D01*
X70398426Y-164964974D01*
X70459999Y-165040001D01*
X70489003Y-165063804D01*
X70537127Y-165111928D01*
X70125000Y-165111928D01*
X69878587Y-165136198D01*
X69641643Y-165208074D01*
X69423275Y-165324794D01*
X69231873Y-165481873D01*
X69074794Y-165673275D01*
X69000000Y-165813205D01*
X68925206Y-165673275D01*
X68768127Y-165481873D01*
X68576725Y-165324794D01*
X68358357Y-165208074D01*
X68121413Y-165136198D01*
X67875000Y-165111928D01*
X66625000Y-165111928D01*
X66378587Y-165136198D01*
X66141643Y-165208074D01*
X66010000Y-165278439D01*
X66010000Y-163413869D01*
X66022721Y-163454526D01*
X66245742Y-163871772D01*
X66612501Y-164087894D01*
X68280395Y-162420000D01*
X68266253Y-162405858D01*
X68445858Y-162226253D01*
X68460000Y-162240395D01*
X68474143Y-162226253D01*
X68653748Y-162405858D01*
G37*
X68653748Y-162405858D02*
X68639605Y-162420000D01*
X68653748Y-162434143D01*
X68474143Y-162613748D01*
X68460000Y-162599605D01*
X66792106Y-164267499D01*
X67008228Y-164634258D01*
X67468105Y-164874938D01*
X67966098Y-165021275D01*
X68483071Y-165067648D01*
X68999159Y-165012273D01*
X69494526Y-164857279D01*
X69911772Y-164634258D01*
X70127893Y-164267501D01*
X70240000Y-164379608D01*
X70240000Y-164462678D01*
X70236324Y-164500000D01*
X70240000Y-164537322D01*
X70240000Y-164537332D01*
X70250997Y-164648985D01*
X70285788Y-164763676D01*
X70294454Y-164792246D01*
X70365026Y-164924276D01*
X70398426Y-164964974D01*
X70459999Y-165040001D01*
X70489003Y-165063804D01*
X70537127Y-165111928D01*
X70125000Y-165111928D01*
X69878587Y-165136198D01*
X69641643Y-165208074D01*
X69423275Y-165324794D01*
X69231873Y-165481873D01*
X69074794Y-165673275D01*
X69000000Y-165813205D01*
X68925206Y-165673275D01*
X68768127Y-165481873D01*
X68576725Y-165324794D01*
X68358357Y-165208074D01*
X68121413Y-165136198D01*
X67875000Y-165111928D01*
X66625000Y-165111928D01*
X66378587Y-165136198D01*
X66141643Y-165208074D01*
X66010000Y-165278439D01*
X66010000Y-163413869D01*
X66022721Y-163454526D01*
X66245742Y-163871772D01*
X66612501Y-164087894D01*
X68280395Y-162420000D01*
X68266253Y-162405858D01*
X68445858Y-162226253D01*
X68460000Y-162240395D01*
X68474143Y-162226253D01*
X68653748Y-162405858D01*
G36*
X48061928Y-161800000D02*
G01*
X48074188Y-161924482D01*
X48110498Y-162044180D01*
X48169463Y-162154494D01*
X48248815Y-162251185D01*
X48345506Y-162330537D01*
X48455820Y-162389502D01*
X48575518Y-162425812D01*
X48700000Y-162438072D01*
X50300000Y-162438072D01*
X50424482Y-162425812D01*
X50544180Y-162389502D01*
X50654494Y-162330537D01*
X50751185Y-162251185D01*
X50773011Y-162224590D01*
X50865000Y-162316579D01*
X50865000Y-164542725D01*
X50837333Y-164540000D01*
X50837322Y-164540000D01*
X50800000Y-164536324D01*
X50762678Y-164540000D01*
X49371314Y-164540000D01*
X49472571Y-164326004D01*
X49541300Y-164051816D01*
X49555217Y-163769488D01*
X49513787Y-163489870D01*
X49418603Y-163223708D01*
X49351671Y-163098486D01*
X49107702Y-163026903D01*
X48294605Y-163840000D01*
X48308748Y-163854143D01*
X48129143Y-164033748D01*
X48115000Y-164019605D01*
X48100858Y-164033748D01*
X47921253Y-163854143D01*
X47935395Y-163840000D01*
X47921253Y-163825858D01*
X48100858Y-163646253D01*
X48115000Y-163660395D01*
X48928097Y-162847298D01*
X48856514Y-162603329D01*
X48601004Y-162482429D01*
X48326816Y-162413700D01*
X48044488Y-162399783D01*
X47764870Y-162441213D01*
X47498708Y-162536397D01*
X47490000Y-162541051D01*
X47490000Y-162218043D01*
X47644759Y-162114637D01*
X47844637Y-161914759D01*
X48001680Y-161679727D01*
X48061928Y-161534275D01*
X48061928Y-161800000D01*
G37*
X48061928Y-161800000D02*
X48074188Y-161924482D01*
X48110498Y-162044180D01*
X48169463Y-162154494D01*
X48248815Y-162251185D01*
X48345506Y-162330537D01*
X48455820Y-162389502D01*
X48575518Y-162425812D01*
X48700000Y-162438072D01*
X50300000Y-162438072D01*
X50424482Y-162425812D01*
X50544180Y-162389502D01*
X50654494Y-162330537D01*
X50751185Y-162251185D01*
X50773011Y-162224590D01*
X50865000Y-162316579D01*
X50865000Y-164542725D01*
X50837333Y-164540000D01*
X50837322Y-164540000D01*
X50800000Y-164536324D01*
X50762678Y-164540000D01*
X49371314Y-164540000D01*
X49472571Y-164326004D01*
X49541300Y-164051816D01*
X49555217Y-163769488D01*
X49513787Y-163489870D01*
X49418603Y-163223708D01*
X49351671Y-163098486D01*
X49107702Y-163026903D01*
X48294605Y-163840000D01*
X48308748Y-163854143D01*
X48129143Y-164033748D01*
X48115000Y-164019605D01*
X48100858Y-164033748D01*
X47921253Y-163854143D01*
X47935395Y-163840000D01*
X47921253Y-163825858D01*
X48100858Y-163646253D01*
X48115000Y-163660395D01*
X48928097Y-162847298D01*
X48856514Y-162603329D01*
X48601004Y-162482429D01*
X48326816Y-162413700D01*
X48044488Y-162399783D01*
X47764870Y-162441213D01*
X47498708Y-162536397D01*
X47490000Y-162541051D01*
X47490000Y-162218043D01*
X47644759Y-162114637D01*
X47844637Y-161914759D01*
X48001680Y-161679727D01*
X48061928Y-161534275D01*
X48061928Y-161800000D01*
G36*
X77057111Y-155228586D02*
G01*
X77227271Y-155299068D01*
X77407911Y-155335000D01*
X77592089Y-155335000D01*
X77772729Y-155299068D01*
X77942889Y-155228586D01*
X78045535Y-155160000D01*
X79354465Y-155160000D01*
X79457111Y-155228586D01*
X79622143Y-155296944D01*
X79660107Y-155334908D01*
X79659998Y-155334998D01*
X79636200Y-155363997D01*
X78988998Y-156011199D01*
X78960000Y-156034997D01*
X78865026Y-156150722D01*
X78794454Y-156282751D01*
X78750997Y-156426012D01*
X78749611Y-156440080D01*
X78671414Y-156557111D01*
X78600932Y-156727271D01*
X78565000Y-156907911D01*
X78565000Y-157092089D01*
X78600932Y-157272729D01*
X78671414Y-157442889D01*
X78773738Y-157596028D01*
X78903972Y-157726262D01*
X79057111Y-157828586D01*
X79227271Y-157899068D01*
X79407911Y-157935000D01*
X79592089Y-157935000D01*
X79740001Y-157905578D01*
X79740001Y-158375197D01*
X78513886Y-159601312D01*
X78331335Y-159565000D01*
X78048665Y-159565000D01*
X77771426Y-159620147D01*
X77510273Y-159728320D01*
X77275241Y-159885363D01*
X77075363Y-160085241D01*
X76918320Y-160320273D01*
X76810147Y-160581426D01*
X76805000Y-160607301D01*
X76799853Y-160581426D01*
X76691680Y-160320273D01*
X76534637Y-160085241D01*
X76334759Y-159885363D01*
X76099727Y-159728320D01*
X75838574Y-159620147D01*
X75561335Y-159565000D01*
X75278665Y-159565000D01*
X75001426Y-159620147D01*
X74740273Y-159728320D01*
X74505241Y-159885363D01*
X74305363Y-160085241D01*
X74285479Y-160115000D01*
X73038454Y-160115000D01*
X72990256Y-160082795D01*
X72814717Y-160010084D01*
X74489805Y-158334997D01*
X74518802Y-158311200D01*
X74613775Y-158195475D01*
X74684347Y-158063446D01*
X74727804Y-157920185D01*
X74738801Y-157808532D01*
X74738801Y-157808531D01*
X74742478Y-157771199D01*
X74738801Y-157733866D01*
X74738801Y-155269803D01*
X74809744Y-155317205D01*
X74998102Y-155395226D01*
X75198061Y-155435000D01*
X75401939Y-155435000D01*
X75601898Y-155395226D01*
X75790256Y-155317205D01*
X75959774Y-155203937D01*
X76003711Y-155160000D01*
X76954465Y-155160000D01*
X77057111Y-155228586D01*
G37*
X77057111Y-155228586D02*
X77227271Y-155299068D01*
X77407911Y-155335000D01*
X77592089Y-155335000D01*
X77772729Y-155299068D01*
X77942889Y-155228586D01*
X78045535Y-155160000D01*
X79354465Y-155160000D01*
X79457111Y-155228586D01*
X79622143Y-155296944D01*
X79660107Y-155334908D01*
X79659998Y-155334998D01*
X79636200Y-155363997D01*
X78988998Y-156011199D01*
X78960000Y-156034997D01*
X78865026Y-156150722D01*
X78794454Y-156282751D01*
X78750997Y-156426012D01*
X78749611Y-156440080D01*
X78671414Y-156557111D01*
X78600932Y-156727271D01*
X78565000Y-156907911D01*
X78565000Y-157092089D01*
X78600932Y-157272729D01*
X78671414Y-157442889D01*
X78773738Y-157596028D01*
X78903972Y-157726262D01*
X79057111Y-157828586D01*
X79227271Y-157899068D01*
X79407911Y-157935000D01*
X79592089Y-157935000D01*
X79740001Y-157905578D01*
X79740001Y-158375197D01*
X78513886Y-159601312D01*
X78331335Y-159565000D01*
X78048665Y-159565000D01*
X77771426Y-159620147D01*
X77510273Y-159728320D01*
X77275241Y-159885363D01*
X77075363Y-160085241D01*
X76918320Y-160320273D01*
X76810147Y-160581426D01*
X76805000Y-160607301D01*
X76799853Y-160581426D01*
X76691680Y-160320273D01*
X76534637Y-160085241D01*
X76334759Y-159885363D01*
X76099727Y-159728320D01*
X75838574Y-159620147D01*
X75561335Y-159565000D01*
X75278665Y-159565000D01*
X75001426Y-159620147D01*
X74740273Y-159728320D01*
X74505241Y-159885363D01*
X74305363Y-160085241D01*
X74285479Y-160115000D01*
X73038454Y-160115000D01*
X72990256Y-160082795D01*
X72814717Y-160010084D01*
X74489805Y-158334997D01*
X74518802Y-158311200D01*
X74613775Y-158195475D01*
X74684347Y-158063446D01*
X74727804Y-157920185D01*
X74738801Y-157808532D01*
X74738801Y-157808531D01*
X74742478Y-157771199D01*
X74738801Y-157733866D01*
X74738801Y-155269803D01*
X74809744Y-155317205D01*
X74998102Y-155395226D01*
X75198061Y-155435000D01*
X75401939Y-155435000D01*
X75601898Y-155395226D01*
X75790256Y-155317205D01*
X75959774Y-155203937D01*
X76003711Y-155160000D01*
X76954465Y-155160000D01*
X77057111Y-155228586D01*
G36*
X93193748Y-152735858D02*
G01*
X93179605Y-152750000D01*
X93193748Y-152764143D01*
X93060890Y-152897000D01*
X92939110Y-152897000D01*
X92806253Y-152764143D01*
X92820395Y-152750000D01*
X92806253Y-152735858D01*
X92985858Y-152556253D01*
X93000000Y-152570395D01*
X93014143Y-152556253D01*
X93193748Y-152735858D01*
G37*
X93193748Y-152735858D02*
X93179605Y-152750000D01*
X93193748Y-152764143D01*
X93060890Y-152897000D01*
X92939110Y-152897000D01*
X92806253Y-152764143D01*
X92820395Y-152750000D01*
X92806253Y-152735858D01*
X92985858Y-152556253D01*
X93000000Y-152570395D01*
X93014143Y-152556253D01*
X93193748Y-152735858D01*
G36*
X77557111Y-134828586D02*
G01*
X77727271Y-134899068D01*
X77861928Y-134925853D01*
X77861928Y-135250000D01*
X77874188Y-135374482D01*
X77910498Y-135494180D01*
X77969463Y-135604494D01*
X78048815Y-135701185D01*
X78108296Y-135750000D01*
X78048815Y-135798815D01*
X77969463Y-135895506D01*
X77910498Y-136005820D01*
X77874188Y-136125518D01*
X77861928Y-136250000D01*
X77861928Y-136750000D01*
X77874188Y-136874482D01*
X77910498Y-136994180D01*
X77969463Y-137104494D01*
X78048815Y-137201185D01*
X78108296Y-137250000D01*
X78048815Y-137298815D01*
X77969463Y-137395506D01*
X77910498Y-137505820D01*
X77874188Y-137625518D01*
X77861928Y-137750000D01*
X77861928Y-138250000D01*
X77874188Y-138374482D01*
X77910498Y-138494180D01*
X77969463Y-138604494D01*
X78048815Y-138701185D01*
X78145506Y-138780537D01*
X78255820Y-138839502D01*
X78361928Y-138871690D01*
X78361928Y-140128310D01*
X78255820Y-140160498D01*
X78145506Y-140219463D01*
X78048815Y-140298815D01*
X77969463Y-140395506D01*
X77910498Y-140505820D01*
X77874188Y-140625518D01*
X77861928Y-140750000D01*
X77861928Y-143250000D01*
X77874188Y-143374482D01*
X77910498Y-143494180D01*
X77913609Y-143500000D01*
X77910498Y-143505820D01*
X77874188Y-143625518D01*
X77861928Y-143750000D01*
X77861928Y-147122420D01*
X77828992Y-147140025D01*
X77713267Y-147234998D01*
X77689469Y-147263996D01*
X74739002Y-150214464D01*
X74738997Y-150214468D01*
X73885000Y-151068466D01*
X73885000Y-148288454D01*
X73917205Y-148240256D01*
X73995226Y-148051898D01*
X74035000Y-147851939D01*
X74035000Y-147648061D01*
X73995226Y-147448102D01*
X73917205Y-147259744D01*
X73803937Y-147090226D01*
X73659774Y-146946063D01*
X73490256Y-146832795D01*
X73301898Y-146754774D01*
X73101939Y-146715000D01*
X72898061Y-146715000D01*
X72698102Y-146754774D01*
X72509744Y-146832795D01*
X72340226Y-146946063D01*
X72196063Y-147090226D01*
X72082795Y-147259744D01*
X72051107Y-147336245D01*
X71977271Y-147350932D01*
X71807111Y-147421414D01*
X71653972Y-147523738D01*
X71523738Y-147653972D01*
X71421414Y-147807111D01*
X71350932Y-147977271D01*
X71315000Y-148157911D01*
X71315000Y-148286778D01*
X71260000Y-148204465D01*
X71260000Y-142660000D01*
X71954465Y-142660000D01*
X72057111Y-142728586D01*
X72227271Y-142799068D01*
X72407911Y-142835000D01*
X72592089Y-142835000D01*
X72772729Y-142799068D01*
X72942889Y-142728586D01*
X73096028Y-142626262D01*
X73226262Y-142496028D01*
X73328586Y-142342889D01*
X73399068Y-142172729D01*
X73435000Y-141992089D01*
X73435000Y-141807911D01*
X73399068Y-141627271D01*
X73328586Y-141457111D01*
X73226262Y-141303972D01*
X73096028Y-141173738D01*
X72942889Y-141071414D01*
X72772729Y-141000932D01*
X72592089Y-140965000D01*
X72407911Y-140965000D01*
X72227271Y-141000932D01*
X72057111Y-141071414D01*
X71954465Y-141140000D01*
X71260000Y-141140000D01*
X71260000Y-139064801D01*
X75564803Y-134760000D01*
X77454465Y-134760000D01*
X77557111Y-134828586D01*
G37*
X77557111Y-134828586D02*
X77727271Y-134899068D01*
X77861928Y-134925853D01*
X77861928Y-135250000D01*
X77874188Y-135374482D01*
X77910498Y-135494180D01*
X77969463Y-135604494D01*
X78048815Y-135701185D01*
X78108296Y-135750000D01*
X78048815Y-135798815D01*
X77969463Y-135895506D01*
X77910498Y-136005820D01*
X77874188Y-136125518D01*
X77861928Y-136250000D01*
X77861928Y-136750000D01*
X77874188Y-136874482D01*
X77910498Y-136994180D01*
X77969463Y-137104494D01*
X78048815Y-137201185D01*
X78108296Y-137250000D01*
X78048815Y-137298815D01*
X77969463Y-137395506D01*
X77910498Y-137505820D01*
X77874188Y-137625518D01*
X77861928Y-137750000D01*
X77861928Y-138250000D01*
X77874188Y-138374482D01*
X77910498Y-138494180D01*
X77969463Y-138604494D01*
X78048815Y-138701185D01*
X78145506Y-138780537D01*
X78255820Y-138839502D01*
X78361928Y-138871690D01*
X78361928Y-140128310D01*
X78255820Y-140160498D01*
X78145506Y-140219463D01*
X78048815Y-140298815D01*
X77969463Y-140395506D01*
X77910498Y-140505820D01*
X77874188Y-140625518D01*
X77861928Y-140750000D01*
X77861928Y-143250000D01*
X77874188Y-143374482D01*
X77910498Y-143494180D01*
X77913609Y-143500000D01*
X77910498Y-143505820D01*
X77874188Y-143625518D01*
X77861928Y-143750000D01*
X77861928Y-147122420D01*
X77828992Y-147140025D01*
X77713267Y-147234998D01*
X77689469Y-147263996D01*
X74739002Y-150214464D01*
X74738997Y-150214468D01*
X73885000Y-151068466D01*
X73885000Y-148288454D01*
X73917205Y-148240256D01*
X73995226Y-148051898D01*
X74035000Y-147851939D01*
X74035000Y-147648061D01*
X73995226Y-147448102D01*
X73917205Y-147259744D01*
X73803937Y-147090226D01*
X73659774Y-146946063D01*
X73490256Y-146832795D01*
X73301898Y-146754774D01*
X73101939Y-146715000D01*
X72898061Y-146715000D01*
X72698102Y-146754774D01*
X72509744Y-146832795D01*
X72340226Y-146946063D01*
X72196063Y-147090226D01*
X72082795Y-147259744D01*
X72051107Y-147336245D01*
X71977271Y-147350932D01*
X71807111Y-147421414D01*
X71653972Y-147523738D01*
X71523738Y-147653972D01*
X71421414Y-147807111D01*
X71350932Y-147977271D01*
X71315000Y-148157911D01*
X71315000Y-148286778D01*
X71260000Y-148204465D01*
X71260000Y-142660000D01*
X71954465Y-142660000D01*
X72057111Y-142728586D01*
X72227271Y-142799068D01*
X72407911Y-142835000D01*
X72592089Y-142835000D01*
X72772729Y-142799068D01*
X72942889Y-142728586D01*
X73096028Y-142626262D01*
X73226262Y-142496028D01*
X73328586Y-142342889D01*
X73399068Y-142172729D01*
X73435000Y-141992089D01*
X73435000Y-141807911D01*
X73399068Y-141627271D01*
X73328586Y-141457111D01*
X73226262Y-141303972D01*
X73096028Y-141173738D01*
X72942889Y-141071414D01*
X72772729Y-141000932D01*
X72592089Y-140965000D01*
X72407911Y-140965000D01*
X72227271Y-141000932D01*
X72057111Y-141071414D01*
X71954465Y-141140000D01*
X71260000Y-141140000D01*
X71260000Y-139064801D01*
X75564803Y-134760000D01*
X77454465Y-134760000D01*
X77557111Y-134828586D01*
M02*
